solid ascii
 facet normal -0.572483 -0.807195 -0.143869
  outer loop
   vertex -0.00998497 -0.0655445 0.0338026
   vertex -0.00951606 -0.061662 0.0101533
   vertex 0.0011592 -0.0690925 0.00936364
  endloop
 endfacet
 facet normal -0.679042 -0.704189 -0.207414
  outer loop
   vertex 0.0011592 -0.0690925 0.00936364
   vertex 0.00189434 -0.0758343 0.0298461
   vertex -0.00998497 -0.0655445 0.0338026
  endloop
 endfacet
 facet normal -0.657565 -0.753241 -0.0153571
  outer loop
   vertex -0.0102131 -0.0660068 0.0662434
   vertex -0.00998497 -0.0655445 0.0338026
   vertex 0.00189434 -0.0758343 0.0298461
  endloop
 endfacet
 facet normal -0.649268 -0.760486 -0.0106407
  outer loop
   vertex 0.00189434 -0.0758343 0.0298461
   vertex 0.00189434 -0.0763107 0.063894
   vertex -0.0102131 -0.0660068 0.0662434
  endloop
 endfacet
 facet normal -0.881948 -0.470216 -0.0326275
  outer loop
   vertex -0.0284721 -0.0286832 0.0472718
   vertex -0.0281353 -0.0275691 0.022113
   vertex -0.00951606 -0.061662 0.0101533
  endloop
 endfacet
 facet normal -0.902868 -0.421019 -0.0870209
  outer loop
   vertex -0.00951606 -0.061662 0.0101533
   vertex -0.00998497 -0.0655445 0.0338026
   vertex -0.0284721 -0.0286832 0.0472718
  endloop
 endfacet
 facet normal -0.893403 -0.448713 -0.0220857
  outer loop
   vertex -0.0435421 0.00166609 0.051852
   vertex -0.0429927 0.00181881 0.0265245
   vertex -0.0287514 -0.0263149 0.0220297
  endloop
 endfacet
 facet normal -0.897176 -0.440539 -0.031627
  outer loop
   vertex -0.0287514 -0.0263149 0.0220297
   vertex -0.0294081 -0.0267787 0.0471213
   vertex -0.0435421 0.00166609 0.051852
  endloop
 endfacet
 facet normal -0.896022 -0.442881 -0.03164
  outer loop
   vertex -0.0294081 -0.0267787 0.0471213
   vertex -0.0287514 -0.0263149 0.0220297
   vertex -0.0284721 -0.0286832 0.0472718
  endloop
 endfacet
 facet normal -0.8963 -0.442322 -0.0315845
  outer loop
   vertex -0.0284721 -0.0286832 0.0472718
   vertex -0.0287514 -0.0263149 0.0220297
   vertex -0.0281353 -0.0275691 0.022113
  endloop
 endfacet
 facet normal -0.895814 -0.444212 -0.0138683
  outer loop
   vertex -0.028608 -0.0292957 0.0756681
   vertex -0.0284721 -0.0286832 0.0472718
   vertex -0.00998497 -0.0655445 0.0338026
  endloop
 endfacet
 facet normal -0.895269 -0.445348 -0.0126422
  outer loop
   vertex -0.00998497 -0.0655445 0.0338026
   vertex -0.0102131 -0.0660068 0.0662434
   vertex -0.028608 -0.0292957 0.0756681
  endloop
 endfacet
 facet normal -0.89653 -0.442658 -0.0169552
  outer loop
   vertex -0.0440038 0.00155385 0.0791935
   vertex -0.0435421 0.00166609 0.051852
   vertex -0.0294081 -0.0267787 0.0471213
  endloop
 endfacet
 facet normal -0.89533 -0.445178 -0.0141824
  outer loop
   vertex -0.0294081 -0.0267787 0.0471213
   vertex -0.0297741 -0.0269465 0.0754926
   vertex -0.0440038 0.00155385 0.0791935
  endloop
 endfacet
 facet normal -0.895204 -0.445431 -0.0141822
  outer loop
   vertex -0.0297741 -0.0269465 0.0754926
   vertex -0.0294081 -0.0267787 0.0471213
   vertex -0.028608 -0.0292957 0.0756681
  endloop
 endfacet
 facet normal -0.896945 -0.441926 -0.0138244
  outer loop
   vertex -0.028608 -0.0292957 0.0756681
   vertex -0.0294081 -0.0267787 0.0471213
   vertex -0.0284721 -0.0286832 0.0472718
  endloop
 endfacet
 facet normal -0.582459 -0.812218 -0.0323042
  outer loop
   vertex -0.00985502 -0.0675243 0.0979419
   vertex -0.0102131 -0.0660068 0.0662434
   vertex 0.00189434 -0.07595 0.0979419
  endloop
 endfacet
 facet normal -0.647177 -0.762297 0.00807514
  outer loop
   vertex 0.00189434 -0.07595 0.0979419
   vertex -0.0102131 -0.0660068 0.0662434
   vertex 0.00189434 -0.0763107 0.063894
  endloop
 endfacet
 facet normal -0.582739 -0.812609 0.00904069
  outer loop
   vertex -0.0093268 -0.0675243 0.13199
   vertex -0.00985502 -0.0675243 0.0979419
   vertex 0.00189434 -0.07595 0.0979419
  endloop
 endfacet
 facet normal -0.58063 -0.814105 0.0101056
  outer loop
   vertex 0.00189434 -0.07595 0.0979419
   vertex 0.00189434 -0.0755274 0.13199
   vertex -0.0093268 -0.0675243 0.13199
  endloop
 endfacet
 facet normal -0.89454 -0.44696 -0.00493789
  outer loop
   vertex -0.0286835 -0.0294788 0.105926
   vertex -0.028608 -0.0292957 0.0756681
   vertex -0.0102131 -0.0660068 0.0662434
  endloop
 endfacet
 facet normal -0.897112 -0.441665 -0.0110092
  outer loop
   vertex -0.0102131 -0.0660068 0.0662434
   vertex -0.00985502 -0.0675243 0.0979419
   vertex -0.0286835 -0.0294788 0.105926
  endloop
 endfacet
 facet normal -0.894355 -0.447317 0.00603421
  outer loop
   vertex -0.0438242 0.00160115 0.109314
   vertex -0.0440038 0.00155385 0.0791935
   vertex -0.0297741 -0.0269465 0.0754926
  endloop
 endfacet
 facet normal -0.899285 -0.437342 -0.0044334
  outer loop
   vertex -0.0297741 -0.0269465 0.0754926
   vertex -0.0298608 -0.0270762 0.105867
   vertex -0.0438242 0.00160115 0.109314
  endloop
 endfacet
 facet normal -0.895575 -0.444889 -0.00445505
  outer loop
   vertex -0.0298608 -0.0270762 0.105867
   vertex -0.0297741 -0.0269465 0.0754926
   vertex -0.028608 -0.0292957 0.0756681
  endloop
 endfacet
 facet normal -0.897935 -0.440101 -0.00490487
  outer loop
   vertex -0.028608 -0.0292957 0.0756681
   vertex -0.0286835 -0.0294788 0.105926
   vertex -0.0298608 -0.0270762 0.105867
  endloop
 endfacet
 facet normal -0.895525 -0.444934 0.00831261
  outer loop
   vertex -0.0284045 -0.0294653 0.136715
   vertex -0.0286835 -0.0294788 0.105926
   vertex -0.00985502 -0.0675243 0.0979419
  endloop
 endfacet
 facet normal -0.893198 -0.449449 0.0138572
  outer loop
   vertex -0.00985502 -0.0675243 0.0979419
   vertex -0.0093268 -0.0675243 0.13199
   vertex -0.0284045 -0.0294653 0.136715
  endloop
 endfacet
 facet normal -0.901037 -0.433491 0.0147395
  outer loop
   vertex -0.043362 0.00165052 0.139019
   vertex -0.0438242 0.00160115 0.109314
   vertex -0.0298555 -0.0265033 0.136675
  endloop
 endfacet
 facet normal -0.898659 -0.438569 0.00830983
  outer loop
   vertex -0.0298555 -0.0265033 0.136675
   vertex -0.0438242 0.00160115 0.109314
   vertex -0.0298608 -0.0270762 0.105867
  endloop
 endfacet
 facet normal -0.898042 -0.439831 0.00833321
  outer loop
   vertex -0.0298555 -0.0265033 0.136675
   vertex -0.0298608 -0.0270762 0.105867
   vertex -0.0286835 -0.0294788 0.105926
  endloop
 endfacet
 facet normal -0.898042 -0.439831 0.00833318
  outer loop
   vertex -0.0286835 -0.0294788 0.105926
   vertex -0.0284045 -0.0294653 0.136715
   vertex -0.0298555 -0.0265033 0.136675
  endloop
 endfacet
 facet normal -0.0322516 -0.949717 -0.311443
  outer loop
   vertex 0.00189434 -0.0758343 0.0298461
   vertex 0.0011592 -0.0690925 0.00936364
   vertex 0.032856 -0.0699713 0.00876131
  endloop
 endfacet
 facet normal 0.0928637 -0.986092 -0.137835
  outer loop
   vertex 0.032856 -0.0699713 0.00876131
   vertex 0.0342203 -0.0736151 0.0357486
   vertex 0.00189434 -0.0758343 0.0298461
  endloop
 endfacet
 facet normal 0.545558 -0.826438 -0.139165
  outer loop
   vertex 0.0342203 -0.0736151 0.0357486
   vertex 0.032856 -0.0699713 0.00876131
   vertex 0.0442435 -0.0623888 0.00837381
  endloop
 endfacet
 facet normal 0.40143 -0.889606 -0.217842
  outer loop
   vertex 0.0442435 -0.0623888 0.00837381
   vertex 0.0486134 -0.0662826 0.0323276
   vertex 0.0342203 -0.0736151 0.0357486
  endloop
 endfacet
 facet normal 0.0710192 -0.997377 -0.0139553
  outer loop
   vertex 0.00189434 -0.0763107 0.063894
   vertex 0.00189434 -0.0758343 0.0298461
   vertex 0.0342203 -0.0736151 0.0357486
  endloop
 endfacet
 facet normal 0.0585553 -0.997882 -0.0283188
  outer loop
   vertex 0.0342203 -0.0736151 0.0357486
   vertex 0.0342376 -0.0745413 0.0684207
   vertex 0.00189434 -0.0763107 0.063894
  endloop
 endfacet
 facet normal 0.444313 -0.895505 -0.02562
  outer loop
   vertex 0.0342376 -0.0745413 0.0684207
   vertex 0.0342203 -0.0736151 0.0357486
   vertex 0.0501128 -0.0665771 0.0653605
  endloop
 endfacet
 facet normal 0.448401 -0.893384 -0.0283179
  outer loop
   vertex 0.0501128 -0.0665771 0.0653605
   vertex 0.0342203 -0.0736151 0.0357486
   vertex 0.0486134 -0.0662826 0.0323276
  endloop
 endfacet
 facet normal 0.922832 -0.316353 -0.219775
  outer loop
   vertex 0.0486134 -0.0662826 0.0323276
   vertex 0.0442435 -0.0623888 0.00837381
   vertex 0.055106 -0.0306653 0.00832094
  endloop
 endfacet
 facet normal 0.901889 -0.34214 -0.263697
  outer loop
   vertex 0.055106 -0.0306653 0.00832094
   vertex 0.0603331 -0.0334764 0.0298461
   vertex 0.0486134 -0.0662826 0.0323276
  endloop
 endfacet
 facet normal 0.893546 0.418602 -0.162319
  outer loop
   vertex 0.0603331 -0.0334764 0.0298461
   vertex 0.055106 -0.0306653 0.00832094
   vertex 0.045421 0.000897647 0.0364036
  endloop
 endfacet
 facet normal 0.940652 0.335296 -0.052444
  outer loop
   vertex 0.045421 0.000897647 0.0364036
   vertex 0.055106 -0.0306653 0.00832094
   vertex 0.043808 0.00109715 0.00874783
  endloop
 endfacet
 facet normal 0.93963 -0.339131 -0.0456746
  outer loop
   vertex 0.0501128 -0.0665771 0.0653605
   vertex 0.0486134 -0.0662826 0.0323276
   vertex 0.0603331 -0.0334764 0.0298461
  endloop
 endfacet
 facet normal 0.95091 -0.309129 -0.0144652
  outer loop
   vertex 0.0603331 -0.0334764 0.0298461
   vertex 0.0608511 -0.0334764 0.063894
   vertex 0.0501128 -0.0665771 0.0653605
  endloop
 endfacet
 facet normal 0.904468 0.426319 -0.0137587
  outer loop
   vertex 0.0608511 -0.0334764 0.063894
   vertex 0.0603331 -0.0334764 0.0298461
   vertex 0.0447015 0.00100323 0.0706183
  endloop
 endfacet
 facet normal 0.918499 0.395009 0.0180977
  outer loop
   vertex 0.0447015 0.00100323 0.0706183
   vertex 0.0603331 -0.0334764 0.0298461
   vertex 0.045421 0.000897647 0.0364036
  endloop
 endfacet
 facet normal 0.0531469 -0.998531 0.0105776
  outer loop
   vertex 0.00189434 -0.07595 0.0979419
   vertex 0.00189434 -0.0763107 0.063894
   vertex 0.0342376 -0.0745413 0.0684207
  endloop
 endfacet
 facet normal 0.0444823 -0.99901 0.00106191
  outer loop
   vertex 0.0342376 -0.0745413 0.0684207
   vertex 0.0343913 -0.0744999 0.100863
   vertex 0.00189434 -0.07595 0.0979419
  endloop
 endfacet
 facet normal 0.448259 -0.893903 -0.000984982
  outer loop
   vertex 0.0343913 -0.0744999 0.100863
   vertex 0.0342376 -0.0745413 0.0684207
   vertex 0.0501128 -0.0665771 0.0653605
  endloop
 endfacet
 facet normal 0.399493 -0.916321 -0.0275832
  outer loop
   vertex 0.0501128 -0.0665771 0.0653605
   vertex 0.0503739 -0.0674466 0.0980273
   vertex 0.0343913 -0.0744999 0.100863
  endloop
 endfacet
 facet normal 0.0434619 -0.998978 0.0124005
  outer loop
   vertex 0.00189434 -0.0755274 0.13199
   vertex 0.00189434 -0.07595 0.0979419
   vertex 0.0343913 -0.0744999 0.100863
  endloop
 endfacet
 facet normal 0.0333324 -0.999443 0.0018099
  outer loop
   vertex 0.0343913 -0.0744999 0.100863
   vertex 0.0346032 -0.0744338 0.133477
   vertex 0.00189434 -0.0755274 0.13199
  endloop
 endfacet
 facet normal 0.413902 -0.910321 -0.000844266
  outer loop
   vertex 0.0346032 -0.0744338 0.133477
   vertex 0.0343913 -0.0744999 0.100863
   vertex 0.0497967 -0.0675243 0.13199
  endloop
 endfacet
 facet normal 0.404451 -0.914547 0.00478051
  outer loop
   vertex 0.0497967 -0.0675243 0.13199
   vertex 0.0343913 -0.0744999 0.100863
   vertex 0.0503739 -0.0674466 0.0980273
  endloop
 endfacet
 facet normal 0.950873 -0.309177 -0.0158301
  outer loop
   vertex 0.0503739 -0.0674466 0.0980273
   vertex 0.0501128 -0.0665771 0.0653605
   vertex 0.0608511 -0.0334764 0.063894
  endloop
 endfacet
 facet normal 0.95717 -0.28947 0.00571517
  outer loop
   vertex 0.0608511 -0.0334764 0.063894
   vertex 0.0606478 -0.0334764 0.0979419
   vertex 0.0503739 -0.0674466 0.0980273
  endloop
 endfacet
 facet normal 0.905979 0.423288 0.00540951
  outer loop
   vertex 0.0606478 -0.0334764 0.0979419
   vertex 0.0608511 -0.0334764 0.063894
   vertex 0.0447015 0.00100323 0.0706183
  endloop
 endfacet
 facet normal 0.902093 0.431181 0.017637
  outer loop
   vertex 0.0447015 0.00100323 0.0706183
   vertex 0.0440233 0.0010763 0.103517
   vertex 0.0606478 -0.0334764 0.0979419
  endloop
 endfacet
 facet normal 0.958887 -0.283357 0.0156487
  outer loop
   vertex 0.0497967 -0.0675243 0.13199
   vertex 0.0503739 -0.0674466 0.0980273
   vertex 0.0599237 -0.0332388 0.13227
  endloop
 endfacet
 facet normal 0.956961 -0.289366 0.0221882
  outer loop
   vertex 0.0599237 -0.0332388 0.13227
   vertex 0.0503739 -0.0674466 0.0980273
   vertex 0.0606478 -0.0334764 0.0979419
  endloop
 endfacet
 facet normal 0.902017 0.431402 0.0160404
  outer loop
   vertex 0.0599237 -0.0332388 0.13227
   vertex 0.0606478 -0.0334764 0.0979419
   vertex 0.0440233 0.0010763 0.103517
  endloop
 endfacet
 facet normal 0.901475 0.432472 0.0176177
  outer loop
   vertex 0.0440233 0.0010763 0.103517
   vertex 0.0433812 0.00111154 0.135508
   vertex 0.0599237 -0.0332388 0.13227
  endloop
 endfacet
 facet normal -0.897752 -0.42731 -0.106994
  outer loop
   vertex -0.0591109 0.0340768 0.0329363
   vertex -0.0557139 0.0324524 0.0109208
   vertex -0.0429927 0.00181881 0.0265245
  endloop
 endfacet
 facet normal -0.896078 -0.443346 -0.0221114
  outer loop
   vertex -0.0429927 0.00181881 0.0265245
   vertex -0.0435421 0.00166609 0.051852
   vertex -0.0591109 0.0340768 0.0329363
  endloop
 endfacet
 facet normal -0.898689 0.350053 -0.264238
  outer loop
   vertex -0.0471723 0.0686672 0.0298461
   vertex -0.0431017 0.0640557 0.00989283
   vertex -0.0557139 0.0324524 0.0109208
  endloop
 endfacet
 facet normal -0.936479 0.308279 -0.167245
  outer loop
   vertex -0.0557139 0.0324524 0.0109208
   vertex -0.0591109 0.0340768 0.0329363
   vertex -0.0471723 0.0686672 0.0298461
  endloop
 endfacet
 facet normal -0.901495 -0.432789 0.000435361
  outer loop
   vertex -0.0590251 0.0339323 0.0669254
   vertex -0.0591109 0.0340768 0.0329363
   vertex -0.0435421 0.00166609 0.051852
  endloop
 endfacet
 facet normal -0.904522 -0.426086 -0.0170222
  outer loop
   vertex -0.0435421 0.00166609 0.051852
   vertex -0.0440038 0.00155385 0.0791935
   vertex -0.0590251 0.0339323 0.0669254
  endloop
 endfacet
 facet normal -0.945535 0.325318 -0.01149
  outer loop
   vertex -0.0476914 0.0683805 0.064448
   vertex -0.0471723 0.0686672 0.0298461
   vertex -0.0591109 0.0340768 0.0329363
  endloop
 endfacet
 facet normal -0.949822 0.312767 0.00372697
  outer loop
   vertex -0.0591109 0.0340768 0.0329363
   vertex -0.0590251 0.0339323 0.0669254
   vertex -0.0476914 0.0683805 0.064448
  endloop
 endfacet
 facet normal -0.473162 0.852672 -0.221515
  outer loop
   vertex -0.0317698 0.076155 0.032261
   vertex -0.0303202 0.0711591 0.00993393
   vertex -0.0431017 0.0640557 0.00989283
  endloop
 endfacet
 facet normal -0.383471 0.8796 -0.281519
  outer loop
   vertex -0.0431017 0.0640557 0.00989283
   vertex -0.0471723 0.0686672 0.0298461
   vertex -0.0317698 0.076155 0.032261
  endloop
 endfacet
 facet normal 0.107657 0.958813 -0.262846
  outer loop
   vertex 0.00189434 0.0730006 0.0298461
   vertex 0.00116386 0.0674441 0.00927771
   vertex -0.0303202 0.0711591 0.00993393
  endloop
 endfacet
 facet normal 0.0759917 0.974086 -0.213029
  outer loop
   vertex -0.0303202 0.0711591 0.00993393
   vertex -0.0317698 0.076155 0.032261
   vertex 0.00189434 0.0730006 0.0298461
  endloop
 endfacet
 facet normal -0.439819 0.897832 0.0213503
  outer loop
   vertex -0.0313917 0.0754997 0.0676079
   vertex -0.0317698 0.076155 0.032261
   vertex -0.0471723 0.0686672 0.0298461
  endloop
 endfacet
 facet normal -0.400511 0.916291 0.00158353
  outer loop
   vertex -0.0471723 0.0686672 0.0298461
   vertex -0.0476914 0.0683805 0.064448
   vertex -0.0313917 0.0754997 0.0676079
  endloop
 endfacet
 facet normal 0.0927761 0.995661 -0.00722785
  outer loop
   vertex 0.00189434 0.0732478 0.063894
   vertex 0.00189434 0.0730006 0.0298461
   vertex -0.0317698 0.076155 0.032261
  endloop
 endfacet
 facet normal 0.0694589 0.997427 0.0177488
  outer loop
   vertex -0.0317698 0.076155 0.032261
   vertex -0.0313917 0.0754997 0.0676079
   vertex 0.00189434 0.0732478 0.063894
  endloop
 endfacet
 facet normal -0.907528 -0.419982 0.00276799
  outer loop
   vertex -0.0589096 0.0339019 0.100186
   vertex -0.0590251 0.0339323 0.0669254
   vertex -0.0440038 0.00155385 0.0791935
  endloop
 endfacet
 facet normal -0.906696 -0.42174 0.00606763
  outer loop
   vertex -0.0440038 0.00155385 0.0791935
   vertex -0.0438242 0.00160115 0.109314
   vertex -0.0589096 0.0339019 0.100186
  endloop
 endfacet
 facet normal -0.941821 0.334986 0.0275402
  outer loop
   vertex -0.0468341 0.0679571 0.098915
   vertex -0.0476914 0.0683805 0.064448
   vertex -0.0589096 0.0339019 0.100186
  endloop
 endfacet
 facet normal -0.949826 0.312758 0.00358305
  outer loop
   vertex -0.0589096 0.0339019 0.100186
   vertex -0.0476914 0.0683805 0.064448
   vertex -0.0590251 0.0339323 0.0669254
  endloop
 endfacet
 facet normal -0.906348 -0.422523 0.00272132
  outer loop
   vertex -0.0587821 0.0338425 0.133423
   vertex -0.0589096 0.0339019 0.100186
   vertex -0.0438242 0.00160115 0.109314
  endloop
 endfacet
 facet normal -0.902772 -0.429867 0.0147605
  outer loop
   vertex -0.0438242 0.00160115 0.109314
   vertex -0.043362 0.00165052 0.139019
   vertex -0.0587821 0.0338425 0.133423
  endloop
 endfacet
 facet normal -0.936434 0.350157 0.0219354
  outer loop
   vertex -0.0462331 0.0674297 0.13299
   vertex -0.0468341 0.0679571 0.098915
   vertex -0.0587821 0.0338425 0.133423
  endloop
 endfacet
 facet normal -0.942444 0.334336 0.00421396
  outer loop
   vertex -0.0587821 0.0338425 0.133423
   vertex -0.0468341 0.0679571 0.098915
   vertex -0.0589096 0.0339019 0.100186
  endloop
 endfacet
 facet normal -0.403624 0.914678 0.0212754
  outer loop
   vertex -0.0313131 0.0747612 0.100847
   vertex -0.0313917 0.0754997 0.0676079
   vertex -0.0468341 0.0679571 0.098915
  endloop
 endfacet
 facet normal -0.403624 0.914678 0.0212755
  outer loop
   vertex -0.0468341 0.0679571 0.098915
   vertex -0.0313917 0.0754997 0.0676079
   vertex -0.0476914 0.0683805 0.064448
  endloop
 endfacet
 facet normal 0.0740797 0.99692 0.0257424
  outer loop
   vertex 0.00189434 0.0723686 0.0979419
   vertex 0.00189434 0.0732478 0.063894
   vertex -0.0313131 0.0747612 0.100847
  endloop
 endfacet
 facet normal 0.0699245 0.99731 0.0219924
  outer loop
   vertex -0.0313131 0.0747612 0.100847
   vertex 0.00189434 0.0732478 0.063894
   vertex -0.0313917 0.0754997 0.0676079
  endloop
 endfacet
 facet normal -0.395653 0.918039 0.0257421
  outer loop
   vertex -0.0311167 0.0739133 0.134104
   vertex -0.0313131 0.0747612 0.100847
   vertex -0.0462331 0.0674297 0.13299
  endloop
 endfacet
 facet normal -0.403624 0.914678 0.0212755
  outer loop
   vertex -0.0462331 0.0674297 0.13299
   vertex -0.0313131 0.0747612 0.100847
   vertex -0.0468341 0.0679571 0.098915
  endloop
 endfacet
 facet normal 0.0667332 0.997603 0.0183051
  outer loop
   vertex 0.00189434 0.0717439 0.13199
   vertex 0.00189434 0.0723686 0.0979419
   vertex -0.0311167 0.0739133 0.134104
  endloop
 endfacet
 facet normal 0.0740148 0.996944 0.0249804
  outer loop
   vertex -0.0311167 0.0739133 0.134104
   vertex 0.00189434 0.0723686 0.0979419
   vertex -0.0313131 0.0747612 0.100847
  endloop
 endfacet
 facet normal 0.897635 0.432847 -0.083033
  outer loop
   vertex 0.0348321 0.0228654 0.0336514
   vertex 0.0328522 0.0221998 0.00877719
   vertex 0.0277772 0.0327444 0.00888252
  endloop
 endfacet
 facet normal 0.893858 0.441417 -0.0785394
  outer loop
   vertex 0.0277772 0.0327444 0.00888252
   vertex 0.0294602 0.033848 0.0342395
   vertex 0.0348321 0.0228654 0.0336514
  endloop
 endfacet
 facet normal 0.902119 0.428636 -0.0495232
  outer loop
   vertex 0.045421 0.000897647 0.0364036
   vertex 0.043808 0.00109715 0.00874783
   vertex 0.0348321 0.0228654 0.0336514
  endloop
 endfacet
 facet normal 0.884432 0.459286 -0.0826895
  outer loop
   vertex 0.0348321 0.0228654 0.0336514
   vertex 0.043808 0.00109715 0.00874783
   vertex 0.0328522 0.0221998 0.00877719
  endloop
 endfacet
 facet normal 0.847705 0.524538 -0.0790934
  outer loop
   vertex 0.0294602 0.033848 0.0342395
   vertex 0.0277772 0.0327444 0.00888252
   vertex 0.00750507 0.0686672 0.0298461
  endloop
 endfacet
 facet normal 0.798369 0.56771 -0.200781
  outer loop
   vertex 0.00750507 0.0686672 0.0298461
   vertex 0.0277772 0.0327444 0.00888252
   vertex 0.00542902 0.0642836 0.0091963
  endloop
 endfacet
 facet normal 0.898534 0.438533 0.0180277
  outer loop
   vertex 0.0342843 0.0225636 0.0682966
   vertex 0.0348321 0.0228654 0.0336514
   vertex 0.0294602 0.033848 0.0342395
  endloop
 endfacet
 facet normal 0.898534 0.438533 0.0180278
  outer loop
   vertex 0.0294602 0.033848 0.0342395
   vertex 0.0289338 0.0335056 0.0688078
   vertex 0.0342843 0.0225636 0.0682966
  endloop
 endfacet
 facet normal 0.899809 0.435929 0.0175784
  outer loop
   vertex 0.0447015 0.00100323 0.0706183
   vertex 0.045421 0.000897647 0.0364036
   vertex 0.0348321 0.0228654 0.0336514
  endloop
 endfacet
 facet normal 0.899501 0.436546 0.0180257
  outer loop
   vertex 0.0348321 0.0228654 0.0336514
   vertex 0.0342843 0.0225636 0.0682966
   vertex 0.0447015 0.00100323 0.0706183
  endloop
 endfacet
 facet normal 0.844708 0.534919 0.0181625
  outer loop
   vertex 0.0289338 0.0335056 0.0688078
   vertex 0.0294602 0.033848 0.0342395
   vertex 0.00750507 0.0686672 0.0298461
  endloop
 endfacet
 facet normal 0.856834 0.515558 -0.00597931
  outer loop
   vertex 0.00750507 0.0686672 0.0298461
   vertex 0.00774267 0.0686672 0.063894
   vertex 0.0289338 0.0335056 0.0688078
  endloop
 endfacet
 facet normal 0.577368 0.784962 -0.224681
  outer loop
   vertex 0.00750507 0.0686672 0.0298461
   vertex 0.00542902 0.0642836 0.0091963
   vertex 0.00116386 0.0674441 0.00927771
  endloop
 endfacet
 facet normal 0.594977 0.770357 -0.229242
  outer loop
   vertex 0.00116386 0.0674441 0.00927771
   vertex 0.00189434 0.0730006 0.0298461
   vertex 0.00750507 0.0686672 0.0298461
  endloop
 endfacet
 facet normal 0.61125 0.791426 -0.00426553
  outer loop
   vertex 0.00774267 0.0686672 0.063894
   vertex 0.00750507 0.0686672 0.0298461
   vertex 0.00189434 0.0730006 0.0298461
  endloop
 endfacet
 facet normal 0.616599 0.787257 -0.00571497
  outer loop
   vertex 0.00189434 0.0730006 0.0298461
   vertex 0.00189434 0.0732478 0.063894
   vertex 0.00774267 0.0686672 0.063894
  endloop
 endfacet
 facet normal 0.898534 0.438533 0.0180278
  outer loop
   vertex 0.0338438 0.0220851 0.101893
   vertex 0.0342843 0.0225636 0.0682966
   vertex 0.0283738 0.0332834 0.102122
  endloop
 endfacet
 facet normal 0.898534 0.438533 0.0180278
  outer loop
   vertex 0.0283738 0.0332834 0.102122
   vertex 0.0342843 0.0225636 0.0682966
   vertex 0.0289338 0.0335056 0.0688078
  endloop
 endfacet
 facet normal 0.899528 0.43651 0.0175723
  outer loop
   vertex 0.0440233 0.0010763 0.103517
   vertex 0.0447015 0.00100323 0.0706183
   vertex 0.0342843 0.0225636 0.0682966
  endloop
 endfacet
 facet normal 0.899231 0.437104 0.0180165
  outer loop
   vertex 0.0342843 0.0225636 0.0682966
   vertex 0.0338438 0.0220851 0.101893
   vertex 0.0440233 0.0010763 0.103517
  endloop
 endfacet
 facet normal 0.85524 0.517925 0.0178297
  outer loop
   vertex 0.0283738 0.0332834 0.102122
   vertex 0.0289338 0.0335056 0.0688078
   vertex 0.00774267 0.0686672 0.063894
  endloop
 endfacet
 facet normal 0.851095 0.524366 0.0260292
  outer loop
   vertex 0.00774267 0.0686672 0.063894
   vertex 0.00670138 0.0686672 0.0979419
   vertex 0.0283738 0.0332834 0.102122
  endloop
 endfacet
 facet normal 0.898531 0.438525 0.018363
  outer loop
   vertex 0.0336071 0.0212011 0.134583
   vertex 0.0338438 0.0220851 0.101893
   vertex 0.0283738 0.0332834 0.102122
  endloop
 endfacet
 facet normal 0.891117 0.453086 0.024978
  outer loop
   vertex 0.0283738 0.0332834 0.102122
   vertex 0.0275855 0.033025 0.134932
   vertex 0.0336071 0.0212011 0.134583
  endloop
 endfacet
 facet normal 0.899251 0.437079 0.017568
  outer loop
   vertex 0.0433812 0.00111154 0.135508
   vertex 0.0440233 0.0010763 0.103517
   vertex 0.0338438 0.0220851 0.101893
  endloop
 endfacet
 facet normal 0.898737 0.438104 0.0183531
  outer loop
   vertex 0.0338438 0.0220851 0.101893
   vertex 0.0336071 0.0212011 0.134583
   vertex 0.0433812 0.00111154 0.135508
  endloop
 endfacet
 facet normal 0.851203 0.524261 0.0245796
  outer loop
   vertex 0.0275855 0.033025 0.134932
   vertex 0.0283738 0.0332834 0.102122
   vertex 0.00670138 0.0686672 0.0979419
  endloop
 endfacet
 facet normal 0.853461 0.520774 0.0199445
  outer loop
   vertex 0.00670138 0.0686672 0.0979419
   vertex 0.00590572 0.0686672 0.13199
   vertex 0.0275855 0.033025 0.134932
  endloop
 endfacet
 facet normal 0.616499 0.78713 0.0188545
  outer loop
   vertex 0.00670138 0.0686672 0.0979419
   vertex 0.00774267 0.0686672 0.063894
   vertex 0.00189434 0.0732478 0.063894
  endloop
 endfacet
 facet normal 0.609961 0.792167 0.0204553
  outer loop
   vertex 0.00189434 0.0732478 0.063894
   vertex 0.00189434 0.0723686 0.0979419
   vertex 0.00670138 0.0686672 0.0979419
  endloop
 endfacet
 facet normal 0.610027 0.792253 0.0142557
  outer loop
   vertex 0.00590572 0.0686672 0.13199
   vertex 0.00670138 0.0686672 0.0979419
   vertex 0.00189434 0.0723686 0.0979419
  endloop
 endfacet
 facet normal 0.608521 0.793404 0.0145582
  outer loop
   vertex 0.00189434 0.0723686 0.0979419
   vertex 0.00189434 0.0717439 0.13199
   vertex 0.00590572 0.0686672 0.13199
  endloop
 endfacet
 facet normal -0.580577 -0.81403 0.0168939
  outer loop
   vertex -0.0098227 -0.0664597 0.166248
   vertex -0.0093268 -0.0675243 0.13199
   vertex 0.00189434 -0.0755274 0.13199
  endloop
 endfacet
 facet normal -0.627203 -0.778811 -0.00837517
  outer loop
   vertex 0.00189434 -0.0755274 0.13199
   vertex 0.00189434 -0.0758935 0.166038
   vertex -0.0098227 -0.0664597 0.166248
  endloop
 endfacet
 facet normal -0.62699 -0.778961 0.0101708
  outer loop
   vertex -0.0079511 -0.0675243 0.200086
   vertex -0.0098227 -0.0664597 0.166248
   vertex 0.00189434 -0.0758935 0.166038
  endloop
 endfacet
 facet normal -0.588517 -0.807984 0.0284301
  outer loop
   vertex 0.00189434 -0.0758935 0.166038
   vertex 0.00189434 -0.0746955 0.200086
   vertex -0.0079511 -0.0675243 0.200086
  endloop
 endfacet
 facet normal -0.89791 -0.439962 0.0138362
  outer loop
   vertex -0.0282427 -0.0288206 0.167708
   vertex -0.0284045 -0.0294653 0.136715
   vertex -0.0098227 -0.0664597 0.166248
  endloop
 endfacet
 facet normal -0.893925 -0.448216 0.000989427
  outer loop
   vertex -0.0098227 -0.0664597 0.166248
   vertex -0.0284045 -0.0294653 0.136715
   vertex -0.0093268 -0.0675243 0.13199
  endloop
 endfacet
 facet normal -0.901037 -0.433491 0.0147406
  outer loop
   vertex -0.0429567 0.00181042 0.168496
   vertex -0.043362 0.00165052 0.139019
   vertex -0.0298555 -0.0265033 0.136675
  endloop
 endfacet
 facet normal -0.901156 -0.433253 0.0144796
  outer loop
   vertex -0.0298555 -0.0265033 0.136675
   vertex -0.0294715 -0.0262651 0.167703
   vertex -0.0429567 0.00181042 0.168496
  endloop
 endfacet
 facet normal -0.898011 -0.439734 0.0144904
  outer loop
   vertex -0.0294715 -0.0262651 0.167703
   vertex -0.0298555 -0.0265033 0.136675
   vertex -0.0284045 -0.0294653 0.136715
  endloop
 endfacet
 facet normal -0.901163 -0.433264 0.0137138
  outer loop
   vertex -0.0284045 -0.0294653 0.136715
   vertex -0.0282427 -0.0288206 0.167708
   vertex -0.0294715 -0.0262651 0.167703
  endloop
 endfacet
 facet normal -0.897821 -0.440036 0.0168747
  outer loop
   vertex -0.0272361 -0.0296996 0.198347
   vertex -0.0282427 -0.0288206 0.167708
   vertex -0.0098227 -0.0664597 0.166248
  endloop
 endfacet
 facet normal -0.890993 -0.452663 0.0350394
  outer loop
   vertex -0.0098227 -0.0664597 0.166248
   vertex -0.0079511 -0.0675243 0.200086
   vertex -0.0272361 -0.0296996 0.198347
  endloop
 endfacet
 facet normal -0.90115 -0.433257 0.0147535
  outer loop
   vertex -0.0423885 0.00161392 0.197432
   vertex -0.0429567 0.00181042 0.168496
   vertex -0.0294715 -0.0262651 0.167703
  endloop
 endfacet
 facet normal -0.900738 -0.434078 0.0157023
  outer loop
   vertex -0.0294715 -0.0262651 0.167703
   vertex -0.0300411 -0.0239725 0.198402
   vertex -0.0423885 0.00161392 0.197432
  endloop
 endfacet
 facet normal -0.901139 -0.433249 0.015633
  outer loop
   vertex -0.0300411 -0.0239725 0.198402
   vertex -0.0294715 -0.0262651 0.167703
   vertex -0.0282427 -0.0288206 0.167708
  endloop
 endfacet
 facet normal -0.897873 -0.43993 0.0168795
  outer loop
   vertex -0.0282427 -0.0288206 0.167708
   vertex -0.0272361 -0.0296996 0.198347
   vertex -0.0300411 -0.0239725 0.198402
  endloop
 endfacet
 facet normal -0.57822 -0.793847 0.188333
  outer loop
   vertex 0.00189434 -0.0746955 0.200086
   vertex 0.00189434 -0.0675243 0.230313
   vertex -0.0079511 -0.0675243 0.200086
  endloop
 endfacet
 facet normal -0.889266 -0.449507 0.0845493
  outer loop
   vertex -0.0219245 -0.0334764 0.234133
   vertex -0.0272361 -0.0296996 0.198347
   vertex -0.0079511 -0.0675243 0.200086
  endloop
 endfacet
 facet normal -0.778982 -0.573421 0.253724
  outer loop
   vertex -0.0219245 -0.0334764 0.234133
   vertex -0.0079511 -0.0675243 0.200086
   vertex 0.00189434 -0.0675243 0.230313
  endloop
 endfacet
 facet normal -0.786643 -0.575422 0.223792
  outer loop
   vertex -0.0219245 -0.0334764 0.234133
   vertex 0.00189434 -0.0675243 0.230313
   vertex 0.00189434 -0.0660385 0.234133
  endloop
 endfacet
 facet normal -0.876659 -0.475948 0.0702973
  outer loop
   vertex -0.0388795 0.00057146 0.234133
   vertex -0.0423885 0.00161392 0.197432
   vertex -0.0321535 -0.0118173 0.234133
  endloop
 endfacet
 facet normal -0.89808 -0.429858 0.093138
  outer loop
   vertex -0.0321535 -0.0118173 0.234133
   vertex -0.0423885 0.00161392 0.197432
   vertex -0.0300411 -0.0239725 0.198402
  endloop
 endfacet
 facet normal -0.900443 -0.425256 0.0914329
  outer loop
   vertex -0.0321535 -0.0118173 0.234133
   vertex -0.0300411 -0.0239725 0.198402
   vertex -0.0219245 -0.0334764 0.234133
  endloop
 endfacet
 facet normal -0.894374 -0.43889 0.0864279
  outer loop
   vertex -0.0219245 -0.0334764 0.234133
   vertex -0.0300411 -0.0239725 0.198402
   vertex -0.0272361 -0.0296996 0.198347
  endloop
 endfacet
 facet normal -0.643905 -0.47101 0.602939
  outer loop
   vertex -0.0118023 -0.0254073 0.251247
   vertex -0.0219245 -0.0334764 0.234133
   vertex 0.00189434 -0.0660385 0.234133
  endloop
 endfacet
 facet normal -0.67632 -0.467681 0.569092
  outer loop
   vertex 0.00189434 -0.0660385 0.234133
   vertex 5.58095e-06 -0.0418569 0.251761
   vertex -0.0118023 -0.0254073 0.251247
  endloop
 endfacet
 facet normal -0.799479 -0.434046 0.415255
  outer loop
   vertex -0.0321535 -0.0118173 0.234133
   vertex -0.0308447 0.000981135 0.250031
   vertex -0.0388795 0.00057146 0.234133
  endloop
 endfacet
 facet normal -0.212516 -0.108608 0.971103
  outer loop
   vertex -0.0252202 0.00201937 0.251378
   vertex -0.0308447 0.000981135 0.250031
   vertex -0.0118023 -0.0254073 0.251247
  endloop
 endfacet
 facet normal -0.72776 -0.503718 0.465439
  outer loop
   vertex -0.0118023 -0.0254073 0.251247
   vertex -0.0308447 0.000981135 0.250031
   vertex -0.0321535 -0.0118173 0.234133
  endloop
 endfacet
 facet normal -0.728184 -0.343903 0.592856
  outer loop
   vertex -0.0118023 -0.0254073 0.251247
   vertex -0.0321535 -0.0118173 0.234133
   vertex -0.0219245 -0.0334764 0.234133
  endloop
 endfacet
 facet normal 0.0339008 -0.999367 -0.010747
  outer loop
   vertex 0.00189434 -0.0758935 0.166038
   vertex 0.00189434 -0.0755274 0.13199
   vertex 0.0346032 -0.0744338 0.133477
  endloop
 endfacet
 facet normal 0.0424273 -0.999097 -0.00216961
  outer loop
   vertex 0.0346032 -0.0744338 0.133477
   vertex 0.0344815 -0.0745108 0.166532
   vertex 0.00189434 -0.0758935 0.166038
  endloop
 endfacet
 facet normal 0.413923 -0.910312 -0.000595025
  outer loop
   vertex 0.0344815 -0.0745108 0.166532
   vertex 0.0346032 -0.0744338 0.133477
   vertex 0.0497967 -0.0675243 0.13199
  endloop
 endfacet
 facet normal 0.409681 -0.912224 -0.00286272
  outer loop
   vertex 0.0497967 -0.0675243 0.13199
   vertex 0.0501135 -0.0674889 0.166045
   vertex 0.0344815 -0.0745108 0.166532
  endloop
 endfacet
 facet normal 0.0418365 -0.998507 0.0351339
  outer loop
   vertex 0.00189434 -0.0746955 0.200086
   vertex 0.00189434 -0.0758935 0.166038
   vertex 0.0344815 -0.0745108 0.166532
  endloop
 endfacet
 facet normal 0.0117647 -0.999913 0.00592054
  outer loop
   vertex 0.0344815 -0.0745108 0.166532
   vertex 0.0350082 -0.0743083 0.19968
   vertex 0.00189434 -0.0746955 0.200086
  endloop
 endfacet
 facet normal 0.409732 -0.912205 -0.000938576
  outer loop
   vertex 0.0350082 -0.0743083 0.19968
   vertex 0.0344815 -0.0745108 0.166532
   vertex 0.0501135 -0.0674889 0.166045
  endloop
 endfacet
 facet normal 0.453544 -0.890936 0.0230489
  outer loop
   vertex 0.0501135 -0.0674889 0.166045
   vertex 0.048314 -0.0675243 0.200086
   vertex 0.0350082 -0.0743083 0.19968
  endloop
 endfacet
 facet normal 0.959022 -0.283199 -0.00862661
  outer loop
   vertex 0.0501135 -0.0674889 0.166045
   vertex 0.0497967 -0.0675243 0.13199
   vertex 0.0599237 -0.0332388 0.13227
  endloop
 endfacet
 facet normal 0.970742 -0.236376 0.0422596
  outer loop
   vertex 0.0599237 -0.0332388 0.13227
   vertex 0.0586386 -0.0324112 0.16642
   vertex 0.0501135 -0.0674889 0.166045
  endloop
 endfacet
 facet normal 0.901581 0.431973 0.0234594
  outer loop
   vertex 0.0586386 -0.0324112 0.16642
   vertex 0.0599237 -0.0332388 0.13227
   vertex 0.0433812 0.00111154 0.135508
  endloop
 endfacet
 facet normal 0.903772 0.427649 0.0176892
  outer loop
   vertex 0.0433812 0.00111154 0.135508
   vertex 0.0427092 0.00121611 0.167317
   vertex 0.0586386 -0.0324112 0.16642
  endloop
 endfacet
 facet normal 0.964155 -0.26045 0.0506966
  outer loop
   vertex 0.048314 -0.0675243 0.200086
   vertex 0.0501135 -0.0674889 0.166045
   vertex 0.0577753 -0.03258 0.199673
  endloop
 endfacet
 facet normal 0.971375 -0.236334 0.0240177
  outer loop
   vertex 0.0577753 -0.03258 0.199673
   vertex 0.0501135 -0.0674889 0.166045
   vertex 0.0586386 -0.0324112 0.16642
  endloop
 endfacet
 facet normal 0.903698 0.427402 0.0256304
  outer loop
   vertex 0.0577753 -0.03258 0.199673
   vertex 0.0586386 -0.0324112 0.16642
   vertex 0.0427092 0.00121611 0.167317
  endloop
 endfacet
 facet normal 0.901419 0.431816 0.0313016
  outer loop
   vertex 0.0427092 0.00121611 0.167317
   vertex 0.0416578 0.00114042 0.198637
   vertex 0.0577753 -0.03258 0.199673
  endloop
 endfacet
 facet normal -0.0014387 -0.999999 0.000360005
  outer loop
   vertex 0.00285034 -0.0675243 0.234133
   vertex 0.00189434 -0.0675243 0.230313
   vertex 0.0359422 -0.0675719 0.234133
  endloop
 endfacet
 facet normal -0.022965 -0.98104 0.192437
  outer loop
   vertex 0.0359422 -0.0675719 0.234133
   vertex 0.00189434 -0.0675243 0.230313
   vertex 0.0350082 -0.0743083 0.19968
  endloop
 endfacet
 facet normal 0.0142021 -0.972895 0.230811
  outer loop
   vertex 0.0350082 -0.0743083 0.19968
   vertex 0.00189434 -0.0675243 0.230313
   vertex 0.00189434 -0.0746955 0.200086
  endloop
 endfacet
 facet normal 0.522536 -0.839329 0.149942
  outer loop
   vertex 0.0359422 -0.0675719 0.234133
   vertex 0.0350082 -0.0743083 0.19968
   vertex 0.0360187 -0.0675243 0.234133
  endloop
 endfacet
 facet normal 0.444448 -0.88131 0.160498
  outer loop
   vertex 0.0360187 -0.0675243 0.234133
   vertex 0.0350082 -0.0743083 0.19968
   vertex 0.048314 -0.0675243 0.200086
  endloop
 endfacet
 facet normal -0.0013147 -0.913816 0.406126
  outer loop
   vertex 0.0359422 -0.0675719 0.234133
   vertex 0.0359422 -0.0675243 0.234241
   vertex 0.00285034 -0.0675243 0.234133
  endloop
 endfacet
 facet normal 0.494488 -0.794276 0.352999
  outer loop
   vertex 0.0360187 -0.0675243 0.234133
   vertex 0.0359422 -0.0675243 0.234241
   vertex 0.0359422 -0.0675719 0.234133
  endloop
 endfacet
 facet normal -0.822947 -0.529484 0.205926
  outer loop
   vertex 0.00189434 -0.0660385 0.234133
   vertex 0.00189434 -0.0675243 0.230313
   vertex 0.00285034 -0.0675243 0.234133
  endloop
 endfacet
 facet normal 0.856052 -0.414259 0.309135
  outer loop
   vertex 0.0360187 -0.0675243 0.234133
   vertex 0.048314 -0.0675243 0.200086
   vertex 0.0524951 -0.0334764 0.234133
  endloop
 endfacet
 facet normal 0.95618 -0.257238 0.139818
  outer loop
   vertex 0.0524951 -0.0334764 0.234133
   vertex 0.048314 -0.0675243 0.200086
   vertex 0.0577753 -0.03258 0.199673
  endloop
 endfacet
 facet normal 0.890575 0.430206 0.147648
  outer loop
   vertex 0.0524951 -0.0334764 0.234133
   vertex 0.0577753 -0.03258 0.199673
   vertex 0.0416578 0.00114042 0.198637
  endloop
 endfacet
 facet normal 0.917859 0.385252 0.0954785
  outer loop
   vertex 0.0416578 0.00114042 0.198637
   vertex 0.0382042 0.00057146 0.234133
   vertex 0.0524951 -0.0334764 0.234133
  endloop
 endfacet
 facet normal -0.704417 -0.453222 0.546247
  outer loop
   vertex 5.58095e-06 -0.0418569 0.251761
   vertex 0.00189434 -0.0660385 0.234133
   vertex 0.00285034 -0.0675243 0.234133
  endloop
 endfacet
 facet normal -0.0635516 -0.569757 0.819352
  outer loop
   vertex 5.58095e-06 -0.0418569 0.251761
   vertex 0.00285034 -0.0675243 0.234133
   vertex 0.0281468 -0.043566 0.252756
  endloop
 endfacet
 facet normal -0.00256013 -0.612002 0.790852
  outer loop
   vertex 0.0281468 -0.043566 0.252756
   vertex 0.00285034 -0.0675243 0.234133
   vertex 0.0359422 -0.0675243 0.234241
  endloop
 endfacet
 facet normal 0.655541 -0.316544 0.685614
  outer loop
   vertex 0.0281468 -0.043566 0.252756
   vertex 0.0359422 -0.0675243 0.234241
   vertex 0.0524951 -0.0334764 0.234133
  endloop
 endfacet
 facet normal 0.648853 -0.223204 0.727441
  outer loop
   vertex 0.0281468 -0.043566 0.252756
   vertex 0.0524951 -0.0334764 0.234133
   vertex 0.0342852 -0.0260745 0.252647
  endloop
 endfacet
 facet normal 0.757275 -0.366459 0.540595
  outer loop
   vertex 0.0524951 -0.0334764 0.234133
   vertex 0.0359422 -0.0675243 0.234241
   vertex 0.0360187 -0.0675243 0.234133
  endloop
 endfacet
 facet normal 0.616653 0.407469 0.673578
  outer loop
   vertex 0.027742 -0.00482117 0.251955
   vertex 0.0359422 0.00057146 0.241185
   vertex 0.0230775 0.00195492 0.252126
  endloop
 endfacet
 facet normal 0.738389 0.247765 0.627212
  outer loop
   vertex 0.0342852 -0.0260745 0.252647
   vertex 0.0524951 -0.0334764 0.234133
   vertex 0.027742 -0.00482117 0.251955
  endloop
 endfacet
 facet normal 0.722159 0.214913 0.657494
  outer loop
   vertex 0.027742 -0.00482117 0.251955
   vertex 0.0524951 -0.0334764 0.234133
   vertex 0.0359422 0.00057146 0.241185
  endloop
 endfacet
 facet normal 0.884207 0.371127 0.283625
  outer loop
   vertex 0.0359422 0.00057146 0.241185
   vertex 0.0524951 -0.0334764 0.234133
   vertex 0.0382042 0.00057146 0.234133
  endloop
 endfacet
 facet normal -0.901139 -0.433396 0.0107876
  outer loop
   vertex -0.0580723 0.0331982 0.166837
   vertex -0.0587821 0.0338425 0.133423
   vertex -0.0429567 0.00181042 0.168496
  endloop
 endfacet
 facet normal -0.902771 -0.429869 0.0147448
  outer loop
   vertex -0.0429567 0.00181042 0.168496
   vertex -0.0587821 0.0338425 0.133423
   vertex -0.043362 0.00165052 0.139019
  endloop
 endfacet
 facet normal -0.936731 0.350032 0.00366032
  outer loop
   vertex -0.0464345 0.0665399 0.166561
   vertex -0.0462331 0.0674297 0.13299
   vertex -0.0587821 0.0338425 0.133423
  endloop
 endfacet
 facet normal -0.943741 0.329628 0.0264052
  outer loop
   vertex -0.0587821 0.0338425 0.133423
   vertex -0.0580723 0.0331982 0.166837
   vertex -0.0464345 0.0665399 0.166561
  endloop
 endfacet
 facet normal -0.901203 -0.432665 0.0251942
  outer loop
   vertex -0.0572196 0.0333029 0.199136
   vertex -0.0580723 0.0331982 0.166837
   vertex -0.0429567 0.00181042 0.168496
  endloop
 endfacet
 facet normal -0.905305 -0.424502 0.0148946
  outer loop
   vertex -0.0429567 0.00181042 0.168496
   vertex -0.0423885 0.00161392 0.197432
   vertex -0.0572196 0.0333029 0.199136
  endloop
 endfacet
 facet normal -0.928331 0.365861 0.0659401
  outer loop
   vertex -0.0441164 0.0665027 0.199402
   vertex -0.0464345 0.0665399 0.166561
   vertex -0.0572196 0.0333029 0.199136
  endloop
 endfacet
 facet normal -0.943809 0.329631 0.0238491
  outer loop
   vertex -0.0572196 0.0333029 0.199136
   vertex -0.0464345 0.0665399 0.166561
   vertex -0.0580723 0.0331982 0.166837
  endloop
 endfacet
 facet normal -0.39586 0.917828 0.0297763
  outer loop
   vertex -0.0306959 0.0730294 0.166943
   vertex -0.0311167 0.0739133 0.134104
   vertex -0.0462331 0.0674297 0.13299
  endloop
 endfacet
 facet normal -0.381565 0.924075 0.0222048
  outer loop
   vertex -0.0462331 0.0674297 0.13299
   vertex -0.0464345 0.0665399 0.166561
   vertex -0.0306959 0.0730294 0.166943
  endloop
 endfacet
 facet normal 0.0652636 0.997856 -0.00490256
  outer loop
   vertex 0.00189434 0.0719111 0.166038
   vertex 0.00189434 0.0717439 0.13199
   vertex -0.0311167 0.0739133 0.134104
  endloop
 endfacet
 facet normal 0.0350145 0.999037 0.026441
  outer loop
   vertex -0.0311167 0.0739133 0.134104
   vertex -0.0306959 0.0730294 0.166943
   vertex 0.00189434 0.0719111 0.166038
  endloop
 endfacet
 facet normal -0.371816 0.927726 0.0328125
  outer loop
   vertex -0.0307808 0.0718619 0.198992
   vertex -0.0306959 0.0730294 0.166943
   vertex -0.0441164 0.0665027 0.199402
  endloop
 endfacet
 facet normal -0.38163 0.923892 0.0279839
  outer loop
   vertex -0.0441164 0.0665027 0.199402
   vertex -0.0306959 0.0730294 0.166943
   vertex -0.0464345 0.0665399 0.166561
  endloop
 endfacet
 facet normal 0.0354555 0.998443 0.043054
  outer loop
   vertex 0.00189434 0.070443 0.200086
   vertex 0.00189434 0.0719111 0.166038
   vertex -0.0306959 0.0730294 0.166943
  endloop
 endfacet
 facet normal 0.042136 0.998445 0.0364851
  outer loop
   vertex -0.0306959 0.0730294 0.166943
   vertex -0.0307808 0.0718619 0.198992
   vertex 0.00189434 0.070443 0.200086
  endloop
 endfacet
 facet normal -0.894791 -0.425974 0.133774
  outer loop
   vertex -0.0526141 0.0346193 0.234133
   vertex -0.0572196 0.0333029 0.199136
   vertex -0.0423885 0.00161392 0.197432
  endloop
 endfacet
 facet normal -0.924578 -0.372965 0.0778038
  outer loop
   vertex -0.0423885 0.00161392 0.197432
   vertex -0.0388795 0.00057146 0.234133
   vertex -0.0526141 0.0346193 0.234133
  endloop
 endfacet
 facet normal -0.828125 0.526586 0.192139
  outer loop
   vertex -0.0321535 0.0667962 0.234133
   vertex -0.0321535 0.0686672 0.229006
   vertex -0.0526141 0.0346193 0.234133
  endloop
 endfacet
 facet normal -0.801827 0.524864 0.285642
  outer loop
   vertex -0.0526141 0.0346193 0.234133
   vertex -0.0321535 0.0686672 0.229006
   vertex -0.0441164 0.0665027 0.199402
  endloop
 endfacet
 facet normal -0.925026 0.36422 0.108028
  outer loop
   vertex -0.0526141 0.0346193 0.234133
   vertex -0.0441164 0.0665027 0.199402
   vertex -0.0572196 0.0333029 0.199136
  endloop
 endfacet
 facet normal 0.179999 0.934521 0.307035
  outer loop
   vertex 0.00189434 0.0604245 0.234133
   vertex 0.00189434 0.0686672 0.209045
   vertex -0.0321535 0.0686672 0.229006
  endloop
 endfacet
 facet normal 0.173147 0.92523 0.337594
  outer loop
   vertex -0.0321535 0.0686672 0.229006
   vertex -0.0321535 0.0667962 0.234133
   vertex 0.00189434 0.0604245 0.234133
  endloop
 endfacet
 facet normal -0.748976 -0.183861 0.636577
  outer loop
   vertex -0.0363017 0.0296659 0.251895
   vertex -0.0526141 0.0346193 0.234133
   vertex -0.0308447 0.000981135 0.250031
  endloop
 endfacet
 facet normal -0.230832 -0.106772 0.967117
  outer loop
   vertex -0.0363017 0.0296659 0.251895
   vertex -0.0308447 0.000981135 0.250031
   vertex -0.0274874 0.00460035 0.251232
  endloop
 endfacet
 facet normal -0.836598 -0.337475 0.431526
  outer loop
   vertex -0.0308447 0.000981135 0.250031
   vertex -0.0526141 0.0346193 0.234133
   vertex -0.0388795 0.00057146 0.234133
  endloop
 endfacet
 facet normal -0.208516 -0.128287 0.969569
  outer loop
   vertex -0.0274874 0.00460035 0.251232
   vertex -0.0308447 0.000981135 0.250031
   vertex -0.0252202 0.00201937 0.251378
  endloop
 endfacet
 facet normal -0.669044 0.42543 0.609418
  outer loop
   vertex -0.0280113 0.0460917 0.253135
   vertex -0.0321535 0.0667962 0.234133
   vertex -0.0526141 0.0346193 0.234133
  endloop
 endfacet
 facet normal -0.6655 0.283804 0.690337
  outer loop
   vertex -0.0526141 0.0346193 0.234133
   vertex -0.0363017 0.0296659 0.251895
   vertex -0.0280113 0.0460917 0.253135
  endloop
 endfacet
 facet normal 0.166056 0.643789 0.746968
  outer loop
   vertex 7.44541e-05 0.0397462 0.25236
   vertex 0.00189434 0.0604245 0.234133
   vertex -0.0280113 0.0460917 0.253135
  endloop
 endfacet
 facet normal 0.128073 0.68437 0.717798
  outer loop
   vertex -0.0280113 0.0460917 0.253135
   vertex 0.00189434 0.0604245 0.234133
   vertex -0.0321535 0.0667962 0.234133
  endloop
 endfacet
 facet normal -0.369479 0.925647 0.081626
  outer loop
   vertex -0.0441164 0.0665027 0.199402
   vertex -0.0321535 0.0686672 0.229006
   vertex -0.0307808 0.0718619 0.198992
  endloop
 endfacet
 facet normal 0.0636096 0.992059 0.108503
  outer loop
   vertex -0.0307808 0.0718619 0.198992
   vertex -0.0321535 0.0686672 0.229006
   vertex 0.00189434 0.0686672 0.209045
  endloop
 endfacet
 facet normal 0.036065 0.980282 0.194285
  outer loop
   vertex 0.00189434 0.0686672 0.209045
   vertex 0.00189434 0.070443 0.200086
   vertex -0.0307808 0.0718619 0.198992
  endloop
 endfacet
 facet normal 0.891113 0.453075 0.0252906
  outer loop
   vertex 0.0327985 0.0209764 0.167101
   vertex 0.0336071 0.0212011 0.134583
   vertex 0.0275855 0.033025 0.134932
  endloop
 endfacet
 facet normal 0.891113 0.453075 0.0252906
  outer loop
   vertex 0.0275855 0.033025 0.134932
   vertex 0.0269249 0.0325222 0.167217
   vertex 0.0327985 0.0209764 0.167101
  endloop
 endfacet
 facet normal 0.898765 0.43808 0.0175491
  outer loop
   vertex 0.0427092 0.00121611 0.167317
   vertex 0.0433812 0.00111154 0.135508
   vertex 0.0336071 0.0212011 0.134583
  endloop
 endfacet
 facet normal 0.893477 0.448395 0.0253171
  outer loop
   vertex 0.0336071 0.0212011 0.134583
   vertex 0.0327985 0.0209764 0.167101
   vertex 0.0427092 0.00121611 0.167317
  endloop
 endfacet
 facet normal 0.866413 0.498677 0.0254954
  outer loop
   vertex 0.0269249 0.0325222 0.167217
   vertex 0.0275855 0.033025 0.134932
   vertex 0.00615576 0.0686672 0.166038
  endloop
 endfacet
 facet normal 0.854576 0.519288 -0.00627585
  outer loop
   vertex 0.00615576 0.0686672 0.166038
   vertex 0.0275855 0.033025 0.134932
   vertex 0.00590572 0.0686672 0.13199
  endloop
 endfacet
 facet normal 0.891041 0.453002 0.0288901
  outer loop
   vertex 0.0332494 0.0180605 0.198917
   vertex 0.0327985 0.0209764 0.167101
   vertex 0.0269249 0.0325222 0.167217
  endloop
 endfacet
 facet normal 0.894249 0.446847 0.0254419
  outer loop
   vertex 0.0269249 0.0325222 0.167217
   vertex 0.0259022 0.0327732 0.198754
   vertex 0.0332494 0.0180605 0.198917
  endloop
 endfacet
 facet normal 0.893307 0.448372 0.0310693
  outer loop
   vertex 0.0416578 0.00114042 0.198637
   vertex 0.0427092 0.00121611 0.167317
   vertex 0.0327985 0.0209764 0.167101
  endloop
 endfacet
 facet normal 0.895349 0.444481 0.0280481
  outer loop
   vertex 0.0327985 0.0209764 0.167101
   vertex 0.0332494 0.0180605 0.198917
   vertex 0.0416578 0.00114042 0.198637
  endloop
 endfacet
 facet normal 0.866461 0.498661 0.0241284
  outer loop
   vertex 0.0259022 0.0327732 0.198754
   vertex 0.0269249 0.0325222 0.167217
   vertex 0.00615576 0.0686672 0.166038
  endloop
 endfacet
 facet normal 0.855946 0.514815 0.0481981
  outer loop
   vertex 0.00615576 0.0686672 0.166038
   vertex 0.00423853 0.0686672 0.200086
   vertex 0.0259022 0.0327732 0.198754
  endloop
 endfacet
 facet normal 0.60858 0.79348 -0.0044693
  outer loop
   vertex 0.00615576 0.0686672 0.166038
   vertex 0.00590572 0.0686672 0.13199
   vertex 0.00189434 0.0717439 0.13199
  endloop
 endfacet
 facet normal 0.605697 0.795685 -0.00390928
  outer loop
   vertex 0.00189434 0.0717439 0.13199
   vertex 0.00189434 0.0719111 0.166038
   vertex 0.00615576 0.0686672 0.166038
  endloop
 endfacet
 facet normal 0.60535 0.795229 0.0340871
  outer loop
   vertex 0.00423853 0.0686672 0.200086
   vertex 0.00615576 0.0686672 0.166038
   vertex 0.00189434 0.0719111 0.166038
  endloop
 endfacet
 facet normal 0.603463 0.79665 0.0343524
  outer loop
   vertex 0.00189434 0.0719111 0.166038
   vertex 0.00189434 0.070443 0.200086
   vertex 0.00423853 0.0686672 0.200086
  endloop
 endfacet
 facet normal 0.891716 0.442155 0.0966533
  outer loop
   vertex 0.0359422 0.00493145 0.234133
   vertex 0.0332494 0.0180605 0.198917
   vertex 0.0212216 0.0346193 0.234133
  endloop
 endfacet
 facet normal 0.890227 0.445602 0.0945243
  outer loop
   vertex 0.0212216 0.0346193 0.234133
   vertex 0.0332494 0.0180605 0.198917
   vertex 0.0259022 0.0327732 0.198754
  endloop
 endfacet
 facet normal 0.883776 0.458507 0.0933366
  outer loop
   vertex 0.0382042 0.00057146 0.234133
   vertex 0.0416578 0.00114042 0.198637
   vertex 0.0359422 0.00493145 0.234133
  endloop
 endfacet
 facet normal 0.891975 0.441675 0.0964545
  outer loop
   vertex 0.0359422 0.00493145 0.234133
   vertex 0.0416578 0.00114042 0.198637
   vertex 0.0332494 0.0180605 0.198917
  endloop
 endfacet
 facet normal 0.839174 0.537496 0.0829748
  outer loop
   vertex 0.0212216 0.0346193 0.234133
   vertex 0.0259022 0.0327732 0.198754
   vertex 0.00189434 0.0686672 0.209045
  endloop
 endfacet
 facet normal 0.78531 0.588171 0.193243
  outer loop
   vertex 0.0212216 0.0346193 0.234133
   vertex 0.00189434 0.0686672 0.209045
   vertex 0.00189434 0.0604245 0.234133
  endloop
 endfacet
 facet normal 0.838856 0.498147 0.219479
  outer loop
   vertex 0.00189434 0.0686672 0.209045
   vertex 0.0259022 0.0327732 0.198754
   vertex 0.00423853 0.0686672 0.200086
  endloop
 endfacet
 facet normal 0.616915 0.406325 0.67403
  outer loop
   vertex 0.0230775 0.00195492 0.252126
   vertex 0.0359422 0.00057146 0.241185
   vertex 0.0212216 0.0346193 0.234133
  endloop
 endfacet
 facet normal 0.684894 0.381022 0.621082
  outer loop
   vertex 0.0230775 0.00195492 0.252126
   vertex 0.0212216 0.0346193 0.234133
   vertex 0.0078571 0.0296696 0.251908
  endloop
 endfacet
 facet normal 0.863916 0.42837 0.264854
  outer loop
   vertex 0.0212216 0.0346193 0.234133
   vertex 0.0359422 0.00057146 0.241185
   vertex 0.0359422 0.00493145 0.234133
  endloop
 endfacet
 facet normal 0.853719 0.442913 0.273846
  outer loop
   vertex 0.0359422 0.00493145 0.234133
   vertex 0.0359422 0.00057146 0.241185
   vertex 0.0382042 0.00057146 0.234133
  endloop
 endfacet
 facet normal 0.63963 0.466588 0.610876
  outer loop
   vertex 0.0078571 0.0296696 0.251908
   vertex 0.0212216 0.0346193 0.234133
   vertex 7.44541e-05 0.0397462 0.25236
  endloop
 endfacet
 facet normal 0.637238 0.47727 0.605096
  outer loop
   vertex 7.44541e-05 0.0397462 0.25236
   vertex 0.0212216 0.0346193 0.234133
   vertex 0.00189434 0.0604245 0.234133
  endloop
 endfacet
 facet normal 0.596423 0.787356 0.156049
  outer loop
   vertex 0.00189434 0.070443 0.200086
   vertex 0.00189434 0.0686672 0.209045
   vertex 0.00423853 0.0686672 0.200086
  endloop
 endfacet
endsolid
