solid ascii
 facet normal -0.439806 -0.712438 -0.546812
  outer loop
   vertex -0.0876215 -0.0990482 0.0302889
   vertex -0.0774188 -0.0899455 0.0102231
   vertex -0.0637226 -0.113802 0.0302889
  endloop
 endfacet
 facet normal -0.404653 -0.713468 -0.572031
  outer loop
   vertex -0.0637226 -0.113802 0.0302889
   vertex -0.0774188 -0.0899455 0.0102231
   vertex -0.057912 -0.100785 0.00994388
  endloop
 endfacet
 facet normal -0.891628 -0.101138 -0.441329
  outer loop
   vertex -0.091523 -0.0646524 0.0302889
   vertex -0.0825314 -0.0584546 0.0107027
   vertex -0.0876215 -0.0990482 0.0302889
  endloop
 endfacet
 facet normal -0.858191 -0.131772 -0.49613
  outer loop
   vertex -0.0876215 -0.0990482 0.0302889
   vertex -0.0825314 -0.0584546 0.0107027
   vertex -0.0774188 -0.0899455 0.0102231
  endloop
 endfacet
 facet normal -0.525106 -0.850615 -0.0267874
  outer loop
   vertex -0.0893761 -0.0990482 0.0646847
   vertex -0.0876215 -0.0990482 0.0302889
   vertex -0.0637226 -0.113802 0.0302889
  endloop
 endfacet
 facet normal -0.584366 -0.806494 -0.0899098
  outer loop
   vertex -0.0637226 -0.113802 0.0302889
   vertex -0.0637226 -0.117636 0.0646847
   vertex -0.0893761 -0.0990482 0.0646847
  endloop
 endfacet
 facet normal -0.998885 -0.0431105 0.0192369
  outer loop
   vertex -0.0908606 -0.0646524 0.0646847
   vertex -0.091523 -0.0646524 0.0302889
   vertex -0.0893761 -0.0990482 0.0646847
  endloop
 endfacet
 facet normal -0.992354 -0.112563 -0.0506232
  outer loop
   vertex -0.0893761 -0.0990482 0.0646847
   vertex -0.091523 -0.0646524 0.0302889
   vertex -0.0876215 -0.0990482 0.0302889
  endloop
 endfacet
 facet normal 0.528785 -0.775437 -0.345087
  outer loop
   vertex -0.0637226 -0.113802 0.0302889
   vertex -0.057912 -0.100785 0.00994388
   vertex -0.0420874 -0.0990482 0.0302889
  endloop
 endfacet
 facet normal 0.482782 -0.82075 -0.305436
  outer loop
   vertex -0.0420874 -0.0990482 0.0302889
   vertex -0.057912 -0.100785 0.00994388
   vertex -0.0397407 -0.0901063 0.00996999
  endloop
 endfacet
 facet normal 0.672996 -0.702506 -0.231432
  outer loop
   vertex -0.0420874 -0.0990482 0.0302889
   vertex -0.0397407 -0.0901063 0.00996999
   vertex -0.0265261 -0.0774971 0.0101225
  endloop
 endfacet
 facet normal 0.725626 -0.670123 -0.156214
  outer loop
   vertex -0.0265261 -0.0774971 0.0101225
   vertex -0.0288911 -0.0851631 0.0320226
   vertex -0.0420874 -0.0990482 0.0302889
  endloop
 endfacet
 facet normal 0.74468 -0.650933 -0.147439
  outer loop
   vertex -0.0288911 -0.0851631 0.0320226
   vertex -0.0265261 -0.0774971 0.0101225
   vertex -0.0102349 -0.0637921 0.0318993
  endloop
 endfacet
 facet normal 0.74284 -0.653732 -0.1443
  outer loop
   vertex -0.0102349 -0.0637921 0.0318993
   vertex -0.0265261 -0.0774971 0.0101225
   vertex -0.0099572 -0.0586793 0.0101659
  endloop
 endfacet
 facet normal 0.641425 -0.762462 -0.085001
  outer loop
   vertex -0.0637226 -0.117636 0.0646847
   vertex -0.0637226 -0.113802 0.0302889
   vertex -0.0397338 -0.0975996 0.0659768
  endloop
 endfacet
 facet normal 0.56339 -0.826183 -0.00361769
  outer loop
   vertex -0.0397338 -0.0975996 0.0659768
   vertex -0.0637226 -0.113802 0.0302889
   vertex -0.0420874 -0.0990482 0.0302889
  endloop
 endfacet
 facet normal 0.725957 -0.68745 -0.0199705
  outer loop
   vertex -0.0397338 -0.0975996 0.0659768
   vertex -0.0420874 -0.0990482 0.0302889
   vertex -0.0288911 -0.0851631 0.0320226
  endloop
 endfacet
 facet normal 0.744585 -0.667494 -0.006713
  outer loop
   vertex -0.0288911 -0.0851631 0.0320226
   vertex -0.0284097 -0.0849811 0.0673246
   vertex -0.0397338 -0.0975996 0.0659768
  endloop
 endfacet
 facet normal 0.748782 -0.662782 -0.00679454
  outer loop
   vertex -0.0284097 -0.0849811 0.0673246
   vertex -0.0288911 -0.0851631 0.0320226
   vertex -0.00943797 -0.0635362 0.0661959
  endloop
 endfacet
 facet normal 0.753239 -0.657626 -0.0125947
  outer loop
   vertex -0.00943797 -0.0635362 0.0661959
   vertex -0.0288911 -0.0851631 0.0320226
   vertex -0.0102349 -0.0637921 0.0318993
  endloop
 endfacet
 facet normal -0.838157 0.501539 -0.214364
  outer loop
   vertex -0.0709411 -0.0302566 0.0302889
   vertex -0.0642698 -0.02708 0.0116362
   vertex -0.091523 -0.0646524 0.0302889
  endloop
 endfacet
 facet normal -0.838459 0.494821 -0.228338
  outer loop
   vertex -0.091523 -0.0646524 0.0302889
   vertex -0.0642698 -0.02708 0.0116362
   vertex -0.0825314 -0.0584546 0.0107027
  endloop
 endfacet
 facet normal -0.747281 0.644706 -0.161013
  outer loop
   vertex -0.0637226 -0.0217873 0.0302889
   vertex -0.0571309 -0.0187564 0.0118325
   vertex -0.0642698 -0.02708 0.0116362
  endloop
 endfacet
 facet normal -0.751304 0.640353 -0.159659
  outer loop
   vertex -0.0642698 -0.02708 0.0116362
   vertex -0.0709411 -0.0302566 0.0302889
   vertex -0.0637226 -0.0217873 0.0302889
  endloop
 endfacet
 facet normal -0.848374 0.528116 0.0368021
  outer loop
   vertex -0.0694491 -0.0302566 0.0646847
   vertex -0.0709411 -0.0302566 0.0302889
   vertex -0.0908606 -0.0646524 0.0646847
  endloop
 endfacet
 facet normal -0.857987 0.513405 0.0165235
  outer loop
   vertex -0.0908606 -0.0646524 0.0646847
   vertex -0.0709411 -0.0302566 0.0302889
   vertex -0.091523 -0.0646524 0.0302889
  endloop
 endfacet
 facet normal -0.760687 0.648351 0.031575
  outer loop
   vertex -0.0637226 -0.0234624 0.0646847
   vertex -0.0637226 -0.0217873 0.0302889
   vertex -0.0709411 -0.0302566 0.0302889
  endloop
 endfacet
 facet normal -0.76421 0.644115 0.0331511
  outer loop
   vertex -0.0709411 -0.0302566 0.0302889
   vertex -0.0694491 -0.0302566 0.0646847
   vertex -0.0637226 -0.0234624 0.0646847
  endloop
 endfacet
 facet normal 0.770695 -0.622396 -0.136573
  outer loop
   vertex -0.0102349 -0.0637921 0.0318993
   vertex -0.0099572 -0.0586793 0.0101659
   vertex 0.00478396 -0.0404372 0.0102183
  endloop
 endfacet
 facet normal 0.749551 -0.639764 -0.169928
  outer loop
   vertex 0.00478396 -0.0404372 0.0102183
   vertex 0.00506905 -0.0454342 0.0302889
   vertex -0.0102349 -0.0637921 0.0318993
  endloop
 endfacet
 facet normal -0.733352 0.655913 -0.178811
  outer loop
   vertex -0.0411532 0.00413917 0.0302889
   vertex -0.0369973 0.00389335 0.0123426
   vertex -0.0571309 -0.0187564 0.0118325
  endloop
 endfacet
 facet normal -0.744598 0.648181 -0.159484
  outer loop
   vertex -0.0571309 -0.0187564 0.0118325
   vertex -0.0637226 -0.0217873 0.0302889
   vertex -0.0411532 0.00413917 0.0302889
  endloop
 endfacet
 facet normal 0.767476 -0.640945 -0.01305
  outer loop
   vertex -0.00943797 -0.0635362 0.0661959
   vertex -0.0102349 -0.0637921 0.0318993
   vertex 0.00506905 -0.0454342 0.0302889
  endloop
 endfacet
 facet normal 0.763736 -0.645311 -0.0167619
  outer loop
   vertex 0.00506905 -0.0454342 0.0302889
   vertex 0.00506905 -0.0463276 0.0646847
   vertex -0.00943797 -0.0635362 0.0661959
  endloop
 endfacet
 facet normal -0.754075 0.656431 0.021678
  outer loop
   vertex -0.0401644 0.00413917 0.0646847
   vertex -0.0411532 0.00413917 0.0302889
   vertex -0.0637226 -0.0217873 0.0302889
  endloop
 endfacet
 facet normal -0.760242 0.648871 0.0316003
  outer loop
   vertex -0.0637226 -0.0217873 0.0302889
   vertex -0.0637226 -0.0234624 0.0646847
   vertex -0.0401644 0.00413917 0.0646847
  endloop
 endfacet
 facet normal -0.586718 -0.809741 -0.00901354
  outer loop
   vertex -0.0899045 -0.0990482 0.0990805
   vertex -0.0893761 -0.0990482 0.0646847
   vertex -0.0637226 -0.117636 0.0646847
  endloop
 endfacet
 facet normal -0.584679 -0.811237 -0.00665297
  outer loop
   vertex -0.0637226 -0.117636 0.0646847
   vertex -0.0625614 -0.118763 0.100063
   vertex -0.0899045 -0.0990482 0.0990805
  endloop
 endfacet
 facet normal -0.998299 -0.0430853 0.0392662
  outer loop
   vertex -0.0895077 -0.0646524 0.0990805
   vertex -0.0908606 -0.0646524 0.0646847
   vertex -0.0893761 -0.0990482 0.0646847
  endloop
 endfacet
 facet normal -0.999815 0.0115349 -0.0153598
  outer loop
   vertex -0.0893761 -0.0990482 0.0646847
   vertex -0.0899045 -0.0990482 0.0990805
   vertex -0.0895077 -0.0646524 0.0990805
  endloop
 endfacet
 facet normal -0.584185 -0.81132 -0.0220678
  outer loop
   vertex -0.0912038 -0.0990482 0.133476
   vertex -0.0899045 -0.0990482 0.0990805
   vertex -0.0625614 -0.118763 0.100063
  endloop
 endfacet
 facet normal -0.545332 -0.83779 0.0268561
  outer loop
   vertex -0.0625614 -0.118763 0.100063
   vertex -0.0603221 -0.119115 0.134571
   vertex -0.0912038 -0.0990482 0.133476
  endloop
 endfacet
 facet normal -0.999739 0.011534 0.0197372
  outer loop
   vertex -0.0888286 -0.0646524 0.133476
   vertex -0.0895077 -0.0646524 0.0990805
   vertex -0.0899045 -0.0990482 0.0990805
  endloop
 endfacet
 facet normal -0.996917 0.0688418 -0.0376589
  outer loop
   vertex -0.0899045 -0.0990482 0.0990805
   vertex -0.0912038 -0.0990482 0.133476
   vertex -0.0888286 -0.0646524 0.133476
  endloop
 endfacet
 facet normal 0.687795 -0.724468 -0.0456542
  outer loop
   vertex -0.0625614 -0.118763 0.100063
   vertex -0.0637226 -0.117636 0.0646847
   vertex -0.0377211 -0.0952503 0.101172
  endloop
 endfacet
 facet normal 0.64052 -0.767802 0.0146211
  outer loop
   vertex -0.0377211 -0.0952503 0.101172
   vertex -0.0637226 -0.117636 0.0646847
   vertex -0.0397338 -0.0975996 0.0659768
  endloop
 endfacet
 facet normal 0.744136 -0.668025 0.0020355
  outer loop
   vertex -0.0377211 -0.0952503 0.101172
   vertex -0.0397338 -0.0975996 0.0659768
   vertex -0.0284097 -0.0849811 0.0673246
  endloop
 endfacet
 facet normal 0.744135 -0.668026 0.0020354
  outer loop
   vertex -0.0284097 -0.0849811 0.0673246
   vertex -0.0279463 -0.0843608 0.101534
   vertex -0.0377211 -0.0952503 0.101172
  endloop
 endfacet
 facet normal 0.749024 -0.66254 0.00186972
  outer loop
   vertex -0.0279463 -0.0843608 0.101534
   vertex -0.0284097 -0.0849811 0.0673246
   vertex -0.00943797 -0.0635362 0.0661959
  endloop
 endfacet
 facet normal 0.743942 -0.668231 -0.00414545
  outer loop
   vertex -0.00943797 -0.0635362 0.0661959
   vertex -0.00900568 -0.0632661 0.100239
   vertex -0.0279463 -0.0843608 0.101534
  endloop
 endfacet
 facet normal 0.727637 -0.68382 -0.05418
  outer loop
   vertex -0.0603221 -0.119115 0.134571
   vertex -0.0625614 -0.118763 0.100063
   vertex -0.0361867 -0.093439 0.134652
  endloop
 endfacet
 facet normal 0.687232 -0.726396 0.00780104
  outer loop
   vertex -0.0361867 -0.093439 0.134652
   vertex -0.0625614 -0.118763 0.100063
   vertex -0.0377211 -0.0952503 0.101172
  endloop
 endfacet
 facet normal 0.744135 -0.668026 0.0020353
  outer loop
   vertex -0.0361867 -0.093439 0.134652
   vertex -0.0377211 -0.0952503 0.101172
   vertex -0.0279463 -0.0843608 0.101534
  endloop
 endfacet
 facet normal 0.744136 -0.668025 0.00203546
  outer loop
   vertex -0.0279463 -0.0843608 0.101534
   vertex -0.0275826 -0.0838546 0.134656
   vertex -0.0361867 -0.093439 0.134652
  endloop
 endfacet
 facet normal 0.744136 -0.668025 0.00203546
  outer loop
   vertex -0.0275826 -0.0838546 0.134656
   vertex -0.0279463 -0.0843608 0.101534
   vertex -0.00900568 -0.0632661 0.100239
  endloop
 endfacet
 facet normal 0.744136 -0.668025 0.00203539
  outer loop
   vertex -0.00900568 -0.0632661 0.100239
   vertex -0.00850808 -0.0626085 0.134126
   vertex -0.0275826 -0.0838546 0.134656
  endloop
 endfacet
 facet normal -0.844452 0.534017 0.0415569
  outer loop
   vertex -0.0677564 -0.0302566 0.0990805
   vertex -0.0694491 -0.0302566 0.0646847
   vertex -0.0895077 -0.0646524 0.0990805
  endloop
 endfacet
 facet normal -0.848476 0.52818 0.0333732
  outer loop
   vertex -0.0895077 -0.0646524 0.0990805
   vertex -0.0694491 -0.0302566 0.0646847
   vertex -0.0908606 -0.0646524 0.0646847
  endloop
 endfacet
 facet normal -0.764141 0.644057 0.0357672
  outer loop
   vertex -0.0637226 -0.0253725 0.0990805
   vertex -0.0637226 -0.0234624 0.0646847
   vertex -0.0694491 -0.0302566 0.0646847
  endloop
 endfacet
 facet normal -0.770472 0.636345 0.0379162
  outer loop
   vertex -0.0694491 -0.0302566 0.0646847
   vertex -0.0677564 -0.0302566 0.0990805
   vertex -0.0637226 -0.0253725 0.0990805
  endloop
 endfacet
 facet normal -0.839167 0.543101 0.0289934
  outer loop
   vertex -0.066568 -0.0302566 0.133476
   vertex -0.0677564 -0.0302566 0.0990805
   vertex -0.0888286 -0.0646524 0.133476
  endloop
 endfacet
 facet normal -0.845064 0.534404 0.0166835
  outer loop
   vertex -0.0888286 -0.0646524 0.133476
   vertex -0.0677564 -0.0302566 0.0990805
   vertex -0.0895077 -0.0646524 0.0990805
  endloop
 endfacet
 facet normal -0.770761 0.636584 0.0262317
  outer loop
   vertex -0.0637226 -0.0267899 0.133476
   vertex -0.0637226 -0.0253725 0.0990805
   vertex -0.0677564 -0.0302566 0.0990805
  endloop
 endfacet
 facet normal -0.772694 0.634218 0.0266967
  outer loop
   vertex -0.0677564 -0.0302566 0.0990805
   vertex -0.066568 -0.0302566 0.133476
   vertex -0.0637226 -0.0267899 0.133476
  endloop
 endfacet
 facet normal 0.764362 -0.644771 -0.00459087
  outer loop
   vertex -0.00900568 -0.0632661 0.100239
   vertex -0.00943797 -0.0635362 0.0661959
   vertex 0.00506905 -0.0463276 0.0646847
  endloop
 endfacet
 facet normal 0.760354 -0.649455 -0.00840917
  outer loop
   vertex 0.00506905 -0.0463276 0.0646847
   vertex 0.00506905 -0.046773 0.0990805
   vertex -0.00900568 -0.0632661 0.100239
  endloop
 endfacet
 facet normal -0.760285 0.648908 0.0297489
  outer loop
   vertex -0.0388186 0.00413917 0.0990805
   vertex -0.0401644 0.00413917 0.0646847
   vertex -0.0637226 -0.0234624 0.0646847
  endloop
 endfacet
 facet normal -0.763758 0.64451 0.0357923
  outer loop
   vertex -0.0637226 -0.0234624 0.0646847
   vertex -0.0637226 -0.0253725 0.0990805
   vertex -0.0388186 0.00413917 0.0990805
  endloop
 endfacet
 facet normal 0.760721 -0.649077 0.00142417
  outer loop
   vertex -0.00850808 -0.0626085 0.134126
   vertex -0.00900568 -0.0632661 0.100239
   vertex 0.00506905 -0.046773 0.0990805
  endloop
 endfacet
 facet normal 0.749694 -0.661729 -0.00856452
  outer loop
   vertex 0.00506905 -0.046773 0.0990805
   vertex 0.00506905 -0.0472182 0.133476
   vertex -0.00850808 -0.0626085 0.134126
  endloop
 endfacet
 facet normal -0.764001 0.644715 0.0254026
  outer loop
   vertex -0.0376749 0.00413917 0.133476
   vertex -0.0388186 0.00413917 0.0990805
   vertex -0.0637226 -0.0253725 0.0990805
  endloop
 endfacet
 facet normal -0.764616 0.643939 0.0265348
  outer loop
   vertex -0.0637226 -0.0253725 0.0990805
   vertex -0.0637226 -0.0267899 0.133476
   vertex -0.0376749 0.00413917 0.133476
  endloop
 endfacet
 facet normal 0.739318 -0.650874 -0.172548
  outer loop
   vertex 0.00506905 -0.0454342 0.0302889
   vertex 0.00478396 -0.0404372 0.0102183
   vertex 0.0163418 -0.0273414 0.0103409
  endloop
 endfacet
 facet normal 0.735045 -0.654233 -0.17801
  outer loop
   vertex 0.0163418 -0.0273414 0.0103409
   vertex 0.018578 -0.0302566 0.0302889
   vertex 0.00506905 -0.0454342 0.0302889
  endloop
 endfacet
 facet normal 0.750932 -0.636175 -0.177152
  outer loop
   vertex 0.018578 -0.0302566 0.0302889
   vertex 0.0163418 -0.0273414 0.0103409
   vertex 0.0360026 -0.00418523 0.010525
  endloop
 endfacet
 facet normal 0.750387 -0.636546 -0.178122
  outer loop
   vertex 0.0360026 -0.00418523 0.010525
   vertex 0.0394648 -0.00563429 0.0302889
   vertex 0.018578 -0.0302566 0.0302889
  endloop
 endfacet
 facet normal 0.74556 -0.642311 -0.177699
  outer loop
   vertex 0.0394648 -0.00563429 0.0302889
   vertex 0.0360026 -0.00418523 0.010525
   vertex 0.0478848 0.00413917 0.0302889
  endloop
 endfacet
 facet normal 0.746381 -0.641075 -0.178713
  outer loop
   vertex 0.0478848 0.00413917 0.0302889
   vertex 0.0360026 -0.00418523 0.010525
   vertex 0.042982 0.00391938 0.0106011
  endloop
 endfacet
 facet normal 0.746864 -0.664753 -0.0172669
  outer loop
   vertex 0.00506905 -0.0463276 0.0646847
   vertex 0.00506905 -0.0454342 0.0302889
   vertex 0.018578 -0.0302566 0.0302889
  endloop
 endfacet
 facet normal 0.744482 -0.66736 -0.0194208
  outer loop
   vertex 0.018578 -0.0302566 0.0302889
   vertex 0.0194752 -0.0302566 0.0646847
   vertex 0.00506905 -0.0463276 0.0646847
  endloop
 endfacet
 facet normal 0.762432 -0.646763 -0.019889
  outer loop
   vertex 0.0194752 -0.0302566 0.0646847
   vertex 0.018578 -0.0302566 0.0302889
   vertex 0.0394648 -0.00563429 0.0302889
  endloop
 endfacet
 facet normal 0.760821 -0.648584 -0.0221286
  outer loop
   vertex 0.0394648 -0.00563429 0.0302889
   vertex 0.0394648 -0.00680782 0.0646847
   vertex 0.0194752 -0.0302566 0.0646847
  endloop
 endfacet
 facet normal 0.75743 -0.652537 -0.0222634
  outer loop
   vertex 0.0394648 -0.00680782 0.0646847
   vertex 0.0394648 -0.00563429 0.0302889
   vertex 0.0478848 0.00413917 0.0302889
  endloop
 endfacet
 facet normal 0.756503 -0.653592 -0.0228262
  outer loop
   vertex 0.0478848 0.00413917 0.0302889
   vertex 0.0489227 0.00413917 0.0646847
   vertex 0.0394648 -0.00680782 0.0646847
  endloop
 endfacet
 facet normal 0.744595 -0.667461 -0.00864232
  outer loop
   vertex 0.00506905 -0.046773 0.0990805
   vertex 0.00506905 -0.0463276 0.0646847
   vertex 0.0194752 -0.0302566 0.0646847
  endloop
 endfacet
 facet normal 0.743188 -0.669009 -0.0099749
  outer loop
   vertex 0.0194752 -0.0302566 0.0646847
   vertex 0.0199369 -0.0302566 0.0990805
   vertex 0.00506905 -0.046773 0.0990805
  endloop
 endfacet
 facet normal 0.757022 -0.653311 -0.0101606
  outer loop
   vertex 0.0199369 -0.0302566 0.0990805
   vertex 0.0194752 -0.0302566 0.0646847
   vertex 0.0394648 -0.00762866 0.0990805
  endloop
 endfacet
 facet normal 0.760916 -0.648665 -0.0154802
  outer loop
   vertex 0.0394648 -0.00762866 0.0990805
   vertex 0.0194752 -0.0302566 0.0646847
   vertex 0.0394648 -0.00680782 0.0646847
  endloop
 endfacet
 facet normal 0.756608 -0.653683 -0.0155999
  outer loop
   vertex 0.0394648 -0.00762866 0.0990805
   vertex 0.0394648 -0.00680782 0.0646847
   vertex 0.0489227 0.00413917 0.0646847
  endloop
 endfacet
 facet normal 0.755001 -0.655511 -0.0166673
  outer loop
   vertex 0.0489227 0.00413917 0.0646847
   vertex 0.049682 0.00413917 0.0990805
   vertex 0.0394648 -0.00762866 0.0990805
  endloop
 endfacet
 facet normal 0.743197 -0.669017 -0.00865884
  outer loop
   vertex 0.00506905 -0.0472182 0.133476
   vertex 0.00506905 -0.046773 0.0990805
   vertex 0.0199369 -0.0302566 0.0990805
  endloop
 endfacet
 facet normal 0.742239 -0.670067 -0.00959077
  outer loop
   vertex 0.0199369 -0.0302566 0.0990805
   vertex 0.0203813 -0.0302566 0.133476
   vertex 0.00506905 -0.0472182 0.133476
  endloop
 endfacet
 facet normal 0.757024 -0.653313 -0.00978182
  outer loop
   vertex 0.0203813 -0.0302566 0.133476
   vertex 0.0199369 -0.0302566 0.0990805
   vertex 0.0394648 -0.00762866 0.0990805
  endloop
 endfacet
 facet normal 0.754855 -0.655771 -0.0126023
  outer loop
   vertex 0.0394648 -0.00762866 0.0990805
   vertex 0.0394648 -0.00828966 0.133476
   vertex 0.0203813 -0.0302566 0.133476
  endloop
 endfacet
 facet normal 0.755046 -0.65555 -0.012598
  outer loop
   vertex 0.0394648 -0.00828966 0.133476
   vertex 0.0394648 -0.00762866 0.0990805
   vertex 0.049682 0.00413917 0.0990805
  endloop
 endfacet
 facet normal 0.754102 -0.656624 -0.0132665
  outer loop
   vertex 0.049682 0.00413917 0.0990805
   vertex 0.0502871 0.00413917 0.133476
   vertex 0.0394648 -0.00828966 0.133476
  endloop
 endfacet
 facet normal -0.749316 0.633354 -0.193361
  outer loop
   vertex -0.0293268 0.0184473 0.0302889
   vertex -0.0260268 0.0169691 0.0126593
   vertex -0.0369973 0.00389335 0.0123426
  endloop
 endfacet
 facet normal -0.75762 0.626217 -0.184024
  outer loop
   vertex -0.0369973 0.00389335 0.0123426
   vertex -0.0411532 0.00413917 0.0302889
   vertex -0.0293268 0.0184473 0.0302889
  endloop
 endfacet
 facet normal -0.765269 0.608499 -0.209983
  outer loop
   vertex -0.0137163 0.038535 0.0302889
   vertex -0.0121765 0.0345452 0.0131153
   vertex -0.0260268 0.0169691 0.0126593
  endloop
 endfacet
 facet normal -0.774384 0.601786 -0.195406
  outer loop
   vertex -0.0260268 0.0169691 0.0126593
   vertex -0.0293268 0.0184473 0.0302889
   vertex -0.0137163 0.038535 0.0302889
  endloop
 endfacet
 facet normal -0.74318 0.63082 -0.223046
  outer loop
   vertex 0.00506905 0.0609347 0.0302889
   vertex 0.00471632 0.0546243 0.0136172
   vertex -0.0121765 0.0345452 0.0131153
  endloop
 endfacet
 facet normal -0.748637 0.627838 -0.212985
  outer loop
   vertex -0.0121765 0.0345452 0.0131153
   vertex -0.0137163 0.038535 0.0302889
   vertex 0.00506905 0.0609347 0.0302889
  endloop
 endfacet
 facet normal -0.770593 0.636941 0.0222024
  outer loop
   vertex -0.0293268 0.0172483 0.0646847
   vertex -0.0293268 0.0184473 0.0302889
   vertex -0.0411532 0.00413917 0.0302889
  endloop
 endfacet
 facet normal -0.77053 0.637018 0.0221511
  outer loop
   vertex -0.0411532 0.00413917 0.0302889
   vertex -0.0401644 0.00413917 0.0646847
   vertex -0.0293268 0.0172483 0.0646847
  endloop
 endfacet
 facet normal -0.78942 0.61347 0.0216838
  outer loop
   vertex -0.0127715 0.038535 0.0646847
   vertex -0.0137163 0.038535 0.0302889
   vertex -0.0293268 0.0184473 0.0302889
  endloop
 endfacet
 facet normal -0.78919 0.613776 0.0213949
  outer loop
   vertex -0.0293268 0.0184473 0.0302889
   vertex -0.0293268 0.0172483 0.0646847
   vertex -0.0127715 0.038535 0.0646847
  endloop
 endfacet
 facet normal -0.765271 0.643331 0.0220252
  outer loop
   vertex 0.00506905 0.0597571 0.0646847
   vertex 0.00506905 0.0609347 0.0302889
   vertex -0.0127715 0.038535 0.0646847
  endloop
 endfacet
 facet normal -0.766047 0.64244 0.0210418
  outer loop
   vertex -0.0127715 0.038535 0.0646847
   vertex 0.00506905 0.0609347 0.0302889
   vertex -0.0137163 0.038535 0.0302889
  endloop
 endfacet
 facet normal -0.770329 0.636852 0.0318425
  outer loop
   vertex -0.0293268 0.0155285 0.0990805
   vertex -0.0293268 0.0172483 0.0646847
   vertex -0.0401644 0.00413917 0.0646847
  endloop
 endfacet
 facet normal -0.767851 0.639923 0.0300449
  outer loop
   vertex -0.0401644 0.00413917 0.0646847
   vertex -0.0388186 0.00413917 0.0990805
   vertex -0.0293268 0.0155285 0.0990805
  endloop
 endfacet
 facet normal -0.788972 0.613606 0.031805
  outer loop
   vertex -0.011385 0.038535 0.0990805
   vertex -0.0127715 0.038535 0.0646847
   vertex -0.0293268 0.0172483 0.0646847
  endloop
 endfacet
 facet normal -0.788183 0.614673 0.0307336
  outer loop
   vertex -0.0293268 0.0172483 0.0646847
   vertex -0.0293268 0.0155285 0.0990805
   vertex -0.011385 0.038535 0.0990805
  endloop
 endfacet
 facet normal -0.76513 0.643212 0.0292294
  outer loop
   vertex 0.00506905 0.0581941 0.0990805
   vertex 0.00506905 0.0597571 0.0646847
   vertex -0.0127715 0.038535 0.0646847
  endloop
 endfacet
 facet normal -0.766483 0.641521 0.0308984
  outer loop
   vertex -0.0127715 0.038535 0.0646847
   vertex -0.011385 0.038535 0.0990805
   vertex 0.00506905 0.0581941 0.0990805
  endloop
 endfacet
 facet normal -0.767937 0.639995 0.0260693
  outer loop
   vertex -0.0293268 0.0141275 0.133476
   vertex -0.0293268 0.0155285 0.0990805
   vertex -0.0388186 0.00413917 0.0990805
  endloop
 endfacet
 facet normal -0.767041 0.641091 0.0255037
  outer loop
   vertex -0.0388186 0.00413917 0.0990805
   vertex -0.0376749 0.00413917 0.133476
   vertex -0.0293268 0.0141275 0.133476
  endloop
 endfacet
 facet normal -0.78834 0.614732 0.0249986
  outer loop
   vertex -0.0102943 0.038535 0.133476
   vertex -0.011385 0.038535 0.0990805
   vertex -0.0293268 0.0141275 0.133476
  endloop
 endfacet
 facet normal -0.788309 0.61477 0.0250418
  outer loop
   vertex -0.0293268 0.0141275 0.133476
   vertex -0.011385 0.038535 0.0990805
   vertex -0.0293268 0.0155285 0.0990805
  endloop
 endfacet
 facet normal -0.766628 0.641642 0.0240077
  outer loop
   vertex 0.00506905 0.0569071 0.133476
   vertex 0.00506905 0.0581941 0.0990805
   vertex -0.011385 0.038535 0.0990805
  endloop
 endfacet
 facet normal -0.766901 0.641304 0.0243188
  outer loop
   vertex -0.011385 0.038535 0.0990805
   vertex -0.0102943 0.038535 0.133476
   vertex 0.00506905 0.0569071 0.133476
  endloop
 endfacet
 facet normal 0.739349 -0.649678 -0.176866
  outer loop
   vertex 0.0478848 0.00413917 0.0302889
   vertex 0.042982 0.00391938 0.0106011
   vertex 0.0670788 0.0312736 0.0108528
  endloop
 endfacet
 facet normal 0.736282 -0.651584 -0.182556
  outer loop
   vertex 0.0670788 0.0312736 0.0108528
   vertex 0.07368 0.0331999 0.0306011
   vertex 0.0478848 0.00413917 0.0302889
  endloop
 endfacet
 facet normal -0.769436 0.59795 -0.224553
  outer loop
   vertex 0.0140773 0.0729308 0.0302889
   vertex 0.012397 0.0647246 0.0141946
   vertex 0.00471632 0.0546243 0.0136172
  endloop
 endfacet
 facet normal -0.782516 0.587615 -0.20586
  outer loop
   vertex 0.00471632 0.0546243 0.0136172
   vertex 0.00506905 0.0609347 0.0302889
   vertex 0.0140773 0.0729308 0.0302889
  endloop
 endfacet
 facet normal 0.749766 -0.661316 -0.022623
  outer loop
   vertex 0.0489227 0.00413917 0.0646847
   vertex 0.0478848 0.00413917 0.0302889
   vertex 0.0734301 0.031906 0.0652228
  endloop
 endfacet
 facet normal 0.74784 -0.663596 -0.0194017
  outer loop
   vertex 0.0734301 0.031906 0.0652228
   vertex 0.0478848 0.00413917 0.0302889
   vertex 0.07368 0.0331999 0.0306011
  endloop
 endfacet
 facet normal -0.799436 0.60032 0.0227685
  outer loop
   vertex 0.0150569 0.0729308 0.0646847
   vertex 0.0140773 0.0729308 0.0302889
   vertex 0.00506905 0.0609347 0.0302889
  endloop
 endfacet
 facet normal -0.796695 0.604028 0.0206796
  outer loop
   vertex 0.00506905 0.0609347 0.0302889
   vertex 0.00506905 0.0597571 0.0646847
   vertex 0.0150569 0.0729308 0.0646847
  endloop
 endfacet
 facet normal 0.757089 -0.624412 -0.192161
  outer loop
   vertex 0.07368 0.0331999 0.0306011
   vertex 0.0670788 0.0312736 0.0108528
   vertex 0.0702117 0.0350608 0.0108896
  endloop
 endfacet
 facet normal 0.753829 -0.628404 -0.191965
  outer loop
   vertex 0.0702117 0.0350608 0.0108896
   vertex 0.0780513 0.0384084 0.0307167
   vertex 0.07368 0.0331999 0.0306011
  endloop
 endfacet
 facet normal 0.827209 -0.507392 -0.241411
  outer loop
   vertex 0.0780513 0.0384084 0.0307167
   vertex 0.0702117 0.0350608 0.0108896
   vertex 0.0893232 0.0660098 0.0113285
  endloop
 endfacet
 facet normal 0.811696 -0.519292 -0.267369
  outer loop
   vertex 0.0893232 0.0660098 0.0113285
   vertex 0.0999965 0.0729308 0.0302889
   vertex 0.0780513 0.0384084 0.0307167
  endloop
 endfacet
 facet normal 0.766052 -0.642513 -0.0184823
  outer loop
   vertex 0.0734301 0.031906 0.0652228
   vertex 0.07368 0.0331999 0.0306011
   vertex 0.0780513 0.0384084 0.0307167
  endloop
 endfacet
 facet normal 0.766052 -0.642513 -0.0184825
  outer loop
   vertex 0.0780513 0.0384084 0.0307167
   vertex 0.0787515 0.0382458 0.0653919
   vertex 0.0734301 0.031906 0.0652228
  endloop
 endfacet
 facet normal 0.843652 -0.536535 -0.0195525
  outer loop
   vertex 0.0787515 0.0382458 0.0653919
   vertex 0.0780513 0.0384084 0.0307167
   vertex 0.0999965 0.0729308 0.0302889
  endloop
 endfacet
 facet normal 0.842099 -0.538842 -0.022772
  outer loop
   vertex 0.0999965 0.0729308 0.0302889
   vertex 0.100927 0.0729308 0.0646847
   vertex 0.0787515 0.0382458 0.0653919
  endloop
 endfacet
 facet normal -0.737062 0.637507 -0.224331
  outer loop
   vertex 0.0390434 0.101686 0.031684
   vertex 0.0349411 0.0910765 0.0150113
   vertex 0.012397 0.0647246 0.0141946
  endloop
 endfacet
 facet normal -0.724787 0.641468 -0.251403
  outer loop
   vertex 0.012397 0.0647246 0.0141946
   vertex 0.0140773 0.0729308 0.0302889
   vertex 0.0390434 0.101686 0.031684
  endloop
 endfacet
 facet normal -0.687316 0.672654 -0.274104
  outer loop
   vertex 0.0436051 0.106535 0.0312212
   vertex 0.0384123 0.0946187 0.0149996
   vertex 0.0349411 0.0910765 0.0150113
  endloop
 endfacet
 facet normal -0.718507 0.653208 -0.238888
  outer loop
   vertex 0.0349411 0.0910765 0.0150113
   vertex 0.0390434 0.101686 0.031684
   vertex 0.0436051 0.106535 0.0312212
  endloop
 endfacet
 facet normal -0.703729 0.705615 -0.0829013
  outer loop
   vertex 0.0688975 0.127826 0.0388641
   vertex 0.0651705 0.121313 0.0150621
   vertex 0.0384123 0.0946187 0.0149996
  endloop
 endfacet
 facet normal -0.520805 0.758966 -0.390811
  outer loop
   vertex 0.0384123 0.0946187 0.0149996
   vertex 0.0436051 0.106535 0.0312212
   vertex 0.0688975 0.127826 0.0388641
  endloop
 endfacet
 facet normal -0.755463 0.654784 0.0231098
  outer loop
   vertex 0.0391021 0.100559 0.0655534
   vertex 0.0390434 0.101686 0.031684
   vertex 0.0140773 0.0729308 0.0302889
  endloop
 endfacet
 facet normal -0.754484 0.655967 0.0214883
  outer loop
   vertex 0.0140773 0.0729308 0.0302889
   vertex 0.0150569 0.0729308 0.0646847
   vertex 0.0391021 0.100559 0.0655534
  endloop
 endfacet
 facet normal -0.726957 0.68626 0.0241086
  outer loop
   vertex 0.0452813 0.107129 0.064853
   vertex 0.0436051 0.106535 0.0312212
   vertex 0.0390434 0.101686 0.031684
  endloop
 endfacet
 facet normal -0.726956 0.68626 0.0241085
  outer loop
   vertex 0.0390434 0.101686 0.031684
   vertex 0.0391021 0.100559 0.0655534
   vertex 0.0452813 0.107129 0.064853
  endloop
 endfacet
 facet normal -0.651333 0.757432 0.0454148
  outer loop
   vertex 0.0700335 0.126968 0.0694676
   vertex 0.0688975 0.127826 0.0388641
   vertex 0.0436051 0.106535 0.0312212
  endloop
 endfacet
 facet normal -0.627302 0.778579 0.0175112
  outer loop
   vertex 0.0436051 0.106535 0.0312212
   vertex 0.0452813 0.107129 0.064853
   vertex 0.0700335 0.126968 0.0694676
  endloop
 endfacet
 facet normal 0.86505 0.0366719 -0.500343
  outer loop
   vertex 0.0999965 0.0729308 0.0302889
   vertex 0.0893232 0.0660098 0.0113285
   vertex 0.0889727 0.0960014 0.0129206
  endloop
 endfacet
 facet normal 0.856097 0.0202936 -0.516416
  outer loop
   vertex 0.0889727 0.0960014 0.0129206
   vertex 0.0998308 0.106442 0.0313312
   vertex 0.0999965 0.0729308 0.0302889
  endloop
 endfacet
 facet normal 0.345481 0.714185 -0.608755
  outer loop
   vertex 0.0998308 0.106442 0.0313312
   vertex 0.0889727 0.0960014 0.0129206
   vertex 0.0688975 0.127826 0.0388641
  endloop
 endfacet
 facet normal 0.684776 0.668497 -0.290162
  outer loop
   vertex 0.0688975 0.127826 0.0388641
   vertex 0.0889727 0.0960014 0.0129206
   vertex 0.0651705 0.121313 0.0150621
  endloop
 endfacet
 facet normal 0.999618 0.00578285 -0.0270316
  outer loop
   vertex 0.100927 0.0729308 0.0646847
   vertex 0.0999965 0.0729308 0.0302889
   vertex 0.0998308 0.106442 0.0313312
  endloop
 endfacet
 facet normal 0.999712 0.0208713 -0.0118752
  outer loop
   vertex 0.0998308 0.106442 0.0313312
   vertex 0.100245 0.106158 0.0656802
   vertex 0.100927 0.0729308 0.0646847
  endloop
 endfacet
 facet normal 0.567265 0.823535 -3.68548e-05
  outer loop
   vertex 0.100245 0.106158 0.0656802
   vertex 0.0998308 0.106442 0.0313312
   vertex 0.0700335 0.126968 0.0694676
  endloop
 endfacet
 facet normal 0.568976 0.822352 0.00193607
  outer loop
   vertex 0.0700335 0.126968 0.0694676
   vertex 0.0998308 0.106442 0.0313312
   vertex 0.0688975 0.127826 0.0388641
  endloop
 endfacet
 facet normal 0.749797 -0.661461 -0.0165525
  outer loop
   vertex 0.049682 0.00413917 0.0990805
   vertex 0.0489227 0.00413917 0.0646847
   vertex 0.0734301 0.031906 0.0652228
  endloop
 endfacet
 facet normal 0.749287 -0.662017 -0.0173668
  outer loop
   vertex 0.0734301 0.031906 0.0652228
   vertex 0.0738606 0.0315052 0.0990805
   vertex 0.049682 0.00413917 0.0990805
  endloop
 endfacet
 facet normal -0.79654 0.60391 0.0285814
  outer loop
   vertex 0.0162911 0.0729308 0.0990805
   vertex 0.0150569 0.0729308 0.0646847
   vertex 0.00506905 0.0597571 0.0646847
  endloop
 endfacet
 facet normal -0.795285 0.605611 0.0275207
  outer loop
   vertex 0.00506905 0.0597571 0.0646847
   vertex 0.00506905 0.0581941 0.0990805
   vertex 0.0162911 0.0729308 0.0990805
  endloop
 endfacet
 facet normal 0.749335 -0.66206 -0.0131826
  outer loop
   vertex 0.0502871 0.00413917 0.133476
   vertex 0.049682 0.00413917 0.0990805
   vertex 0.0738606 0.0315052 0.0990805
  endloop
 endfacet
 facet normal 0.750071 -0.661248 -0.0120323
  outer loop
   vertex 0.0738606 0.0315052 0.0990805
   vertex 0.0738606 0.0308793 0.133476
   vertex 0.0502871 0.00413917 0.133476
  endloop
 endfacet
 facet normal -0.795353 0.605663 0.0242086
  outer loop
   vertex 0.017338 0.0729308 0.133476
   vertex 0.0162911 0.0729308 0.0990805
   vertex 0.00506905 0.0581941 0.0990805
  endloop
 endfacet
 facet normal -0.79378 0.607779 0.0227407
  outer loop
   vertex 0.00506905 0.0581941 0.0990805
   vertex 0.00506905 0.0569071 0.133476
   vertex 0.017338 0.0729308 0.133476
  endloop
 endfacet
 facet normal 0.766052 -0.642544 -0.0173495
  outer loop
   vertex 0.0738606 0.0315052 0.0990805
   vertex 0.0734301 0.031906 0.0652228
   vertex 0.0787515 0.0382458 0.0653919
  endloop
 endfacet
 facet normal 0.764592 -0.644265 -0.0179059
  outer loop
   vertex 0.0787515 0.0382458 0.0653919
   vertex 0.0797841 0.038535 0.0990805
   vertex 0.0738606 0.0315052 0.0990805
  endloop
 endfacet
 facet normal 0.842143 -0.538838 -0.0211878
  outer loop
   vertex 0.0797841 0.038535 0.0990805
   vertex 0.0787515 0.0382458 0.0653919
   vertex 0.100927 0.0729308 0.0646847
  endloop
 endfacet
 facet normal 0.851237 -0.52478 -0.00154002
  outer loop
   vertex 0.100927 0.0729308 0.0646847
   vertex 0.100989 0.0729308 0.0990805
   vertex 0.0797841 0.038535 0.0990805
  endloop
 endfacet
 facet normal 0.764662 -0.644324 -0.0117244
  outer loop
   vertex 0.0738606 0.0308793 0.133476
   vertex 0.0738606 0.0315052 0.0990805
   vertex 0.0797841 0.038535 0.0990805
  endloop
 endfacet
 facet normal 0.765609 -0.643206 -0.0113123
  outer loop
   vertex 0.0797841 0.038535 0.0990805
   vertex 0.0802924 0.038535 0.133476
   vertex 0.0738606 0.0308793 0.133476
  endloop
 endfacet
 facet normal 0.85117 -0.524739 -0.0125766
  outer loop
   vertex 0.0802924 0.038535 0.133476
   vertex 0.0797841 0.038535 0.0990805
   vertex 0.100989 0.0729308 0.0990805
  endloop
 endfacet
 facet normal 0.850893 -0.525174 -0.0131785
  outer loop
   vertex 0.100989 0.0729308 0.0990805
   vertex 0.101522 0.0729308 0.133476
   vertex 0.0802924 0.038535 0.133476
  endloop
 endfacet
 facet normal -0.754481 0.655903 0.0234248
  outer loop
   vertex 0.0393183 0.0996024 0.0992972
   vertex 0.0391021 0.100559 0.0655534
   vertex 0.0150569 0.0729308 0.0646847
  endloop
 endfacet
 facet normal -0.756756 0.653133 0.0271539
  outer loop
   vertex 0.0150569 0.0729308 0.0646847
   vertex 0.0162911 0.0729308 0.0990805
   vertex 0.0393183 0.0996024 0.0992972
  endloop
 endfacet
 facet normal -0.697411 0.715783 0.0356748
  outer loop
   vertex 0.0472349 0.107327 0.0990805
   vertex 0.0452813 0.107129 0.064853
   vertex 0.0393183 0.0996024 0.0992972
  endloop
 endfacet
 facet normal -0.726956 0.68626 0.0241087
  outer loop
   vertex 0.0393183 0.0996024 0.0992972
   vertex 0.0452813 0.107129 0.064853
   vertex 0.0391021 0.100559 0.0655534
  endloop
 endfacet
 facet normal -0.631503 0.772569 0.0658807
  outer loop
   vertex 0.0715659 0.125544 0.100851
   vertex 0.0700335 0.126968 0.0694676
   vertex 0.0452813 0.107129 0.064853
  endloop
 endfacet
 facet normal -0.600479 0.79909 0.0296613
  outer loop
   vertex 0.0452813 0.107129 0.064853
   vertex 0.0472349 0.107327 0.0990805
   vertex 0.0715659 0.125544 0.100851
  endloop
 endfacet
 facet normal -0.756771 0.653153 0.0262512
  outer loop
   vertex 0.0393802 0.0982985 0.133524
   vertex 0.0393183 0.0996024 0.0992972
   vertex 0.0162911 0.0729308 0.0990805
  endloop
 endfacet
 facet normal -0.754673 0.655699 0.0229704
  outer loop
   vertex 0.0162911 0.0729308 0.0990805
   vertex 0.017338 0.0729308 0.133476
   vertex 0.0393802 0.0982985 0.133524
  endloop
 endfacet
 facet normal -0.683945 0.728692 0.0350289
  outer loop
   vertex 0.0489965 0.107327 0.133476
   vertex 0.0472349 0.107327 0.0990805
   vertex 0.0393802 0.0982985 0.133524
  endloop
 endfacet
 facet normal -0.697671 0.71585 0.0285327
  outer loop
   vertex 0.0393802 0.0982985 0.133524
   vertex 0.0472349 0.107327 0.0990805
   vertex 0.0393183 0.0996024 0.0992972
  endloop
 endfacet
 facet normal -0.596364 0.80194 0.0352513
  outer loop
   vertex 0.0717954 0.124254 0.134083
   vertex 0.0715659 0.125544 0.100851
   vertex 0.0489965 0.107327 0.133476
  endloop
 endfacet
 facet normal -0.60051 0.799025 0.0307557
  outer loop
   vertex 0.0489965 0.107327 0.133476
   vertex 0.0715659 0.125544 0.100851
   vertex 0.0472349 0.107327 0.0990805
  endloop
 endfacet
 facet normal 0.999787 0.0205712 -0.00180877
  outer loop
   vertex 0.100989 0.0729308 0.0990805
   vertex 0.100927 0.0729308 0.0646847
   vertex 0.100245 0.106158 0.0656802
  endloop
 endfacet
 facet normal 0.999419 0.0325406 0.0101067
  outer loop
   vertex 0.100245 0.106158 0.0656802
   vertex 0.0999022 0.106107 0.0997223
   vertex 0.100989 0.0729308 0.0990805
  endloop
 endfacet
 facet normal 0.565848 0.824481 0.00694105
  outer loop
   vertex 0.0999022 0.106107 0.0997223
   vertex 0.100245 0.106158 0.0656802
   vertex 0.0715659 0.125544 0.100851
  endloop
 endfacet
 facet normal 0.568058 0.822933 0.00959649
  outer loop
   vertex 0.0715659 0.125544 0.100851
   vertex 0.100245 0.106158 0.0656802
   vertex 0.0700335 0.126968 0.0694676
  endloop
 endfacet
 facet normal 0.999334 0.0330327 -0.0154775
  outer loop
   vertex 0.101522 0.0729308 0.133476
   vertex 0.100989 0.0729308 0.0990805
   vertex 0.0999022 0.106107 0.0997223
  endloop
 endfacet
 facet normal 0.999271 0.0360737 -0.0124855
  outer loop
   vertex 0.0999022 0.106107 0.0997223
   vertex 0.100353 0.105431 0.133856
   vertex 0.101522 0.0729308 0.133476
  endloop
 endfacet
 facet normal 0.550371 0.834869 0.00925726
  outer loop
   vertex 0.100353 0.105431 0.133856
   vertex 0.0999022 0.106107 0.0997223
   vertex 0.0717954 0.124254 0.134083
  endloop
 endfacet
 facet normal 0.566211 0.823782 0.0280691
  outer loop
   vertex 0.0717954 0.124254 0.134083
   vertex 0.0999022 0.106107 0.0997223
   vertex 0.0715659 0.125544 0.100851
  endloop
 endfacet
 facet normal -0.544681 -0.838617 -0.0066768
  outer loop
   vertex -0.0928752 -0.0982356 0.167765
   vertex -0.0912038 -0.0990482 0.133476
   vertex -0.0603221 -0.119115 0.134571
  endloop
 endfacet
 facet normal -0.322227 -0.911091 0.257066
  outer loop
   vertex -0.0603221 -0.119115 0.134571
   vertex -0.053768 -0.112604 0.16586
   vertex -0.0928752 -0.0982356 0.167765
  endloop
 endfacet
 facet normal -0.997269 0.0688661 -0.0267009
  outer loop
   vertex -0.0897496 -0.0646524 0.167872
   vertex -0.0888286 -0.0646524 0.133476
   vertex -0.0912038 -0.0990482 0.133476
  endloop
 endfacet
 facet normal -0.994403 0.0927134 -0.0506693
  outer loop
   vertex -0.0912038 -0.0990482 0.133476
   vertex -0.0928752 -0.0982356 0.167765
   vertex -0.0897496 -0.0646524 0.167872
  endloop
 endfacet
 facet normal -0.470051 -0.882548 -0.0126837
  outer loop
   vertex -0.0926564 -0.0988467 0.202173
   vertex -0.0928752 -0.0982356 0.167765
   vertex -0.0585437 -0.116963 0.198507
  endloop
 endfacet
 facet normal -0.34708 -0.921591 -0.173799
  outer loop
   vertex -0.0585437 -0.116963 0.198507
   vertex -0.0928752 -0.0982356 0.167765
   vertex -0.053768 -0.112604 0.16586
  endloop
 endfacet
 facet normal -0.995321 0.0925491 0.027764
  outer loop
   vertex -0.0887901 -0.0646524 0.202268
   vertex -0.0897496 -0.0646524 0.167872
   vertex -0.0928752 -0.0982356 0.167765
  endloop
 endfacet
 facet normal -0.993636 0.112327 0.00831343
  outer loop
   vertex -0.0928752 -0.0982356 0.167765
   vertex -0.0926564 -0.0988467 0.202173
   vertex -0.0887901 -0.0646524 0.202268
  endloop
 endfacet
 facet normal 0.739604 -0.672877 -0.0149223
  outer loop
   vertex -0.053768 -0.112604 0.16586
   vertex -0.0603221 -0.119115 0.134571
   vertex -0.0332453 -0.0900649 0.16669
  endloop
 endfacet
 facet normal 0.728603 -0.684916 0.00524033
  outer loop
   vertex -0.0332453 -0.0900649 0.16669
   vertex -0.0603221 -0.119115 0.134571
   vertex -0.0361867 -0.093439 0.134652
  endloop
 endfacet
 facet normal 0.744136 -0.668025 0.00203542
  outer loop
   vertex -0.0332453 -0.0900649 0.16669
   vertex -0.0361867 -0.093439 0.134652
   vertex -0.0266133 -0.0826772 0.166719
  endloop
 endfacet
 facet normal 0.744136 -0.668025 0.00203554
  outer loop
   vertex -0.0266133 -0.0826772 0.166719
   vertex -0.0361867 -0.093439 0.134652
   vertex -0.0275826 -0.0838546 0.134656
  endloop
 endfacet
 facet normal 0.744136 -0.668025 0.00203554
  outer loop
   vertex -0.0266133 -0.0826772 0.166719
   vertex -0.0275826 -0.0838546 0.134656
   vertex -0.00850808 -0.0626085 0.134126
  endloop
 endfacet
 facet normal 0.744136 -0.668026 0.00203543
  outer loop
   vertex -0.00850808 -0.0626085 0.134126
   vertex -0.00676329 -0.0605646 0.167055
   vertex -0.0266133 -0.0826772 0.166719
  endloop
 endfacet
 facet normal 0.738957 -0.673507 0.0181853
  outer loop
   vertex -0.0585437 -0.116963 0.198507
   vertex -0.053768 -0.112604 0.16586
   vertex -0.0332453 -0.0900649 0.16669
  endloop
 endfacet
 facet normal 0.727249 -0.686371 -0.00199972
  outer loop
   vertex -0.0332453 -0.0900649 0.16669
   vertex -0.0368844 -0.0940175 0.199889
   vertex -0.0585437 -0.116963 0.198507
  endloop
 endfacet
 facet normal 0.744136 -0.668025 0.00203557
  outer loop
   vertex -0.0368844 -0.0940175 0.199889
   vertex -0.0332453 -0.0900649 0.16669
   vertex -0.0266133 -0.0826772 0.166719
  endloop
 endfacet
 facet normal 0.744136 -0.668026 0.0020353
  outer loop
   vertex -0.0266133 -0.0826772 0.166719
   vertex -0.0277074 -0.0837952 0.199797
   vertex -0.0368844 -0.0940175 0.199889
  endloop
 endfacet
 facet normal 0.744136 -0.668026 0.0020353
  outer loop
   vertex -0.0277074 -0.0837952 0.199797
   vertex -0.0266133 -0.0826772 0.166719
   vertex -0.00676329 -0.0605646 0.167055
  endloop
 endfacet
 facet normal 0.744136 -0.668025 0.0020355
  outer loop
   vertex -0.00676329 -0.0605646 0.167055
   vertex -0.00814648 -0.0620039 0.200367
   vertex -0.0277074 -0.0837952 0.199797
  endloop
 endfacet
 facet normal -0.839496 0.543314 -0.00750296
  outer loop
   vertex -0.0668754 -0.0302566 0.167872
   vertex -0.066568 -0.0302566 0.133476
   vertex -0.0888286 -0.0646524 0.133476
  endloop
 endfacet
 facet normal -0.832473 0.553617 -0.0222887
  outer loop
   vertex -0.0888286 -0.0646524 0.133476
   vertex -0.0897496 -0.0646524 0.167872
   vertex -0.0668754 -0.0302566 0.167872
  endloop
 endfacet
 facet normal -0.772959 0.634436 -0.00498311
  outer loop
   vertex -0.0637226 -0.0265197 0.167872
   vertex -0.0637226 -0.0267899 0.133476
   vertex -0.066568 -0.0302566 0.133476
  endloop
 endfacet
 facet normal -0.764288 0.644839 -0.00683079
  outer loop
   vertex -0.066568 -0.0302566 0.133476
   vertex -0.0668754 -0.0302566 0.167872
   vertex -0.0637226 -0.0265197 0.167872
  endloop
 endfacet
 facet normal -0.821025 0.569041 0.0459393
  outer loop
   vertex -0.0649509 -0.0302566 0.202268
   vertex -0.0668754 -0.0302566 0.167872
   vertex -0.0887901 -0.0646524 0.202268
  endloop
 endfacet
 facet normal -0.832455 0.553605 0.023221
  outer loop
   vertex -0.0887901 -0.0646524 0.202268
   vertex -0.0668754 -0.0302566 0.167872
   vertex -0.0897496 -0.0646524 0.167872
  endloop
 endfacet
 facet normal -0.763586 0.644248 0.0433633
  outer loop
   vertex -0.0637226 -0.0288349 0.202268
   vertex -0.0637226 -0.0265197 0.167872
   vertex -0.0668754 -0.0302566 0.167872
  endloop
 endfacet
 facet normal -0.756038 0.653159 0.042303
  outer loop
   vertex -0.0668754 -0.0302566 0.167872
   vertex -0.0649509 -0.0302566 0.202268
   vertex -0.0637226 -0.0288349 0.202268
  endloop
 endfacet
 facet normal 0.749928 -0.661518 0.00132456
  outer loop
   vertex -0.00676329 -0.0605646 0.167055
   vertex -0.00850808 -0.0626085 0.134126
   vertex 0.00506905 -0.0472182 0.133476
  endloop
 endfacet
 facet normal 0.744228 -0.667918 -0.0032278
  outer loop
   vertex 0.00506905 -0.0472182 0.133476
   vertex 0.00498747 -0.0474736 0.167529
   vertex -0.00676329 -0.0605646 0.167055
  endloop
 endfacet
 facet normal -0.755927 0.654563 0.0109923
  outer loop
   vertex -0.0371748 0.00413917 0.167872
   vertex -0.0376749 0.00413917 0.133476
   vertex -0.0637226 -0.0265197 0.167872
  endloop
 endfacet
 facet normal -0.764876 0.644158 -0.00505947
  outer loop
   vertex -0.0637226 -0.0265197 0.167872
   vertex -0.0376749 0.00413917 0.133476
   vertex -0.0637226 -0.0267899 0.133476
  endloop
 endfacet
 facet normal 0.744136 -0.668025 0.00203549
  outer loop
   vertex -0.00814648 -0.0620039 0.200367
   vertex -0.00676329 -0.0605646 0.167055
   vertex 0.00498747 -0.0474736 0.167529
  endloop
 endfacet
 facet normal 0.744136 -0.668025 0.00203549
  outer loop
   vertex 0.00498747 -0.0474736 0.167529
   vertex 0.0050546 -0.0472936 0.20205
   vertex -0.00814648 -0.0620039 0.200367
  endloop
 endfacet
 facet normal -0.754825 0.653609 0.0550801
  outer loop
   vertex -0.0346649 0.00413917 0.202268
   vertex -0.0371748 0.00413917 0.167872
   vertex -0.0637226 -0.0265197 0.167872
  endloop
 endfacet
 facet normal -0.749514 0.660494 0.0444568
  outer loop
   vertex -0.0637226 -0.0265197 0.167872
   vertex -0.0637226 -0.0288349 0.202268
   vertex -0.0346649 0.00413917 0.202268
  endloop
 endfacet
 facet normal -0.446532 -0.876865 0.17809
  outer loop
   vertex -0.0785046 -0.0990482 0.236664
   vertex -0.0926564 -0.0988467 0.202173
   vertex -0.0585437 -0.116963 0.198507
  endloop
 endfacet
 facet normal -0.107454 -0.920404 0.375912
  outer loop
   vertex -0.0585437 -0.116963 0.198507
   vertex -0.0637226 -0.100774 0.236664
   vertex -0.0785046 -0.0990482 0.236664
  endloop
 endfacet
 facet normal -0.96166 -0.0136638 0.273906
  outer loop
   vertex -0.0789933 -0.0646524 0.236664
   vertex -0.0887901 -0.0646524 0.202268
   vertex -0.0785046 -0.0990482 0.236664
  endloop
 endfacet
 facet normal -0.920023 0.102973 0.378092
  outer loop
   vertex -0.0785046 -0.0990482 0.236664
   vertex -0.0887901 -0.0646524 0.202268
   vertex -0.0926564 -0.0988467 0.202173
  endloop
 endfacet
 facet normal -0.0914831 -0.783602 0.614491
  outer loop
   vertex -0.0637226 -0.100774 0.236664
   vertex -0.0637226 -0.0990482 0.238864
   vertex -0.0785046 -0.0990482 0.236664
  endloop
 endfacet
 facet normal -0.147253 -0.00209225 0.989097
  outer loop
   vertex -0.0785046 -0.0990482 0.236664
   vertex -0.0637226 -0.0990482 0.238864
   vertex -0.0789933 -0.0646524 0.236664
  endloop
 endfacet
 facet normal -0.478627 -0.157228 0.863826
  outer loop
   vertex -0.0789933 -0.0646524 0.236664
   vertex -0.0637226 -0.0990482 0.238864
   vertex -0.0536767 -0.0544861 0.252542
  endloop
 endfacet
 facet normal 0.302716 -0.861918 0.406769
  outer loop
   vertex -0.0637226 -0.100774 0.236664
   vertex -0.0585437 -0.116963 0.198507
   vertex -0.0588088 -0.0990482 0.236664
  endloop
 endfacet
 facet normal 0.680553 -0.661409 0.315257
  outer loop
   vertex -0.0588088 -0.0990482 0.236664
   vertex -0.0585437 -0.116963 0.198507
   vertex -0.0368844 -0.0940175 0.199889
  endloop
 endfacet
 facet normal 0.611368 -0.746591 0.262357
  outer loop
   vertex -0.0588088 -0.0990482 0.236664
   vertex -0.0368844 -0.0940175 0.199889
   vertex -0.0293268 -0.074906 0.236664
  endloop
 endfacet
 facet normal 0.731421 -0.654911 0.190038
  outer loop
   vertex -0.0293268 -0.074906 0.236664
   vertex -0.0368844 -0.0940175 0.199889
   vertex -0.0277074 -0.0837952 0.199797
  endloop
 endfacet
 facet normal 0.728013 -0.658491 0.190752
  outer loop
   vertex -0.0293268 -0.074906 0.236664
   vertex -0.0277074 -0.0837952 0.199797
   vertex -0.00814648 -0.0620039 0.200367
  endloop
 endfacet
 facet normal 0.707147 -0.686683 0.168555
  outer loop
   vertex -0.00814648 -0.0620039 0.200367
   vertex -0.0193699 -0.0646524 0.236664
   vertex -0.0293268 -0.074906 0.236664
  endloop
 endfacet
 facet normal 0.266383 -0.758469 0.594782
  outer loop
   vertex -0.0588088 -0.0990482 0.236664
   vertex -0.0637226 -0.0990482 0.238864
   vertex -0.0637226 -0.100774 0.236664
  endloop
 endfacet
 facet normal 0.532343 -0.650087 0.542215
  outer loop
   vertex -0.0293268 -0.074906 0.236664
   vertex -0.0276714 -0.0611326 0.251552
   vertex -0.0588088 -0.0990482 0.236664
  endloop
 endfacet
 facet normal -0.048546 -0.330276 0.942635
  outer loop
   vertex -0.0588088 -0.0990482 0.236664
   vertex -0.0276714 -0.0611326 0.251552
   vertex -0.0536767 -0.0544861 0.252542
  endloop
 endfacet
 facet normal 0.383064 -0.348869 0.855308
  outer loop
   vertex -0.0588088 -0.0990482 0.236664
   vertex -0.0536767 -0.0544861 0.252542
   vertex -0.0637226 -0.0990482 0.238864
  endloop
 endfacet
 facet normal 0.624686 -0.606608 0.491725
  outer loop
   vertex -0.0193699 -0.0646524 0.236664
   vertex -0.0276714 -0.0611326 0.251552
   vertex -0.0293268 -0.074906 0.236664
  endloop
 endfacet
 facet normal -0.837064 0.517226 0.178326
  outer loop
   vertex -0.0637226 -0.0399387 0.236664
   vertex -0.0637226 -0.0302566 0.208581
   vertex -0.0789933 -0.0646524 0.236664
  endloop
 endfacet
 facet normal -0.806137 0.545365 0.229609
  outer loop
   vertex -0.0789933 -0.0646524 0.236664
   vertex -0.0637226 -0.0302566 0.208581
   vertex -0.0887901 -0.0646524 0.202268
  endloop
 endfacet
 facet normal -0.811583 0.562497 0.157895
  outer loop
   vertex -0.0887901 -0.0646524 0.202268
   vertex -0.0637226 -0.0302566 0.208581
   vertex -0.0649509 -0.0302566 0.202268
  endloop
 endfacet
 facet normal -0.748646 0.646773 0.14565
  outer loop
   vertex -0.0649509 -0.0302566 0.202268
   vertex -0.0637226 -0.0302566 0.208581
   vertex -0.0637226 -0.0288349 0.202268
  endloop
 endfacet
 facet normal -0.595596 0.368021 0.714021
  outer loop
   vertex -0.0789933 -0.0646524 0.236664
   vertex -0.0536767 -0.0544861 0.252542
   vertex -0.0637226 -0.0399387 0.236664
  endloop
 endfacet
 facet normal -0.783375 0.587606 0.202591
  outer loop
   vertex -0.0564601 -0.0302566 0.236664
   vertex -0.0637226 -0.0302566 0.208581
   vertex -0.0637226 -0.0399387 0.236664
  endloop
 endfacet
 facet normal 0.722788 -0.668621 0.174709
  outer loop
   vertex -0.0193699 -0.0646524 0.236664
   vertex -0.00814648 -0.0620039 0.200367
   vertex 0.0050546 -0.0472936 0.20205
  endloop
 endfacet
 facet normal 0.731904 -0.654962 0.187991
  outer loop
   vertex 0.0050546 -0.0472936 0.20205
   vertex 0.00506905 -0.0373425 0.236664
   vertex -0.0193699 -0.0646524 0.236664
  endloop
 endfacet
 facet normal -0.740994 0.639693 0.204255
  outer loop
   vertex -0.0293268 0.00117353 0.236664
   vertex -0.0293268 0.00413917 0.227376
   vertex -0.0564601 -0.0302566 0.236664
  endloop
 endfacet
 facet normal -0.744482 0.639279 0.192533
  outer loop
   vertex -0.0564601 -0.0302566 0.236664
   vertex -0.0293268 0.00413917 0.227376
   vertex -0.0637226 -0.0302566 0.208581
  endloop
 endfacet
 facet normal -0.739959 0.653996 0.157321
  outer loop
   vertex -0.0637226 -0.0302566 0.208581
   vertex -0.0293268 0.00413917 0.227376
   vertex -0.0346649 0.00413917 0.202268
  endloop
 endfacet
 facet normal -0.742076 0.653939 0.147264
  outer loop
   vertex -0.0637226 -0.0302566 0.208581
   vertex -0.0346649 0.00413917 0.202268
   vertex -0.0637226 -0.0288349 0.202268
  endloop
 endfacet
 facet normal -0.755812 0.623762 0.199169
  outer loop
   vertex -0.0268792 0.00413917 0.236664
   vertex -0.0293268 0.00413917 0.227376
   vertex -0.0293268 0.00117353 0.236664
  endloop
 endfacet
 facet normal -0.647736 0.485863 0.586835
  outer loop
   vertex -0.037556 -0.0254394 0.253541
   vertex -0.0564601 -0.0302566 0.236664
   vertex -0.0637226 -0.0399387 0.236664
  endloop
 endfacet
 facet normal -0.633583 0.327507 0.700936
  outer loop
   vertex -0.037556 -0.0254394 0.253541
   vertex -0.0637226 -0.0399387 0.236664
   vertex -0.0536767 -0.0544861 0.252542
  endloop
 endfacet
 facet normal 0.0234048 -0.04736 0.998604
  outer loop
   vertex -0.037556 -0.0254394 0.253541
   vertex -0.0536767 -0.0544861 0.252542
   vertex -0.0242365 -0.0496175 0.252082
  endloop
 endfacet
 facet normal 0.0243742 -0.053252 0.998284
  outer loop
   vertex -0.0242365 -0.0496175 0.252082
   vertex -0.0536767 -0.0544861 0.252542
   vertex -0.0276714 -0.0611326 0.251552
  endloop
 endfacet
 facet normal 0.057173 -0.0629478 0.996378
  outer loop
   vertex -0.0242365 -0.0496175 0.252082
   vertex -0.0276714 -0.0611326 0.251552
   vertex 0.00497203 -0.0292729 0.251692
  endloop
 endfacet
 facet normal 0.105294 -0.132241 0.985609
  outer loop
   vertex -0.0242365 -0.0496175 0.252082
   vertex 0.00497203 -0.0292729 0.251692
   vertex 0.00121834 -0.0251916 0.25264
  endloop
 endfacet
 facet normal 0.608802 -0.625915 0.487433
  outer loop
   vertex 0.00497203 -0.0292729 0.251692
   vertex -0.0276714 -0.0611326 0.251552
   vertex -0.0193699 -0.0646524 0.236664
  endloop
 endfacet
 facet normal 0.700493 -0.626853 0.341122
  outer loop
   vertex 0.00497203 -0.0292729 0.251692
   vertex -0.0193699 -0.0646524 0.236664
   vertex 0.00506905 -0.0373425 0.236664
  endloop
 endfacet
 facet normal -0.660868 0.57052 0.487607
  outer loop
   vertex -0.0248211 -0.00864773 0.254262
   vertex -0.0293268 0.00117353 0.236664
   vertex -0.0564601 -0.0302566 0.236664
  endloop
 endfacet
 facet normal -0.651764 0.468723 0.59624
  outer loop
   vertex -0.0564601 -0.0302566 0.236664
   vertex -0.037556 -0.0254394 0.253541
   vertex -0.0248211 -0.00864773 0.254262
  endloop
 endfacet
 facet normal -0.825483 -0.170975 0.537908
  outer loop
   vertex -0.0150507 0.0038062 0.25471
   vertex -0.0268792 0.00413917 0.236664
   vertex -0.0124223 -0.0117718 0.253792
  endloop
 endfacet
 facet normal -0.483635 0.399138 0.778965
  outer loop
   vertex -0.0268792 0.00413917 0.236664
   vertex -0.0293268 0.00117353 0.236664
   vertex -0.0124223 -0.0117718 0.253792
  endloop
 endfacet
 facet normal 0.236122 0.872998 0.426756
  outer loop
   vertex -0.0293268 0.00117353 0.236664
   vertex -0.0248211 -0.00864773 0.254262
   vertex -0.0124223 -0.0117718 0.253792
  endloop
 endfacet
 facet normal 0.0217612 -0.0635333 0.997742
  outer loop
   vertex -0.0248211 -0.00864773 0.254262
   vertex 0.00121834 -0.0251916 0.25264
   vertex -0.0124223 -0.0117718 0.253792
  endloop
 endfacet
 facet normal 0.621719 0.667173 -0.410299
  outer loop
   vertex 0.00121834 -0.0251916 0.25264
   vertex 0.00497203 -0.0292729 0.251692
   vertex -0.0124223 -0.0117718 0.253792
  endloop
 endfacet
 facet normal -0.0119717 -0.130887 0.991325
  outer loop
   vertex 0.00497203 -0.0292729 0.251692
   vertex 0.00457155 -0.0214774 0.252716
   vertex -0.0124223 -0.0117718 0.253792
  endloop
 endfacet
 facet normal 0.0327818 -0.0532711 0.998042
  outer loop
   vertex 0.00457155 -0.0214774 0.252716
   vertex -0.0150507 0.0038062 0.25471
   vertex -0.0124223 -0.0117718 0.253792
  endloop
 endfacet
 facet normal 0.742269 -0.670094 -0.00324882
  outer loop
   vertex 0.00498747 -0.0474736 0.167529
   vertex 0.00506905 -0.0472182 0.133476
   vertex 0.0203813 -0.0302566 0.133476
  endloop
 endfacet
 facet normal 0.744137 -0.668026 -0.00135841
  outer loop
   vertex 0.0203813 -0.0302566 0.133476
   vertex 0.0211775 -0.029439 0.167533
   vertex 0.00498747 -0.0474736 0.167529
  endloop
 endfacet
 facet normal 0.754913 -0.655822 -0.00190335
  outer loop
   vertex 0.0211775 -0.029439 0.167533
   vertex 0.0203813 -0.0302566 0.133476
   vertex 0.0394648 -0.00828966 0.133476
  endloop
 endfacet
 facet normal 0.744131 -0.667861 -0.0151697
  outer loop
   vertex 0.0394648 -0.00828966 0.133476
   vertex 0.0390293 -0.00955277 0.167718
   vertex 0.0211775 -0.029439 0.167533
  endloop
 endfacet
 facet normal 0.754087 -0.656611 -0.0146281
  outer loop
   vertex 0.0390293 -0.00955277 0.167718
   vertex 0.0394648 -0.00828966 0.133476
   vertex 0.0502871 0.00413917 0.133476
  endloop
 endfacet
 facet normal 0.744315 -0.66746 -0.022179
  outer loop
   vertex 0.0502871 0.00413917 0.133476
   vertex 0.0512953 0.00412349 0.167784
   vertex 0.0390293 -0.00955277 0.167718
  endloop
 endfacet
 facet normal 0.744136 -0.668025 0.00203549
  outer loop
   vertex 0.0050546 -0.0472936 0.20205
   vertex 0.00498747 -0.0474736 0.167529
   vertex 0.0211775 -0.029439 0.167533
  endloop
 endfacet
 facet normal 0.744136 -0.668025 0.00203535
  outer loop
   vertex 0.0211775 -0.029439 0.167533
   vertex 0.0204672 -0.030125 0.202072
   vertex 0.0050546 -0.0472936 0.20205
  endloop
 endfacet
 facet normal 0.744136 -0.668026 0.00203535
  outer loop
   vertex 0.0204672 -0.030125 0.202072
   vertex 0.0211775 -0.029439 0.167533
   vertex 0.0390293 -0.00955277 0.167718
  endloop
 endfacet
 facet normal 0.751959 -0.659107 0.0116033
  outer loop
   vertex 0.0390293 -0.00955277 0.167718
   vertex 0.0394648 -0.00844758 0.202268
   vertex 0.0204672 -0.030125 0.202072
  endloop
 endfacet
 facet normal 0.744363 -0.667668 0.0119729
  outer loop
   vertex 0.0394648 -0.00844758 0.202268
   vertex 0.0390293 -0.00955277 0.167718
   vertex 0.0512953 0.00412349 0.167784
  endloop
 endfacet
 facet normal 0.747627 -0.663962 0.014444
  outer loop
   vertex 0.0512953 0.00412349 0.167784
   vertex 0.050643 0.00413917 0.202268
   vertex 0.0394648 -0.00844758 0.202268
  endloop
 endfacet
 facet normal 0.7307 -0.656203 0.188348
  outer loop
   vertex 0.00506905 -0.0373425 0.236664
   vertex 0.0050546 -0.0472936 0.20205
   vertex 0.0204672 -0.030125 0.202072
  endloop
 endfacet
 facet normal 0.721133 -0.668598 0.181504
  outer loop
   vertex 0.0204672 -0.030125 0.202072
   vertex 0.0116387 -0.0302566 0.236664
   vertex 0.00506905 -0.0373425 0.236664
  endloop
 endfacet
 facet normal 0.738117 -0.648552 0.185915
  outer loop
   vertex 0.0116387 -0.0302566 0.236664
   vertex 0.0204672 -0.030125 0.202072
   vertex 0.0394648 -0.00844758 0.202268
  endloop
 endfacet
 facet normal 0.729715 -0.662155 0.170492
  outer loop
   vertex 0.0394648 -0.00844758 0.202268
   vertex 0.0394648 0.000408679 0.236664
   vertex 0.0116387 -0.0302566 0.236664
  endloop
 endfacet
 facet normal 0.73701 -0.654533 0.16853
  outer loop
   vertex 0.0394648 0.000408679 0.236664
   vertex 0.0394648 -0.00844758 0.202268
   vertex 0.050643 0.00413917 0.202268
  endloop
 endfacet
 facet normal 0.731078 -0.66184 0.16581
  outer loop
   vertex 0.050643 0.00413917 0.202268
   vertex 0.042842 0.00413917 0.236664
   vertex 0.0394648 0.000408679 0.236664
  endloop
 endfacet
 facet normal 0.687789 -0.637682 0.346855
  outer loop
   vertex 0.0116387 -0.0302566 0.236664
   vertex 0.00497203 -0.0292729 0.251692
   vertex 0.00506905 -0.0373425 0.236664
  endloop
 endfacet
 facet normal 0.157664 -0.120696 0.980089
  outer loop
   vertex 0.00457155 -0.0214774 0.252716
   vertex 0.00497203 -0.0292729 0.251692
   vertex 0.0286539 0.00374997 0.251949
  endloop
 endfacet
 facet normal 0.411833 -0.302032 0.85975
  outer loop
   vertex 0.0286539 0.00374997 0.251949
   vertex 0.00497203 -0.0292729 0.251692
   vertex 0.0394648 0.00413917 0.246907
  endloop
 endfacet
 facet normal 0.677637 -0.650409 0.343185
  outer loop
   vertex 0.0394648 0.00413917 0.246907
   vertex 0.00497203 -0.0292729 0.251692
   vertex 0.0116387 -0.0302566 0.236664
  endloop
 endfacet
 facet normal 0.719328 -0.65273 0.23772
  outer loop
   vertex 0.0394648 0.00413917 0.246907
   vertex 0.0116387 -0.0302566 0.236664
   vertex 0.0394648 0.000408679 0.236664
  endloop
 endfacet
 facet normal 0.720141 -0.651938 0.237432
  outer loop
   vertex 0.042842 0.00413917 0.236664
   vertex 0.0394648 0.00413917 0.246907
   vertex 0.0394648 0.000408679 0.236664
  endloop
 endfacet
 facet normal -0.767225 0.641245 0.0130582
  outer loop
   vertex -0.0293268 0.013427 0.167872
   vertex -0.0293268 0.0141275 0.133476
   vertex -0.0376749 0.00413917 0.133476
  endloop
 endfacet
 facet normal -0.763783 0.645378 0.0111065
  outer loop
   vertex -0.0376749 0.00413917 0.133476
   vertex -0.0371748 0.00413917 0.167872
   vertex -0.0293268 0.013427 0.167872
  endloop
 endfacet
 facet normal -0.787422 0.616252 0.0141357
  outer loop
   vertex -0.00967678 0.038535 0.167872
   vertex -0.0102943 0.038535 0.133476
   vertex -0.0293268 0.013427 0.167872
  endloop
 endfacet
 facet normal -0.788524 0.614876 0.0125212
  outer loop
   vertex -0.0293268 0.013427 0.167872
   vertex -0.0102943 0.038535 0.133476
   vertex -0.0293268 0.0141275 0.133476
  endloop
 endfacet
 facet normal -0.767039 0.641419 0.015255
  outer loop
   vertex 0.00506905 0.0560891 0.167872
   vertex 0.00506905 0.0569071 0.133476
   vertex -0.0102943 0.038535 0.133476
  endloop
 endfacet
 facet normal -0.765624 0.643141 0.0137443
  outer loop
   vertex -0.0102943 0.038535 0.133476
   vertex -0.00967678 0.038535 0.167872
   vertex 0.00506905 0.0560891 0.167872
  endloop
 endfacet
 facet normal -0.762632 0.644406 0.0559721
  outer loop
   vertex -0.0293268 0.0104395 0.202268
   vertex -0.0293268 0.013427 0.167872
   vertex -0.0371748 0.00413917 0.167872
  endloop
 endfacet
 facet normal -0.761781 0.645445 0.0555877
  outer loop
   vertex -0.0371748 0.00413917 0.167872
   vertex -0.0346649 0.00413917 0.202268
   vertex -0.0293268 0.0104395 0.202268
  endloop
 endfacet
 facet normal -0.786133 0.615243 0.0589073
  outer loop
   vertex -0.0070994 0.038535 0.202268
   vertex -0.00967678 0.038535 0.167872
   vertex -0.0293268 0.013427 0.167872
  endloop
 endfacet
 facet normal -0.783112 0.619548 0.0538129
  outer loop
   vertex -0.0293268 0.013427 0.167872
   vertex -0.0293268 0.0104395 0.202268
   vertex -0.0070994 0.038535 0.202268
  endloop
 endfacet
 facet normal -0.764301 0.642029 0.0603583
  outer loop
   vertex 0.00506905 0.0528555 0.202268
   vertex 0.00506905 0.0560891 0.167872
   vertex -0.00967678 0.038535 0.167872
  endloop
 endfacet
 facet normal -0.760804 0.646473 0.0570093
  outer loop
   vertex -0.00967678 0.038535 0.167872
   vertex -0.0070994 0.038535 0.202268
   vertex 0.00506905 0.0528555 0.202268
  endloop
 endfacet
 facet normal -0.753117 0.638104 0.160119
  outer loop
   vertex -0.0346649 0.00413917 0.202268
   vertex -0.0293268 0.00413917 0.227376
   vertex -0.0293268 0.0104395 0.202268
  endloop
 endfacet
 facet normal -0.760839 0.623361 0.180404
  outer loop
   vertex 0.00105627 0.038535 0.236664
   vertex -0.0070994 0.038535 0.202268
   vertex -0.0293268 0.00413917 0.227376
  endloop
 endfacet
 facet normal -0.76049 0.617653 0.200401
  outer loop
   vertex 0.00105627 0.038535 0.236664
   vertex -0.0293268 0.00413917 0.227376
   vertex -0.0268792 0.00413917 0.236664
  endloop
 endfacet
 facet normal -0.774913 0.613061 0.153835
  outer loop
   vertex -0.0293268 0.00413917 0.227376
   vertex -0.0070994 0.038535 0.202268
   vertex -0.0293268 0.0104395 0.202268
  endloop
 endfacet
 facet normal -0.74973 0.637063 0.179041
  outer loop
   vertex 0.00506905 0.0431888 0.236664
   vertex 0.00506905 0.0528555 0.202268
   vertex -0.0070994 0.038535 0.202268
  endloop
 endfacet
 facet normal -0.745417 0.642739 0.176748
  outer loop
   vertex -0.0070994 0.038535 0.202268
   vertex 0.00105627 0.038535 0.236664
   vertex 0.00506905 0.0431888 0.236664
  endloop
 endfacet
 facet normal -0.532647 0.407557 0.741745
  outer loop
   vertex 0.00464235 0.0284216 0.255327
   vertex 0.00506905 0.038535 0.250076
   vertex -0.0150507 0.0038062 0.25471
  endloop
 endfacet
 facet normal -0.726864 0.485868 0.485387
  outer loop
   vertex -0.0150507 0.0038062 0.25471
   vertex 0.00506905 0.038535 0.250076
   vertex -0.0268792 0.00413917 0.236664
  endloop
 endfacet
 facet normal -0.756114 0.614099 0.226216
  outer loop
   vertex -0.0268792 0.00413917 0.236664
   vertex 0.00506905 0.038535 0.250076
   vertex 0.00105627 0.038535 0.236664
  endloop
 endfacet
 facet normal -0.738618 0.636876 0.220982
  outer loop
   vertex 0.00105627 0.038535 0.236664
   vertex 0.00506905 0.038535 0.250076
   vertex 0.00506905 0.0431888 0.236664
  endloop
 endfacet
 facet normal 0.752494 -0.658218 -0.0224152
  outer loop
   vertex 0.0512953 0.00412349 0.167784
   vertex 0.0502871 0.00413917 0.133476
   vertex 0.0721936 0.0280225 0.167565
  endloop
 endfacet
 facet normal 0.749994 -0.66118 -0.0187331
  outer loop
   vertex 0.0721936 0.0280225 0.167565
   vertex 0.0502871 0.00413917 0.133476
   vertex 0.0738606 0.0308793 0.133476
  endloop
 endfacet
 facet normal -0.793732 0.607743 0.0252614
  outer loop
   vertex 0.0176942 0.0719737 0.167694
   vertex 0.017338 0.0729308 0.133476
   vertex 0.00506905 0.0569071 0.133476
  endloop
 endfacet
 facet normal -0.782683 0.622245 0.014799
  outer loop
   vertex 0.00506905 0.0569071 0.133476
   vertex 0.00506905 0.0560891 0.167872
   vertex 0.0176942 0.0719737 0.167694
  endloop
 endfacet
 facet normal 0.735554 -0.677316 0.0142217
  outer loop
   vertex 0.050643 0.00413917 0.202268
   vertex 0.0512953 0.00412349 0.167784
   vertex 0.0732049 0.0286319 0.201834
  endloop
 endfacet
 facet normal 0.752696 -0.658285 -0.0105073
  outer loop
   vertex 0.0732049 0.0286319 0.201834
   vertex 0.0512953 0.00412349 0.167784
   vertex 0.0721936 0.0280225 0.167565
  endloop
 endfacet
 facet normal -0.781473 0.621709 0.0527055
  outer loop
   vertex 0.0207874 0.0729308 0.202268
   vertex 0.0176942 0.0719737 0.167694
   vertex 0.00506905 0.0560891 0.167872
  endloop
 endfacet
 facet normal -0.786048 0.615452 0.0578598
  outer loop
   vertex 0.00506905 0.0560891 0.167872
   vertex 0.00506905 0.0528555 0.202268
   vertex 0.0207874 0.0729308 0.202268
  endloop
 endfacet
 facet normal 0.753183 -0.657557 -0.0182736
  outer loop
   vertex 0.0721936 0.0280225 0.167565
   vertex 0.0738606 0.0308793 0.133476
   vertex 0.0807112 0.0377778 0.167599
  endloop
 endfacet
 facet normal 0.765444 -0.643067 -0.0236646
  outer loop
   vertex 0.0807112 0.0377778 0.167599
   vertex 0.0738606 0.0308793 0.133476
   vertex 0.0802924 0.038535 0.133476
  endloop
 endfacet
 facet normal 0.850759 -0.525091 -0.022094
  outer loop
   vertex 0.0807112 0.0377778 0.167599
   vertex 0.0802924 0.038535 0.133476
   vertex 0.101522 0.0729308 0.133476
  endloop
 endfacet
 facet normal 0.837676 -0.543922 -0.0494721
  outer loop
   vertex 0.101522 0.0729308 0.133476
   vertex 0.103553 0.0729308 0.167872
   vertex 0.0807112 0.0377778 0.167599
  endloop
 endfacet
 facet normal 0.753253 -0.657646 -0.0105351
  outer loop
   vertex 0.0732049 0.0286319 0.201834
   vertex 0.0721936 0.0280225 0.167565
   vertex 0.0807112 0.0377778 0.167599
  endloop
 endfacet
 facet normal 0.749565 -0.661814 -0.0124571
  outer loop
   vertex 0.0807112 0.0377778 0.167599
   vertex 0.0815899 0.0381303 0.201743
   vertex 0.0732049 0.0286319 0.201834
  endloop
 endfacet
 facet normal 0.838477 -0.544703 -0.0159544
  outer loop
   vertex 0.0815899 0.0381303 0.201743
   vertex 0.0807112 0.0377778 0.167599
   vertex 0.103553 0.0729308 0.167872
  endloop
 endfacet
 facet normal 0.841706 -0.539862 -0.0088876
  outer loop
   vertex 0.103553 0.0729308 0.167872
   vertex 0.103916 0.0729308 0.202268
   vertex 0.0815899 0.0381303 0.201743
  endloop
 endfacet
 facet normal -0.754605 0.655632 0.0267801
  outer loop
   vertex 0.0390809 0.0965566 0.167736
   vertex 0.0393802 0.0982985 0.133524
   vertex 0.017338 0.0729308 0.133476
  endloop
 endfacet
 facet normal -0.754212 0.656108 0.0262028
  outer loop
   vertex 0.017338 0.0729308 0.133476
   vertex 0.0176942 0.0719737 0.167694
   vertex 0.0390809 0.0965566 0.167736
  endloop
 endfacet
 facet normal -0.684276 0.728962 0.0195091
  outer loop
   vertex 0.0499771 0.107327 0.167872
   vertex 0.0489965 0.107327 0.133476
   vertex 0.0393802 0.0982985 0.133524
  endloop
 endfacet
 facet normal -0.702847 0.710706 0.0300371
  outer loop
   vertex 0.0393802 0.0982985 0.133524
   vertex 0.0390809 0.0965566 0.167736
   vertex 0.0499771 0.107327 0.167872
  endloop
 endfacet
 facet normal -0.609968 0.79242 0.00312165
  outer loop
   vertex 0.0705838 0.123191 0.167268
   vertex 0.0717954 0.124254 0.134083
   vertex 0.0499771 0.107327 0.167872
  endloop
 endfacet
 facet normal -0.596336 0.802555 0.0170019
  outer loop
   vertex 0.0499771 0.107327 0.167872
   vertex 0.0717954 0.124254 0.134083
   vertex 0.0489965 0.107327 0.133476
  endloop
 endfacet
 facet normal -0.753048 0.655032 0.0620647
  outer loop
   vertex 0.0394648 0.0937261 0.202268
   vertex 0.0390809 0.0965566 0.167736
   vertex 0.0176942 0.0719737 0.167694
  endloop
 endfacet
 facet normal -0.743118 0.667436 0.0480083
  outer loop
   vertex 0.0176942 0.0719737 0.167694
   vertex 0.0207874 0.0729308 0.202268
   vertex 0.0394648 0.0937261 0.202268
  endloop
 endfacet
 facet normal -0.66798 0.738954 0.088038
  outer loop
   vertex 0.0545104 0.107327 0.202268
   vertex 0.0499771 0.107327 0.167872
   vertex 0.0394648 0.0937261 0.202268
  endloop
 endfacet
 facet normal -0.701861 0.709256 0.0659402
  outer loop
   vertex 0.0394648 0.0937261 0.202268
   vertex 0.0499771 0.107327 0.167872
   vertex 0.0390809 0.0965566 0.167736
  endloop
 endfacet
 facet normal -0.606495 0.790895 0.0815392
  outer loop
   vertex 0.0730229 0.12151 0.201713
   vertex 0.0705838 0.123191 0.167268
   vertex 0.0499771 0.107327 0.167872
  endloop
 endfacet
 facet normal -0.60474 0.792425 0.0797032
  outer loop
   vertex 0.0499771 0.107327 0.167872
   vertex 0.0545104 0.107327 0.202268
   vertex 0.0730229 0.12151 0.201713
  endloop
 endfacet
 facet normal 0.997593 0.0365555 -0.0589166
  outer loop
   vertex 0.103553 0.0729308 0.167872
   vertex 0.101522 0.0729308 0.133476
   vertex 0.100353 0.105431 0.133856
  endloop
 endfacet
 facet normal 0.997448 0.0629558 -0.0336794
  outer loop
   vertex 0.100353 0.105431 0.133856
   vertex 0.101587 0.10385 0.167435
   vertex 0.103553 0.0729308 0.167872
  endloop
 endfacet
 facet normal 0.529096 0.848314 0.0204885
  outer loop
   vertex 0.101587 0.10385 0.167435
   vertex 0.100353 0.105431 0.133856
   vertex 0.0705838 0.123191 0.167268
  endloop
 endfacet
 facet normal 0.55 0.833852 0.0468002
  outer loop
   vertex 0.0705838 0.123191 0.167268
   vertex 0.100353 0.105431 0.133856
   vertex 0.0717954 0.124254 0.134083
  endloop
 endfacet
 facet normal 0.997938 0.063314 -0.0105372
  outer loop
   vertex 0.103916 0.0729308 0.202268
   vertex 0.103553 0.0729308 0.167872
   vertex 0.101587 0.10385 0.167435
  endloop
 endfacet
 facet normal 0.995364 0.0945952 0.017402
  outer loop
   vertex 0.101587 0.10385 0.167435
   vertex 0.101027 0.103634 0.200601
   vertex 0.103916 0.0729308 0.202268
  endloop
 endfacet
 facet normal 0.538413 0.842555 0.0145792
  outer loop
   vertex 0.101027 0.103634 0.200601
   vertex 0.101587 0.10385 0.167435
   vertex 0.0730229 0.12151 0.201713
  endloop
 endfacet
 facet normal 0.529268 0.848446 0.00392361
  outer loop
   vertex 0.0730229 0.12151 0.201713
   vertex 0.101587 0.10385 0.167435
   vertex 0.0705838 0.123191 0.167268
  endloop
 endfacet
 facet normal 0.726894 -0.666668 0.164861
  outer loop
   vertex 0.042842 0.00413917 0.236664
   vertex 0.050643 0.00413917 0.202268
   vertex 0.0732049 0.0286319 0.201834
  endloop
 endfacet
 facet normal 0.719887 -0.677426 0.151186
  outer loop
   vertex 0.0732049 0.0286319 0.201834
   vertex 0.0738606 0.037102 0.236664
   vertex 0.042842 0.00413917 0.236664
  endloop
 endfacet
 facet normal -0.768488 0.601703 0.217668
  outer loop
   vertex 0.0305298 0.0729308 0.236664
   vertex 0.0207874 0.0729308 0.202268
   vertex 0.00506905 0.0528555 0.202268
  endloop
 endfacet
 facet normal -0.747287 0.639718 0.179788
  outer loop
   vertex 0.00506905 0.0528555 0.202268
   vertex 0.00506905 0.0431888 0.236664
   vertex 0.0305298 0.0729308 0.236664
  endloop
 endfacet
 facet normal 0.418649 0.0845249 0.904206
  outer loop
   vertex 0.0286539 0.00374997 0.251949
   vertex 0.0394648 0.00413917 0.246907
   vertex 0.0203586 0.0195951 0.254308
  endloop
 endfacet
 facet normal -0.66681 -0.69277 -0.274652
  outer loop
   vertex 0.0394648 0.00413917 0.246907
   vertex 0.0332226 0.00824639 0.251702
   vertex 0.0203586 0.0195951 0.254308
  endloop
 endfacet
 facet normal 0.441956 0.307444 0.842706
  outer loop
   vertex 0.0332226 0.00824639 0.251702
   vertex 0.00841833 0.0336092 0.255458
   vertex 0.0203586 0.0195951 0.254308
  endloop
 endfacet
 facet normal -0.760929 -0.639186 -0.111482
  outer loop
   vertex 0.00841833 0.0336092 0.255458
   vertex 0.00506905 0.038535 0.250076
   vertex 0.0203586 0.0195951 0.254308
  endloop
 endfacet
 facet normal 0.296801 0.430109 0.852593
  outer loop
   vertex 0.00506905 0.038535 0.250076
   vertex 0.00464235 0.0284216 0.255327
   vertex 0.0203586 0.0195951 0.254308
  endloop
 endfacet
 facet normal -0.0263198 -0.160702 0.986652
  outer loop
   vertex 0.00464235 0.0284216 0.255327
   vertex 0.0286539 0.00374997 0.251949
   vertex 0.0203586 0.0195951 0.254308
  endloop
 endfacet
 facet normal 0.416572 -0.34762 0.840017
  outer loop
   vertex 0.0332226 0.00824639 0.251702
   vertex 0.0394648 0.00413917 0.246907
   vertex 0.0552829 0.032084 0.250627
  endloop
 endfacet
 facet normal 0.546763 -0.406904 0.731764
  outer loop
   vertex 0.0552829 0.032084 0.250627
   vertex 0.0394648 0.00413917 0.246907
   vertex 0.0738606 0.038535 0.240333
  endloop
 endfacet
 facet normal 0.70948 -0.664772 0.233917
  outer loop
   vertex 0.0738606 0.038535 0.240333
   vertex 0.0394648 0.00413917 0.246907
   vertex 0.042842 0.00413917 0.236664
  endloop
 endfacet
 facet normal 0.703498 -0.662004 0.258536
  outer loop
   vertex 0.0738606 0.038535 0.240333
   vertex 0.042842 0.00413917 0.236664
   vertex 0.0738606 0.037102 0.236664
  endloop
 endfacet
 facet normal -0.00963572 -0.0108452 0.999895
  outer loop
   vertex 0.0346138 0.0618458 0.256016
   vertex 0.0372103 0.0686584 0.256115
   vertex 0.00841833 0.0336092 0.255458
  endloop
 endfacet
 facet normal -0.53766 0.428042 0.726431
  outer loop
   vertex 0.00841833 0.0336092 0.255458
   vertex 0.0372103 0.0686584 0.256115
   vertex 0.00506905 0.038535 0.250076
  endloop
 endfacet
 facet normal -0.671113 0.641607 0.371412
  outer loop
   vertex 0.00506905 0.038535 0.250076
   vertex 0.0372103 0.0686584 0.256115
   vertex 0.0305298 0.0729308 0.236664
  endloop
 endfacet
 facet normal -0.741034 0.634365 0.220111
  outer loop
   vertex 0.00506905 0.038535 0.250076
   vertex 0.0305298 0.0729308 0.236664
   vertex 0.00506905 0.0431888 0.236664
  endloop
 endfacet
 facet normal 0.499473 -0.0592234 0.864303
  outer loop
   vertex 0.0552829 0.032084 0.250627
   vertex 0.0738606 0.038535 0.240333
   vertex 0.0509462 0.0519476 0.254494
  endloop
 endfacet
 facet normal -0.624651 -0.310803 -0.716388
  outer loop
   vertex 0.0738606 0.038535 0.240333
   vertex 0.0612513 0.040096 0.25065
   vertex 0.0509462 0.0519476 0.254494
  endloop
 endfacet
 facet normal 0.409908 0.583735 -0.700877
  outer loop
   vertex 0.0612513 0.040096 0.25065
   vertex 0.0367778 0.0637525 0.25604
   vertex 0.0509462 0.0519476 0.254494
  endloop
 endfacet
 facet normal -0.0892686 0.0232218 -0.995737
  outer loop
   vertex 0.0367778 0.0637525 0.25604
   vertex 0.0372103 0.0686584 0.256115
   vertex 0.0509462 0.0519476 0.254494
  endloop
 endfacet
 facet normal 0.0683504 -0.040523 0.996838
  outer loop
   vertex 0.0372103 0.0686584 0.256115
   vertex 0.0346138 0.0618458 0.256016
   vertex 0.0509462 0.0519476 0.254494
  endloop
 endfacet
 facet normal -0.0279969 -0.196913 0.980021
  outer loop
   vertex 0.0346138 0.0618458 0.256016
   vertex 0.0552829 0.032084 0.250627
   vertex 0.0509462 0.0519476 0.254494
  endloop
 endfacet
 facet normal 0.742434 -0.654023 0.145071
  outer loop
   vertex 0.0738606 0.037102 0.236664
   vertex 0.0732049 0.0286319 0.201834
   vertex 0.0815899 0.0381303 0.201743
  endloop
 endfacet
 facet normal 0.738966 -0.658134 0.144182
  outer loop
   vertex 0.0815899 0.0381303 0.201743
   vertex 0.0751369 0.038535 0.236664
   vertex 0.0738606 0.037102 0.236664
  endloop
 endfacet
 facet normal 0.82765 -0.538197 0.15918
  outer loop
   vertex 0.0751369 0.038535 0.236664
   vertex 0.0815899 0.0381303 0.201743
   vertex 0.0975035 0.0729308 0.236664
  endloop
 endfacet
 facet normal 0.830467 -0.535119 0.15483
  outer loop
   vertex 0.0975035 0.0729308 0.236664
   vertex 0.0815899 0.0381303 0.201743
   vertex 0.103916 0.0729308 0.202268
  endloop
 endfacet
 facet normal 0.722786 -0.643723 0.251397
  outer loop
   vertex 0.0751369 0.038535 0.236664
   vertex 0.0738606 0.038535 0.240333
   vertex 0.0738606 0.037102 0.236664
  endloop
 endfacet
 facet normal 0.576994 -0.316281 0.753024
  outer loop
   vertex 0.0612513 0.040096 0.25065
   vertex 0.0738606 0.038535 0.240333
   vertex 0.0975035 0.0729308 0.236664
  endloop
 endfacet
 facet normal 0.600741 -0.358992 0.714308
  outer loop
   vertex 0.0612513 0.040096 0.25065
   vertex 0.0975035 0.0729308 0.236664
   vertex 0.0726668 0.061018 0.251565
  endloop
 endfacet
 facet normal 0.804823 -0.523353 0.279931
  outer loop
   vertex 0.0975035 0.0729308 0.236664
   vertex 0.0738606 0.038535 0.240333
   vertex 0.0751369 0.038535 0.236664
  endloop
 endfacet
 facet normal -0.726238 0.652275 0.21706
  outer loop
   vertex 0.0394648 0.08228 0.236664
   vertex 0.0394648 0.0937261 0.202268
   vertex 0.0207874 0.0729308 0.202268
  endloop
 endfacet
 facet normal -0.708244 0.676867 0.200605
  outer loop
   vertex 0.0207874 0.0729308 0.202268
   vertex 0.0305298 0.0729308 0.236664
   vertex 0.0394648 0.08228 0.236664
  endloop
 endfacet
 facet normal -0.559444 0.774718 0.294677
  outer loop
   vertex 0.0738606 0.107118 0.236664
   vertex 0.0738606 0.107327 0.236116
   vertex 0.0394648 0.08228 0.236664
  endloop
 endfacet
 facet normal -0.554938 0.769024 0.317249
  outer loop
   vertex 0.0394648 0.08228 0.236664
   vertex 0.0738606 0.107327 0.236116
   vertex 0.0545104 0.107327 0.202268
  endloop
 endfacet
 facet normal -0.651039 0.720213 0.239668
  outer loop
   vertex 0.0394648 0.08228 0.236664
   vertex 0.0545104 0.107327 0.202268
   vertex 0.0394648 0.0937261 0.202268
  endloop
 endfacet
 facet normal -0.568948 0.755318 0.325258
  outer loop
   vertex 0.0545104 0.107327 0.202268
   vertex 0.0738606 0.107327 0.236116
   vertex 0.0730229 0.12151 0.201713
  endloop
 endfacet
 facet normal -0.671223 0.641486 0.371423
  outer loop
   vertex 0.0305298 0.0729308 0.236664
   vertex 0.0372103 0.0686584 0.256115
   vertex 0.0394648 0.08228 0.236664
  endloop
 endfacet
 facet normal -0.469577 0.650271 0.597198
  outer loop
   vertex 0.0645029 0.0826823 0.255913
   vertex 0.0738606 0.107118 0.236664
   vertex 0.0394648 0.08228 0.236664
  endloop
 endfacet
 facet normal -0.393894 0.773729 0.496176
  outer loop
   vertex 0.0645029 0.0826823 0.255913
   vertex 0.0394648 0.08228 0.236664
   vertex 0.0372103 0.0686584 0.256115
  endloop
 endfacet
 facet normal 0.0160462 -0.0168283 0.99973
  outer loop
   vertex 0.0645029 0.0826823 0.255913
   vertex 0.0372103 0.0686584 0.256115
   vertex 0.0367778 0.0637525 0.25604
  endloop
 endfacet
 facet normal 0.977942 0.101913 0.182325
  outer loop
   vertex 0.0975035 0.0729308 0.236664
   vertex 0.103916 0.0729308 0.202268
   vertex 0.101027 0.103634 0.200601
  endloop
 endfacet
 facet normal 0.713001 0.497963 0.493621
  outer loop
   vertex 0.0975035 0.0729308 0.236664
   vertex 0.101027 0.103634 0.200601
   vertex 0.0738606 0.107327 0.236116
  endloop
 endfacet
 facet normal 0.803879 0.555935 0.211459
  outer loop
   vertex 0.0975035 0.0729308 0.236664
   vertex 0.0738606 0.107327 0.236116
   vertex 0.0738606 0.107118 0.236664
  endloop
 endfacet
 facet normal 0.519551 0.794322 0.314832
  outer loop
   vertex 0.0730229 0.12151 0.201713
   vertex 0.0738606 0.107327 0.236116
   vertex 0.101027 0.103634 0.200601
  endloop
 endfacet
 facet normal 0.507841 0.0184965 0.861252
  outer loop
   vertex 0.0726668 0.061018 0.251565
   vertex 0.0975035 0.0729308 0.236664
   vertex 0.0645029 0.0826823 0.255913
  endloop
 endfacet
 facet normal 0.547272 0.378474 0.746492
  outer loop
   vertex 0.0645029 0.0826823 0.255913
   vertex 0.0975035 0.0729308 0.236664
   vertex 0.0738606 0.107118 0.236664
  endloop
 endfacet
endsolid
