solid ascii
 facet normal -0.707595 -0.617239 -0.343985
  outer loop
   vertex -0.0192359 -0.0330808 0.0160885
   vertex -0.0168109 -0.030485 0.00644244
   vertex -0.0120788 -0.0359347 0.006487
  endloop
 endfacet
 facet normal -0.711175 -0.610459 -0.348669
  outer loop
   vertex -0.0120788 -0.0359347 0.006487
   vertex -0.0136902 -0.0395415 0.0160885
   vertex -0.0192359 -0.0330808 0.0160885
  endloop
 endfacet
 facet normal -0.318284 -0.868629 -0.37971
  outer loop
   vertex -0.0136902 -0.0395415 0.0160885
   vertex -0.0120788 -0.0359347 0.006487
   vertex 0.00373405 -0.0415005 0.00596441
  endloop
 endfacet
 facet normal -0.190075 -0.971869 -0.139077
  outer loop
   vertex 0.00373405 -0.0415005 0.00596441
   vertex 0.00364545 -0.0433157 0.0187705
   vertex -0.0136902 -0.0395415 0.0160885
  endloop
 endfacet
 facet normal -0.761533 -0.648107 0.00491073
  outer loop
   vertex -0.0191246 -0.0330808 0.0333479
   vertex -0.0192359 -0.0330808 0.0160885
   vertex -0.0136902 -0.0394663 0.0333479
  endloop
 endfacet
 facet normal -0.758789 -0.65133 0.00283642
  outer loop
   vertex -0.0136902 -0.0394663 0.0333479
   vertex -0.0192359 -0.0330808 0.0160885
   vertex -0.0136902 -0.0395415 0.0160885
  endloop
 endfacet
 facet normal -0.213012 -0.97704 0.00425483
  outer loop
   vertex -0.0136902 -0.0394663 0.0333479
   vertex -0.0136902 -0.0395415 0.0160885
   vertex 0.00363747 -0.043236 0.0351958
  endloop
 endfacet
 facet normal -0.213415 -0.976951 0.00463762
  outer loop
   vertex 0.00363747 -0.043236 0.0351958
   vertex -0.0136902 -0.0395415 0.0160885
   vertex 0.00364545 -0.0433157 0.0187705
  endloop
 endfacet
 facet normal -0.960149 -0.168603 -0.222904
  outer loop
   vertex -0.0226276 -0.0155643 0.0174488
   vertex -0.0205547 -0.0144609 0.00768527
   vertex -0.0192359 -0.0330808 0.0160885
  endloop
 endfacet
 facet normal -0.937094 -0.196563 -0.288476
  outer loop
   vertex -0.0192359 -0.0330808 0.0160885
   vertex -0.0205547 -0.0144609 0.00768527
   vertex -0.0168109 -0.030485 0.00644244
  endloop
 endfacet
 facet normal -0.964172 0.0281999 -0.263777
  outer loop
   vertex -0.0217582 0.00143798 0.0160885
   vertex -0.0194824 0.00113783 0.00773785
   vertex -0.0226276 -0.0155643 0.0174488
  endloop
 endfacet
 facet normal -0.977472 0.0678685 -0.199857
  outer loop
   vertex -0.0226276 -0.0155643 0.0174488
   vertex -0.0194824 0.00113783 0.00773785
   vertex -0.0205547 -0.0144609 0.00768527
  endloop
 endfacet
 facet normal -0.981124 -0.191855 0.0242247
  outer loop
   vertex -0.0222088 -0.0155684 0.0343776
   vertex -0.0226276 -0.0155643 0.0174488
   vertex -0.0192359 -0.0330808 0.0160885
  endloop
 endfacet
 facet normal -0.98476 -0.173805 0.0063502
  outer loop
   vertex -0.0192359 -0.0330808 0.0160885
   vertex -0.0191246 -0.0330808 0.0333479
   vertex -0.0222088 -0.0155684 0.0343776
  endloop
 endfacet
 facet normal -0.998306 0.0529742 0.0240695
  outer loop
   vertex -0.0213421 0.00143798 0.0333479
   vertex -0.0217582 0.00143798 0.0160885
   vertex -0.0226276 -0.0155643 0.0174488
  endloop
 endfacet
 facet normal -0.998322 0.0523762 0.0247103
  outer loop
   vertex -0.0226276 -0.0155643 0.0174488
   vertex -0.0222088 -0.0155684 0.0343776
   vertex -0.0213421 0.00143798 0.0333479
  endloop
 endfacet
 facet normal -0.761358 -0.647231 0.0377677
  outer loop
   vertex -0.0182684 -0.0330808 0.0506073
   vertex -0.0191246 -0.0330808 0.0333479
   vertex -0.0136902 -0.0384663 0.0506073
  endloop
 endfacet
 facet normal -0.761006 -0.647659 0.0375235
  outer loop
   vertex -0.0136902 -0.0384663 0.0506073
   vertex -0.0191246 -0.0330808 0.0333479
   vertex -0.0136902 -0.0394663 0.0333479
  endloop
 endfacet
 facet normal -0.263634 -0.963008 0.055794
  outer loop
   vertex -0.0136902 -0.0384663 0.0506073
   vertex -0.0136902 -0.0394663 0.0333479
   vertex 0.00361223 -0.0431558 0.0514232
  endloop
 endfacet
 facet normal -0.213036 -0.977034 0.0044971
  outer loop
   vertex 0.00361223 -0.0431558 0.0514232
   vertex -0.0136902 -0.0394663 0.0333479
   vertex 0.00363747 -0.043236 0.0351958
  endloop
 endfacet
 facet normal -0.76156 -0.647403 0.0299252
  outer loop
   vertex -0.0175902 -0.0330808 0.0678667
   vertex -0.0182684 -0.0330808 0.0506073
   vertex -0.0136902 -0.0384663 0.0506073
  endloop
 endfacet
 facet normal -0.759513 -0.649747 0.0311192
  outer loop
   vertex -0.0136902 -0.0384663 0.0506073
   vertex -0.0136902 -0.0376397 0.0678667
   vertex -0.0175902 -0.0330808 0.0678667
  endloop
 endfacet
 facet normal -0.300198 -0.952785 0.045633
  outer loop
   vertex -0.0136902 -0.0376397 0.0678667
   vertex -0.0136902 -0.0384663 0.0506073
   vertex 0.00358881 -0.0430737 0.0680795
  endloop
 endfacet
 facet normal -0.261781 -0.965117 0.00438931
  outer loop
   vertex 0.00358881 -0.0430737 0.0680795
   vertex -0.0136902 -0.0384663 0.0506073
   vertex 0.00361223 -0.0431558 0.0514232
  endloop
 endfacet
 facet normal -0.984134 -0.17503 0.0290606
  outer loop
   vertex -0.0217077 -0.0155741 0.0513124
   vertex -0.0222088 -0.0155684 0.0343776
   vertex -0.0191246 -0.0330808 0.0333479
  endloop
 endfacet
 facet normal -0.979712 -0.194427 0.0485993
  outer loop
   vertex -0.0191246 -0.0330808 0.0333479
   vertex -0.0182684 -0.0330808 0.0506073
   vertex -0.0217077 -0.0155741 0.0513124
  endloop
 endfacet
 facet normal -0.998988 0.0410014 0.0184937
  outer loop
   vertex -0.0210222 0.00143638 0.0506281
   vertex -0.0213421 0.00143798 0.0333479
   vertex -0.0217077 -0.0155741 0.0513124
  endloop
 endfacet
 facet normal -0.998175 0.0526619 0.0295525
  outer loop
   vertex -0.0217077 -0.0155741 0.0513124
   vertex -0.0213421 0.00143798 0.0333479
   vertex -0.0222088 -0.0155684 0.0343776
  endloop
 endfacet
 facet normal -0.98054 -0.193877 0.0308872
  outer loop
   vertex -0.0211875 -0.0154787 0.068426
   vertex -0.0217077 -0.0155741 0.0513124
   vertex -0.0182684 -0.0330808 0.0506073
  endloop
 endfacet
 facet normal -0.978784 -0.201252 0.0384609
  outer loop
   vertex -0.0182684 -0.0330808 0.0506073
   vertex -0.0175902 -0.0330808 0.0678667
   vertex -0.0211875 -0.0154787 0.068426
  endloop
 endfacet
 facet normal -0.999044 0.0359434 0.0248825
  outer loop
   vertex -0.0205884 0.00140812 0.0680889
   vertex -0.0210222 0.00143638 0.0506281
   vertex -0.0211875 -0.0154787 0.068426
  endloop
 endfacet
 facet normal -0.998686 0.0414572 0.0301261
  outer loop
   vertex -0.0211875 -0.0154787 0.068426
   vertex -0.0210222 0.00143638 0.0506281
   vertex -0.0217077 -0.0155741 0.0513124
  endloop
 endfacet
 facet normal 0.436176 -0.891369 -0.123333
  outer loop
   vertex 0.00364545 -0.0433157 0.0187705
   vertex 0.00373405 -0.0415005 0.00596441
   vertex 0.0208286 -0.0345363 0.0160885
  endloop
 endfacet
 facet normal 0.499126 -0.820628 -0.278285
  outer loop
   vertex 0.0208286 -0.0345363 0.0160885
   vertex 0.00373405 -0.0415005 0.00596441
   vertex 0.0197524 -0.0315604 0.00538251
  endloop
 endfacet
 facet normal 0.830464 -0.509558 -0.225123
  outer loop
   vertex 0.0208286 -0.0345363 0.0160885
   vertex 0.0197524 -0.0315604 0.00538251
   vertex 0.0201937 -0.0308442 0.00538918
  endloop
 endfacet
 facet normal 0.822998 -0.520134 -0.228329
  outer loop
   vertex 0.0201937 -0.0308442 0.00538918
   vertex 0.0217485 -0.0330808 0.0160885
   vertex 0.0208286 -0.0345363 0.0160885
  endloop
 endfacet
 facet normal 0.439395 -0.898282 0.00457275
  outer loop
   vertex 0.00363747 -0.043236 0.0351958
   vertex 0.00364545 -0.0433157 0.0187705
   vertex 0.0208286 -0.0348364 0.0333479
  endloop
 endfacet
 facet normal 0.453009 -0.891371 -0.0154947
  outer loop
   vertex 0.0208286 -0.0348364 0.0333479
   vertex 0.00364545 -0.0433157 0.0187705
   vertex 0.0208286 -0.0345363 0.0160885
  endloop
 endfacet
 facet normal 0.833776 -0.552019 -0.00959574
  outer loop
   vertex 0.0208286 -0.0348364 0.0333479
   vertex 0.0208286 -0.0345363 0.0160885
   vertex 0.0219909 -0.0330808 0.0333479
  endloop
 endfacet
 facet normal 0.845269 -0.534209 -0.0118716
  outer loop
   vertex 0.0219909 -0.0330808 0.0333479
   vertex 0.0208286 -0.0345363 0.0160885
   vertex 0.0217485 -0.0330808 0.0160885
  endloop
 endfacet
 facet normal 0.943817 -0.26811 -0.193202
  outer loop
   vertex 0.0217485 -0.0330808 0.0160885
   vertex 0.0201937 -0.0308442 0.00538918
   vertex 0.0248125 -0.0147734 0.00565104
  endloop
 endfacet
 facet normal 0.946761 -0.263724 -0.184644
  outer loop
   vertex 0.0248125 -0.0147734 0.00565104
   vertex 0.0265562 -0.0158214 0.0160885
   vertex 0.0217485 -0.0330808 0.0160885
  endloop
 endfacet
 facet normal 0.984256 -0.0502049 -0.169468
  outer loop
   vertex 0.0265562 -0.0158214 0.0160885
   vertex 0.0248125 -0.0147734 0.00565104
   vertex 0.0257227 0.00118937 0.00620825
  endloop
 endfacet
 facet normal 0.983936 -0.0511333 -0.171039
  outer loop
   vertex 0.0257227 0.00118937 0.00620825
   vertex 0.0274531 0.00143798 0.0160885
   vertex 0.0265562 -0.0158214 0.0160885
  endloop
 endfacet
 facet normal 0.963237 -0.268313 -0.0135285
  outer loop
   vertex 0.0219909 -0.0330808 0.0333479
   vertex 0.0217485 -0.0330808 0.0160885
   vertex 0.0265562 -0.0158214 0.0160885
  endloop
 endfacet
 facet normal 0.96264 -0.27033 -0.015703
  outer loop
   vertex 0.0265562 -0.0158214 0.0160885
   vertex 0.0268377 -0.0158214 0.0333479
   vertex 0.0219909 -0.0330808 0.0333479
  endloop
 endfacet
 facet normal 0.99852 -0.0518912 -0.0162883
  outer loop
   vertex 0.0268377 -0.0158214 0.0333479
   vertex 0.0265562 -0.0158214 0.0160885
   vertex 0.0274531 0.00143798 0.0160885
  endloop
 endfacet
 facet normal 0.998934 -0.0451632 -0.00954554
  outer loop
   vertex 0.0274531 0.00143798 0.0160885
   vertex 0.027618 0.00143798 0.0333479
   vertex 0.0268377 -0.0158214 0.0333479
  endloop
 endfacet
 facet normal 0.439442 -0.898257 0.00512256
  outer loop
   vertex 0.00361223 -0.0431558 0.0514232
   vertex 0.00363747 -0.043236 0.0351958
   vertex 0.0208286 -0.0348364 0.0333479
  endloop
 endfacet
 facet normal 0.463633 -0.885371 0.034095
  outer loop
   vertex 0.0208286 -0.0348364 0.0333479
   vertex 0.0208286 -0.0341717 0.0506073
   vertex 0.00361223 -0.0431558 0.0514232
  endloop
 endfacet
 facet normal 0.833627 -0.551919 0.021254
  outer loop
   vertex 0.0208286 -0.0341717 0.0506073
   vertex 0.0208286 -0.0348364 0.0333479
   vertex 0.0219909 -0.0330808 0.0333479
  endloop
 endfacet
 facet normal 0.823179 -0.567444 0.0195692
  outer loop
   vertex 0.0219909 -0.0330808 0.0333479
   vertex 0.0215806 -0.0330808 0.0506073
   vertex 0.0208286 -0.0341717 0.0506073
  endloop
 endfacet
 facet normal 0.462813 -0.886441 0.00502045
  outer loop
   vertex 0.00358881 -0.0430737 0.0680795
   vertex 0.00361223 -0.0431558 0.0514232
   vertex 0.0208286 -0.0341717 0.0506073
  endloop
 endfacet
 facet normal 0.47433 -0.880129 0.0196
  outer loop
   vertex 0.0208286 -0.0341717 0.0506073
   vertex 0.0208286 -0.0337874 0.0678667
   vertex 0.00358881 -0.0430737 0.0680795
  endloop
 endfacet
 facet normal 0.823271 -0.567507 0.0126381
  outer loop
   vertex 0.0208286 -0.0337874 0.0678667
   vertex 0.0208286 -0.0341717 0.0506073
   vertex 0.0215806 -0.0330808 0.0506073
  endloop
 endfacet
 facet normal 0.813647 -0.581242 0.0116565
  outer loop
   vertex 0.0215806 -0.0330808 0.0506073
   vertex 0.0213333 -0.0330808 0.0678667
   vertex 0.0208286 -0.0337874 0.0678667
  endloop
 endfacet
 facet normal 0.956007 -0.292464 0.0227269
  outer loop
   vertex 0.0215806 -0.0330808 0.0506073
   vertex 0.0219909 -0.0330808 0.0333479
   vertex 0.0268606 -0.0158214 0.0506073
  endloop
 endfacet
 facet normal 0.962758 -0.270363 -0.00127882
  outer loop
   vertex 0.0268606 -0.0158214 0.0506073
   vertex 0.0219909 -0.0330808 0.0333479
   vertex 0.0268377 -0.0158214 0.0333479
  endloop
 endfacet
 facet normal 0.998979 -0.0451652 -0.00132693
  outer loop
   vertex 0.0268606 -0.0158214 0.0506073
   vertex 0.0268377 -0.0158214 0.0333479
   vertex 0.027618 0.00143798 0.0333479
  endloop
 endfacet
 facet normal 0.998571 -0.0526918 -0.00887134
  outer loop
   vertex 0.027618 0.00143798 0.0333479
   vertex 0.0277714 0.00143798 0.0506073
   vertex 0.0268606 -0.0158214 0.0506073
  endloop
 endfacet
 facet normal 0.951688 -0.306763 0.0136341
  outer loop
   vertex 0.0213333 -0.0330808 0.0678667
   vertex 0.0215806 -0.0330808 0.0506073
   vertex 0.0268966 -0.0158214 0.0678667
  endloop
 endfacet
 facet normal 0.956252 -0.292539 -0.00199587
  outer loop
   vertex 0.0268966 -0.0158214 0.0678667
   vertex 0.0215806 -0.0330808 0.0506073
   vertex 0.0268606 -0.0158214 0.0506073
  endloop
 endfacet
 facet normal 0.998609 -0.0526937 -0.00208428
  outer loop
   vertex 0.0268966 -0.0158214 0.0678667
   vertex 0.0268606 -0.0158214 0.0506073
   vertex 0.0277714 0.00143798 0.0506073
  endloop
 endfacet
 facet normal 0.998598 -0.0528846 -0.00227566
  outer loop
   vertex 0.0277714 0.00143798 0.0506073
   vertex 0.0278107 0.00143798 0.0678667
   vertex 0.0268966 -0.0158214 0.0678667
  endloop
 endfacet
 facet normal -0.953272 0.0830077 -0.290486
  outer loop
   vertex -0.0202553 0.0186974 0.0160885
   vertex -0.0178459 0.0167531 0.00762616
   vertex -0.0217582 0.00143798 0.0160885
  endloop
 endfacet
 facet normal -0.959203 0.0986305 -0.264954
  outer loop
   vertex -0.0217582 0.00143798 0.0160885
   vertex -0.0178459 0.0167531 0.00762616
   vertex -0.0194824 0.00113783 0.00773785
  endloop
 endfacet
 facet normal -0.860982 0.323378 -0.392602
  outer loop
   vertex -0.0144919 0.0359568 0.0160885
   vertex -0.0121001 0.0322857 0.00781941
   vertex -0.0178459 0.0167531 0.00762616
  endloop
 endfacet
 facet normal -0.89725 0.299616 -0.324302
  outer loop
   vertex -0.0178459 0.0167531 0.00762616
   vertex -0.0202553 0.0186974 0.0160885
   vertex -0.0144919 0.0359568 0.0160885
  endloop
 endfacet
 facet normal -0.997459 0.0707932 0.00798693
  outer loop
   vertex -0.0201171 0.0186974 0.0333479
   vertex -0.0202553 0.0186974 0.0160885
   vertex -0.0213421 0.00143798 0.0333479
  endloop
 endfacet
 facet normal -0.995943 0.0867234 0.0240125
  outer loop
   vertex -0.0213421 0.00143798 0.0333479
   vertex -0.0202553 0.0186974 0.0160885
   vertex -0.0217582 0.00143798 0.0160885
  endloop
 endfacet
 facet normal -0.948507 0.316732 0.00406076
  outer loop
   vertex -0.0144181 0.0359568 0.0333479
   vertex -0.0144919 0.0359568 0.0160885
   vertex -0.0202553 0.0186974 0.0160885
  endloop
 endfacet
 facet normal -0.949545 0.31354 0.00760327
  outer loop
   vertex -0.0202553 0.0186974 0.0160885
   vertex -0.0201171 0.0186974 0.0333479
   vertex -0.0144181 0.0359568 0.0333479
  endloop
 endfacet
 facet normal -0.710098 0.543428 -0.447713
  outer loop
   vertex -0.0136902 0.0370206 0.0160885
   vertex -0.011798 0.0326819 0.00782117
   vertex -0.0121001 0.0322857 0.00781941
  endloop
 endfacet
 facet normal -0.714807 0.538711 -0.445917
  outer loop
   vertex -0.0121001 0.0322857 0.00781941
   vertex -0.0144919 0.0359568 0.0160885
   vertex -0.0136902 0.0370206 0.0160885
  endloop
 endfacet
 facet normal -0.416382 0.792679 -0.445294
  outer loop
   vertex 0.0035692 0.0460867 0.0160885
   vertex 0.0037722 0.0414335 0.00761547
   vertex -0.0136902 0.0370206 0.0160885
  endloop
 endfacet
 facet normal -0.43078 0.754782 -0.494704
  outer loop
   vertex -0.0136902 0.0370206 0.0160885
   vertex 0.0037722 0.0414335 0.00761547
   vertex -0.011798 0.0326819 0.00782117
  endloop
 endfacet
 facet normal -0.798596 0.601858 0.00348251
  outer loop
   vertex -0.0136902 0.0369207 0.0333479
   vertex -0.0136902 0.0370206 0.0160885
   vertex -0.0144919 0.0359568 0.0160885
  endloop
 endfacet
 facet normal -0.798049 0.602583 0.00341662
  outer loop
   vertex -0.0144919 0.0359568 0.0160885
   vertex -0.0144181 0.0359568 0.0333479
   vertex -0.0136902 0.0369207 0.0333479
  endloop
 endfacet
 facet normal -0.465015 0.885262 0.00854339
  outer loop
   vertex 0.0035692 0.0459201 0.0333479
   vertex 0.0035692 0.0460867 0.0160885
   vertex -0.0136902 0.0370206 0.0160885
  endloop
 endfacet
 facet normal -0.462338 0.886689 0.00513062
  outer loop
   vertex -0.0136902 0.0370206 0.0160885
   vertex -0.0136902 0.0369207 0.0333479
   vertex 0.0035692 0.0459201 0.0333479
  endloop
 endfacet
 facet normal -0.997395 0.0707887 0.0138904
  outer loop
   vertex -0.0198767 0.0186974 0.0506073
   vertex -0.0201171 0.0186974 0.0333479
   vertex -0.0213421 0.00143798 0.0333479
  endloop
 endfacet
 facet normal -0.997634 0.0662284 0.0184709
  outer loop
   vertex -0.0213421 0.00143798 0.0333479
   vertex -0.0210222 0.00143638 0.0506281
   vertex -0.0198767 0.0186974 0.0506073
  endloop
 endfacet
 facet normal -0.9434 0.330134 0.0317616
  outer loop
   vertex -0.013837 0.0359568 0.0506073
   vertex -0.0144181 0.0359568 0.0333479
   vertex -0.0198767 0.0186974 0.0506073
  endloop
 endfacet
 facet normal -0.949489 0.313522 0.0132233
  outer loop
   vertex -0.0198767 0.0186974 0.0506073
   vertex -0.0144181 0.0359568 0.0333479
   vertex -0.0201171 0.0186974 0.0333479
  endloop
 endfacet
 facet normal -0.998947 0.0456627 0.00449599
  outer loop
   vertex -0.0197997 0.0186827 0.0678833
   vertex -0.0198767 0.0186974 0.0506073
   vertex -0.0205884 0.00140812 0.0680889
  endloop
 endfacet
 facet normal -0.997494 0.0662269 0.024893
  outer loop
   vertex -0.0205884 0.00140812 0.0680889
   vertex -0.0198767 0.0186974 0.0506073
   vertex -0.0210222 0.00143638 0.0506281
  endloop
 endfacet
 facet normal -0.941607 0.336642 0.00700313
  outer loop
   vertex -0.0136902 0.0357715 0.0678667
   vertex -0.0136902 0.0359568 0.0589623
   vertex -0.0197997 0.0186827 0.0678833
  endloop
 endfacet
 facet normal -0.942032 0.335494 0.00448834
  outer loop
   vertex -0.0197997 0.0186827 0.0678833
   vertex -0.0136902 0.0359568 0.0589623
   vertex -0.0198767 0.0186974 0.0506073
  endloop
 endfacet
 facet normal -0.943746 0.330255 0.0165796
  outer loop
   vertex -0.0198767 0.0186974 0.0506073
   vertex -0.0136902 0.0359568 0.0589623
   vertex -0.013837 0.0359568 0.0506073
  endloop
 endfacet
 facet normal -0.870621 0.491847 0.0102318
  outer loop
   vertex -0.0135855 0.0359568 0.0678667
   vertex -0.0136902 0.0359568 0.0589623
   vertex -0.0136902 0.0357715 0.0678667
  endloop
 endfacet
 facet normal -0.797764 0.602368 0.0269245
  outer loop
   vertex -0.0136902 0.0361493 0.0506073
   vertex -0.0136902 0.0369207 0.0333479
   vertex -0.0144181 0.0359568 0.0333479
  endloop
 endfacet
 facet normal -0.794922 0.606121 0.0267627
  outer loop
   vertex -0.0144181 0.0359568 0.0333479
   vertex -0.013837 0.0359568 0.0506073
   vertex -0.0136902 0.0361493 0.0506073
  endloop
 endfacet
 facet normal -0.462245 0.886511 0.0206527
  outer loop
   vertex 0.0035692 0.0455181 0.0506073
   vertex 0.0035692 0.0459201 0.0333479
   vertex -0.0136902 0.0369207 0.0333479
  endloop
 endfacet
 facet normal -0.4767 0.878189 0.039253
  outer loop
   vertex -0.0136902 0.0369207 0.0333479
   vertex -0.0136902 0.0361493 0.0506073
   vertex 0.0035692 0.0455181 0.0506073
  endloop
 endfacet
 facet normal -0.795129 0.606279 0.0139687
  outer loop
   vertex -0.013837 0.0359568 0.0506073
   vertex -0.0136902 0.0359568 0.0589623
   vertex -0.0136902 0.0361493 0.0506073
  endloop
 endfacet
 facet normal -0.477624 0.878369 0.0185307
  outer loop
   vertex 0.0035692 0.0451539 0.0678667
   vertex 0.0035692 0.0455181 0.0506073
   vertex -0.0136902 0.0359568 0.0589623
  endloop
 endfacet
 facet normal -0.472498 0.881314 0.00555296
  outer loop
   vertex 0.0035692 0.0451539 0.0678667
   vertex -0.0136902 0.0359568 0.0589623
   vertex -0.0135855 0.0359568 0.0678667
  endloop
 endfacet
 facet normal -0.47697 0.878686 0.020245
  outer loop
   vertex -0.0136902 0.0359568 0.0589623
   vertex 0.0035692 0.0455181 0.0506073
   vertex -0.0136902 0.0361493 0.0506073
  endloop
 endfacet
 facet normal 0.985015 -0.00258866 -0.17245
  outer loop
   vertex 0.0274531 0.00143798 0.0160885
   vertex 0.0257227 0.00118937 0.00620825
   vertex 0.0258211 0.0169947 0.00653325
  endloop
 endfacet
 facet normal 0.97926 -0.0210435 -0.201513
  outer loop
   vertex 0.0258211 0.0169947 0.00653325
   vertex 0.027824 0.0186974 0.0160885
   vertex 0.0274531 0.00143798 0.0160885
  endloop
 endfacet
 facet normal 0.93658 0.253902 -0.241561
  outer loop
   vertex 0.027824 0.0186974 0.0160885
   vertex 0.0258211 0.0169947 0.00653325
   vertex 0.0231451 0.0359568 0.0160885
  endloop
 endfacet
 facet normal 0.915187 0.276782 -0.292958
  outer loop
   vertex 0.0231451 0.0359568 0.0160885
   vertex 0.0258211 0.0169947 0.00653325
   vertex 0.0211545 0.0327035 0.00679632
  endloop
 endfacet
 facet normal 0.999724 -0.0214832 -0.00955308
  outer loop
   vertex 0.027618 0.00143798 0.0333479
   vertex 0.0274531 0.00143798 0.0160885
   vertex 0.027824 0.0186974 0.0160885
  endloop
 endfacet
 facet normal 0.999515 -0.0271565 -0.0152288
  outer loop
   vertex 0.027824 0.0186974 0.0160885
   vertex 0.028087 0.0186974 0.0333479
   vertex 0.027618 0.00143798 0.0333479
  endloop
 endfacet
 facet normal 0.965058 0.261622 -0.0147039
  outer loop
   vertex 0.028087 0.0186974 0.0333479
   vertex 0.027824 0.0186974 0.0160885
   vertex 0.0231451 0.0359568 0.0160885
  endloop
 endfacet
 facet normal 0.965028 0.261741 -0.0145759
  outer loop
   vertex 0.0231451 0.0359568 0.0160885
   vertex 0.0234057 0.0359568 0.0333479
   vertex 0.028087 0.0186974 0.0333479
  endloop
 endfacet
 facet normal 0.332555 0.839149 -0.43039
  outer loop
   vertex 0.0208286 0.0390198 0.0160885
   vertex 0.0195019 0.0348369 0.00690788
   vertex 0.0037722 0.0414335 0.00761547
  endloop
 endfacet
 facet normal 0.339032 0.828013 -0.4466
  outer loop
   vertex 0.0037722 0.0414335 0.00761547
   vertex 0.0035692 0.0460867 0.0160885
   vertex 0.0208286 0.0390198 0.0160885
  endloop
 endfacet
 facet normal 0.745071 0.563472 -0.356888
  outer loop
   vertex 0.0231451 0.0359568 0.0160885
   vertex 0.0211545 0.0327035 0.00679632
   vertex 0.0208286 0.0390198 0.0160885
  endloop
 endfacet
 facet normal 0.725163 0.581028 -0.36952
  outer loop
   vertex 0.0208286 0.0390198 0.0160885
   vertex 0.0211545 0.0327035 0.00679632
   vertex 0.0195019 0.0348369 0.00690788
  endloop
 endfacet
 facet normal 0.378882 0.925337 -0.0141286
  outer loop
   vertex 0.0208286 0.0392833 0.0333479
   vertex 0.0208286 0.0390198 0.0160885
   vertex 0.0035692 0.0460867 0.0160885
  endloop
 endfacet
 facet normal 0.358898 0.933333 0.00900732
  outer loop
   vertex 0.0035692 0.0460867 0.0160885
   vertex 0.0035692 0.0459201 0.0333479
   vertex 0.0208286 0.0392833 0.0333479
  endloop
 endfacet
 facet normal 0.797537 0.60315 -0.0120461
  outer loop
   vertex 0.0234057 0.0359568 0.0333479
   vertex 0.0231451 0.0359568 0.0160885
   vertex 0.0208286 0.0390198 0.0160885
  endloop
 endfacet
 facet normal 0.790487 0.612407 -0.00935061
  outer loop
   vertex 0.0208286 0.0390198 0.0160885
   vertex 0.0208286 0.0392833 0.0333479
   vertex 0.0234057 0.0359568 0.0333479
  endloop
 endfacet
 facet normal 0.999592 -0.0271586 -0.0088804
  outer loop
   vertex 0.0277714 0.00143798 0.0506073
   vertex 0.027618 0.00143798 0.0333479
   vertex 0.028087 0.0186974 0.0333479
  endloop
 endfacet
 facet normal 0.999834 -0.0182347 4.79088e-05
  outer loop
   vertex 0.028087 0.0186974 0.0333479
   vertex 0.0280861 0.0186974 0.0506073
   vertex 0.0277714 0.00143798 0.0506073
  endloop
 endfacet
 facet normal 0.965131 0.261769 4.62459e-05
  outer loop
   vertex 0.0280861 0.0186974 0.0506073
   vertex 0.028087 0.0186974 0.0333479
   vertex 0.0234057 0.0359568 0.0333479
  endloop
 endfacet
 facet normal 0.959403 0.281251 0.021081
  outer loop
   vertex 0.0234057 0.0359568 0.0333479
   vertex 0.0230265 0.0359568 0.0506073
   vertex 0.0280861 0.0186974 0.0506073
  endloop
 endfacet
 facet normal 0.999831 -0.0182346 -0.00227847
  outer loop
   vertex 0.0278107 0.00143798 0.0678667
   vertex 0.0277714 0.00143798 0.0506073
   vertex 0.0280861 0.0186974 0.0506073
  endloop
 endfacet
 facet normal 0.999933 -0.0097748 0.00618301
  outer loop
   vertex 0.0280861 0.0186974 0.0506073
   vertex 0.0279794 0.0186974 0.0678667
   vertex 0.0278107 0.00143798 0.0678667
  endloop
 endfacet
 facet normal 0.959599 0.281308 0.00593361
  outer loop
   vertex 0.0279794 0.0186974 0.0678667
   vertex 0.0280861 0.0186974 0.0506073
   vertex 0.0230265 0.0359568 0.0506073
  endloop
 endfacet
 facet normal 0.957277 0.288827 0.0141192
  outer loop
   vertex 0.0230265 0.0359568 0.0506073
   vertex 0.0227719 0.0359568 0.0678667
   vertex 0.0279794 0.0186974 0.0678667
  endloop
 endfacet
 facet normal 0.364381 0.930825 0.0281331
  outer loop
   vertex 0.0208286 0.0387617 0.0506073
   vertex 0.0208286 0.0392833 0.0333479
   vertex 0.0035692 0.0455181 0.0506073
  endloop
 endfacet
 facet normal 0.358828 0.933151 0.0217393
  outer loop
   vertex 0.0035692 0.0455181 0.0506073
   vertex 0.0208286 0.0392833 0.0333479
   vertex 0.0035692 0.0459201 0.0333479
  endloop
 endfacet
 facet normal 0.787011 0.616697 0.017293
  outer loop
   vertex 0.0230265 0.0359568 0.0506073
   vertex 0.0234057 0.0359568 0.0333479
   vertex 0.0208286 0.0387617 0.0506073
  endloop
 endfacet
 facet normal 0.790386 0.612329 0.0185069
  outer loop
   vertex 0.0208286 0.0387617 0.0506073
   vertex 0.0234057 0.0359568 0.0333479
   vertex 0.0208286 0.0392833 0.0333479
  endloop
 endfacet
 facet normal 0.364467 0.931045 0.0178571
  outer loop
   vertex 0.0208286 0.0384307 0.0678667
   vertex 0.0208286 0.0387617 0.0506073
   vertex 0.0035692 0.0455181 0.0506073
  endloop
 endfacet
 facet normal 0.362906 0.931619 0.0196541
  outer loop
   vertex 0.0035692 0.0455181 0.0506073
   vertex 0.0035692 0.0451539 0.0678667
   vertex 0.0208286 0.0384307 0.0678667
  endloop
 endfacet
 facet normal 0.787075 0.616747 0.0116088
  outer loop
   vertex 0.0227719 0.0359568 0.0678667
   vertex 0.0230265 0.0359568 0.0506073
   vertex 0.0208286 0.0387617 0.0506073
  endloop
 endfacet
 facet normal 0.786328 0.617696 0.0118472
  outer loop
   vertex 0.0208286 0.0387617 0.0506073
   vertex 0.0208286 0.0384307 0.0678667
   vertex 0.0227719 0.0359568 0.0678667
  endloop
 endfacet
 facet normal -0.759818 -0.650008 0.0128543
  outer loop
   vertex -0.0172983 -0.0330808 0.0851261
   vertex -0.0175902 -0.0330808 0.0678667
   vertex -0.0136902 -0.0376397 0.0678667
  endloop
 endfacet
 facet normal -0.760898 -0.648755 0.0122978
  outer loop
   vertex -0.0136902 -0.0376397 0.0678667
   vertex -0.0136902 -0.0373126 0.0851261
   vertex -0.0172983 -0.0330808 0.0851261
  endloop
 endfacet
 facet normal -0.312176 -0.949854 0.0180055
  outer loop
   vertex -0.0136902 -0.0373126 0.0851261
   vertex -0.0136902 -0.0376397 0.0678667
   vertex 0.00359363 -0.0429917 0.0851931
  endloop
 endfacet
 facet normal -0.300048 -0.953913 0.00465292
  outer loop
   vertex 0.00359363 -0.0429917 0.0851931
   vertex -0.0136902 -0.0376397 0.0678667
   vertex 0.00358881 -0.0430737 0.0680795
  endloop
 endfacet
 facet normal -0.766023 -0.641634 0.0389315
  outer loop
   vertex -0.0164211 -0.0330808 0.102385
   vertex -0.0172983 -0.0330808 0.0851261
   vertex -0.0136902 -0.0363411 0.102385
  endloop
 endfacet
 facet normal -0.760448 -0.648372 0.0364932
  outer loop
   vertex -0.0136902 -0.0363411 0.102385
   vertex -0.0172983 -0.0330808 0.0851261
   vertex -0.0136902 -0.0373126 0.0851261
  endloop
 endfacet
 facet normal -0.349694 -0.935383 0.0526474
  outer loop
   vertex -0.0136902 -0.0363411 0.102385
   vertex -0.0136902 -0.0373126 0.0851261
   vertex 0.00357597 -0.0427981 0.102349
  endloop
 endfacet
 facet normal -0.312183 -0.949965 0.0103985
  outer loop
   vertex 0.00357597 -0.0427981 0.102349
   vertex -0.0136902 -0.0373126 0.0851261
   vertex 0.00359363 -0.0429917 0.0851931
  endloop
 endfacet
 facet normal -0.978912 -0.201183 0.0354519
  outer loop
   vertex -0.0206367 -0.0151686 0.0853955
   vertex -0.0211875 -0.0154787 0.068426
   vertex -0.0175902 -0.0330808 0.0678667
  endloop
 endfacet
 facet normal -0.982891 -0.183439 0.0166282
  outer loop
   vertex -0.0175902 -0.0330808 0.0678667
   vertex -0.0172983 -0.0330808 0.0851261
   vertex -0.0206367 -0.0151686 0.0853955
  endloop
 endfacet
 facet normal -0.998895 0.0360435 0.0301627
  outer loop
   vertex -0.0200701 0.00130526 0.0853758
   vertex -0.0205884 0.00140812 0.0680889
   vertex -0.0211875 -0.0154787 0.068426
  endloop
 endfacet
 facet normal -0.998902 0.0343937 0.0317968
  outer loop
   vertex -0.0211875 -0.0154787 0.068426
   vertex -0.0206367 -0.0151686 0.0853955
   vertex -0.0200701 0.00130526 0.0853758
  endloop
 endfacet
 facet normal -0.982087 -0.183672 0.0420771
  outer loop
   vertex -0.0199334 -0.0151591 0.101851
   vertex -0.0206367 -0.0151686 0.0853955
   vertex -0.0172983 -0.0330808 0.0851261
  endloop
 endfacet
 facet normal -0.980392 -0.190654 0.0498263
  outer loop
   vertex -0.0172983 -0.0330808 0.0851261
   vertex -0.0164211 -0.0330808 0.102385
   vertex -0.0199334 -0.0151591 0.101851
  endloop
 endfacet
 facet normal -0.999305 0.0218996 0.0301746
  outer loop
   vertex -0.0195713 0.00130487 0.101896
   vertex -0.0200701 0.00130526 0.0853758
   vertex -0.0199334 -0.0151591 0.101851
  endloop
 endfacet
 facet normal -0.998498 0.0343928 0.0426526
  outer loop
   vertex -0.0199334 -0.0151591 0.101851
   vertex -0.0200701 0.00130526 0.0853758
   vertex -0.0206367 -0.0151686 0.0853955
  endloop
 endfacet
 facet normal -0.757398 -0.63441 0.154505
  outer loop
   vertex -0.0136902 -0.0363411 0.102385
   vertex -0.0136902 -0.0330808 0.115773
   vertex -0.0164211 -0.0330808 0.102385
  endloop
 endfacet
 facet normal -0.359921 -0.928253 0.0938235
  outer loop
   vertex -0.0126808 -0.0330808 0.119645
   vertex -0.0136902 -0.0330808 0.115773
   vertex 0.0035692 -0.0393816 0.119645
  endloop
 endfacet
 facet normal -0.372669 -0.9104 0.179693
  outer loop
   vertex 0.0035692 -0.0393816 0.119645
   vertex -0.0136902 -0.0330808 0.115773
   vertex 0.00357597 -0.0427981 0.102349
  endloop
 endfacet
 facet normal -0.341091 -0.913334 0.222435
  outer loop
   vertex 0.00357597 -0.0427981 0.102349
   vertex -0.0136902 -0.0330808 0.115773
   vertex -0.0136902 -0.0363411 0.102385
  endloop
 endfacet
 facet normal -0.299069 -0.771313 0.561813
  outer loop
   vertex -0.00576141 -0.0282924 0.129902
   vertex -0.0126808 -0.0330808 0.119645
   vertex 0.0035692 -0.0393816 0.119645
  endloop
 endfacet
 facet normal -0.118901 -0.726289 0.677028
  outer loop
   vertex 0.0035692 -0.0393816 0.119645
   vertex 0.00390246 -0.0300512 0.129713
   vertex -0.00576141 -0.0282924 0.129902
  endloop
 endfacet
 facet normal -0.95971 -0.267496 0.0860345
  outer loop
   vertex -0.0181537 -0.0158214 0.119645
   vertex -0.0199334 -0.0151591 0.101851
   vertex -0.0136902 -0.0330808 0.115773
  endloop
 endfacet
 facet normal -0.952149 -0.275791 0.131724
  outer loop
   vertex -0.0181537 -0.0158214 0.119645
   vertex -0.0136902 -0.0330808 0.115773
   vertex -0.0136902 -0.0312313 0.119645
  endloop
 endfacet
 facet normal -0.963287 -0.18293 0.196506
  outer loop
   vertex -0.0136902 -0.0330808 0.115773
   vertex -0.0199334 -0.0151591 0.101851
   vertex -0.0164211 -0.0330808 0.102385
  endloop
 endfacet
 facet normal -0.85566 -0.467006 0.223052
  outer loop
   vertex -0.0136902 -0.0312313 0.119645
   vertex -0.0136902 -0.0330808 0.115773
   vertex -0.0126808 -0.0330808 0.119645
  endloop
 endfacet
 facet normal -0.995022 0.0216235 0.0972848
  outer loop
   vertex -0.017833 0.00143798 0.119645
   vertex -0.0195713 0.00130487 0.101896
   vertex -0.0199334 -0.0151591 0.101851
  endloop
 endfacet
 facet normal -0.994797 0.0184827 0.100188
  outer loop
   vertex -0.0199334 -0.0151591 0.101851
   vertex -0.0181537 -0.0158214 0.119645
   vertex -0.017833 0.00143798 0.119645
  endloop
 endfacet
 facet normal -0.825721 -0.139028 0.546678
  outer loop
   vertex -0.0117842 -0.0136387 0.129821
   vertex -0.0181537 -0.0158214 0.119645
   vertex -0.010772 -0.0189845 0.12999
  endloop
 endfacet
 facet normal -0.823527 -0.238536 0.514687
  outer loop
   vertex -0.010772 -0.0189845 0.12999
   vertex -0.0181537 -0.0158214 0.119645
   vertex -0.0136902 -0.0312313 0.119645
  endloop
 endfacet
 facet normal -0.679831 -0.371925 0.632061
  outer loop
   vertex -0.010772 -0.0189845 0.12999
   vertex -0.0136902 -0.0312313 0.119645
   vertex -0.00576141 -0.0282924 0.129902
  endloop
 endfacet
 facet normal -0.680163 -0.371223 0.632117
  outer loop
   vertex -0.00576141 -0.0282924 0.129902
   vertex -0.0136902 -0.0312313 0.119645
   vertex -0.0126808 -0.0330808 0.119645
  endloop
 endfacet
 facet normal -0.85896 0.000977841 0.512042
  outer loop
   vertex -0.0116871 0.000968415 0.129956
   vertex -0.017833 0.00143798 0.119645
   vertex -0.0117842 -0.0136387 0.129821
  endloop
 endfacet
 facet normal -0.849051 0.0157749 0.528076
  outer loop
   vertex -0.0117842 -0.0136387 0.129821
   vertex -0.017833 0.00143798 0.119645
   vertex -0.0181537 -0.0158214 0.119645
  endloop
 endfacet
 facet normal 0.44119 -0.897404 0.00417363
  outer loop
   vertex 0.00359363 -0.0429917 0.0851931
   vertex 0.00358881 -0.0430737 0.0680795
   vertex 0.0208286 -0.0345188 0.0851261
  endloop
 endfacet
 facet normal 0.473547 -0.879979 -0.0372954
  outer loop
   vertex 0.0208286 -0.0345188 0.0851261
   vertex 0.00358881 -0.0430737 0.0680795
   vertex 0.0208286 -0.0337874 0.0678667
  endloop
 endfacet
 facet normal 0.798938 -0.600874 -0.0254663
  outer loop
   vertex 0.0208286 -0.0345188 0.0851261
   vertex 0.0208286 -0.0337874 0.0678667
   vertex 0.0219101 -0.0330808 0.0851261
  endloop
 endfacet
 facet normal 0.813402 -0.581066 -0.0271835
  outer loop
   vertex 0.0219101 -0.0330808 0.0851261
   vertex 0.0208286 -0.0337874 0.0678667
   vertex 0.0213333 -0.0330808 0.0678667
  endloop
 endfacet
 facet normal 0.441189 -0.897352 0.0105802
  outer loop
   vertex 0.00357597 -0.0427981 0.102349
   vertex 0.00359363 -0.0429917 0.0851931
   vertex 0.0208286 -0.0345188 0.0851261
  endloop
 endfacet
 facet normal 0.440872 -0.897512 0.0101862
  outer loop
   vertex 0.0208286 -0.0345188 0.0851261
   vertex 0.0208286 -0.034323 0.102385
   vertex 0.00357597 -0.0427981 0.102349
  endloop
 endfacet
 facet normal 0.799179 -0.601055 0.00682159
  outer loop
   vertex 0.0208286 -0.034323 0.102385
   vertex 0.0208286 -0.0345188 0.0851261
   vertex 0.0219101 -0.0330808 0.0851261
  endloop
 endfacet
 facet normal 0.793055 -0.609122 0.00585723
  outer loop
   vertex 0.0219101 -0.0330808 0.0851261
   vertex 0.0217827 -0.0330808 0.102385
   vertex 0.0208286 -0.034323 0.102385
  endloop
 endfacet
 facet normal 0.951296 -0.306636 -0.0317919
  outer loop
   vertex 0.0219101 -0.0330808 0.0851261
   vertex 0.0213333 -0.0330808 0.0678667
   vertex 0.0268966 -0.0158214 0.0678667
  endloop
 endfacet
 facet normal 0.948099 -0.315274 -0.041353
  outer loop
   vertex 0.0268966 -0.0158214 0.0678667
   vertex 0.0276494 -0.0158214 0.0851261
   vertex 0.0219101 -0.0330808 0.0851261
  endloop
 endfacet
 facet normal 0.997655 -0.0528346 -0.0435145
  outer loop
   vertex 0.0276494 -0.0158214 0.0851261
   vertex 0.0268966 -0.0158214 0.0678667
   vertex 0.0278107 0.00143798 0.0678667
  endloop
 endfacet
 facet normal 0.99799 -0.0492301 -0.0399068
  outer loop
   vertex 0.0278107 0.00143798 0.0678667
   vertex 0.0285008 0.00143798 0.0851261
   vertex 0.0276494 -0.0158214 0.0851261
  endloop
 endfacet
 facet normal 0.948888 -0.315536 0.00700816
  outer loop
   vertex 0.0217827 -0.0330808 0.102385
   vertex 0.0219101 -0.0330808 0.0851261
   vertex 0.0276494 -0.0158214 0.0851261
  endloop
 endfacet
 facet normal 0.947601 -0.319446 0.00266054
  outer loop
   vertex 0.0276494 -0.0158214 0.0851261
   vertex 0.027601 -0.0158214 0.102385
   vertex 0.0217827 -0.0330808 0.102385
  endloop
 endfacet
 facet normal 0.998782 -0.0492691 0.00280424
  outer loop
   vertex 0.027601 -0.0158214 0.102385
   vertex 0.0276494 -0.0158214 0.0851261
   vertex 0.0285008 0.00143798 0.0851261
  endloop
 endfacet
 facet normal 0.998869 -0.0473046 0.00477332
  outer loop
   vertex 0.0285008 0.00143798 0.0851261
   vertex 0.0284184 0.00143798 0.102385
   vertex 0.027601 -0.0158214 0.102385
  endloop
 endfacet
 facet normal 0.441152 -0.880387 0.174083
  outer loop
   vertex 0.0035692 -0.0393816 0.119645
   vertex 0.00357597 -0.0427981 0.102349
   vertex 0.0208286 -0.0330808 0.107772
  endloop
 endfacet
 facet normal 0.413695 -0.902118 0.122637
  outer loop
   vertex 0.0035692 -0.0393816 0.119645
   vertex 0.0208286 -0.0330808 0.107772
   vertex 0.0173089 -0.0330808 0.119645
  endloop
 endfacet
 facet normal 0.431413 -0.879081 0.202729
  outer loop
   vertex 0.0208286 -0.0330808 0.107772
   vertex 0.00357597 -0.0427981 0.102349
   vertex 0.0208286 -0.034323 0.102385
  endloop
 endfacet
 facet normal 0.785357 -0.60321 0.139109
  outer loop
   vertex 0.0217827 -0.0330808 0.102385
   vertex 0.0208286 -0.0330808 0.107772
   vertex 0.0208286 -0.034323 0.102385
  endloop
 endfacet
 facet normal 0.293565 -0.705966 0.64454
  outer loop
   vertex 0.00390246 -0.0300512 0.129713
   vertex 0.0035692 -0.0393816 0.119645
   vertex 0.00949884 -0.0279749 0.129438
  endloop
 endfacet
 facet normal 0.324489 -0.707592 0.62771
  outer loop
   vertex 0.00949884 -0.0279749 0.129438
   vertex 0.0035692 -0.0393816 0.119645
   vertex 0.0173089 -0.0330808 0.119645
  endloop
 endfacet
 facet normal 0.833732 -0.493767 0.247155
  outer loop
   vertex 0.0173089 -0.0330808 0.119645
   vertex 0.0208286 -0.0330808 0.107772
   vertex 0.0208286 -0.0271377 0.119645
  endloop
 endfacet
 facet normal 0.934934 -0.317293 0.158821
  outer loop
   vertex 0.0208286 -0.0271377 0.119645
   vertex 0.0208286 -0.0330808 0.107772
   vertex 0.027601 -0.0158214 0.102385
  endloop
 endfacet
 facet normal 0.941932 -0.279241 0.186516
  outer loop
   vertex 0.0208286 -0.0271377 0.119645
   vertex 0.027601 -0.0158214 0.102385
   vertex 0.0241834 -0.0158214 0.119645
  endloop
 endfacet
 facet normal 0.934531 -0.315041 0.165532
  outer loop
   vertex 0.027601 -0.0158214 0.102385
   vertex 0.0208286 -0.0330808 0.107772
   vertex 0.0217827 -0.0330808 0.102385
  endloop
 endfacet
 facet normal 0.979027 -0.0626454 0.193861
  outer loop
   vertex 0.0241834 -0.0158214 0.119645
   vertex 0.027601 -0.0158214 0.102385
   vertex 0.0252878 0.00143798 0.119645
  endloop
 endfacet
 facet normal 0.982878 -0.0465473 0.178279
  outer loop
   vertex 0.0252878 0.00143798 0.119645
   vertex 0.027601 -0.0158214 0.102385
   vertex 0.0284184 0.00143798 0.102385
  endloop
 endfacet
 facet normal 0.623222 -0.369095 0.689466
  outer loop
   vertex 0.00949884 -0.0279749 0.129438
   vertex 0.0173089 -0.0330808 0.119645
   vertex 0.0208286 -0.0271377 0.119645
  endloop
 endfacet
 facet normal 0.61895 -0.387993 0.682907
  outer loop
   vertex 0.00949884 -0.0279749 0.129438
   vertex 0.0208286 -0.0271377 0.119645
   vertex 0.0191181 -0.0142212 0.128534
  endloop
 endfacet
 facet normal 0.108376 -0.0104435 0.994055
  outer loop
   vertex 0.00949884 -0.0279749 0.129438
   vertex 0.0191181 -0.0142212 0.128534
   vertex 0.0176231 -0.0132953 0.128706
  endloop
 endfacet
 facet normal 0.823028 -0.243991 0.512926
  outer loop
   vertex 0.0241834 -0.0158214 0.119645
   vertex 0.0191181 -0.0142212 0.128534
   vertex 0.0208286 -0.0271377 0.119645
  endloop
 endfacet
 facet normal 0.108372 -0.0104489 0.994055
  outer loop
   vertex 0.0176231 -0.0132953 0.128706
   vertex 0.0191181 -0.0142212 0.128534
   vertex 0.0181237 -0.00945393 0.128692
  endloop
 endfacet
 facet normal 0.70077 0.122803 0.702738
  outer loop
   vertex 0.0181237 -0.00945393 0.128692
   vertex 0.0191181 -0.0142212 0.128534
   vertex 0.0252878 0.00143798 0.119645
  endloop
 endfacet
 facet normal 0.814266 -0.0556088 0.577823
  outer loop
   vertex 0.0181237 -0.00945393 0.128692
   vertex 0.0252878 0.00143798 0.119645
   vertex 0.0188055 0.000885348 0.128727
  endloop
 endfacet
 facet normal 0.863197 -0.0552338 0.501836
  outer loop
   vertex 0.0252878 0.00143798 0.119645
   vertex 0.0191181 -0.0142212 0.128534
   vertex 0.0241834 -0.0158214 0.119645
  endloop
 endfacet
 facet normal -0.998641 0.0458893 0.0247115
  outer loop
   vertex -0.0193928 0.0181698 0.0852774
   vertex -0.0197997 0.0186827 0.0678833
   vertex -0.0205884 0.00140812 0.0680889
  endloop
 endfacet
 facet normal -0.998732 0.040285 0.030183
  outer loop
   vertex -0.0205884 0.00140812 0.0680889
   vertex -0.0200701 0.00130526 0.0853758
   vertex -0.0193928 0.0181698 0.0852774
  endloop
 endfacet
 facet normal -0.94161 0.336643 0.00644101
  outer loop
   vertex -0.0136902 0.0354413 0.0851261
   vertex -0.0136902 0.0357715 0.0678667
   vertex -0.0197997 0.0186827 0.0678833
  endloop
 endfacet
 facet normal -0.949028 0.31362 0.0314459
  outer loop
   vertex -0.0197997 0.0186827 0.0678833
   vertex -0.0193928 0.0181698 0.0852774
   vertex -0.0136902 0.0354413 0.0851261
  endloop
 endfacet
 facet normal -0.870622 0.491848 0.0101165
  outer loop
   vertex -0.013385 0.0359568 0.0851261
   vertex -0.0135855 0.0359568 0.0678667
   vertex -0.0136902 0.0357715 0.0678667
  endloop
 endfacet
 facet normal -0.860441 0.509457 0.00974745
  outer loop
   vertex -0.0136902 0.0357715 0.0678667
   vertex -0.0136902 0.0354413 0.0851261
   vertex -0.013385 0.0359568 0.0851261
  endloop
 endfacet
 facet normal -0.998854 0.0402649 0.0258917
  outer loop
   vertex -0.0189526 0.0182501 0.102135
   vertex -0.0193928 0.0181698 0.0852774
   vertex -0.0200701 0.00130526 0.0853758
  endloop
 endfacet
 facet normal -0.998895 0.0360437 0.0301625
  outer loop
   vertex -0.0200701 0.00130526 0.0853758
   vertex -0.0195713 0.00130487 0.101896
   vertex -0.0189526 0.0182501 0.102135
  endloop
 endfacet
 facet normal -0.949232 0.313626 0.0244547
  outer loop
   vertex -0.0136902 0.0340955 0.102385
   vertex -0.0136902 0.0354413 0.0851261
   vertex -0.0193928 0.0181698 0.0852774
  endloop
 endfacet
 facet normal -0.948884 0.314765 0.0232788
  outer loop
   vertex -0.0193928 0.0181698 0.0852774
   vertex -0.0189526 0.0182501 0.102135
   vertex -0.0136902 0.0340955 0.102385
  endloop
 endfacet
 facet normal -0.859773 0.509061 0.0405994
  outer loop
   vertex -0.01257 0.0359568 0.102385
   vertex -0.013385 0.0359568 0.0851261
   vertex -0.0136902 0.0354413 0.0851261
  endloop
 endfacet
 facet normal -0.856098 0.51525 0.0401761
  outer loop
   vertex -0.0136902 0.0354413 0.0851261
   vertex -0.0136902 0.0340955 0.102385
   vertex -0.01257 0.0359568 0.102385
  endloop
 endfacet
 facet normal -0.463649 0.885864 0.0166078
  outer loop
   vertex 0.0035692 0.0448304 0.0851261
   vertex 0.0035692 0.0451539 0.0678667
   vertex -0.013385 0.0359568 0.0851261
  endloop
 endfacet
 facet normal -0.472498 0.881314 0.00549034
  outer loop
   vertex -0.013385 0.0359568 0.0851261
   vertex 0.0035692 0.0451539 0.0678667
   vertex -0.0135855 0.0359568 0.0678667
  endloop
 endfacet
 facet normal -0.448456 0.892922 0.0397292
  outer loop
   vertex 0.0035692 0.0440624 0.102385
   vertex 0.0035692 0.0448304 0.0851261
   vertex -0.01257 0.0359568 0.102385
  endloop
 endfacet
 facet normal -0.463601 0.885773 0.0218918
  outer loop
   vertex -0.01257 0.0359568 0.102385
   vertex 0.0035692 0.0448304 0.0851261
   vertex -0.013385 0.0359568 0.0851261
  endloop
 endfacet
 facet normal -0.99067 0.0609689 0.121881
  outer loop
   vertex -0.0167708 0.0186974 0.119645
   vertex -0.0189526 0.0182501 0.102135
   vertex -0.017833 0.00143798 0.119645
  endloop
 endfacet
 facet normal -0.994656 0.0349448 0.0971491
  outer loop
   vertex -0.017833 0.00143798 0.119645
   vertex -0.0189526 0.0182501 0.102135
   vertex -0.0195713 0.00130487 0.101896
  endloop
 endfacet
 facet normal -0.943705 0.311659 0.110855
  outer loop
   vertex -0.0136902 0.0279565 0.119645
   vertex -0.0136902 0.0340955 0.102385
   vertex -0.0189526 0.0182501 0.102135
  endloop
 endfacet
 facet normal -0.943153 0.313801 0.109502
  outer loop
   vertex -0.0189526 0.0182501 0.102135
   vertex -0.0167708 0.0186974 0.119645
   vertex -0.0136902 0.0279565 0.119645
  endloop
 endfacet
 facet normal -0.842679 0.507173 0.180743
  outer loop
   vertex -0.00886809 0.0359568 0.119645
   vertex -0.01257 0.0359568 0.102385
   vertex -0.0136902 0.0340955 0.102385
  endloop
 endfacet
 facet normal -0.842374 0.507731 0.180597
  outer loop
   vertex -0.0136902 0.0340955 0.102385
   vertex -0.0136902 0.0279565 0.119645
   vertex -0.00886809 0.0359568 0.119645
  endloop
 endfacet
 facet normal -0.860851 0.0529794 0.506092
  outer loop
   vertex -0.0108426 0.0156575 0.130047
   vertex -0.0167708 0.0186974 0.119645
   vertex -0.017833 0.00143798 0.119645
  endloop
 endfacet
 facet normal -0.857142 0.0460931 0.513013
  outer loop
   vertex -0.017833 0.00143798 0.119645
   vertex -0.0116871 0.000968415 0.129956
   vertex -0.0108426 0.0156575 0.130047
  endloop
 endfacet
 facet normal -0.802222 0.266911 0.534039
  outer loop
   vertex -0.0107972 0.0158333 0.13005
   vertex -0.0136902 0.0279565 0.119645
   vertex -0.0167708 0.0186974 0.119645
  endloop
 endfacet
 facet normal -0.823735 0.203896 0.529044
  outer loop
   vertex -0.0167708 0.0186974 0.119645
   vertex -0.0108426 0.0156575 0.130047
   vertex -0.0107972 0.0158333 0.13005
  endloop
 endfacet
 facet normal -0.663658 0.400012 0.632098
  outer loop
   vertex -0.00186261 0.0306142 0.130381
   vertex -0.00886809 0.0359568 0.119645
   vertex -0.0136902 0.0279565 0.119645
  endloop
 endfacet
 facet normal -0.665723 0.388124 0.637316
  outer loop
   vertex -0.0136902 0.0279565 0.119645
   vertex -0.0107972 0.0158333 0.13005
   vertex -0.00186261 0.0306142 0.130381
  endloop
 endfacet
 facet normal -0.368322 0.91506 0.16433
  outer loop
   vertex 0.0035692 0.0409629 0.119645
   vertex 0.0035692 0.0440624 0.102385
   vertex -0.00886809 0.0359568 0.119645
  endloop
 endfacet
 facet normal -0.446745 0.889515 0.0958205
  outer loop
   vertex -0.00886809 0.0359568 0.119645
   vertex 0.0035692 0.0440624 0.102385
   vertex -0.01257 0.0359568 0.102385
  endloop
 endfacet
 facet normal -0.100046 0.741178 0.663811
  outer loop
   vertex 0.00388387 0.0316292 0.130114
   vertex 0.0035692 0.0409629 0.119645
   vertex -0.00186261 0.0306142 0.130381
  endloop
 endfacet
 facet normal -0.305141 0.758094 0.576352
  outer loop
   vertex -0.00186261 0.0306142 0.130381
   vertex 0.0035692 0.0409629 0.119645
   vertex -0.00886809 0.0359568 0.119645
  endloop
 endfacet
 facet normal 0.999154 -0.00976718 -0.0399534
  outer loop
   vertex 0.0285008 0.00143798 0.0851261
   vertex 0.0278107 0.00143798 0.0678667
   vertex 0.0279794 0.0186974 0.0678667
  endloop
 endfacet
 facet normal 0.999661 0.00455314 -0.0256483
  outer loop
   vertex 0.0279794 0.0186974 0.0678667
   vertex 0.0284222 0.0186974 0.0851261
   vertex 0.0285008 0.00143798 0.0851261
  endloop
 endfacet
 facet normal 0.95293 0.302202 -0.0244494
  outer loop
   vertex 0.0284222 0.0186974 0.0851261
   vertex 0.0279794 0.0186974 0.0678667
   vertex 0.0229488 0.0359568 0.0851261
  endloop
 endfacet
 facet normal 0.957326 0.288842 -0.00980875
  outer loop
   vertex 0.0229488 0.0359568 0.0851261
   vertex 0.0279794 0.0186974 0.0678667
   vertex 0.0227719 0.0359568 0.0678667
  endloop
 endfacet
 facet normal 0.999978 0.00455458 0.00477862
  outer loop
   vertex 0.0284184 0.00143798 0.102385
   vertex 0.0285008 0.00143798 0.0851261
   vertex 0.0284222 0.0186974 0.0851261
  endloop
 endfacet
 facet normal 0.999997 -0.00197839 -0.00175435
  outer loop
   vertex 0.0284222 0.0186974 0.0851261
   vertex 0.0284525 0.0186974 0.102385
   vertex 0.0284184 0.00143798 0.102385
  endloop
 endfacet
 facet normal 0.953214 0.302292 -0.00167228
  outer loop
   vertex 0.0284525 0.0186974 0.102385
   vertex 0.0284222 0.0186974 0.0851261
   vertex 0.0229488 0.0359568 0.0851261
  endloop
 endfacet
 facet normal 0.949432 0.31378 0.0110218
  outer loop
   vertex 0.0229488 0.0359568 0.0851261
   vertex 0.0227484 0.0359568 0.102385
   vertex 0.0284525 0.0186974 0.102385
  endloop
 endfacet
 facet normal 0.341214 0.939957 -0.00731875
  outer loop
   vertex 0.0208286 0.038565 0.0851261
   vertex 0.0208286 0.0384307 0.0678667
   vertex 0.0035692 0.0448304 0.0851261
  endloop
 endfacet
 facet normal 0.362921 0.931656 0.0174663
  outer loop
   vertex 0.0035692 0.0448304 0.0851261
   vertex 0.0208286 0.0384307 0.0678667
   vertex 0.0035692 0.0451539 0.0678667
  endloop
 endfacet
 facet normal 0.775948 0.630746 -0.00795036
  outer loop
   vertex 0.0229488 0.0359568 0.0851261
   vertex 0.0227719 0.0359568 0.0678667
   vertex 0.0208286 0.038565 0.0851261
  endloop
 endfacet
 facet normal 0.786374 0.617732 -0.00480982
  outer loop
   vertex 0.0208286 0.038565 0.0851261
   vertex 0.0227719 0.0359568 0.0678667
   vertex 0.0208286 0.0384307 0.0678667
  endloop
 endfacet
 facet normal 0.3209 0.946917 0.0192914
  outer loop
   vertex 0.0208286 0.0382134 0.102385
   vertex 0.0208286 0.038565 0.0851261
   vertex 0.0035692 0.0440624 0.102385
  endloop
 endfacet
 facet normal 0.340925 0.939161 0.0417866
  outer loop
   vertex 0.0035692 0.0440624 0.102385
   vertex 0.0208286 0.038565 0.0851261
   vertex 0.0035692 0.0448304 0.0851261
  endloop
 endfacet
 facet normal 0.76163 0.647952 0.00884162
  outer loop
   vertex 0.0227484 0.0359568 0.102385
   vertex 0.0229488 0.0359568 0.0851261
   vertex 0.0208286 0.0382134 0.102385
  endloop
 endfacet
 facet normal 0.775909 0.630714 0.0128494
  outer loop
   vertex 0.0208286 0.0382134 0.102385
   vertex 0.0229488 0.0359568 0.0851261
   vertex 0.0208286 0.038565 0.0851261
  endloop
 endfacet
 facet normal 0.983844 -0.0143033 0.178454
  outer loop
   vertex 0.0252878 0.00143798 0.119645
   vertex 0.0284184 0.00143798 0.102385
   vertex 0.0255387 0.0186974 0.119645
  endloop
 endfacet
 facet normal 0.986045 -0.00195079 0.166469
  outer loop
   vertex 0.0255387 0.0186974 0.119645
   vertex 0.0284184 0.00143798 0.102385
   vertex 0.0284525 0.0186974 0.102385
  endloop
 endfacet
 facet normal 0.752787 0.607372 0.253795
  outer loop
   vertex 0.0208286 0.0330669 0.119645
   vertex 0.0208286 0.0359568 0.112729
   vertex 0.018497 0.0359568 0.119645
  endloop
 endfacet
 facet normal 0.934753 0.318329 0.15781
  outer loop
   vertex 0.0255387 0.0186974 0.119645
   vertex 0.0284525 0.0186974 0.102385
   vertex 0.0208286 0.0359568 0.112729
  endloop
 endfacet
 facet normal 0.942306 0.308872 0.129065
  outer loop
   vertex 0.0255387 0.0186974 0.119645
   vertex 0.0208286 0.0359568 0.112729
   vertex 0.0208286 0.0330669 0.119645
  endloop
 endfacet
 facet normal 0.93508 0.309036 0.173557
  outer loop
   vertex 0.0208286 0.0359568 0.112729
   vertex 0.0284525 0.0186974 0.102385
   vertex 0.0227484 0.0359568 0.102385
  endloop
 endfacet
 facet normal 0.814081 -0.00577022 0.580723
  outer loop
   vertex 0.0188055 0.000885348 0.128727
   vertex 0.0252878 0.00143798 0.119645
   vertex 0.0188952 0.015079 0.128742
  endloop
 endfacet
 facet normal 0.809739 -0.0117721 0.586672
  outer loop
   vertex 0.0188952 0.015079 0.128742
   vertex 0.0252878 0.00143798 0.119645
   vertex 0.0255387 0.0186974 0.119645
  endloop
 endfacet
 facet normal 0.575402 0.358179 0.735269
  outer loop
   vertex 0.0181757 0.018432 0.12885
   vertex 0.0208286 0.0330669 0.119645
   vertex 0.0101807 0.0299066 0.129517
  endloop
 endfacet
 facet normal 0.53931 0.435132 0.720975
  outer loop
   vertex 0.0101807 0.0299066 0.129517
   vertex 0.0208286 0.0330669 0.119645
   vertex 0.018497 0.0359568 0.119645
  endloop
 endfacet
 facet normal 0.770589 0.145284 0.620552
  outer loop
   vertex 0.0188952 0.015079 0.128742
   vertex 0.0255387 0.0186974 0.119645
   vertex 0.0181757 0.018432 0.12885
  endloop
 endfacet
 facet normal 0.75326 0.246906 0.60962
  outer loop
   vertex 0.0181757 0.018432 0.12885
   vertex 0.0255387 0.0186974 0.119645
   vertex 0.0208286 0.0330669 0.119645
  endloop
 endfacet
 facet normal 0.316144 0.942705 0.106585
  outer loop
   vertex 0.018497 0.0359568 0.119645
   vertex 0.0208286 0.0359568 0.112729
   vertex 0.0035692 0.0409629 0.119645
  endloop
 endfacet
 facet normal 0.335644 0.927157 0.166502
  outer loop
   vertex 0.0035692 0.0409629 0.119645
   vertex 0.0208286 0.0359568 0.112729
   vertex 0.0035692 0.0440624 0.102385
  endloop
 endfacet
 facet normal 0.31432 0.9275 0.202353
  outer loop
   vertex 0.0035692 0.0440624 0.102385
   vertex 0.0208286 0.0359568 0.112729
   vertex 0.0208286 0.0382134 0.102385
  endloop
 endfacet
 facet normal 0.754161 0.641598 0.139978
  outer loop
   vertex 0.0208286 0.0382134 0.102385
   vertex 0.0208286 0.0359568 0.112729
   vertex 0.0227484 0.0359568 0.102385
  endloop
 endfacet
 facet normal 0.242396 0.722798 0.647154
  outer loop
   vertex 0.0101807 0.0299066 0.129517
   vertex 0.018497 0.0359568 0.119645
   vertex 0.0035692 0.0409629 0.119645
  endloop
 endfacet
 facet normal 0.258795 0.724841 0.63846
  outer loop
   vertex 0.0035692 0.0409629 0.119645
   vertex 0.00388387 0.0316292 0.130114
   vertex 0.0101807 0.0299066 0.129517
  endloop
 endfacet
endsolid
