solid ascii
 facet normal -0.872956 -0.472016 -0.123082
  outer loop
   vertex -0.0347322 -0.062321 0.0296549
   vertex -0.0330925 -0.0597548 0.00818462
   vertex -0.0271272 -0.0704633 0.00694271
  endloop
 endfacet
 facet normal -0.914987 -0.36295 -0.176256
  outer loop
   vertex -0.0271272 -0.0704633 0.00694271
   vertex -0.0289943 -0.0749392 0.025852
   vertex -0.0347322 -0.062321 0.0296549
  endloop
 endfacet
 facet normal -0.347951 -0.904023 -0.24834
  outer loop
   vertex -0.0289943 -0.0749392 0.025852
   vertex -0.0271272 -0.0704633 0.00694271
   vertex 0.00275011 -0.0816853 0.00593218
  endloop
 endfacet
 facet normal -0.350771 -0.901439 -0.253709
  outer loop
   vertex 0.00275011 -0.0816853 0.00593218
   vertex 0.00335877 -0.0875285 0.025852
   vertex -0.0289943 -0.0749392 0.025852
  endloop
 endfacet
 facet normal -0.908405 -0.417561 0.0210602
  outer loop
   vertex -0.033882 -0.06262 0.0604008
   vertex -0.0347322 -0.062321 0.0296549
   vertex -0.0289943 -0.0733637 0.0582051
  endloop
 endfacet
 facet normal -0.907783 -0.418943 0.0204005
  outer loop
   vertex -0.0289943 -0.0733637 0.0582051
   vertex -0.0347322 -0.062321 0.0296549
   vertex -0.0289943 -0.0749392 0.025852
  endloop
 endfacet
 facet normal -0.39921 -0.915774 0.0445938
  outer loop
   vertex -0.0289943 -0.0733637 0.0582051
   vertex -0.0289943 -0.0749392 0.025852
   vertex 0.00335877 -0.0874673 0.0582051
  endloop
 endfacet
 facet normal -0.362635 -0.931929 0.00176348
  outer loop
   vertex 0.00335877 -0.0874673 0.0582051
   vertex -0.0289943 -0.0749392 0.025852
   vertex 0.00335877 -0.0875285 0.025852
  endloop
 endfacet
 facet normal -0.998054 -0.0607445 0.0140847
  outer loop
   vertex -0.0343863 -0.0293131 0.0477939
   vertex -0.0347726 -0.029322 0.020386
   vertex -0.0330925 -0.0597548 0.00818462
  endloop
 endfacet
 facet normal -0.996325 0.0490322 -0.0702278
  outer loop
   vertex -0.0330925 -0.0597548 0.00818462
   vertex -0.0347322 -0.062321 0.0296549
   vertex -0.0343863 -0.0293131 0.0477939
  endloop
 endfacet
 facet normal -0.996387 0.053124 -0.0662646
  outer loop
   vertex -0.0344248 -0.000622215 0.0381653
   vertex -0.0330478 -0.0015792 0.0166925
   vertex -0.0347726 -0.029322 0.020386
  endloop
 endfacet
 facet normal -0.999895 0.00338776 0.0140898
  outer loop
   vertex -0.0347726 -0.029322 0.020386
   vertex -0.0343863 -0.0293131 0.0477939
   vertex -0.0344248 -0.000622215 0.0381653
  endloop
 endfacet
 facet normal -0.999623 -0.00491996 0.0269949
  outer loop
   vertex -0.0336617 -0.0293631 0.0746184
   vertex -0.0343863 -0.0293131 0.0477939
   vertex -0.033882 -0.06262 0.0604008
  endloop
 endfacet
 facet normal -0.999608 -0.00469169 0.0275974
  outer loop
   vertex -0.033882 -0.06262 0.0604008
   vertex -0.0343863 -0.0293131 0.0477939
   vertex -0.0347322 -0.062321 0.0296549
  endloop
 endfacet
 facet normal -0.99984 -0.00463595 0.0172756
  outer loop
   vertex -0.0339276 -0.000489542 0.0669753
   vertex -0.0344248 -0.000622215 0.0381653
   vertex -0.0336617 -0.0293631 0.0746184
  endloop
 endfacet
 facet normal -0.999605 0.00772679 0.0270179
  outer loop
   vertex -0.0336617 -0.0293631 0.0746184
   vertex -0.0344248 -0.000622215 0.0381653
   vertex -0.0343863 -0.0293131 0.0477939
  endloop
 endfacet
 facet normal -0.880046 -0.474593 0.0167363
  outer loop
   vertex -0.0328219 -0.0635222 0.0905582
   vertex -0.033882 -0.06262 0.0604008
   vertex -0.0289943 -0.0706197 0.0905582
  endloop
 endfacet
 facet normal -0.906896 -0.419848 0.0356098
  outer loop
   vertex -0.0289943 -0.0706197 0.0905582
   vertex -0.033882 -0.06262 0.0604008
   vertex -0.0289943 -0.0733637 0.0582051
  endloop
 endfacet
 facet normal -0.43314 -0.898102 0.0761735
  outer loop
   vertex -0.0289943 -0.0706197 0.0905582
   vertex -0.0289943 -0.0733637 0.0582051
   vertex 0.00335877 -0.0862231 0.0905582
  endloop
 endfacet
 facet normal -0.399359 -0.916117 0.0352319
  outer loop
   vertex 0.00335877 -0.0862231 0.0905582
   vertex -0.0289943 -0.0733637 0.0582051
   vertex 0.00335877 -0.0874673 0.0582051
  endloop
 endfacet
 facet normal -0.915794 -0.399995 0.036412
  outer loop
   vertex -0.0317063 -0.0630933 0.123327
   vertex -0.0328219 -0.0635222 0.0905582
   vertex -0.0289943 -0.0693403 0.122911
  endloop
 endfacet
 facet normal -0.880014 -0.474576 0.018767
  outer loop
   vertex -0.0289943 -0.0693403 0.122911
   vertex -0.0328219 -0.0635222 0.0905582
   vertex -0.0289943 -0.0706197 0.0905582
  endloop
 endfacet
 facet normal -0.461784 -0.8863 0.0350486
  outer loop
   vertex -0.0289943 -0.0693403 0.122911
   vertex -0.0289943 -0.0706197 0.0905582
   vertex 0.00335877 -0.086197 0.122911
  endloop
 endfacet
 facet normal -0.434402 -0.900719 0.000724954
  outer loop
   vertex 0.00335877 -0.086197 0.122911
   vertex -0.0289943 -0.0706197 0.0905582
   vertex 0.00335877 -0.0862231 0.0905582
  endloop
 endfacet
 facet normal -0.999624 -0.0049125 0.0269774
  outer loop
   vertex -0.0329567 -0.0295726 0.100702
   vertex -0.0336617 -0.0293631 0.0746184
   vertex -0.033882 -0.06262 0.0604008
  endloop
 endfacet
 facet normal -0.999295 -0.0143359 0.0346972
  outer loop
   vertex -0.033882 -0.06262 0.0604008
   vertex -0.0328219 -0.0635222 0.0905582
   vertex -0.0329567 -0.0295726 0.100702
  endloop
 endfacet
 facet normal -0.999633 -0.00205982 0.0270005
  outer loop
   vertex -0.0331705 -3.91533e-05 0.0950397
   vertex -0.0339276 -0.000489542 0.0669753
   vertex -0.0336617 -0.0293631 0.0746184
  endloop
 endfacet
 facet normal -0.999633 -0.0020599 0.0270006
  outer loop
   vertex -0.0336617 -0.0293631 0.0746184
   vertex -0.0329567 -0.0295726 0.100702
   vertex -0.0331705 -3.91533e-05 0.0950397
  endloop
 endfacet
 facet normal -0.99956 -0.012068 0.0271032
  outer loop
   vertex -0.0322038 -0.0296425 0.128437
   vertex -0.0329567 -0.0295726 0.100702
   vertex -0.0328219 -0.0635222 0.0905582
  endloop
 endfacet
 facet normal -0.99921 -0.0200987 0.0342803
  outer loop
   vertex -0.0328219 -0.0635222 0.0905582
   vertex -0.0317063 -0.0630933 0.123327
   vertex -0.0322038 -0.0296425 0.128437
  endloop
 endfacet
 facet normal -0.999598 -0.00181324 0.0282858
  outer loop
   vertex -0.0323275 0.000255081 0.12485
   vertex -0.0331705 -3.91533e-05 0.0950397
   vertex -0.0329567 -0.0295726 0.100702
  endloop
 endfacet
 facet normal -0.999631 -0.000879481 0.0271333
  outer loop
   vertex -0.0329567 -0.0295726 0.100702
   vertex -0.0322038 -0.0296425 0.128437
   vertex -0.0323275 0.000255081 0.12485
  endloop
 endfacet
 facet normal 0.702323 -0.676994 -0.220048
  outer loop
   vertex 0.00335877 -0.0875285 0.025852
   vertex 0.00275011 -0.0816853 0.00593218
   vertex 0.0230161 -0.0604775 0.00536746
  endloop
 endfacet
 facet normal 0.711683 -0.672061 -0.204551
  outer loop
   vertex 0.0230161 -0.0604775 0.00536746
   vertex 0.0260286 -0.0635222 0.025852
   vertex 0.00335877 -0.0875285 0.025852
  endloop
 endfacet
 facet normal 0.727056 -0.686577 0.0012992
  outer loop
   vertex 0.00335877 -0.0874673 0.0582051
   vertex 0.00335877 -0.0875285 0.025852
   vertex 0.0260286 -0.0635222 0.025852
  endloop
 endfacet
 facet normal 0.719379 -0.694546 -0.0099777
  outer loop
   vertex 0.0260286 -0.0635222 0.025852
   vertex 0.0264773 -0.0635222 0.0582051
   vertex 0.00335877 -0.0874673 0.0582051
  endloop
 endfacet
 facet normal 0.973492 -0.15684 -0.166475
  outer loop
   vertex 0.0260286 -0.0635222 0.025852
   vertex 0.0230161 -0.0604775 0.00536746
   vertex 0.0282816 -0.0301982 0.00763192
  endloop
 endfacet
 facet normal 0.981952 -0.137433 -0.129936
  outer loop
   vertex 0.0282816 -0.0301982 0.00763192
   vertex 0.0308967 -0.0309695 0.0282106
   vertex 0.0260286 -0.0635222 0.025852
  endloop
 endfacet
 facet normal 0.991008 -0.0406981 -0.127461
  outer loop
   vertex 0.0308967 -0.0309695 0.0282106
   vertex 0.0282816 -0.0301982 0.00763192
   vertex 0.0295589 -0.000555215 0.00809756
  endloop
 endfacet
 facet normal 0.987929 -0.0528392 -0.145615
  outer loop
   vertex 0.0295589 -0.000555215 0.00809756
   vertex 0.0324339 0.00101049 0.0270352
   vertex 0.0308967 -0.0309695 0.0282106
  endloop
 endfacet
 facet normal 0.989054 -0.146916 -0.0137181
  outer loop
   vertex 0.0264773 -0.0635222 0.0582051
   vertex 0.0260286 -0.0635222 0.025852
   vertex 0.0308967 -0.0309695 0.0282106
  endloop
 endfacet
 facet normal 0.988005 -0.15305 -0.0205298
  outer loop
   vertex 0.0308967 -0.0309695 0.0282106
   vertex 0.0314891 -0.031169 0.0582051
   vertex 0.0264773 -0.0635222 0.0582051
  endloop
 endfacet
 facet normal 0.99861 -0.0487375 -0.0200455
  outer loop
   vertex 0.0314891 -0.031169 0.0582051
   vertex 0.0308967 -0.0309695 0.0282106
   vertex 0.0324339 0.00101049 0.0270352
  endloop
 endfacet
 facet normal 0.999496 -0.0316617 -0.00238971
  outer loop
   vertex 0.0324339 0.00101049 0.0270352
   vertex 0.0325139 0.00118406 0.0582051
   vertex 0.0314891 -0.031169 0.0582051
  endloop
 endfacet
 facet normal 0.719158 -0.694333 0.0267026
  outer loop
   vertex 0.00335877 -0.0862231 0.0905582
   vertex 0.00335877 -0.0874673 0.0582051
   vertex 0.0264773 -0.0635222 0.0582051
  endloop
 endfacet
 facet normal 0.704866 -0.709315 0.00597739
  outer loop
   vertex 0.0264773 -0.0635222 0.0582051
   vertex 0.0262029 -0.0635222 0.0905582
   vertex 0.00335877 -0.0862231 0.0905582
  endloop
 endfacet
 facet normal 0.704879 -0.709328 0.000570911
  outer loop
   vertex 0.00335877 -0.086197 0.122911
   vertex 0.00335877 -0.0862231 0.0905582
   vertex 0.0262029 -0.0635222 0.0905582
  endloop
 endfacet
 facet normal 0.703984 -0.710216 -0.000683498
  outer loop
   vertex 0.0262029 -0.0635222 0.0905582
   vertex 0.0262344 -0.0635222 0.122911
   vertex 0.00335877 -0.086197 0.122911
  endloop
 endfacet
 facet normal 0.988179 -0.153077 0.00837993
  outer loop
   vertex 0.0262029 -0.0635222 0.0905582
   vertex 0.0264773 -0.0635222 0.0582051
   vertex 0.0314891 -0.031169 0.0582051
  endloop
 endfacet
 facet normal 0.986624 -0.163001 -0.00179768
  outer loop
   vertex 0.0314891 -0.031169 0.0582051
   vertex 0.031548 -0.031169 0.0905582
   vertex 0.0262029 -0.0635222 0.0905582
  endloop
 endfacet
 facet normal 0.999497 -0.0316618 -0.00182113
  outer loop
   vertex 0.031548 -0.031169 0.0905582
   vertex 0.0314891 -0.031169 0.0582051
   vertex 0.0325139 0.00118406 0.0582051
  endloop
 endfacet
 facet normal 0.999528 -0.0307208 -0.00087929
  outer loop
   vertex 0.0325139 0.00118406 0.0582051
   vertex 0.0325424 0.00118406 0.0905582
   vertex 0.031548 -0.031169 0.0905582
  endloop
 endfacet
 facet normal 0.986625 -0.163001 -0.000957915
  outer loop
   vertex 0.0262344 -0.0635222 0.122911
   vertex 0.0262029 -0.0635222 0.0905582
   vertex 0.031548 -0.031169 0.0905582
  endloop
 endfacet
 facet normal 0.985245 -0.170908 -0.00909155
  outer loop
   vertex 0.031548 -0.031169 0.0905582
   vertex 0.0318466 -0.031169 0.122911
   vertex 0.0262344 -0.0635222 0.122911
  endloop
 endfacet
 facet normal 0.999485 -0.0307195 -0.00922295
  outer loop
   vertex 0.0318466 -0.031169 0.122911
   vertex 0.031548 -0.031169 0.0905582
   vertex 0.0325424 0.00118406 0.0905582
  endloop
 endfacet
 facet normal 0.999047 -0.0396852 -0.0181981
  outer loop
   vertex 0.0325424 0.00118406 0.0905582
   vertex 0.0331317 0.00118406 0.122911
   vertex 0.0318466 -0.031169 0.122911
  endloop
 endfacet
 facet normal -0.995627 0.0722314 -0.0592327
  outer loop
   vertex -0.0322588 0.028259 0.0398166
   vertex -0.0310349 0.0263488 0.0169157
   vertex -0.0330478 -0.0015792 0.0166925
  endloop
 endfacet
 facet normal -0.994646 0.078443 -0.0672814
  outer loop
   vertex -0.0330478 -0.0015792 0.0166925
   vertex -0.0344248 -0.000622215 0.0381653
   vertex -0.0322588 0.028259 0.0398166
  endloop
 endfacet
 facet normal -0.991607 0.0646265 -0.111981
  outer loop
   vertex -0.0287924 0.0592964 0.0270332
   vertex -0.0270526 0.0521104 0.00748021
   vertex -0.0322588 0.028259 0.0398166
  endloop
 endfacet
 facet normal -0.989514 0.129634 -0.063694
  outer loop
   vertex -0.0322588 0.028259 0.0398166
   vertex -0.0270526 0.0521104 0.00748021
   vertex -0.0310349 0.0263488 0.0169157
  endloop
 endfacet
 facet normal -0.964971 0.194831 -0.175707
  outer loop
   vertex -0.0272459 0.0658903 0.025852
   vertex -0.0250453 0.0594148 0.00658581
   vertex -0.0287924 0.0592964 0.0270332
  endloop
 endfacet
 facet normal -0.95484 0.241144 -0.173582
  outer loop
   vertex -0.0287924 0.0592964 0.0270332
   vertex -0.0250453 0.0594148 0.00658581
   vertex -0.0270526 0.0521104 0.00748021
  endloop
 endfacet
 facet normal -0.997181 0.0749682 -0.00318172
  outer loop
   vertex -0.0322921 0.0289882 0.0674568
   vertex -0.0322588 0.028259 0.0398166
   vertex -0.0344248 -0.000622215 0.0381653
  endloop
 endfacet
 facet normal -0.998336 0.0551121 0.0169745
  outer loop
   vertex -0.0344248 -0.000622215 0.0381653
   vertex -0.0339276 -0.000489542 0.0669753
   vertex -0.0322921 0.0289882 0.0674568
  endloop
 endfacet
 facet normal -0.993171 0.11601 0.012351
  outer loop
   vertex -0.0285215 0.0580701 0.0603307
   vertex -0.0287924 0.0592964 0.0270332
   vertex -0.0322588 0.028259 0.0398166
  endloop
 endfacet
 facet normal -0.991831 0.127479 -0.00456069
  outer loop
   vertex -0.0322588 0.028259 0.0398166
   vertex -0.0322921 0.0289882 0.0674568
   vertex -0.0285215 0.0580701 0.0603307
  endloop
 endfacet
 facet normal -0.973533 0.228544 0.00128575
  outer loop
   vertex -0.0272032 0.0658903 0.0582051
   vertex -0.0272459 0.0658903 0.025852
   vertex -0.0287924 0.0592964 0.0270332
  endloop
 endfacet
 facet normal -0.985343 0.169984 0.0142752
  outer loop
   vertex -0.0287924 0.0592964 0.0270332
   vertex -0.0285215 0.0580701 0.0603307
   vertex -0.0272032 0.0658903 0.0582051
  endloop
 endfacet
 facet normal -0.53186 0.777033 -0.336666
  outer loop
   vertex 0.00335877 0.0868385 0.025852
   vertex 0.00273455 0.0779182 0.00624998
   vertex -0.0272459 0.0658903 0.025852
  endloop
 endfacet
 facet normal -0.527125 0.785505 -0.324225
  outer loop
   vertex -0.0272459 0.0658903 0.025852
   vertex 0.00273455 0.0779182 0.00624998
   vertex -0.0250453 0.0594148 0.00658581
  endloop
 endfacet
 facet normal -0.564833 0.825205 0.000179774
  outer loop
   vertex 0.00335877 0.0868314 0.0582051
   vertex 0.00335877 0.0868385 0.025852
   vertex -0.0272459 0.0658903 0.025852
  endloop
 endfacet
 facet normal -0.565241 0.824926 0.000746519
  outer loop
   vertex -0.0272459 0.0658903 0.025852
   vertex -0.0272032 0.0658903 0.0582051
   vertex 0.00335877 0.0868314 0.0582051
  endloop
 endfacet
 facet normal -0.997914 0.0548089 0.0341084
  outer loop
   vertex -0.0312776 0.0296071 0.0961465
   vertex -0.0322921 0.0289882 0.0674568
   vertex -0.0339276 -0.000489542 0.0669753
  endloop
 endfacet
 facet normal -0.997694 0.0627375 0.0259083
  outer loop
   vertex -0.0339276 -0.000489542 0.0669753
   vertex -0.0331705 -3.91533e-05 0.0950397
   vertex -0.0312776 0.0296071 0.0961465
  endloop
 endfacet
 facet normal -0.990606 0.134494 0.0247119
  outer loop
   vertex -0.0283842 0.0531749 0.0924757
   vertex -0.0285215 0.0580701 0.0603307
   vertex -0.0322921 0.0289882 0.0674568
  endloop
 endfacet
 facet normal -0.991408 0.126746 0.0323266
  outer loop
   vertex -0.0322921 0.0289882 0.0674568
   vertex -0.0312776 0.0296071 0.0961465
   vertex -0.0283842 0.0531749 0.0924757
  endloop
 endfacet
 facet normal -0.983839 0.175501 0.0355043
  outer loop
   vertex -0.0260357 0.0658903 0.0905582
   vertex -0.0272032 0.0658903 0.0582051
   vertex -0.0285215 0.0580701 0.0603307
  endloop
 endfacet
 facet normal -0.981957 0.186279 0.0325611
  outer loop
   vertex -0.0285215 0.0580701 0.0603307
   vertex -0.0283842 0.0531749 0.0924757
   vertex -0.0260357 0.0658903 0.0905582
  endloop
 endfacet
 facet normal -0.997341 0.062269 0.0378537
  outer loop
   vertex -0.0301327 0.0298667 0.125885
   vertex -0.0312776 0.0296071 0.0961465
   vertex -0.0331705 -3.91533e-05 0.0950397
  endloop
 endfacet
 facet normal -0.996958 0.0729364 0.0274733
  outer loop
   vertex -0.0331705 -3.91533e-05 0.0950397
   vertex -0.0323275 0.000255081 0.12485
   vertex -0.0301327 0.0298667 0.125885
  endloop
 endfacet
 facet normal -0.991195 0.127339 0.0363008
  outer loop
   vertex -0.0279613 0.0472634 0.124761
   vertex -0.0283842 0.0531749 0.0924757
   vertex -0.0312776 0.0296071 0.0961465
  endloop
 endfacet
 facet normal -0.991322 0.126125 0.0370645
  outer loop
   vertex -0.0312776 0.0296071 0.0961465
   vertex -0.0301327 0.0298667 0.125885
   vertex -0.0279613 0.0472634 0.124761
  endloop
 endfacet
 facet normal -0.982246 0.185569 0.0275002
  outer loop
   vertex -0.0251299 0.0658903 0.122911
   vertex -0.0260357 0.0658903 0.0905582
   vertex -0.0283842 0.0531749 0.0924757
  endloop
 endfacet
 facet normal -0.98719 0.154146 0.0411568
  outer loop
   vertex -0.0283842 0.0531749 0.0924757
   vertex -0.0279613 0.0472634 0.124761
   vertex -0.0251299 0.0658903 0.122911
  endloop
 endfacet
 facet normal -0.548962 0.834812 0.0415868
  outer loop
   vertex 0.00335877 0.0852197 0.0905582
   vertex 0.00335877 0.0868314 0.0582051
   vertex -0.0260357 0.0658903 0.0905582
  endloop
 endfacet
 facet normal -0.565123 0.824754 0.0203939
  outer loop
   vertex -0.0260357 0.0658903 0.0905582
   vertex 0.00335877 0.0868314 0.0582051
   vertex -0.0272032 0.0658903 0.0582051
  endloop
 endfacet
 facet normal -0.549328 0.835368 0.0200064
  outer loop
   vertex 0.00335877 0.0844449 0.122911
   vertex 0.00335877 0.0852197 0.0905582
   vertex -0.0260357 0.0658903 0.0905582
  endloop
 endfacet
 facet normal -0.545689 0.837848 0.0152778
  outer loop
   vertex -0.0260357 0.0658903 0.0905582
   vertex -0.0251299 0.0658903 0.122911
   vertex 0.00335877 0.0844449 0.122911
  endloop
 endfacet
 facet normal 0.988253 -0.0438119 -0.146411
  outer loop
   vertex 0.0324339 0.00101049 0.0270352
   vertex 0.0295589 -0.000555215 0.00809756
   vertex 0.0311469 0.0284276 0.0101439
  endloop
 endfacet
 facet normal 0.990764 -0.0343145 -0.131186
  outer loop
   vertex 0.0311469 0.0284276 0.0101439
   vertex 0.0339135 0.0319227 0.0301235
   vertex 0.0324339 0.00101049 0.0270352
  endloop
 endfacet
 facet normal 0.987754 0.0542926 -0.14627
  outer loop
   vertex 0.0339135 0.0319227 0.0301235
   vertex 0.0311469 0.0284276 0.0101439
   vertex 0.0314139 0.0658903 0.025852
  endloop
 endfacet
 facet normal 0.978678 0.0734552 -0.191817
  outer loop
   vertex 0.0314139 0.0658903 0.025852
   vertex 0.0311469 0.0284276 0.0101439
   vertex 0.0279425 0.0597995 0.00580819
  endloop
 endfacet
 facet normal 0.998865 -0.0475785 -0.00229945
  outer loop
   vertex 0.0325139 0.00118406 0.0582051
   vertex 0.0324339 0.00101049 0.0270352
   vertex 0.0339135 0.0319227 0.0301235
  endloop
 endfacet
 facet normal 0.996026 -0.0803865 -0.0383531
  outer loop
   vertex 0.0339135 0.0319227 0.0301235
   vertex 0.0351251 0.0335372 0.0582051
   vertex 0.0325139 0.00118406 0.0582051
  endloop
 endfacet
 facet normal 0.993609 0.101822 -0.0487246
  outer loop
   vertex 0.0351251 0.0335372 0.0582051
   vertex 0.0339135 0.0319227 0.0301235
   vertex 0.0318096 0.0658903 0.0582051
  endloop
 endfacet
 facet normal 0.99734 0.0718576 -0.0121995
  outer loop
   vertex 0.0318096 0.0658903 0.0582051
   vertex 0.0339135 0.0319227 0.0301235
   vertex 0.0314139 0.0658903 0.025852
  endloop
 endfacet
 facet normal 0.565215 0.756971 -0.327912
  outer loop
   vertex 0.0314139 0.0658903 0.025852
   vertex 0.0279425 0.0597995 0.00580819
   vertex 0.00335877 0.0868385 0.025852
  endloop
 endfacet
 facet normal 0.53966 0.75966 -0.362882
  outer loop
   vertex 0.00335877 0.0868385 0.025852
   vertex 0.0279425 0.0597995 0.00580819
   vertex 0.00273455 0.0779182 0.00624998
  endloop
 endfacet
 facet normal 0.592768 0.805341 -0.00725077
  outer loop
   vertex 0.0318096 0.0658903 0.0582051
   vertex 0.0314139 0.0658903 0.025852
   vertex 0.00335877 0.0868314 0.0582051
  endloop
 endfacet
 facet normal 0.598296 0.801275 0.000174561
  outer loop
   vertex 0.00335877 0.0868314 0.0582051
   vertex 0.0314139 0.0658903 0.025852
   vertex 0.00335877 0.0868385 0.025852
  endloop
 endfacet
 facet normal 0.996759 -0.0804457 -0.000876854
  outer loop
   vertex 0.0325424 0.00118406 0.0905582
   vertex 0.0325139 0.00118406 0.0582051
   vertex 0.0351251 0.0335372 0.0582051
  endloop
 endfacet
 facet normal 0.99718 -0.074899 0.00470349
  outer loop
   vertex 0.0351251 0.0335372 0.0582051
   vertex 0.0349725 0.0335372 0.0905582
   vertex 0.0325424 0.00118406 0.0905582
  endloop
 endfacet
 facet normal 0.994779 0.101942 0.00469216
  outer loop
   vertex 0.0349725 0.0335372 0.0905582
   vertex 0.0351251 0.0335372 0.0582051
   vertex 0.0318096 0.0658903 0.0582051
  endloop
 endfacet
 facet normal 0.99239 0.120811 0.0237939
  outer loop
   vertex 0.0318096 0.0658903 0.0582051
   vertex 0.0310339 0.0658903 0.0905582
   vertex 0.0349725 0.0335372 0.0905582
  endloop
 endfacet
 facet normal 0.997027 -0.0748874 -0.0181613
  outer loop
   vertex 0.0331317 0.00118406 0.122911
   vertex 0.0325424 0.00118406 0.0905582
   vertex 0.0349725 0.0335372 0.0905582
  endloop
 endfacet
 facet normal 0.997755 -0.0662848 -0.00951718
  outer loop
   vertex 0.0349725 0.0335372 0.0905582
   vertex 0.0352811 0.0335372 0.122911
   vertex 0.0331317 0.00118406 0.122911
  endloop
 endfacet
 facet normal 0.992627 0.120839 -0.00946826
  outer loop
   vertex 0.0352811 0.0335372 0.122911
   vertex 0.0349725 0.0335372 0.0905582
   vertex 0.0310339 0.0658903 0.0905582
  endloop
 endfacet
 facet normal 0.990568 0.136851 0.00681341
  outer loop
   vertex 0.0310339 0.0658903 0.0905582
   vertex 0.0308114 0.0658903 0.122911
   vertex 0.0352811 0.0335372 0.122911
  endloop
 endfacet
 facet normal 0.57255 0.819755 0.0137277
  outer loop
   vertex 0.0310339 0.0658903 0.0905582
   vertex 0.0318096 0.0658903 0.0582051
   vertex 0.00335877 0.0852197 0.0905582
  endloop
 endfacet
 facet normal 0.592307 0.804715 0.0400875
  outer loop
   vertex 0.00335877 0.0852197 0.0905582
   vertex 0.0318096 0.0658903 0.0582051
   vertex 0.00335877 0.0868314 0.0582051
  endloop
 endfacet
 facet normal 0.559968 0.828505 0.00385162
  outer loop
   vertex 0.0308114 0.0658903 0.122911
   vertex 0.0310339 0.0658903 0.0905582
   vertex 0.00335877 0.0844449 0.122911
  endloop
 endfacet
 facet normal 0.572493 0.819674 0.0196305
  outer loop
   vertex 0.00335877 0.0844449 0.122911
   vertex 0.0310339 0.0658903 0.0905582
   vertex 0.00335877 0.0852197 0.0905582
  endloop
 endfacet
 facet normal -0.914537 -0.400706 0.05529
  outer loop
   vertex -0.0306296 -0.0610634 0.155847
   vertex -0.0317063 -0.0630933 0.123327
   vertex -0.0289943 -0.0693403 0.122911
  endloop
 endfacet
 facet normal -0.984081 -0.177671 -0.00421146
  outer loop
   vertex -0.0289943 -0.0693403 0.122911
   vertex -0.0289943 -0.0701071 0.155264
   vertex -0.0306296 -0.0610634 0.155847
  endloop
 endfacet
 facet normal -0.461966 -0.886649 -0.0210169
  outer loop
   vertex -0.0289943 -0.0701071 0.155264
   vertex -0.0289943 -0.0693403 0.122911
   vertex 0.00335877 -0.086197 0.122911
  endloop
 endfacet
 facet normal -0.483061 -0.874255 -0.0482759
  outer loop
   vertex 0.00335877 -0.086197 0.122911
   vertex 0.00335877 -0.0879835 0.155264
   vertex -0.0289943 -0.0701071 0.155264
  endloop
 endfacet
 facet normal -0.995877 -0.0841207 0.0339499
  outer loop
   vertex -0.0295397 -0.0615411 0.186637
   vertex -0.0306296 -0.0610634 0.155847
   vertex -0.0289943 -0.0676011 0.187618
  endloop
 endfacet
 facet normal -0.983791 -0.178783 0.0138482
  outer loop
   vertex -0.0289943 -0.0676011 0.187618
   vertex -0.0306296 -0.0610634 0.155847
   vertex -0.0289943 -0.0701071 0.155264
  endloop
 endfacet
 facet normal -0.546312 -0.83508 0.0646839
  outer loop
   vertex -0.0289943 -0.0676011 0.187618
   vertex -0.0289943 -0.0701071 0.155264
   vertex 0.00335877 -0.0887666 0.187618
  endloop
 endfacet
 facet normal -0.483516 -0.875079 -0.0211811
  outer loop
   vertex 0.00335877 -0.0887666 0.187618
   vertex -0.0289943 -0.0701071 0.155264
   vertex 0.00335877 -0.0879835 0.155264
  endloop
 endfacet
 facet normal -0.99928 -0.0258486 0.0277595
  outer loop
   vertex -0.0314214 -0.0293782 0.15685
   vertex -0.0322038 -0.0296425 0.128437
   vertex -0.0306296 -0.0610634 0.155847
  endloop
 endfacet
 facet normal -0.999208 -0.0201073 0.0343366
  outer loop
   vertex -0.0306296 -0.0610634 0.155847
   vertex -0.0322038 -0.0296425 0.128437
   vertex -0.0317063 -0.0630933 0.123327
  endloop
 endfacet
 facet normal -0.999413 -2.47431e-05 0.0342504
  outer loop
   vertex -0.031255 -0.000538301 0.156144
   vertex -0.0323275 0.000255081 0.12485
   vertex -0.0322038 -0.0296425 0.128437
  endloop
 endfacet
 facet normal -0.999602 0.00643825 0.0274679
  outer loop
   vertex -0.0322038 -0.0296425 0.128437
   vertex -0.0314214 -0.0293782 0.15685
   vertex -0.031255 -0.000538301 0.156144
  endloop
 endfacet
 facet normal -0.999177 -0.0259542 0.0311812
  outer loop
   vertex -0.0305411 -0.0296585 0.184825
   vertex -0.0314214 -0.0293782 0.15685
   vertex -0.0306296 -0.0610634 0.155847
  endloop
 endfacet
 facet normal -0.998958 -0.0293936 0.034908
  outer loop
   vertex -0.0306296 -0.0610634 0.155847
   vertex -0.0295397 -0.0615411 0.186637
   vertex -0.0305411 -0.0296585 0.184825
  endloop
 endfacet
 facet normal -0.999316 0.0104345 0.0354698
  outer loop
   vertex -0.0301989 -0.000451514 0.185874
   vertex -0.031255 -0.000538301 0.156144
   vertex -0.0305411 -0.0296585 0.184825
  endloop
 endfacet
 facet normal -0.999482 0.00653671 0.0315164
  outer loop
   vertex -0.0305411 -0.0296585 0.184825
   vertex -0.031255 -0.000538301 0.156144
   vertex -0.0314214 -0.0293782 0.15685
  endloop
 endfacet
 facet normal -0.995927 -0.0845562 0.0312878
  outer loop
   vertex -0.0289943 -0.0676011 0.187618
   vertex -0.0289943 -0.0635222 0.198641
   vertex -0.0295397 -0.0615411 0.186637
  endloop
 endfacet
 facet normal -0.541872 -0.836514 0.0813565
  outer loop
   vertex -0.0257919 -0.0635222 0.219971
   vertex -0.0289943 -0.0635222 0.198641
   vertex 0.00335877 -0.0824052 0.219971
  endloop
 endfacet
 facet normal -0.573398 -0.803884 0.158064
  outer loop
   vertex 0.00335877 -0.0824052 0.219971
   vertex -0.0289943 -0.0635222 0.198641
   vertex 0.00335877 -0.0887666 0.187618
  endloop
 endfacet
 facet normal -0.522961 -0.799386 0.295792
  outer loop
   vertex 0.00335877 -0.0887666 0.187618
   vertex -0.0289943 -0.0635222 0.198641
   vertex -0.0289943 -0.0676011 0.187618
  endloop
 endfacet
 facet normal -0.455958 -0.703886 0.544653
  outer loop
   vertex -0.0177355 -0.0556471 0.236892
   vertex -0.0257919 -0.0635222 0.219971
   vertex 0.00335877 -0.0824052 0.219971
  endloop
 endfacet
 facet normal -0.3899 -0.691758 0.607823
  outer loop
   vertex 0.00335877 -0.0824052 0.219971
   vertex 0.00201091 -0.0653789 0.238483
   vertex -0.0177355 -0.0556471 0.236892
  endloop
 endfacet
 facet normal -0.998754 -0.0290652 0.0405739
  outer loop
   vertex -0.0295397 -0.0615411 0.186637
   vertex -0.0289943 -0.0635222 0.198641
   vertex -0.0305411 -0.0296585 0.184825
  endloop
 endfacet
 facet normal -0.998525 -0.0262138 0.0475371
  outer loop
   vertex -0.0305411 -0.0296585 0.184825
   vertex -0.0289943 -0.0635222 0.198641
   vertex -0.0289943 -0.031169 0.216482
  endloop
 endfacet
 facet normal -0.98252 -0.0790799 0.168526
  outer loop
   vertex -0.0283959 -0.031169 0.219971
   vertex -0.0289943 -0.031169 0.216482
   vertex -0.0257919 -0.0635222 0.219971
  endloop
 endfacet
 facet normal -0.985618 -0.0816021 0.147981
  outer loop
   vertex -0.0257919 -0.0635222 0.219971
   vertex -0.0289943 -0.031169 0.216482
   vertex -0.0289943 -0.0635222 0.198641
  endloop
 endfacet
 facet normal -0.998504 0.02243 0.0498571
  outer loop
   vertex -0.0305411 -0.0296585 0.184825
   vertex -0.0289943 -0.031169 0.216482
   vertex -0.0286643 0.00090098 0.208663
  endloop
 endfacet
 facet normal -0.997734 0.00929656 0.0666331
  outer loop
   vertex -0.0286643 0.00090098 0.208663
   vertex -0.0301989 -0.000451514 0.185874
   vertex -0.0305411 -0.0296585 0.184825
  endloop
 endfacet
 facet normal -0.992784 0.0379497 0.113753
  outer loop
   vertex -0.0273579 0.00118406 0.219971
   vertex -0.0286643 0.00090098 0.208663
   vertex -0.0289943 -0.031169 0.216482
  endloop
 endfacet
 facet normal -0.985114 0.0316072 0.168971
  outer loop
   vertex -0.0289943 -0.031169 0.216482
   vertex -0.0283959 -0.031169 0.219971
   vertex -0.0273579 0.00118406 0.219971
  endloop
 endfacet
 facet normal -0.89084 -0.0717009 0.448624
  outer loop
   vertex -0.0204211 -0.02896 0.236159
   vertex -0.0283959 -0.031169 0.219971
   vertex -0.0257919 -0.0635222 0.219971
  endloop
 endfacet
 facet normal -0.885938 -0.0765902 0.457436
  outer loop
   vertex -0.0257919 -0.0635222 0.219971
   vertex -0.0177355 -0.0556471 0.236892
   vertex -0.0204211 -0.02896 0.236159
  endloop
 endfacet
 facet normal -0.900509 0.0288927 0.433877
  outer loop
   vertex -0.019605 -0.00261033 0.236314
   vertex -0.0273579 0.00118406 0.219971
   vertex -0.0283959 -0.031169 0.219971
  endloop
 endfacet
 facet normal -0.898137 0.0252359 0.438991
  outer loop
   vertex -0.0283959 -0.031169 0.219971
   vertex -0.0204211 -0.02896 0.236159
   vertex -0.019605 -0.00261033 0.236314
  endloop
 endfacet
 facet normal 0.71963 -0.693301 -0.0382838
  outer loop
   vertex 0.00335877 -0.0879835 0.155264
   vertex 0.00335877 -0.086197 0.122911
   vertex 0.0269252 -0.0635222 0.155264
  endloop
 endfacet
 facet normal 0.703904 -0.710136 -0.0150301
  outer loop
   vertex 0.0269252 -0.0635222 0.155264
   vertex 0.00335877 -0.086197 0.122911
   vertex 0.0262344 -0.0635222 0.122911
  endloop
 endfacet
 facet normal 0.732438 -0.680635 -0.0164746
  outer loop
   vertex 0.00335877 -0.0887666 0.187618
   vertex 0.00335877 -0.0879835 0.155264
   vertex 0.0268178 -0.0635222 0.187618
  endloop
 endfacet
 facet normal 0.720156 -0.693808 0.00239048
  outer loop
   vertex 0.0268178 -0.0635222 0.187618
   vertex 0.00335877 -0.0879835 0.155264
   vertex 0.0269252 -0.0635222 0.155264
  endloop
 endfacet
 facet normal 0.985068 -0.170877 -0.0210336
  outer loop
   vertex 0.0269252 -0.0635222 0.155264
   vertex 0.0262344 -0.0635222 0.122911
   vertex 0.0318466 -0.031169 0.122911
  endloop
 endfacet
 facet normal 0.986184 -0.164978 -0.014965
  outer loop
   vertex 0.0318466 -0.031169 0.122911
   vertex 0.0323375 -0.031169 0.155264
   vertex 0.0269252 -0.0635222 0.155264
  endloop
 endfacet
 facet normal 0.999097 -0.0396872 -0.015161
  outer loop
   vertex 0.0323375 -0.031169 0.155264
   vertex 0.0318466 -0.031169 0.122911
   vertex 0.0331317 0.00118406 0.122911
  endloop
 endfacet
 facet normal 0.998366 -0.0507602 -0.026252
  outer loop
   vertex 0.0331317 0.00118406 0.122911
   vertex 0.0339825 0.00118406 0.155264
   vertex 0.0323375 -0.031169 0.155264
  endloop
 endfacet
 facet normal 0.986289 -0.164996 0.00327388
  outer loop
   vertex 0.0268178 -0.0635222 0.187618
   vertex 0.0269252 -0.0635222 0.155264
   vertex 0.0323375 -0.031169 0.155264
  endloop
 endfacet
 facet normal 0.987985 -0.15385 0.0147093
  outer loop
   vertex 0.0323375 -0.031169 0.155264
   vertex 0.0318558 -0.031169 0.187618
   vertex 0.0268178 -0.0635222 0.187618
  endloop
 endfacet
 facet normal 0.998491 -0.052866 0.0148657
  outer loop
   vertex 0.0318558 -0.031169 0.187618
   vertex 0.0323375 -0.031169 0.155264
   vertex 0.0335688 0.00118406 0.187618
  endloop
 endfacet
 facet normal 0.998629 -0.0507736 0.0127681
  outer loop
   vertex 0.0335688 0.00118406 0.187618
   vertex 0.0323375 -0.031169 0.155264
   vertex 0.0339825 0.00118406 0.155264
  endloop
 endfacet
 facet normal 0.726062 -0.67471 0.132665
  outer loop
   vertex 0.00335877 -0.0824052 0.219971
   vertex 0.00335877 -0.0887666 0.187618
   vertex 0.0268178 -0.0635222 0.187618
  endloop
 endfacet
 facet normal 0.705292 -0.701549 0.101941
  outer loop
   vertex 0.0268178 -0.0635222 0.187618
   vertex 0.0221416 -0.0635222 0.219971
   vertex 0.00335877 -0.0824052 0.219971
  endloop
 endfacet
 facet normal 0.580766 -0.577684 0.573579
  outer loop
   vertex 0.00201091 -0.0653789 0.238483
   vertex 0.00335877 -0.0824052 0.219971
   vertex 0.0221416 -0.0635222 0.219971
  endloop
 endfacet
 facet normal 0.51884 -0.697533 0.49422
  outer loop
   vertex 0.0221416 -0.0635222 0.219971
   vertex 0.0125807 -0.056902 0.239351
   vertex 0.00201091 -0.0653789 0.238483
  endloop
 endfacet
 facet normal 0.975426 -0.169316 0.140985
  outer loop
   vertex 0.0221416 -0.0635222 0.219971
   vertex 0.0268178 -0.0635222 0.187618
   vertex 0.0277575 -0.031169 0.219971
  endloop
 endfacet
 facet normal 0.980441 -0.152675 0.124198
  outer loop
   vertex 0.0277575 -0.031169 0.219971
   vertex 0.0268178 -0.0635222 0.187618
   vertex 0.0318558 -0.031169 0.187618
  endloop
 endfacet
 facet normal 0.990953 -0.0474919 0.125529
  outer loop
   vertex 0.0277575 -0.031169 0.219971
   vertex 0.0318558 -0.031169 0.187618
   vertex 0.029308 0.00118406 0.219971
  endloop
 endfacet
 facet normal 0.990076 -0.0524204 0.130389
  outer loop
   vertex 0.029308 0.00118406 0.219971
   vertex 0.0318558 -0.031169 0.187618
   vertex 0.0335688 0.00118406 0.187618
  endloop
 endfacet
 facet normal 0.84965 -0.200643 0.487686
  outer loop
   vertex 0.0125807 -0.056902 0.239351
   vertex 0.0221416 -0.0635222 0.219971
   vertex 0.0187481 -0.0294702 0.239892
  endloop
 endfacet
 facet normal 0.895051 -0.155365 0.418026
  outer loop
   vertex 0.0187481 -0.0294702 0.239892
   vertex 0.0221416 -0.0635222 0.219971
   vertex 0.0277575 -0.031169 0.219971
  endloop
 endfacet
 facet normal 0.909579 -0.0333438 0.414191
  outer loop
   vertex 0.0187481 -0.0294702 0.239892
   vertex 0.0277575 -0.031169 0.219971
   vertex 0.0197612 -0.0017609 0.239898
  endloop
 endfacet
 facet normal 0.903481 -0.0432998 0.426437
  outer loop
   vertex 0.0197612 -0.0017609 0.239898
   vertex 0.0277575 -0.031169 0.219971
   vertex 0.029308 0.00118406 0.219971
  endloop
 endfacet
 facet normal -0.996788 0.0727111 0.0335621
  outer loop
   vertex -0.0292575 0.0277757 0.156406
   vertex -0.0301327 0.0298667 0.125885
   vertex -0.0323275 0.000255081 0.12485
  endloop
 endfacet
 facet normal -0.9969 0.0699974 0.0359396
  outer loop
   vertex -0.0323275 0.000255081 0.12485
   vertex -0.031255 -0.000538301 0.156144
   vertex -0.0292575 0.0277757 0.156406
  endloop
 endfacet
 facet normal -0.991303 0.12615 0.0374875
  outer loop
   vertex -0.0270051 0.0454541 0.156136
   vertex -0.0279613 0.0472634 0.124761
   vertex -0.0301327 0.0298667 0.125885
  endloop
 endfacet
 facet normal -0.991226 0.126863 0.0371124
  outer loop
   vertex -0.0301327 0.0298667 0.125885
   vertex -0.0292575 0.0277757 0.156406
   vertex -0.0270051 0.0454541 0.156136
  endloop
 endfacet
 facet normal -0.987997 0.152579 0.0241349
  outer loop
   vertex -0.0247638 0.0630889 0.155609
   vertex -0.0251299 0.0658903 0.122911
   vertex -0.0279613 0.0472634 0.124761
  endloop
 endfacet
 facet normal -0.99118 0.127095 0.0375383
  outer loop
   vertex -0.0279613 0.0472634 0.124761
   vertex -0.0270051 0.0454541 0.156136
   vertex -0.0247638 0.0630889 0.155609
  endloop
 endfacet
 facet normal -0.996493 0.0698753 0.0460269
  outer loop
   vertex -0.028008 0.0268566 0.184853
   vertex -0.0292575 0.0277757 0.156406
   vertex -0.031255 -0.000538301 0.156144
  endloop
 endfacet
 facet normal -0.996076 0.0812269 0.035148
  outer loop
   vertex -0.031255 -0.000538301 0.156144
   vertex -0.0301989 -0.000451514 0.185874
   vertex -0.028008 0.0268566 0.184853
  endloop
 endfacet
 facet normal -0.99118 0.126875 0.0382669
  outer loop
   vertex -0.0265015 0.0405799 0.185338
   vertex -0.0270051 0.0454541 0.156136
   vertex -0.0292575 0.0277757 0.156406
  endloop
 endfacet
 facet normal -0.993105 0.107355 0.047089
  outer loop
   vertex -0.0292575 0.0277757 0.156406
   vertex -0.028008 0.0268566 0.184853
   vertex -0.0265015 0.0405799 0.185338
  endloop
 endfacet
 facet normal -0.991148 0.127114 0.0383063
  outer loop
   vertex -0.0237723 0.0615127 0.186494
   vertex -0.0247638 0.0630889 0.155609
   vertex -0.0270051 0.0454541 0.156136
  endloop
 endfacet
 facet normal -0.991148 0.127114 0.0383063
  outer loop
   vertex -0.0270051 0.0454541 0.156136
   vertex -0.0265015 0.0405799 0.185338
   vertex -0.0237723 0.0615127 0.186494
  endloop
 endfacet
 facet normal -0.545719 0.837895 -0.0111001
  outer loop
   vertex 0.00335877 0.0848735 0.155264
   vertex 0.00335877 0.0844449 0.122911
   vertex -0.0251299 0.0658903 0.122911
  endloop
 endfacet
 facet normal -0.610121 0.788806 0.0744123
  outer loop
   vertex -0.0251299 0.0658903 0.122911
   vertex -0.0247638 0.0630889 0.155609
   vertex 0.00335877 0.0848735 0.155264
  endloop
 endfacet
 facet normal -0.646438 0.762912 0.00908566
  outer loop
   vertex 0.00335877 0.0844882 0.187618
   vertex 0.00335877 0.0848735 0.155264
   vertex -0.0237723 0.0615127 0.186494
  endloop
 endfacet
 facet normal -0.610831 0.789492 0.0599027
  outer loop
   vertex -0.0237723 0.0615127 0.186494
   vertex 0.00335877 0.0848735 0.155264
   vertex -0.0247638 0.0630889 0.155609
  endloop
 endfacet
 facet normal -0.99422 0.0878314 0.0617356
  outer loop
   vertex -0.0301989 -0.000451514 0.185874
   vertex -0.0286643 0.00090098 0.208663
   vertex -0.0266871 0.0284373 0.20133
  endloop
 endfacet
 facet normal -0.994008 0.08243 0.0717831
  outer loop
   vertex -0.0266871 0.0284373 0.20133
   vertex -0.028008 0.0268566 0.184853
   vertex -0.0301989 -0.000451514 0.185874
  endloop
 endfacet
 facet normal -0.993388 0.0902346 0.0709845
  outer loop
   vertex -0.0255036 0.0298098 0.216148
   vertex -0.0266871 0.0284373 0.20133
   vertex -0.0286643 0.00090098 0.208663
  endloop
 endfacet
 facet normal -0.990497 0.0791808 0.112456
  outer loop
   vertex -0.0286643 0.00090098 0.208663
   vertex -0.0273579 0.00118406 0.219971
   vertex -0.0255036 0.0298098 0.216148
  endloop
 endfacet
 facet normal -0.991901 0.106438 0.0693108
  outer loop
   vertex -0.028008 0.0268566 0.184853
   vertex -0.0266871 0.0284373 0.20133
   vertex -0.0265015 0.0405799 0.185338
  endloop
 endfacet
 facet normal -0.988077 0.123773 0.0915628
  outer loop
   vertex -0.0201217 0.0658903 0.219971
   vertex -0.0237723 0.0615127 0.186494
   vertex -0.0265015 0.0405799 0.185338
  endloop
 endfacet
 facet normal -0.987708 0.129795 0.0870938
  outer loop
   vertex -0.0201217 0.0658903 0.219971
   vertex -0.0265015 0.0405799 0.185338
   vertex -0.0266871 0.0284373 0.20133
  endloop
 endfacet
 facet normal -0.987903 0.140376 0.0659022
  outer loop
   vertex -0.0201217 0.0658903 0.219971
   vertex -0.0266871 0.0284373 0.20133
   vertex -0.0255036 0.0298098 0.216148
  endloop
 endfacet
 facet normal -0.945989 0.102361 0.307614
  outer loop
   vertex -0.0197217 0.0235713 0.236004
   vertex -0.0255036 0.0298098 0.216148
   vertex -0.0273579 0.00118406 0.219971
  endloop
 endfacet
 facet normal -0.903405 0.00105166 0.428787
  outer loop
   vertex -0.0273579 0.00118406 0.219971
   vertex -0.019605 -0.00261033 0.236314
   vertex -0.0197217 0.0235713 0.236004
  endloop
 endfacet
 facet normal -0.870745 0.167003 0.462507
  outer loop
   vertex -0.0127425 0.0524838 0.238704
   vertex -0.0201217 0.0658903 0.219971
   vertex -0.0197217 0.0235713 0.236004
  endloop
 endfacet
 facet normal -0.944852 0.108185 0.309113
  outer loop
   vertex -0.0197217 0.0235713 0.236004
   vertex -0.0201217 0.0658903 0.219971
   vertex -0.0255036 0.0298098 0.216148
  endloop
 endfacet
 facet normal -0.491377 0.859987 0.137737
  outer loop
   vertex 0.00335877 0.0793065 0.219971
   vertex 0.00335877 0.0844882 0.187618
   vertex -0.0201217 0.0658903 0.219971
  endloop
 endfacet
 facet normal -0.645254 0.7634 -0.0294629
  outer loop
   vertex -0.0201217 0.0658903 0.219971
   vertex 0.00335877 0.0844882 0.187618
   vertex -0.0237723 0.0615127 0.186494
  endloop
 endfacet
 facet normal -0.401247 0.674035 0.620223
  outer loop
   vertex 0.00216344 0.0601189 0.24005
   vertex 0.00335877 0.0793065 0.219971
   vertex -0.0127425 0.0524838 0.238704
  endloop
 endfacet
 facet normal -0.384226 0.672456 0.632592
  outer loop
   vertex -0.0127425 0.0524838 0.238704
   vertex 0.00335877 0.0793065 0.219971
   vertex -0.0201217 0.0658903 0.219971
  endloop
 endfacet
 facet normal 0.981937 -0.187439 -0.02582
  outer loop
   vertex 0.0339825 0.00118406 0.155264
   vertex 0.0331317 0.00118406 0.122911
   vertex 0.0357119 0.0102439 0.155264
  endloop
 endfacet
 facet normal 0.996542 -0.0517873 -0.0649715
  outer loop
   vertex 0.0357119 0.0102439 0.155264
   vertex 0.0331317 0.00118406 0.122911
   vertex 0.0357119 0.0335372 0.136698
  endloop
 endfacet
 facet normal 0.997316 -0.0662556 -0.0311633
  outer loop
   vertex 0.0357119 0.0335372 0.136698
   vertex 0.0331317 0.00118406 0.122911
   vertex 0.0352811 0.0335372 0.122911
  endloop
 endfacet
 facet normal 0.999607 -0.0174761 -0.0219252
  outer loop
   vertex 0.0357119 0.0102439 0.155264
   vertex 0.0357119 0.0335372 0.136698
   vertex 0.0361191 0.0335372 0.155264
  endloop
 endfacet
 facet normal 0.984079 0.165281 -0.0653465
  outer loop
   vertex 0.0357119 0.0408777 0.155264
   vertex 0.0357119 0.0335372 0.136698
   vertex 0.0315109 0.0658903 0.155264
  endloop
 endfacet
 facet normal 0.989806 0.140805 -0.021401
  outer loop
   vertex 0.0315109 0.0658903 0.155264
   vertex 0.0357119 0.0335372 0.136698
   vertex 0.0308114 0.0658903 0.122911
  endloop
 endfacet
 facet normal 0.990117 0.136788 -0.0309384
  outer loop
   vertex 0.0308114 0.0658903 0.122911
   vertex 0.0357119 0.0335372 0.136698
   vertex 0.0352811 0.0335372 0.122911
  endloop
 endfacet
 facet normal 0.998225 0.0553787 -0.0218949
  outer loop
   vertex 0.0361191 0.0335372 0.155264
   vertex 0.0357119 0.0335372 0.136698
   vertex 0.0357119 0.0408777 0.155264
  endloop
 endfacet
 facet normal 0.982187 -0.187487 0.0125579
  outer loop
   vertex 0.0335688 0.00118406 0.187618
   vertex 0.0339825 0.00118406 0.155264
   vertex 0.0357119 0.0102439 0.155264
  endloop
 endfacet
 facet normal 0.996969 -0.0603033 0.0491524
  outer loop
   vertex 0.0335688 0.00118406 0.187618
   vertex 0.0357119 0.0102439 0.155264
   vertex 0.0357119 0.0335372 0.183842
  endloop
 endfacet
 facet normal 0.997693 -0.0631927 0.0248035
  outer loop
   vertex 0.0335688 0.00118406 0.187618
   vertex 0.0357119 0.0335372 0.183842
   vertex 0.035618 0.0335372 0.187618
  endloop
 endfacet
 facet normal 0.999746 -0.0174785 0.0142465
  outer loop
   vertex 0.0361191 0.0335372 0.155264
   vertex 0.0357119 0.0335372 0.183842
   vertex 0.0357119 0.0102439 0.155264
  endloop
 endfacet
 facet normal 0.990041 0.138608 0.0246133
  outer loop
   vertex 0.035618 0.0335372 0.187618
   vertex 0.0357119 0.0335372 0.183842
   vertex 0.0310885 0.0658903 0.187618
  endloop
 endfacet
 facet normal 0.989895 0.137342 0.0352783
  outer loop
   vertex 0.0310885 0.0658903 0.187618
   vertex 0.0357119 0.0335372 0.183842
   vertex 0.0357119 0.0408777 0.155264
  endloop
 endfacet
 facet normal 0.986105 0.165621 0.0128742
  outer loop
   vertex 0.0310885 0.0658903 0.187618
   vertex 0.0357119 0.0408777 0.155264
   vertex 0.0315109 0.0658903 0.155264
  endloop
 endfacet
 facet normal 0.998364 0.0553864 0.0142268
  outer loop
   vertex 0.0357119 0.0408777 0.155264
   vertex 0.0357119 0.0335372 0.183842
   vertex 0.0361191 0.0335372 0.155264
  endloop
 endfacet
 facet normal 0.559931 0.828451 -0.0121065
  outer loop
   vertex 0.0315109 0.0658903 0.155264
   vertex 0.0308114 0.0658903 0.122911
   vertex 0.00335877 0.0844449 0.122911
  endloop
 endfacet
 facet normal 0.559045 0.829065 -0.0109831
  outer loop
   vertex 0.00335877 0.0844449 0.122911
   vertex 0.00335877 0.0848735 0.155264
   vertex 0.0315109 0.0658903 0.155264
  endloop
 endfacet
 facet normal 0.559064 0.829093 0.00729889
  outer loop
   vertex 0.0310885 0.0658903 0.187618
   vertex 0.0315109 0.0658903 0.155264
   vertex 0.00335877 0.0848735 0.155264
  endloop
 endfacet
 facet normal 0.556981 0.830466 0.00989018
  outer loop
   vertex 0.00335877 0.0848735 0.155264
   vertex 0.00335877 0.0844882 0.187618
   vertex 0.0310885 0.0658903 0.187618
  endloop
 endfacet
 facet normal 0.988361 -0.0787364 0.130163
  outer loop
   vertex 0.029308 0.00118406 0.219971
   vertex 0.0335688 0.00118406 0.187618
   vertex 0.0318854 0.0335372 0.219971
  endloop
 endfacet
 facet normal 0.99145 -0.0627973 0.114384
  outer loop
   vertex 0.0318854 0.0335372 0.219971
   vertex 0.0335688 0.00118406 0.187618
   vertex 0.035618 0.0335372 0.187618
  endloop
 endfacet
 facet normal 0.98394 0.137754 0.113518
  outer loop
   vertex 0.0318854 0.0335372 0.219971
   vertex 0.035618 0.0335372 0.187618
   vertex 0.0310885 0.0658903 0.187618
  endloop
 endfacet
 facet normal 0.974875 0.169058 0.145046
  outer loop
   vertex 0.0310885 0.0658903 0.187618
   vertex 0.0262749 0.0658903 0.219971
   vertex 0.0318854 0.0335372 0.219971
  endloop
 endfacet
 facet normal 0.903642 -0.067452 0.422944
  outer loop
   vertex 0.0197612 -0.0017609 0.239898
   vertex 0.029308 0.00118406 0.219971
   vertex 0.0222534 0.0253367 0.238895
  endloop
 endfacet
 facet normal 0.901139 -0.071788 0.427545
  outer loop
   vertex 0.0222534 0.0253367 0.238895
   vertex 0.029308 0.00118406 0.219971
   vertex 0.0318854 0.0335372 0.219971
  endloop
 endfacet
 facet normal 0.853964 0.14809 0.498813
  outer loop
   vertex 0.0222534 0.0253367 0.238895
   vertex 0.0318854 0.0335372 0.219971
   vertex 0.0262749 0.0658903 0.219971
  endloop
 endfacet
 facet normal 0.803278 0.184598 0.566275
  outer loop
   vertex 0.0262749 0.0658903 0.219971
   vertex 0.0158706 0.0527787 0.239004
   vertex 0.0222534 0.0253367 0.238895
  endloop
 endfacet
 facet normal 0.555105 0.82767 0.0825908
  outer loop
   vertex 0.0262749 0.0658903 0.219971
   vertex 0.0310885 0.0658903 0.187618
   vertex 0.00335877 0.0844882 0.187618
  endloop
 endfacet
 facet normal 0.500474 0.854857 0.136915
  outer loop
   vertex 0.00335877 0.0844882 0.187618
   vertex 0.00335877 0.0793065 0.219971
   vertex 0.0262749 0.0658903 0.219971
  endloop
 endfacet
 facet normal 0.38104 0.650853 0.656657
  outer loop
   vertex 0.0158706 0.0527787 0.239004
   vertex 0.0262749 0.0658903 0.219971
   vertex 0.00335877 0.0793065 0.219971
  endloop
 endfacet
 facet normal 0.39806 0.651275 0.646057
  outer loop
   vertex 0.00335877 0.0793065 0.219971
   vertex 0.00216344 0.0601189 0.24005
   vertex 0.0158706 0.0527787 0.239004
  endloop
 endfacet
endsolid
