solid ascii
 facet normal -0.0801405 -0.0507664 -0.99549
  outer loop
   vertex 0.00499348 -0.0474002 0.00449323
   vertex 0.00621183 -0.0424341 0.0041419
   vertex 0.006002 -0.056405 0.00487126
  endloop
 endfacet
 facet normal -0.315856 -0.00573673 -0.94879
  outer loop
   vertex -0.0121389 -0.0295263 0.0063228
   vertex -0.00694103 -0.0257964 0.00456985
   vertex -0.00984913 -0.0398462 0.00562291
  endloop
 endfacet
 facet normal -0.0702706 -0.0600865 -0.995717
  outer loop
   vertex -0.00984913 -0.0398462 0.00562291
   vertex -0.00694103 -0.0257964 0.00456985
   vertex 0.00643197 -0.0249363 0.00357417
  endloop
 endfacet
 facet normal -0.0967397 -0.0310606 -0.994825
  outer loop
   vertex -0.00984913 -0.0398462 0.00562291
   vertex 0.00643197 -0.0249363 0.00357417
   vertex 0.00621183 -0.0424341 0.0041419
  endloop
 endfacet
 facet normal -0.0990749 -0.0460168 -0.994015
  outer loop
   vertex -0.00984913 -0.0398462 0.00562291
   vertex 0.00621183 -0.0424341 0.0041419
   vertex 0.00499348 -0.0474002 0.00449323
  endloop
 endfacet
 facet normal -0.0500877 -0.016895 -0.998602
  outer loop
   vertex -0.00998878 0.000146283 0.00380911
   vertex -0.00438385 3.53253e-05 0.00352986
   vertex -0.0047832 -0.00908809 0.00370424
  endloop
 endfacet
 facet normal -0.0229097 -0.0181032 -0.999574
  outer loop
   vertex -0.0047832 -0.00908809 0.00370424
   vertex -0.00438385 3.53253e-05 0.00352986
   vertex 0.00438679 0.000200068 0.00332585
  endloop
 endfacet
 facet normal -0.576244 0.0305258 -0.816708
  outer loop
   vertex -0.0135112 -0.0129156 0.00968697
   vertex -0.00501902 -0.0113683 0.00375301
   vertex -0.00694103 -0.0257964 0.00456985
  endloop
 endfacet
 facet normal -0.409984 0.148395 -0.89994
  outer loop
   vertex -0.00694103 -0.0257964 0.00456985
   vertex -0.0121389 -0.0295263 0.0063228
   vertex -0.0135112 -0.0129156 0.00968697
  endloop
 endfacet
 facet normal -0.0345128 -0.0159564 -0.999277
  outer loop
   vertex 0.00651409 -0.0117143 0.00336021
   vertex 0.00643197 -0.0249363 0.00357417
   vertex -0.00501902 -0.0113683 0.00375301
  endloop
 endfacet
 facet normal -0.0711648 -0.046928 -0.99636
  outer loop
   vertex -0.00501902 -0.0113683 0.00375301
   vertex 0.00643197 -0.0249363 0.00357417
   vertex -0.00694103 -0.0257964 0.00456985
  endloop
 endfacet
 facet normal -0.911399 0.062755 -0.406712
  outer loop
   vertex -0.0140739 0.000498864 0.0130178
   vertex -0.00998878 0.000146283 0.00380911
   vertex -0.0135112 -0.0129156 0.00968697
  endloop
 endfacet
 facet normal -0.468392 -0.254433 -0.846093
  outer loop
   vertex -0.0135112 -0.0129156 0.00968697
   vertex -0.00998878 0.000146283 0.00380911
   vertex -0.0047832 -0.00908809 0.00370424
  endloop
 endfacet
 facet normal -0.577432 0.0422788 -0.815343
  outer loop
   vertex -0.0135112 -0.0129156 0.00968697
   vertex -0.0047832 -0.00908809 0.00370424
   vertex -0.00501902 -0.0113683 0.00375301
  endloop
 endfacet
 facet normal -0.0062492 -0.00399932 -0.999972
  outer loop
   vertex 0.00438679 0.000200068 0.00332585
   vertex 0.00653587 0.000352177 0.00331181
   vertex 0.00651409 -0.0117143 0.00336021
  endloop
 endfacet
 facet normal -0.0324524 -0.00867633 -0.999436
  outer loop
   vertex 0.00438679 0.000200068 0.00332585
   vertex 0.00651409 -0.0117143 0.00336021
   vertex -0.0047832 -0.00908809 0.00370424
  endloop
 endfacet
 facet normal -0.034567 -0.0177977 -0.999244
  outer loop
   vertex -0.0047832 -0.00908809 0.00370424
   vertex 0.00651409 -0.0117143 0.00336021
   vertex -0.00501902 -0.0113683 0.00375301
  endloop
 endfacet
 facet normal -0.992233 -0.075577 0.0988068
  outer loop
   vertex -0.0115413 -0.0494221 0.0200875
   vertex -0.0119711 -0.0509844 0.0145768
   vertex -0.0104197 -0.0630079 0.0209594
  endloop
 endfacet
 facet normal -0.525568 -0.450815 -0.721487
  outer loop
   vertex -0.0104197 -0.0630079 0.0209594
   vertex -0.0119711 -0.0509844 0.0145768
   vertex 0.006002 -0.056405 0.00487126
  endloop
 endfacet
 facet normal -0.691341 -0.0385589 -0.721499
  outer loop
   vertex -0.0104197 -0.0630079 0.0209594
   vertex 0.006002 -0.056405 0.00487126
   vertex 0.00600109 -0.0632026 0.00523541
  endloop
 endfacet
 facet normal -0.687679 -0.115812 -0.716718
  outer loop
   vertex -0.0104197 -0.0630079 0.0209594
   vertex 0.00600109 -0.0632026 0.00523541
   vertex -0.0103722 -0.0635723 0.021005
  endloop
 endfacet
 facet normal -0.494412 -0.0916598 -0.864382
  outer loop
   vertex 0.006002 -0.056405 0.00487126
   vertex -0.0119711 -0.0509844 0.0145768
   vertex 0.00499348 -0.0474002 0.00449323
  endloop
 endfacet
 facet normal -0.975216 -0.212114 -0.0629463
  outer loop
   vertex -0.0128672 -0.0305866 0.0211796
   vertex -0.0121389 -0.0295263 0.0063228
   vertex -0.00984913 -0.0398462 0.00562291
  endloop
 endfacet
 facet normal -0.978805 0.0228737 -0.203511
  outer loop
   vertex -0.0128672 -0.0305866 0.0211796
   vertex -0.00984913 -0.0398462 0.00562291
   vertex -0.0119711 -0.0509844 0.0145768
  endloop
 endfacet
 facet normal -0.992232 -0.0755772 0.0988069
  outer loop
   vertex -0.0128672 -0.0305866 0.0211796
   vertex -0.0119711 -0.0509844 0.0145768
   vertex -0.0115413 -0.0494221 0.0200875
  endloop
 endfacet
 facet normal -0.337926 -0.549736 -0.763935
  outer loop
   vertex 0.00499348 -0.0474002 0.00449323
   vertex -0.0119711 -0.0509844 0.0145768
   vertex -0.00984913 -0.0398462 0.00562291
  endloop
 endfacet
 facet normal -0.992233 -0.0755758 0.0988064
  outer loop
   vertex -0.0100938 -0.0457631 0.037422
   vertex -0.0115413 -0.0494221 0.0200875
   vertex -0.0100196 -0.0467689 0.0373986
  endloop
 endfacet
 facet normal -0.992233 -0.075577 0.0988066
  outer loop
   vertex -0.0100196 -0.0467689 0.0373986
   vertex -0.0115413 -0.0494221 0.0200875
   vertex -0.0104197 -0.0630079 0.0209594
  endloop
 endfacet
 facet normal -0.992233 -0.0755766 0.0988063
  outer loop
   vertex -0.0100196 -0.0467689 0.0373986
   vertex -0.0104197 -0.0630079 0.0209594
   vertex -0.0103722 -0.0635723 0.021005
  endloop
 endfacet
 facet normal -0.992232 -0.0755771 0.0988068
  outer loop
   vertex -0.0103722 -0.0635723 0.021005
   vertex -0.00905552 -0.0593128 0.0374849
   vertex -0.0100196 -0.0467689 0.0373986
  endloop
 endfacet
 facet normal -0.992232 -0.0755772 0.0988068
  outer loop
   vertex -0.0113888 -0.0286583 0.0375009
   vertex -0.0128672 -0.0305866 0.0211796
   vertex -0.0115413 -0.0494221 0.0200875
  endloop
 endfacet
 facet normal -0.992232 -0.0755771 0.0988067
  outer loop
   vertex -0.0115413 -0.0494221 0.0200875
   vertex -0.0100938 -0.0457631 0.037422
   vertex -0.0113888 -0.0286583 0.0375009
  endloop
 endfacet
 facet normal -0.996737 -0.0788413 -0.0172862
  outer loop
   vertex -0.0136832 -0.0135627 0.0225601
   vertex -0.0135112 -0.0129156 0.00968697
   vertex -0.0121389 -0.0295263 0.0063228
  endloop
 endfacet
 facet normal -0.997694 -0.0436023 -0.0520223
  outer loop
   vertex -0.0121389 -0.0295263 0.0063228
   vertex -0.0128672 -0.0305866 0.0211796
   vertex -0.0136832 -0.0135627 0.0225601
  endloop
 endfacet
 facet normal -0.999156 -0.0381202 -0.0152714
  outer loop
   vertex -0.0142562 0.00113956 0.0233499
   vertex -0.0140739 0.000498864 0.0130178
   vertex -0.0135112 -0.0129156 0.00968697
  endloop
 endfacet
 facet normal -0.999156 -0.0381201 -0.0152715
  outer loop
   vertex -0.0135112 -0.0129156 0.00968697
   vertex -0.0136832 -0.0135627 0.0225601
   vertex -0.0142562 0.00113956 0.0233499
  endloop
 endfacet
 facet normal -0.995648 -0.0538882 0.0760296
  outer loop
   vertex -0.0125505 -0.0133529 0.0375424
   vertex -0.0136832 -0.0135627 0.0225601
   vertex -0.0128672 -0.0305866 0.0211796
  endloop
 endfacet
 facet normal -0.992233 -0.075577 0.0988067
  outer loop
   vertex -0.0128672 -0.0305866 0.0211796
   vertex -0.0113888 -0.0286583 0.0375009
   vertex -0.0125505 -0.0133529 0.0375424
  endloop
 endfacet
 facet normal -0.99833 -0.0410898 0.0406027
  outer loop
   vertex -0.0137048 0.00165576 0.0374309
   vertex -0.0142562 0.00113956 0.0233499
   vertex -0.0136832 -0.0135627 0.0225601
  endloop
 endfacet
 facet normal -0.994198 -0.0758957 0.0762281
  outer loop
   vertex -0.0136832 -0.0135627 0.0225601
   vertex -0.0125505 -0.0133529 0.0375424
   vertex -0.0137048 0.00165576 0.0374309
  endloop
 endfacet
 facet normal -0.0828776 -0.0507137 -0.995269
  outer loop
   vertex 0.006002 -0.056405 0.00487126
   vertex 0.00621183 -0.0424341 0.0041419
   vertex 0.0102685 -0.0479178 0.00408351
  endloop
 endfacet
 facet normal -0.053628 -0.029045 -0.998138
  outer loop
   vertex 0.0102685 -0.0479178 0.00408351
   vertex 0.00621183 -0.0424341 0.0041419
   vertex 0.0151075 -0.0318624 0.00335632
  endloop
 endfacet
 facet normal -0.0504166 -0.0317536 -0.998223
  outer loop
   vertex 0.0151075 -0.0318624 0.00335632
   vertex 0.00621183 -0.0424341 0.0041419
   vertex 0.00643197 -0.0249363 0.00357417
  endloop
 endfacet
 facet normal -0.0272144 -0.00264654 -0.999626
  outer loop
   vertex 0.0151075 -0.0318624 0.00335632
   vertex 0.00643197 -0.0249363 0.00357417
   vertex 0.0157685 -0.0149078 0.00329344
  endloop
 endfacet
 facet normal -0.0127691 -0.0160997 -0.999789
  outer loop
   vertex 0.0157685 -0.0149078 0.00329344
   vertex 0.00643197 -0.0249363 0.00357417
   vertex 0.00651409 -0.0117143 0.00336021
  endloop
 endfacet
 facet normal -0.00728725 -0.00021007 -0.999973
  outer loop
   vertex 0.0157685 -0.0149078 0.00329344
   vertex 0.00651409 -0.0117143 0.00336021
   vertex 0.0142108 0.00209492 0.00330122
  endloop
 endfacet
 facet normal -0.000469913 -0.00400983 -0.999992
  outer loop
   vertex 0.0142108 0.00209492 0.00330122
   vertex 0.00651409 -0.0117143 0.00336021
   vertex 0.00653587 0.000352177 0.00331181
  endloop
 endfacet
 facet normal 0.852831 -0.0280475 -0.521433
  outer loop
   vertex 0.0131019 -0.0752181 0.0174954
   vertex 0.00600109 -0.0632026 0.00523541
   vertex 0.006002 -0.056405 0.00487126
  endloop
 endfacet
 facet normal 0.50233 -0.343035 -0.79372
  outer loop
   vertex 0.0131019 -0.0752181 0.0174954
   vertex 0.006002 -0.056405 0.00487126
   vertex 0.0183478 -0.0617243 0.0149836
  endloop
 endfacet
 facet normal 0.50913 -0.329733 -0.795024
  outer loop
   vertex 0.0183478 -0.0617243 0.0149836
   vertex 0.006002 -0.056405 0.00487126
   vertex 0.0102685 -0.0479178 0.00408351
  endloop
 endfacet
 facet normal 0.626779 -0.222725 -0.746687
  outer loop
   vertex 0.0183478 -0.0617243 0.0149836
   vertex 0.0102685 -0.0479178 0.00408351
   vertex 0.0151075 -0.0318624 0.00335632
  endloop
 endfacet
 facet normal 0.801973 -0.139171 -0.580922
  outer loop
   vertex 0.0151075 -0.0318624 0.00335632
   vertex 0.0221359 -0.0398957 0.0149836
   vertex 0.0183478 -0.0617243 0.0149836
  endloop
 endfacet
 facet normal 0.928944 -0.368248 -0.0381655
  outer loop
   vertex 0.0142794 -0.0742764 0.0370697
   vertex 0.0131019 -0.0752181 0.0174954
   vertex 0.0183478 -0.0617243 0.0149836
  endloop
 endfacet
 facet normal 0.917055 -0.39488 -0.0554912
  outer loop
   vertex 0.0183478 -0.0617243 0.0149836
   vertex 0.0196687 -0.0617243 0.0368123
   vertex 0.0142794 -0.0742764 0.0370697
  endloop
 endfacet
 facet normal 0.983528 -0.170678 -0.0595135
  outer loop
   vertex 0.0196687 -0.0617243 0.0368123
   vertex 0.0183478 -0.0617243 0.0149836
   vertex 0.0221359 -0.0398957 0.0149836
  endloop
 endfacet
 facet normal 0.983576 -0.170474 -0.0593042
  outer loop
   vertex 0.0221359 -0.0398957 0.0149836
   vertex 0.023452 -0.0398957 0.0368123
   vertex 0.0196687 -0.0617243 0.0368123
  endloop
 endfacet
 facet normal 0.844421 -0.0349035 -0.534541
  outer loop
   vertex 0.0221359 -0.0398957 0.0149836
   vertex 0.0151075 -0.0318624 0.00335632
   vertex 0.0157685 -0.0149078 0.00329344
  endloop
 endfacet
 facet normal 0.887452 0.0105702 -0.460779
  outer loop
   vertex 0.0157685 -0.0149078 0.00329344
   vertex 0.0218759 -0.0180671 0.0149836
   vertex 0.0221359 -0.0398957 0.0149836
  endloop
 endfacet
 facet normal 0.8926 0.0936435 -0.441018
  outer loop
   vertex 0.0218759 -0.0180671 0.0149836
   vertex 0.0157685 -0.0149078 0.00329344
   vertex 0.0195858 0.00376156 0.0149836
  endloop
 endfacet
 facet normal 0.900809 0.0827258 -0.426263
  outer loop
   vertex 0.0195858 0.00376156 0.0149836
   vertex 0.0157685 -0.0149078 0.00329344
   vertex 0.0142108 0.00209492 0.00330122
  endloop
 endfacet
 facet normal 0.998117 0.0118883 -0.0601809
  outer loop
   vertex 0.023452 -0.0398957 0.0368123
   vertex 0.0221359 -0.0398957 0.0149836
   vertex 0.0218759 -0.0180671 0.0149836
  endloop
 endfacet
 facet normal 0.997892 0.0076019 -0.0644511
  outer loop
   vertex 0.0218759 -0.0180671 0.0149836
   vertex 0.0232857 -0.0180671 0.0368123
   vertex 0.023452 -0.0398957 0.0368123
  endloop
 endfacet
 facet normal 0.997823 0.0139797 -0.0644467
  outer loop
   vertex 0.0232857 -0.0180671 0.0368123
   vertex 0.0218759 -0.0180671 0.0149836
   vertex 0.0229799 0.00376156 0.0368123
  endloop
 endfacet
 facet normal 0.98286 0.103113 -0.152823
  outer loop
   vertex 0.0229799 0.00376156 0.0368123
   vertex 0.0218759 -0.0180671 0.0149836
   vertex 0.0195858 0.00376156 0.0149836
  endloop
 endfacet
 facet normal -0.113075 0.0296747 -0.993143
  outer loop
   vertex -0.0119018 0.0112628 0.00435908
   vertex -0.00399436 0.0106029 0.00343905
   vertex -0.00998878 0.000146283 0.00380911
  endloop
 endfacet
 facet normal -0.0498932 -0.00674307 -0.998732
  outer loop
   vertex -0.00998878 0.000146283 0.00380911
   vertex -0.00399436 0.0106029 0.00343905
   vertex -0.00438385 3.53253e-05 0.00352986
  endloop
 endfacet
 facet normal -0.0231074 -0.00773866 -0.999703
  outer loop
   vertex 0.00438679 0.000200068 0.00332585
   vertex -0.00438385 3.53253e-05 0.00352986
   vertex -0.00399436 0.0106029 0.00343905
  endloop
 endfacet
 facet normal -0.0134363 5.52882e-05 -0.99991
  outer loop
   vertex -0.00399436 0.0106029 0.00343905
   vertex 0.00600693 0.0117201 0.00330472
   vertex 0.00438679 0.000200068 0.00332585
  endloop
 endfacet
 facet normal -0.0183561 -0.00231382 -0.999829
  outer loop
   vertex -0.00898121 0.0230889 0.00350171
   vertex -0.00456923 0.0224894 0.0034221
   vertex -0.00399436 0.0106029 0.00343905
  endloop
 endfacet
 facet normal -0.118967 -0.0425366 -0.991987
  outer loop
   vertex -0.00399436 0.0106029 0.00343905
   vertex -0.0119018 0.0112628 0.00435908
   vertex -0.00898121 0.0230889 0.00350171
  endloop
 endfacet
 facet normal -0.0132283 -0.00180603 -0.999911
  outer loop
   vertex 0.00600693 0.0117201 0.00330472
   vertex -0.00399436 0.0106029 0.00343905
   vertex 0.00264598 0.02322 0.00332841
  endloop
 endfacet
 facet normal -0.0127761 -0.00204408 -0.999916
  outer loop
   vertex 0.00264598 0.02322 0.00332841
   vertex -0.00399436 0.0106029 0.00343905
   vertex -0.00456923 0.0224894 0.0034221
  endloop
 endfacet
 facet normal -0.969719 -0.000779374 -0.244224
  outer loop
   vertex -0.0145298 0.0117394 0.0147924
   vertex -0.0119018 0.0112628 0.00435908
   vertex -0.0140739 0.000498864 0.0130178
  endloop
 endfacet
 facet normal -0.907463 -0.136508 -0.397337
  outer loop
   vertex -0.0140739 0.000498864 0.0130178
   vertex -0.0119018 0.0112628 0.00435908
   vertex -0.00998878 0.000146283 0.00380911
  endloop
 endfacet
 facet normal -0.00647146 -0.000925205 -0.999979
  outer loop
   vertex 0.00600693 0.0117201 0.00330472
   vertex 0.00656921 0.0119424 0.00330088
   vertex 0.00653587 0.000352177 0.00331181
  endloop
 endfacet
 facet normal -0.00646684 -0.000924989 -0.999979
  outer loop
   vertex 0.00653587 0.000352177 0.00331181
   vertex 0.00438679 0.000200068 0.00332585
   vertex 0.00600693 0.0117201 0.00330472
  endloop
 endfacet
 facet normal -0.765533 0.14359 -0.62717
  outer loop
   vertex -0.0150532 0.0266824 0.011736
   vertex -0.00898121 0.0230889 0.00350171
   vertex -0.0119018 0.0112628 0.00435908
  endloop
 endfacet
 facet normal -0.96726 -0.0829377 -0.239852
  outer loop
   vertex -0.0119018 0.0112628 0.00435908
   vertex -0.0145298 0.0117394 0.0147924
   vertex -0.0150532 0.0266824 0.011736
  endloop
 endfacet
 facet normal -0.00958319 -0.000740605 -0.999954
  outer loop
   vertex 0.00264598 0.02322 0.00332841
   vertex 0.0064712 0.0254773 0.00329008
   vertex 0.00600693 0.0117201 0.00330472
  endloop
 endfacet
 facet normal -0.00650333 -0.00084457 -0.999978
  outer loop
   vertex 0.00600693 0.0117201 0.00330472
   vertex 0.0064712 0.0254773 0.00329008
   vertex 0.00656921 0.0119424 0.00330088
  endloop
 endfacet
 facet normal -0.0180208 0.000154784 -0.999838
  outer loop
   vertex -0.00488321 0.026096 0.00342831
   vertex -0.00456923 0.0224894 0.0034221
   vertex -0.00898121 0.0230889 0.00350171
  endloop
 endfacet
 facet normal -0.0130426 0.000588307 -0.999915
  outer loop
   vertex 0.00264598 0.02322 0.00332841
   vertex -0.00456923 0.0224894 0.0034221
   vertex -0.00488321 0.026096 0.00342831
  endloop
 endfacet
 facet normal -0.428356 -0.209922 -0.878888
  outer loop
   vertex -0.0111564 0.0525137 0.00366697
   vertex -0.0104616 0.0512228 0.00363666
   vertex -0.0150532 0.0266824 0.011736
  endloop
 endfacet
 facet normal -0.631558 -0.13388 -0.763683
  outer loop
   vertex -0.0150532 0.0266824 0.011736
   vertex -0.0104616 0.0512228 0.00363666
   vertex -0.00488321 0.026096 0.00342831
  endloop
 endfacet
 facet normal -0.470989 0.626713 -0.620806
  outer loop
   vertex -0.0150532 0.0266824 0.011736
   vertex -0.00488321 0.026096 0.00342831
   vertex -0.00898121 0.0230889 0.00350171
  endloop
 endfacet
 facet normal -0.0196292 0.00393233 -0.9998
  outer loop
   vertex -0.00488321 0.026096 0.00342831
   vertex -0.0104616 0.0512228 0.00363666
   vertex 0.00608292 0.0484155 0.0033008
  endloop
 endfacet
 facet normal -0.0130082 0.00067857 -0.999915
  outer loop
   vertex -0.00488321 0.026096 0.00342831
   vertex 0.00608292 0.0484155 0.0033008
   vertex 0.00264598 0.02322 0.00332841
  endloop
 endfacet
 facet normal -0.0101941 0.000294659 -0.999948
  outer loop
   vertex 0.00264598 0.02322 0.00332841
   vertex 0.00608292 0.0484155 0.0033008
   vertex 0.0064712 0.0254773 0.00329008
  endloop
 endfacet
 facet normal -0.0280311 0.00838058 -0.999572
  outer loop
   vertex -0.0108984 0.0527017 0.00366131
   vertex -0.0104616 0.0512228 0.00363666
   vertex -0.0111564 0.0525137 0.00366697
  endloop
 endfacet
 facet normal -0.0202913 3.02196e-05 -0.999794
  outer loop
   vertex 0.00590946 0.0550403 0.00330452
   vertex 0.00608292 0.0484155 0.0033008
   vertex -0.0104616 0.0512228 0.00363666
  endloop
 endfacet
 facet normal -0.0226102 0.0099838 -0.999695
  outer loop
   vertex -0.0104616 0.0512228 0.00363666
   vertex -0.0108984 0.0527017 0.00366131
   vertex 0.00590946 0.0550403 0.00330452
  endloop
 endfacet
 facet normal -0.999156 -0.0381205 -0.0152709
  outer loop
   vertex -0.0147678 0.0141475 0.0243527
   vertex -0.0145298 0.0117394 0.0147924
   vertex -0.0140739 0.000498864 0.0130178
  endloop
 endfacet
 facet normal -0.999156 -0.0381201 -0.0152714
  outer loop
   vertex -0.0140739 0.000498864 0.0130178
   vertex -0.0142562 0.00113956 0.0233499
   vertex -0.0147678 0.0141475 0.0243527
  endloop
 endfacet
 facet normal -0.999156 -0.0381203 -0.0152714
  outer loop
   vertex -0.0153835 0.0309366 0.0227245
   vertex -0.0150532 0.0266824 0.011736
   vertex -0.0147678 0.0141475 0.0243527
  endloop
 endfacet
 facet normal -0.999156 -0.0381199 -0.0152711
  outer loop
   vertex -0.0147678 0.0141475 0.0243527
   vertex -0.0150532 0.0266824 0.011736
   vertex -0.0145298 0.0117394 0.0147924
  endloop
 endfacet
 facet normal -0.99923 -0.039216 -0.00109266
  outer loop
   vertex -0.0149148 0.017527 0.0374201
   vertex -0.0147678 0.0141475 0.0243527
   vertex -0.0142562 0.00113956 0.0233499
  endloop
 endfacet
 facet normal -0.996237 -0.0759212 0.0417977
  outer loop
   vertex -0.0142562 0.00113956 0.0233499
   vertex -0.0137048 0.00165576 0.0374309
   vertex -0.0149148 0.017527 0.0374201
  endloop
 endfacet
 facet normal -0.99872 -0.0489327 -0.012795
  outer loop
   vertex -0.015735 0.0342789 0.0373805
   vertex -0.0153835 0.0309366 0.0227245
   vertex -0.0149148 0.017527 0.0374201
  endloop
 endfacet
 facet normal -0.999321 -0.0368116 -0.00171551
  outer loop
   vertex -0.0149148 0.017527 0.0374201
   vertex -0.0153835 0.0309366 0.0227245
   vertex -0.0147678 0.0141475 0.0243527
  endloop
 endfacet
 facet normal -0.944638 -0.0928862 -0.314693
  outer loop
   vertex -0.0166114 0.0657627 0.016131
   vertex -0.0111564 0.0525137 0.00366697
   vertex -0.0153835 0.0309366 0.0227245
  endloop
 endfacet
 facet normal -0.989103 0.124829 -0.0780563
  outer loop
   vertex -0.0153835 0.0309366 0.0227245
   vertex -0.0111564 0.0525137 0.00366697
   vertex -0.0150532 0.0266824 0.011736
  endloop
 endfacet
 facet normal -0.929794 -0.0599799 -0.36316
  outer loop
   vertex -0.0165186 0.0712707 0.0149836
   vertex -0.0108984 0.0527017 0.00366131
   vertex -0.0166114 0.0657627 0.016131
  endloop
 endfacet
 facet normal -0.404474 0.532769 -0.743343
  outer loop
   vertex -0.0166114 0.0657627 0.016131
   vertex -0.0108984 0.0527017 0.00366131
   vertex -0.0111564 0.0525137 0.00366697
  endloop
 endfacet
 facet normal -0.327992 0.298871 -0.896157
  outer loop
   vertex -0.0124314 0.0823718 0.01719
   vertex 0.00566883 0.0785141 0.00927876
   vertex -0.0165186 0.0712707 0.0149836
  endloop
 endfacet
 facet normal -0.31241 0.23129 -0.92136
  outer loop
   vertex -0.0165186 0.0712707 0.0149836
   vertex 0.00566883 0.0785141 0.00927876
   vertex 0.00590946 0.0550403 0.00330452
  endloop
 endfacet
 facet normal -0.0877426 0.499098 -0.862092
  outer loop
   vertex -0.0165186 0.0712707 0.0149836
   vertex 0.00590946 0.0550403 0.00330452
   vertex -0.0108984 0.0527017 0.00366131
  endloop
 endfacet
 facet normal -0.999734 -0.0191391 0.0128755
  outer loop
   vertex -0.0163279 0.0649554 0.0369424
   vertex -0.0166114 0.0657627 0.016131
   vertex -0.015735 0.0342789 0.0373805
  endloop
 endfacet
 facet normal -0.999156 -0.0381202 -0.0152713
  outer loop
   vertex -0.015735 0.0342789 0.0373805
   vertex -0.0166114 0.0657627 0.016131
   vertex -0.0153835 0.0309366 0.0227245
  endloop
 endfacet
 facet normal -0.999823 0.0139233 0.0126855
  outer loop
   vertex -0.0162459 0.0709422 0.0368369
   vertex -0.0165186 0.0712707 0.0149836
   vertex -0.0163279 0.0649554 0.0369424
  endloop
 endfacet
 facet normal -0.9997 0.019844 0.0143873
  outer loop
   vertex -0.0163279 0.0649554 0.0369424
   vertex -0.0165186 0.0712707 0.0149836
   vertex -0.0166114 0.0657627 0.016131
  endloop
 endfacet
 facet normal -0.939963 0.340909 0.0158267
  outer loop
   vertex -0.0118479 0.083061 0.0369993
   vertex -0.0124314 0.0823718 0.01719
   vertex -0.0162459 0.0709422 0.0368369
  endloop
 endfacet
 facet normal -0.939365 0.342503 0.0168701
  outer loop
   vertex -0.0162459 0.0709422 0.0368369
   vertex -0.0124314 0.0823718 0.01719
   vertex -0.0165186 0.0712707 0.0149836
  endloop
 endfacet
 facet normal -0.0019229 0.00238896 -0.999995
  outer loop
   vertex 0.0142108 0.00209492 0.00330122
   vertex 0.00653587 0.000352177 0.00331181
   vertex 0.0136513 0.0190686 0.00334285
  endloop
 endfacet
 facet normal 0.00689576 -0.000963653 -0.999976
  outer loop
   vertex 0.0136513 0.0190686 0.00334285
   vertex 0.00653587 0.000352177 0.00331181
   vertex 0.00656921 0.0119424 0.00330088
  endloop
 endfacet
 facet normal 0.00667988 -0.000749107 -0.999977
  outer loop
   vertex 0.0136513 0.0190686 0.00334285
   vertex 0.00656921 0.0119424 0.00330088
   vertex 0.0064712 0.0254773 0.00329008
  endloop
 endfacet
 facet normal 0.00925842 0.00213999 -0.999955
  outer loop
   vertex 0.0064712 0.0254773 0.00329008
   vertex 0.0126697 0.0360188 0.00337003
   vertex 0.0136513 0.0190686 0.00334285
  endloop
 endfacet
 facet normal 0.0117643 0.000666348 -0.999931
  outer loop
   vertex 0.0126697 0.0360188 0.00337003
   vertex 0.0064712 0.0254773 0.00329008
   vertex 0.00608292 0.0484155 0.0033008
  endloop
 endfacet
 facet normal 0.00238252 -0.00431881 -0.999988
  outer loop
   vertex 0.00608292 0.0484155 0.0033008
   vertex 0.00780945 0.0531224 0.00328458
   vertex 0.0126697 0.0360188 0.00337003
  endloop
 endfacet
 facet normal -0.0101947 0.000294665 -0.999948
  outer loop
   vertex 0.00780945 0.0531224 0.00328458
   vertex 0.00608292 0.0484155 0.0033008
   vertex 0.00590946 0.0550403 0.00330452
  endloop
 endfacet
 facet normal 0.908514 -0.00107479 -0.417853
  outer loop
   vertex 0.0195858 0.00376156 0.0149836
   vertex 0.0142108 0.00209492 0.00330122
   vertex 0.0196116 0.0255902 0.0149836
  endloop
 endfacet
 facet normal 0.882723 0.0302453 -0.468919
  outer loop
   vertex 0.0196116 0.0255902 0.0149836
   vertex 0.0142108 0.00209492 0.00330122
   vertex 0.0136513 0.0190686 0.00334285
  endloop
 endfacet
 facet normal 0.885063 0.0210998 -0.464994
  outer loop
   vertex 0.0196116 0.0255902 0.0149836
   vertex 0.0136513 0.0190686 0.00334285
   vertex 0.0190912 0.0474188 0.0149836
  endloop
 endfacet
 facet normal 0.852345 0.0501957 -0.520565
  outer loop
   vertex 0.0190912 0.0474188 0.0149836
   vertex 0.0136513 0.0190686 0.00334285
   vertex 0.0126697 0.0360188 0.00337003
  endloop
 endfacet
 facet normal 0.988126 -0.00116897 -0.153642
  outer loop
   vertex 0.0229799 0.00376156 0.0368123
   vertex 0.0195858 0.00376156 0.0149836
   vertex 0.0196116 0.0255902 0.0149836
  endloop
 endfacet
 facet normal 0.966725 -0.0902141 -0.239385
  outer loop
   vertex 0.0196116 0.0255902 0.0149836
   vertex 0.0248944 0.0239487 0.036936
   vertex 0.0229799 0.00376156 0.0368123
  endloop
 endfacet
 facet normal 0.970941 0.0718423 -0.228282
  outer loop
   vertex 0.0248944 0.0239487 0.036936
   vertex 0.0196116 0.0255902 0.0149836
   vertex 0.0232735 0.0456983 0.0368867
  endloop
 endfacet
 facet normal 0.982322 0.0234185 -0.185729
  outer loop
   vertex 0.0232735 0.0456983 0.0368867
   vertex 0.0196116 0.0255902 0.0149836
   vertex 0.0190912 0.0474188 0.0149836
  endloop
 endfacet
 facet normal 0.773801 0.18216 -0.606672
  outer loop
   vertex 0.0190912 0.0474188 0.0149836
   vertex 0.0126697 0.0360188 0.00337003
   vertex 0.0139526 0.0692474 0.0149836
  endloop
 endfacet
 facet normal 0.724109 0.202471 -0.659296
  outer loop
   vertex 0.0139526 0.0692474 0.0149836
   vertex 0.0126697 0.0360188 0.00337003
   vertex 0.00780945 0.0531224 0.00328458
  endloop
 endfacet
 facet normal 0.41884 0.423294 -0.803365
  outer loop
   vertex 0.0139526 0.0692474 0.0149836
   vertex 0.00780945 0.0531224 0.00328458
   vertex 0.00590946 0.0550403 0.00330452
  endloop
 endfacet
 facet normal 0.68948 0.185275 -0.700207
  outer loop
   vertex 0.0139526 0.0692474 0.0149836
   vertex 0.00590946 0.0550403 0.00330452
   vertex 0.00566883 0.0785141 0.00927876
  endloop
 endfacet
 facet normal 0.776714 0.6173 -0.125125
  outer loop
   vertex 0.0139526 0.0692474 0.0149836
   vertex 0.00566883 0.0785141 0.00927876
   vertex 0.0081101 0.0773062 0.018474
  endloop
 endfacet
 facet normal 0.952324 0.258831 -0.161509
  outer loop
   vertex 0.0232735 0.0456983 0.0368867
   vertex 0.0190912 0.0474188 0.0149836
   vertex 0.0168605 0.0692474 0.0368123
  endloop
 endfacet
 facet normal 0.96531 0.227243 -0.128594
  outer loop
   vertex 0.0168605 0.0692474 0.0368123
   vertex 0.0190912 0.0474188 0.0149836
   vertex 0.0139526 0.0692474 0.0149836
  endloop
 endfacet
 facet normal 0.696633 0.7114 -0.0928019
  outer loop
   vertex 0.0168605 0.0692474 0.0368123
   vertex 0.0139526 0.0692474 0.0149836
   vertex 0.0101507 0.0758642 0.0371673
  endloop
 endfacet
 facet normal 0.800356 0.598105 -0.0412329
  outer loop
   vertex 0.0101507 0.0758642 0.0371673
   vertex 0.0139526 0.0692474 0.0149836
   vertex 0.0081101 0.0773062 0.018474
  endloop
 endfacet
 facet normal -0.992233 -0.0755758 0.0988066
  outer loop
   vertex -0.0100196 -0.0467689 0.0373986
   vertex -0.00984218 -0.0459566 0.0398013
   vertex -0.0100938 -0.0457631 0.037422
  endloop
 endfacet
 facet normal -0.992165 -0.0691872 0.104023
  outer loop
   vertex -0.008405 -0.046161 0.0533731
   vertex -0.00984218 -0.0459566 0.0398013
   vertex -0.00789755 -0.0557831 0.0518133
  endloop
 endfacet
 facet normal -0.992233 -0.0755771 0.0988067
  outer loop
   vertex -0.00789755 -0.0557831 0.0518133
   vertex -0.00984218 -0.0459566 0.0398013
   vertex -0.00905552 -0.0593128 0.0374849
  endloop
 endfacet
 facet normal -0.992232 -0.0755771 0.098807
  outer loop
   vertex -0.00905552 -0.0593128 0.0374849
   vertex -0.00984218 -0.0459566 0.0398013
   vertex -0.0100196 -0.0467689 0.0373986
  endloop
 endfacet
 facet normal -0.992233 -0.0755771 0.0988064
  outer loop
   vertex -0.0100938 -0.0457631 0.037422
   vertex -0.00984218 -0.0459566 0.0398013
   vertex -0.0113888 -0.0286583 0.0375009
  endloop
 endfacet
 facet normal -0.991912 -0.0750791 0.102337
  outer loop
   vertex -0.0113888 -0.0286583 0.0375009
   vertex -0.00984218 -0.0459566 0.0398013
   vertex -0.00986446 -0.0301001 0.0512184
  endloop
 endfacet
 facet normal -0.986531 -0.0698006 0.147933
  outer loop
   vertex -0.00954937 -0.030098 0.0533206
   vertex -0.00986446 -0.0301001 0.0512184
   vertex -0.008405 -0.046161 0.0533731
  endloop
 endfacet
 facet normal -0.99167 -0.0761794 0.103865
  outer loop
   vertex -0.008405 -0.046161 0.0533731
   vertex -0.00986446 -0.0301001 0.0512184
   vertex -0.00984218 -0.0459566 0.0398013
  endloop
 endfacet
 facet normal -0.524837 -0.163106 0.83543
  outer loop
   vertex -0.00789755 -0.0557831 0.0518133
   vertex 0.00561024 -0.0747122 0.0566036
   vertex -0.008405 -0.046161 0.0533731
  endloop
 endfacet
 facet normal -0.809071 -0.343174 0.477112
  outer loop
   vertex -0.008405 -0.046161 0.0533731
   vertex 0.00561024 -0.0747122 0.0566036
   vertex 0.00531003 -0.0617243 0.0654363
  endloop
 endfacet
 facet normal -0.689096 -0.0467314 0.723162
  outer loop
   vertex -0.008405 -0.046161 0.0533731
   vertex 0.00531003 -0.0617243 0.0654363
   vertex -0.00954937 -0.030098 0.0533206
  endloop
 endfacet
 facet normal -0.772375 -0.124273 0.62289
  outer loop
   vertex -0.00954937 -0.030098 0.0533206
   vertex 0.00531003 -0.0617243 0.0654363
   vertex 0.00537671 -0.0390066 0.0700514
  endloop
 endfacet
 facet normal -0.990973 -0.0695189 0.114629
  outer loop
   vertex -0.010627 -0.0143635 0.0535586
   vertex -0.0125505 -0.0133529 0.0375424
   vertex -0.00993913 -0.0244606 0.0533814
  endloop
 endfacet
 facet normal -0.991011 -0.0755157 0.110429
  outer loop
   vertex -0.00993913 -0.0244606 0.0533814
   vertex -0.0125505 -0.0133529 0.0375424
   vertex -0.0113888 -0.0286583 0.0375009
  endloop
 endfacet
 facet normal -0.993068 -0.0533252 0.104751
  outer loop
   vertex -0.00993913 -0.0244606 0.0533814
   vertex -0.0113888 -0.0286583 0.0375009
   vertex -0.00986446 -0.0301001 0.0512184
  endloop
 endfacet
 facet normal -0.986531 -0.0698007 0.147933
  outer loop
   vertex -0.00993913 -0.0244606 0.0533814
   vertex -0.00986446 -0.0301001 0.0512184
   vertex -0.00954937 -0.030098 0.0533206
  endloop
 endfacet
 facet normal -0.990182 -0.0767752 0.116816
  outer loop
   vertex -0.0110003 -0.00766443 0.0542297
   vertex -0.0120308 0.00238349 0.0520985
   vertex -0.0137048 0.00165576 0.0374309
  endloop
 endfacet
 facet normal -0.990198 -0.0752806 0.117648
  outer loop
   vertex -0.0110003 -0.00766443 0.0542297
   vertex -0.0137048 0.00165576 0.0374309
   vertex -0.0125505 -0.0133529 0.0375424
  endloop
 endfacet
 facet normal -0.991141 -0.0667406 0.114824
  outer loop
   vertex -0.0110003 -0.00766443 0.0542297
   vertex -0.0125505 -0.0133529 0.0375424
   vertex -0.010627 -0.0143635 0.0535586
  endloop
 endfacet
 facet normal -0.986531 -0.0698006 0.147933
  outer loop
   vertex -0.0115632 0.00246028 0.0552534
   vertex -0.0120308 0.00238349 0.0520985
   vertex -0.0110003 -0.00766443 0.0542297
  endloop
 endfacet
 facet normal -0.986531 -0.0698007 0.147933
  outer loop
   vertex -0.00993913 -0.0244606 0.0533814
   vertex -0.0104772 -0.0145478 0.0544706
   vertex -0.010627 -0.0143635 0.0535586
  endloop
 endfacet
 facet normal -0.760423 -0.0595465 0.646692
  outer loop
   vertex -0.00954937 -0.030098 0.0533206
   vertex 0.00537671 -0.0390066 0.0700514
   vertex -0.00993913 -0.0244606 0.0533814
  endloop
 endfacet
 facet normal -0.739719 -0.0077442 0.672872
  outer loop
   vertex -0.00993913 -0.0244606 0.0533814
   vertex 0.00537671 -0.0390066 0.0700514
   vertex 0.00535866 -0.0178105 0.0702755
  endloop
 endfacet
 facet normal -0.713492 -0.114675 0.691215
  outer loop
   vertex -0.00993913 -0.0244606 0.0533814
   vertex 0.00535866 -0.0178105 0.0702755
   vertex -0.0104772 -0.0145478 0.0544706
  endloop
 endfacet
 facet normal -0.986531 -0.0698006 0.147933
  outer loop
   vertex -0.010627 -0.0143635 0.0535586
   vertex -0.0104772 -0.0145478 0.0544706
   vertex -0.0110003 -0.00766443 0.0542297
  endloop
 endfacet
 facet normal -0.709125 -0.0292391 0.704476
  outer loop
   vertex -0.0110003 -0.00766443 0.0542297
   vertex -0.0104772 -0.0145478 0.0544706
   vertex 0.00535866 -0.0178105 0.0702755
  endloop
 endfacet
 facet normal -0.692099 0.0249315 0.721372
  outer loop
   vertex -0.0110003 -0.00766443 0.0542297
   vertex 0.00535866 -0.0178105 0.0702755
   vertex 0.00531003 0.00376156 0.0694833
  endloop
 endfacet
 facet normal -0.635506 -0.112559 0.763847
  outer loop
   vertex -0.0110003 -0.00766443 0.0542297
   vertex 0.00531003 0.00376156 0.0694833
   vertex -0.0115632 0.00246028 0.0552534
  endloop
 endfacet
 facet normal 0.764773 -0.559736 0.31909
  outer loop
   vertex 0.00581779 -0.0747712 0.0564818
   vertex 0.0142794 -0.0742764 0.0370697
   vertex 0.014466 -0.0617243 0.0586409
  endloop
 endfacet
 facet normal 0.899122 -0.381648 0.2143
  outer loop
   vertex 0.014466 -0.0617243 0.0586409
   vertex 0.0142794 -0.0742764 0.0370697
   vertex 0.0196687 -0.0617243 0.0368123
  endloop
 endfacet
 facet normal 0.942519 -0.247373 0.224643
  outer loop
   vertex 0.014466 -0.0617243 0.0586409
   vertex 0.0196687 -0.0617243 0.0368123
   vertex 0.0201951 -0.0398957 0.0586409
  endloop
 endfacet
 facet normal 0.974832 -0.168958 0.145449
  outer loop
   vertex 0.0201951 -0.0398957 0.0586409
   vertex 0.0196687 -0.0617243 0.0368123
   vertex 0.023452 -0.0398957 0.0368123
  endloop
 endfacet
 facet normal 0.527041 -0.466865 0.710116
  outer loop
   vertex 0.014466 -0.0617243 0.0586409
   vertex 0.00531003 -0.0617243 0.0654363
   vertex 0.00581779 -0.0747712 0.0564818
  endloop
 endfacet
 facet normal 0.312367 -0.529266 0.788863
  outer loop
   vertex 0.00581779 -0.0747712 0.0564818
   vertex 0.00531003 -0.0617243 0.0654363
   vertex 0.00561024 -0.0747122 0.0566036
  endloop
 endfacet
 facet normal 0.596663 -0.1566 0.787064
  outer loop
   vertex 0.0201951 -0.0398957 0.0586409
   vertex 0.00537671 -0.0390066 0.0700514
   vertex 0.014466 -0.0617243 0.0586409
  endloop
 endfacet
 facet normal 0.588039 -0.162682 0.792303
  outer loop
   vertex 0.014466 -0.0617243 0.0586409
   vertex 0.00537671 -0.0390066 0.0700514
   vertex 0.00531003 -0.0617243 0.0654363
  endloop
 endfacet
 facet normal 0.989023 0.00753434 0.147567
  outer loop
   vertex 0.0201951 -0.0398957 0.0586409
   vertex 0.023452 -0.0398957 0.0368123
   vertex 0.0232857 -0.0180671 0.0368123
  endloop
 endfacet
 facet normal 0.990469 -0.002523 0.137714
  outer loop
   vertex 0.0232857 -0.0180671 0.0368123
   vertex 0.0202507 -0.0180671 0.0586409
   vertex 0.0201951 -0.0398957 0.0586409
  endloop
 endfacet
 facet normal 0.990289 -0.0192454 0.137689
  outer loop
   vertex 0.0202507 -0.0180671 0.0586409
   vertex 0.0232857 -0.0180671 0.0368123
   vertex 0.0206749 0.00376156 0.0586409
  endloop
 endfacet
 facet normal 0.994375 0.0139314 0.105001
  outer loop
   vertex 0.0206749 0.00376156 0.0586409
   vertex 0.0232857 -0.0180671 0.0368123
   vertex 0.0229799 0.00376156 0.0368123
  endloop
 endfacet
 facet normal 0.615634 -0.00156819 0.788031
  outer loop
   vertex 0.0202507 -0.0180671 0.0586409
   vertex 0.00535866 -0.0178105 0.0702755
   vertex 0.0201951 -0.0398957 0.0586409
  endloop
 endfacet
 facet normal 0.609791 -0.00786002 0.792523
  outer loop
   vertex 0.0201951 -0.0398957 0.0586409
   vertex 0.00535866 -0.0178105 0.0702755
   vertex 0.00537671 -0.0390066 0.0700514
  endloop
 endfacet
 facet normal 0.576527 -0.0112043 0.817002
  outer loop
   vertex 0.0206749 0.00376156 0.0586409
   vertex 0.00531003 0.00376156 0.0694833
   vertex 0.0202507 -0.0180671 0.0586409
  endloop
 endfacet
 facet normal 0.615693 0.0303045 0.787404
  outer loop
   vertex 0.0202507 -0.0180671 0.0586409
   vertex 0.00531003 0.00376156 0.0694833
   vertex 0.00535866 -0.0178105 0.0702755
  endloop
 endfacet
 facet normal -0.990292 -0.075417 0.116761
  outer loop
   vertex -0.0137048 0.00165576 0.0374309
   vertex -0.0120308 0.00238349 0.0520985
   vertex -0.0149148 0.017527 0.0374201
  endloop
 endfacet
 facet normal -0.989842 -0.066924 0.125435
  outer loop
   vertex -0.0149148 0.017527 0.0374201
   vertex -0.0120308 0.00238349 0.0520985
   vertex -0.0129888 0.0213663 0.0546665
  endloop
 endfacet
 facet normal -0.986387 -0.0697593 0.148912
  outer loop
   vertex -0.0128087 0.0215705 0.0559557
   vertex -0.0129888 0.0213663 0.0546665
   vertex -0.0115632 0.00246028 0.0552534
  endloop
 endfacet
 facet normal -0.986531 -0.0698006 0.147933
  outer loop
   vertex -0.0115632 0.00246028 0.0552534
   vertex -0.0129888 0.0213663 0.0546665
   vertex -0.0120308 0.00238349 0.0520985
  endloop
 endfacet
 facet normal -0.990741 -0.0778558 0.111222
  outer loop
   vertex -0.0141485 0.0408867 0.056138
   vertex -0.015735 0.0342789 0.0373805
   vertex -0.0139072 0.0384088 0.0565534
  endloop
 endfacet
 facet normal -0.993282 -0.0483872 0.105117
  outer loop
   vertex -0.0139072 0.0384088 0.0565534
   vertex -0.015735 0.0342789 0.0373805
   vertex -0.0149148 0.017527 0.0374201
  endloop
 endfacet
 facet normal -0.989813 -0.0672303 0.1255
  outer loop
   vertex -0.0139072 0.0384088 0.0565534
   vertex -0.0149148 0.017527 0.0374201
   vertex -0.0129888 0.0213663 0.0546665
  endloop
 endfacet
 facet normal -0.986398 -0.0696365 0.148894
  outer loop
   vertex -0.0139072 0.0384088 0.0565534
   vertex -0.0129888 0.0213663 0.0546665
   vertex -0.0128087 0.0215705 0.0559557
  endloop
 endfacet
 facet normal -0.644727 0.000816128 0.764413
  outer loop
   vertex -0.0115632 0.00246028 0.0552534
   vertex 0.00531003 0.00376156 0.0694833
   vertex 0.00531003 0.0255902 0.06946
  endloop
 endfacet
 facet normal -0.586493 -0.0678869 0.807104
  outer loop
   vertex 0.00531003 0.0255902 0.06946
   vertex -0.0128087 0.0215705 0.0559557
   vertex -0.0115632 0.00246028 0.0552534
  endloop
 endfacet
 facet normal -0.985285 -0.0698164 0.156013
  outer loop
   vertex -0.0139072 0.0384088 0.0565534
   vertex -0.0140145 0.0421947 0.0575696
   vertex -0.0141485 0.0408867 0.056138
  endloop
 endfacet
 facet normal -0.586671 -0.0669193 0.807056
  outer loop
   vertex -0.0128087 0.0215705 0.0559557
   vertex 0.00531003 0.0255902 0.06946
   vertex -0.0139072 0.0384088 0.0565534
  endloop
 endfacet
 facet normal -0.545801 0.0250448 0.83754
  outer loop
   vertex -0.0139072 0.0384088 0.0565534
   vertex 0.00531003 0.0255902 0.06946
   vertex 0.00531003 0.0474188 0.0688073
  endloop
 endfacet
 facet normal -0.437134 -0.244709 0.865466
  outer loop
   vertex -0.0139072 0.0384088 0.0565534
   vertex 0.00531003 0.0474188 0.0688073
   vertex -0.0140145 0.0421947 0.0575696
  endloop
 endfacet
 facet normal -0.996009 -0.0298651 0.0841052
  outer loop
   vertex -0.0144703 0.0473616 0.0570035
   vertex -0.0162765 0.068527 0.0431291
   vertex -0.015735 0.0342789 0.0373805
  endloop
 endfacet
 facet normal -0.992303 -0.0635208 0.106305
  outer loop
   vertex -0.0144703 0.0473616 0.0570035
   vertex -0.015735 0.0342789 0.0373805
   vertex -0.0141485 0.0408867 0.056138
  endloop
 endfacet
 facet normal -0.999632 -0.0190453 0.0193041
  outer loop
   vertex -0.015735 0.0342789 0.0373805
   vertex -0.0162765 0.068527 0.0431291
   vertex -0.0163279 0.0649554 0.0369424
  endloop
 endfacet
 facet normal -0.961976 0.0875119 0.258733
  outer loop
   vertex -0.0120389 0.0692474 0.0586409
   vertex -0.0162765 0.068527 0.0431291
   vertex -0.0144703 0.0473616 0.0570035
  endloop
 endfacet
 facet normal -0.999906 0.0137079 0.000397824
  outer loop
   vertex -0.0163279 0.0649554 0.0369424
   vertex -0.0162765 0.068527 0.0431291
   vertex -0.0162459 0.0709422 0.0368369
  endloop
 endfacet
 facet normal -0.371458 0.881986 0.290035
  outer loop
   vertex 0.00531003 0.0725175 0.0586409
   vertex 0.00571236 0.0769901 0.045555
   vertex -0.0162765 0.068527 0.0431291
  endloop
 endfacet
 facet normal -0.185223 0.982684 0.0049609
  outer loop
   vertex 0.00531003 0.0725175 0.0586409
   vertex -0.0162765 0.068527 0.0431291
   vertex -0.0120389 0.0692474 0.0586409
  endloop
 endfacet
 facet normal -0.264709 0.44211 0.857011
  outer loop
   vertex -0.0162765 0.068527 0.0431291
   vertex 0.00571236 0.0769901 0.045555
   vertex -0.0118479 0.083061 0.0369993
  endloop
 endfacet
 facet normal -0.933198 0.336993 0.124811
  outer loop
   vertex -0.0162765 0.068527 0.0431291
   vertex -0.0118479 0.083061 0.0369993
   vertex -0.0162459 0.0709422 0.0368369
  endloop
 endfacet
 facet normal -0.985284 -0.0698165 0.156013
  outer loop
   vertex -0.0141485 0.0408867 0.056138
   vertex -0.0140145 0.0421947 0.0575696
   vertex -0.0144703 0.0473616 0.0570035
  endloop
 endfacet
 facet normal -0.51193 0.0488051 0.857639
  outer loop
   vertex -0.0144703 0.0473616 0.0570035
   vertex -0.0140145 0.0421947 0.0575696
   vertex 0.00531003 0.0474188 0.0688073
  endloop
 endfacet
 facet normal -0.490069 0.296225 0.819807
  outer loop
   vertex -0.0144703 0.0473616 0.0570035
   vertex 0.00531003 0.0474188 0.0688073
   vertex 0.00531003 0.0692474 0.0609198
  endloop
 endfacet
 facet normal -0.130007 -0.0596023 0.98972
  outer loop
   vertex -0.0144703 0.0473616 0.0570035
   vertex 0.00531003 0.0692474 0.0609198
   vertex -0.0120389 0.0692474 0.0586409
  endloop
 endfacet
 facet normal -0.107148 0.568466 0.815699
  outer loop
   vertex -0.0120389 0.0692474 0.0586409
   vertex 0.00531003 0.0692474 0.0609198
   vertex 0.00531003 0.0725175 0.0586409
  endloop
 endfacet
 facet normal 0.989014 -0.104621 0.104435
  outer loop
   vertex 0.0206749 0.00376156 0.0586409
   vertex 0.0229799 0.00376156 0.0368123
   vertex 0.022984 0.0255902 0.0586409
  endloop
 endfacet
 facet normal 0.991035 -0.0945656 0.0943789
  outer loop
   vertex 0.022984 0.0255902 0.0586409
   vertex 0.0229799 0.00376156 0.0368123
   vertex 0.0248944 0.0239487 0.036936
  endloop
 endfacet
 facet normal 0.993874 0.074255 0.0818616
  outer loop
   vertex 0.022984 0.0255902 0.0586409
   vertex 0.0248944 0.0239487 0.036936
   vertex 0.0232735 0.0456983 0.0368867
  endloop
 endfacet
 facet normal 0.986405 0.113925 0.11843
  outer loop
   vertex 0.0232735 0.0456983 0.0368867
   vertex 0.0204629 0.0474188 0.0586409
   vertex 0.022984 0.0255902 0.0586409
  endloop
 endfacet
 facet normal 0.5213 -0.0551447 0.85159
  outer loop
   vertex 0.022984 0.0255902 0.0586409
   vertex 0.00531003 0.0255902 0.06946
   vertex 0.0206749 0.00376156 0.0586409
  endloop
 endfacet
 facet normal 0.576563 0.000872329 0.817053
  outer loop
   vertex 0.0206749 0.00376156 0.0586409
   vertex 0.00531003 0.0255902 0.06946
   vertex 0.00531003 0.00376156 0.0694833
  endloop
 endfacet
 facet normal 0.556971 0.0248242 0.830161
  outer loop
   vertex 0.0204629 0.0474188 0.0586409
   vertex 0.00531003 0.0474188 0.0688073
   vertex 0.00531003 0.0255902 0.06946
  endloop
 endfacet
 facet normal 0.521147 0.0601897 0.851342
  outer loop
   vertex 0.00531003 0.0255902 0.06946
   vertex 0.022984 0.0255902 0.0586409
   vertex 0.0204629 0.0474188 0.0586409
  endloop
 endfacet
 facet normal 0.959619 0.261655 0.103285
  outer loop
   vertex 0.0204629 0.0474188 0.0586409
   vertex 0.0232735 0.0456983 0.0368867
   vertex 0.0168605 0.0692474 0.0368123
  endloop
 endfacet
 facet normal 0.85335 0.43227 0.291438
  outer loop
   vertex 0.0168605 0.0692474 0.0368123
   vertex 0.00940552 0.0692474 0.0586409
   vertex 0.0204629 0.0474188 0.0586409
  endloop
 endfacet
 facet normal 0.610255 0.764298 0.208416
  outer loop
   vertex 0.00940552 0.0692474 0.0586409
   vertex 0.0168605 0.0692474 0.0368123
   vertex 0.00531003 0.0725175 0.0586409
  endloop
 endfacet
 facet normal 0.678816 0.688204 0.256094
  outer loop
   vertex 0.00531003 0.0725175 0.0586409
   vertex 0.0168605 0.0692474 0.0368123
   vertex 0.00571236 0.0769901 0.045555
  endloop
 endfacet
 facet normal 0.683204 0.678291 0.270469
  outer loop
   vertex 0.00571236 0.0769901 0.045555
   vertex 0.0168605 0.0692474 0.0368123
   vertex 0.0101507 0.0758642 0.0371673
  endloop
 endfacet
 facet normal 0.463673 0.301092 0.833277
  outer loop
   vertex 0.00940552 0.0692474 0.0586409
   vertex 0.00531003 0.0692474 0.0609198
   vertex 0.00531003 0.0474188 0.0688073
  endloop
 endfacet
 facet normal 0.536197 0.271614 0.799198
  outer loop
   vertex 0.00531003 0.0474188 0.0688073
   vertex 0.0204629 0.0474188 0.0586409
   vertex 0.00940552 0.0692474 0.0586409
  endloop
 endfacet
 facet normal 0.415291 0.520122 0.746329
  outer loop
   vertex 0.00531003 0.0725175 0.0586409
   vertex 0.00531003 0.0692474 0.0609198
   vertex 0.00940552 0.0692474 0.0586409
  endloop
 endfacet
endsolid
