solid ascii
 facet normal -0.252853 -0.961277 -0.109602
  outer loop
   vertex -0.028053 -0.0333701 0.0370093
   vertex -0.0258215 -0.0309671 0.010785
   vertex 0.000786308 -0.0377969 0.00930218
  endloop
 endfacet
 facet normal -0.288522 -0.945776 -0.149205
  outer loop
   vertex 0.000786308 -0.0377969 0.00930218
   vertex 0.000540338 -0.0418231 0.035299
   vertex -0.028053 -0.0333701 0.0370093
  endloop
 endfacet
 facet normal -0.920394 -0.368089 -0.131851
  outer loop
   vertex -0.0438545 -0.000812504 0.036652
   vertex -0.0401556 -0.000803223 0.0108056
   vertex -0.0293732 -0.0277187 0.0106786
  endloop
 endfacet
 facet normal -0.913052 -0.395572 -0.0992878
  outer loop
   vertex -0.0293732 -0.0277187 0.0106786
   vertex -0.0315526 -0.0294404 0.0375798
   vertex -0.0438545 -0.000812504 0.036652
  endloop
 endfacet
 facet normal -0.750208 -0.653196 -0.102583
  outer loop
   vertex -0.0315526 -0.0294404 0.0375798
   vertex -0.0293732 -0.0277187 0.0106786
   vertex -0.028053 -0.0333701 0.0370093
  endloop
 endfacet
 facet normal -0.667654 -0.734059 -0.124077
  outer loop
   vertex -0.028053 -0.0333701 0.0370093
   vertex -0.0293732 -0.0277187 0.0106786
   vertex -0.0258215 -0.0309671 0.010785
  endloop
 endfacet
 facet normal -0.284058 -0.95875 -0.0104532
  outer loop
   vertex -0.0270043 -0.0340312 0.0691427
   vertex -0.028053 -0.0333701 0.0370093
   vertex 0.000540338 -0.0418231 0.035299
  endloop
 endfacet
 facet normal -0.272968 -0.962023 -0.000673664
  outer loop
   vertex 0.000540338 -0.0418231 0.035299
   vertex 0.000531038 -0.041844 0.0688269
   vertex -0.0270043 -0.0340312 0.0691427
  endloop
 endfacet
 facet normal -0.939291 -0.341399 0.0343491
  outer loop
   vertex -0.0426585 -0.000812904 0.0693547
   vertex -0.0438545 -0.000812504 0.036652
   vertex -0.0325377 -0.0286731 0.069206
  endloop
 endfacet
 facet normal -0.918374 -0.395257 -0.0190159
  outer loop
   vertex -0.0325377 -0.0286731 0.069206
   vertex -0.0438545 -0.000812504 0.036652
   vertex -0.0315526 -0.0294404 0.0375798
  endloop
 endfacet
 facet normal -0.747294 -0.664455 -0.00715623
  outer loop
   vertex -0.0325377 -0.0286731 0.069206
   vertex -0.0315526 -0.0294404 0.0375798
   vertex -0.028053 -0.0333701 0.0370093
  endloop
 endfacet
 facet normal -0.695564 -0.71842 0.00792178
  outer loop
   vertex -0.028053 -0.0333701 0.0370093
   vertex -0.0270043 -0.0340312 0.0691427
   vertex -0.0325377 -0.0286731 0.069206
  endloop
 endfacet
 facet normal -0.27305 -0.961952 -0.00954313
  outer loop
   vertex -0.0242047 -0.0351594 0.102759
   vertex -0.0270043 -0.0340312 0.0691427
   vertex 0.000531038 -0.041844 0.0688269
  endloop
 endfacet
 facet normal -0.262799 -0.964849 -0.0014999
  outer loop
   vertex 0.000531038 -0.041844 0.0688269
   vertex 0.000431765 -0.04187 0.102945
   vertex -0.0242047 -0.0351594 0.102759
  endloop
 endfacet
 facet normal -0.968587 -0.245954 0.0366977
  outer loop
   vertex -0.0413914 -0.000818074 0.102761
   vertex -0.0426585 -0.000812904 0.0693547
   vertex -0.0348827 -0.0264007 0.103092
  endloop
 endfacet
 facet normal -0.939142 -0.340937 -0.0421286
  outer loop
   vertex -0.0348827 -0.0264007 0.103092
   vertex -0.0426585 -0.000812904 0.0693547
   vertex -0.0325377 -0.0286731 0.069206
  endloop
 endfacet
 facet normal -0.695633 -0.718397 3.63774e-05
  outer loop
   vertex -0.0348827 -0.0264007 0.103092
   vertex -0.0325377 -0.0286731 0.069206
   vertex -0.0270043 -0.0340312 0.0691427
  endloop
 endfacet
 facet normal -0.633469 -0.773304 0.0268038
  outer loop
   vertex -0.0270043 -0.0340312 0.0691427
   vertex -0.0242047 -0.0351594 0.102759
   vertex -0.0348827 -0.0264007 0.103092
  endloop
 endfacet
 facet normal -0.262744 -0.964831 -0.00820465
  outer loop
   vertex -0.021232 -0.0362737 0.138604
   vertex -0.0242047 -0.0351594 0.102759
   vertex 0.000431765 -0.04187 0.102945
  endloop
 endfacet
 facet normal -0.252093 -0.967702 -0.00128356
  outer loop
   vertex 0.000431765 -0.04187 0.102945
   vertex 0.000348814 -0.0418963 0.139124
   vertex -0.021232 -0.0362737 0.138604
  endloop
 endfacet
 facet normal -0.98177 -0.186063 0.0388229
  outer loop
   vertex -0.0399541 -0.000823241 0.139085
   vertex -0.0413914 -0.000818074 0.102761
   vertex -0.0359173 -0.0220031 0.139662
  endloop
 endfacet
 facet normal -0.969131 -0.246538 0.00222901
  outer loop
   vertex -0.0359173 -0.0220031 0.139662
   vertex -0.0413914 -0.000818074 0.102761
   vertex -0.0348827 -0.0264007 0.103092
  endloop
 endfacet
 facet normal -0.69288 -0.717959 0.0667325
  outer loop
   vertex -0.0359173 -0.0220031 0.139662
   vertex -0.0348827 -0.0264007 0.103092
   vertex -0.021232 -0.0362737 0.138604
  endloop
 endfacet
 facet normal -0.633408 -0.773294 0.0284885
  outer loop
   vertex -0.021232 -0.0362737 0.138604
   vertex -0.0348827 -0.0264007 0.103092
   vertex -0.0242047 -0.0351594 0.102759
  endloop
 endfacet
 facet normal 0.335414 -0.931447 -0.141083
  outer loop
   vertex 0.000540338 -0.0418231 0.035299
   vertex 0.000786308 -0.0377969 0.00930218
   vertex 0.0172177 -0.03178 0.00864221
  endloop
 endfacet
 facet normal 0.17292 -0.952502 -0.250677
  outer loop
   vertex 0.0172177 -0.03178 0.00864221
   vertex 0.0214083 -0.0369432 0.0311517
   vertex 0.000540338 -0.0418231 0.035299
  endloop
 endfacet
 facet normal 0.806743 -0.525262 -0.270675
  outer loop
   vertex 0.0214083 -0.0369432 0.0311517
   vertex 0.0172177 -0.03178 0.00864221
   vertex 0.0348423 -0.0177946 0.0340325
  endloop
 endfacet
 facet normal 0.77395 -0.598203 -0.207735
  outer loop
   vertex 0.0348423 -0.0177946 0.0340325
   vertex 0.0172177 -0.03178 0.00864221
   vertex 0.0319604 -0.0124834 0.00800121
  endloop
 endfacet
 facet normal 0.960974 -0.230238 -0.153363
  outer loop
   vertex 0.0348423 -0.0177946 0.0340325
   vertex 0.0319604 -0.0124834 0.00800121
   vertex 0.0387343 -0.000820503 0.0329372
  endloop
 endfacet
 facet normal 0.970151 -0.139774 -0.198167
  outer loop
   vertex 0.0387343 -0.000820503 0.0329372
   vertex 0.0319604 -0.0124834 0.00800121
   vertex 0.0336485 -0.000806941 0.00802978
  endloop
 endfacet
 facet normal 0.227602 -0.973754 -0.000542104
  outer loop
   vertex 0.000531038 -0.041844 0.0688269
   vertex 0.000540338 -0.0418231 0.035299
   vertex 0.0214083 -0.0369432 0.0311517
  endloop
 endfacet
 facet normal 0.229548 -0.973297 0.000595962
  outer loop
   vertex 0.0214083 -0.0369432 0.0311517
   vertex 0.0226173 -0.0366358 0.0674682
   vertex 0.000531038 -0.041844 0.0688269
  endloop
 endfacet
 facet normal 0.80396 -0.594286 -0.0217346
  outer loop
   vertex 0.0226173 -0.0366358 0.0674682
   vertex 0.0214083 -0.0369432 0.0311517
   vertex 0.0344077 -0.0207308 0.0687069
  endloop
 endfacet
 facet normal 0.820717 -0.570071 -0.0379886
  outer loop
   vertex 0.0344077 -0.0207308 0.0687069
   vertex 0.0214083 -0.0369432 0.0311517
   vertex 0.0348423 -0.0177946 0.0340325
  endloop
 endfacet
 facet normal 0.95608 -0.292825 -0.012815
  outer loop
   vertex 0.0344077 -0.0207308 0.0687069
   vertex 0.0348423 -0.0177946 0.0340325
   vertex 0.040493 -0.000821573 0.067776
  endloop
 endfacet
 facet normal 0.972835 -0.226231 -0.0491176
  outer loop
   vertex 0.040493 -0.000821573 0.067776
   vertex 0.0348423 -0.0177946 0.0340325
   vertex 0.0387343 -0.000820503 0.0329372
  endloop
 endfacet
 facet normal 0.21864 -0.975805 -0.000107412
  outer loop
   vertex 0.000431765 -0.04187 0.102945
   vertex 0.000531038 -0.041844 0.0688269
   vertex 0.021913 -0.0370569 0.10343
  endloop
 endfacet
 facet normal 0.229105 -0.973377 -0.00690984
  outer loop
   vertex 0.021913 -0.0370569 0.10343
   vertex 0.000531038 -0.041844 0.0688269
   vertex 0.0226173 -0.0366358 0.0674682
  endloop
 endfacet
 facet normal 0.766444 -0.642268 0.00749107
  outer loop
   vertex 0.021913 -0.0370569 0.10343
   vertex 0.0226173 -0.0366358 0.0674682
   vertex 0.0348903 -0.021578 0.102787
  endloop
 endfacet
 facet normal 0.804039 -0.594001 -0.0261513
  outer loop
   vertex 0.0348903 -0.021578 0.102787
   vertex 0.0226173 -0.0366358 0.0674682
   vertex 0.0344077 -0.0207308 0.0687069
  endloop
 endfacet
 facet normal 0.948044 -0.317424 -0.0213156
  outer loop
   vertex 0.0348903 -0.021578 0.102787
   vertex 0.0344077 -0.0207308 0.0687069
   vertex 0.0418534 -0.000824749 0.10343
  endloop
 endfacet
 facet normal 0.955212 -0.293666 -0.0364726
  outer loop
   vertex 0.0418534 -0.000824749 0.10343
   vertex 0.0344077 -0.0207308 0.0687069
   vertex 0.040493 -0.000821573 0.067776
  endloop
 endfacet
 facet normal 0.218643 -0.975805 -0.000210168
  outer loop
   vertex 0.000348814 -0.0418963 0.139124
   vertex 0.000431765 -0.04187 0.102945
   vertex 0.021913 -0.0370569 0.10343
  endloop
 endfacet
 facet normal 0.22076 -0.975327 0.0011339
  outer loop
   vertex 0.021913 -0.0370569 0.10343
   vertex 0.0217269 -0.0370569 0.139662
   vertex 0.000348814 -0.0418963 0.139124
  endloop
 endfacet
 facet normal 0.727835 -0.685742 0.00373841
  outer loop
   vertex 0.0217269 -0.0370569 0.139662
   vertex 0.021913 -0.0370569 0.10343
   vertex 0.0349052 -0.0230829 0.137229
  endloop
 endfacet
 facet normal 0.765421 -0.642902 -0.0284207
  outer loop
   vertex 0.0349052 -0.0230829 0.137229
   vertex 0.021913 -0.0370569 0.10343
   vertex 0.0348903 -0.021578 0.102787
  endloop
 endfacet
 facet normal 0.94255 -0.333729 -0.0149876
  outer loop
   vertex 0.0349052 -0.0230829 0.137229
   vertex 0.0348903 -0.021578 0.102787
   vertex 0.0428248 -0.000824749 0.139662
  endloop
 endfacet
 facet normal 0.947992 -0.317279 -0.0254166
  outer loop
   vertex 0.0428248 -0.000824749 0.139662
   vertex 0.0348903 -0.021578 0.102787
   vertex 0.0418534 -0.000824749 0.10343
  endloop
 endfacet
 facet normal -0.919315 0.372793 -0.126038
  outer loop
   vertex -0.0321994 0.0275377 0.0365997
   vertex -0.0295124 0.0252855 0.0103394
   vertex -0.0401556 -0.000803223 0.0108056
  endloop
 endfacet
 facet normal -0.916993 0.376745 -0.131097
  outer loop
   vertex -0.0401556 -0.000803223 0.0108056
   vertex -0.0438545 -0.000812504 0.036652
   vertex -0.0321994 0.0275377 0.0365997
  endloop
 endfacet
 facet normal -0.673311 0.730004 -0.117245
  outer loop
   vertex -0.0270824 0.0317969 0.0369263
   vertex -0.024829 0.0295823 0.0101964
   vertex -0.0295124 0.0252855 0.0103394
  endloop
 endfacet
 facet normal -0.629387 0.766123 -0.130105
  outer loop
   vertex -0.0295124 0.0252855 0.0103394
   vertex -0.0321994 0.0275377 0.0365997
   vertex -0.0270824 0.0317969 0.0369263
  endloop
 endfacet
 facet normal -0.244161 0.957731 -0.152104
  outer loop
   vertex 0.000527762 0.039995 0.0350573
   vertex 0.000780795 0.0359421 0.00913181
   vertex -0.024829 0.0295823 0.0101964
  endloop
 endfacet
 facet normal -0.289536 0.951582 -0.103249
  outer loop
   vertex -0.024829 0.0295823 0.0101964
   vertex -0.0270824 0.0317969 0.0369263
   vertex 0.000527762 0.039995 0.0350573
  endloop
 endfacet
 facet normal -0.924809 0.380223 0.0125988
  outer loop
   vertex -0.0322509 0.0263263 0.0693764
   vertex -0.0321994 0.0275377 0.0365997
   vertex -0.0438545 -0.000812504 0.036652
  endloop
 endfacet
 facet normal -0.933163 0.357829 0.0341335
  outer loop
   vertex -0.0438545 -0.000812504 0.036652
   vertex -0.0426585 -0.000812904 0.0693547
   vertex -0.0322509 0.0263263 0.0693764
  endloop
 endfacet
 facet normal -0.64056 0.767377 0.0285563
  outer loop
   vertex -0.0257244 0.031715 0.0695882
   vertex -0.0270824 0.0317969 0.0369263
   vertex -0.0321994 0.0275377 0.0365997
  endloop
 endfacet
 facet normal -0.63698 0.770391 0.0274719
  outer loop
   vertex -0.0321994 0.0275377 0.0365997
   vertex -0.0322509 0.0263263 0.0693764
   vertex -0.0257244 0.031715 0.0695882
  endloop
 endfacet
 facet normal -0.306466 0.95187 -0.00474761
  outer loop
   vertex 0.000504772 0.040155 0.0686289
   vertex 0.000527762 0.039995 0.0350573
   vertex -0.0257244 0.031715 0.0695882
  endloop
 endfacet
 facet normal -0.283728 0.9588 0.0142006
  outer loop
   vertex -0.0257244 0.031715 0.0695882
   vertex 0.000527762 0.039995 0.0350573
   vertex -0.0270824 0.0317969 0.0369263
  endloop
 endfacet
 facet normal -0.933594 0.358033 -0.0146431
  outer loop
   vertex -0.0339698 0.0232109 0.102793
   vertex -0.0322509 0.0263263 0.0693764
   vertex -0.0426585 -0.000812904 0.0693547
  endloop
 endfacet
 facet normal -0.95485 0.294868 0.0362604
  outer loop
   vertex -0.0426585 -0.000812904 0.0693547
   vertex -0.0413914 -0.000818074 0.102761
   vertex -0.0339698 0.0232109 0.102793
  endloop
 endfacet
 facet normal -0.647068 0.761657 0.034389
  outer loop
   vertex -0.0225215 0.0329477 0.102554
   vertex -0.0257244 0.031715 0.0695882
   vertex -0.0339698 0.0232109 0.102793
  endloop
 endfacet
 facet normal -0.636958 0.769911 0.0390134
  outer loop
   vertex -0.0339698 0.0232109 0.102793
   vertex -0.0257244 0.031715 0.0695882
   vertex -0.0322509 0.0263263 0.0693764
  endloop
 endfacet
 facet normal -0.290986 0.95671 0.00574958
  outer loop
   vertex 0.000397716 0.0399154 0.103086
   vertex 0.000504772 0.040155 0.0686289
   vertex -0.0225215 0.0329477 0.102554
  endloop
 endfacet
 facet normal -0.3065 0.951853 -0.00581228
  outer loop
   vertex -0.0225215 0.0329477 0.102554
   vertex 0.000504772 0.040155 0.0686289
   vertex -0.0257244 0.031715 0.0695882
  endloop
 endfacet
 facet normal -0.955356 0.295052 0.0154741
  outer loop
   vertex -0.0350781 0.0177437 0.138614
   vertex -0.0339698 0.0232109 0.102793
   vertex -0.0413914 -0.000818074 0.102761
  endloop
 endfacet
 facet normal -0.966256 0.254725 0.0382717
  outer loop
   vertex -0.0413914 -0.000818074 0.102761
   vertex -0.0399541 -0.000823241 0.139085
   vertex -0.0350781 0.0177437 0.138614
  endloop
 endfacet
 facet normal -0.646768 0.761503 0.042482
  outer loop
   vertex -0.0182375 0.0345789 0.138535
   vertex -0.0225215 0.0329477 0.102554
   vertex -0.0339698 0.0232109 0.102793
  endloop
 endfacet
 facet normal -0.704185 0.704815 0.0857846
  outer loop
   vertex -0.0339698 0.0232109 0.102793
   vertex -0.0350781 0.0177437 0.138614
   vertex -0.0182375 0.0345789 0.138535
  endloop
 endfacet
 facet normal -0.244179 0.96957 0.0175965
  outer loop
   vertex 0.000314862 0.0392307 0.139662
   vertex 0.000397716 0.0399154 0.103086
   vertex -0.0182375 0.0345789 0.138535
  endloop
 endfacet
 facet normal -0.29067 0.956783 -0.00876844
  outer loop
   vertex -0.0182375 0.0345789 0.138535
   vertex 0.000397716 0.0399154 0.103086
   vertex -0.0225215 0.0329477 0.102554
  endloop
 endfacet
 facet normal 0.760342 0.596666 -0.256652
  outer loop
   vertex 0.0357741 0.0171865 0.0323559
   vertex 0.0319046 0.011711 0.00816273
   vertex 0.0175301 0.0301991 0.00855895
  endloop
 endfacet
 facet normal 0.727136 0.65731 -0.198033
  outer loop
   vertex 0.0175301 0.0301991 0.00855895
   vertex 0.0208775 0.0339644 0.0333478
   vertex 0.0357741 0.0171865 0.0323559
  endloop
 endfacet
 facet normal 0.970518 0.137313 -0.198091
  outer loop
   vertex 0.0387343 -0.000820503 0.0329372
   vertex 0.0336485 -0.000806941 0.00802978
   vertex 0.0319046 0.011711 0.00816273
  endloop
 endfacet
 facet normal 0.969781 0.153294 -0.189804
  outer loop
   vertex 0.0319046 0.011711 0.00816273
   vertex 0.0357741 0.0171865 0.0323559
   vertex 0.0387343 -0.000820503 0.0329372
  endloop
 endfacet
 facet normal 0.265595 0.947182 -0.179737
  outer loop
   vertex 0.0208775 0.0339644 0.0333478
   vertex 0.0175301 0.0301991 0.00855895
   vertex 0.000527762 0.039995 0.0350573
  endloop
 endfacet
 facet normal 0.316591 0.937646 -0.143491
  outer loop
   vertex 0.000527762 0.039995 0.0350573
   vertex 0.0175301 0.0301991 0.00855895
   vertex 0.000780795 0.0359421 0.00913181
  endloop
 endfacet
 facet normal 0.744811 0.664735 -0.0581698
  outer loop
   vertex 0.0359361 0.0200917 0.0676286
   vertex 0.0357741 0.0171865 0.0323559
   vertex 0.0208775 0.0339644 0.0333478
  endloop
 endfacet
 facet normal 0.702548 0.711334 -0.0207469
  outer loop
   vertex 0.0208775 0.0339644 0.0333478
   vertex 0.0218974 0.0339715 0.0681272
   vertex 0.0359361 0.0200917 0.0676286
  endloop
 endfacet
 facet normal 0.98579 0.160446 -0.0497597
  outer loop
   vertex 0.040493 -0.000821573 0.067776
   vertex 0.0387343 -0.000820503 0.0329372
   vertex 0.0357741 0.0171865 0.0323559
  endloop
 endfacet
 facet normal 0.97687 0.212701 -0.0220042
  outer loop
   vertex 0.0357741 0.0171865 0.0323559
   vertex 0.0359361 0.0200917 0.0676286
   vertex 0.040493 -0.000821573 0.067776
  endloop
 endfacet
 facet normal 0.277491 0.960692 -0.00833399
  outer loop
   vertex 0.0218974 0.0339715 0.0681272
   vertex 0.0208775 0.0339644 0.0333478
   vertex 0.000504772 0.040155 0.0686289
  endloop
 endfacet
 facet normal 0.283792 0.958876 -0.0043768
  outer loop
   vertex 0.000504772 0.040155 0.0686289
   vertex 0.0208775 0.0339644 0.0333478
   vertex 0.000527762 0.039995 0.0350573
  endloop
 endfacet
 facet normal 0.702523 0.711336 -0.0214988
  outer loop
   vertex 0.0365235 0.0205933 0.103421
   vertex 0.0359361 0.0200917 0.0676286
   vertex 0.0218974 0.0339715 0.0681272
  endloop
 endfacet
 facet normal 0.683962 0.729484 -0.00692779
  outer loop
   vertex 0.0218974 0.0339715 0.0681272
   vertex 0.0209958 0.0351512 0.103338
   vertex 0.0365235 0.0205933 0.103421
  endloop
 endfacet
 facet normal 0.976451 0.212502 -0.0372379
  outer loop
   vertex 0.0418534 -0.000824749 0.10343
   vertex 0.040493 -0.000821573 0.067776
   vertex 0.0359361 0.0200917 0.0676286
  endloop
 endfacet
 facet normal 0.970225 0.241433 -0.0193061
  outer loop
   vertex 0.0359361 0.0200917 0.0676286
   vertex 0.0365235 0.0205933 0.103421
   vertex 0.0418534 -0.000824749 0.10343
  endloop
 endfacet
 facet normal 0.277051 0.960528 -0.0250871
  outer loop
   vertex 0.0209958 0.0351512 0.103338
   vertex 0.0218974 0.0339715 0.0681272
   vertex 0.000504772 0.040155 0.0686289
  endloop
 endfacet
 facet normal 0.225249 0.974272 0.00747561
  outer loop
   vertex 0.000504772 0.040155 0.0686289
   vertex 0.000397716 0.0399154 0.103086
   vertex 0.0209958 0.0351512 0.103338
  endloop
 endfacet
 facet normal 0.683917 0.729385 -0.0159505
  outer loop
   vertex 0.036547 0.0213638 0.139662
   vertex 0.0365235 0.0205933 0.103421
   vertex 0.0209958 0.0351512 0.103338
  endloop
 endfacet
 facet normal 0.63268 0.774074 0.0229486
  outer loop
   vertex 0.0209958 0.0351512 0.103338
   vertex 0.0193649 0.0354074 0.139662
   vertex 0.036547 0.0213638 0.139662
  endloop
 endfacet
 facet normal 0.970079 0.241394 -0.0260088
  outer loop
   vertex 0.0428248 -0.000824749 0.139662
   vertex 0.0418534 -0.000824749 0.10343
   vertex 0.0365235 0.0205933 0.103421
  endloop
 endfacet
 facet normal 0.962209 0.272237 -0.00641278
  outer loop
   vertex 0.0365235 0.0205933 0.103421
   vertex 0.036547 0.0213638 0.139662
   vertex 0.0428248 -0.000824749 0.139662
  endloop
 endfacet
 facet normal 0.225304 0.974283 0.00324503
  outer loop
   vertex 0.0193649 0.0354074 0.139662
   vertex 0.0209958 0.0351512 0.103338
   vertex 0.000397716 0.0399154 0.103086
  endloop
 endfacet
 facet normal 0.196741 0.980275 0.0187957
  outer loop
   vertex 0.000397716 0.0399154 0.103086
   vertex 0.000314862 0.0392307 0.139662
   vertex 0.0193649 0.0354074 0.139662
  endloop
 endfacet
 facet normal -0.252071 -0.967706 -0.00225683
  outer loop
   vertex -0.0186671 -0.0370286 0.175828
   vertex -0.021232 -0.0362737 0.138604
   vertex 0.000348814 -0.0418963 0.139124
  endloop
 endfacet
 facet normal -0.231696 -0.972747 0.00896769
  outer loop
   vertex 0.000348814 -0.0418963 0.139124
   vertex 0.000314862 -0.0415493 0.175894
   vertex -0.0186671 -0.0370286 0.175828
  endloop
 endfacet
 facet normal -0.987772 -0.150645 0.0401609
  outer loop
   vertex -0.0384573 -0.000824749 0.175894
   vertex -0.0399541 -0.000823241 0.139085
   vertex -0.0359173 -0.0174792 0.175894
  endloop
 endfacet
 facet normal -0.982167 -0.186562 0.023294
  outer loop
   vertex -0.0359173 -0.0174792 0.175894
   vertex -0.0399541 -0.000823241 0.139085
   vertex -0.0359173 -0.0220031 0.139662
  endloop
 endfacet
 facet normal -0.747138 -0.659548 0.0823506
  outer loop
   vertex -0.0359173 -0.0174792 0.175894
   vertex -0.0359173 -0.0220031 0.139662
   vertex -0.0186671 -0.0370286 0.175828
  endloop
 endfacet
 facet normal -0.695285 -0.71796 0.0333496
  outer loop
   vertex -0.0186671 -0.0370286 0.175828
   vertex -0.0359173 -0.0220031 0.139662
   vertex -0.021232 -0.0362737 0.138604
  endloop
 endfacet
 facet normal -0.231676 -0.972376 0.0284879
  outer loop
   vertex -0.014085 -0.0370569 0.212126
   vertex -0.0186671 -0.0370286 0.175828
   vertex 0.000314862 -0.0415493 0.175894
  endloop
 endfacet
 facet normal -0.204425 -0.978064 0.0400234
  outer loop
   vertex 0.000314862 -0.0415493 0.175894
   vertex 0.000314862 -0.0400666 0.212126
   vertex -0.014085 -0.0370569 0.212126
  endloop
 endfacet
 facet normal -0.997375 -0.0354126 0.0631548
  outer loop
   vertex -0.036163 -0.000824749 0.212126
   vertex -0.0384573 -0.000824749 0.175894
   vertex -0.0359173 -0.0077451 0.212126
  endloop
 endfacet
 facet normal -0.987759 -0.150643 0.0404717
  outer loop
   vertex -0.0359173 -0.0077451 0.212126
   vertex -0.0384573 -0.000824749 0.175894
   vertex -0.0359173 -0.0174792 0.175894
  endloop
 endfacet
 facet normal -0.791854 -0.589797 0.158454
  outer loop
   vertex -0.0359173 -0.0077451 0.212126
   vertex -0.0359173 -0.0174792 0.175894
   vertex -0.014085 -0.0370569 0.212126
  endloop
 endfacet
 facet normal -0.746367 -0.658905 0.0937031
  outer loop
   vertex -0.014085 -0.0370569 0.212126
   vertex -0.0359173 -0.0174792 0.175894
   vertex -0.0186671 -0.0370286 0.175828
  endloop
 endfacet
 facet normal -0.203722 -0.974697 0.0919925
  outer loop
   vertex 0.000314862 -0.0400666 0.212126
   vertex 0.000314862 -0.0370569 0.244015
   vertex -0.014085 -0.0370569 0.212126
  endloop
 endfacet
 facet normal -0.993603 -0.0352787 0.107274
  outer loop
   vertex -0.0359173 -0.0077451 0.212126
   vertex -0.0359173 -0.000824749 0.214402
   vertex -0.036163 -0.000824749 0.212126
  endloop
 endfacet
 facet normal -0.995234 -0.030465 0.0926371
  outer loop
   vertex -0.0327566 -0.000824749 0.248358
   vertex -0.0359173 -0.000824749 0.214402
   vertex -0.0359173 -0.0077451 0.212126
  endloop
 endfacet
 facet normal -0.788738 -0.587476 0.181013
  outer loop
   vertex -0.0327566 -0.000824749 0.248358
   vertex -0.0359173 -0.0077451 0.212126
   vertex -0.014085 -0.0370569 0.212126
  endloop
 endfacet
 facet normal -0.68378 -0.661142 0.308767
  outer loop
   vertex -0.0327566 -0.000824749 0.248358
   vertex -0.014085 -0.0370569 0.212126
   vertex 0.000314862 -0.0370569 0.244015
  endloop
 endfacet
 facet normal -0.733788 -0.676827 0.0588232
  outer loop
   vertex -0.0327566 -0.000824749 0.248358
   vertex 0.000314862 -0.0370569 0.244015
   vertex 0.000314862 -0.0366795 0.248358
  endloop
 endfacet
 facet normal -0.716882 -0.661234 0.221017
  outer loop
   vertex -0.0265842 -0.000814045 0.268411
   vertex -0.0327566 -0.000824749 0.248358
   vertex 0.000314862 -0.0366795 0.248358
  endloop
 endfacet
 facet normal -0.734781 -0.653236 0.182702
  outer loop
   vertex 0.000314862 -0.0366795 0.248358
   vertex 0.000567762 -0.0312552 0.268769
   vertex -0.0265842 -0.000814045 0.268411
  endloop
 endfacet
 facet normal 0.220553 -0.97533 0.00940966
  outer loop
   vertex 0.000314862 -0.0415493 0.175894
   vertex 0.000348814 -0.0418963 0.139124
   vertex 0.0217269 -0.0370569 0.139662
  endloop
 endfacet
 facet normal 0.203703 -0.979032 -0.00100691
  outer loop
   vertex 0.0217269 -0.0370569 0.139662
   vertex 0.021906 -0.0370569 0.175894
   vertex 0.000314862 -0.0415493 0.175894
  endloop
 endfacet
 facet normal 0.692769 -0.721152 -0.00342439
  outer loop
   vertex 0.021906 -0.0370569 0.175894
   vertex 0.0217269 -0.0370569 0.139662
   vertex 0.034998 -0.0244612 0.171905
  endloop
 endfacet
 facet normal 0.724652 -0.688492 -0.0293057
  outer loop
   vertex 0.034998 -0.0244612 0.171905
   vertex 0.0217269 -0.0370569 0.139662
   vertex 0.0349052 -0.0230829 0.137229
  endloop
 endfacet
 facet normal 0.938815 -0.344042 -0.0161878
  outer loop
   vertex 0.034998 -0.0244612 0.171905
   vertex 0.0349052 -0.0230829 0.137229
   vertex 0.0437287 -0.000824749 0.175894
  endloop
 endfacet
 facet normal 0.942688 -0.332846 -0.023517
  outer loop
   vertex 0.0437287 -0.000824749 0.175894
   vertex 0.0349052 -0.0230829 0.137229
   vertex 0.0428248 -0.000824749 0.139662
  endloop
 endfacet
 facet normal 0.153051 -0.987392 0.0404051
  outer loop
   vertex 0.000314862 -0.0400666 0.212126
   vertex 0.000314862 -0.0415493 0.175894
   vertex 0.0197317 -0.0370569 0.212126
  endloop
 endfacet
 facet normal 0.203688 -0.97896 0.0122231
  outer loop
   vertex 0.0197317 -0.0370569 0.212126
   vertex 0.000314862 -0.0415493 0.175894
   vertex 0.021906 -0.0370569 0.175894
  endloop
 endfacet
 facet normal 0.612798 -0.789384 0.0367734
  outer loop
   vertex 0.0197317 -0.0370569 0.212126
   vertex 0.021906 -0.0370569 0.175894
   vertex 0.0358115 -0.0246999 0.209428
  endloop
 endfacet
 facet normal 0.69008 -0.723468 -0.0195633
  outer loop
   vertex 0.0358115 -0.0246999 0.209428
   vertex 0.021906 -0.0370569 0.175894
   vertex 0.034998 -0.0244612 0.171905
  endloop
 endfacet
 facet normal 0.939045 -0.343055 -0.0225412
  outer loop
   vertex 0.0358115 -0.0246999 0.209428
   vertex 0.034998 -0.0244612 0.171905
   vertex 0.0437287 -0.000824749 0.175894
  endloop
 endfacet
 facet normal 0.950938 -0.309353 0.00426133
  outer loop
   vertex 0.0437287 -0.000824749 0.175894
   vertex 0.0435663 -0.000824749 0.212126
   vertex 0.0358115 -0.0246999 0.209428
  endloop
 endfacet
 facet normal 0.152514 -0.983929 0.0928638
  outer loop
   vertex 0.0197317 -0.0370569 0.212126
   vertex 0.000314862 -0.0370569 0.244015
   vertex 0.000314862 -0.0400666 0.212126
  endloop
 endfacet
 facet normal 0.426869 -0.900918 0.0782989
  outer loop
   vertex 0.000314862 -0.0366795 0.248358
   vertex 0.000314862 -0.0370569 0.244015
   vertex 0.036547 -0.0195121 0.248358
  endloop
 endfacet
 facet normal 0.399021 -0.884168 0.242958
  outer loop
   vertex 0.036547 -0.0195121 0.248358
   vertex 0.000314862 -0.0370569 0.244015
   vertex 0.0197317 -0.0370569 0.212126
  endloop
 endfacet
 facet normal 0.616441 -0.781943 0.0925529
  outer loop
   vertex 0.036547 -0.0195121 0.248358
   vertex 0.0197317 -0.0370569 0.212126
   vertex 0.0358115 -0.0246999 0.209428
  endloop
 endfacet
 facet normal 0.95004 -0.311239 0.0235254
  outer loop
   vertex 0.036547 -0.0195121 0.248358
   vertex 0.0358115 -0.0246999 0.209428
   vertex 0.0435663 -0.000824749 0.212126
  endloop
 endfacet
 facet normal 0.975609 -0.202591 0.084516
  outer loop
   vertex 0.0435663 -0.000824749 0.212126
   vertex 0.0404276 -0.000824749 0.248358
   vertex 0.036547 -0.0195121 0.248358
  endloop
 endfacet
 facet normal 0.416842 -0.879756 0.228631
  outer loop
   vertex 0.000567762 -0.0312552 0.268769
   vertex 0.000314862 -0.0366795 0.248358
   vertex 0.036547 -0.0195121 0.248358
  endloop
 endfacet
 facet normal 0.54695 -0.459818 0.699581
  outer loop
   vertex 0.000567762 -0.0312552 0.268769
   vertex 0.036547 -0.0195121 0.248358
   vertex 0.0343366 -0.000816185 0.262375
  endloop
 endfacet
 facet normal 0.192124 -0.00698435 0.981346
  outer loop
   vertex 0.000567762 -0.0312552 0.268769
   vertex 0.0343366 -0.000816185 0.262375
   vertex 0.0327725 -0.000810254 0.262681
  endloop
 endfacet
 facet normal 0.900911 -0.18708 0.391612
  outer loop
   vertex 0.0404276 -0.000824749 0.248358
   vertex 0.0343366 -0.000816185 0.262375
   vertex 0.036547 -0.0195121 0.248358
  endloop
 endfacet
 facet normal -0.966824 0.254469 0.0222775
  outer loop
   vertex -0.0355341 0.0128202 0.175063
   vertex -0.0350781 0.0177437 0.138614
   vertex -0.0399541 -0.000823241 0.139085
  endloop
 endfacet
 facet normal -0.976544 0.211624 0.0397192
  outer loop
   vertex -0.0399541 -0.000823241 0.139085
   vertex -0.0384573 -0.000824749 0.175894
   vertex -0.0355341 0.0128202 0.175063
  endloop
 endfacet
 facet normal -0.705559 0.70607 0.0604339
  outer loop
   vertex -0.0142085 0.0354074 0.175894
   vertex -0.0182375 0.0345789 0.138535
   vertex -0.0350781 0.0177437 0.138614
  endloop
 endfacet
 facet normal -0.72613 0.682516 0.0831101
  outer loop
   vertex -0.0350781 0.0177437 0.138614
   vertex -0.0355341 0.0128202 0.175063
   vertex -0.0142085 0.0354074 0.175894
  endloop
 endfacet
 facet normal -0.174941 0.984002 0.0337114
  outer loop
   vertex 0.000314862 0.0379894 0.175894
   vertex 0.000314862 0.0392307 0.139662
   vertex -0.0142085 0.0354074 0.175894
  endloop
 endfacet
 facet normal -0.24348 0.969894 0.00474926
  outer loop
   vertex -0.0142085 0.0354074 0.175894
   vertex 0.000314862 0.0392307 0.139662
   vertex -0.0182375 0.0345789 0.138535
  endloop
 endfacet
 facet normal -0.976038 0.212066 0.0487553
  outer loop
   vertex -0.0359173 0.00253552 0.212126
   vertex -0.0355341 0.0128202 0.175063
   vertex -0.0384573 -0.000824749 0.175894
  endloop
 endfacet
 facet normal -0.995354 0.0727832 0.0630269
  outer loop
   vertex -0.0384573 -0.000824749 0.175894
   vertex -0.036163 -0.000824749 0.212126
   vertex -0.0359173 0.00253552 0.212126
  endloop
 endfacet
 facet normal -0.724127 0.679299 0.119135
  outer loop
   vertex -0.00824745 0.0354074 0.212126
   vertex -0.0142085 0.0354074 0.175894
   vertex -0.0355341 0.0128202 0.175063
  endloop
 endfacet
 facet normal -0.754127 0.634785 0.16835
  outer loop
   vertex -0.0355341 0.0128202 0.175063
   vertex -0.0359173 0.00253552 0.212126
   vertex -0.00824745 0.0354074 0.212126
  endloop
 endfacet
 facet normal -0.135557 0.990021 0.0385178
  outer loop
   vertex 0.000314862 0.0365798 0.212126
   vertex 0.000314862 0.0379894 0.175894
   vertex -0.00824745 0.0354074 0.212126
  endloop
 endfacet
 facet normal -0.174968 0.984153 0.0287862
  outer loop
   vertex -0.00824745 0.0354074 0.212126
   vertex 0.000314862 0.0379894 0.175894
   vertex -0.0142085 0.0354074 0.175894
  endloop
 endfacet
 facet normal -0.991605 0.072509 0.107059
  outer loop
   vertex -0.036163 -0.000824749 0.212126
   vertex -0.0359173 -0.000824749 0.214402
   vertex -0.0359173 0.00253552 0.212126
  endloop
 endfacet
 facet normal -0.721547 0.690288 0.0535996
  outer loop
   vertex 0.000314862 0.0337443 0.248358
   vertex 0.000314862 0.0354074 0.22694
   vertex -0.0327566 -0.000824749 0.248358
  endloop
 endfacet
 facet normal -0.694374 0.708448 0.126277
  outer loop
   vertex -0.0327566 -0.000824749 0.248358
   vertex 0.000314862 0.0354074 0.22694
   vertex -0.0359173 0.00253552 0.212126
  endloop
 endfacet
 facet normal -0.99374 0.0626474 0.0924981
  outer loop
   vertex -0.0327566 -0.000824749 0.248358
   vertex -0.0359173 0.00253552 0.212126
   vertex -0.0359173 -0.000824749 0.214402
  endloop
 endfacet
 facet normal -0.699692 0.588964 0.404416
  outer loop
   vertex -0.0359173 0.00253552 0.212126
   vertex 0.000314862 0.0354074 0.22694
   vertex -0.00824745 0.0354074 0.212126
  endloop
 endfacet
 facet normal -0.135242 0.987724 0.0781689
  outer loop
   vertex -0.00824745 0.0354074 0.212126
   vertex 0.000314862 0.0354074 0.22694
   vertex 0.000314862 0.0365798 0.212126
  endloop
 endfacet
 facet normal -0.663207 0.687653 0.295449
  outer loop
   vertex 0.000645909 0.0273945 0.26388
   vertex 0.000314862 0.0337443 0.248358
   vertex -0.0265842 -0.000814045 0.268411
  endloop
 endfacet
 facet normal -0.705404 0.674845 0.216771
  outer loop
   vertex -0.0265842 -0.000814045 0.268411
   vertex 0.000314862 0.0337443 0.248358
   vertex -0.0327566 -0.000824749 0.248358
  endloop
 endfacet
 facet normal 0.632787 0.774204 -0.0137427
  outer loop
   vertex 0.036547 0.0220069 0.175894
   vertex 0.036547 0.0213638 0.139662
   vertex 0.0193649 0.0354074 0.139662
  endloop
 endfacet
 facet normal 0.580155 0.814092 0.0259685
  outer loop
   vertex 0.0193649 0.0354074 0.139662
   vertex 0.0177431 0.0354074 0.175894
   vertex 0.036547 0.0220069 0.175894
  endloop
 endfacet
 facet normal 0.961952 0.272164 -0.0239976
  outer loop
   vertex 0.0437287 -0.000824749 0.175894
   vertex 0.0428248 -0.000824749 0.139662
   vertex 0.036547 0.0213638 0.139662
  endloop
 endfacet
 facet normal 0.953909 0.30005 -0.00532612
  outer loop
   vertex 0.036547 0.0213638 0.139662
   vertex 0.036547 0.0220069 0.175894
   vertex 0.0437287 -0.000824749 0.175894
  endloop
 endfacet
 facet normal 0.196768 0.980411 0.00880757
  outer loop
   vertex 0.0177431 0.0354074 0.175894
   vertex 0.0193649 0.0354074 0.139662
   vertex 0.000314862 0.0392307 0.139662
  endloop
 endfacet
 facet normal 0.146468 0.988635 0.0338702
  outer loop
   vertex 0.000314862 0.0392307 0.139662
   vertex 0.000314862 0.0379894 0.175894
   vertex 0.0177431 0.0354074 0.175894
  endloop
 endfacet
 facet normal 0.580236 0.814205 0.0198992
  outer loop
   vertex 0.036547 0.0211214 0.212126
   vertex 0.036547 0.0220069 0.175894
   vertex 0.0177431 0.0354074 0.175894
  endloop
 endfacet
 facet normal 0.530556 0.845657 0.0580837
  outer loop
   vertex 0.0177431 0.0354074 0.175894
   vertex 0.0137765 0.0354074 0.212126
   vertex 0.036547 0.0211214 0.212126
  endloop
 endfacet
 facet normal 0.952459 0.304636 0.00426815
  outer loop
   vertex 0.0435663 -0.000824749 0.212126
   vertex 0.0437287 -0.000824749 0.175894
   vertex 0.036547 0.0211214 0.212126
  endloop
 endfacet
 facet normal 0.953897 0.300046 0.00733315
  outer loop
   vertex 0.036547 0.0211214 0.212126
   vertex 0.0437287 -0.000824749 0.175894
   vertex 0.036547 0.0220069 0.175894
  endloop
 endfacet
 facet normal 0.146534 0.989076 0.0160421
  outer loop
   vertex 0.0137765 0.0354074 0.212126
   vertex 0.0177431 0.0354074 0.175894
   vertex 0.000314862 0.0379894 0.175894
  endloop
 endfacet
 facet normal 0.0866969 0.995482 0.0387302
  outer loop
   vertex 0.000314862 0.0379894 0.175894
   vertex 0.000314862 0.0365798 0.212126
   vertex 0.0137765 0.0354074 0.212126
  endloop
 endfacet
 facet normal 0.52619 0.838697 0.140395
  outer loop
   vertex 0.036547 0.0150563 0.248358
   vertex 0.036547 0.0211214 0.212126
   vertex 0.0137765 0.0354074 0.212126
  endloop
 endfacet
 facet normal 0.327642 0.896663 0.297734
  outer loop
   vertex 0.036547 0.0150563 0.248358
   vertex 0.0137765 0.0354074 0.212126
   vertex 0.000314862 0.0354074 0.22694
  endloop
 endfacet
 facet normal 0.457314 0.886636 0.0688457
  outer loop
   vertex 0.036547 0.0150563 0.248358
   vertex 0.000314862 0.0354074 0.22694
   vertex 0.000314862 0.0337443 0.248358
  endloop
 endfacet
 facet normal 0.967998 0.236531 0.0838566
  outer loop
   vertex 0.0404276 -0.000824749 0.248358
   vertex 0.0435663 -0.000824749 0.212126
   vertex 0.036547 0.0150563 0.248358
  endloop
 endfacet
 facet normal 0.951232 0.304243 0.0509294
  outer loop
   vertex 0.036547 0.0150563 0.248358
   vertex 0.0435663 -0.000824749 0.212126
   vertex 0.036547 0.0211214 0.212126
  endloop
 endfacet
 facet normal 0.0864935 0.993147 0.0785981
  outer loop
   vertex 0.000314862 0.0365798 0.212126
   vertex 0.000314862 0.0354074 0.22694
   vertex 0.0137765 0.0354074 0.212126
  endloop
 endfacet
 facet normal 0.189824 0.175137 0.966072
  outer loop
   vertex 0.0327725 -0.000810254 0.262681
   vertex 0.0343366 -0.000816185 0.262375
   vertex 0.000645909 0.0273945 0.26388
  endloop
 endfacet
 facet normal 0.483464 0.540633 0.688461
  outer loop
   vertex 0.000645909 0.0273945 0.26388
   vertex 0.0343366 -0.000816185 0.262375
   vertex 0.036547 0.0150563 0.248358
  endloop
 endfacet
 facet normal 0.432153 0.837854 0.333532
  outer loop
   vertex 0.000645909 0.0273945 0.26388
   vertex 0.036547 0.0150563 0.248358
   vertex 0.000314862 0.0337443 0.248358
  endloop
 endfacet
 facet normal 0.894994 0.218693 0.388793
  outer loop
   vertex 0.036547 0.0150563 0.248358
   vertex 0.0343366 -0.000816185 0.262375
   vertex 0.0404276 -0.000824749 0.248358
  endloop
 endfacet
endsolid
