solid ascii
 facet normal -0.75782 -0.125657 -0.640249
  outer loop
   vertex -0.0171027 -0.0503331 0.0105273
   vertex -0.0136724 -0.0433256 0.00509184
   vertex -0.0117242 -0.0565535 0.00538194
  endloop
 endfacet
 facet normal -0.823748 -0.513546 -0.24023
  outer loop
   vertex -0.0117242 -0.0565535 0.00538194
   vertex -0.0123457 -0.0603546 0.0156391
   vertex -0.0171027 -0.0503331 0.0105273
  endloop
 endfacet
 facet normal -0.728722 -0.174366 -0.662239
  outer loop
   vertex -0.0208045 -0.0341626 0.0105273
   vertex -0.0166699 -0.0299283 0.00486269
   vertex -0.0136724 -0.0433256 0.00509184
  endloop
 endfacet
 facet normal -0.72352 -0.165631 -0.670138
  outer loop
   vertex -0.0136724 -0.0433256 0.00509184
   vertex -0.0171027 -0.0503331 0.0105273
   vertex -0.0208045 -0.0341626 0.0105273
  endloop
 endfacet
 facet normal -0.905924 -0.423232 0.0132988
  outer loop
   vertex -0.0168653 -0.0503331 0.0266978
   vertex -0.0171027 -0.0503331 0.0105273
   vertex -0.0123457 -0.0603546 0.0156391
  endloop
 endfacet
 facet normal -0.877718 -0.473924 0.0707644
  outer loop
   vertex -0.0123457 -0.0603546 0.0156391
   vertex -0.0112217 -0.0602689 0.0301557
   vertex -0.0168653 -0.0503331 0.0266978
  endloop
 endfacet
 facet normal -0.974651 -0.223121 -0.0165032
  outer loop
   vertex -0.0210783 -0.0341626 0.0266978
   vertex -0.0208045 -0.0341626 0.0105273
   vertex -0.0171027 -0.0503331 0.0105273
  endloop
 endfacet
 facet normal -0.967598 -0.252095 0.0142041
  outer loop
   vertex -0.0171027 -0.0503331 0.0105273
   vertex -0.0168653 -0.0503331 0.0266978
   vertex -0.0210783 -0.0341626 0.0266978
  endloop
 endfacet
 facet normal -0.86128 -0.14122 -0.488112
  outer loop
   vertex -0.0224026 -0.0177997 0.0114691
   vertex -0.0187234 -0.0164249 0.00457941
   vertex -0.0166699 -0.0299283 0.00486269
  endloop
 endfacet
 facet normal -0.791701 -0.0422431 -0.609446
  outer loop
   vertex -0.0166699 -0.0299283 0.00486269
   vertex -0.0208045 -0.0341626 0.0105273
   vertex -0.0224026 -0.0177997 0.0114691
  endloop
 endfacet
 facet normal -0.895203 -0.0785965 -0.438672
  outer loop
   vertex -0.0233117 -0.00192674 0.0113451
   vertex -0.0197538 -0.00277415 0.00423642
   vertex -0.0187234 -0.0164249 0.00457941
  endloop
 endfacet
 facet normal -0.87631 -0.0539288 -0.478719
  outer loop
   vertex -0.0187234 -0.0164249 0.00457941
   vertex -0.0224026 -0.0177997 0.0114691
   vertex -0.0233117 -0.00192674 0.0113451
  endloop
 endfacet
 facet normal -0.99429 -0.0942233 -0.0501016
  outer loop
   vertex -0.0231517 -0.0179921 0.0266978
   vertex -0.0224026 -0.0177997 0.0114691
   vertex -0.0208045 -0.0341626 0.0105273
  endloop
 endfacet
 facet normal -0.99174 -0.127162 -0.0167925
  outer loop
   vertex -0.0208045 -0.0341626 0.0105273
   vertex -0.0210783 -0.0341626 0.0266978
   vertex -0.0231517 -0.0179921 0.0266978
  endloop
 endfacet
 facet normal -0.997829 -0.0574012 -0.032272
  outer loop
   vertex -0.0238143 -0.00182165 0.0266978
   vertex -0.0233117 -0.00192674 0.0113451
   vertex -0.0224026 -0.0177997 0.0114691
  endloop
 endfacet
 facet normal -0.997932 -0.0408885 -0.0496067
  outer loop
   vertex -0.0224026 -0.0177997 0.0114691
   vertex -0.0231517 -0.0179921 0.0266978
   vertex -0.0238143 -0.00182165 0.0266978
  endloop
 endfacet
 facet normal -0.870955 -0.491262 0.00990896
  outer loop
   vertex -0.0166813 -0.0503331 0.0428682
   vertex -0.0168653 -0.0503331 0.0266978
   vertex -0.0112217 -0.0602689 0.0301557
  endloop
 endfacet
 facet normal -0.843472 -0.534313 0.0553595
  outer loop
   vertex -0.0112217 -0.0602689 0.0301557
   vertex -0.0103751 -0.0601039 0.0446468
   vertex -0.0166813 -0.0503331 0.0428682
  endloop
 endfacet
 facet normal -0.959374 -0.281389 -0.0205223
  outer loop
   vertex -0.0214242 -0.0341626 0.0428682
   vertex -0.0210783 -0.0341626 0.0266978
   vertex -0.0166813 -0.0503331 0.0428682
  endloop
 endfacet
 facet normal -0.967637 -0.252105 0.0110089
  outer loop
   vertex -0.0166813 -0.0503331 0.0428682
   vertex -0.0210783 -0.0341626 0.0266978
   vertex -0.0168653 -0.0503331 0.0266978
  endloop
 endfacet
 facet normal -0.839769 -0.542921 -0.00505866
  outer loop
   vertex -0.0167787 -0.0503331 0.0590387
   vertex -0.0166813 -0.0503331 0.0428682
   vertex -0.0103751 -0.0601039 0.0446468
  endloop
 endfacet
 facet normal -0.834537 -0.550946 0.00271756
  outer loop
   vertex -0.0103751 -0.0601039 0.0446468
   vertex -0.010469 -0.0598906 0.0590468
   vertex -0.0167787 -0.0503331 0.0590387
  endloop
 endfacet
 facet normal -0.958112 -0.286183 -0.0109357
  outer loop
   vertex -0.0216088 -0.0341626 0.0590387
   vertex -0.0214242 -0.0341626 0.0428682
   vertex -0.0167787 -0.0503331 0.0590387
  endloop
 endfacet
 facet normal -0.95956 -0.281444 -0.00578027
  outer loop
   vertex -0.0167787 -0.0503331 0.0590387
   vertex -0.0214242 -0.0341626 0.0428682
   vertex -0.0166813 -0.0503331 0.0428682
  endloop
 endfacet
 facet normal -0.989642 -0.13952 -0.0337968
  outer loop
   vertex -0.0237039 -0.0179921 0.0428682
   vertex -0.0231517 -0.0179921 0.0266978
   vertex -0.0214242 -0.0341626 0.0428682
  endloop
 endfacet
 facet normal -0.991656 -0.127151 -0.0212129
  outer loop
   vertex -0.0214242 -0.0341626 0.0428682
   vertex -0.0231517 -0.0179921 0.0266978
   vertex -0.0210783 -0.0341626 0.0266978
  endloop
 endfacet
 facet normal -0.99858 -0.0409151 -0.0341087
  outer loop
   vertex -0.0243666 -0.00182165 0.0428682
   vertex -0.0238143 -0.00182165 0.0266978
   vertex -0.0231517 -0.0179921 0.0266978
  endloop
 endfacet
 facet normal -0.99858 -0.0409218 -0.034102
  outer loop
   vertex -0.0231517 -0.0179921 0.0266978
   vertex -0.0237039 -0.0179921 0.0428682
   vertex -0.0243666 -0.00182165 0.0428682
  endloop
 endfacet
 facet normal -0.990085 -0.139583 -0.0157602
  outer loop
   vertex -0.0239613 -0.0179921 0.0590387
   vertex -0.0237039 -0.0179921 0.0428682
   vertex -0.0214242 -0.0341626 0.0428682
  endloop
 endfacet
 facet normal -0.989519 -0.14396 -0.0112941
  outer loop
   vertex -0.0214242 -0.0341626 0.0428682
   vertex -0.0216088 -0.0341626 0.0590387
   vertex -0.0239613 -0.0179921 0.0590387
  endloop
 endfacet
 facet normal -0.998909 -0.0409353 -0.0224657
  outer loop
   vertex -0.0247303 -0.00182165 0.0590387
   vertex -0.0243666 -0.00182165 0.0428682
   vertex -0.0237039 -0.0179921 0.0428682
  endloop
 endfacet
 facet normal -0.998745 -0.0474925 -0.0158981
  outer loop
   vertex -0.0237039 -0.0179921 0.0428682
   vertex -0.0239613 -0.0179921 0.0590387
   vertex -0.0247303 -0.00182165 0.0590387
  endloop
 endfacet
 facet normal 0.847527 -0.514181 -0.13159
  outer loop
   vertex 0.0195428 -0.0599864 0.0159453
   vertex 0.0192603 -0.0574846 0.00435016
   vertex 0.0245581 -0.0503331 0.0105273
  endloop
 endfacet
 facet normal 0.827901 -0.145416 -0.541695
  outer loop
   vertex 0.0245581 -0.0503331 0.0105273
   vertex 0.0192603 -0.0574846 0.00435016
   vertex 0.0213321 -0.04409 0.0039208
  endloop
 endfacet
 facet normal 0.820687 -0.157217 -0.549324
  outer loop
   vertex 0.0245581 -0.0503331 0.0105273
   vertex 0.0213321 -0.04409 0.0039208
   vertex 0.0237951 -0.0304036 0.00368345
  endloop
 endfacet
 facet normal 0.814285 -0.160395 -0.557865
  outer loop
   vertex 0.0237951 -0.0304036 0.00368345
   vertex 0.0277433 -0.0341626 0.0105273
   vertex 0.0245581 -0.0503331 0.0105273
  endloop
 endfacet
 facet normal 0.85855 -0.509094 0.0609489
  outer loop
   vertex 0.0186151 -0.0598198 0.0304048
   vertex 0.0195428 -0.0599864 0.0159453
   vertex 0.0245036 -0.0503331 0.0266978
  endloop
 endfacet
 facet normal 0.888066 -0.459707 0.00299355
  outer loop
   vertex 0.0245036 -0.0503331 0.0266978
   vertex 0.0195428 -0.0599864 0.0159453
   vertex 0.0245581 -0.0503331 0.0105273
  endloop
 endfacet
 facet normal 0.981142 -0.193261 0.00330729
  outer loop
   vertex 0.0245036 -0.0503331 0.0266978
   vertex 0.0245581 -0.0503331 0.0105273
   vertex 0.0277433 -0.0341626 0.0105273
  endloop
 endfacet
 facet normal 0.974303 -0.223463 -0.0282639
  outer loop
   vertex 0.0277433 -0.0341626 0.0105273
   vertex 0.0282124 -0.0341626 0.0266978
   vertex 0.0245036 -0.0503331 0.0266978
  endloop
 endfacet
 facet normal 0.851661 -0.0544792 -0.521253
  outer loop
   vertex 0.0277433 -0.0341626 0.0105273
   vertex 0.0237951 -0.0304036 0.00368345
   vertex 0.0246016 -0.0165817 0.00355659
  endloop
 endfacet
 facet normal 0.867905 -0.0411754 -0.49502
  outer loop
   vertex 0.0246016 -0.0165817 0.00355659
   vertex 0.0285105 -0.0179921 0.0105273
   vertex 0.0277433 -0.0341626 0.0105273
  endloop
 endfacet
 facet normal 0.873069 0.0103672 -0.487487
  outer loop
   vertex 0.0285105 -0.0179921 0.0105273
   vertex 0.0246016 -0.0165817 0.00355659
   vertex 0.0243682 -0.00269678 0.00343388
  endloop
 endfacet
 facet normal 0.884659 0.0236389 -0.465638
  outer loop
   vertex 0.0243682 -0.00269678 0.00343388
   vertex 0.0280784 -0.00182165 0.0105273
   vertex 0.0285105 -0.0179921 0.0105273
  endloop
 endfacet
 facet normal 0.998457 -0.0473691 -0.0289647
  outer loop
   vertex 0.0282124 -0.0341626 0.0266978
   vertex 0.0277433 -0.0341626 0.0105273
   vertex 0.0285105 -0.0179921 0.0105273
  endloop
 endfacet
 facet normal 0.998167 -0.0509909 -0.0325918
  outer loop
   vertex 0.0285105 -0.0179921 0.0105273
   vertex 0.0290385 -0.0179921 0.0266978
   vertex 0.0282124 -0.0341626 0.0266978
  endloop
 endfacet
 facet normal 0.999111 0.0266971 -0.0326226
  outer loop
   vertex 0.0290385 -0.0179921 0.0266978
   vertex 0.0285105 -0.0179921 0.0105273
   vertex 0.0280784 -0.00182165 0.0105273
  endloop
 endfacet
 facet normal 0.99912 0.0292366 -0.0300836
  outer loop
   vertex 0.0280784 -0.00182165 0.0105273
   vertex 0.0285653 -0.00182165 0.0266978
   vertex 0.0290385 -0.0179921 0.0266978
  endloop
 endfacet
 facet normal 0.0520366 -0.998536 0.0147459
  outer loop
   vertex 0.0177903 -0.0596512 0.0447727
   vertex 0.0184343 -0.0597777 0.0339344
   vertex 0.0190963 -0.0595935 0.0440748
  endloop
 endfacet
 facet normal 0.870478 -0.489868 -0.0479237
  outer loop
   vertex 0.0190963 -0.0595935 0.0440748
   vertex 0.0184343 -0.0597777 0.0339344
   vertex 0.0242412 -0.0503331 0.0428682
  endloop
 endfacet
 facet normal 0.845941 -0.533099 0.0137281
  outer loop
   vertex 0.0242412 -0.0503331 0.0428682
   vertex 0.0184343 -0.0597777 0.0339344
   vertex 0.0245036 -0.0503331 0.0266978
  endloop
 endfacet
 facet normal 0.85721 -0.512532 0.0500219
  outer loop
   vertex 0.0245036 -0.0503331 0.0266978
   vertex 0.0184343 -0.0597777 0.0339344
   vertex 0.0186151 -0.0598198 0.0304048
  endloop
 endfacet
 facet normal 0.970193 -0.241822 0.0157444
  outer loop
   vertex 0.0242412 -0.0503331 0.0428682
   vertex 0.0245036 -0.0503331 0.0266978
   vertex 0.0282717 -0.0341626 0.0428682
  endloop
 endfacet
 facet normal 0.974686 -0.22355 -0.00357385
  outer loop
   vertex 0.0282717 -0.0341626 0.0428682
   vertex 0.0245036 -0.0503331 0.0266978
   vertex 0.0282124 -0.0341626 0.0266978
  endloop
 endfacet
 facet normal 0.0542122 -0.998352 0.0188326
  outer loop
   vertex 0.0169366 -0.0594283 0.0590473
   vertex 0.0177903 -0.0596512 0.0447727
   vertex 0.0190963 -0.0595935 0.0440748
  endloop
 endfacet
 facet normal 0.230407 -0.972101 0.0439575
  outer loop
   vertex 0.0190963 -0.0595935 0.0440748
   vertex 0.0196976 -0.0587742 0.0590414
   vertex 0.0169366 -0.0594283 0.0590473
  endloop
 endfacet
 facet normal 0.873647 -0.486487 -0.00846926
  outer loop
   vertex 0.0196976 -0.0587742 0.0590414
   vertex 0.0190963 -0.0595935 0.0440748
   vertex 0.0242412 -0.0503331 0.0428682
  endloop
 endfacet
 facet normal 0.894458 -0.446785 0.0180988
  outer loop
   vertex 0.0242412 -0.0503331 0.0428682
   vertex 0.023914 -0.0503331 0.0590387
   vertex 0.0196976 -0.0587742 0.0590414
  endloop
 endfacet
 facet normal 0.9615 -0.274115 0.0194554
  outer loop
   vertex 0.023914 -0.0503331 0.0590387
   vertex 0.0242412 -0.0503331 0.0428682
   vertex 0.0285241 -0.0341626 0.0590387
  endloop
 endfacet
 facet normal 0.970202 -0.241824 -0.0151407
  outer loop
   vertex 0.0285241 -0.0341626 0.0590387
   vertex 0.0242412 -0.0503331 0.0428682
   vertex 0.0282717 -0.0341626 0.0428682
  endloop
 endfacet
 facet normal 0.998691 -0.0510176 -0.00366187
  outer loop
   vertex 0.0282717 -0.0341626 0.0428682
   vertex 0.0282124 -0.0341626 0.0266978
   vertex 0.0290385 -0.0179921 0.0266978
  endloop
 endfacet
 facet normal 0.998304 -0.0573491 -0.0100117
  outer loop
   vertex 0.0290385 -0.0179921 0.0266978
   vertex 0.0292007 -0.0179921 0.0428682
   vertex 0.0282717 -0.0341626 0.0428682
  endloop
 endfacet
 facet normal 0.999832 0.0153271 -0.010027
  outer loop
   vertex 0.0292007 -0.0179921 0.0428682
   vertex 0.0290385 -0.0179921 0.0266978
   vertex 0.0289528 -0.00182165 0.0428682
  endloop
 endfacet
 facet normal 0.999286 0.0292415 -0.0239443
  outer loop
   vertex 0.0289528 -0.00182165 0.0428682
   vertex 0.0290385 -0.0179921 0.0266978
   vertex 0.0285653 -0.00182165 0.0266978
  endloop
 endfacet
 facet normal 0.998233 -0.0573451 -0.0155781
  outer loop
   vertex 0.0285241 -0.0341626 0.0590387
   vertex 0.0282717 -0.0341626 0.0428682
   vertex 0.0292007 -0.0179921 0.0428682
  endloop
 endfacet
 facet normal 0.9978 -0.0628517 -0.0211029
  outer loop
   vertex 0.0292007 -0.0179921 0.0428682
   vertex 0.0295426 -0.0179921 0.0590387
   vertex 0.0285241 -0.0341626 0.0590387
  endloop
 endfacet
 facet normal 0.999659 0.0153245 -0.0211422
  outer loop
   vertex 0.0295426 -0.0179921 0.0590387
   vertex 0.0292007 -0.0179921 0.0428682
   vertex 0.0289528 -0.00182165 0.0428682
  endloop
 endfacet
 facet normal 0.999661 0.0207328 -0.015734
  outer loop
   vertex 0.0289528 -0.00182165 0.0428682
   vertex 0.0292073 -0.00182165 0.0590387
   vertex 0.0295426 -0.0179921 0.0590387
  endloop
 endfacet
 facet normal -0.915071 -0.0510421 -0.400051
  outer loop
   vertex -0.0238628 0.0138963 0.0115083
   vertex -0.0203631 0.0110576 0.00386532
   vertex -0.0197538 -0.00277415 0.00423642
  endloop
 endfacet
 facet normal -0.8952 -0.0265937 -0.44487
  outer loop
   vertex -0.0197538 -0.00277415 0.00423642
   vertex -0.0233117 -0.00192674 0.0113451
   vertex -0.0238628 0.0138963 0.0115083
  endloop
 endfacet
 facet normal -0.84511 0.068173 -0.530227
  outer loop
   vertex -0.022973 0.0305193 0.0105273
   vertex -0.0189543 0.0251146 0.00342721
   vertex -0.0203631 0.0110576 0.00386532
  endloop
 endfacet
 facet normal -0.905633 0.0234928 -0.423412
  outer loop
   vertex -0.0203631 0.0110576 0.00386532
   vertex -0.0238628 0.0138963 0.0115083
   vertex -0.022973 0.0305193 0.0105273
  endloop
 endfacet
 facet normal -0.998514 -0.0343429 -0.042317
  outer loop
   vertex -0.0245221 0.0143488 0.0266978
   vertex -0.0238628 0.0138963 0.0115083
   vertex -0.0233117 -0.00192674 0.0113451
  endloop
 endfacet
 facet normal -0.998519 -0.0437089 -0.0323883
  outer loop
   vertex -0.0233117 -0.00192674 0.0113451
   vertex -0.0238143 -0.00182165 0.0266978
   vertex -0.0245221 0.0143488 0.0266978
  endloop
 endfacet
 facet normal -0.998443 0.0523047 -0.0193665
  outer loop
   vertex -0.0232866 0.0305193 0.0266978
   vertex -0.022973 0.0305193 0.0105273
   vertex -0.0238628 0.0138963 0.0115083
  endloop
 endfacet
 facet normal -0.996061 0.076103 -0.0455012
  outer loop
   vertex -0.0238628 0.0138963 0.0115083
   vertex -0.0245221 0.0143488 0.0266978
   vertex -0.0232866 0.0305193 0.0266978
  endloop
 endfacet
 facet normal -0.757396 0.279843 -0.589949
  outer loop
   vertex -0.0165131 0.0466898 0.0105273
   vertex -0.0136435 0.0391541 0.00326865
   vertex -0.0189543 0.0251146 0.00342721
  endloop
 endfacet
 facet normal -0.722318 0.288555 -0.628485
  outer loop
   vertex -0.0189543 0.0251146 0.00342721
   vertex -0.022973 0.0305193 0.0105273
   vertex -0.0165131 0.0466898 0.0105273
  endloop
 endfacet
 facet normal -0.759377 0.329503 -0.561048
  outer loop
   vertex -0.0120395 0.0552102 0.0105273
   vertex -0.00981625 0.0480084 0.00328861
   vertex -0.0136435 0.0391541 0.00326865
  endloop
 endfacet
 facet normal -0.6804 0.357245 -0.639868
  outer loop
   vertex -0.0136435 0.0391541 0.00326865
   vertex -0.0165131 0.0466898 0.0105273
   vertex -0.0120395 0.0552102 0.0105273
  endloop
 endfacet
 facet normal -0.943047 0.331759 -0.0244668
  outer loop
   vertex -0.0072285 0.0562329 0.0150669
   vertex -0.0080715 0.0529749 0.003382
   vertex -0.00981625 0.0480084 0.00328861
  endloop
 endfacet
 facet normal 0.398858 0.70841 -0.582295
  outer loop
   vertex -0.00981625 0.0480084 0.00328861
   vertex -0.0120395 0.0552102 0.0105273
   vertex -0.0072285 0.0562329 0.0150669
  endloop
 endfacet
 facet normal -0.928523 0.370931 0.0159547
  outer loop
   vertex -0.0162352 0.0466898 0.0266978
   vertex -0.0165131 0.0466898 0.0105273
   vertex -0.022973 0.0305193 0.0105273
  endloop
 endfacet
 facet normal -0.916495 0.399651 -0.017777
  outer loop
   vertex -0.022973 0.0305193 0.0105273
   vertex -0.0232866 0.0305193 0.0266978
   vertex -0.0162352 0.0466898 0.0266978
  endloop
 endfacet
 facet normal -0.883704 0.463991 0.0614789
  outer loop
   vertex -0.0120395 0.0530676 0.0266978
   vertex -0.0120395 0.0552102 0.0105273
   vertex -0.0165131 0.0466898 0.0105273
  endloop
 endfacet
 facet normal -0.835339 0.549548 0.0143535
  outer loop
   vertex -0.0165131 0.0466898 0.0105273
   vertex -0.0162352 0.0466898 0.0266978
   vertex -0.0120395 0.0530676 0.0266978
  endloop
 endfacet
 facet normal -0.276419 0.957937 0.0771252
  outer loop
   vertex -0.00411808 0.0559394 0.0298606
   vertex -0.0072285 0.0562329 0.0150669
   vertex -0.0120395 0.0552102 0.0105273
  endloop
 endfacet
 facet normal -0.380812 0.916641 0.121455
  outer loop
   vertex -0.0120395 0.0552102 0.0105273
   vertex -0.0120395 0.0530676 0.0266978
   vertex -0.00411808 0.0559394 0.0298606
  endloop
 endfacet
 facet normal -0.998701 -0.0437169 -0.0261772
  outer loop
   vertex -0.024946 0.0143488 0.0428682
   vertex -0.0245221 0.0143488 0.0266978
   vertex -0.0238143 -0.00182165 0.0266978
  endloop
 endfacet
 facet normal -0.998777 -0.035784 -0.0341154
  outer loop
   vertex -0.0238143 -0.00182165 0.0266978
   vertex -0.0243666 -0.00182165 0.0428682
   vertex -0.024946 0.0143488 0.0428682
  endloop
 endfacet
 facet normal -0.996936 0.0761699 -0.017776
  outer loop
   vertex -0.0235749 0.0305193 0.0428682
   vertex -0.0232866 0.0305193 0.0266978
   vertex -0.0245221 0.0143488 0.0266978
  endloop
 endfacet
 facet normal -0.996085 0.0844527 -0.0261087
  outer loop
   vertex -0.0245221 0.0143488 0.0266978
   vertex -0.024946 0.0143488 0.0428682
   vertex -0.0235749 0.0305193 0.0428682
  endloop
 endfacet
 facet normal -0.999243 -0.0333459 -0.0200183
  outer loop
   vertex -0.0252699 0.0143488 0.0590387
   vertex -0.024946 0.0143488 0.0428682
   vertex -0.0247303 -0.00182165 0.0590387
  endloop
 endfacet
 facet normal -0.999106 -0.0357958 -0.0224701
  outer loop
   vertex -0.0247303 -0.00182165 0.0590387
   vertex -0.024946 0.0143488 0.0428682
   vertex -0.0243666 -0.00182165 0.0428682
  endloop
 endfacet
 facet normal -0.996159 0.0844589 -0.0231033
  outer loop
   vertex -0.02395 0.0305193 0.0590387
   vertex -0.0235749 0.0305193 0.0428682
   vertex -0.024946 0.0143488 0.0428682
  endloop
 endfacet
 facet normal -0.996487 0.0813389 -0.0199631
  outer loop
   vertex -0.024946 0.0143488 0.0428682
   vertex -0.0252699 0.0143488 0.0590387
   vertex -0.02395 0.0305193 0.0590387
  endloop
 endfacet
 facet normal -0.916638 0.399713 -0.00177574
  outer loop
   vertex -0.0162666 0.0466898 0.0428682
   vertex -0.0162352 0.0466898 0.0266978
   vertex -0.0232866 0.0305193 0.0266978
  endloop
 endfacet
 facet normal -0.911132 0.411793 -0.0162461
  outer loop
   vertex -0.0232866 0.0305193 0.0266978
   vertex -0.0235749 0.0305193 0.0428682
   vertex -0.0162666 0.0466898 0.0428682
  endloop
 endfacet
 facet normal -0.835421 0.549603 0.00295216
  outer loop
   vertex -0.0120395 0.0529807 0.0428682
   vertex -0.0120395 0.0530676 0.0266978
   vertex -0.0162352 0.0466898 0.0266978
  endloop
 endfacet
 facet normal -0.830024 0.557725 -0.00160795
  outer loop
   vertex -0.0162352 0.0466898 0.0266978
   vertex -0.0162666 0.0466898 0.0428682
   vertex -0.0120395 0.0529807 0.0428682
  endloop
 endfacet
 facet normal -0.350498 0.93615 0.0278186
  outer loop
   vertex -0.00465657 0.0552998 0.0445996
   vertex -0.00411808 0.0559394 0.0298606
   vertex -0.0120395 0.0530676 0.0266978
  endloop
 endfacet
 facet normal -0.300767 0.953684 0.00512266
  outer loop
   vertex -0.0120395 0.0530676 0.0266978
   vertex -0.0120395 0.0529807 0.0428682
   vertex -0.00465657 0.0552998 0.0445996
  endloop
 endfacet
 facet normal -0.909607 0.411104 -0.0600793
  outer loop
   vertex -0.0173346 0.0466898 0.0590387
   vertex -0.0162666 0.0466898 0.0428682
   vertex -0.0235749 0.0305193 0.0428682
  endloop
 endfacet
 facet normal -0.925331 0.378553 -0.0214607
  outer loop
   vertex -0.0235749 0.0305193 0.0428682
   vertex -0.02395 0.0305193 0.0590387
   vertex -0.0173346 0.0466898 0.0590387
  endloop
 endfacet
 facet normal -0.803578 0.594343 -0.0319169
  outer loop
   vertex -0.011655 0.054369 0.0590404
   vertex -0.0120395 0.0529807 0.0428682
   vertex -0.0173346 0.0466898 0.0590387
  endloop
 endfacet
 facet normal -0.828781 0.556889 -0.0547408
  outer loop
   vertex -0.0173346 0.0466898 0.0590387
   vertex -0.0120395 0.0529807 0.0428682
   vertex -0.0162666 0.0466898 0.0428682
  endloop
 endfacet
 facet normal -0.035591 0.998256 0.0470911
  outer loop
   vertex -0.00765127 0.0545115 0.0590471
   vertex -0.00465657 0.0552998 0.0445996
   vertex -0.011655 0.054369 0.0590404
  endloop
 endfacet
 facet normal -0.282695 0.956244 -0.0753693
  outer loop
   vertex -0.011655 0.054369 0.0590404
   vertex -0.00465657 0.0552998 0.0445996
   vertex -0.0120395 0.0529807 0.0428682
  endloop
 endfacet
 facet normal 0.884605 0.024394 -0.465703
  outer loop
   vertex 0.0280784 -0.00182165 0.0105273
   vertex 0.0243682 -0.00269678 0.00343388
   vertex 0.0239192 0.0112492 0.0033116
  endloop
 endfacet
 facet normal 0.893445 0.0371837 -0.44763
  outer loop
   vertex 0.0239192 0.0112492 0.0033116
   vertex 0.0274054 0.0143488 0.0105273
   vertex 0.0280784 -0.00182165 0.0105273
  endloop
 endfacet
 facet normal 0.869111 0.132106 -0.476649
  outer loop
   vertex 0.0274054 0.0143488 0.0105273
   vertex 0.0239192 0.0112492 0.0033116
   vertex 0.0249475 0.0305193 0.0105273
  endloop
 endfacet
 facet normal 0.868382 0.132592 -0.477842
  outer loop
   vertex 0.0249475 0.0305193 0.0105273
   vertex 0.0239192 0.0112492 0.0033116
   vertex 0.021718 0.0252519 0.00319674
  endloop
 endfacet
 facet normal 0.998683 0.0415636 -0.0300705
  outer loop
   vertex 0.0285653 -0.00182165 0.0266978
   vertex 0.0280784 -0.00182165 0.0105273
   vertex 0.0274054 0.0143488 0.0105273
  endloop
 endfacet
 facet normal 0.998639 0.0445912 -0.0270397
  outer loop
   vertex 0.0274054 0.0143488 0.0105273
   vertex 0.0278433 0.0143488 0.0266978
   vertex 0.0285653 -0.00182165 0.0266978
  endloop
 endfacet
 facet normal 0.989363 0.142983 -0.0267885
  outer loop
   vertex 0.0278433 0.0143488 0.0266978
   vertex 0.0274054 0.0143488 0.0105273
   vertex 0.0255063 0.0305193 0.0266978
  endloop
 endfacet
 facet normal 0.988068 0.150188 -0.0341454
  outer loop
   vertex 0.0255063 0.0305193 0.0266978
   vertex 0.0274054 0.0143488 0.0105273
   vertex 0.0249475 0.0305193 0.0105273
  endloop
 endfacet
 facet normal 0.743008 0.333479 -0.580286
  outer loop
   vertex 0.0203015 0.043434 0.0105273
   vertex 0.0181054 0.0354415 0.00312226
   vertex 0.0163529 0.0393002 0.00309579
  endloop
 endfacet
 facet normal 0.721383 0.366878 -0.587373
  outer loop
   vertex 0.0163529 0.0393002 0.00309579
   vertex 0.0186457 0.0466898 0.0105273
   vertex 0.0203015 0.043434 0.0105273
  endloop
 endfacet
 facet normal 0.790434 0.276242 -0.546721
  outer loop
   vertex 0.0249475 0.0305193 0.0105273
   vertex 0.021718 0.0252519 0.00319674
   vertex 0.0181054 0.0354415 0.00312226
  endloop
 endfacet
 facet normal 0.790956 0.284542 -0.541687
  outer loop
   vertex 0.0181054 0.0354415 0.00312226
   vertex 0.0203015 0.043434 0.0105273
   vertex 0.0249475 0.0305193 0.0105273
  endloop
 endfacet
 facet normal 0.719797 0.36838 -0.588378
  outer loop
   vertex 0.0186457 0.0466898 0.0105273
   vertex 0.0163529 0.0393002 0.00309579
   vertex 0.01049 0.0522582 0.0040363
  endloop
 endfacet
 facet normal 0.625471 0.770136 -0.125207
  outer loop
   vertex 0.01049 0.0522582 0.0040363
   vertex 0.00977387 0.0547934 0.016053
   vertex 0.0186457 0.0466898 0.0105273
  endloop
 endfacet
 facet normal 0.89095 0.453116 -0.0298975
  outer loop
   vertex 0.0203015 0.0445009 0.0266978
   vertex 0.0203015 0.043434 0.0105273
   vertex 0.0186457 0.0466898 0.0105273
  endloop
 endfacet
 facet normal 0.859987 0.509961 -0.0190322
  outer loop
   vertex 0.0186457 0.0466898 0.0105273
   vertex 0.0190035 0.0466898 0.0266978
   vertex 0.0203015 0.0445009 0.0266978
  endloop
 endfacet
 facet normal 0.940467 0.338328 -0.0325005
  outer loop
   vertex 0.0255063 0.0305193 0.0266978
   vertex 0.0249475 0.0305193 0.0105273
   vertex 0.0203015 0.043434 0.0105273
  endloop
 endfacet
 facet normal 0.936923 0.348778 -0.0230131
  outer loop
   vertex 0.0203015 0.043434 0.0105273
   vertex 0.0203015 0.0445009 0.0266978
   vertex 0.0255063 0.0305193 0.0266978
  endloop
 endfacet
 facet normal 0.669301 0.742844 -0.0148122
  outer loop
   vertex 0.0190035 0.0466898 0.0266978
   vertex 0.0186457 0.0466898 0.0105273
   vertex 0.00977387 0.0547934 0.016053
  endloop
 endfacet
 facet normal 0.606724 0.791243 0.0762903
  outer loop
   vertex 0.00977387 0.0547934 0.016053
   vertex 0.00744217 0.0552183 0.0301901
   vertex 0.0190035 0.0466898 0.0266978
  endloop
 endfacet
 facet normal 0.998718 0.0445947 -0.0239307
  outer loop
   vertex 0.0289528 -0.00182165 0.0428682
   vertex 0.0285653 -0.00182165 0.0266978
   vertex 0.0278433 0.0143488 0.0266978
  endloop
 endfacet
 facet normal 0.998739 0.043523 -0.0250039
  outer loop
   vertex 0.0278433 0.0143488 0.0266978
   vertex 0.0282481 0.0143488 0.0428682
   vertex 0.0289528 -0.00182165 0.0428682
  endloop
 endfacet
 facet normal 0.989414 0.142991 -0.0247704
  outer loop
   vertex 0.0282481 0.0143488 0.0428682
   vertex 0.0278433 0.0143488 0.0266978
   vertex 0.0255063 0.0305193 0.0266978
  endloop
 endfacet
 facet normal 0.989807 0.139587 -0.0282403
  outer loop
   vertex 0.0255063 0.0305193 0.0266978
   vertex 0.0259677 0.0305193 0.0428682
   vertex 0.0282481 0.0143488 0.0428682
  endloop
 endfacet
 facet normal 0.998928 0.0435312 -0.0157224
  outer loop
   vertex 0.0292073 -0.00182165 0.0590387
   vertex 0.0289528 -0.00182165 0.0428682
   vertex 0.0282481 0.0143488 0.0428682
  endloop
 endfacet
 facet normal 0.998654 0.0512523 -0.00798513
  outer loop
   vertex 0.0282481 0.0143488 0.0428682
   vertex 0.0283774 0.0143488 0.0590387
   vertex 0.0292073 -0.00182165 0.0590387
  endloop
 endfacet
 facet normal 0.992324 0.123411 -0.00793451
  outer loop
   vertex 0.0283774 0.0143488 0.0590387
   vertex 0.0282481 0.0143488 0.0428682
   vertex 0.0263663 0.0305193 0.0590387
  endloop
 endfacet
 facet normal 0.989907 0.139601 -0.024406
  outer loop
   vertex 0.0263663 0.0305193 0.0590387
   vertex 0.0282481 0.0143488 0.0428682
   vertex 0.0259677 0.0305193 0.0428682
  endloop
 endfacet
 facet normal 0.859372 0.509596 -0.0423293
  outer loop
   vertex 0.0203015 0.0458441 0.0428682
   vertex 0.0203015 0.0445009 0.0266978
   vertex 0.0190035 0.0466898 0.0266978
  endloop
 endfacet
 facet normal 0.852861 0.520507 -0.0412362
  outer loop
   vertex 0.0190035 0.0466898 0.0266978
   vertex 0.0197854 0.0466898 0.0428682
   vertex 0.0203015 0.0458441 0.0428682
  endloop
 endfacet
 facet normal 0.936836 0.348746 -0.026729
  outer loop
   vertex 0.0259677 0.0305193 0.0428682
   vertex 0.0255063 0.0305193 0.0266978
   vertex 0.0203015 0.0445009 0.0266978
  endloop
 endfacet
 facet normal 0.937553 0.346648 -0.0287941
  outer loop
   vertex 0.0203015 0.0445009 0.0266978
   vertex 0.0203015 0.0458441 0.0428682
   vertex 0.0259677 0.0305193 0.0428682
  endloop
 endfacet
 facet normal 0.611818 0.790445 -0.0295816
  outer loop
   vertex 0.0197854 0.0466898 0.0428682
   vertex 0.0190035 0.0466898 0.0266978
   vertex 0.0087369 0.0553062 0.0445981
  endloop
 endfacet
 facet normal 0.581414 0.811595 -0.0572
  outer loop
   vertex 0.0087369 0.0553062 0.0445981
   vertex 0.0190035 0.0466898 0.0266978
   vertex 0.00744217 0.0552183 0.0301901
  endloop
 endfacet
 facet normal 0.851531 0.519695 -0.0693774
  outer loop
   vertex 0.0197854 0.0466898 0.0428682
   vertex 0.0203015 0.0466898 0.0492029
   vertex 0.0203015 0.0458441 0.0428682
  endloop
 endfacet
 facet normal 0.940616 0.338678 -0.0231908
  outer loop
   vertex 0.0263663 0.0305193 0.0590387
   vertex 0.0259677 0.0305193 0.0428682
   vertex 0.0203015 0.0466898 0.0492029
  endloop
 endfacet
 facet normal 0.947905 0.309398 -0.0758222
  outer loop
   vertex 0.0263663 0.0305193 0.0590387
   vertex 0.0203015 0.0466898 0.0492029
   vertex 0.0210882 0.0466898 0.0590387
  endloop
 endfacet
 facet normal 0.936938 0.346421 -0.046246
  outer loop
   vertex 0.0203015 0.0466898 0.0492029
   vertex 0.0259677 0.0305193 0.0428682
   vertex 0.0203015 0.0458441 0.0428682
  endloop
 endfacet
 facet normal 0.616271 0.776063 -0.133924
  outer loop
   vertex 0.0203015 0.0483871 0.0590387
   vertex 0.0203015 0.0466898 0.0492029
   vertex 0.0122578 0.054776 0.0590468
  endloop
 endfacet
 facet normal 0.624094 0.771484 -0.123771
  outer loop
   vertex 0.0122578 0.054776 0.0590468
   vertex 0.0203015 0.0466898 0.0492029
   vertex 0.0087369 0.0553062 0.0445981
  endloop
 endfacet
 facet normal 0.609368 0.791332 -0.0496475
  outer loop
   vertex 0.0087369 0.0553062 0.0445981
   vertex 0.0203015 0.0466898 0.0492029
   vertex 0.0197854 0.0466898 0.0428682
  endloop
 endfacet
 facet normal 0.904893 0.419439 -0.0723817
  outer loop
   vertex 0.0210882 0.0466898 0.0590387
   vertex 0.0203015 0.0466898 0.0492029
   vertex 0.0203015 0.0483871 0.0590387
  endloop
 endfacet
 facet normal -0.830632 -0.554728 -0.0482482
  outer loop
   vertex -0.017718 -0.0503331 0.0752092
   vertex -0.0167787 -0.0503331 0.0590387
   vertex -0.0114085 -0.0596157 0.0733117
  endloop
 endfacet
 facet normal -0.833702 -0.550434 -0.0443004
  outer loop
   vertex -0.0114085 -0.0596157 0.0733117
   vertex -0.0167787 -0.0503331 0.0590387
   vertex -0.010469 -0.0598906 0.0590468
  endloop
 endfacet
 facet normal -0.96239 -0.269068 -0.0375088
  outer loop
   vertex -0.022239 -0.0341626 0.0752092
   vertex -0.0216088 -0.0341626 0.0590387
   vertex -0.017718 -0.0503331 0.0752092
  endloop
 endfacet
 facet normal -0.956689 -0.285758 -0.0555704
  outer loop
   vertex -0.017718 -0.0503331 0.0752092
   vertex -0.0216088 -0.0341626 0.0590387
   vertex -0.0167787 -0.0503331 0.0590387
  endloop
 endfacet
 facet normal -0.871238 -0.48163 0.0947488
  outer loop
   vertex -0.0159594 -0.0503331 0.0913797
   vertex -0.017718 -0.0503331 0.0752092
   vertex -0.0113411 -0.0589624 0.0899815
  endloop
 endfacet
 facet normal -0.711675 -0.69549 -0.0990578
  outer loop
   vertex -0.0113411 -0.0589624 0.0899815
   vertex -0.017718 -0.0503331 0.0752092
   vertex -0.0100567 -0.0593143 0.0832245
  endloop
 endfacet
 facet normal -0.807941 -0.575266 0.12767
  outer loop
   vertex -0.0100567 -0.0593143 0.0832245
   vertex -0.017718 -0.0503331 0.0752092
   vertex -0.0114085 -0.0596157 0.0733117
  endloop
 endfacet
 facet normal -0.0662464 -0.997027 0.0393442
  outer loop
   vertex -0.0113411 -0.0589624 0.0899815
   vertex -0.0100567 -0.0593143 0.0832245
   vertex -0.00872621 -0.0592392 0.0873683
  endloop
 endfacet
 facet normal -0.959559 -0.268277 0.0852942
  outer loop
   vertex -0.0208016 -0.0341626 0.0913797
   vertex -0.022239 -0.0341626 0.0752092
   vertex -0.017718 -0.0503331 0.0752092
  endloop
 endfacet
 facet normal -0.952815 -0.285317 0.103621
  outer loop
   vertex -0.017718 -0.0503331 0.0752092
   vertex -0.0159594 -0.0503331 0.0913797
   vertex -0.0208016 -0.0341626 0.0913797
  endloop
 endfacet
 facet normal -0.995769 -0.0905769 0.0154827
  outer loop
   vertex -0.0237368 -0.0177604 0.0748334
   vertex -0.0239613 -0.0179921 0.0590387
   vertex -0.022239 -0.0341626 0.0752092
  endloop
 endfacet
 facet normal -0.988847 -0.143862 -0.0385399
  outer loop
   vertex -0.022239 -0.0341626 0.0752092
   vertex -0.0239613 -0.0179921 0.0590387
   vertex -0.0216088 -0.0341626 0.0590387
  endloop
 endfacet
 facet normal -0.998704 -0.0474905 -0.0182754
  outer loop
   vertex -0.0250227 -0.00185823 0.0751149
   vertex -0.0247303 -0.00182165 0.0590387
   vertex -0.0239613 -0.0179921 0.0590387
  endloop
 endfacet
 facet normal -0.996607 -0.0808597 0.015352
  outer loop
   vertex -0.0239613 -0.0179921 0.0590387
   vertex -0.0237368 -0.0177604 0.0748334
   vertex -0.0250227 -0.00185823 0.0751149
  endloop
 endfacet
 facet normal -0.994198 -0.0894183 0.0597879
  outer loop
   vertex -0.022721 -0.0179921 0.0913797
   vertex -0.0237368 -0.0177604 0.0748334
   vertex -0.022239 -0.0341626 0.0752092
  endloop
 endfacet
 facet normal -0.989184 -0.117408 0.0879275
  outer loop
   vertex -0.022239 -0.0341626 0.0752092
   vertex -0.0208016 -0.0341626 0.0913797
   vertex -0.022721 -0.0179921 0.0913797
  endloop
 endfacet
 facet normal -0.993091 -0.0817931 0.0841434
  outer loop
   vertex -0.0236476 -0.00182165 0.0913797
   vertex -0.0250227 -0.00185823 0.0751149
   vertex -0.0237368 -0.0177604 0.0748334
  endloop
 endfacet
 facet normal -0.99654 -0.0571089 0.0603842
  outer loop
   vertex -0.0237368 -0.0177604 0.0748334
   vertex -0.022721 -0.0179921 0.0913797
   vertex -0.0236476 -0.00182165 0.0913797
  endloop
 endfacet
 facet normal -0.77829 -0.481777 0.402684
  outer loop
   vertex -0.0113411 -0.0589624 0.0899815
   vertex -0.0120395 -0.0503331 0.0989561
   vertex -0.0159594 -0.0503331 0.0913797
  endloop
 endfacet
 facet normal -0.046756 -0.997171 0.0588627
  outer loop
   vertex -0.00872621 -0.0592392 0.0873683
   vertex 0.00412461 -0.0594116 0.0946564
   vertex -0.0113411 -0.0589624 0.0899815
  endloop
 endfacet
 facet normal -0.222201 -0.711396 0.66674
  outer loop
   vertex -0.0113411 -0.0589624 0.0899815
   vertex 0.00412461 -0.0594116 0.0946564
   vertex -0.0120395 -0.0503331 0.0989561
  endloop
 endfacet
 facet normal -0.282265 -0.772177 0.569271
  outer loop
   vertex -0.0120395 -0.0503331 0.0989561
   vertex 0.00412461 -0.0594116 0.0946564
   vertex 0.00413102 -0.0503331 0.106974
  endloop
 endfacet
 facet normal -0.858324 -0.257022 0.444093
  outer loop
   vertex -0.0159594 -0.0503331 0.0913797
   vertex -0.0120395 -0.0503331 0.0989561
   vertex -0.0208016 -0.0341626 0.0913797
  endloop
 endfacet
 facet normal -0.850497 -0.242063 0.466969
  outer loop
   vertex -0.0208016 -0.0341626 0.0913797
   vertex -0.0120395 -0.0503331 0.0989561
   vertex -0.0120395 -0.0341626 0.107338
  endloop
 endfacet
 facet normal -0.642011 -0.352844 0.680678
  outer loop
   vertex -0.0118149 -0.0341626 0.10755
   vertex -0.0120395 -0.0341626 0.107338
   vertex -0.0120395 -0.0503331 0.0989561
  endloop
 endfacet
 facet normal -0.40386 -0.424951 0.810132
  outer loop
   vertex -0.0118149 -0.0341626 0.10755
   vertex -0.0120395 -0.0503331 0.0989561
   vertex 0.00413102 -0.0493171 0.10755
  endloop
 endfacet
 facet normal -0.396037 -0.452981 0.798726
  outer loop
   vertex 0.00413102 -0.0493171 0.10755
   vertex -0.0120395 -0.0503331 0.0989561
   vertex 0.00413102 -0.0503331 0.106974
  endloop
 endfacet
 facet normal -0.253262 -0.266488 0.929969
  outer loop
   vertex 0.00413102 -0.0493171 0.10755
   vertex 0.00412741 -0.0323791 0.112403
   vertex -0.0118149 -0.0341626 0.10755
  endloop
 endfacet
 facet normal -0.874776 -0.103829 0.473272
  outer loop
   vertex -0.0139724 -0.0179921 0.10755
   vertex -0.022721 -0.0179921 0.0913797
   vertex -0.0208016 -0.0341626 0.0913797
  endloop
 endfacet
 facet normal -0.87069 -0.111346 0.479062
  outer loop
   vertex -0.0139724 -0.0179921 0.10755
   vertex -0.0208016 -0.0341626 0.0913797
   vertex -0.0120395 -0.0331071 0.10755
  endloop
 endfacet
 facet normal -0.872507 -0.0961231 0.479053
  outer loop
   vertex -0.0120395 -0.0331071 0.10755
   vertex -0.0208016 -0.0341626 0.0913797
   vertex -0.0120395 -0.0341626 0.107338
  endloop
 endfacet
 facet normal -0.678947 -0.144437 0.719839
  outer loop
   vertex -0.0120395 -0.0331071 0.10755
   vertex -0.0120395 -0.0341626 0.107338
   vertex -0.0118149 -0.0341626 0.10755
  endloop
 endfacet
 facet normal -0.881454 -0.0505136 0.469561
  outer loop
   vertex -0.0150334 -0.00182165 0.10755
   vertex -0.0236476 -0.00182165 0.0913797
   vertex -0.022721 -0.0179921 0.0913797
  endloop
 endfacet
 facet normal -0.878069 -0.0576145 0.475053
  outer loop
   vertex -0.022721 -0.0179921 0.0913797
   vertex -0.0139724 -0.0179921 0.10755
   vertex -0.0150334 -0.00182165 0.10755
  endloop
 endfacet
 facet normal -0.757635 -0.0968882 0.645446
  outer loop
   vertex -0.0120395 -0.0331071 0.10755
   vertex -0.0120395 -0.0179921 0.109819
   vertex -0.0139724 -0.0179921 0.10755
  endloop
 endfacet
 facet normal -0.284463 -0.0605159 0.956775
  outer loop
   vertex -0.0118149 -0.0341626 0.10755
   vertex 0.00412741 -0.0323791 0.112403
   vertex -0.0120395 -0.0331071 0.10755
  endloop
 endfacet
 facet normal -0.27866 -0.142567 0.949749
  outer loop
   vertex -0.0120395 -0.0331071 0.10755
   vertex 0.00412741 -0.0323791 0.112403
   vertex -0.0120395 -0.0179921 0.109819
  endloop
 endfacet
 facet normal -0.182837 -0.0289698 0.982716
  outer loop
   vertex -0.0120395 -0.0179921 0.109819
   vertex 0.00412741 -0.0323791 0.112403
   vertex 0.00412453 -0.0167712 0.112862
  endloop
 endfacet
 facet normal -0.760269 -0.0498851 0.64769
  outer loop
   vertex -0.0139724 -0.0179921 0.10755
   vertex -0.0120395 -0.0179921 0.109819
   vertex -0.0150334 -0.00182165 0.10755
  endloop
 endfacet
 facet normal -0.74672 -0.0451433 0.663605
  outer loop
   vertex -0.0150334 -0.00182165 0.10755
   vertex -0.0120395 -0.0179921 0.109819
   vertex -0.0120395 -0.00182165 0.110919
  endloop
 endfacet
 facet normal -0.179743 -0.0667651 0.981445
  outer loop
   vertex -0.0120395 -0.00182165 0.110919
   vertex -0.0120395 -0.0179921 0.109819
   vertex 0.00412453 -0.0167712 0.112862
  endloop
 endfacet
 facet normal -0.0874764 0.0348312 0.995557
  outer loop
   vertex 0.00412453 -0.0167712 0.112862
   vertex 0.00412463 -0.00257754 0.112366
   vertex -0.0120395 -0.00182165 0.110919
  endloop
 endfacet
 facet normal 0.253433 -0.966155 0.0481371
  outer loop
   vertex 0.0168748 -0.0587457 0.073072
   vertex 0.0169366 -0.0594283 0.0590473
   vertex 0.019367 -0.0580318 0.0742818
  endloop
 endfacet
 facet normal 0.230331 -0.971704 0.0523312
  outer loop
   vertex 0.019367 -0.0580318 0.0742818
   vertex 0.0169366 -0.0594283 0.0590473
   vertex 0.0196976 -0.0587742 0.0590414
  endloop
 endfacet
 facet normal 0.842933 -0.536182 0.0444054
  outer loop
   vertex 0.019367 -0.0580318 0.0742818
   vertex 0.0196976 -0.0587742 0.0590414
   vertex 0.0242152 -0.0503331 0.0752092
  endloop
 endfacet
 facet normal 0.894476 -0.446805 -0.0166596
  outer loop
   vertex 0.0242152 -0.0503331 0.0752092
   vertex 0.0196976 -0.0587742 0.0590414
   vertex 0.023914 -0.0503331 0.0590387
  endloop
 endfacet
 facet normal 0.961528 -0.274123 -0.0179084
  outer loop
   vertex 0.0242152 -0.0503331 0.0752092
   vertex 0.023914 -0.0503331 0.0590387
   vertex 0.0285241 -0.0341626 0.0590387
  endloop
 endfacet
 facet normal 0.958333 -0.284195 -0.0288313
  outer loop
   vertex 0.0285241 -0.0341626 0.0590387
   vertex 0.0290105 -0.0341626 0.0752092
   vertex 0.0242152 -0.0503331 0.0752092
  endloop
 endfacet
 facet normal 0.251091 -0.966502 0.0531669
  outer loop
   vertex 0.0140097 -0.0587194 0.0870813
   vertex 0.0168748 -0.0587457 0.073072
   vertex 0.019367 -0.0580318 0.0742818
  endloop
 endfacet
 facet normal 0.423934 -0.896419 0.129276
  outer loop
   vertex 0.019367 -0.0580318 0.0742818
   vertex 0.0203015 -0.0551241 0.0913797
   vertex 0.0140097 -0.0587194 0.0870813
  endloop
 endfacet
 facet normal 0.842867 -0.536227 0.0451233
  outer loop
   vertex 0.0203015 -0.0551241 0.0913797
   vertex 0.019367 -0.0580318 0.0742818
   vertex 0.0242152 -0.0503331 0.0752092
  endloop
 endfacet
 facet normal 0.894231 -0.439208 0.0862994
  outer loop
   vertex 0.0242152 -0.0503331 0.0752092
   vertex 0.0226546 -0.0503331 0.0913797
   vertex 0.0203015 -0.0551241 0.0913797
  endloop
 endfacet
 facet normal 0.949005 -0.301665 0.0915854
  outer loop
   vertex 0.0226546 -0.0503331 0.0913797
   vertex 0.0242152 -0.0503331 0.0752092
   vertex 0.0277948 -0.0341626 0.0913797
  endloop
 endfacet
 facet normal 0.956251 -0.283577 0.0718931
  outer loop
   vertex 0.0277948 -0.0341626 0.0913797
   vertex 0.0242152 -0.0503331 0.0752092
   vertex 0.0290105 -0.0341626 0.0752092
  endloop
 endfacet
 facet normal 0.997572 -0.0628374 -0.0300118
  outer loop
   vertex 0.0290105 -0.0341626 0.0752092
   vertex 0.0285241 -0.0341626 0.0590387
   vertex 0.0295426 -0.0179921 0.0590387
  endloop
 endfacet
 facet normal 0.9974 -0.0646501 -0.0318301
  outer loop
   vertex 0.0295426 -0.0179921 0.0590387
   vertex 0.0300587 -0.0179921 0.0752092
   vertex 0.0290105 -0.0341626 0.0752092
  endloop
 endfacet
 facet normal 0.999276 0.0207248 -0.03189
  outer loop
   vertex 0.0300587 -0.0179921 0.0752092
   vertex 0.0295426 -0.0179921 0.0590387
   vertex 0.0292073 -0.00182165 0.0590387
  endloop
 endfacet
 facet normal 0.999306 0.025001 -0.0276154
  outer loop
   vertex 0.0292073 -0.00182165 0.0590387
   vertex 0.0296541 -0.00182165 0.0752092
   vertex 0.0300587 -0.0179921 0.0752092
  endloop
 endfacet
 facet normal 0.995851 -0.0517274 0.0748703
  outer loop
   vertex 0.0277948 -0.0341626 0.0913797
   vertex 0.0290105 -0.0341626 0.0752092
   vertex 0.0286348 -0.0179921 0.0913797
  endloop
 endfacet
 facet normal 0.994075 -0.0644346 0.0875363
  outer loop
   vertex 0.0286348 -0.0179921 0.0913797
   vertex 0.0290105 -0.0341626 0.0752092
   vertex 0.0300587 -0.0179921 0.0752092
  endloop
 endfacet
 facet normal 0.995836 0.0249142 0.0876913
  outer loop
   vertex 0.0286348 -0.0179921 0.0913797
   vertex 0.0300587 -0.0179921 0.0752092
   vertex 0.0296541 -0.00182165 0.0752092
  endloop
 endfacet
 facet normal 0.997069 0.0126051 0.0754599
  outer loop
   vertex 0.0296541 -0.00182165 0.0752092
   vertex 0.0284303 -0.00182165 0.0913797
   vertex 0.0286348 -0.0179921 0.0913797
  endloop
 endfacet
 facet normal 0.315447 -0.703296 0.637077
  outer loop
   vertex 0.0203015 -0.0551241 0.0913797
   vertex 0.0203015 -0.0503331 0.0966686
   vertex 0.00412461 -0.0594116 0.0946564
  endloop
 endfacet
 facet normal 0.301918 -0.900949 0.311667
  outer loop
   vertex 0.0203015 -0.0551241 0.0913797
   vertex 0.00412461 -0.0594116 0.0946564
   vertex 0.0140097 -0.0587194 0.0870813
  endloop
 endfacet
 facet normal 0.353604 -0.753063 0.554852
  outer loop
   vertex 0.00412461 -0.0594116 0.0946564
   vertex 0.0203015 -0.0503331 0.0966686
   vertex 0.00413102 -0.0503331 0.106974
  endloop
 endfacet
 facet normal 0.83357 -0.409414 0.370866
  outer loop
   vertex 0.0226546 -0.0503331 0.0913797
   vertex 0.0203015 -0.0503331 0.0966686
   vertex 0.0203015 -0.0551241 0.0913797
  endloop
 endfacet
 facet normal 0.484837 -0.431457 0.760775
  outer loop
   vertex 0.00413102 -0.0493171 0.10755
   vertex 0.00413102 -0.0503331 0.106974
   vertex 0.0203015 -0.0503331 0.0966686
  endloop
 endfacet
 facet normal 0.47199 -0.470815 0.745358
  outer loop
   vertex 0.00413102 -0.0493171 0.10755
   vertex 0.0203015 -0.0503331 0.0966686
   vertex 0.0192478 -0.0341626 0.10755
  endloop
 endfacet
 facet normal 0.639968 -0.399852 0.65617
  outer loop
   vertex 0.0192478 -0.0341626 0.10755
   vertex 0.0203015 -0.0503331 0.0966686
   vertex 0.0203015 -0.0341626 0.106522
  endloop
 endfacet
 facet normal 0.865226 -0.260904 0.428151
  outer loop
   vertex 0.0277948 -0.0341626 0.0913797
   vertex 0.0203015 -0.0341626 0.106522
   vertex 0.0203015 -0.0503331 0.0966686
  endloop
 endfacet
 facet normal 0.877398 -0.278904 0.390366
  outer loop
   vertex 0.0203015 -0.0503331 0.0966686
   vertex 0.0226546 -0.0503331 0.0913797
   vertex 0.0277948 -0.0341626 0.0913797
  endloop
 endfacet
 facet normal 0.266097 -0.265435 0.92668
  outer loop
   vertex 0.0192478 -0.0341626 0.10755
   vertex 0.00412741 -0.0323791 0.112403
   vertex 0.00413102 -0.0493171 0.10755
  endloop
 endfacet
 facet normal 0.693457 -0.116525 0.711013
  outer loop
   vertex 0.0192478 -0.0341626 0.10755
   vertex 0.0203015 -0.0341626 0.106522
   vertex 0.0203015 -0.027892 0.10755
  endloop
 endfacet
 facet normal 0.89391 -0.0724944 0.442346
  outer loop
   vertex 0.0203015 -0.027892 0.10755
   vertex 0.0203015 -0.0341626 0.106522
   vertex 0.0277948 -0.0341626 0.0913797
  endloop
 endfacet
 facet normal 0.899294 -0.0467119 0.434843
  outer loop
   vertex 0.0203015 -0.027892 0.10755
   vertex 0.0277948 -0.0341626 0.0913797
   vertex 0.0286348 -0.0179921 0.0913797
  endloop
 endfacet
 facet normal 0.900712 -0.0541293 0.431032
  outer loop
   vertex 0.0203015 -0.027892 0.10755
   vertex 0.0286348 -0.0179921 0.0913797
   vertex 0.0208964 -0.0179921 0.10755
  endloop
 endfacet
 facet normal 0.901975 0.0114029 0.431637
  outer loop
   vertex 0.0208964 -0.0179921 0.10755
   vertex 0.0286348 -0.0179921 0.0913797
   vertex 0.0284303 -0.00182165 0.0913797
  endloop
 endfacet
 facet normal 0.897693 0.0218421 0.440081
  outer loop
   vertex 0.0284303 -0.00182165 0.0913797
   vertex 0.020503 -0.00182165 0.10755
   vertex 0.0208964 -0.0179921 0.10755
  endloop
 endfacet
 facet normal 0.264646 -0.0743161 0.961478
  outer loop
   vertex 0.0203015 -0.027892 0.10755
   vertex 0.0203015 -0.0179921 0.108315
   vertex 0.00412453 -0.0167712 0.112862
  endloop
 endfacet
 facet normal 0.294397 -0.0280735 0.955271
  outer loop
   vertex 0.0203015 -0.027892 0.10755
   vertex 0.00412453 -0.0167712 0.112862
   vertex 0.00412741 -0.0323791 0.112403
  endloop
 endfacet
 facet normal 0.299805 -0.0503778 0.95267
  outer loop
   vertex 0.0203015 -0.027892 0.10755
   vertex 0.00412741 -0.0323791 0.112403
   vertex 0.0192478 -0.0341626 0.10755
  endloop
 endfacet
 facet normal 0.78857 -0.04739 0.613116
  outer loop
   vertex 0.0208964 -0.0179921 0.10755
   vertex 0.0203015 -0.0179921 0.108315
   vertex 0.0203015 -0.027892 0.10755
  endloop
 endfacet
 facet normal 0.272795 0.0336366 0.961484
  outer loop
   vertex 0.00412463 -0.00257754 0.112366
   vertex 0.00412453 -0.0167712 0.112862
   vertex 0.0203015 -0.0179921 0.108315
  endloop
 endfacet
 facet normal 0.270207 0.0307024 0.962313
  outer loop
   vertex 0.0203015 -0.0179921 0.108315
   vertex 0.0203015 -0.00182165 0.107799
   vertex 0.00412463 -0.00257754 0.112366
  endloop
 endfacet
 facet normal 0.777555 0.020052 0.628495
  outer loop
   vertex 0.020503 -0.00182165 0.10755
   vertex 0.0203015 -0.00182165 0.107799
   vertex 0.0203015 -0.0179921 0.108315
  endloop
 endfacet
 facet normal 0.789311 0.019205 0.613693
  outer loop
   vertex 0.0203015 -0.0179921 0.108315
   vertex 0.0208964 -0.0179921 0.10755
   vertex 0.020503 -0.00182165 0.10755
  endloop
 endfacet
 facet normal -0.999259 -0.0333464 -0.019247
  outer loop
   vertex -0.0255814 0.0143488 0.0752092
   vertex -0.0252699 0.0143488 0.0590387
   vertex -0.0247303 -0.00182165 0.0590387
  endloop
 endfacet
 facet normal -0.999244 -0.0343373 -0.0182553
  outer loop
   vertex -0.0247303 -0.00182165 0.0590387
   vertex -0.0250227 -0.00185823 0.0751149
   vertex -0.0255814 0.0143488 0.0752092
  endloop
 endfacet
 facet normal -0.996113 0.0813084 -0.0338752
  outer loop
   vertex -0.0244999 0.0305193 0.0752092
   vertex -0.02395 0.0305193 0.0590387
   vertex -0.0252699 0.0143488 0.0590387
  endloop
 endfacet
 facet normal -0.997587 0.0667181 -0.0192148
  outer loop
   vertex -0.0252699 0.0143488 0.0590387
   vertex -0.0255814 0.0143488 0.0752092
   vertex -0.0244999 0.0305193 0.0752092
  endloop
 endfacet
 facet normal -0.996398 -0.0347955 0.0773359
  outer loop
   vertex -0.0243263 0.0143488 0.0913797
   vertex -0.0255814 0.0143488 0.0752092
   vertex -0.0250227 -0.00185823 0.0751149
  endloop
 endfacet
 facet normal -0.995567 -0.0417827 0.0842628
  outer loop
   vertex -0.0250227 -0.00185823 0.0751149
   vertex -0.0236476 -0.00182165 0.0913797
   vertex -0.0243263 0.0143488 0.0913797
  endloop
 endfacet
 facet normal -0.995862 0.0586918 0.0693834
  outer loop
   vertex -0.0233733 0.0305193 0.0913797
   vertex -0.0244999 0.0305193 0.0752092
   vertex -0.0243263 0.0143488 0.0913797
  endloop
 endfacet
 facet normal -0.994792 0.0665313 0.0772113
  outer loop
   vertex -0.0243263 0.0143488 0.0913797
   vertex -0.0244999 0.0305193 0.0752092
   vertex -0.0255814 0.0143488 0.0752092
  endloop
 endfacet
 facet normal -0.920061 0.376397 -0.108686
  outer loop
   vertex -0.0192448 0.0466898 0.0752092
   vertex -0.0173346 0.0466898 0.0590387
   vertex -0.02395 0.0305193 0.0590387
  endloop
 endfacet
 facet normal -0.950543 0.308906 -0.0323255
  outer loop
   vertex -0.02395 0.0305193 0.0590387
   vertex -0.0244999 0.0305193 0.0752092
   vertex -0.0192448 0.0466898 0.0752092
  endloop
 endfacet
 facet normal -0.609291 0.79283 0.013607
  outer loop
   vertex -0.0102216 0.05366 0.0731208
   vertex -0.00999697 0.0538724 0.0708016
   vertex -0.0192448 0.0466898 0.0752092
  endloop
 endfacet
 facet normal -0.574487 0.810365 0.115205
  outer loop
   vertex -0.0192448 0.0466898 0.0752092
   vertex -0.00999697 0.0538724 0.0708016
   vertex -0.011655 0.054369 0.0590404
  endloop
 endfacet
 facet normal -0.800379 0.591991 -0.0945484
  outer loop
   vertex -0.0192448 0.0466898 0.0752092
   vertex -0.011655 0.054369 0.0590404
   vertex -0.0173346 0.0466898 0.0590387
  endloop
 endfacet
 facet normal -0.035591 0.998253 0.0471695
  outer loop
   vertex -0.011655 0.054369 0.0590404
   vertex -0.00999697 0.0538724 0.0708016
   vertex -0.00765127 0.0545115 0.0590471
  endloop
 endfacet
 facet normal -0.944119 0.320007 0.078967
  outer loop
   vertex -0.0178923 0.0466898 0.0913797
   vertex -0.0192448 0.0466898 0.0752092
   vertex -0.0233733 0.0305193 0.0913797
  endloop
 endfacet
 facet normal -0.948959 0.308391 0.0661156
  outer loop
   vertex -0.0233733 0.0305193 0.0913797
   vertex -0.0192448 0.0466898 0.0752092
   vertex -0.0244999 0.0305193 0.0752092
  endloop
 endfacet
 facet normal -0.610415 0.791777 0.0219416
  outer loop
   vertex -0.0104923 0.0524806 0.0882821
   vertex -0.00984269 0.0531935 0.0806289
   vertex -0.0178923 0.0466898 0.0913797
  endloop
 endfacet
 facet normal -0.587195 0.807954 0.0491136
  outer loop
   vertex -0.0178923 0.0466898 0.0913797
   vertex -0.00984269 0.0531935 0.0806289
   vertex -0.0192448 0.0466898 0.0752092
  endloop
 endfacet
 facet normal -0.597753 0.797706 0.0797276
  outer loop
   vertex -0.0192448 0.0466898 0.0752092
   vertex -0.00984269 0.0531935 0.0806289
   vertex -0.0102216 0.05366 0.0731208
  endloop
 endfacet
 facet normal -0.222861 0.972214 0.0716469
  outer loop
   vertex -0.0089548 0.0529375 0.0868649
   vertex -0.00984269 0.0531935 0.0806289
   vertex -0.0104923 0.0524806 0.0882821
  endloop
 endfacet
 facet normal -0.903877 -0.0379346 0.426108
  outer loop
   vertex -0.0167032 0.0143488 0.10755
   vertex -0.0243263 0.0143488 0.0913797
   vertex -0.0236476 -0.00182165 0.0913797
  endloop
 endfacet
 facet normal -0.878938 -0.0907582 0.468221
  outer loop
   vertex -0.0236476 -0.00182165 0.0913797
   vertex -0.0150334 -0.00182165 0.10755
   vertex -0.0167032 0.0143488 0.10755
  endloop
 endfacet
 facet normal -0.872908 0.114256 0.474318
  outer loop
   vertex -0.0145866 0.0305193 0.10755
   vertex -0.0233733 0.0305193 0.0913797
   vertex -0.0167032 0.0143488 0.10755
  endloop
 endfacet
 facet normal -0.903245 0.0532334 0.42581
  outer loop
   vertex -0.0167032 0.0143488 0.10755
   vertex -0.0233733 0.0305193 0.0913797
   vertex -0.0243263 0.0143488 0.0913797
  endloop
 endfacet
 facet normal -0.745265 -0.0769553 0.662313
  outer loop
   vertex -0.0150334 -0.00182165 0.10755
   vertex -0.0120395 -0.00182165 0.110919
   vertex -0.0167032 0.0143488 0.10755
  endloop
 endfacet
 facet normal -0.647795 -0.0282227 0.761292
  outer loop
   vertex -0.0167032 0.0143488 0.10755
   vertex -0.0120395 -0.00182165 0.110919
   vertex -0.0117418 0.013935 0.111756
  endloop
 endfacet
 facet normal -0.0914015 -0.0511259 0.994501
  outer loop
   vertex -0.0117418 0.013935 0.111756
   vertex -0.0120395 -0.00182165 0.110919
   vertex 0.00412463 -0.00257754 0.112366
  endloop
 endfacet
 facet normal -0.00199317 0.0349647 0.999387
  outer loop
   vertex 0.00412463 -0.00257754 0.112366
   vertex 0.00412479 0.0117053 0.111866
   vertex -0.0117418 0.013935 0.111756
  endloop
 endfacet
 facet normal -0.640924 0.0779567 0.763635
  outer loop
   vertex -0.0167032 0.0143488 0.10755
   vertex -0.0117418 0.013935 0.111756
   vertex -0.0120395 0.0305193 0.109814
  endloop
 endfacet
 facet normal -0.661765 0.0866194 0.74469
  outer loop
   vertex -0.0120395 0.0305193 0.109814
   vertex -0.0145866 0.0305193 0.10755
   vertex -0.0167032 0.0143488 0.10755
  endloop
 endfacet
 facet normal -0.0520818 0.115273 0.991968
  outer loop
   vertex -0.0120395 0.0305193 0.109814
   vertex -0.0117418 0.013935 0.111756
   vertex 0.00412757 0.0280024 0.110955
  endloop
 endfacet
 facet normal 0.000944389 0.0558227 0.99844
  outer loop
   vertex 0.00412757 0.0280024 0.110955
   vertex -0.0117418 0.013935 0.111756
   vertex 0.00412479 0.0117053 0.111866
  endloop
 endfacet
 facet normal -0.825137 0.285424 0.487527
  outer loop
   vertex -0.0120395 0.035664 0.10755
   vertex -0.0120395 0.0466898 0.101095
   vertex -0.0233733 0.0305193 0.0913797
  endloop
 endfacet
 facet normal -0.805722 0.398915 0.437811
  outer loop
   vertex -0.0120395 0.035664 0.10755
   vertex -0.0233733 0.0305193 0.0913797
   vertex -0.0145866 0.0305193 0.10755
  endloop
 endfacet
 facet normal -0.822604 0.27882 0.495563
  outer loop
   vertex -0.0233733 0.0305193 0.0913797
   vertex -0.0120395 0.0466898 0.101095
   vertex -0.0178923 0.0466898 0.0913797
  endloop
 endfacet
 facet normal -0.284139 0.442502 0.850563
  outer loop
   vertex 0.00413102 0.0446654 0.10755
   vertex 0.00413102 0.0466898 0.106497
   vertex -0.0120395 0.0466898 0.101095
  endloop
 endfacet
 facet normal -0.270739 0.486366 0.830752
  outer loop
   vertex -0.0120395 0.0466898 0.101095
   vertex -0.0120395 0.035664 0.10755
   vertex 0.00413102 0.0446654 0.10755
  endloop
 endfacet
 facet normal -0.504861 0.807844 0.304145
  outer loop
   vertex -0.0178923 0.0466898 0.0913797
   vertex -0.0120395 0.0466898 0.101095
   vertex -0.0104923 0.0524806 0.0882821
  endloop
 endfacet
 facet normal -0.178631 0.904515 0.387226
  outer loop
   vertex -0.0104923 0.0524806 0.0882821
   vertex -0.0120395 0.0466898 0.101095
   vertex 0.00412376 0.0531107 0.0935527
  endloop
 endfacet
 facet normal -0.111666 0.9748 0.19312
  outer loop
   vertex -0.0104923 0.0524806 0.0882821
   vertex 0.00412376 0.0531107 0.0935527
   vertex -0.0089548 0.0529375 0.0868649
  endloop
 endfacet
 facet normal -0.146861 0.886093 0.439626
  outer loop
   vertex 0.00412376 0.0531107 0.0935527
   vertex -0.0120395 0.0466898 0.101095
   vertex 0.00413102 0.0466898 0.106497
  endloop
 endfacet
 facet normal -0.631013 0.312416 0.710084
  outer loop
   vertex -0.0145866 0.0305193 0.10755
   vertex -0.0120395 0.0305193 0.109814
   vertex -0.0120395 0.035664 0.10755
  endloop
 endfacet
 facet normal -0.00192117 0.402715 0.915323
  outer loop
   vertex -0.0120395 0.035664 0.10755
   vertex -0.0120395 0.0305193 0.109814
   vertex 0.00412757 0.0280024 0.110955
  endloop
 endfacet
 facet normal -0.110767 0.198987 0.973722
  outer loop
   vertex 0.00412757 0.0280024 0.110955
   vertex 0.00413102 0.0446654 0.10755
   vertex -0.0120395 0.035664 0.10755
  endloop
 endfacet
 facet normal 0.998698 0.0428954 -0.0275986
  outer loop
   vertex 0.0296541 -0.00182165 0.0752092
   vertex 0.0292073 -0.00182165 0.0590387
   vertex 0.0289596 0.0143488 0.0752092
  endloop
 endfacet
 facet normal 0.998041 0.0512208 -0.035934
  outer loop
   vertex 0.0289596 0.0143488 0.0752092
   vertex 0.0292073 -0.00182165 0.0590387
   vertex 0.0283774 0.0143488 0.0590387
  endloop
 endfacet
 facet normal 0.993363 0.109324 -0.0357656
  outer loop
   vertex 0.0289596 0.0143488 0.0752092
   vertex 0.0283774 0.0143488 0.0590387
   vertex 0.02718 0.0305193 0.0752092
  endloop
 endfacet
 facet normal 0.99112 0.123261 -0.0498692
  outer loop
   vertex 0.02718 0.0305193 0.0752092
   vertex 0.0283774 0.0143488 0.0590387
   vertex 0.0263663 0.0305193 0.0590387
  endloop
 endfacet
 facet normal 0.996235 0.0427896 0.0753968
  outer loop
   vertex 0.0284303 -0.00182165 0.0913797
   vertex 0.0296541 -0.00182165 0.0752092
   vertex 0.0289596 0.0143488 0.0752092
  endloop
 endfacet
 facet normal 0.998219 0.0225505 0.0552226
  outer loop
   vertex 0.0289596 0.0143488 0.0752092
   vertex 0.028065 0.0143488 0.0913797
   vertex 0.0284303 -0.00182165 0.0913797
  endloop
 endfacet
 facet normal 0.992499 0.109229 0.0549061
  outer loop
   vertex 0.028065 0.0143488 0.0913797
   vertex 0.0289596 0.0143488 0.0752092
   vertex 0.02718 0.0305193 0.0752092
  endloop
 endfacet
 facet normal 0.99334 0.103986 0.0496175
  outer loop
   vertex 0.02718 0.0305193 0.0752092
   vertex 0.0263722 0.0305193 0.0913797
   vertex 0.028065 0.0143488 0.0913797
  endloop
 endfacet
 facet normal 0.95494 0.292883 -0.0480488
  outer loop
   vertex 0.02718 0.0305193 0.0752092
   vertex 0.0263663 0.0305193 0.0590387
   vertex 0.0222204 0.0466898 0.0752092
  endloop
 endfacet
 facet normal 0.948543 0.309606 -0.0664126
  outer loop
   vertex 0.0222204 0.0466898 0.0752092
   vertex 0.0263663 0.0305193 0.0590387
   vertex 0.0210882 0.0466898 0.0590387
  endloop
 endfacet
 facet normal 0.615409 0.774989 -0.143749
  outer loop
   vertex 0.0203015 0.0513865 0.0752092
   vertex 0.0203015 0.0483871 0.0590387
   vertex 0.0122578 0.054776 0.0590468
  endloop
 endfacet
 facet normal 0.446458 0.894132 -0.0346792
  outer loop
   vertex 0.0122578 0.054776 0.0590468
   vertex 0.0143795 0.0542678 0.0732588
   vertex 0.0203015 0.0513865 0.0752092
  endloop
 endfacet
 facet normal 0.905448 0.419696 -0.0633954
  outer loop
   vertex 0.0222204 0.0466898 0.0752092
   vertex 0.0210882 0.0466898 0.0590387
   vertex 0.0203015 0.0483871 0.0590387
  endloop
 endfacet
 facet normal 0.923446 0.377293 -0.069982
  outer loop
   vertex 0.0203015 0.0483871 0.0590387
   vertex 0.0203015 0.0513865 0.0752092
   vertex 0.0222204 0.0466898 0.0752092
  endloop
 endfacet
 facet normal 0.954956 0.292888 0.0477002
  outer loop
   vertex 0.0263722 0.0305193 0.0913797
   vertex 0.02718 0.0305193 0.0752092
   vertex 0.0222204 0.0466898 0.0752092
  endloop
 endfacet
 facet normal 0.943601 0.321472 0.0792
  outer loop
   vertex 0.0222204 0.0466898 0.0752092
   vertex 0.0208632 0.0466898 0.0913797
   vertex 0.0263722 0.0305193 0.0913797
  endloop
 endfacet
 facet normal 0.48686 0.853412 0.18616
  outer loop
   vertex 0.0203015 0.0478591 0.0913797
   vertex 0.0203015 0.0513865 0.0752092
   vertex 0.0118094 0.0536208 0.0871758
  endloop
 endfacet
 facet normal 0.403192 0.907649 0.116658
  outer loop
   vertex 0.0118094 0.0536208 0.0871758
   vertex 0.0203015 0.0513865 0.0752092
   vertex 0.0143795 0.0542678 0.0732588
  endloop
 endfacet
 facet normal 0.898834 0.431747 0.0754426
  outer loop
   vertex 0.0208632 0.0466898 0.0913797
   vertex 0.0222204 0.0466898 0.0752092
   vertex 0.0203015 0.0478591 0.0913797
  endloop
 endfacet
 facet normal 0.922581 0.37694 0.082224
  outer loop
   vertex 0.0203015 0.0478591 0.0913797
   vertex 0.0222204 0.0466898 0.0752092
   vertex 0.0203015 0.0513865 0.0752092
  endloop
 endfacet
 facet normal 0.665725 0.0233439 0.745832
  outer loop
   vertex 0.0203015 0.00951986 0.10755
   vertex 0.0203015 0.0143488 0.107399
   vertex 0.0201322 0.0143488 0.10755
  endloop
 endfacet
 facet normal 0.897793 0.0159502 0.44013
  outer loop
   vertex 0.020503 -0.00182165 0.10755
   vertex 0.0284303 -0.00182165 0.0913797
   vertex 0.0203015 0.00951986 0.10755
  endloop
 endfacet
 facet normal 0.89892 0.0203072 0.437641
  outer loop
   vertex 0.0203015 0.00951986 0.10755
   vertex 0.0284303 -0.00182165 0.0913797
   vertex 0.028065 0.0143488 0.0913797
  endloop
 endfacet
 facet normal 0.899806 0.0136489 0.436077
  outer loop
   vertex 0.0203015 0.00951986 0.10755
   vertex 0.028065 0.0143488 0.0913797
   vertex 0.0203015 0.0143488 0.107399
  endloop
 endfacet
 facet normal 0.660953 0.121755 0.740485
  outer loop
   vertex 0.0201322 0.0143488 0.10755
   vertex 0.0203015 0.0143488 0.107399
   vertex 0.0203015 0.0305193 0.10474
  endloop
 endfacet
 facet normal 0.639979 0.125044 0.75815
  outer loop
   vertex 0.0203015 0.0305193 0.10474
   vertex 0.0169726 0.0305193 0.10755
   vertex 0.0201322 0.0143488 0.10755
  endloop
 endfacet
 facet normal 0.906316 0.0948762 0.411813
  outer loop
   vertex 0.0263722 0.0305193 0.0913797
   vertex 0.0203015 0.0305193 0.10474
   vertex 0.028065 0.0143488 0.0913797
  endloop
 endfacet
 facet normal 0.897585 0.0715256 0.435001
  outer loop
   vertex 0.028065 0.0143488 0.0913797
   vertex 0.0203015 0.0305193 0.10474
   vertex 0.0203015 0.0143488 0.107399
  endloop
 endfacet
 facet normal 0.258919 0.0090791 0.965856
  outer loop
   vertex 0.0201322 0.0143488 0.10755
   vertex 0.00412479 0.0117053 0.111866
   vertex 0.0203015 0.00951986 0.10755
  endloop
 endfacet
 facet normal 0.261891 0.0337414 0.964507
  outer loop
   vertex 0.0203015 0.00951986 0.10755
   vertex 0.00412479 0.0117053 0.111866
   vertex 0.00412463 -0.00257754 0.112366
  endloop
 endfacet
 facet normal 0.270687 0.0211539 0.962435
  outer loop
   vertex 0.0203015 0.00951986 0.10755
   vertex 0.00412463 -0.00257754 0.112366
   vertex 0.0203015 -0.00182165 0.107799
  endloop
 endfacet
 facet normal 0.777637 0.0138155 0.628562
  outer loop
   vertex 0.0203015 0.00951986 0.10755
   vertex 0.0203015 -0.00182165 0.107799
   vertex 0.020503 -0.00182165 0.10755
  endloop
 endfacet
 facet normal 0.245932 0.0540666 0.967778
  outer loop
   vertex 0.0169726 0.0305193 0.10755
   vertex 0.00412757 0.0280024 0.110955
   vertex 0.00412479 0.0117053 0.111866
  endloop
 endfacet
 facet normal 0.252411 0.0493181 0.966363
  outer loop
   vertex 0.00412479 0.0117053 0.111866
   vertex 0.0201322 0.0143488 0.10755
   vertex 0.0169726 0.0305193 0.10755
  endloop
 endfacet
 facet normal 0.563457 0.486789 0.667498
  outer loop
   vertex 0.0169726 0.0305193 0.10755
   vertex 0.0203015 0.0305193 0.10474
   vertex 0.0203015 0.0466898 0.0929474
  endloop
 endfacet
 facet normal 0.546776 0.496356 0.67429
  outer loop
   vertex 0.0169726 0.0305193 0.10755
   vertex 0.0203015 0.0466898 0.0929474
   vertex 0.00413102 0.0446654 0.10755
  endloop
 endfacet
 facet normal 0.596573 0.3704 0.711972
  outer loop
   vertex 0.00413102 0.0446654 0.10755
   vertex 0.0203015 0.0466898 0.0929474
   vertex 0.00413102 0.0466898 0.106497
  endloop
 endfacet
 facet normal 0.896428 0.305401 0.321166
  outer loop
   vertex 0.0208632 0.0466898 0.0913797
   vertex 0.0203015 0.0466898 0.0929474
   vertex 0.0263722 0.0305193 0.0913797
  endloop
 endfacet
 facet normal 0.871621 0.288828 0.396049
  outer loop
   vertex 0.0263722 0.0305193 0.0913797
   vertex 0.0203015 0.0466898 0.0929474
   vertex 0.0203015 0.0305193 0.10474
  endloop
 endfacet
 facet normal 0.339979 0.81184 0.474689
  outer loop
   vertex 0.0118094 0.0536208 0.0871758
   vertex 0.00412376 0.0531107 0.0935527
   vertex 0.0203015 0.0466898 0.0929474
  endloop
 endfacet
 facet normal 0.2406 0.778038 0.580318
  outer loop
   vertex 0.0118094 0.0536208 0.0871758
   vertex 0.0203015 0.0466898 0.0929474
   vertex 0.0203015 0.0478591 0.0913797
  endloop
 endfacet
 facet normal 0.348831 0.839646 0.416308
  outer loop
   vertex 0.0203015 0.0466898 0.0929474
   vertex 0.00412376 0.0531107 0.0935527
   vertex 0.00413102 0.0466898 0.106497
  endloop
 endfacet
 facet normal 0.857781 0.412027 0.30732
  outer loop
   vertex 0.0203015 0.0478591 0.0913797
   vertex 0.0203015 0.0466898 0.0929474
   vertex 0.0208632 0.0466898 0.0913797
  endloop
 endfacet
 facet normal 0.215313 0.195459 0.956784
  outer loop
   vertex 0.00413102 0.0446654 0.10755
   vertex 0.00412757 0.0280024 0.110955
   vertex 0.0169726 0.0305193 0.10755
  endloop
 endfacet
endsolid
