solid ascii
 facet normal -0.036613 -0.0276126 -0.998948
  outer loop
   vertex -0.0153591 -0.0309514 0.00580408
   vertex -0.00855141 -0.0261482 0.0054218
   vertex -0.0104366 -0.0358304 0.00575853
  endloop
 endfacet
 facet normal -0.0366112 -0.027613 -0.998948
  outer loop
   vertex -0.0104366 -0.0358304 0.00575853
   vertex -0.00855141 -0.0261482 0.0054218
   vertex 0.00395123 -0.0404269 0.00535827
  endloop
 endfacet
 facet normal -0.0366107 -0.0276125 -0.998948
  outer loop
   vertex 0.00395123 -0.0404269 0.00535827
   vertex -0.00855141 -0.0261482 0.0054218
   vertex 0.00365006 -0.0264516 0.00498301
  endloop
 endfacet
 facet normal -0.0366106 -0.0276111 -0.998948
  outer loop
   vertex 0.00365006 -0.0264516 0.00498301
   vertex -0.00855141 -0.0261482 0.0054218
   vertex -0.00691608 -0.0243441 0.005312
  endloop
 endfacet
 facet normal -0.036612 -0.0276116 -0.998948
  outer loop
   vertex -0.0297149 -0.0419599 0.00663451
   vertex -0.0153591 -0.0309514 0.00580408
   vertex -0.0104366 -0.0358304 0.00575853
  endloop
 endfacet
 facet normal -0.0366116 -0.0276128 -0.998948
  outer loop
   vertex -0.0104366 -0.0358304 0.00575853
   vertex -0.0147574 -0.0577677 0.00652327
   vertex -0.0297149 -0.0419599 0.00663451
  endloop
 endfacet
 facet normal -0.0366112 -0.0276129 -0.998948
  outer loop
   vertex -0.0147574 -0.0577677 0.00652327
   vertex -0.0104366 -0.0358304 0.00575853
   vertex 0.00395123 -0.0404269 0.00535827
  endloop
 endfacet
 facet normal -0.0366115 -0.0276126 -0.998948
  outer loop
   vertex 0.00395123 -0.0404269 0.00535827
   vertex 0.0044585 -0.0616867 0.00592734
   vertex -0.0147574 -0.0577677 0.00652327
  endloop
 endfacet
 facet normal -0.0366112 -0.0276127 -0.998948
  outer loop
   vertex -0.0347939 -0.00374218 0.00576425
   vertex -0.0317877 -0.00332167 0.00564245
   vertex -0.0342091 -0.0180986 0.00613965
  endloop
 endfacet
 facet normal -0.0366109 -0.0276128 -0.998948
  outer loop
   vertex -0.0218444 -0.0166398 0.00564616
   vertex -0.0145723 -0.0128636 0.00527526
   vertex -0.0153591 -0.0309514 0.00580408
  endloop
 endfacet
 facet normal -0.036613 -0.0276127 -0.998948
  outer loop
   vertex -0.0153591 -0.0309514 0.00580408
   vertex -0.0145723 -0.0128636 0.00527526
   vertex -0.00855141 -0.0261482 0.0054218
  endloop
 endfacet
 facet normal -0.0366086 -0.0276107 -0.998948
  outer loop
   vertex -0.00855141 -0.0261482 0.0054218
   vertex -0.0145723 -0.0128636 0.00527526
   vertex -0.007846 -0.0233727 0.00531923
  endloop
 endfacet
 facet normal -0.036612 -0.0276099 -0.998948
  outer loop
   vertex -0.00691608 -0.0243441 0.005312
   vertex -0.00855141 -0.0261482 0.0054218
   vertex -0.007846 -0.0233727 0.00531923
  endloop
 endfacet
 facet normal -0.0366113 -0.0276125 -0.998948
  outer loop
   vertex -0.0237334 -0.00225903 0.00531789
   vertex -0.0171798 -0.0013793 0.00505338
   vertex -0.0218444 -0.0166398 0.00564616
  endloop
 endfacet
 facet normal -0.036611 -0.0276126 -0.998948
  outer loop
   vertex -0.0218444 -0.0166398 0.00564616
   vertex -0.0171798 -0.0013793 0.00505338
   vertex -0.0145723 -0.0128636 0.00527526
  endloop
 endfacet
 facet normal -0.0366114 -0.0276127 -0.998948
  outer loop
   vertex -0.0339759 -0.0229745 0.00626589
   vertex -0.0218444 -0.0166398 0.00564616
   vertex -0.0297149 -0.0419599 0.00663451
  endloop
 endfacet
 facet normal -0.036611 -0.0276129 -0.998948
  outer loop
   vertex -0.0297149 -0.0419599 0.00663451
   vertex -0.0218444 -0.0166398 0.00564616
   vertex -0.0153591 -0.0309514 0.00580408
  endloop
 endfacet
 facet normal -0.0366115 -0.0276127 -0.998948
  outer loop
   vertex -0.0342091 -0.0180986 0.00613965
   vertex -0.0317877 -0.00332167 0.00564245
   vertex -0.0218444 -0.0166398 0.00564616
  endloop
 endfacet
 facet normal -0.0366115 -0.0276126 -0.998948
  outer loop
   vertex -0.0342091 -0.0180986 0.00613965
   vertex -0.0218444 -0.0166398 0.00564616
   vertex -0.0339759 -0.0229745 0.00626589
  endloop
 endfacet
 facet normal -0.0366112 -0.0276125 -0.998948
  outer loop
   vertex -0.0218444 -0.0166398 0.00564616
   vertex -0.0317877 -0.00332167 0.00564245
   vertex -0.0237334 -0.00225903 0.00531789
  endloop
 endfacet
 facet normal -0.0546239 -0.783249 -0.619304
  outer loop
   vertex -0.012089 -0.0737611 0.018789
   vertex 0.00454839 -0.0648177 0.00601059
   vertex 0.00482775 -0.0749409 0.018789
  endloop
 endfacet
 facet normal -0.498261 -0.476955 -0.724051
  outer loop
   vertex -0.0389418 -0.0507722 0.018789
   vertex -0.0297149 -0.0419599 0.00663451
   vertex -0.0181612 -0.0724811 0.018789
  endloop
 endfacet
 facet normal -0.510395 -0.477909 -0.714913
  outer loop
   vertex -0.0181612 -0.0724811 0.018789
   vertex -0.0297149 -0.0419599 0.00663451
   vertex -0.0147574 -0.0577677 0.00652327
  endloop
 endfacet
 facet normal -0.130057 -0.616964 -0.776171
  outer loop
   vertex -0.0181612 -0.0724811 0.018789
   vertex -0.0147574 -0.0577677 0.00652327
   vertex -0.012089 -0.0737611 0.018789
  endloop
 endfacet
 facet normal -0.244639 -0.61544 -0.749257
  outer loop
   vertex -0.012089 -0.0737611 0.018789
   vertex -0.0147574 -0.0577677 0.00652327
   vertex 0.00454839 -0.0648177 0.00601059
  endloop
 endfacet
 facet normal -0.0366115 -0.0276129 -0.998948
  outer loop
   vertex 0.00454839 -0.0648177 0.00601059
   vertex -0.0147574 -0.0577677 0.00652327
   vertex 0.0044585 -0.0616867 0.00592734
  endloop
 endfacet
 facet normal -0.0873044 -0.996144 -0.0086818
  outer loop
   vertex -0.0143751 -0.0737611 0.0417779
   vertex -0.012089 -0.0737611 0.018789
   vertex 0.00482775 -0.0754441 0.0417779
  endloop
 endfacet
 facet normal -0.0695546 -0.997339 -0.0218308
  outer loop
   vertex 0.00482775 -0.0754441 0.0417779
   vertex -0.012089 -0.0737611 0.018789
   vertex 0.00482775 -0.0749409 0.018789
  endloop
 endfacet
 facet normal -0.722292 -0.691407 0.0158343
  outer loop
   vertex -0.0384378 -0.0507722 0.0417779
   vertex -0.0389418 -0.0507722 0.018789
   vertex -0.0181612 -0.0724811 0.018789
  endloop
 endfacet
 facet normal -0.738422 -0.67418 -0.0146608
  outer loop
   vertex -0.0181612 -0.0724811 0.018789
   vertex -0.0181612 -0.072981 0.0417779
   vertex -0.0384378 -0.0507722 0.0417779
  endloop
 endfacet
 facet normal -0.201761 -0.979203 -0.0212939
  outer loop
   vertex -0.0181612 -0.072981 0.0417779
   vertex -0.0181612 -0.0724811 0.018789
   vertex -0.0143751 -0.0737611 0.0417779
  endloop
 endfacet
 facet normal -0.206226 -0.97829 -0.0205077
  outer loop
   vertex -0.0143751 -0.0737611 0.0417779
   vertex -0.0181612 -0.0724811 0.018789
   vertex -0.012089 -0.0737611 0.018789
  endloop
 endfacet
 facet normal -0.849981 -0.0761286 -0.521284
  outer loop
   vertex -0.042029 -0.0277833 0.018789
   vertex -0.0347654 -0.0234132 0.00630695
   vertex -0.0411501 -0.0375971 0.018789
  endloop
 endfacet
 facet normal -0.864975 -0.0482963 -0.499485
  outer loop
   vertex -0.0422564 -0.00479434 0.018789
   vertex -0.0347939 -0.00374218 0.00576425
   vertex -0.0342091 -0.0180986 0.00613965
  endloop
 endfacet
 facet normal -0.84767 -0.00838132 -0.530457
  outer loop
   vertex -0.0422564 -0.00479434 0.018789
   vertex -0.0342091 -0.0180986 0.00613965
   vertex -0.042029 -0.0277833 0.018789
  endloop
 endfacet
 facet normal -0.873163 0.0762387 -0.48143
  outer loop
   vertex -0.042029 -0.0277833 0.018789
   vertex -0.0342091 -0.0180986 0.00613965
   vertex -0.0347654 -0.0234132 0.00630695
  endloop
 endfacet
 facet normal -0.994935 -0.0891114 0.0465222
  outer loop
   vertex -0.0411501 -0.0375971 0.018789
   vertex -0.0411501 -0.0277833 0.0375871
   vertex -0.042029 -0.0277833 0.018789
  endloop
 endfacet
 facet normal -0.99886 -0.0098762 0.0467057
  outer loop
   vertex -0.042029 -0.0277833 0.018789
   vertex -0.0411501 -0.0277833 0.0375871
   vertex -0.0422564 -0.00479434 0.018789
  endloop
 endfacet
 facet normal -0.998488 -0.00318263 0.0548697
  outer loop
   vertex -0.0422564 -0.00479434 0.018789
   vertex -0.0411501 -0.0277833 0.0375871
   vertex -0.0411501 -0.00479434 0.0389205
  endloop
 endfacet
 facet normal -0.748632 -0.214937 -0.627178
  outer loop
   vertex -0.0411501 -0.0375971 0.018789
   vertex -0.0347654 -0.0234132 0.00630695
   vertex -0.0297149 -0.0419599 0.00663451
  endloop
 endfacet
 facet normal -0.744601 -0.124804 -0.655739
  outer loop
   vertex -0.0411501 -0.0375971 0.018789
   vertex -0.0297149 -0.0419599 0.00663451
   vertex -0.0389418 -0.0507722 0.018789
  endloop
 endfacet
 facet normal -0.0366117 -0.0276128 -0.998948
  outer loop
   vertex -0.0297149 -0.0419599 0.00663451
   vertex -0.0347654 -0.0234132 0.00630695
   vertex -0.0339759 -0.0229745 0.00626589
  endloop
 endfacet
 facet normal -0.0366118 -0.0276126 -0.998948
  outer loop
   vertex -0.0339759 -0.0229745 0.00626589
   vertex -0.0347654 -0.0234132 0.00630695
   vertex -0.0342091 -0.0180986 0.00613965
  endloop
 endfacet
 facet normal -0.992365 -0.105407 0.0640336
  outer loop
   vertex -0.0408797 -0.0277833 0.0417779
   vertex -0.0411501 -0.0277833 0.0375871
   vertex -0.0384378 -0.0507722 0.0417779
  endloop
 endfacet
 facet normal -0.992697 -0.106942 0.0558308
  outer loop
   vertex -0.0384378 -0.0507722 0.0417779
   vertex -0.0411501 -0.0277833 0.0375871
   vertex -0.0411501 -0.0375971 0.018789
  endloop
 endfacet
 facet normal -0.986012 -0.165267 0.0216156
  outer loop
   vertex -0.0384378 -0.0507722 0.0417779
   vertex -0.0411501 -0.0375971 0.018789
   vertex -0.0389418 -0.0507722 0.018789
  endloop
 endfacet
 facet normal -0.997254 -0.00253199 0.0740076
  outer loop
   vertex -0.040938 -0.00479434 0.0417779
   vertex -0.0411501 -0.00479434 0.0389205
   vertex -0.0408797 -0.0277833 0.0417779
  endloop
 endfacet
 facet normal -0.997918 -0.00373495 0.0643918
  outer loop
   vertex -0.0408797 -0.0277833 0.0417779
   vertex -0.0411501 -0.00479434 0.0389205
   vertex -0.0411501 -0.0277833 0.0375871
  endloop
 endfacet
 facet normal -0.036611 -0.0276125 -0.998948
  outer loop
   vertex 0.00395123 -0.0404269 0.00535827
   vertex 0.00365006 -0.0264516 0.00498301
   vertex 0.00773925 -0.0245966 0.00478187
  endloop
 endfacet
 facet normal -0.0366116 -0.0276123 -0.998948
  outer loop
   vertex 0.00773925 -0.0245966 0.00478187
   vertex 0.017683 -0.031667 0.00461286
   vertex 0.00395123 -0.0404269 0.00535827
  endloop
 endfacet
 facet normal -0.0366115 -0.0276126 -0.998948
  outer loop
   vertex 0.0044585 -0.0616867 0.00592734
   vertex 0.00395123 -0.0404269 0.00535827
   vertex 0.0242076 -0.055986 0.00504596
  endloop
 endfacet
 facet normal -0.0366115 -0.0276126 -0.998948
  outer loop
   vertex 0.0242076 -0.055986 0.00504596
   vertex 0.00395123 -0.0404269 0.00535827
   vertex 0.0190024 -0.0324058 0.00458493
  endloop
 endfacet
 facet normal -0.0366115 -0.0276126 -0.998948
  outer loop
   vertex 0.0190024 -0.0324058 0.00458493
   vertex 0.00395123 -0.0404269 0.00535827
   vertex 0.017683 -0.031667 0.00461286
  endloop
 endfacet
 facet normal -0.0245344 -0.0249553 -0.999387
  outer loop
   vertex 0.0242076 -0.055986 0.00504596
   vertex 0.0190024 -0.0324058 0.00458493
   vertex 0.0342861 -0.0437027 0.00449181
  endloop
 endfacet
 facet normal -0.0366132 -0.0276146 -0.998948
  outer loop
   vertex 0.017683 -0.031667 0.00461286
   vertex 0.00773925 -0.0245966 0.00478187
   vertex 0.0186699 -0.0302076 0.00453635
  endloop
 endfacet
 facet normal -0.0325805 -0.0197443 -0.999274
  outer loop
   vertex 0.0186699 -0.0302076 0.00453635
   vertex 0.00773925 -0.0245966 0.00478187
   vertex 0.0153608 -0.0136572 0.00431723
  endloop
 endfacet
 facet normal -0.0170396 -0.0166429 -0.999716
  outer loop
   vertex 0.0186699 -0.0302076 0.00453635
   vertex 0.0153608 -0.0136572 0.00431723
   vertex 0.0236803 -0.0171194 0.00423306
  endloop
 endfacet
 facet normal -0.0169859 -0.0165137 -0.999719
  outer loop
   vertex 0.0236803 -0.0171194 0.00423306
   vertex 0.0153608 -0.0136572 0.00431723
   vertex 0.0155437 -0.0131245 0.00430532
  endloop
 endfacet
 facet normal -0.0169819 -0.0165056 -0.99972
  outer loop
   vertex 0.0236803 -0.0171194 0.00423306
   vertex 0.0155437 -0.0131245 0.00430532
   vertex 0.0175637 -0.0014396 0.00407809
  endloop
 endfacet
 facet normal -0.0169829 -0.016506 -0.99972
  outer loop
   vertex 0.0175637 -0.0014396 0.00407809
   vertex 0.0247356 -0.00236403 0.00397152
   vertex 0.0236803 -0.0171194 0.00423306
  endloop
 endfacet
 facet normal -0.0366128 -0.0276149 -0.998948
  outer loop
   vertex 0.0186699 -0.0302076 0.00453635
   vertex 0.0190024 -0.0324058 0.00458493
   vertex 0.017683 -0.031667 0.00461286
  endloop
 endfacet
 facet normal -0.0252344 -0.0259026 -0.999346
  outer loop
   vertex 0.0342861 -0.0437027 0.00449181
   vertex 0.0190024 -0.0324058 0.00458493
   vertex 0.0186699 -0.0302076 0.00453635
  endloop
 endfacet
 facet normal -0.0171853 -0.0165871 -0.999715
  outer loop
   vertex 0.0342861 -0.0437027 0.00449181
   vertex 0.0186699 -0.0302076 0.00453635
   vertex 0.0236803 -0.0171194 0.00423306
  endloop
 endfacet
 facet normal -0.0169821 -0.0165061 -0.99972
  outer loop
   vertex 0.0342861 -0.0437027 0.00449181
   vertex 0.0236803 -0.0171194 0.00423306
   vertex 0.038262 -0.0239703 0.00409848
  endloop
 endfacet
 facet normal -0.0169821 -0.0165061 -0.99972
  outer loop
   vertex 0.038262 -0.0239703 0.00409848
   vertex 0.0236803 -0.0171194 0.00423306
   vertex 0.0247356 -0.00236403 0.00397152
  endloop
 endfacet
 facet normal -0.0169767 -0.0165027 -0.99972
  outer loop
   vertex 0.0247356 -0.00236403 0.00397152
   vertex 0.0376606 -0.00395189 0.00377824
   vertex 0.038262 -0.0239703 0.00409848
  endloop
 endfacet
 facet normal 0.0853142 -0.780071 -0.619847
  outer loop
   vertex 0.00482775 -0.0749409 0.018789
   vertex 0.00454839 -0.0648177 0.00601059
   vertex 0.0156151 -0.0737611 0.018789
  endloop
 endfacet
 facet normal 0.265352 -0.666742 -0.696451
  outer loop
   vertex 0.0156151 -0.0737611 0.018789
   vertex 0.00454839 -0.0648177 0.00601059
   vertex 0.0242076 -0.055986 0.00504596
  endloop
 endfacet
 facet normal 0.15589 -0.650248 -0.743556
  outer loop
   vertex 0.0156151 -0.0737611 0.018789
   vertex 0.0242076 -0.055986 0.00504596
   vertex 0.0278167 -0.0708359 0.018789
  endloop
 endfacet
 facet normal -0.0366114 -0.0276129 -0.998948
  outer loop
   vertex 0.0242076 -0.055986 0.00504596
   vertex 0.00454839 -0.0648177 0.00601059
   vertex 0.0044585 -0.0616867 0.00592734
  endloop
 endfacet
 facet normal 0.558255 -0.486377 -0.672153
  outer loop
   vertex 0.0278167 -0.0708359 0.018789
   vertex 0.0242076 -0.055986 0.00504596
   vertex 0.0452971 -0.0507722 0.018789
  endloop
 endfacet
 facet normal 0.558 -0.488117 -0.671102
  outer loop
   vertex 0.0452971 -0.0507722 0.018789
   vertex 0.0242076 -0.055986 0.00504596
   vertex 0.0342861 -0.0437027 0.00449181
  endloop
 endfacet
 facet normal 0.108693 -0.993837 -0.0217541
  outer loop
   vertex 0.00482775 -0.0754441 0.0417779
   vertex 0.00482775 -0.0749409 0.018789
   vertex 0.0156151 -0.0737611 0.018789
  endloop
 endfacet
 facet normal 0.104072 -0.994281 -0.0239549
  outer loop
   vertex 0.0156151 -0.0737611 0.018789
   vertex 0.0209066 -0.0737611 0.0417779
   vertex 0.00482775 -0.0754441 0.0417779
  endloop
 endfacet
 facet normal 0.232798 -0.971048 -0.0535845
  outer loop
   vertex 0.0209066 -0.0737611 0.0417779
   vertex 0.0156151 -0.0737611 0.018789
   vertex 0.0278167 -0.0708359 0.018789
  endloop
 endfacet
 facet normal 0.198805 -0.977903 -0.0646743
  outer loop
   vertex 0.0278167 -0.0708359 0.018789
   vertex 0.0278167 -0.0723563 0.0417779
   vertex 0.0209066 -0.0737611 0.0417779
  endloop
 endfacet
 facet normal 0.753267 -0.656281 -0.0434036
  outer loop
   vertex 0.0278167 -0.0723563 0.0417779
   vertex 0.0278167 -0.0708359 0.018789
   vertex 0.0452971 -0.0507722 0.018789
  endloop
 endfacet
 facet normal 0.717297 -0.689297 -0.101754
  outer loop
   vertex 0.0452971 -0.0507722 0.018789
   vertex 0.0485582 -0.0507722 0.0417779
   vertex 0.0278167 -0.0723563 0.0417779
  endloop
 endfacet
 facet normal 0.741327 -0.162352 -0.651211
  outer loop
   vertex 0.0452971 -0.0507722 0.018789
   vertex 0.0342861 -0.0437027 0.00449181
   vertex 0.038262 -0.0239703 0.00409848
  endloop
 endfacet
 facet normal 0.884655 -0.023037 -0.465677
  outer loop
   vertex 0.038262 -0.0239703 0.00409848
   vertex 0.0465446 -0.0269365 0.0199797
   vertex 0.0452971 -0.0507722 0.018789
  endloop
 endfacet
 facet normal 0.888004 0.0198918 -0.459406
  outer loop
   vertex 0.0465446 -0.0269365 0.0199797
   vertex 0.038262 -0.0239703 0.00409848
   vertex 0.0456285 -0.004732 0.0191704
  endloop
 endfacet
 facet normal 0.888301 0.0193464 -0.458855
  outer loop
   vertex 0.0456285 -0.004732 0.0191704
   vertex 0.038262 -0.0239703 0.00409848
   vertex 0.0376606 -0.00395189 0.00377824
  endloop
 endfacet
 facet normal 0.989096 -0.044757 -0.14031
  outer loop
   vertex 0.0485582 -0.0507722 0.0417779
   vertex 0.0452971 -0.0507722 0.018789
   vertex 0.0465446 -0.0269365 0.0199797
  endloop
 endfacet
 facet normal 0.988915 -0.0456665 -0.141288
  outer loop
   vertex 0.0465446 -0.0269365 0.0199797
   vertex 0.0496879 -0.0272864 0.0420939
   vertex 0.0485582 -0.0507722 0.0417779
  endloop
 endfacet
 facet normal 0.988453 0.0590078 -0.139566
  outer loop
   vertex 0.0496879 -0.0272864 0.0420939
   vertex 0.0465446 -0.0269365 0.0199797
   vertex 0.0483009 -0.0047933 0.0417808
  endloop
 endfacet
 facet normal 0.992431 0.0366722 -0.1172
  outer loop
   vertex 0.0483009 -0.0047933 0.0417808
   vertex 0.0465446 -0.0269365 0.0199797
   vertex 0.0456285 -0.004732 0.0191704
  endloop
 endfacet
 facet normal -0.0366114 -0.0276127 -0.998948
  outer loop
   vertex -0.036337 0.0158409 0.00527949
   vertex -0.0280719 0.0133575 0.00504522
   vertex -0.0317877 -0.00332167 0.00564245
  endloop
 endfacet
 facet normal -0.0366112 -0.0276127 -0.998948
  outer loop
   vertex -0.0317877 -0.00332167 0.00564245
   vertex -0.0347939 -0.00374218 0.00576425
   vertex -0.036337 0.0158409 0.00527949
  endloop
 endfacet
 facet normal -0.0366114 -0.0276127 -0.998948
  outer loop
   vertex -0.0351222 0.0323185 0.0047795
   vertex -0.0280719 0.0133575 0.00504522
   vertex -0.036337 0.0158409 0.00527949
  endloop
 endfacet
 facet normal -0.036612 -0.0276129 -0.998948
  outer loop
   vertex -0.0242071 0.0123038 0.00493271
   vertex -0.0169696 0.0102124 0.00472526
   vertex -0.0171798 -0.0013793 0.00505338
  endloop
 endfacet
 facet normal -0.0366113 -0.0276126 -0.998948
  outer loop
   vertex -0.0171798 -0.0013793 0.00505338
   vertex -0.0237334 -0.00225903 0.00531789
   vertex -0.0242071 0.0123038 0.00493271
  endloop
 endfacet
 facet normal -0.036612 -0.0276126 -0.998948
  outer loop
   vertex -0.0211527 0.0271288 0.00441098
   vertex -0.0135339 0.0219835 0.00427397
   vertex -0.0169696 0.0102124 0.00472526
  endloop
 endfacet
 facet normal -0.0366119 -0.0276126 -0.998948
  outer loop
   vertex -0.0169696 0.0102124 0.00472526
   vertex -0.0242071 0.0123038 0.00493271
   vertex -0.0211527 0.0271288 0.00441098
  endloop
 endfacet
 facet normal -0.0366112 -0.0276128 -0.998948
  outer loop
   vertex -0.0237334 -0.00225903 0.00531789
   vertex -0.0317877 -0.00332167 0.00564245
   vertex -0.0280719 0.0133575 0.00504522
  endloop
 endfacet
 facet normal -0.0366105 -0.0276126 -0.998948
  outer loop
   vertex -0.0280719 0.0133575 0.00504522
   vertex -0.0242071 0.0123038 0.00493271
   vertex -0.0237334 -0.00225903 0.00531789
  endloop
 endfacet
 facet normal -0.0366112 -0.0276128 -0.998948
  outer loop
   vertex -0.0345644 0.0358474 0.00466151
   vertex -0.0211527 0.0271288 0.00441098
   vertex -0.0351222 0.0323185 0.0047795
  endloop
 endfacet
 facet normal -0.0366111 -0.0276126 -0.998948
  outer loop
   vertex -0.0351222 0.0323185 0.0047795
   vertex -0.0211527 0.0271288 0.00441098
   vertex -0.0280719 0.0133575 0.00504522
  endloop
 endfacet
 facet normal -0.0366106 -0.0276128 -0.998948
  outer loop
   vertex -0.0280719 0.0133575 0.00504522
   vertex -0.0211527 0.0271288 0.00441098
   vertex -0.0242071 0.0123038 0.00493271
  endloop
 endfacet
 facet normal -0.0277152 -0.0189817 -0.999436
  outer loop
   vertex -0.0108849 0.041871 0.00384625
   vertex -0.00809148 0.0297743 0.00399853
   vertex -0.0211527 0.0271288 0.00441098
  endloop
 endfacet
 facet normal -0.0284262 -0.0154775 -0.999476
  outer loop
   vertex -0.0211527 0.0271288 0.00441098
   vertex -0.00809148 0.0297743 0.00399853
   vertex -0.0135339 0.0219835 0.00427397
  endloop
 endfacet
 facet normal -0.0169825 -0.0165068 -0.99972
  outer loop
   vertex -0.0105143 0.0422659 0.00383344
   vertex 0.00380131 0.037258 0.00367294
   vertex -0.00809148 0.0297743 0.00399853
  endloop
 endfacet
 facet normal -0.016982 -0.0165067 -0.99972
  outer loop
   vertex -0.0105143 0.0422659 0.00383344
   vertex -0.00809148 0.0297743 0.00399853
   vertex -0.0108849 0.041871 0.00384625
  endloop
 endfacet
 facet normal -0.0169828 -0.0165063 -0.99972
  outer loop
   vertex -0.00809148 0.0297743 0.00399853
   vertex 0.00380131 0.037258 0.00367294
   vertex 0.00367638 0.0327211 0.00374997
  endloop
 endfacet
 facet normal -0.0169822 -0.0165059 -0.99972
  outer loop
   vertex 0.00400088 0.0466459 0.00351455
   vertex 0.00380131 0.037258 0.00367294
   vertex -0.0105143 0.0422659 0.00383344
  endloop
 endfacet
 facet normal -0.0233125 -0.0217762 -0.999491
  outer loop
   vertex -0.0224467 0.0565233 0.00380073
   vertex -0.0110945 0.0428882 0.00383302
   vertex -0.0211527 0.0271288 0.00441098
  endloop
 endfacet
 facet normal -0.033098 -0.022201 -0.999206
  outer loop
   vertex -0.0224467 0.0565233 0.00380073
   vertex -0.0211527 0.0271288 0.00441098
   vertex -0.0345644 0.0358474 0.00466151
  endloop
 endfacet
 facet normal -0.028016 -0.018772 -0.999431
  outer loop
   vertex -0.0211527 0.0271288 0.00441098
   vertex -0.0110945 0.0428882 0.00383302
   vertex -0.0108849 0.041871 0.00384625
  endloop
 endfacet
 facet normal -0.0169861 -0.0165028 -0.99972
  outer loop
   vertex -0.0108849 0.041871 0.00384625
   vertex -0.0110945 0.0428882 0.00383302
   vertex -0.0105143 0.0422659 0.00383344
  endloop
 endfacet
 facet normal -0.016982 -0.0165062 -0.99972
  outer loop
   vertex -0.0156917 0.0629591 0.00357973
   vertex -0.0110945 0.0428882 0.00383302
   vertex -0.0224467 0.0565233 0.00380073
  endloop
 endfacet
 facet normal -0.0169822 -0.016506 -0.99972
  outer loop
   vertex 0.0045613 0.0706951 0.00310796
   vertex 0.00400088 0.0466459 0.00351455
   vertex -0.0156917 0.0629591 0.00357973
  endloop
 endfacet
 facet normal -0.0169824 -0.0165063 -0.99972
  outer loop
   vertex -0.0156917 0.0629591 0.00357973
   vertex 0.00400088 0.0466459 0.00351455
   vertex -0.0110945 0.0428882 0.00383302
  endloop
 endfacet
 facet normal -0.0169838 -0.0165007 -0.99972
  outer loop
   vertex -0.0110945 0.0428882 0.00383302
   vertex 0.00400088 0.0466459 0.00351455
   vertex -0.0105143 0.0422659 0.00383344
  endloop
 endfacet
 facet normal -0.88038 -0.0557962 -0.470976
  outer loop
   vertex -0.0437762 0.0181472 0.0189122
   vertex -0.036337 0.0158409 0.00527949
   vertex -0.0422564 -0.00479434 0.018789
  endloop
 endfacet
 facet normal -0.86206 -0.0803153 -0.500401
  outer loop
   vertex -0.0422564 -0.00479434 0.018789
   vertex -0.036337 0.0158409 0.00527949
   vertex -0.0347939 -0.00374218 0.00576425
  endloop
 endfacet
 facet normal -0.951904 0.0554674 -0.301335
  outer loop
   vertex -0.0423949 0.0411835 0.018789
   vertex -0.0381004 0.0384479 0.00471922
   vertex -0.0437762 0.0181472 0.0189122
  endloop
 endfacet
 facet normal -0.63499 -0.315473 -0.705169
  outer loop
   vertex -0.0437762 0.0181472 0.0189122
   vertex -0.0381004 0.0384479 0.00471922
   vertex -0.0351222 0.0323185 0.0047795
  endloop
 endfacet
 facet normal -0.873168 0.0496637 -0.484882
  outer loop
   vertex -0.0437762 0.0181472 0.0189122
   vertex -0.0351222 0.0323185 0.0047795
   vertex -0.036337 0.0158409 0.00527949
  endloop
 endfacet
 facet normal -0.995858 -0.0663099 0.0622107
  outer loop
   vertex -0.0423354 0.018083 0.0419092
   vertex -0.0437762 0.0181472 0.0189122
   vertex -0.0422564 -0.00479434 0.018789
  endloop
 endfacet
 facet normal -0.996766 -0.0587985 0.054775
  outer loop
   vertex -0.0423354 0.018083 0.0419092
   vertex -0.0422564 -0.00479434 0.018789
   vertex -0.0411501 -0.00479434 0.0389205
  endloop
 endfacet
 facet normal -0.99715 -0.0579699 0.0482801
  outer loop
   vertex -0.0423354 0.018083 0.0419092
   vertex -0.0411501 -0.00479434 0.0389205
   vertex -0.0411501 -0.00241461 0.0417779
  endloop
 endfacet
 facet normal -0.999558 0.0196946 0.0222529
  outer loop
   vertex -0.0418831 0.0411835 0.0417779
   vertex -0.0423949 0.0411835 0.018789
   vertex -0.0423354 0.018083 0.0419092
  endloop
 endfacet
 facet normal -0.99623 0.0600716 0.0625869
  outer loop
   vertex -0.0423354 0.018083 0.0419092
   vertex -0.0423949 0.0411835 0.018789
   vertex -0.0437762 0.0181472 0.0189122
  endloop
 endfacet
 facet normal -0.0366112 -0.0276128 -0.998948
  outer loop
   vertex -0.0351222 0.0323185 0.0047795
   vertex -0.0381004 0.0384479 0.00471922
   vertex -0.0345644 0.0358474 0.00466151
  endloop
 endfacet
 facet normal -0.993343 -0.0885124 0.0737174
  outer loop
   vertex -0.0411501 -0.00241461 0.0417779
   vertex -0.0411501 -0.00479434 0.0389205
   vertex -0.040938 -0.00479434 0.0417779
  endloop
 endfacet
 facet normal -0.903302 0.275086 -0.329201
  outer loop
   vertex -0.0411501 0.0452712 0.018789
   vertex -0.0381004 0.0384479 0.00471922
   vertex -0.0423949 0.0411835 0.018789
  endloop
 endfacet
 facet normal -0.956519 0.291292 0.0148376
  outer loop
   vertex -0.0411501 0.0441002 0.0417779
   vertex -0.0411501 0.0452712 0.018789
   vertex -0.0423949 0.0411835 0.018789
  endloop
 endfacet
 facet normal -0.969613 0.24369 0.0215862
  outer loop
   vertex -0.0423949 0.0411835 0.018789
   vertex -0.0418831 0.0411835 0.0417779
   vertex -0.0411501 0.0441002 0.0417779
  endloop
 endfacet
 facet normal -0.63352 0.519504 -0.573382
  outer loop
   vertex -0.0297397 0.0641724 0.018789
   vertex -0.0224467 0.0565233 0.00380073
   vertex -0.0381004 0.0384479 0.00471922
  endloop
 endfacet
 facet normal -0.784696 0.473708 -0.399817
  outer loop
   vertex -0.0297397 0.0641724 0.018789
   vertex -0.0381004 0.0384479 0.00471922
   vertex -0.0411501 0.0452712 0.018789
  endloop
 endfacet
 facet normal -0.0327749 -0.0223906 -0.999212
  outer loop
   vertex -0.0381004 0.0384479 0.00471922
   vertex -0.0224467 0.0565233 0.00380073
   vertex -0.0345644 0.0358474 0.00466151
  endloop
 endfacet
 facet normal -0.584741 0.594805 -0.55162
  outer loop
   vertex -0.0181612 0.0746364 0.018789
   vertex -0.0156917 0.0629591 0.00357973
   vertex -0.0224467 0.0565233 0.00380073
  endloop
 endfacet
 facet normal -0.548033 0.606406 -0.576135
  outer loop
   vertex -0.0224467 0.0565233 0.00380073
   vertex -0.0297397 0.0641724 0.018789
   vertex -0.0181612 0.0746364 0.018789
  endloop
 endfacet
 facet normal 0.0122275 0.973808 -0.227042
  outer loop
   vertex 0.00459929 0.0752945 0.0228376
   vertex 0.0045613 0.0706951 0.00310796
   vertex -0.0181612 0.0746364 0.018789
  endloop
 endfacet
 facet normal -0.294704 0.734243 -0.611586
  outer loop
   vertex -0.0181612 0.0746364 0.018789
   vertex 0.0045613 0.0706951 0.00310796
   vertex -0.0156917 0.0629591 0.00357973
  endloop
 endfacet
 facet normal -0.854812 0.516036 -0.0548061
  outer loop
   vertex -0.0312137 0.0641724 0.0417779
   vertex -0.0297397 0.0641724 0.018789
   vertex -0.0411501 0.0452712 0.018789
  endloop
 endfacet
 facet normal -0.895972 0.443536 0.0225925
  outer loop
   vertex -0.0411501 0.0452712 0.018789
   vertex -0.0411501 0.0441002 0.0417779
   vertex -0.0312137 0.0641724 0.0417779
  endloop
 endfacet
 facet normal -0.598495 0.800746 0.0246712
  outer loop
   vertex -0.0172505 0.0745829 0.0426163
   vertex -0.0181612 0.0746364 0.018789
   vertex -0.0312137 0.0641724 0.0417779
  endloop
 endfacet
 facet normal -0.669878 0.741228 -0.0429491
  outer loop
   vertex -0.0312137 0.0641724 0.0417779
   vertex -0.0181612 0.0746364 0.018789
   vertex -0.0297397 0.0641724 0.018789
  endloop
 endfacet
 facet normal 0.0645965 0.996792 0.0472513
  outer loop
   vertex -0.00220109 0.0747057 0.0445567
   vertex 0.00447163 0.0743671 0.0425776
   vertex 0.00459929 0.0752945 0.0228376
  endloop
 endfacet
 facet normal -0.0319378 0.999344 0.017095
  outer loop
   vertex -0.00220109 0.0747057 0.0445567
   vertex 0.00459929 0.0752945 0.0228376
   vertex -0.0181612 0.0746364 0.018789
  endloop
 endfacet
 facet normal -0.00848934 0.999961 0.00256979
  outer loop
   vertex -0.00220109 0.0747057 0.0445567
   vertex -0.0181612 0.0746364 0.018789
   vertex -0.0172505 0.0745829 0.0426163
  endloop
 endfacet
 facet normal -0.0169829 -0.0165059 -0.99972
  outer loop
   vertex 0.0247356 -0.00236403 0.00397152
   vertex 0.0175637 -0.0014396 0.00407809
   vertex 0.0241045 0.0125232 0.00373644
  endloop
 endfacet
 facet normal -0.0169837 -0.0165055 -0.99972
  outer loop
   vertex 0.0241045 0.0125232 0.00373644
   vertex 0.0175637 -0.0014396 0.00407809
   vertex 0.0167841 0.0103328 0.00389697
  endloop
 endfacet
 facet normal -0.0169811 -0.0165065 -0.99972
  outer loop
   vertex 0.0131048 0.0221632 0.00376413
   vertex 0.0179665 0.025988 0.00361839
   vertex 0.0154729 0.0159343 0.00382675
  endloop
 endfacet
 facet normal -0.0169831 -0.0165076 -0.999719
  outer loop
   vertex 0.0241045 0.0125232 0.00373644
   vertex 0.0167841 0.0103328 0.00389697
   vertex 0.0154729 0.0159343 0.00382675
  endloop
 endfacet
 facet normal -0.0169825 -0.0165061 -0.99972
  outer loop
   vertex 0.0241045 0.0125232 0.00373644
   vertex 0.0154729 0.0159343 0.00382675
   vertex 0.0179665 0.025988 0.00361839
  endloop
 endfacet
 facet normal -0.0169823 -0.016506 -0.99972
  outer loop
   vertex 0.0241045 0.0125232 0.00373644
   vertex 0.0179665 0.025988 0.00361839
   vertex 0.0203037 0.0275101 0.00355356
  endloop
 endfacet
 facet normal -0.0169765 -0.0165014 -0.99972
  outer loop
   vertex 0.0376606 -0.00395189 0.00377824
   vertex 0.0247356 -0.00236403 0.00397152
   vertex 0.0372694 0.016295 0.00345069
  endloop
 endfacet
 facet normal -0.0169706 -0.0165054 -0.99972
  outer loop
   vertex 0.0372694 0.016295 0.00345069
   vertex 0.0247356 -0.00236403 0.00397152
   vertex 0.0241045 0.0125232 0.00373644
  endloop
 endfacet
 facet normal -0.0169695 -0.0165091 -0.99972
  outer loop
   vertex 0.0372694 0.016295 0.00345069
   vertex 0.0241045 0.0125232 0.00373644
   vertex 0.0340973 0.0367475 0.00316679
  endloop
 endfacet
 facet normal -0.0169791 -0.0165052 -0.99972
  outer loop
   vertex 0.0340973 0.0367475 0.00316679
   vertex 0.0241045 0.0125232 0.00373644
   vertex 0.0203037 0.0275101 0.00355356
  endloop
 endfacet
 facet normal -0.0169818 -0.016506 -0.99972
  outer loop
   vertex 0.0189601 0.0303296 0.00352984
   vertex 0.0179665 0.025988 0.00361839
   vertex 0.00996337 0.0425144 0.00348148
  endloop
 endfacet
 facet normal -0.016982 -0.016506 -0.99972
  outer loop
   vertex 0.00996337 0.0425144 0.00348148
   vertex 0.0179665 0.025988 0.00361839
   vertex 0.00380131 0.037258 0.00367294
  endloop
 endfacet
 facet normal -0.0169817 -0.0165057 -0.99972
  outer loop
   vertex 0.00380131 0.037258 0.00367294
   vertex 0.0179665 0.025988 0.00361839
   vertex 0.0131048 0.0221632 0.00376413
  endloop
 endfacet
 facet normal -0.0169827 -0.0165063 -0.99972
  outer loop
   vertex 0.00380131 0.037258 0.00367294
   vertex 0.0131048 0.0221632 0.00376413
   vertex 0.00367638 0.0327211 0.00374997
  endloop
 endfacet
 facet normal -0.0169824 -0.0165059 -0.99972
  outer loop
   vertex 0.0203037 0.0275101 0.00355356
   vertex 0.0179665 0.025988 0.00361839
   vertex 0.0189601 0.0303296 0.00352984
  endloop
 endfacet
 facet normal -0.0169821 -0.0165059 -0.99972
  outer loop
   vertex 0.00996337 0.0425144 0.00348148
   vertex 0.00380131 0.037258 0.00367294
   vertex 0.00400088 0.0466459 0.00351455
  endloop
 endfacet
 facet normal -0.016982 -0.0165061 -0.99972
  outer loop
   vertex 0.0250011 0.0554151 0.00301304
   vertex 0.0189601 0.0303296 0.00352984
   vertex 0.00996337 0.0425144 0.00348148
  endloop
 endfacet
 facet normal -0.0169819 -0.0165063 -0.99972
  outer loop
   vertex 0.00996337 0.0425144 0.00348148
   vertex 0.0232312 0.0572771 0.00301236
   vertex 0.0250011 0.0554151 0.00301304
  endloop
 endfacet
 facet normal -0.0169795 -0.0165045 -0.99972
  outer loop
   vertex 0.0340973 0.0367475 0.00316679
   vertex 0.0203037 0.0275101 0.00355356
   vertex 0.0189601 0.0303296 0.00352984
  endloop
 endfacet
 facet normal -0.0169785 -0.016507 -0.99972
  outer loop
   vertex 0.0189601 0.0303296 0.00352984
   vertex 0.0250011 0.0554151 0.00301304
   vertex 0.0340973 0.0367475 0.00316679
  endloop
 endfacet
 facet normal -0.0169822 -0.016506 -0.99972
  outer loop
   vertex 0.0232312 0.0572771 0.00301236
   vertex 0.00996337 0.0425144 0.00348148
   vertex 0.0045613 0.0706951 0.00310796
  endloop
 endfacet
 facet normal -0.0169822 -0.016506 -0.99972
  outer loop
   vertex 0.0045613 0.0706951 0.00310796
   vertex 0.00996337 0.0425144 0.00348148
   vertex 0.00400088 0.0466459 0.00351455
  endloop
 endfacet
 facet normal 0.888275 0.0318201 -0.458209
  outer loop
   vertex 0.0456285 -0.004732 0.0191704
   vertex 0.0376606 -0.00395189 0.00377824
   vertex 0.0448012 0.0180561 0.0191492
  endloop
 endfacet
 facet normal 0.901097 0.0103967 -0.433492
  outer loop
   vertex 0.0448012 0.0180561 0.0191492
   vertex 0.0376606 -0.00395189 0.00377824
   vertex 0.0372694 0.016295 0.00345069
  endloop
 endfacet
 facet normal 0.894616 0.0847566 -0.438724
  outer loop
   vertex 0.0448012 0.0180561 0.0191492
   vertex 0.0372694 0.016295 0.00345069
   vertex 0.0424335 0.0411835 0.018789
  endloop
 endfacet
 facet normal 0.859802 0.126485 -0.494714
  outer loop
   vertex 0.0424335 0.0411835 0.018789
   vertex 0.0372694 0.016295 0.00345069
   vertex 0.0340973 0.0367475 0.00316679
  endloop
 endfacet
 facet normal 0.992458 0.03592 -0.117205
  outer loop
   vertex 0.0483009 -0.0047933 0.0417808
   vertex 0.0456285 -0.004732 0.0191704
   vertex 0.0448012 0.0180561 0.0191492
  endloop
 endfacet
 facet normal 0.994038 0.0672153 -0.0858531
  outer loop
   vertex 0.0448012 0.0180561 0.0191492
   vertex 0.0467808 0.0179906 0.0420179
   vertex 0.0483009 -0.0047933 0.0417808
  endloop
 endfacet
 facet normal 0.99341 0.0760187 -0.0857736
  outer loop
   vertex 0.0467808 0.0179906 0.0420179
   vertex 0.0448012 0.0180561 0.0191492
   vertex 0.0450106 0.0409693 0.0418818
  endloop
 endfacet
 facet normal 0.988995 0.0995477 -0.109449
  outer loop
   vertex 0.0450106 0.0409693 0.0418818
   vertex 0.0448012 0.0180561 0.0191492
   vertex 0.0424335 0.0411835 0.018789
  endloop
 endfacet
 facet normal -0.0169818 -0.0165062 -0.99972
  outer loop
   vertex 0.0232312 0.0572771 0.00301236
   vertex 0.0269512 0.0620527 0.00287032
   vertex 0.0250011 0.0554151 0.00301304
  endloop
 endfacet
 facet normal 0.830454 0.228566 -0.508039
  outer loop
   vertex 0.0424335 0.0411835 0.018789
   vertex 0.0340973 0.0367475 0.00316679
   vertex 0.0269512 0.0620527 0.00287032
  endloop
 endfacet
 facet normal 0.861001 0.387224 -0.329751
  outer loop
   vertex 0.0424335 0.0411835 0.018789
   vertex 0.0269512 0.0620527 0.00287032
   vertex 0.0320945 0.0641724 0.018789
  endloop
 endfacet
 facet normal -0.0169788 -0.0165071 -0.99972
  outer loop
   vertex 0.0269512 0.0620527 0.00287032
   vertex 0.0340973 0.0367475 0.00316679
   vertex 0.0250011 0.0554151 0.00301304
  endloop
 endfacet
 facet normal 0.318328 0.836937 -0.445201
  outer loop
   vertex 0.0278167 0.0701913 0.018789
   vertex 0.0269512 0.0620527 0.00287032
   vertex 0.0045613 0.0706951 0.00310796
  endloop
 endfacet
 facet normal 0.171808 0.959332 -0.223975
  outer loop
   vertex 0.0278167 0.0701913 0.018789
   vertex 0.0045613 0.0706951 0.00310796
   vertex 0.00459929 0.0752945 0.0228376
  endloop
 endfacet
 facet normal -0.0169821 -0.016506 -0.99972
  outer loop
   vertex 0.0045613 0.0706951 0.00310796
   vertex 0.0269512 0.0620527 0.00287032
   vertex 0.0232312 0.0572771 0.00301236
  endloop
 endfacet
 facet normal 0.771597 0.548402 -0.322326
  outer loop
   vertex 0.0320945 0.0641724 0.018789
   vertex 0.0269512 0.0620527 0.00287032
   vertex 0.0278167 0.0701913 0.018789
  endloop
 endfacet
 facet normal 0.927451 0.360281 -0.100162
  outer loop
   vertex 0.0450106 0.0409693 0.0418818
   vertex 0.0424335 0.0411835 0.018789
   vertex 0.0359858 0.0641724 0.0417779
  endloop
 endfacet
 facet normal 0.901334 0.405363 -0.152568
  outer loop
   vertex 0.0359858 0.0641724 0.0417779
   vertex 0.0424335 0.0411835 0.018789
   vertex 0.0320945 0.0641724 0.018789
  endloop
 endfacet
 facet normal 0.0830309 0.992911 -0.0850525
  outer loop
   vertex 0.02662 0.0723373 0.0426738
   vertex 0.0278167 0.0701913 0.018789
   vertex 0.0098322 0.0739175 0.0447325
  endloop
 endfacet
 facet normal 0.216283 0.976282 0.00970841
  outer loop
   vertex 0.0098322 0.0739175 0.0447325
   vertex 0.0278167 0.0701913 0.018789
   vertex 0.00459929 0.0752945 0.0228376
  endloop
 endfacet
 facet normal 0.0645977 0.996792 0.0472513
  outer loop
   vertex 0.0098322 0.0739175 0.0447325
   vertex 0.00459929 0.0752945 0.0228376
   vertex 0.00447163 0.0743671 0.0425776
  endloop
 endfacet
 facet normal 0.80745 0.573884 -0.136677
  outer loop
   vertex 0.0359858 0.0641724 0.0417779
   vertex 0.0320945 0.0641724 0.018789
   vertex 0.0278167 0.0701913 0.018789
  endloop
 endfacet
 facet normal 0.65482 0.754973 -0.0350266
  outer loop
   vertex 0.0278167 0.0701913 0.018789
   vertex 0.02662 0.0723373 0.0426738
   vertex 0.0359858 0.0641724 0.0417779
  endloop
 endfacet
 facet normal -0.0862094 -0.98365 0.158118
  outer loop
   vertex 0.00482775 -0.0754441 0.0417779
   vertex 0.00482775 -0.0737611 0.0522477
   vertex -0.0143751 -0.0737611 0.0417779
  endloop
 endfacet
 facet normal -0.743479 -0.643887 0.180689
  outer loop
   vertex -0.0328508 -0.0507722 0.0647668
   vertex -0.0384378 -0.0507722 0.0417779
   vertex -0.0181612 -0.0677339 0.0647668
  endloop
 endfacet
 facet normal -0.729908 -0.666407 0.152104
  outer loop
   vertex -0.0181612 -0.0677339 0.0647668
   vertex -0.0384378 -0.0507722 0.0417779
   vertex -0.0181612 -0.072981 0.0417779
  endloop
 endfacet
 facet normal -0.196946 -0.955833 0.218164
  outer loop
   vertex -0.0181612 -0.0677339 0.0647668
   vertex -0.0181612 -0.072981 0.0417779
   vertex -0.0143751 -0.0737611 0.0417779
  endloop
 endfacet
 facet normal -0.126504 -0.964449 0.232024
  outer loop
   vertex -0.0181612 -0.0677339 0.0647668
   vertex -0.0143751 -0.0737611 0.0417779
   vertex 0.00482775 -0.0737611 0.0522477
  endloop
 endfacet
 facet normal -0.0966349 -0.954509 0.282088
  outer loop
   vertex -0.0181612 -0.0677339 0.0647668
   vertex 0.00482775 -0.0737611 0.0522477
   vertex 0.00482775 -0.0700613 0.0647668
  endloop
 endfacet
 facet normal -0.558867 -0.484004 0.673355
  outer loop
   vertex -0.0181612 -0.0677339 0.0647668
   vertex -0.0181612 -0.0507722 0.0769588
   vertex -0.0328508 -0.0507722 0.0647668
  endloop
 endfacet
 facet normal -0.0581575 -0.58199 0.811114
  outer loop
   vertex 0.00482775 -0.0700613 0.0647668
   vertex 0.00482775 -0.0507722 0.0786071
   vertex -0.0181612 -0.0507722 0.0769588
  endloop
 endfacet
 facet normal -0.0589871 -0.582644 0.810584
  outer loop
   vertex -0.0181612 -0.0507722 0.0769588
   vertex -0.0181612 -0.0677339 0.0647668
   vertex 0.00482775 -0.0700613 0.0647668
  endloop
 endfacet
 facet normal -0.964779 -0.102477 0.242282
  outer loop
   vertex -0.0351065 -0.0277833 0.0647668
   vertex -0.0408797 -0.0277833 0.0417779
   vertex -0.0384378 -0.0507722 0.0417779
  endloop
 endfacet
 facet normal -0.967328 -0.0949173 0.235091
  outer loop
   vertex -0.0384378 -0.0507722 0.0417779
   vertex -0.0328508 -0.0507722 0.0647668
   vertex -0.0351065 -0.0277833 0.0647668
  endloop
 endfacet
 facet normal -0.962916 0.0244332 0.268692
  outer loop
   vertex -0.0345232 -0.00479434 0.0647668
   vertex -0.040938 -0.00479434 0.0417779
   vertex -0.0351065 -0.0277833 0.0647668
  endloop
 endfacet
 facet normal -0.969882 -0.00246249 0.243563
  outer loop
   vertex -0.0351065 -0.0277833 0.0647668
   vertex -0.040938 -0.00479434 0.0417779
   vertex -0.0408797 -0.0277833 0.0417779
  endloop
 endfacet
 facet normal -0.637501 -0.060153 0.768098
  outer loop
   vertex -0.0328508 -0.0507722 0.0647668
   vertex -0.0181612 -0.0507722 0.0769588
   vertex -0.0181612 -0.0277833 0.0787591
  endloop
 endfacet
 facet normal -0.63548 -0.0623554 0.769595
  outer loop
   vertex -0.0181612 -0.0277833 0.0787591
   vertex -0.0351065 -0.0277833 0.0647668
   vertex -0.0328508 -0.0507722 0.0647668
  endloop
 endfacet
 facet normal -0.0712999 -0.0778764 0.99441
  outer loop
   vertex -0.0181612 -0.0277833 0.0787591
   vertex -0.0181612 -0.0507722 0.0769588
   vertex 0.00482775 -0.0507722 0.0786071
  endloop
 endfacet
 facet normal -0.013934 -0.0205455 0.999692
  outer loop
   vertex 0.00482775 -0.0507722 0.0786071
   vertex 0.00464901 -0.0255307 0.0791234
   vertex -0.0181612 -0.0277833 0.0787591
  endloop
 endfacet
 facet normal -0.63636 0.0335847 0.770661
  outer loop
   vertex -0.0351065 -0.0277833 0.0647668
   vertex -0.0181612 -0.0277833 0.0787591
   vertex -0.0181612 -0.00479434 0.0777573
  endloop
 endfacet
 facet normal -0.621721 0.0157757 0.78308
  outer loop
   vertex -0.0181612 -0.00479434 0.0777573
   vertex -0.0345232 -0.00479434 0.0647668
   vertex -0.0351065 -0.0277833 0.0647668
  endloop
 endfacet
 facet normal -0.0202479 0.0435288 0.998847
  outer loop
   vertex -0.0181612 -0.00479434 0.0777573
   vertex -0.0181612 -0.0277833 0.0787591
   vertex 0.00464901 -0.0255307 0.0791234
  endloop
 endfacet
 facet normal -0.05692 0.00315813 0.998374
  outer loop
   vertex 0.00464901 -0.0255307 0.0791234
   vertex 0.00475459 -0.00458246 0.0790631
   vertex -0.0181612 -0.00479434 0.0777573
  endloop
 endfacet
 facet normal 0.102797 -0.982095 0.157868
  outer loop
   vertex 0.0209066 -0.0737611 0.0417779
   vertex 0.00482775 -0.0737611 0.0522477
   vertex 0.00482775 -0.0754441 0.0417779
  endloop
 endfacet
 facet normal 0.172654 -0.944596 0.279158
  outer loop
   vertex 0.00482775 -0.0700613 0.0647668
   vertex 0.00482775 -0.0737611 0.0522477
   vertex 0.0278167 -0.0658593 0.0647668
  endloop
 endfacet
 facet normal 0.177052 -0.945897 0.271904
  outer loop
   vertex 0.0278167 -0.0658593 0.0647668
   vertex 0.00482775 -0.0737611 0.0522477
   vertex 0.0209066 -0.0737611 0.0417779
  endloop
 endfacet
 facet normal 0.191995 -0.944406 0.2669
  outer loop
   vertex 0.0278167 -0.0658593 0.0647668
   vertex 0.0209066 -0.0737611 0.0417779
   vertex 0.0278167 -0.0723563 0.0417779
  endloop
 endfacet
 facet normal 0.707601 -0.679979 0.19217
  outer loop
   vertex 0.0278167 -0.0658593 0.0647668
   vertex 0.0278167 -0.0723563 0.0417779
   vertex 0.0485582 -0.0507722 0.0417779
  endloop
 endfacet
 facet normal 0.703521 -0.686361 0.184301
  outer loop
   vertex 0.0485582 -0.0507722 0.0417779
   vertex 0.0425358 -0.0507722 0.0647668
   vertex 0.0278167 -0.0658593 0.0647668
  endloop
 endfacet
 facet normal 0.138985 -0.546075 0.826127
  outer loop
   vertex 0.0278167 -0.0658593 0.0647668
   vertex 0.0278167 -0.0507722 0.0747395
   vertex 0.00482775 -0.0507722 0.0786071
  endloop
 endfacet
 facet normal 0.105957 -0.579695 0.807915
  outer loop
   vertex 0.00482775 -0.0507722 0.0786071
   vertex 0.00482775 -0.0700613 0.0647668
   vertex 0.0278167 -0.0658593 0.0647668
  endloop
 endfacet
 facet normal 0.492055 -0.480053 0.726245
  outer loop
   vertex 0.0425358 -0.0507722 0.0647668
   vertex 0.0278167 -0.0507722 0.0747395
   vertex 0.0278167 -0.0658593 0.0647668
  endloop
 endfacet
 facet normal 0.963437 -0.089934 0.252391
  outer loop
   vertex 0.0425358 -0.0507722 0.0647668
   vertex 0.0485582 -0.0507722 0.0417779
   vertex 0.0446818 -0.0277833 0.0647668
  endloop
 endfacet
 facet normal 0.975498 -0.0498054 0.214296
  outer loop
   vertex 0.0446818 -0.0277833 0.0647668
   vertex 0.0485582 -0.0507722 0.0417779
   vertex 0.0496879 -0.0272864 0.0420939
  endloop
 endfacet
 facet normal 0.974244 0.0630877 0.216493
  outer loop
   vertex 0.0446818 -0.0277833 0.0647668
   vertex 0.0496879 -0.0272864 0.0420939
   vertex 0.0483009 -0.0047933 0.0417808
  endloop
 endfacet
 facet normal 0.95584 0.118445 0.268962
  outer loop
   vertex 0.0483009 -0.0047933 0.0417808
   vertex 0.0418331 -0.00479434 0.0647668
   vertex 0.0446818 -0.0277833 0.0647668
  endloop
 endfacet
 facet normal 0.140748 -0.019249 0.989858
  outer loop
   vertex 0.00464901 -0.0255307 0.0791234
   vertex 0.00482775 -0.0507722 0.0786071
   vertex 0.0267732 -0.026555 0.0759576
  endloop
 endfacet
 facet normal 0.165756 -0.0424155 0.985254
  outer loop
   vertex 0.0267732 -0.026555 0.0759576
   vertex 0.00482775 -0.0507722 0.0786071
   vertex 0.0278167 -0.0507722 0.0747395
  endloop
 endfacet
 facet normal 0.526861 -0.0491809 0.848527
  outer loop
   vertex 0.0446818 -0.0277833 0.0647668
   vertex 0.0267732 -0.026555 0.0759576
   vertex 0.0425358 -0.0507722 0.0647668
  endloop
 endfacet
 facet normal 0.560827 -0.0174708 0.827749
  outer loop
   vertex 0.0425358 -0.0507722 0.0647668
   vertex 0.0267732 -0.026555 0.0759576
   vertex 0.0278167 -0.0507722 0.0747395
  endloop
 endfacet
 facet normal 0.141744 0.00213244 0.989901
  outer loop
   vertex 0.00475459 -0.00458246 0.0790631
   vertex 0.00464901 -0.0255307 0.0791234
   vertex 0.0267732 -0.026555 0.0759576
  endloop
 endfacet
 facet normal 0.171353 0.032543 0.984672
  outer loop
   vertex 0.0267732 -0.026555 0.0759576
   vertex 0.0278167 -0.00479434 0.0750568
   vertex 0.00475459 -0.00458246 0.0790631
  endloop
 endfacet
 facet normal 0.591782 0.0049905 0.806083
  outer loop
   vertex 0.0418331 -0.00479434 0.0647668
   vertex 0.0278167 -0.00479434 0.0750568
   vertex 0.0267732 -0.026555 0.0759576
  endloop
 endfacet
 facet normal 0.532025 0.0659273 0.844158
  outer loop
   vertex 0.0267732 -0.026555 0.0759576
   vertex 0.0446818 -0.0277833 0.0647668
   vertex 0.0418331 -0.00479434 0.0647668
  endloop
 endfacet
 facet normal -0.981282 -0.0579196 0.183659
  outer loop
   vertex -0.0411501 -0.00241461 0.0417779
   vertex -0.0409003 0.0181022 0.0495828
   vertex -0.0423354 0.018083 0.0419092
  endloop
 endfacet
 facet normal -0.982829 0.0166842 0.183762
  outer loop
   vertex -0.0423354 0.018083 0.0419092
   vertex -0.0409003 0.0181022 0.0495828
   vertex -0.0410538 0.0410971 0.0466739
  endloop
 endfacet
 facet normal -0.985695 0.0202478 0.16732
  outer loop
   vertex -0.0410538 0.0410971 0.0466739
   vertex -0.0418831 0.0411835 0.0417779
   vertex -0.0423354 0.018083 0.0419092
  endloop
 endfacet
 facet normal -0.950609 -0.0632403 0.303881
  outer loop
   vertex -0.0360526 0.0181946 0.0647668
   vertex -0.0409003 0.0181022 0.0495828
   vertex -0.0345232 -0.00479434 0.0647668
  endloop
 endfacet
 facet normal -0.959416 -0.0899852 0.26725
  outer loop
   vertex -0.0345232 -0.00479434 0.0647668
   vertex -0.0409003 0.0181022 0.0495828
   vertex -0.0411501 -0.00241461 0.0417779
  endloop
 endfacet
 facet normal -0.959676 -0.0855124 0.267788
  outer loop
   vertex -0.0345232 -0.00479434 0.0647668
   vertex -0.0411501 -0.00241461 0.0417779
   vertex -0.040938 -0.00479434 0.0417779
  endloop
 endfacet
 facet normal -0.958599 0.0294293 0.283234
  outer loop
   vertex -0.0357053 0.0411835 0.0647668
   vertex -0.0410538 0.0410971 0.0466739
   vertex -0.0409003 0.0181022 0.0495828
  endloop
 endfacet
 facet normal -0.952554 0.0143885 0.304029
  outer loop
   vertex -0.0409003 0.0181022 0.0495828
   vertex -0.0360526 0.0181946 0.0647668
   vertex -0.0357053 0.0411835 0.0647668
  endloop
 endfacet
 facet normal -0.621713 -0.0165521 0.78307
  outer loop
   vertex -0.0345232 -0.00479434 0.0647668
   vertex -0.0181612 -0.00479434 0.0777573
   vertex -0.0181612 0.0181946 0.0782432
  endloop
 endfacet
 facet normal -0.601172 -0.0399936 0.798119
  outer loop
   vertex -0.0181612 0.0181946 0.0782432
   vertex -0.0360526 0.0181946 0.0647668
   vertex -0.0345232 -0.00479434 0.0647668
  endloop
 endfacet
 facet normal -0.0566841 -0.0210988 0.998169
  outer loop
   vertex -0.0181612 0.0181946 0.0782432
   vertex -0.0181612 -0.00479434 0.0777573
   vertex 0.00475459 -0.00458246 0.0790631
  endloop
 endfacet
 facet normal -0.0305947 0.00519807 0.999518
  outer loop
   vertex 0.00475459 -0.00458246 0.0790631
   vertex 0.00472075 0.0174659 0.0789474
   vertex -0.0181612 0.0181946 0.0782432
  endloop
 endfacet
 facet normal -0.60134 0.0322388 0.798342
  outer loop
   vertex -0.0360526 0.0181946 0.0647668
   vertex -0.0181612 0.0181946 0.0782432
   vertex -0.0181612 0.0411835 0.0773149
  endloop
 endfacet
 facet normal -0.581724 0.00878708 0.813339
  outer loop
   vertex -0.0181612 0.0411835 0.0773149
   vertex -0.0357053 0.0411835 0.0647668
   vertex -0.0360526 0.0181946 0.0647668
  endloop
 endfacet
 facet normal -0.0159489 0.0403442 0.999059
  outer loop
   vertex -0.0181612 0.0411835 0.0773149
   vertex -0.0181612 0.0181946 0.0782432
   vertex 0.0047446 0.0398102 0.077736
  endloop
 endfacet
 facet normal -0.0289928 0.0541444 0.998112
  outer loop
   vertex 0.0047446 0.0398102 0.077736
   vertex -0.0181612 0.0181946 0.0782432
   vertex 0.00472075 0.0174659 0.0789474
  endloop
 endfacet
 facet normal -0.956345 0.240355 0.166231
  outer loop
   vertex -0.0418831 0.0411835 0.0417779
   vertex -0.0410538 0.0410971 0.0466739
   vertex -0.0411501 0.0441002 0.0417779
  endloop
 endfacet
 facet normal -0.811189 0.485086 0.326594
  outer loop
   vertex -0.0219581 0.0641724 0.0647668
   vertex -0.0312137 0.0641724 0.0417779
   vertex -0.0357053 0.0411835 0.0647668
  endloop
 endfacet
 facet normal -0.868808 0.424555 0.254805
  outer loop
   vertex -0.0357053 0.0411835 0.0647668
   vertex -0.0312137 0.0641724 0.0417779
   vertex -0.0410538 0.0410971 0.0466739
  endloop
 endfacet
 facet normal -0.860796 0.426123 0.278297
  outer loop
   vertex -0.0410538 0.0410971 0.0466739
   vertex -0.0312137 0.0641724 0.0417779
   vertex -0.0411501 0.0441002 0.0417779
  endloop
 endfacet
 facet normal -0.589227 0.770792 0.242263
  outer loop
   vertex -0.0181612 0.0669248 0.0647668
   vertex -0.0172505 0.0745829 0.0426163
   vertex -0.0312137 0.0641724 0.0417779
  endloop
 endfacet
 facet normal -0.571187 0.787947 0.229966
  outer loop
   vertex -0.0312137 0.0641724 0.0417779
   vertex -0.0219581 0.0641724 0.0647668
   vertex -0.0181612 0.0669248 0.0647668
  endloop
 endfacet
 facet normal 0.0335676 0.992021 0.121521
  outer loop
   vertex 0.00482775 0.0719921 0.0647668
   vertex 0.00446541 0.0741434 0.0473057
   vertex -0.00220109 0.0747057 0.0445567
  endloop
 endfacet
 facet normal -0.0263861 0.98951 0.142035
  outer loop
   vertex 0.00482775 0.0719921 0.0647668
   vertex -0.00220109 0.0747057 0.0445567
   vertex -0.0172505 0.0745829 0.0426163
  endloop
 endfacet
 facet normal -0.20449 0.927704 0.312329
  outer loop
   vertex 0.00482775 0.0719921 0.0647668
   vertex -0.0172505 0.0745829 0.0426163
   vertex -0.0181612 0.0669248 0.0647668
  endloop
 endfacet
 facet normal -0.549449 0.328567 0.768212
  outer loop
   vertex -0.0357053 0.0411835 0.0647668
   vertex -0.0181612 0.0411835 0.0773149
   vertex -0.0219581 0.0641724 0.0647668
  endloop
 endfacet
 facet normal -0.494934 0.351909 0.794481
  outer loop
   vertex -0.0219581 0.0641724 0.0647668
   vertex -0.0181612 0.0411835 0.0773149
   vertex -0.0181612 0.0641724 0.0671321
  endloop
 endfacet
 facet normal -0.103379 0.402821 0.909422
  outer loop
   vertex -0.0181612 0.0641724 0.0671321
   vertex -0.0181612 0.0411835 0.0773149
   vertex 0.00482775 0.0641724 0.0697454
  endloop
 endfacet
 facet normal 0.00121558 0.311652 0.950195
  outer loop
   vertex 0.00482775 0.0641724 0.0697454
   vertex -0.0181612 0.0411835 0.0773149
   vertex 0.0047446 0.0398102 0.077736
  endloop
 endfacet
 facet normal -0.427189 0.589303 0.685734
  outer loop
   vertex -0.0219581 0.0641724 0.0647668
   vertex -0.0181612 0.0641724 0.0671321
   vertex -0.0181612 0.0669248 0.0647668
  endloop
 endfacet
 facet normal -0.0858949 0.649358 0.755617
  outer loop
   vertex -0.0181612 0.0669248 0.0647668
   vertex -0.0181612 0.0641724 0.0671321
   vertex 0.00482775 0.0641724 0.0697454
  endloop
 endfacet
 facet normal -0.117561 0.533336 0.837694
  outer loop
   vertex 0.00482775 0.0641724 0.0697454
   vertex 0.00482775 0.0719921 0.0647668
   vertex -0.0181612 0.0669248 0.0647668
  endloop
 endfacet
 facet normal 0.960807 0.0612909 0.270357
  outer loop
   vertex 0.0418331 -0.00479434 0.0647668
   vertex 0.0483009 -0.0047933 0.0417808
   vertex 0.0467808 0.0179906 0.0420179
  endloop
 endfacet
 facet normal 0.97137 0.024951 0.236257
  outer loop
   vertex 0.0467808 0.0179906 0.0420179
   vertex 0.0412425 0.0181946 0.0647668
   vertex 0.0418331 -0.00479434 0.0647668
  endloop
 endfacet
 facet normal 0.968965 0.0760363 0.235214
  outer loop
   vertex 0.0412425 0.0181946 0.0647668
   vertex 0.0467808 0.0179906 0.0420179
   vertex 0.0450106 0.0409693 0.0418818
  endloop
 endfacet
 facet normal 0.968252 0.0783358 0.237385
  outer loop
   vertex 0.0450106 0.0409693 0.0418818
   vertex 0.0393826 0.0411835 0.0647668
   vertex 0.0412425 0.0181946 0.0647668
  endloop
 endfacet
 facet normal 0.171199 0.00543275 0.985221
  outer loop
   vertex 0.00472075 0.0174659 0.0789474
   vertex 0.00475459 -0.00458246 0.0790631
   vertex 0.0278167 -0.00479434 0.0750568
  endloop
 endfacet
 facet normal 0.165294 -0.000872607 0.986244
  outer loop
   vertex 0.0278167 -0.00479434 0.0750568
   vertex 0.0278167 0.0181946 0.0750772
   vertex 0.00472075 0.0174659 0.0789474
  endloop
 endfacet
 facet normal 0.609072 -0.00070173 0.793114
  outer loop
   vertex 0.0412425 0.0181946 0.0647668
   vertex 0.0278167 0.0181946 0.0750772
   vertex 0.0278167 -0.00479434 0.0750568
  endloop
 endfacet
 facet normal 0.591721 0.0151992 0.806
  outer loop
   vertex 0.0278167 -0.00479434 0.0750568
   vertex 0.0418331 -0.00479434 0.0647668
   vertex 0.0412425 0.0181946 0.0647668
  endloop
 endfacet
 facet normal 0.163399 0.0532349 0.985123
  outer loop
   vertex 0.0047446 0.0398102 0.077736
   vertex 0.00472075 0.0174659 0.0789474
   vertex 0.0278167 0.0181946 0.0750772
  endloop
 endfacet
 facet normal 0.167098 0.0572869 0.984275
  outer loop
   vertex 0.0278167 0.0181946 0.0750772
   vertex 0.0278167 0.0411835 0.0737392
   vertex 0.0047446 0.0398102 0.077736
  endloop
 endfacet
 facet normal 0.612299 0.0459384 0.789291
  outer loop
   vertex 0.0393826 0.0411835 0.0647668
   vertex 0.0278167 0.0411835 0.0737392
   vertex 0.0278167 0.0181946 0.0750772
  endloop
 endfacet
 facet normal 0.608334 0.0492169 0.792153
  outer loop
   vertex 0.0278167 0.0181946 0.0750772
   vertex 0.0412425 0.0181946 0.0647668
   vertex 0.0393826 0.0411835 0.0647668
  endloop
 endfacet
 facet normal 0.458685 0.667406 0.586666
  outer loop
   vertex 0.0278167 0.0628322 0.0647668
   vertex 0.0278167 0.0641724 0.0632421
   vertex 0.0258666 0.0641724 0.0647668
  endloop
 endfacet
 facet normal 0.908782 0.354455 0.220175
  outer loop
   vertex 0.0393826 0.0411835 0.0647668
   vertex 0.0450106 0.0409693 0.0418818
   vertex 0.0359858 0.0641724 0.0417779
  endloop
 endfacet
 facet normal 0.837999 0.44276 0.318938
  outer loop
   vertex 0.0393826 0.0411835 0.0647668
   vertex 0.0359858 0.0641724 0.0417779
   vertex 0.0278167 0.0641724 0.0632421
  endloop
 endfacet
 facet normal 0.814874 0.435353 0.382686
  outer loop
   vertex 0.0393826 0.0411835 0.0647668
   vertex 0.0278167 0.0641724 0.0632421
   vertex 0.0278167 0.0628322 0.0647668
  endloop
 endfacet
 facet normal 0.267424 0.900829 0.34204
  outer loop
   vertex 0.0258666 0.0641724 0.0647668
   vertex 0.0278167 0.0641724 0.0632421
   vertex 0.02662 0.0723373 0.0426738
  endloop
 endfacet
 facet normal 0.327978 0.882416 0.3373
  outer loop
   vertex 0.0258666 0.0641724 0.0647668
   vertex 0.02662 0.0723373 0.0426738
   vertex 0.00482775 0.0719921 0.0647668
  endloop
 endfacet
 facet normal 0.107806 0.986688 0.121755
  outer loop
   vertex 0.00482775 0.0719921 0.0647668
   vertex 0.02662 0.0723373 0.0426738
   vertex 0.0098322 0.0739175 0.0447325
  endloop
 endfacet
 facet normal 0.0989371 0.987874 0.119654
  outer loop
   vertex 0.00482775 0.0719921 0.0647668
   vertex 0.0098322 0.0739175 0.0447325
   vertex 0.00446541 0.0741434 0.0473057
  endloop
 endfacet
 facet normal 0.650039 0.7185 0.247401
  outer loop
   vertex 0.02662 0.0723373 0.0426738
   vertex 0.0278167 0.0641724 0.0632421
   vertex 0.0359858 0.0641724 0.0417779
  endloop
 endfacet
 facet normal 0.213858 0.37086 0.90373
  outer loop
   vertex 0.0258666 0.0641724 0.0647668
   vertex 0.00482775 0.0641724 0.0697454
   vertex 0.0278167 0.0411835 0.0737392
  endloop
 endfacet
 facet normal 0.254473 0.370269 0.893389
  outer loop
   vertex 0.0258666 0.0641724 0.0647668
   vertex 0.0278167 0.0411835 0.0737392
   vertex 0.0278167 0.0628322 0.0647668
  endloop
 endfacet
 facet normal 0.144571 0.307937 0.940359
  outer loop
   vertex 0.0278167 0.0411835 0.0737392
   vertex 0.00482775 0.0641724 0.0697454
   vertex 0.0047446 0.0398102 0.077736
  endloop
 endfacet
 facet normal 0.582508 0.311209 0.750888
  outer loop
   vertex 0.0278167 0.0628322 0.0647668
   vertex 0.0278167 0.0411835 0.0737392
   vertex 0.0393826 0.0411835 0.0647668
  endloop
 endfacet
 facet normal 0.195754 0.52667 0.827224
  outer loop
   vertex 0.00482775 0.0719921 0.0647668
   vertex 0.00482775 0.0641724 0.0697454
   vertex 0.0258666 0.0641724 0.0647668
  endloop
 endfacet
endsolid
