solid ascii
 facet normal -0.344495 -0.93869 -0.0136127
  outer loop
   vertex -0.0175807 -0.0241224 0.033173
   vertex -0.0173797 -0.0238683 0.0105647
   vertex 0.00438667 -0.0318393 0.00937882
  endloop
 endfacet
 facet normal -0.345764 -0.938202 -0.014943
  outer loop
   vertex 0.00438667 -0.0318393 0.00937882
   vertex 0.00440427 -0.032206 0.0319989
   vertex -0.0175807 -0.0241224 0.033173
  endloop
 endfacet
 facet normal -0.895716 -0.434413 -0.0947534
  outer loop
   vertex -0.0301068 -0.000401144 0.0267538
   vertex -0.0281016 -0.000366556 0.00763962
   vertex -0.0198101 -0.0226668 0.0314981
  endloop
 endfacet
 facet normal -0.926506 -0.375184 -0.0286929
  outer loop
   vertex -0.0198101 -0.0226668 0.0314981
   vertex -0.0281016 -0.000366556 0.00763962
   vertex -0.0193368 -0.022162 0.00961664
  endloop
 endfacet
 facet normal -0.648091 -0.760908 -0.0315686
  outer loop
   vertex -0.0198101 -0.0226668 0.0314981
   vertex -0.0193368 -0.022162 0.00961664
   vertex -0.0173797 -0.0238683 0.0105647
  endloop
 endfacet
 facet normal -0.539125 -0.842105 -0.0142571
  outer loop
   vertex -0.0173797 -0.0238683 0.0105647
   vertex -0.0175807 -0.0241224 0.033173
   vertex -0.0198101 -0.0226668 0.0314981
  endloop
 endfacet
 facet normal -0.344433 -0.938714 0.0135093
  outer loop
   vertex -0.0172281 -0.0239015 0.0575134
   vertex -0.0175807 -0.0241224 0.033173
   vertex 0.00440427 -0.032206 0.0319989
  endloop
 endfacet
 facet normal -0.360649 -0.932699 -0.00219759
  outer loop
   vertex 0.00440427 -0.032206 0.0319989
   vertex 0.00441916 -0.0322669 0.0553757
   vertex -0.0172281 -0.0239015 0.0575134
  endloop
 endfacet
 facet normal -0.90779 -0.419267 0.0115308
  outer loop
   vertex -0.0297739 -0.000391168 0.0533244
   vertex -0.0301068 -0.000401144 0.0267538
   vertex -0.0195969 -0.0223438 0.0563229
  endloop
 endfacet
 facet normal -0.908637 -0.417378 0.0132339
  outer loop
   vertex -0.0195969 -0.0223438 0.0563229
   vertex -0.0301068 -0.000401144 0.0267538
   vertex -0.0198101 -0.0226668 0.0314981
  endloop
 endfacet
 facet normal -0.554829 -0.831818 0.0155865
  outer loop
   vertex -0.0195969 -0.0223438 0.0563229
   vertex -0.0198101 -0.0226668 0.0314981
   vertex -0.0175807 -0.0241224 0.033173
  endloop
 endfacet
 facet normal -0.554829 -0.831818 0.0155865
  outer loop
   vertex -0.0175807 -0.0241224 0.033173
   vertex -0.0172281 -0.0239015 0.0575134
   vertex -0.0195969 -0.0223438 0.0563229
  endloop
 endfacet
 facet normal -0.359584 -0.933059 0.00999573
  outer loop
   vertex -0.0165573 -0.0239078 0.0810531
   vertex -0.0172281 -0.0239015 0.0575134
   vertex 0.00441916 -0.0322669 0.0553757
  endloop
 endfacet
 facet normal -0.351862 -0.935893 0.0172268
  outer loop
   vertex 0.00441916 -0.0322669 0.0553757
   vertex 0.00442859 -0.0318274 0.0794464
   vertex -0.0165573 -0.0239078 0.0810531
  endloop
 endfacet
 facet normal -0.91081 -0.412657 0.0118513
  outer loop
   vertex -0.0294476 -0.000392529 0.0783543
   vertex -0.0297739 -0.000391168 0.0533244
   vertex -0.0197179 -0.0218175 0.0801051
  endloop
 endfacet
 facet normal -0.907484 -0.420061 0.00467833
  outer loop
   vertex -0.0197179 -0.0218175 0.0801051
   vertex -0.0297739 -0.000391168 0.0533244
   vertex -0.0195969 -0.0223438 0.0563229
  endloop
 endfacet
 facet normal -0.554829 -0.831818 0.0155866
  outer loop
   vertex -0.0197179 -0.0218175 0.0801051
   vertex -0.0195969 -0.0223438 0.0563229
   vertex -0.0172281 -0.0239015 0.0575134
  endloop
 endfacet
 facet normal -0.554829 -0.831818 0.0155866
  outer loop
   vertex -0.0172281 -0.0239015 0.0575134
   vertex -0.0165573 -0.0239078 0.0810531
   vertex -0.0197179 -0.0218175 0.0801051
  endloop
 endfacet
 facet normal -0.352409 -0.935797 0.00961318
  outer loop
   vertex -0.015871 -0.0239244 0.104598
   vertex -0.0165573 -0.0239078 0.0810531
   vertex 0.00442859 -0.0318274 0.0794464
  endloop
 endfacet
 facet normal -0.343984 -0.938815 0.0173607
  outer loop
   vertex 0.00442859 -0.0318274 0.0794464
   vertex 0.00444341 -0.0313826 0.103789
   vertex -0.015871 -0.0239244 0.104598
  endloop
 endfacet
 facet normal -0.906899 -0.421144 0.0131105
  outer loop
   vertex -0.0290837 -0.000391628 0.103552
   vertex -0.0294476 -0.000392529 0.0783543
   vertex -0.0194913 -0.0210222 0.10439
  endloop
 endfacet
 facet normal -0.910964 -0.411898 0.0219909
  outer loop
   vertex -0.0194913 -0.0210222 0.10439
   vertex -0.0294476 -0.000392529 0.0783543
   vertex -0.0197179 -0.0218175 0.0801051
  endloop
 endfacet
 facet normal -0.558093 -0.829147 0.0323611
  outer loop
   vertex -0.0194913 -0.0210222 0.10439
   vertex -0.0197179 -0.0218175 0.0801051
   vertex -0.0165573 -0.0239078 0.0810531
  endloop
 endfacet
 facet normal -0.626009 -0.779615 0.0176981
  outer loop
   vertex -0.0165573 -0.0239078 0.0810531
   vertex -0.015871 -0.0239244 0.104598
   vertex -0.0194913 -0.0210222 0.10439
  endloop
 endfacet
 facet normal 0.349781 -0.936704 -0.0154599
  outer loop
   vertex 0.00440427 -0.032206 0.0319989
   vertex 0.00438667 -0.0318393 0.00937882
   vertex 0.0235974 -0.0246281 0.00710492
  endloop
 endfacet
 facet normal 0.167642 -0.97168 -0.166536
  outer loop
   vertex 0.0235974 -0.0246281 0.00710492
   vertex 0.0258845 -0.0269608 0.0230174
   vertex 0.00440427 -0.032206 0.0319989
  endloop
 endfacet
 facet normal 0.70312 -0.682058 -0.201046
  outer loop
   vertex 0.0258845 -0.0269608 0.0230174
   vertex 0.0235974 -0.0246281 0.00710492
   vertex 0.0310755 -0.0216095 0.0230174
  endloop
 endfacet
 facet normal 0.716909 -0.664516 -0.210853
  outer loop
   vertex 0.0310755 -0.0216095 0.0230174
   vertex 0.0235974 -0.0246281 0.00710492
   vertex 0.0287113 -0.0190567 0.00693395
  endloop
 endfacet
 facet normal 0.943534 -0.276428 -0.182567
  outer loop
   vertex 0.0310755 -0.0216095 0.0230174
   vertex 0.0287113 -0.0190567 0.00693395
   vertex 0.0372814 -0.000426836 0.0230174
  endloop
 endfacet
 facet normal 0.944301 -0.25762 -0.204762
  outer loop
   vertex 0.0372814 -0.000426836 0.0230174
   vertex 0.0287113 -0.0190567 0.00693395
   vertex 0.0338234 -0.000370018 0.00699892
  endloop
 endfacet
 facet normal 0.242098 -0.970248 -0.00267927
  outer loop
   vertex 0.00441916 -0.0322669 0.0553757
   vertex 0.00440427 -0.032206 0.0319989
   vertex 0.0256198 -0.0269608 0.0495513
  endloop
 endfacet
 facet normal 0.238157 -0.971224 0.00237587
  outer loop
   vertex 0.0256198 -0.0269608 0.0495513
   vertex 0.00440427 -0.032206 0.0319989
   vertex 0.0258845 -0.0269608 0.0230174
  endloop
 endfacet
 facet normal 0.717757 -0.696256 0.0071604
  outer loop
   vertex 0.0256198 -0.0269608 0.0495513
   vertex 0.0258845 -0.0269608 0.0230174
   vertex 0.0310755 -0.0216095 0.0230174
  endloop
 endfacet
 facet normal 0.705961 -0.708247 0.00231686
  outer loop
   vertex 0.0310755 -0.0216095 0.0230174
   vertex 0.0310755 -0.0215227 0.0495513
   vertex 0.0256198 -0.0269608 0.0495513
  endloop
 endfacet
 facet normal 0.959662 -0.281153 0.000919724
  outer loop
   vertex 0.0310755 -0.0215227 0.0495513
   vertex 0.0310755 -0.0216095 0.0230174
   vertex 0.0372814 -0.000426836 0.0230174
  endloop
 endfacet
 facet normal 0.959581 -0.281432 0.000679002
  outer loop
   vertex 0.0372814 -0.000426836 0.0230174
   vertex 0.0372626 -0.000426836 0.0495513
   vertex 0.0310755 -0.0215227 0.0495513
  endloop
 endfacet
 facet normal 0.23805 -0.971093 0.0176386
  outer loop
   vertex 0.00442859 -0.0318274 0.0794464
   vertex 0.00441916 -0.0322669 0.0553757
   vertex 0.0245303 -0.0269608 0.0760852
  endloop
 endfacet
 facet normal 0.245383 -0.969374 0.0100763
  outer loop
   vertex 0.0245303 -0.0269608 0.0760852
   vertex 0.00441916 -0.0322669 0.0553757
   vertex 0.0256198 -0.0269608 0.0495513
  endloop
 endfacet
 facet normal 0.705667 -0.707951 0.0289771
  outer loop
   vertex 0.0245303 -0.0269608 0.0760852
   vertex 0.0256198 -0.0269608 0.0495513
   vertex 0.0310755 -0.0215227 0.0495513
  endloop
 endfacet
 facet normal 0.699628 -0.714026 0.0262425
  outer loop
   vertex 0.0310755 -0.0215227 0.0495513
   vertex 0.0310755 -0.0205475 0.0760852
   vertex 0.0245303 -0.0269608 0.0760852
  endloop
 endfacet
 facet normal 0.95953 -0.281417 0.0103429
  outer loop
   vertex 0.0310755 -0.0205475 0.0760852
   vertex 0.0310755 -0.0215227 0.0495513
   vertex 0.0372626 -0.000426836 0.0495513
  endloop
 endfacet
 facet normal 0.961213 -0.275382 0.0153116
  outer loop
   vertex 0.0372626 -0.000426836 0.0495513
   vertex 0.0368399 -0.000426836 0.0760852
   vertex 0.0310755 -0.0205475 0.0760852
  endloop
 endfacet
 facet normal 0.229801 -0.973078 0.0176373
  outer loop
   vertex 0.00444341 -0.0313826 0.103789
   vertex 0.00442859 -0.0318274 0.0794464
   vertex 0.0232573 -0.0269608 0.102619
  endloop
 endfacet
 facet normal 0.237082 -0.971423 0.0113737
  outer loop
   vertex 0.0232573 -0.0269608 0.102619
   vertex 0.00442859 -0.0318274 0.0794464
   vertex 0.0245303 -0.0269608 0.0760852
  endloop
 endfacet
 facet normal 0.685764 -0.72708 0.0328986
  outer loop
   vertex 0.0232573 -0.0269608 0.102619
   vertex 0.0245303 -0.0269608 0.0760852
   vertex 0.0310755 -0.0195869 0.102619
  endloop
 endfacet
 facet normal 0.699635 -0.714033 0.025851
  outer loop
   vertex 0.0310755 -0.0195869 0.102619
   vertex 0.0245303 -0.0269608 0.0760852
   vertex 0.0310755 -0.0205475 0.0760852
  endloop
 endfacet
 facet normal 0.961278 -0.275401 0.00997068
  outer loop
   vertex 0.0310755 -0.0195869 0.102619
   vertex 0.0310755 -0.0205475 0.0760852
   vertex 0.0368399 -0.000426836 0.0760852
  endloop
 endfacet
 facet normal 0.96036 -0.278663 0.00741576
  outer loop
   vertex 0.0368399 -0.000426836 0.0760852
   vertex 0.036635 -0.000426836 0.102619
   vertex 0.0310755 -0.0195869 0.102619
  endloop
 endfacet
 facet normal -0.918412 0.385077 -0.0907418
  outer loop
   vertex -0.0208618 0.0218031 0.027411
   vertex -0.0196028 0.0203026 0.00830112
   vertex -0.0301068 -0.000401144 0.0267538
  endloop
 endfacet
 facet normal -0.919535 0.38116 -0.0957763
  outer loop
   vertex -0.0301068 -0.000401144 0.0267538
   vertex -0.0196028 0.0203026 0.00830112
   vertex -0.0281016 -0.000366556 0.00763962
  endloop
 endfacet
 facet normal -0.623193 0.773061 -0.118348
  outer loop
   vertex -0.0175085 0.0249249 0.0274662
   vertex -0.0158698 0.0234505 0.00920607
   vertex -0.0196028 0.0203026 0.00830112
  endloop
 endfacet
 facet normal -0.676947 0.728953 -0.101835
  outer loop
   vertex -0.0196028 0.0203026 0.00830112
   vertex -0.0208618 0.0218031 0.027411
   vertex -0.0175085 0.0249249 0.0274662
  endloop
 endfacet
 facet normal -0.274342 0.959574 -0.0628815
  outer loop
   vertex 0.00444047 0.0305956 0.0296303
   vertex 0.00438924 0.0292399 0.00916487
   vertex -0.0158698 0.0234505 0.00920607
  endloop
 endfacet
 facet normal -0.239697 0.965737 -0.0994895
  outer loop
   vertex -0.0158698 0.0234505 0.00920607
   vertex -0.0175085 0.0249249 0.0274662
   vertex 0.00444047 0.0305956 0.0296303
  endloop
 endfacet
 facet normal -0.923198 0.384317 0.00226529
  outer loop
   vertex -0.0207323 0.0219627 0.0531133
   vertex -0.0208618 0.0218031 0.027411
   vertex -0.0301068 -0.000401144 0.0267538
  endloop
 endfacet
 facet normal -0.92694 0.375033 0.0114725
  outer loop
   vertex -0.0301068 -0.000401144 0.0267538
   vertex -0.0297739 -0.000391168 0.0533244
   vertex -0.0207323 0.0219627 0.0531133
  endloop
 endfacet
 facet normal -0.681403 0.731906 0.00191886
  outer loop
   vertex -0.017659 0.0247169 0.0533569
   vertex -0.0175085 0.0249249 0.0274662
   vertex -0.0208618 0.0218031 0.027411
  endloop
 endfacet
 facet normal -0.667328 0.744763 -0.00126233
  outer loop
   vertex -0.0208618 0.0218031 0.027411
   vertex -0.0207323 0.0219627 0.0531133
   vertex -0.017659 0.0247169 0.0533569
  endloop
 endfacet
 facet normal -0.248506 0.968475 -0.017323
  outer loop
   vertex 0.00445355 0.0310302 0.0537394
   vertex 0.00444047 0.0305956 0.0296303
   vertex -0.0175085 0.0249249 0.0274662
  endloop
 endfacet
 facet normal -0.274632 0.96153 0.00612981
  outer loop
   vertex -0.0175085 0.0249249 0.0274662
   vertex -0.017659 0.0247169 0.0533569
   vertex 0.00445355 0.0310302 0.0537394
  endloop
 endfacet
 facet normal -0.927045 0.374936 -0.00328486
  outer loop
   vertex -0.020913 0.0217339 0.0779929
   vertex -0.0207323 0.0219627 0.0531133
   vertex -0.0297739 -0.000391168 0.0533244
  endloop
 endfacet
 facet normal -0.932864 0.360023 0.0121808
  outer loop
   vertex -0.0297739 -0.000391168 0.0533244
   vertex -0.0294476 -0.000392529 0.0783543
   vertex -0.020913 0.0217339 0.0779929
  endloop
 endfacet
 facet normal -0.66774 0.744345 0.00865778
  outer loop
   vertex -0.0172964 0.0247508 0.0784064
   vertex -0.017659 0.0247169 0.0533569
   vertex -0.0207323 0.0219627 0.0531133
  endloop
 endfacet
 facet normal -0.640732 0.767761 0.0024078
  outer loop
   vertex -0.0207323 0.0219627 0.0531133
   vertex -0.020913 0.0217339 0.0779929
   vertex -0.0172964 0.0247508 0.0784064
  endloop
 endfacet
 facet normal -0.284845 0.958547 -0.00714659
  outer loop
   vertex 0.00447179 0.0312177 0.078161
   vertex 0.00445355 0.0310302 0.0537394
   vertex -0.0172964 0.0247508 0.0784064
  endloop
 endfacet
 facet normal -0.274581 0.96156 0.00267094
  outer loop
   vertex -0.0172964 0.0247508 0.0784064
   vertex 0.00445355 0.0310302 0.0537394
   vertex -0.017659 0.0247169 0.0533569
  endloop
 endfacet
 facet normal -0.933013 0.359824 -0.00352499
  outer loop
   vertex -0.0210995 0.0214978 0.103251
   vertex -0.020913 0.0217339 0.0779929
   vertex -0.0294476 -0.000392529 0.0783543
  endloop
 endfacet
 facet normal -0.939309 0.342804 0.0135512
  outer loop
   vertex -0.0294476 -0.000392529 0.0783543
   vertex -0.0290837 -0.000391628 0.103552
   vertex -0.0210995 0.0214978 0.103251
  endloop
 endfacet
 facet normal -0.64113 0.767383 0.00864255
  outer loop
   vertex -0.0168729 0.024822 0.1035
   vertex -0.0172964 0.0247508 0.0784064
   vertex -0.020913 0.0217339 0.0779929
  endloop
 endfacet
 facet normal -0.618306 0.785933 0.00278171
  outer loop
   vertex -0.020913 0.0217339 0.0779929
   vertex -0.0210995 0.0214978 0.103251
   vertex -0.0168729 0.024822 0.1035
  endloop
 endfacet
 facet normal -0.279309 0.960175 0.00707257
  outer loop
   vertex 0.00447586 0.031033 0.103402
   vertex 0.00447179 0.0312177 0.078161
   vertex -0.0168729 0.024822 0.1035
  endloop
 endfacet
 facet normal -0.284756 0.958598 0.00208644
  outer loop
   vertex -0.0168729 0.024822 0.1035
   vertex 0.00447179 0.0312177 0.078161
   vertex -0.0172964 0.0247508 0.0784064
  endloop
 endfacet
 facet normal 0.682127 0.722426 -0.113154
  outer loop
   vertex 0.0300735 0.0182326 0.0264978
   vertex 0.0286253 0.0165952 0.0073142
   vertex 0.0210307 0.0238002 0.00753153
  endloop
 endfacet
 facet normal 0.619998 0.781814 -0.0660994
  outer loop
   vertex 0.0210307 0.0238002 0.00753153
   vertex 0.0221536 0.0246747 0.0284078
   vertex 0.0300735 0.0182326 0.0264978
  endloop
 endfacet
 facet normal 0.935573 0.290393 -0.200934
  outer loop
   vertex 0.0372814 -0.000426836 0.0230174
   vertex 0.0338234 -0.000370018 0.00699892
   vertex 0.0286253 0.0165952 0.0073142
  endloop
 endfacet
 facet normal 0.921484 0.374902 -0.101561
  outer loop
   vertex 0.0286253 0.0165952 0.0073142
   vertex 0.0300735 0.0182326 0.0264978
   vertex 0.0372814 -0.000426836 0.0230174
  endloop
 endfacet
 facet normal 0.313005 0.948066 -0.0565511
  outer loop
   vertex 0.0221536 0.0246747 0.0284078
   vertex 0.0210307 0.0238002 0.00753153
   vertex 0.00444047 0.0305956 0.0296303
  endloop
 endfacet
 facet normal 0.30441 0.950407 -0.063723
  outer loop
   vertex 0.00444047 0.0305956 0.0296303
   vertex 0.0210307 0.0238002 0.00753153
   vertex 0.00438924 0.0292399 0.00916487
  endloop
 endfacet
 facet normal 0.626653 0.778785 -0.0282872
  outer loop
   vertex 0.0306444 0.0186501 0.0506406
   vertex 0.0300735 0.0182326 0.0264978
   vertex 0.0221536 0.0246747 0.0284078
  endloop
 endfacet
 facet normal 0.627092 0.778422 -0.0285528
  outer loop
   vertex 0.0221536 0.0246747 0.0284078
   vertex 0.0226351 0.0251577 0.0521502
   vertex 0.0306444 0.0186501 0.0506406
  endloop
 endfacet
 facet normal 0.932863 0.360231 0.000660096
  outer loop
   vertex 0.0372626 -0.000426836 0.0495513
   vertex 0.0372814 -0.000426836 0.0230174
   vertex 0.0300735 0.0182326 0.0264978
  endloop
 endfacet
 facet normal 0.943894 0.329059 -0.0280102
  outer loop
   vertex 0.0300735 0.0182326 0.0264978
   vertex 0.0306444 0.0186501 0.0506406
   vertex 0.0372626 -0.000426836 0.0495513
  endloop
 endfacet
 facet normal 0.315325 0.948636 -0.0256928
  outer loop
   vertex 0.0226351 0.0251577 0.0521502
   vertex 0.0221536 0.0246747 0.0284078
   vertex 0.00444047 0.0305956 0.0296303
  endloop
 endfacet
 facet normal 0.305941 0.951893 -0.0173248
  outer loop
   vertex 0.00444047 0.0305956 0.0296303
   vertex 0.00445355 0.0310302 0.0537394
   vertex 0.0226351 0.0251577 0.0521502
  endloop
 endfacet
 facet normal 0.629778 0.776743 -0.00705898
  outer loop
   vertex 0.0310755 0.0185318 0.0760852
   vertex 0.0306444 0.0186501 0.0506406
   vertex 0.0226351 0.0251577 0.0521502
  endloop
 endfacet
 facet normal 0.601949 0.798486 0.00877389
  outer loop
   vertex 0.0226351 0.0251577 0.0521502
   vertex 0.0222812 0.0251433 0.0777346
   vertex 0.0310755 0.0185318 0.0760852
  endloop
 endfacet
 facet normal 0.956641 0.290871 0.0152388
  outer loop
   vertex 0.0368399 -0.000426836 0.0760852
   vertex 0.0372626 -0.000426836 0.0495513
   vertex 0.0310755 0.0185318 0.0760852
  endloop
 endfacet
 facet normal 0.944406 0.328464 -0.0144741
  outer loop
   vertex 0.0310755 0.0185318 0.0760852
   vertex 0.0372626 -0.000426836 0.0495513
   vertex 0.0306444 0.0186501 0.0506406
  endloop
 endfacet
 facet normal 0.307734 0.95146 0.00478958
  outer loop
   vertex 0.0222812 0.0251433 0.0777346
   vertex 0.0226351 0.0251577 0.0521502
   vertex 0.00445355 0.0310302 0.0537394
  endloop
 endfacet
 facet normal 0.322645 0.94649 -0.00750777
  outer loop
   vertex 0.00445355 0.0310302 0.0537394
   vertex 0.00447179 0.0312177 0.078161
   vertex 0.0222812 0.0251433 0.0777346
  endloop
 endfacet
 facet normal 0.601264 0.799045 0.00288245
  outer loop
   vertex 0.0310755 0.0184361 0.102619
   vertex 0.0310755 0.0185318 0.0760852
   vertex 0.0222812 0.0251433 0.0777346
  endloop
 endfacet
 facet normal 0.580348 0.814242 0.0143702
  outer loop
   vertex 0.0222812 0.0251433 0.0777346
   vertex 0.0219136 0.0249522 0.103411
   vertex 0.0310755 0.0184361 0.102619
  endloop
 endfacet
 facet normal 0.956726 0.290897 0.00738769
  outer loop
   vertex 0.036635 -0.000426836 0.102619
   vertex 0.0368399 -0.000426836 0.0760852
   vertex 0.0310755 0.0185318 0.0760852
  endloop
 endfacet
 facet normal 0.959204 0.282712 0.00101984
  outer loop
   vertex 0.0310755 0.0185318 0.0760852
   vertex 0.0310755 0.0184361 0.102619
   vertex 0.036635 -0.000426836 0.102619
  endloop
 endfacet
 facet normal 0.323043 0.946312 0.0116694
  outer loop
   vertex 0.0219136 0.0249522 0.103411
   vertex 0.0222812 0.0251433 0.0777346
   vertex 0.00447179 0.0312177 0.078161
  endloop
 endfacet
 facet normal 0.329256 0.944216 0.00685766
  outer loop
   vertex 0.00447179 0.0312177 0.078161
   vertex 0.00447586 0.031033 0.103402
   vertex 0.0219136 0.0249522 0.103411
  endloop
 endfacet
 facet normal -0.344257 -0.938816 0.010544
  outer loop
   vertex -0.0152822 -0.0238758 0.128155
   vertex -0.015871 -0.0239244 0.104598
   vertex 0.00444341 -0.0313826 0.103789
  endloop
 endfacet
 facet normal -0.325116 -0.945259 0.0280242
  outer loop
   vertex 0.00444341 -0.0313826 0.103789
   vertex 0.00444721 -0.0306485 0.128595
   vertex -0.0152822 -0.0238758 0.128155
  endloop
 endfacet
 facet normal -0.900855 -0.433921 0.0131627
  outer loop
   vertex -0.0287223 -0.000382979 0.128576
   vertex -0.0290837 -0.000391628 0.103552
   vertex -0.0191118 -0.0203482 0.128141
  endloop
 endfacet
 facet normal -0.906867 -0.420588 0.0264223
  outer loop
   vertex -0.0191118 -0.0203482 0.128141
   vertex -0.0290837 -0.000391628 0.103552
   vertex -0.0194913 -0.0210222 0.10439
  endloop
 endfacet
 facet normal -0.626289 -0.778929 0.0321089
  outer loop
   vertex -0.0191118 -0.0203482 0.128141
   vertex -0.0194913 -0.0210222 0.10439
   vertex -0.015871 -0.0239244 0.104598
  endloop
 endfacet
 facet normal -0.677424 -0.735362 0.0184517
  outer loop
   vertex -0.015871 -0.0239244 0.104598
   vertex -0.0152822 -0.0238758 0.128155
   vertex -0.0191118 -0.0203482 0.128141
  endloop
 endfacet
 facet normal -0.324689 -0.945821 0.000237201
  outer loop
   vertex -0.0127895 -0.0247253 0.152783
   vertex -0.0152822 -0.0238758 0.128155
   vertex 0.00444721 -0.0306485 0.128595
  endloop
 endfacet
 facet normal -0.279067 -0.959592 0.03612
  outer loop
   vertex 0.00444721 -0.0306485 0.128595
   vertex 0.00450727 -0.0296769 0.154873
   vertex -0.0127895 -0.0247253 0.152783
  endloop
 endfacet
 facet normal -0.90095 -0.433738 0.0126613
  outer loop
   vertex -0.0283493 -0.000403009 0.154429
   vertex -0.0287223 -0.000382979 0.128576
   vertex -0.0196267 -0.0185821 0.152349
  endloop
 endfacet
 facet normal -0.900868 -0.433913 0.0124961
  outer loop
   vertex -0.0196267 -0.0185821 0.152349
   vertex -0.0287223 -0.000382979 0.128576
   vertex -0.0191118 -0.0203482 0.128141
  endloop
 endfacet
 facet normal -0.677059 -0.734883 0.0392128
  outer loop
   vertex -0.0196267 -0.0185821 0.152349
   vertex -0.0191118 -0.0203482 0.128141
   vertex -0.0152822 -0.0238758 0.128155
  endloop
 endfacet
 facet normal -0.669232 -0.741858 0.0421443
  outer loop
   vertex -0.0152822 -0.0238758 0.128155
   vertex -0.0127895 -0.0247253 0.152783
   vertex -0.0196267 -0.0185821 0.152349
  endloop
 endfacet
 facet normal -0.2747 -0.961519 -0.00459562
  outer loop
   vertex -0.00708878 -0.0264895 0.181149
   vertex -0.0127895 -0.0247253 0.152783
   vertex 0.00450727 -0.0296769 0.154873
  endloop
 endfacet
 facet normal -0.0908261 -0.992622 0.0803227
  outer loop
   vertex 0.00450727 -0.0296769 0.154873
   vertex 0.00454155 -0.027467 0.182221
   vertex -0.00708878 -0.0264895 0.181149
  endloop
 endfacet
 facet normal -0.923243 -0.381004 0.0495784
  outer loop
   vertex -0.026847 -0.000426836 0.182221
   vertex -0.0283493 -0.000403009 0.154429
   vertex -0.0207576 -0.0155797 0.179171
  endloop
 endfacet
 facet normal -0.901067 -0.433552 0.0105405
  outer loop
   vertex -0.0207576 -0.0155797 0.179171
   vertex -0.0283493 -0.000403009 0.154429
   vertex -0.0196267 -0.0185821 0.152349
  endloop
 endfacet
 facet normal -0.669265 -0.741006 0.0547309
  outer loop
   vertex -0.0207576 -0.0155797 0.179171
   vertex -0.0196267 -0.0185821 0.152349
   vertex -0.0127895 -0.0247253 0.152783
  endloop
 endfacet
 facet normal -0.628798 -0.773621 0.0782545
  outer loop
   vertex -0.0127895 -0.0247253 0.152783
   vertex -0.00708878 -0.0264895 0.181149
   vertex -0.0207576 -0.0155797 0.179171
  endloop
 endfacet
 facet normal -0.0934597 -0.989312 0.111921
  outer loop
   vertex 0.00454155 -0.027467 0.182221
   vertex 0.00454155 -0.0269608 0.186696
   vertex -0.00708878 -0.0264895 0.181149
  endloop
 endfacet
 facet normal -0.913223 -0.284044 0.292133
  outer loop
   vertex -0.0220014 -0.000341262 0.197452
   vertex -0.026847 -0.000426836 0.182221
   vertex -0.0185352 -0.0124103 0.196552
  endloop
 endfacet
 facet normal -0.897794 -0.398531 0.187455
  outer loop
   vertex -0.0185352 -0.0124103 0.196552
   vertex -0.026847 -0.000426836 0.182221
   vertex -0.0207576 -0.0155797 0.179171
  endloop
 endfacet
 facet normal -0.627967 -0.747494 0.216586
  outer loop
   vertex -0.0185352 -0.0124103 0.196552
   vertex -0.0207576 -0.0155797 0.179171
   vertex -0.00708878 -0.0264895 0.181149
  endloop
 endfacet
 facet normal -0.349311 -0.806276 0.477389
  outer loop
   vertex -0.0185352 -0.0124103 0.196552
   vertex -0.00708878 -0.0264895 0.181149
   vertex 0.00432499 -0.0227089 0.195886
  endloop
 endfacet
 facet normal -0.228699 -0.885565 0.404316
  outer loop
   vertex 0.00432499 -0.0227089 0.195886
   vertex -0.00708878 -0.0264895 0.181149
   vertex 0.00454155 -0.0269608 0.186696
  endloop
 endfacet
 facet normal 0.20775 -0.977755 0.0289043
  outer loop
   vertex 0.00444721 -0.0306485 0.128595
   vertex 0.00444341 -0.0313826 0.103789
   vertex 0.0217256 -0.0269608 0.129153
  endloop
 endfacet
 facet normal 0.229558 -0.973205 0.0132515
  outer loop
   vertex 0.0217256 -0.0269608 0.129153
   vertex 0.00444341 -0.0313826 0.103789
   vertex 0.0232573 -0.0269608 0.102619
  endloop
 endfacet
 facet normal 0.684445 -0.727993 0.0395103
  outer loop
   vertex 0.0217256 -0.0269608 0.129153
   vertex 0.0232573 -0.0269608 0.102619
   vertex 0.0310755 -0.0181702 0.129153
  endloop
 endfacet
 facet normal 0.685618 -0.726926 0.038811
  outer loop
   vertex 0.0310755 -0.0181702 0.129153
   vertex 0.0232573 -0.0269608 0.102619
   vertex 0.0310755 -0.0195869 0.102619
  endloop
 endfacet
 facet normal 0.96028 -0.27864 0.0148767
  outer loop
   vertex 0.0310755 -0.0181702 0.129153
   vertex 0.0310755 -0.0195869 0.102619
   vertex 0.036635 -0.000426836 0.102619
  endloop
 endfacet
 facet normal 0.962566 -0.270234 0.0209767
  outer loop
   vertex 0.036635 -0.000426836 0.102619
   vertex 0.0360568 -0.000426836 0.129153
   vertex 0.0310755 -0.0181702 0.129153
  endloop
 endfacet
 facet normal 0.208125 -0.977452 0.035667
  outer loop
   vertex 0.00450727 -0.0296769 0.154873
   vertex 0.00444721 -0.0306485 0.128595
   vertex 0.0171238 -0.0269608 0.155687
  endloop
 endfacet
 facet normal 0.207483 -0.977577 0.0359844
  outer loop
   vertex 0.0171238 -0.0269608 0.155687
   vertex 0.00444721 -0.0306485 0.128595
   vertex 0.0217256 -0.0269608 0.129153
  endloop
 endfacet
 facet normal 0.667663 -0.735403 0.115795
  outer loop
   vertex 0.0171238 -0.0269608 0.155687
   vertex 0.0217256 -0.0269608 0.129153
   vertex 0.0310755 -0.0142942 0.155687
  endloop
 endfacet
 facet normal 0.681133 -0.724471 0.105829
  outer loop
   vertex 0.0310755 -0.0142942 0.155687
   vertex 0.0217256 -0.0269608 0.129153
   vertex 0.0310755 -0.0181702 0.129153
  endloop
 endfacet
 facet normal 0.962028 -0.270083 0.0394532
  outer loop
   vertex 0.0310755 -0.0142942 0.155687
   vertex 0.0310755 -0.0181702 0.129153
   vertex 0.0360568 -0.000426836 0.129153
  endloop
 endfacet
 facet normal 0.971064 -0.230705 0.0617297
  outer loop
   vertex 0.0360568 -0.000426836 0.129153
   vertex 0.0343701 -0.000426836 0.155687
   vertex 0.0310755 -0.0142942 0.155687
  endloop
 endfacet
 facet normal 0.160945 -0.983773 0.0792921
  outer loop
   vertex 0.00454155 -0.027467 0.182221
   vertex 0.00450727 -0.0296769 0.154873
   vertex 0.00763587 -0.0269608 0.182221
  endloop
 endfacet
 facet normal 0.20536 -0.975928 0.0734319
  outer loop
   vertex 0.00763587 -0.0269608 0.182221
   vertex 0.00450727 -0.0296769 0.154873
   vertex 0.0171238 -0.0269608 0.155687
  endloop
 endfacet
 facet normal 0.653571 -0.719881 0.233702
  outer loop
   vertex 0.00763587 -0.0269608 0.182221
   vertex 0.0171238 -0.0269608 0.155687
   vertex 0.0310755 -0.0142942 0.155687
  endloop
 endfacet
 facet normal 0.684397 -0.671514 0.284023
  outer loop
   vertex 0.0310755 -0.0142942 0.155687
   vertex 0.0310755 -0.00307146 0.182221
   vertex 0.00763587 -0.0269608 0.182221
  endloop
 endfacet
 facet normal 0.968303 -0.230049 0.0973011
  outer loop
   vertex 0.0310755 -0.00307146 0.182221
   vertex 0.0310755 -0.0142942 0.155687
   vertex 0.0343701 -0.000426836 0.155687
  endloop
 endfacet
 facet normal 0.990036 -0.0815502 0.1148
  outer loop
   vertex 0.0343701 -0.000426836 0.155687
   vertex 0.0312933 -0.000426836 0.182221
   vertex 0.0310755 -0.00307146 0.182221
  endloop
 endfacet
 facet normal 0.160456 -0.980787 0.110956
  outer loop
   vertex 0.00763587 -0.0269608 0.182221
   vertex 0.00454155 -0.0269608 0.186696
   vertex 0.00454155 -0.027467 0.182221
  endloop
 endfacet
 facet normal 0.662544 -0.673724 0.327309
  outer loop
   vertex 0.00432499 -0.0227089 0.195886
   vertex 0.00454155 -0.0269608 0.186696
   vertex 0.0263949 -0.000339777 0.197256
  endloop
 endfacet
 facet normal 0.661966 -0.673718 0.328489
  outer loop
   vertex 0.0263949 -0.000339777 0.197256
   vertex 0.00454155 -0.0269608 0.186696
   vertex 0.0310755 -0.00307146 0.182221
  endloop
 endfacet
 facet normal 0.933815 -0.160295 0.319836
  outer loop
   vertex 0.0263949 -0.000339777 0.197256
   vertex 0.0310755 -0.00307146 0.182221
   vertex 0.0310755 -0.000426836 0.183546
  endloop
 endfacet
 facet normal 0.640068 -0.628019 0.442611
  outer loop
   vertex 0.0310755 -0.00307146 0.182221
   vertex 0.00454155 -0.0269608 0.186696
   vertex 0.00763587 -0.0269608 0.182221
  endloop
 endfacet
 facet normal 0.983518 -0.0810134 0.161646
  outer loop
   vertex 0.0312933 -0.000426836 0.182221
   vertex 0.0310755 -0.000426836 0.183546
   vertex 0.0310755 -0.00307146 0.182221
  endloop
 endfacet
 facet normal -0.939446 0.342692 0.00178321
  outer loop
   vertex -0.0210119 0.0216049 0.128809
   vertex -0.0210995 0.0214978 0.103251
   vertex -0.0290837 -0.000391628 0.103552
  endloop
 endfacet
 facet normal -0.943621 0.330752 0.0135162
  outer loop
   vertex -0.0290837 -0.000391628 0.103552
   vertex -0.0287223 -0.000382979 0.128576
   vertex -0.0210119 0.0216049 0.128809
  endloop
 endfacet
 facet normal -0.589746 0.807565 0.00620655
  outer loop
   vertex -0.0168495 0.0246458 0.128656
   vertex -0.0168729 0.024822 0.1035
   vertex -0.0210119 0.0216049 0.128809
  endloop
 endfacet
 facet normal -0.618164 0.786048 -0.00117614
  outer loop
   vertex -0.0210119 0.0216049 0.128809
   vertex -0.0168729 0.024822 0.1035
   vertex -0.0210995 0.0214978 0.103251
  endloop
 endfacet
 facet normal -0.279246 0.960092 0.0156599
  outer loop
   vertex 0.00446007 0.0306162 0.128671
   vertex 0.00447586 0.031033 0.103402
   vertex -0.0168729 0.024822 0.1035
  endloop
 endfacet
 facet normal -0.269785 0.962895 0.00699658
  outer loop
   vertex -0.0168729 0.024822 0.1035
   vertex -0.0168495 0.0246458 0.128656
   vertex 0.00446007 0.0306162 0.128671
  endloop
 endfacet
 facet normal -0.943595 0.33098 -0.00895808
  outer loop
   vertex -0.0216546 0.0204873 0.15521
   vertex -0.0210119 0.0216049 0.128809
   vertex -0.0287223 -0.000382979 0.128576
  endloop
 endfacet
 facet normal -0.952352 0.304679 0.013975
  outer loop
   vertex -0.0287223 -0.000382979 0.128576
   vertex -0.0283493 -0.000403009 0.154429
   vertex -0.0216546 0.0204873 0.15521
  endloop
 endfacet
 facet normal -0.613203 0.789823 0.0127277
  outer loop
   vertex -0.0154581 0.025308 0.154595
   vertex -0.0168495 0.0246458 0.128656
   vertex -0.0216546 0.0204873 0.15521
  endloop
 endfacet
 facet normal -0.589315 0.80766 0.0198435
  outer loop
   vertex -0.0216546 0.0204873 0.15521
   vertex -0.0168495 0.0246458 0.128656
   vertex -0.0210119 0.0216049 0.128809
  endloop
 endfacet
 facet normal -0.233093 0.972249 0.0199859
  outer loop
   vertex 0.00449702 0.0300915 0.154629
   vertex 0.00446007 0.0306162 0.128671
   vertex -0.0154581 0.025308 0.154595
  endloop
 endfacet
 facet normal -0.269767 0.962873 -0.0101116
  outer loop
   vertex -0.0154581 0.025308 0.154595
   vertex 0.00446007 0.0306162 0.128671
   vertex -0.0168495 0.0246458 0.128656
  endloop
 endfacet
 facet normal -0.952215 0.304088 0.0285971
  outer loop
   vertex -0.0219924 0.0168893 0.182221
   vertex -0.0216546 0.0204873 0.15521
   vertex -0.0283493 -0.000403009 0.154429
  endloop
 endfacet
 facet normal -0.961562 0.269579 0.0522074
  outer loop
   vertex -0.0283493 -0.000403009 0.154429
   vertex -0.026847 -0.000426836 0.182221
   vertex -0.0219924 0.0168893 0.182221
  endloop
 endfacet
 facet normal -0.655618 0.751465 0.0739303
  outer loop
   vertex -0.011427 0.0261071 0.182221
   vertex -0.0154581 0.025308 0.154595
   vertex -0.0219924 0.0168893 0.182221
  endloop
 endfacet
 facet normal -0.605044 0.790176 0.0976892
  outer loop
   vertex -0.0219924 0.0168893 0.182221
   vertex -0.0154581 0.025308 0.154595
   vertex -0.0216546 0.0204873 0.15521
  endloop
 endfacet
 facet normal -0.148501 0.987276 0.0568635
  outer loop
   vertex 0.00454155 0.028509 0.182221
   vertex 0.00449702 0.0300915 0.154629
   vertex -0.011427 0.0261071 0.182221
  endloop
 endfacet
 facet normal -0.233112 0.972432 0.00588741
  outer loop
   vertex -0.011427 0.0261071 0.182221
   vertex 0.00449702 0.0300915 0.154629
   vertex -0.0154581 0.025308 0.154595
  endloop
 endfacet
 facet normal -0.928509 0.260312 0.26478
  outer loop
   vertex -0.0187664 0.0129887 0.197368
   vertex -0.0219924 0.0168893 0.182221
   vertex -0.026847 -0.000426836 0.182221
  endloop
 endfacet
 facet normal -0.928394 0.227152 0.294087
  outer loop
   vertex -0.026847 -0.000426836 0.182221
   vertex -0.0220014 -0.000341262 0.197452
   vertex -0.0187664 0.0129887 0.197368
  endloop
 endfacet
 facet normal -0.619036 0.709536 0.336679
  outer loop
   vertex -0.00736658 0.0226561 0.19696
   vertex -0.011427 0.0261071 0.182221
   vertex -0.0219924 0.0168893 0.182221
  endloop
 endfacet
 facet normal -0.606795 0.728936 0.316941
  outer loop
   vertex -0.0219924 0.0168893 0.182221
   vertex -0.0187664 0.0129887 0.197368
   vertex -0.00736658 0.0226561 0.19696
  endloop
 endfacet
 facet normal -0.140979 0.953912 0.264908
  outer loop
   vertex 0.00435984 0.0241121 0.197957
   vertex 0.00454155 0.028509 0.182221
   vertex -0.00736658 0.0226561 0.19696
  endloop
 endfacet
 facet normal -0.143508 0.954082 0.262932
  outer loop
   vertex -0.00736658 0.0226561 0.19696
   vertex 0.00454155 0.028509 0.182221
   vertex -0.011427 0.0261071 0.182221
  endloop
 endfacet
 facet normal 0.583123 0.812225 0.0160403
  outer loop
   vertex 0.0310755 0.0179121 0.129153
   vertex 0.0310755 0.0184361 0.102619
   vertex 0.0215307 0.0247736 0.128699
  endloop
 endfacet
 facet normal 0.580356 0.814233 0.0145399
  outer loop
   vertex 0.0215307 0.0247736 0.128699
   vertex 0.0310755 0.0184361 0.102619
   vertex 0.0219136 0.0249522 0.103411
  endloop
 endfacet
 facet normal 0.96482 0.262071 0.0210258
  outer loop
   vertex 0.0360568 -0.000426836 0.129153
   vertex 0.036635 -0.000426836 0.102619
   vertex 0.0310755 0.0179121 0.129153
  endloop
 endfacet
 facet normal 0.95919 0.282707 0.00558306
  outer loop
   vertex 0.0310755 0.0179121 0.129153
   vertex 0.036635 -0.000426836 0.102619
   vertex 0.0310755 0.0184361 0.102619
  endloop
 endfacet
 facet normal 0.329239 0.944175 0.0116551
  outer loop
   vertex 0.0215307 0.0247736 0.128699
   vertex 0.0219136 0.0249522 0.103411
   vertex 0.00447586 0.031033 0.103402
  endloop
 endfacet
 facet normal 0.323757 0.946008 0.0158043
  outer loop
   vertex 0.00447586 0.031033 0.103402
   vertex 0.00446007 0.0306162 0.128671
   vertex 0.0215307 0.0247736 0.128699
  endloop
 endfacet
 facet normal 0.641683 0.762787 0.0799963
  outer loop
   vertex 0.0310755 0.0151294 0.155687
   vertex 0.0310755 0.0179121 0.129153
   vertex 0.0193553 0.025129 0.154351
  endloop
 endfacet
 facet normal 0.582082 0.812237 0.0381111
  outer loop
   vertex 0.0193553 0.025129 0.154351
   vertex 0.0310755 0.0179121 0.129153
   vertex 0.0215307 0.0247736 0.128699
  endloop
 endfacet
 facet normal 0.976414 0.206792 0.0620698
  outer loop
   vertex 0.0343701 -0.000426836 0.155687
   vertex 0.0360568 -0.000426836 0.129153
   vertex 0.0310755 0.0151294 0.155687
  endloop
 endfacet
 facet normal 0.964669 0.26203 0.02748
  outer loop
   vertex 0.0310755 0.0151294 0.155687
   vertex 0.0360568 -0.000426836 0.129153
   vertex 0.0310755 0.0179121 0.129153
  endloop
 endfacet
 facet normal 0.323767 0.946028 0.0143508
  outer loop
   vertex 0.0193553 0.025129 0.154351
   vertex 0.0215307 0.0247736 0.128699
   vertex 0.00446007 0.0306162 0.128671
  endloop
 endfacet
 facet normal 0.317048 0.948225 0.0187171
  outer loop
   vertex 0.00446007 0.0306162 0.128671
   vertex 0.00449702 0.0300915 0.154629
   vertex 0.0193553 0.025129 0.154351
  endloop
 endfacet
 facet normal 0.756008 0.613511 0.228159
  outer loop
   vertex 0.0310755 0.00526165 0.182221
   vertex 0.0310755 0.0151294 0.155687
   vertex 0.0142867 0.0260239 0.182022
  endloop
 endfacet
 facet normal 0.640139 0.76266 0.0925898
  outer loop
   vertex 0.0142867 0.0260239 0.182022
   vertex 0.0310755 0.0151294 0.155687
   vertex 0.0193553 0.025129 0.154351
  endloop
 endfacet
 facet normal 0.992626 0.0380125 0.115101
  outer loop
   vertex 0.0312933 -0.000426836 0.182221
   vertex 0.0343701 -0.000426836 0.155687
   vertex 0.0310755 0.00526165 0.182221
  endloop
 endfacet
 facet normal 0.975409 0.206579 0.0768248
  outer loop
   vertex 0.0310755 0.00526165 0.182221
   vertex 0.0343701 -0.000426836 0.155687
   vertex 0.0310755 0.0151294 0.155687
  endloop
 endfacet
 facet normal 0.317132 0.947985 0.0274302
  outer loop
   vertex 0.0142867 0.0260239 0.182022
   vertex 0.0193553 0.025129 0.154351
   vertex 0.00449702 0.0300915 0.154629
  endloop
 endfacet
 facet normal 0.247782 0.967249 0.0550753
  outer loop
   vertex 0.00449702 0.0300915 0.154629
   vertex 0.00454155 0.028509 0.182221
   vertex 0.0142867 0.0260239 0.182022
  endloop
 endfacet
 facet normal 0.943846 0.0749722 0.321766
  outer loop
   vertex 0.0263949 -0.000339777 0.197256
   vertex 0.0310755 -0.000426836 0.183546
   vertex 0.0310755 0.00526165 0.182221
  endloop
 endfacet
 facet normal 0.756045 0.500461 0.421823
  outer loop
   vertex 0.0263949 -0.000339777 0.197256
   vertex 0.0310755 0.00526165 0.182221
   vertex 0.0100296 0.0231654 0.1987
  endloop
 endfacet
 facet normal 0.742145 0.60292 0.292759
  outer loop
   vertex 0.0100296 0.0231654 0.1987
   vertex 0.0310755 0.00526165 0.182221
   vertex 0.0142867 0.0260239 0.182022
  endloop
 endfacet
 facet normal 0.986058 0.037761 0.162063
  outer loop
   vertex 0.0310755 0.00526165 0.182221
   vertex 0.0310755 -0.000426836 0.183546
   vertex 0.0312933 -0.000426836 0.182221
  endloop
 endfacet
 facet normal 0.245106 0.943213 0.224214
  outer loop
   vertex 0.0100296 0.0231654 0.1987
   vertex 0.0142867 0.0260239 0.182022
   vertex 0.00454155 0.028509 0.182221
  endloop
 endfacet
 facet normal 0.124314 0.955267 0.268349
  outer loop
   vertex 0.00454155 0.028509 0.182221
   vertex 0.00435984 0.0241121 0.197957
   vertex 0.0100296 0.0231654 0.1987
  endloop
 endfacet
endsolid
