solid ascii
 facet normal -0.775102 -0.536384 -0.333931
  outer loop
   vertex -0.0184367 -0.0334223 0.0138775
   vertex -0.0163901 -0.0307042 0.00476082
   vertex -0.0138041 -0.0343325 0.00458636
  endloop
 endfacet
 facet normal -0.764464 -0.555735 -0.326731
  outer loop
   vertex -0.0138041 -0.0343325 0.00458636
   vertex -0.0155102 -0.037448 0.0138775
   vertex -0.0184367 -0.0334223 0.0138775
  endloop
 endfacet
 facet normal -0.376311 -0.855394 -0.355937
  outer loop
   vertex -0.0155102 -0.037448 0.0138775
   vertex -0.0138041 -0.0343325 0.00458636
   vertex 0.001555 -0.0449555 0.0138775
  endloop
 endfacet
 facet normal -0.418593 -0.860134 -0.291461
  outer loop
   vertex 0.001555 -0.0449555 0.0138775
   vertex -0.0138041 -0.0343325 0.00458636
   vertex 0.00188423 -0.04179 0.00406294
  endloop
 endfacet
 facet normal -0.808386 -0.587665 0.0340715
  outer loop
   vertex -0.0177175 -0.0334223 0.0309427
   vertex -0.0184367 -0.0334223 0.0138775
   vertex -0.0155102 -0.037448 0.0138775
  endloop
 endfacet
 facet normal -0.806878 -0.589695 0.0347454
  outer loop
   vertex -0.0155102 -0.037448 0.0138775
   vertex -0.0155102 -0.0364425 0.0309427
   vertex -0.0177175 -0.0334223 0.0309427
  endloop
 endfacet
 facet normal -0.418819 -0.906498 0.0534117
  outer loop
   vertex -0.0155102 -0.0364425 0.0309427
   vertex -0.0155102 -0.037448 0.0138775
   vertex 0.001555 -0.044327 0.0309427
  endloop
 endfacet
 facet normal -0.402454 -0.91482 0.033693
  outer loop
   vertex 0.001555 -0.044327 0.0309427
   vertex -0.0155102 -0.037448 0.0138775
   vertex 0.001555 -0.0449555 0.0138775
  endloop
 endfacet
 facet normal -0.940096 -0.243844 -0.238244
  outer loop
   vertex -0.0224219 -0.0163571 0.0138775
   vertex -0.0204644 -0.0150186 0.00478364
   vertex -0.0163901 -0.0307042 0.00476082
  endloop
 endfacet
 facet normal -0.936159 -0.218614 -0.275345
  outer loop
   vertex -0.0163901 -0.0307042 0.00476082
   vertex -0.0184367 -0.0334223 0.0138775
   vertex -0.0224219 -0.0163571 0.0138775
  endloop
 endfacet
 facet normal -0.981697 -0.047789 -0.184355
  outer loop
   vertex -0.0229377 0.000708133 0.0138775
   vertex -0.0211564 0.000661441 0.00440404
   vertex -0.0204644 -0.0150186 0.00478364
  endloop
 endfacet
 facet normal -0.976281 -0.0295136 -0.214487
  outer loop
   vertex -0.0204644 -0.0150186 0.00478364
   vertex -0.0224219 -0.0163571 0.0138775
   vertex -0.0229377 0.000708133 0.0138775
  endloop
 endfacet
 facet normal -0.973296 -0.227286 0.0322007
  outer loop
   vertex -0.0218573 -0.0163571 0.0309427
   vertex -0.0224219 -0.0163571 0.0138775
   vertex -0.0184367 -0.0334223 0.0138775
  endloop
 endfacet
 facet normal -0.971 -0.23555 0.0409252
  outer loop
   vertex -0.0184367 -0.0334223 0.0138775
   vertex -0.0177175 -0.0334223 0.0309427
   vertex -0.0218573 -0.0163571 0.0309427
  endloop
 endfacet
 facet normal -0.999008 -0.0302007 0.0327291
  outer loop
   vertex -0.0223787 0.000708133 0.0309427
   vertex -0.0229377 0.000708133 0.0138775
   vertex -0.0224219 -0.0163571 0.0138775
  endloop
 endfacet
 facet normal -0.998988 -0.0305224 0.0330507
  outer loop
   vertex -0.0224219 -0.0163571 0.0138775
   vertex -0.0218573 -0.0163571 0.0309427
   vertex -0.0223787 0.000708133 0.0309427
  endloop
 endfacet
 facet normal -0.805601 -0.588762 0.066087
  outer loop
   vertex -0.0163175 -0.0334223 0.048008
   vertex -0.0177175 -0.0334223 0.0309427
   vertex -0.0155102 -0.0364425 0.0309427
  endloop
 endfacet
 facet normal -0.801925 -0.593642 0.0671247
  outer loop
   vertex -0.0155102 -0.0364425 0.0309427
   vertex -0.0155102 -0.0345129 0.048008
   vertex -0.0163175 -0.0334223 0.048008
  endloop
 endfacet
 facet normal -0.464578 -0.879925 0.0994954
  outer loop
   vertex -0.0155102 -0.0345129 0.048008
   vertex -0.0155102 -0.0364425 0.0309427
   vertex 0.001555 -0.0435229 0.048008
  endloop
 endfacet
 facet normal -0.419034 -0.906964 0.0427325
  outer loop
   vertex 0.001555 -0.0435229 0.048008
   vertex -0.0155102 -0.0364425 0.0309427
   vertex 0.001555 -0.044327 0.0309427
  endloop
 endfacet
 facet normal -0.802308 -0.593926 0.0596188
  outer loop
   vertex -0.0155102 -0.0345129 0.048008
   vertex -0.0155102 -0.0334223 0.0588722
   vertex -0.0163175 -0.0334223 0.048008
  endloop
 endfacet
 facet normal -0.492579 -0.869853 0.0268862
  outer loop
   vertex -0.0151718 -0.0334223 0.0650732
   vertex -0.0155102 -0.0334223 0.0588722
   vertex 0.001555 -0.0428943 0.0650732
  endloop
 endfacet
 facet normal -0.49392 -0.868918 0.0320051
  outer loop
   vertex 0.001555 -0.0428943 0.0650732
   vertex -0.0155102 -0.0334223 0.0588722
   vertex 0.001555 -0.0435229 0.048008
  endloop
 endfacet
 facet normal -0.465066 -0.880849 0.0884204
  outer loop
   vertex 0.001555 -0.0435229 0.048008
   vertex -0.0155102 -0.0334223 0.0588722
   vertex -0.0155102 -0.0345129 0.048008
  endloop
 endfacet
 facet normal -0.971255 -0.235612 0.0339085
  outer loop
   vertex -0.0212615 -0.0163571 0.048008
   vertex -0.0218573 -0.0163571 0.0309427
   vertex -0.0177175 -0.0334223 0.0309427
  endloop
 endfacet
 facet normal -0.957536 -0.277406 0.078551
  outer loop
   vertex -0.0177175 -0.0334223 0.0309427
   vertex -0.0163175 -0.0334223 0.048008
   vertex -0.0212615 -0.0163571 0.048008
  endloop
 endfacet
 facet normal -0.999249 -0.0305304 0.0238511
  outer loop
   vertex -0.0219713 0.000708133 0.048008
   vertex -0.0223787 0.000708133 0.0309427
   vertex -0.0218573 -0.0163571 0.0309427
  endloop
 endfacet
 facet normal -0.998529 -0.0415351 0.0348607
  outer loop
   vertex -0.0218573 -0.0163571 0.0309427
   vertex -0.0212615 -0.0163571 0.048008
   vertex -0.0219713 0.000708133 0.048008
  endloop
 endfacet
 facet normal -0.955394 -0.291404 0.0480317
  outer loop
   vertex -0.0204035 -0.0163571 0.0650732
   vertex -0.0212615 -0.0163571 0.048008
   vertex -0.0155102 -0.0334223 0.0588722
  endloop
 endfacet
 facet normal -0.957593 -0.28631 0.0322784
  outer loop
   vertex -0.0204035 -0.0163571 0.0650732
   vertex -0.0155102 -0.0334223 0.0588722
   vertex -0.0155102 -0.0327232 0.0650732
  endloop
 endfacet
 facet normal -0.958067 -0.27756 0.0711931
  outer loop
   vertex -0.0155102 -0.0334223 0.0588722
   vertex -0.0212615 -0.0163571 0.048008
   vertex -0.0163175 -0.0334223 0.048008
  endloop
 endfacet
 facet normal -0.898978 -0.435237 0.0490684
  outer loop
   vertex -0.0155102 -0.0327232 0.0650732
   vertex -0.0155102 -0.0334223 0.0588722
   vertex -0.0151718 -0.0334223 0.0650732
  endloop
 endfacet
 facet normal -0.998083 -0.0415166 0.0458931
  outer loop
   vertex -0.0211866 0.000708133 0.0650732
   vertex -0.0219713 0.000708133 0.048008
   vertex -0.0212615 -0.0163571 0.048008
  endloop
 endfacet
 facet normal -0.997691 -0.0457834 0.0501582
  outer loop
   vertex -0.0212615 -0.0163571 0.048008
   vertex -0.0204035 -0.0163571 0.0650732
   vertex -0.0211866 0.000708133 0.0650732
  endloop
 endfacet
 facet normal 0.31966 -0.904868 -0.281125
  outer loop
   vertex 0.001555 -0.0449555 0.0138775
   vertex 0.00188423 -0.04179 0.00406294
   vertex 0.0186202 -0.0389269 0.0138775
  endloop
 endfacet
 facet normal 0.334417 -0.889736 -0.310702
  outer loop
   vertex 0.0186202 -0.0389269 0.0138775
   vertex 0.00188423 -0.04179 0.00406294
   vertex 0.0177403 -0.0356868 0.003652
  endloop
 endfacet
 facet normal 0.73783 -0.622581 -0.260766
  outer loop
   vertex 0.0186202 -0.0389269 0.0138775
   vertex 0.0177403 -0.0356868 0.003652
   vertex 0.0215624 -0.0311165 0.00355507
  endloop
 endfacet
 facet normal 0.731719 -0.627471 -0.266208
  outer loop
   vertex 0.0215624 -0.0311165 0.00355507
   vertex 0.0233405 -0.0334223 0.0138775
   vertex 0.0186202 -0.0389269 0.0138775
  endloop
 endfacet
 facet normal 0.332893 -0.942326 0.034706
  outer loop
   vertex 0.001555 -0.044327 0.0309427
   vertex 0.001555 -0.0449555 0.0138775
   vertex 0.0186202 -0.0389269 0.0138775
  endloop
 endfacet
 facet normal 0.294724 -0.955552 -0.00764789
  outer loop
   vertex 0.0186202 -0.0389269 0.0138775
   vertex 0.0186202 -0.0390635 0.0309427
   vertex 0.001555 -0.044327 0.0309427
  endloop
 endfacet
 facet normal 0.759101 -0.650952 -0.00520999
  outer loop
   vertex 0.0186202 -0.0390635 0.0309427
   vertex 0.0186202 -0.0389269 0.0138775
   vertex 0.0233405 -0.0334223 0.0138775
  endloop
 endfacet
 facet normal 0.735599 -0.677111 -0.0203579
  outer loop
   vertex 0.0233405 -0.0334223 0.0138775
   vertex 0.0238128 -0.0334223 0.0309427
   vertex 0.0186202 -0.0390635 0.0309427
  endloop
 endfacet
 facet normal 0.941826 -0.25482 -0.219157
  outer loop
   vertex 0.0233405 -0.0334223 0.0138775
   vertex 0.0215624 -0.0311165 0.00355507
   vertex 0.025885 -0.0152111 0.00363761
  endloop
 endfacet
 facet normal 0.949004 -0.244501 -0.199022
  outer loop
   vertex 0.025885 -0.0152111 0.00363761
   vertex 0.0277372 -0.0163571 0.0138775
   vertex 0.0233405 -0.0334223 0.0138775
  endloop
 endfacet
 facet normal 0.984168 0.0302927 -0.174629
  outer loop
   vertex 0.0277372 -0.0163571 0.0138775
   vertex 0.025885 -0.0152111 0.00363761
   vertex 0.0253705 0.000667047 0.00349263
  endloop
 endfacet
 facet normal 0.988673 0.0514322 -0.141001
  outer loop
   vertex 0.0253705 0.000667047 0.00349263
   vertex 0.0268495 0.000708133 0.0138775
   vertex 0.0277372 -0.0163571 0.0138775
  endloop
 endfacet
 facet normal 0.968029 -0.249402 -0.0267905
  outer loop
   vertex 0.0238128 -0.0334223 0.0309427
   vertex 0.0233405 -0.0334223 0.0138775
   vertex 0.0277372 -0.0163571 0.0138775
  endloop
 endfacet
 facet normal 0.966248 -0.255457 -0.0332547
  outer loop
   vertex 0.0277372 -0.0163571 0.0138775
   vertex 0.0283245 -0.0163571 0.0309427
   vertex 0.0238128 -0.0334223 0.0309427
  endloop
 endfacet
 facet normal 0.997639 0.0594714 -0.034335
  outer loop
   vertex 0.0283245 -0.0163571 0.0309427
   vertex 0.0277372 -0.0163571 0.0138775
   vertex 0.0273072 0.000708133 0.0309427
  endloop
 endfacet
 facet normal 0.998291 0.0519326 -0.0267798
  outer loop
   vertex 0.0273072 0.000708133 0.0309427
   vertex 0.0277372 -0.0163571 0.0138775
   vertex 0.0268495 0.000708133 0.0138775
  endloop
 endfacet
 facet normal 0.294435 -0.954613 0.0449775
  outer loop
   vertex 0.001555 -0.0435229 0.048008
   vertex 0.001555 -0.044327 0.0309427
   vertex 0.0186202 -0.0390635 0.0309427
  endloop
 endfacet
 facet normal 0.267543 -0.963417 0.0157855
  outer loop
   vertex 0.0186202 -0.0390635 0.0309427
   vertex 0.0186202 -0.0387838 0.048008
   vertex 0.001555 -0.0435229 0.048008
  endloop
 endfacet
 facet normal 0.735706 -0.67721 0.011096
  outer loop
   vertex 0.0186202 -0.0387838 0.048008
   vertex 0.0186202 -0.0390635 0.0309427
   vertex 0.0238128 -0.0334223 0.0309427
  endloop
 endfacet
 facet normal 0.709194 -0.70499 -0.00569905
  outer loop
   vertex 0.0238128 -0.0334223 0.0309427
   vertex 0.02395 -0.0334223 0.048008
   vertex 0.0186202 -0.0387838 0.048008
  endloop
 endfacet
 facet normal 0.267408 -0.96293 0.0354679
  outer loop
   vertex 0.001555 -0.0428943 0.0650732
   vertex 0.001555 -0.0435229 0.048008
   vertex 0.0186202 -0.0387838 0.048008
  endloop
 endfacet
 facet normal 0.242023 -0.970235 0.00832287
  outer loop
   vertex 0.0186202 -0.0387838 0.048008
   vertex 0.0186202 -0.0386375 0.0650732
   vertex 0.001555 -0.0428943 0.0650732
  endloop
 endfacet
 facet normal 0.709193 -0.704989 0.00604753
  outer loop
   vertex 0.0186202 -0.0386375 0.0650732
   vertex 0.0186202 -0.0387838 0.048008
   vertex 0.02395 -0.0334223 0.048008
  endloop
 endfacet
 facet normal 0.683894 -0.729522 -0.00935105
  outer loop
   vertex 0.02395 -0.0334223 0.048008
   vertex 0.0241833 -0.0334223 0.0650732
   vertex 0.0186202 -0.0386375 0.0650732
  endloop
 endfacet
 facet normal 0.966754 -0.255591 -0.00776879
  outer loop
   vertex 0.02395 -0.0334223 0.048008
   vertex 0.0238128 -0.0334223 0.0309427
   vertex 0.0283245 -0.0163571 0.0309427
  endloop
 endfacet
 facet normal 0.96099 -0.275085 -0.0287405
  outer loop
   vertex 0.0283245 -0.0163571 0.0309427
   vertex 0.0288349 -0.0163571 0.048008
   vertex 0.02395 -0.0334223 0.048008
  endloop
 endfacet
 facet normal 0.997783 0.05948 -0.0298408
  outer loop
   vertex 0.0288349 -0.0163571 0.048008
   vertex 0.0283245 -0.0163571 0.0309427
   vertex 0.0273072 0.000708133 0.0309427
  endloop
 endfacet
 facet normal 0.99799 0.0482007 -0.0411386
  outer loop
   vertex 0.0273072 0.000708133 0.0309427
   vertex 0.0280107 0.000708133 0.048008
   vertex 0.0288349 -0.0163571 0.048008
  endloop
 endfacet
 facet normal 0.961304 -0.275175 -0.0131442
  outer loop
   vertex 0.0241833 -0.0334223 0.0650732
   vertex 0.02395 -0.0334223 0.048008
   vertex 0.0288349 -0.0163571 0.048008
  endloop
 endfacet
 facet normal 0.956503 -0.290227 -0.0295054
  outer loop
   vertex 0.0288349 -0.0163571 0.048008
   vertex 0.0293613 -0.0163571 0.0650732
   vertex 0.0241833 -0.0334223 0.0650732
  endloop
 endfacet
 facet normal 0.998457 0.0462067 -0.0307995
  outer loop
   vertex 0.0293613 -0.0163571 0.0650732
   vertex 0.0288349 -0.0163571 0.048008
   vertex 0.0285716 0.000708133 0.0650732
  endloop
 endfacet
 facet normal 0.998298 0.0482156 -0.0328109
  outer loop
   vertex 0.0285716 0.000708133 0.0650732
   vertex 0.0288349 -0.0163571 0.048008
   vertex 0.0280107 0.000708133 0.048008
  endloop
 endfacet
 facet normal -0.980175 -0.0392878 -0.1942
  outer loop
   vertex -0.0237193 0.0177734 0.0138775
   vertex -0.0217121 0.0164764 0.00400907
   vertex -0.0211564 0.000661441 0.00440404
  endloop
 endfacet
 facet normal -0.981824 -0.0449641 -0.184393
  outer loop
   vertex -0.0211564 0.000661441 0.00440404
   vertex -0.0229377 0.000708133 0.0138775
   vertex -0.0237193 0.0177734 0.0138775
  endloop
 endfacet
 facet normal -0.946808 0.23548 -0.219328
  outer loop
   vertex -0.0194313 0.0348386 0.0138775
   vertex -0.0175885 0.0325005 0.00341222
   vertex -0.0217121 0.0164764 0.00400907
  endloop
 endfacet
 facet normal -0.94532 0.237532 -0.223491
  outer loop
   vertex -0.0217121 0.0164764 0.00400907
   vertex -0.0237193 0.0177734 0.0138775
   vertex -0.0194313 0.0348386 0.0138775
  endloop
 endfacet
 facet normal -0.998783 -0.0457408 0.0184692
  outer loop
   vertex -0.0234037 0.0177734 0.0309427
   vertex -0.0237193 0.0177734 0.0138775
   vertex -0.0229377 0.000708133 0.0138775
  endloop
 endfacet
 facet normal -0.997668 -0.0599263 0.0326852
  outer loop
   vertex -0.0229377 0.000708133 0.0138775
   vertex -0.0223787 0.000708133 0.0309427
   vertex -0.0234037 0.0177734 0.0309427
  endloop
 endfacet
 facet normal -0.969724 0.243664 0.0162034
  outer loop
   vertex -0.0191461 0.0348386 0.0309427
   vertex -0.0194313 0.0348386 0.0138775
   vertex -0.0237193 0.0177734 0.0138775
  endloop
 endfacet
 facet normal -0.970103 0.24203 0.0179389
  outer loop
   vertex -0.0237193 0.0177734 0.0138775
   vertex -0.0234037 0.0177734 0.0309427
   vertex -0.0191461 0.0348386 0.0309427
  endloop
 endfacet
 facet normal -0.751348 0.605175 -0.263134
  outer loop
   vertex -0.0155102 0.0397067 0.0138775
   vertex -0.0140805 0.0368944 0.00332709
   vertex -0.0194313 0.0348386 0.0138775
  endloop
 endfacet
 facet normal -0.755694 0.598159 -0.266706
  outer loop
   vertex -0.0194313 0.0348386 0.0138775
   vertex -0.0140805 0.0368944 0.00332709
   vertex -0.0175885 0.0325005 0.00341222
  endloop
 endfacet
 facet normal -0.314531 0.907891 -0.277137
  outer loop
   vertex 0.001555 0.0455318 0.0138775
   vertex 0.00184688 0.0423859 0.00324035
   vertex -0.0140805 0.0368944 0.00332709
  endloop
 endfacet
 facet normal -0.309751 0.907455 -0.283864
  outer loop
   vertex -0.0140805 0.0368944 0.00332709
   vertex -0.0155102 0.0397067 0.0138775
   vertex 0.001555 0.0455318 0.0138775
  endloop
 endfacet
 facet normal -0.778733 0.627232 0.0124082
  outer loop
   vertex -0.0155102 0.0393691 0.0309427
   vertex -0.0155102 0.0397067 0.0138775
   vertex -0.0194313 0.0348386 0.0138775
  endloop
 endfacet
 facet normal -0.779839 0.625845 0.0130306
  outer loop
   vertex -0.0194313 0.0348386 0.0138775
   vertex -0.0191461 0.0348386 0.0309427
   vertex -0.0155102 0.0393691 0.0309427
  endloop
 endfacet
 facet normal -0.323017 0.946318 -0.0119398
  outer loop
   vertex 0.001555 0.0457471 0.0309427
   vertex 0.001555 0.0455318 0.0138775
   vertex -0.0155102 0.0397067 0.0138775
  endloop
 endfacet
 facet normal -0.350029 0.936556 0.0185274
  outer loop
   vertex -0.0155102 0.0397067 0.0138775
   vertex -0.0155102 0.0393691 0.0309427
   vertex 0.001555 0.0457471 0.0309427
  endloop
 endfacet
 facet normal -0.997996 -0.0576249 0.0261423
  outer loop
   vertex -0.0229567 0.0177734 0.048008
   vertex -0.0234037 0.0177734 0.0309427
   vertex -0.0219713 0.000708133 0.048008
  endloop
 endfacet
 facet normal -0.997918 -0.0599413 0.0238193
  outer loop
   vertex -0.0219713 0.000708133 0.048008
   vertex -0.0234037 0.0177734 0.0309427
   vertex -0.0223787 0.000708133 0.0309427
  endloop
 endfacet
 facet normal -0.968197 0.248142 0.031949
  outer loop
   vertex -0.018583 0.0348386 0.048008
   vertex -0.0191461 0.0348386 0.0309427
   vertex -0.0229567 0.0177734 0.048008
  endloop
 endfacet
 facet normal -0.969946 0.241991 0.0254075
  outer loop
   vertex -0.0229567 0.0177734 0.048008
   vertex -0.0191461 0.0348386 0.0309427
   vertex -0.0234037 0.0177734 0.0309427
  endloop
 endfacet
 facet normal -0.9975 -0.0575963 0.0409512
  outer loop
   vertex -0.0222561 0.0177734 0.0650732
   vertex -0.0229567 0.0177734 0.048008
   vertex -0.0219713 0.000708133 0.048008
  endloop
 endfacet
 facet normal -0.996993 -0.0624796 0.0458429
  outer loop
   vertex -0.0219713 0.000708133 0.048008
   vertex -0.0211866 0.000708133 0.0650732
   vertex -0.0222561 0.0177734 0.0650732
  endloop
 endfacet
 facet normal -0.973002 0.229886 0.0204581
  outer loop
   vertex -0.0182242 0.0348386 0.0650732
   vertex -0.018583 0.0348386 0.048008
   vertex -0.0222561 0.0177734 0.0650732
  endloop
 endfacet
 facet normal -0.967926 0.248073 0.0397371
  outer loop
   vertex -0.0222561 0.0177734 0.0650732
   vertex -0.018583 0.0348386 0.048008
   vertex -0.0229567 0.0177734 0.048008
  endloop
 endfacet
 facet normal -0.779695 0.625729 0.0232184
  outer loop
   vertex -0.0155102 0.0387359 0.048008
   vertex -0.0155102 0.0393691 0.0309427
   vertex -0.0191461 0.0348386 0.0309427
  endloop
 endfacet
 facet normal -0.785017 0.618933 0.0259043
  outer loop
   vertex -0.0191461 0.0348386 0.0309427
   vertex -0.018583 0.0348386 0.048008
   vertex -0.0155102 0.0387359 0.048008
  endloop
 endfacet
 facet normal -0.350081 0.936695 -0.00679561
  outer loop
   vertex 0.001555 0.0458709 0.048008
   vertex 0.001555 0.0457471 0.0309427
   vertex -0.0155102 0.0393691 0.0309427
  endloop
 endfacet
 facet normal -0.385517 0.922066 0.0342143
  outer loop
   vertex -0.0155102 0.0393691 0.0309427
   vertex -0.0155102 0.0387359 0.048008
   vertex 0.001555 0.0458709 0.048008
  endloop
 endfacet
 facet normal -0.785233 0.619104 0.0109632
  outer loop
   vertex -0.0155102 0.0384337 0.0650732
   vertex -0.0155102 0.0387359 0.048008
   vertex -0.018583 0.0348386 0.048008
  endloop
 endfacet
 facet normal -0.798006 0.602416 0.0167786
  outer loop
   vertex -0.018583 0.0348386 0.048008
   vertex -0.0182242 0.0348386 0.0650732
   vertex -0.0155102 0.0384337 0.0650732
  endloop
 endfacet
 facet normal -0.385733 0.922583 -0.00717779
  outer loop
   vertex 0.001555 0.0460037 0.0650732
   vertex 0.001555 0.0458709 0.048008
   vertex -0.0155102 0.0387359 0.048008
  endloop
 endfacet
 facet normal -0.405433 0.913982 0.016185
  outer loop
   vertex -0.0155102 0.0387359 0.048008
   vertex -0.0155102 0.0384337 0.0650732
   vertex 0.001555 0.0460037 0.0650732
  endloop
 endfacet
 facet normal 0.988055 0.0622876 -0.140955
  outer loop
   vertex 0.0268495 0.000708133 0.0138775
   vertex 0.0253705 0.000667047 0.00349263
   vertex 0.0243385 0.016604 0.00330095
  endloop
 endfacet
 facet normal 0.988757 0.0673554 -0.133506
  outer loop
   vertex 0.0243385 0.016604 0.00330095
   vertex 0.0256869 0.0177734 0.0138775
   vertex 0.0268495 0.000708133 0.0138775
  endloop
 endfacet
 facet normal 0.93964 0.305751 -0.1536
  outer loop
   vertex 0.0256869 0.0177734 0.0138775
   vertex 0.0243385 0.016604 0.00330095
   vertex 0.0201341 0.0348386 0.0138775
  endloop
 endfacet
 facet normal 0.932351 0.31643 -0.174909
  outer loop
   vertex 0.0201341 0.0348386 0.0138775
   vertex 0.0243385 0.016604 0.00330095
   vertex 0.0188579 0.0326229 0.00306661
  endloop
 endfacet
 facet normal 0.997331 0.0679395 -0.026754
  outer loop
   vertex 0.0273072 0.000708133 0.0309427
   vertex 0.0268495 0.000708133 0.0138775
   vertex 0.0256869 0.0177734 0.0138775
  endloop
 endfacet
 facet normal 0.997258 0.0696417 -0.0250449
  outer loop
   vertex 0.0256869 0.0177734 0.0138775
   vertex 0.0261155 0.0177734 0.0309427
   vertex 0.0273072 0.000708133 0.0309427
  endloop
 endfacet
 facet normal 0.954162 0.298329 -0.0239626
  outer loop
   vertex 0.0261155 0.0177734 0.0309427
   vertex 0.0256869 0.0177734 0.0138775
   vertex 0.0207799 0.0348386 0.0309427
  endloop
 endfacet
 facet normal 0.950309 0.309223 -0.0359643
  outer loop
   vertex 0.0207799 0.0348386 0.0309427
   vertex 0.0256869 0.0177734 0.0138775
   vertex 0.0201341 0.0348386 0.0138775
  endloop
 endfacet
 facet normal 0.447147 0.855732 -0.260351
  outer loop
   vertex 0.0186202 0.0368575 0.0138775
   vertex 0.0178158 0.0339882 0.00306495
   vertex 0.00184688 0.0423859 0.00324035
  endloop
 endfacet
 facet normal 0.439467 0.864585 -0.24364
  outer loop
   vertex 0.00184688 0.0423859 0.00324035
   vertex 0.001555 0.0455318 0.0138775
   vertex 0.0186202 0.0368575 0.0138775
  endloop
 endfacet
 facet normal 0.776765 0.592624 -0.21315
  outer loop
   vertex 0.0201341 0.0348386 0.0138775
   vertex 0.0188579 0.0326229 0.00306661
   vertex 0.0178158 0.0339882 0.00306495
  endloop
 endfacet
 facet normal 0.781593 0.586053 -0.213668
  outer loop
   vertex 0.0178158 0.0339882 0.00306495
   vertex 0.0186202 0.0368575 0.0138775
   vertex 0.0201341 0.0348386 0.0138775
  endloop
 endfacet
 facet normal 0.452661 0.890542 -0.0450855
  outer loop
   vertex 0.0186202 0.0377215 0.0309427
   vertex 0.0186202 0.0368575 0.0138775
   vertex 0.001555 0.0455318 0.0138775
  endloop
 endfacet
 facet normal 0.425547 0.904864 -0.0114168
  outer loop
   vertex 0.001555 0.0455318 0.0138775
   vertex 0.001555 0.0457471 0.0309427
   vertex 0.0186202 0.0377215 0.0309427
  endloop
 endfacet
 facet normal 0.799703 0.599633 -0.0302646
  outer loop
   vertex 0.0207799 0.0348386 0.0309427
   vertex 0.0201341 0.0348386 0.0138775
   vertex 0.0186202 0.0368575 0.0138775
  endloop
 endfacet
 facet normal 0.799965 0.599279 -0.0303397
  outer loop
   vertex 0.0186202 0.0368575 0.0138775
   vertex 0.0186202 0.0377215 0.0309427
   vertex 0.0207799 0.0348386 0.0309427
  endloop
 endfacet
 facet normal 0.996728 0.0696047 -0.0410866
  outer loop
   vertex 0.0280107 0.000708133 0.048008
   vertex 0.0273072 0.000708133 0.0309427
   vertex 0.0261155 0.0177734 0.0309427
  endloop
 endfacet
 facet normal 0.996815 0.0661188 -0.0445823
  outer loop
   vertex 0.0261155 0.0177734 0.0309427
   vertex 0.0268788 0.0177734 0.048008
   vertex 0.0280107 0.000708133 0.048008
  endloop
 endfacet
 facet normal 0.950632 0.307394 -0.0425167
  outer loop
   vertex 0.0268788 0.0177734 0.048008
   vertex 0.0261155 0.0177734 0.0309427
   vertex 0.0213606 0.0348386 0.048008
  endloop
 endfacet
 facet normal 0.953933 0.298258 -0.0324606
  outer loop
   vertex 0.0213606 0.0348386 0.048008
   vertex 0.0261155 0.0177734 0.0309427
   vertex 0.0207799 0.0348386 0.0309427
  endloop
 endfacet
 facet normal 0.997813 0.0573863 -0.0327949
  outer loop
   vertex 0.0285716 0.000708133 0.0650732
   vertex 0.0280107 0.000708133 0.048008
   vertex 0.0275901 0.0177734 0.0650732
  endloop
 endfacet
 facet normal 0.996945 0.0661274 -0.0415574
  outer loop
   vertex 0.0275901 0.0177734 0.0650732
   vertex 0.0280107 0.000708133 0.048008
   vertex 0.0268788 0.0177734 0.048008
  endloop
 endfacet
 facet normal 0.952652 0.301459 -0.039711
  outer loop
   vertex 0.0275901 0.0177734 0.0650732
   vertex 0.0268788 0.0177734 0.048008
   vertex 0.02219 0.0348386 0.0650732
  endloop
 endfacet
 facet normal 0.950477 0.307344 -0.0461931
  outer loop
   vertex 0.02219 0.0348386 0.0650732
   vertex 0.0268788 0.0177734 0.048008
   vertex 0.0213606 0.0348386 0.048008
  endloop
 endfacet
 facet normal 0.425323 0.904386 -0.0344392
  outer loop
   vertex 0.0186202 0.0383713 0.048008
   vertex 0.0186202 0.0377215 0.0309427
   vertex 0.001555 0.0457471 0.0309427
  endloop
 endfacet
 facet normal 0.402318 0.915476 -0.00664167
  outer loop
   vertex 0.001555 0.0457471 0.0309427
   vertex 0.001555 0.0458709 0.048008
   vertex 0.0186202 0.0383713 0.048008
  endloop
 endfacet
 facet normal 0.800037 0.599333 -0.0272238
  outer loop
   vertex 0.0213606 0.0348386 0.048008
   vertex 0.0207799 0.0348386 0.0309427
   vertex 0.0186202 0.0377215 0.0309427
  endloop
 endfacet
 facet normal 0.78993 0.612753 -0.0233337
  outer loop
   vertex 0.0186202 0.0377215 0.0309427
   vertex 0.0186202 0.0383713 0.048008
   vertex 0.0213606 0.0348386 0.048008
  endloop
 endfacet
 facet normal 0.401886 0.914493 -0.0468031
  outer loop
   vertex 0.0186202 0.0392447 0.0650732
   vertex 0.0186202 0.0383713 0.048008
   vertex 0.001555 0.0458709 0.048008
  endloop
 endfacet
 facet normal 0.368224 0.929709 -0.00723323
  outer loop
   vertex 0.001555 0.0458709 0.048008
   vertex 0.001555 0.0460037 0.0650732
   vertex 0.0186202 0.0392447 0.0650732
  endloop
 endfacet
 facet normal 0.789563 0.612468 -0.0383727
  outer loop
   vertex 0.02219 0.0348386 0.0650732
   vertex 0.0213606 0.0348386 0.048008
   vertex 0.0186202 0.0383713 0.048008
  endloop
 endfacet
 facet normal 0.776595 0.629177 -0.0322009
  outer loop
   vertex 0.0186202 0.0383713 0.048008
   vertex 0.0186202 0.0392447 0.0650732
   vertex 0.02219 0.0348386 0.0650732
  endloop
 endfacet
 facet normal -0.492702 -0.87007 0.0149058
  outer loop
   vertex -0.0146555 -0.0334223 0.0821384
   vertex -0.0151718 -0.0334223 0.0650732
   vertex 0.001555 -0.0428943 0.0650732
  endloop
 endfacet
 facet normal -0.499114 -0.86651 0.00683876
  outer loop
   vertex 0.001555 -0.0428943 0.0650732
   vertex 0.001555 -0.0427597 0.0821384
   vertex -0.0146555 -0.0334223 0.0821384
  endloop
 endfacet
 facet normal -0.498942 -0.866212 0.027097
  outer loop
   vertex -0.0137287 -0.0334223 0.0992037
   vertex -0.0146555 -0.0334223 0.0821384
   vertex 0.001555 -0.0427597 0.0821384
  endloop
 endfacet
 facet normal -0.500715 -0.865252 0.0249843
  outer loop
   vertex 0.001555 -0.0427597 0.0821384
   vertex 0.00155805 -0.0422687 0.0992007
   vertex -0.0137287 -0.0334223 0.0992037
  endloop
 endfacet
 facet normal -0.960847 -0.275467 0.0298652
  outer loop
   vertex -0.0198731 -0.0163571 0.0821384
   vertex -0.0204035 -0.0163571 0.0650732
   vertex -0.0155102 -0.0315751 0.0821384
  endloop
 endfacet
 facet normal -0.957914 -0.286406 0.0192692
  outer loop
   vertex -0.0155102 -0.0315751 0.0821384
   vertex -0.0204035 -0.0163571 0.0650732
   vertex -0.0155102 -0.0327232 0.0650732
  endloop
 endfacet
 facet normal -0.90719 -0.419771 0.0282418
  outer loop
   vertex -0.0155102 -0.0315751 0.0821384
   vertex -0.0155102 -0.0327232 0.0650732
   vertex -0.0146555 -0.0334223 0.0821384
  endloop
 endfacet
 facet normal -0.899728 -0.435601 0.0272196
  outer loop
   vertex -0.0146555 -0.0334223 0.0821384
   vertex -0.0155102 -0.0327232 0.0650732
   vertex -0.0151718 -0.0334223 0.0650732
  endloop
 endfacet
 facet normal -0.998604 -0.0458253 0.0262707
  outer loop
   vertex -0.0207377 0.000708133 0.0821384
   vertex -0.0211866 0.000708133 0.0650732
   vertex -0.0204035 -0.0163571 0.0650732
  endloop
 endfacet
 facet normal -0.998238 -0.0505749 0.0310275
  outer loop
   vertex -0.0204035 -0.0163571 0.0650732
   vertex -0.0198731 -0.0163571 0.0821384
   vertex -0.0207377 0.000708133 0.0821384
  endloop
 endfacet
 facet normal -0.965671 -0.254119 0.0538872
  outer loop
   vertex -0.0189208 -0.0163571 0.0992037
   vertex -0.0198731 -0.0163571 0.0821384
   vertex -0.0155102 -0.0293176 0.0992037
  endloop
 endfacet
 facet normal -0.960637 -0.275407 0.0364332
  outer loop
   vertex -0.0155102 -0.0293176 0.0992037
   vertex -0.0198731 -0.0163571 0.0821384
   vertex -0.0155102 -0.0315751 0.0821384
  endloop
 endfacet
 facet normal -0.916057 -0.397584 0.0525958
  outer loop
   vertex -0.0155102 -0.0293176 0.0992037
   vertex -0.0155102 -0.0315751 0.0821384
   vertex -0.0137287 -0.0334223 0.0992037
  endloop
 endfacet
 facet normal -0.906452 -0.41943 0.0492283
  outer loop
   vertex -0.0137287 -0.0334223 0.0992037
   vertex -0.0155102 -0.0315751 0.0821384
   vertex -0.0146555 -0.0334223 0.0821384
  endloop
 endfacet
 facet normal -0.997491 -0.050537 0.0495832
  outer loop
   vertex -0.0198894 0.000708133 0.0992037
   vertex -0.0207377 0.000708133 0.0821384
   vertex -0.0198731 -0.0163571 0.0821384
  endloop
 endfacet
 facet normal -0.996847 -0.05658 0.0556269
  outer loop
   vertex -0.0198731 -0.0163571 0.0821384
   vertex -0.0189208 -0.0163571 0.0992037
   vertex -0.0198894 0.000708133 0.0992037
  endloop
 endfacet
 facet normal -0.496886 -0.85867 0.12566
  outer loop
   vertex -0.00941298 -0.0334223 0.116269
   vertex -0.0137287 -0.0334223 0.0992037
   vertex 0.00155805 -0.0422687 0.0992007
  endloop
 endfacet
 facet normal -0.466335 -0.871464 0.151929
  outer loop
   vertex 0.00155805 -0.0422687 0.0992007
   vertex 0.001555 -0.0392915 0.116269
   vertex -0.00941298 -0.0334223 0.116269
  endloop
 endfacet
 facet normal -0.370491 -0.692356 0.619176
  outer loop
   vertex -0.00206673 -0.0278309 0.126917
   vertex -0.00941298 -0.0334223 0.116269
   vertex 0.001555 -0.0392915 0.116269
  endloop
 endfacet
 facet normal -0.302474 -0.698323 0.648733
  outer loop
   vertex 0.001555 -0.0392915 0.116269
   vertex 0.00230292 -0.0297675 0.12687
   vertex -0.00206673 -0.0278309 0.126917
  endloop
 endfacet
 facet normal -0.949058 -0.249748 0.192133
  outer loop
   vertex -0.0155102 -0.0293176 0.0992037
   vertex -0.0155102 -0.0163571 0.116051
   vertex -0.0189208 -0.0163571 0.0992037
  endloop
 endfacet
 facet normal -0.919319 -0.325638 0.220935
  outer loop
   vertex -0.0154578 -0.0163571 0.116269
   vertex -0.0155102 -0.0163571 0.116051
   vertex -0.00941298 -0.0334223 0.116269
  endloop
 endfacet
 facet normal -0.91315 -0.323081 0.248548
  outer loop
   vertex -0.00941298 -0.0334223 0.116269
   vertex -0.0155102 -0.0163571 0.116051
   vertex -0.0155102 -0.0293176 0.0992037
  endloop
 endfacet
 facet normal -0.893596 -0.387835 0.225986
  outer loop
   vertex -0.00941298 -0.0334223 0.116269
   vertex -0.0155102 -0.0293176 0.0992037
   vertex -0.0137287 -0.0334223 0.0992037
  endloop
 endfacet
 facet normal -0.979112 -0.0592111 0.19451
  outer loop
   vertex -0.0164993 0.000708133 0.116269
   vertex -0.0198894 0.000708133 0.0992037
   vertex -0.0155102 -0.0156461 0.116269
  endloop
 endfacet
 facet normal -0.978647 -0.055547 0.197902
  outer loop
   vertex -0.0155102 -0.0156461 0.116269
   vertex -0.0198894 0.000708133 0.0992037
   vertex -0.0189208 -0.0163571 0.0992037
  endloop
 endfacet
 facet normal -0.978303 -0.060811 0.198053
  outer loop
   vertex -0.0155102 -0.0156461 0.116269
   vertex -0.0189208 -0.0163571 0.0992037
   vertex -0.0155102 -0.0163571 0.116051
  endloop
 endfacet
 facet normal -0.969823 -0.0715634 0.233072
  outer loop
   vertex -0.0155102 -0.0156461 0.116269
   vertex -0.0155102 -0.0163571 0.116051
   vertex -0.0154578 -0.0163571 0.116269
  endloop
 endfacet
 facet normal -0.777525 -0.275412 0.565334
  outer loop
   vertex -0.00883718 -0.0135391 0.126747
   vertex -0.0154578 -0.0163571 0.116269
   vertex -0.00941298 -0.0334223 0.116269
  endloop
 endfacet
 facet normal -0.692661 -0.320465 0.64616
  outer loop
   vertex -0.00941298 -0.0334223 0.116269
   vertex -0.00206673 -0.0278309 0.126917
   vertex -0.00883718 -0.0135391 0.126747
  endloop
 endfacet
 facet normal -0.961515 -0.058147 0.268528
  outer loop
   vertex -0.0155102 -0.0156461 0.116269
   vertex -0.0155102 0.000708133 0.11981
   vertex -0.0164993 0.000708133 0.116269
  endloop
 endfacet
 facet normal -0.770446 -0.0514668 0.635424
  outer loop
   vertex -0.00974194 0.000605674 0.126796
   vertex -0.0155102 0.000708133 0.11981
   vertex -0.00883718 -0.0135391 0.126747
  endloop
 endfacet
 facet normal -0.826441 -0.119155 0.550271
  outer loop
   vertex -0.00883718 -0.0135391 0.126747
   vertex -0.0155102 0.000708133 0.11981
   vertex -0.0155102 -0.0156461 0.116269
  endloop
 endfacet
 facet normal -0.836204 -0.0617037 0.544936
  outer loop
   vertex -0.00883718 -0.0135391 0.126747
   vertex -0.0155102 -0.0156461 0.116269
   vertex -0.0154578 -0.0163571 0.116269
  endloop
 endfacet
 facet normal 0.242024 -0.97024 0.00765744
  outer loop
   vertex 0.001555 -0.0427597 0.0821384
   vertex 0.001555 -0.0428943 0.0650732
   vertex 0.0186202 -0.0386375 0.0650732
  endloop
 endfacet
 facet normal 0.22414 -0.974492 -0.0112538
  outer loop
   vertex 0.0186202 -0.0386375 0.0650732
   vertex 0.0186202 -0.0388345 0.0821384
   vertex 0.001555 -0.0427597 0.0821384
  endloop
 endfacet
 facet normal 0.683899 -0.729528 -0.00842484
  outer loop
   vertex 0.0186202 -0.0388345 0.0821384
   vertex 0.0186202 -0.0386375 0.0650732
   vertex 0.0241833 -0.0334223 0.0650732
  endloop
 endfacet
 facet normal 0.661829 -0.749335 -0.0219013
  outer loop
   vertex 0.0241833 -0.0334223 0.0650732
   vertex 0.024748 -0.0334223 0.0821384
   vertex 0.0186202 -0.0388345 0.0821384
  endloop
 endfacet
 facet normal 0.224066 -0.974172 0.0279883
  outer loop
   vertex 0.00155805 -0.0422687 0.0992007
   vertex 0.001555 -0.0427597 0.0821384
   vertex 0.0186202 -0.0388345 0.0821384
  endloop
 endfacet
 facet normal 0.207415 -0.978196 0.0105268
  outer loop
   vertex 0.0186202 -0.0388345 0.0821384
   vertex 0.0186202 -0.0386509 0.0992037
   vertex 0.00155805 -0.0422687 0.0992007
  endloop
 endfacet
 facet normal 0.661966 -0.74949 0.00806556
  outer loop
   vertex 0.0186202 -0.0386509 0.0992037
   vertex 0.0186202 -0.0388345 0.0821384
   vertex 0.024748 -0.0334223 0.0821384
  endloop
 endfacet
 facet normal 0.647035 -0.762459 -0.00126952
  outer loop
   vertex 0.024748 -0.0334223 0.0821384
   vertex 0.0247815 -0.0334223 0.0992037
   vertex 0.0186202 -0.0386509 0.0992037
  endloop
 endfacet
 facet normal 0.95644 -0.290208 -0.0316506
  outer loop
   vertex 0.024748 -0.0334223 0.0821384
   vertex 0.0241833 -0.0334223 0.0650732
   vertex 0.0293613 -0.0163571 0.0650732
  endloop
 endfacet
 facet normal 0.949804 -0.308532 -0.0517681
  outer loop
   vertex 0.0293613 -0.0163571 0.0650732
   vertex 0.0302914 -0.0163571 0.0821384
   vertex 0.024748 -0.0334223 0.0821384
  endloop
 endfacet
 facet normal 0.997774 0.0385996 -0.0543826
  outer loop
   vertex 0.0302914 -0.0163571 0.0821384
   vertex 0.0293613 -0.0163571 0.0650732
   vertex 0.0296313 0.000708133 0.0821384
  endloop
 endfacet
 facet normal 0.997015 0.0461399 -0.061911
  outer loop
   vertex 0.0296313 0.000708133 0.0821384
   vertex 0.0293613 -0.0163571 0.0650732
   vertex 0.0285716 0.000708133 0.0650732
  endloop
 endfacet
 facet normal 0.951078 -0.308946 -0.00186607
  outer loop
   vertex 0.0247815 -0.0334223 0.0992037
   vertex 0.024748 -0.0334223 0.0821384
   vertex 0.0302914 -0.0163571 0.0821384
  endloop
 endfacet
 facet normal 0.947688 -0.318934 -0.0129489
  outer loop
   vertex 0.0302914 -0.0163571 0.0821384
   vertex 0.0305246 -0.0163571 0.0992037
   vertex 0.0247815 -0.0334223 0.0992037
  endloop
 endfacet
 facet normal 0.999159 0.0386532 -0.0136522
  outer loop
   vertex 0.0305246 -0.0163571 0.0992037
   vertex 0.0302914 -0.0163571 0.0821384
   vertex 0.0296313 0.000708133 0.0821384
  endloop
 endfacet
 facet normal 0.998952 0.0452273 -0.00706715
  outer loop
   vertex 0.0296313 0.000708133 0.0821384
   vertex 0.029752 0.000708133 0.0992037
   vertex 0.0305246 -0.0163571 0.0992037
  endloop
 endfacet
 facet normal 0.204443 -0.964312 0.168245
  outer loop
   vertex 0.001555 -0.0392915 0.116269
   vertex 0.00155805 -0.0422687 0.0992007
   vertex 0.0186202 -0.0386509 0.0992037
  endloop
 endfacet
 facet normal 0.222728 -0.956814 0.186811
  outer loop
   vertex 0.0186202 -0.0386509 0.0992037
   vertex 0.0186202 -0.035319 0.116269
   vertex 0.001555 -0.0392915 0.116269
  endloop
 endfacet
 facet normal 0.627131 -0.76448 0.149259
  outer loop
   vertex 0.0186202 -0.035319 0.116269
   vertex 0.0186202 -0.0386509 0.0992037
   vertex 0.0209323 -0.0334223 0.116269
  endloop
 endfacet
 facet normal 0.640253 -0.754467 0.144414
  outer loop
   vertex 0.0209323 -0.0334223 0.116269
   vertex 0.0186202 -0.0386509 0.0992037
   vertex 0.0247815 -0.0334223 0.0992037
  endloop
 endfacet
 facet normal 0.000865811 -0.743906 0.668284
  outer loop
   vertex 0.00230292 -0.0297675 0.12687
   vertex 0.001555 -0.0392915 0.116269
   vertex 0.0186202 -0.0334223 0.12278
  endloop
 endfacet
 facet normal 0.112992 -0.473156 0.873703
  outer loop
   vertex 0.00230292 -0.0297675 0.12687
   vertex 0.0186202 -0.0334223 0.12278
   vertex 0.0143274 -0.0275032 0.126541
  endloop
 endfacet
 facet normal 0.218111 -0.93698 0.272939
  outer loop
   vertex 0.0186202 -0.0334223 0.12278
   vertex 0.001555 -0.0392915 0.116269
   vertex 0.0186202 -0.035319 0.116269
  endloop
 endfacet
 facet normal 0.618738 -0.754249 0.21971
  outer loop
   vertex 0.0209323 -0.0334223 0.116269
   vertex 0.0186202 -0.0334223 0.12278
   vertex 0.0186202 -0.035319 0.116269
  endloop
 endfacet
 facet normal 0.903349 -0.377416 0.203757
  outer loop
   vertex 0.0209323 -0.0334223 0.116269
   vertex 0.0247815 -0.0334223 0.0992037
   vertex 0.0280621 -0.0163571 0.116269
  endloop
 endfacet
 facet normal 0.939027 -0.316019 0.135502
  outer loop
   vertex 0.0280621 -0.0163571 0.116269
   vertex 0.0247815 -0.0334223 0.0992037
   vertex 0.0305246 -0.0163571 0.0992037
  endloop
 endfacet
 facet normal 0.988756 0.0447658 0.142678
  outer loop
   vertex 0.0280621 -0.0163571 0.116269
   vertex 0.0305246 -0.0163571 0.0992037
   vertex 0.029752 0.000708133 0.0992037
  endloop
 endfacet
 facet normal 0.984417 0.0656501 0.163133
  outer loop
   vertex 0.029752 0.000708133 0.0992037
   vertex 0.026924 0.000708133 0.116269
   vertex 0.0280621 -0.0163571 0.116269
  endloop
 endfacet
 facet normal 0.371889 -0.290451 0.881667
  outer loop
   vertex 0.0143274 -0.0275032 0.126541
   vertex 0.0186202 -0.0334223 0.12278
   vertex 0.016369 -0.0251146 0.126466
  endloop
 endfacet
 facet normal 0.593624 -0.186509 0.782831
  outer loop
   vertex 0.016369 -0.0251146 0.126466
   vertex 0.0186202 -0.0334223 0.12278
   vertex 0.0210754 -0.0131152 0.125757
  endloop
 endfacet
 facet normal 0.760651 -0.183241 0.622762
  outer loop
   vertex 0.0210754 -0.0131152 0.125757
   vertex 0.0186202 -0.0334223 0.12278
   vertex 0.0280621 -0.0163571 0.116269
  endloop
 endfacet
 facet normal 0.87684 -0.366341 0.311361
  outer loop
   vertex 0.0280621 -0.0163571 0.116269
   vertex 0.0186202 -0.0334223 0.12278
   vertex 0.0209323 -0.0334223 0.116269
  endloop
 endfacet
 facet normal 0.812793 0.0542046 0.580025
  outer loop
   vertex 0.0210754 -0.0131152 0.125757
   vertex 0.0280621 -0.0163571 0.116269
   vertex 0.026924 0.000708133 0.116269
  endloop
 endfacet
 facet normal 0.802159 0.0677814 0.593251
  outer loop
   vertex 0.026924 0.000708133 0.116269
   vertex 0.0199943 0.000587758 0.125653
   vertex 0.0210754 -0.0131152 0.125757
  endloop
 endfacet
 facet normal -0.997818 -0.0625313 0.0212088
  outer loop
   vertex -0.0218934 0.0177734 0.0821384
   vertex -0.0222561 0.0177734 0.0650732
   vertex -0.0211866 0.000708133 0.0650732
  endloop
 endfacet
 facet normal -0.997371 -0.0675423 0.0262383
  outer loop
   vertex -0.0211866 0.000708133 0.0650732
   vertex -0.0207377 0.000708133 0.0821384
   vertex -0.0218934 0.0177734 0.0821384
  endloop
 endfacet
 facet normal -0.977186 0.212372 0.00226798
  outer loop
   vertex -0.0181846 0.0348386 0.0821384
   vertex -0.0182242 0.0348386 0.0650732
   vertex -0.0218934 0.0177734 0.0821384
  endloop
 endfacet
 facet normal -0.972998 0.229885 0.0206812
  outer loop
   vertex -0.0218934 0.0177734 0.0821384
   vertex -0.0182242 0.0348386 0.0650732
   vertex -0.0222561 0.0177734 0.0650732
  endloop
 endfacet
 facet normal -0.996856 -0.0675074 0.0414799
  outer loop
   vertex -0.0211833 0.0177734 0.0992037
   vertex -0.0218934 0.0177734 0.0821384
   vertex -0.0207377 0.000708133 0.0821384
  endloop
 endfacet
 facet normal -0.995916 -0.0755079 0.049505
  outer loop
   vertex -0.0207377 0.000708133 0.0821384
   vertex -0.0198894 0.000708133 0.0992037
   vertex -0.0211833 0.0177734 0.0992037
  endloop
 endfacet
 facet normal -0.976334 0.212187 0.0418069
  outer loop
   vertex -0.0174538 0.0348386 0.0992037
   vertex -0.0181846 0.0348386 0.0821384
   vertex -0.0218934 0.0177734 0.0821384
  endloop
 endfacet
 facet normal -0.976137 0.213325 0.0406177
  outer loop
   vertex -0.0218934 0.0177734 0.0821384
   vertex -0.0211833 0.0177734 0.0992037
   vertex -0.0174538 0.0348386 0.0992037
  endloop
 endfacet
 facet normal -0.798114 0.602498 -0.00319339
  outer loop
   vertex -0.0155102 0.0385241 0.0821384
   vertex -0.0155102 0.0384337 0.0650732
   vertex -0.0182242 0.0348386 0.0650732
  endloop
 endfacet
 facet normal -0.809367 0.5873 0.00187849
  outer loop
   vertex -0.0182242 0.0348386 0.0650732
   vertex -0.0181846 0.0348386 0.0821384
   vertex -0.0155102 0.0385241 0.0821384
  endloop
 endfacet
 facet normal -0.40884 0.912563 -0.00887343
  outer loop
   vertex 0.0015815 0.0461822 0.0822141
   vertex 0.001555 0.0460037 0.0650732
   vertex -0.0155102 0.0385241 0.0821384
  endloop
 endfacet
 facet normal -0.405481 0.914091 -0.00484491
  outer loop
   vertex -0.0155102 0.0385241 0.0821384
   vertex 0.001555 0.0460037 0.0650732
   vertex -0.0155102 0.0384337 0.0650732
  endloop
 endfacet
 facet normal -0.808944 0.586993 0.0323745
  outer loop
   vertex -0.0155102 0.0375829 0.0992037
   vertex -0.0155102 0.0385241 0.0821384
   vertex -0.0181846 0.0348386 0.0821384
  endloop
 endfacet
 facet normal -0.81557 0.577603 0.0349229
  outer loop
   vertex -0.0181846 0.0348386 0.0821384
   vertex -0.0174538 0.0348386 0.0992037
   vertex -0.0155102 0.0375829 0.0992037
  endloop
 endfacet
 facet normal -0.408367 0.910824 0.0603008
  outer loop
   vertex 0.00166643 0.0451027 0.0990948
   vertex 0.0015815 0.0461822 0.0822141
   vertex -0.0155102 0.0385241 0.0821384
  endloop
 endfacet
 facet normal -0.400262 0.91501 0.0504657
  outer loop
   vertex -0.0155102 0.0385241 0.0821384
   vertex -0.0155102 0.0375829 0.0992037
   vertex 0.00166643 0.0451027 0.0990948
  endloop
 endfacet
 facet normal -0.979099 -0.074233 0.189352
  outer loop
   vertex -0.017883 0.0177734 0.116269
   vertex -0.0211833 0.0177734 0.0992037
   vertex -0.0198894 0.000708133 0.0992037
  endloop
 endfacet
 facet normal -0.977745 -0.0792791 0.194239
  outer loop
   vertex -0.0198894 0.000708133 0.0992037
   vertex -0.0164993 0.000708133 0.116269
   vertex -0.017883 0.0177734 0.116269
  endloop
 endfacet
 facet normal -0.960132 0.233281 0.154035
  outer loop
   vertex -0.0155102 0.0298542 0.116269
   vertex -0.0155102 0.0348386 0.10872
   vertex -0.0211833 0.0177734 0.0992037
  endloop
 endfacet
 facet normal -0.964048 0.189343 0.186441
  outer loop
   vertex -0.0155102 0.0298542 0.116269
   vertex -0.0211833 0.0177734 0.0992037
   vertex -0.017883 0.0177734 0.116269
  endloop
 endfacet
 facet normal -0.958059 0.209374 0.195669
  outer loop
   vertex -0.0211833 0.0177734 0.0992037
   vertex -0.0155102 0.0348386 0.10872
   vertex -0.0174538 0.0348386 0.0992037
  endloop
 endfacet
 facet normal -0.893829 0.374193 0.24708
  outer loop
   vertex -0.0134236 0.0348386 0.116269
   vertex -0.0155102 0.0348386 0.10872
   vertex -0.0155102 0.0298542 0.116269
  endloop
 endfacet
 facet normal -0.960221 -0.0778582 0.268167
  outer loop
   vertex -0.0164993 0.000708133 0.116269
   vertex -0.0155102 0.000708133 0.11981
   vertex -0.017883 0.0177734 0.116269
  endloop
 endfacet
 facet normal -0.95807 -0.0758701 0.276306
  outer loop
   vertex -0.017883 0.0177734 0.116269
   vertex -0.0155102 0.000708133 0.11981
   vertex -0.0152498 0.0175595 0.125341
  endloop
 endfacet
 facet normal -0.306754 -0.0179636 0.951619
  outer loop
   vertex -0.0107689 0.0147418 0.126732
   vertex -0.0152498 0.0175595 0.125341
   vertex -0.00974194 0.000605674 0.126796
  endloop
 endfacet
 facet normal -0.758021 -0.192771 0.623092
  outer loop
   vertex -0.00974194 0.000605674 0.126796
   vertex -0.0152498 0.0175595 0.125341
   vertex -0.0155102 0.000708133 0.11981
  endloop
 endfacet
 facet normal -0.942584 0.185128 0.277964
  outer loop
   vertex -0.017883 0.0177734 0.116269
   vertex -0.0152498 0.0175595 0.125341
   vertex -0.0155102 0.0298542 0.116269
  endloop
 endfacet
 facet normal -0.689523 0.288662 0.664253
  outer loop
   vertex -0.00557696 0.0290553 0.126927
   vertex -0.0134236 0.0348386 0.116269
   vertex -0.0155102 0.0298542 0.116269
  endloop
 endfacet
 facet normal -0.636589 0.449106 0.626944
  outer loop
   vertex -0.00557696 0.0290553 0.126927
   vertex -0.0155102 0.0298542 0.116269
   vertex -0.0152498 0.0175595 0.125341
  endloop
 endfacet
 facet normal -0.250697 0.0777575 0.964938
  outer loop
   vertex -0.00557696 0.0290553 0.126927
   vertex -0.0152498 0.0175595 0.125341
   vertex -0.0107689 0.0147418 0.126732
  endloop
 endfacet
 facet normal -0.804964 0.570092 0.164402
  outer loop
   vertex -0.0174538 0.0348386 0.0992037
   vertex -0.0155102 0.0348386 0.10872
   vertex -0.0155102 0.0375829 0.0992037
  endloop
 endfacet
 facet normal -0.466686 0.878312 0.103786
  outer loop
   vertex 0.001555 0.0430141 0.116269
   vertex 0.00166643 0.0451027 0.0990948
   vertex -0.0155102 0.0348386 0.10872
  endloop
 endfacet
 facet normal -0.474948 0.870165 0.131289
  outer loop
   vertex 0.001555 0.0430141 0.116269
   vertex -0.0155102 0.0348386 0.10872
   vertex -0.0134236 0.0348386 0.116269
  endloop
 endfacet
 facet normal -0.386363 0.886232 0.255569
  outer loop
   vertex -0.0155102 0.0348386 0.10872
   vertex 0.00166643 0.0451027 0.0990948
   vertex -0.0155102 0.0375829 0.0992037
  endloop
 endfacet
 facet normal -0.226277 0.66153 0.714966
  outer loop
   vertex 0.00233159 0.0320906 0.126622
   vertex 0.001555 0.0430141 0.116269
   vertex -0.00557696 0.0290553 0.126927
  endloop
 endfacet
 facet normal -0.368838 0.675759 0.638207
  outer loop
   vertex -0.00557696 0.0290553 0.126927
   vertex 0.001555 0.0430141 0.116269
   vertex -0.0134236 0.0348386 0.116269
  endloop
 endfacet
 facet normal 0.996437 0.0573072 -0.0618751
  outer loop
   vertex 0.0296313 0.000708133 0.0821384
   vertex 0.0285716 0.000708133 0.0650732
   vertex 0.0275901 0.0177734 0.0650732
  endloop
 endfacet
 facet normal 0.99644 0.0610992 -0.0580835
  outer loop
   vertex 0.0275901 0.0177734 0.0650732
   vertex 0.0285849 0.0177734 0.0821384
   vertex 0.0296313 0.000708133 0.0821384
  endloop
 endfacet
 facet normal 0.955199 0.29068 -0.0556795
  outer loop
   vertex 0.0285849 0.0177734 0.0821384
   vertex 0.0275901 0.0177734 0.0650732
   vertex 0.0233917 0.0348386 0.0821384
  endloop
 endfacet
 facet normal 0.951262 0.301019 -0.0669875
  outer loop
   vertex 0.0233917 0.0348386 0.0821384
   vertex 0.0275901 0.0177734 0.0650732
   vertex 0.02219 0.0348386 0.0650732
  endloop
 endfacet
 facet normal 0.9981 0.061201 -0.00706113
  outer loop
   vertex 0.029752 0.000708133 0.0992037
   vertex 0.0296313 0.000708133 0.0821384
   vertex 0.0285849 0.0177734 0.0821384
  endloop
 endfacet
 facet normal 0.997584 0.0694581 0.00123127
  outer loop
   vertex 0.0285849 0.0177734 0.0821384
   vertex 0.0285638 0.0177734 0.0992037
   vertex 0.029752 0.000708133 0.0992037
  endloop
 endfacet
 facet normal 0.956682 0.291131 0.00118079
  outer loop
   vertex 0.0285638 0.0177734 0.0992037
   vertex 0.0285849 0.0177734 0.0821384
   vertex 0.0233917 0.0348386 0.0821384
  endloop
 endfacet
 facet normal 0.959724 0.280761 -0.0101115
  outer loop
   vertex 0.0233917 0.0348386 0.0821384
   vertex 0.0235715 0.0348386 0.0992037
   vertex 0.0285638 0.0177734 0.0992037
  endloop
 endfacet
 facet normal 0.367279 0.927321 -0.0719883
  outer loop
   vertex 0.0186202 0.0405695 0.0821384
   vertex 0.0186202 0.0392447 0.0650732
   vertex 0.001555 0.0460037 0.0650732
  endloop
 endfacet
 facet normal 0.312812 0.949758 -0.0103767
  outer loop
   vertex 0.001555 0.0460037 0.0650732
   vertex 0.0015815 0.0461822 0.0822141
   vertex 0.0186202 0.0405695 0.0821384
  endloop
 endfacet
 facet normal 0.775837 0.628563 -0.0546341
  outer loop
   vertex 0.0233917 0.0348386 0.0821384
   vertex 0.02219 0.0348386 0.0650732
   vertex 0.0186202 0.0392447 0.0650732
  endloop
 endfacet
 facet normal 0.767558 0.639056 -0.0496102
  outer loop
   vertex 0.0186202 0.0392447 0.0650732
   vertex 0.0186202 0.0405695 0.0821384
   vertex 0.0233917 0.0348386 0.0821384
  endloop
 endfacet
 facet normal 0.312766 0.949695 -0.0159952
  outer loop
   vertex 0.0186202 0.0408569 0.0992037
   vertex 0.0186202 0.0405695 0.0821384
   vertex 0.0015815 0.0461822 0.0822141
  endloop
 endfacet
 facet normal 0.242115 0.968347 0.0607064
  outer loop
   vertex 0.0015815 0.0461822 0.0822141
   vertex 0.00166643 0.0451027 0.0990948
   vertex 0.0186202 0.0408569 0.0992037
  endloop
 endfacet
 facet normal 0.768479 0.639823 -0.00809661
  outer loop
   vertex 0.0235715 0.0348386 0.0992037
   vertex 0.0233917 0.0348386 0.0821384
   vertex 0.0186202 0.0405695 0.0821384
  endloop
 endfacet
 facet normal 0.772202 0.635287 -0.0106998
  outer loop
   vertex 0.0186202 0.0405695 0.0821384
   vertex 0.0186202 0.0408569 0.0992037
   vertex 0.0235715 0.0348386 0.0992037
  endloop
 endfacet
 facet normal 0.984227 0.068528 0.163101
  outer loop
   vertex 0.026924 0.000708133 0.116269
   vertex 0.029752 0.000708133 0.0992037
   vertex 0.0285638 0.0177734 0.0992037
  endloop
 endfacet
 facet normal 0.981647 0.0791722 0.173497
  outer loop
   vertex 0.0285638 0.0177734 0.0992037
   vertex 0.0255477 0.0177734 0.116269
   vertex 0.026924 0.000708133 0.116269
  endloop
 endfacet
 facet normal 0.946256 0.276821 0.167242
  outer loop
   vertex 0.0255477 0.0177734 0.116269
   vertex 0.0285638 0.0177734 0.0992037
   vertex 0.0235715 0.0348386 0.0992037
  endloop
 endfacet
 facet normal 0.933831 0.301166 0.193026
  outer loop
   vertex 0.0235715 0.0348386 0.0992037
   vertex 0.020044 0.0348386 0.116269
   vertex 0.0255477 0.0177734 0.116269
  endloop
 endfacet
 facet normal 0.802342 0.0647108 0.593347
  outer loop
   vertex 0.0199943 0.000587758 0.125653
   vertex 0.026924 0.000708133 0.116269
   vertex 0.0255477 0.0177734 0.116269
  endloop
 endfacet
 facet normal 0.778052 0.0881933 0.621978
  outer loop
   vertex 0.0255477 0.0177734 0.116269
   vertex 0.0186151 0.0141551 0.125454
   vertex 0.0199943 0.000587758 0.125653
  endloop
 endfacet
 facet normal 0.497671 0.251321 0.830157
  outer loop
   vertex 0.0160668 0.022962 0.125545
   vertex 0.0186202 0.0348386 0.120418
   vertex 0.013144 0.0280095 0.125769
  endloop
 endfacet
 facet normal 0.73977 0.207479 0.640073
  outer loop
   vertex 0.0186151 0.0141551 0.125454
   vertex 0.0255477 0.0177734 0.116269
   vertex 0.0160668 0.022962 0.125545
  endloop
 endfacet
 facet normal 0.729331 0.132877 0.671134
  outer loop
   vertex 0.0160668 0.022962 0.125545
   vertex 0.0255477 0.0177734 0.116269
   vertex 0.0186202 0.0348386 0.120418
  endloop
 endfacet
 facet normal 0.904709 0.291774 0.310435
  outer loop
   vertex 0.0186202 0.0348386 0.120418
   vertex 0.0255477 0.0177734 0.116269
   vertex 0.020044 0.0348386 0.116269
  endloop
 endfacet
 facet normal 0.341962 0.911963 0.226683
  outer loop
   vertex 0.0186202 0.0366151 0.116269
   vertex 0.0186202 0.0408569 0.0992037
   vertex 0.001555 0.0430141 0.116269
  endloop
 endfacet
 facet normal 0.240495 0.963363 0.118718
  outer loop
   vertex 0.001555 0.0430141 0.116269
   vertex 0.0186202 0.0408569 0.0992037
   vertex 0.00166643 0.0451027 0.0990948
  endloop
 endfacet
 facet normal 0.770353 0.617414 0.159235
  outer loop
   vertex 0.020044 0.0348386 0.116269
   vertex 0.0235715 0.0348386 0.0992037
   vertex 0.0186202 0.0366151 0.116269
  endloop
 endfacet
 facet normal 0.762793 0.627547 0.155987
  outer loop
   vertex 0.0186202 0.0366151 0.116269
   vertex 0.0235715 0.0348386 0.0992037
   vertex 0.0186202 0.0408569 0.0992037
  endloop
 endfacet
 facet normal 0.244059 0.469212 0.848691
  outer loop
   vertex 0.013144 0.0280095 0.125769
   vertex 0.0186202 0.0348386 0.120418
   vertex 0.00233159 0.0320906 0.126622
  endloop
 endfacet
 facet normal 0.155335 0.68534 0.711463
  outer loop
   vertex 0.00233159 0.0320906 0.126622
   vertex 0.0186202 0.0348386 0.120418
   vertex 0.001555 0.0430141 0.116269
  endloop
 endfacet
 facet normal 0.325891 0.869106 0.372089
  outer loop
   vertex 0.001555 0.0430141 0.116269
   vertex 0.0186202 0.0348386 0.120418
   vertex 0.0186202 0.0366151 0.116269
  endloop
 endfacet
 facet normal 0.753758 0.604114 0.258639
  outer loop
   vertex 0.0186202 0.0366151 0.116269
   vertex 0.0186202 0.0348386 0.120418
   vertex 0.020044 0.0348386 0.116269
  endloop
 endfacet
endsolid
