solid ascii
 facet normal -0.168865 -0.950555 -0.260635
  outer loop
   vertex -0.00714078 -0.0238197 0.0201204
   vertex 0.00237697 -0.0238197 0.0139539
   vertex 0.00237697 -0.0255105 0.0201204
  endloop
 endfacet
 facet normal -0.322427 -0.261519 -0.909752
  outer loop
   vertex -0.0137886 -0.0114373 0.00954528
   vertex -0.00714234 -0.00915971 0.00653505
   vertex -0.00489044 -0.0120767 0.00657548
  endloop
 endfacet
 facet normal -0.32299 -0.223756 -0.919571
  outer loop
   vertex -0.00489044 -0.0120767 0.00657548
   vertex -0.00885668 -0.0176804 0.0093321
   vertex -0.0137886 -0.0114373 0.00954528
  endloop
 endfacet
 facet normal -0.148975 -0.349586 -0.924984
  outer loop
   vertex -0.00885668 -0.0176804 0.0093321
   vertex -0.00489044 -0.0120767 0.00657548
   vertex 0.00448233 -0.0163364 0.00667582
  endloop
 endfacet
 facet normal -0.119391 -0.504788 -0.854947
  outer loop
   vertex 0.00448233 -0.0163364 0.00667582
   vertex 0.00282267 -0.0213432 0.00986376
   vertex -0.00885668 -0.0176804 0.0093321
  endloop
 endfacet
 facet normal -0.316342 -0.15572 -0.935777
  outer loop
   vertex -0.0165938 1.42222e-06 0.0085901
   vertex -0.0095026 0.000194985 0.00616069
   vertex -0.0137886 -0.0114373 0.00954528
  endloop
 endfacet
 facet normal -0.371582 -0.130536 -0.919177
  outer loop
   vertex -0.0137886 -0.0114373 0.00954528
   vertex -0.0095026 0.000194985 0.00616069
   vertex -0.00714234 -0.00915971 0.00653505
  endloop
 endfacet
 facet normal -0.719337 -0.553951 -0.419156
  outer loop
   vertex -0.0195834 -0.0119143 0.0201204
   vertex -0.0137886 -0.0114373 0.00954528
   vertex -0.00885668 -0.0176804 0.0093321
  endloop
 endfacet
 facet normal -0.691135 -0.632929 -0.348903
  outer loop
   vertex -0.00885668 -0.0176804 0.0093321
   vertex -0.00952842 -0.022894 0.0201204
   vertex -0.0195834 -0.0119143 0.0201204
  endloop
 endfacet
 facet normal -0.32678 -0.842813 -0.427646
  outer loop
   vertex -0.00952842 -0.022894 0.0201204
   vertex -0.00885668 -0.0176804 0.0093321
   vertex -0.00714078 -0.0238197 0.0201204
  endloop
 endfacet
 facet normal -0.284755 -0.851909 -0.439506
  outer loop
   vertex -0.00714078 -0.0238197 0.0201204
   vertex -0.00885668 -0.0176804 0.0093321
   vertex 0.00237697 -0.0238197 0.0139539
  endloop
 endfacet
 facet normal -0.233488 -0.820291 -0.522117
  outer loop
   vertex 0.00237697 -0.0238197 0.0139539
   vertex -0.00885668 -0.0176804 0.0093321
   vertex 0.00282267 -0.0213432 0.00986376
  endloop
 endfacet
 facet normal -0.955974 -0.041286 -0.290531
  outer loop
   vertex -0.0200975 -8.91089e-06 0.0201204
   vertex -0.0165938 1.42222e-06 0.0085901
   vertex -0.0195834 -0.0119143 0.0201204
  endloop
 endfacet
 facet normal -0.845095 -0.246848 -0.474216
  outer loop
   vertex -0.0195834 -0.0119143 0.0201204
   vertex -0.0165938 1.42222e-06 0.0085901
   vertex -0.0137886 -0.0114373 0.00954528
  endloop
 endfacet
 facet normal -0.365558 -0.921344 -0.132262
  outer loop
   vertex -0.0121296 -0.0238197 0.0320258
   vertex -0.00952842 -0.0238197 0.0248363
   vertex -0.00952842 -0.0248518 0.0320258
  endloop
 endfacet
 facet normal -0.25773 -0.956413 -0.137296
  outer loop
   vertex -0.00952842 -0.0248518 0.0320258
   vertex -0.00952842 -0.0238197 0.0248363
   vertex 0.00237697 -0.02806 0.0320258
  endloop
 endfacet
 facet normal -0.216554 -0.954627 -0.204428
  outer loop
   vertex 0.00237697 -0.02806 0.0320258
   vertex -0.00952842 -0.0238197 0.0248363
   vertex 0.00237697 -0.0255105 0.0201204
  endloop
 endfacet
 facet normal -0.174228 -0.980746 -0.0882114
  outer loop
   vertex 0.00237697 -0.0255105 0.0201204
   vertex -0.00952842 -0.0238197 0.0248363
   vertex -0.00714078 -0.0238197 0.0201204
  endloop
 endfacet
 facet normal -0.239317 -0.962645 -0.126659
  outer loop
   vertex -0.0184306 -0.0238197 0.0439312
   vertex -0.0121296 -0.0238197 0.0320258
   vertex -0.00952842 -0.0260328 0.0439312
  endloop
 endfacet
 facet normal -0.36724 -0.925583 -0.0918192
  outer loop
   vertex -0.00952842 -0.0260328 0.0439312
   vertex -0.0121296 -0.0238197 0.0320258
   vertex -0.00952842 -0.0248518 0.0320258
  endloop
 endfacet
 facet normal -0.259008 -0.961157 -0.0953482
  outer loop
   vertex -0.00952842 -0.0260328 0.0439312
   vertex -0.00952842 -0.0248518 0.0320258
   vertex 0.00237697 -0.02806 0.0320258
  endloop
 endfacet
 facet normal -0.242967 -0.966866 -0.0783352
  outer loop
   vertex 0.00237697 -0.02806 0.0320258
   vertex 0.00237697 -0.0290246 0.0439312
   vertex -0.00952842 -0.0260328 0.0439312
  endloop
 endfacet
 facet normal -0.911794 -0.323103 -0.25345
  outer loop
   vertex -0.0227919 -0.0119143 0.0320258
   vertex -0.0214338 -0.0119143 0.02714
   vertex -0.0214338 -0.0157468 0.0320258
  endloop
 endfacet
 facet normal -0.971845 -0.0275848 -0.234
  outer loop
   vertex -0.0229481 -8.91089e-06 0.0320258
   vertex -0.0214338 -8.91089e-06 0.0257366
   vertex -0.0214338 -0.0119143 0.02714
  endloop
 endfacet
 facet normal -0.963394 -0.0126419 -0.267793
  outer loop
   vertex -0.0214338 -0.0119143 0.02714
   vertex -0.0227919 -0.0119143 0.0320258
   vertex -0.0229481 -8.91089e-06 0.0320258
  endloop
 endfacet
 facet normal -0.911849 -0.323122 -0.253224
  outer loop
   vertex -0.0260981 -0.0119143 0.0439312
   vertex -0.0227919 -0.0119143 0.0320258
   vertex -0.0214338 -0.0157468 0.0320258
  endloop
 endfacet
 facet normal -0.892827 -0.390746 -0.224003
  outer loop
   vertex -0.0214338 -0.0157468 0.0320258
   vertex -0.0214338 -0.0225718 0.0439312
   vertex -0.0260981 -0.0119143 0.0439312
  endloop
 endfacet
 facet normal -0.992351 -0.0130219 -0.122756
  outer loop
   vertex -0.0244209 -8.91089e-06 0.0439312
   vertex -0.0229481 -8.91089e-06 0.0320258
   vertex -0.0227919 -0.0119143 0.0320258
  endloop
 endfacet
 facet normal -0.95478 0.134509 -0.265146
  outer loop
   vertex -0.0227919 -0.0119143 0.0320258
   vertex -0.0260981 -0.0119143 0.0439312
   vertex -0.0244209 -8.91089e-06 0.0439312
  endloop
 endfacet
 facet normal -0.671515 -0.58302 -0.457335
  outer loop
   vertex -0.0214338 -0.0157468 0.0320258
   vertex -0.0214338 -0.0119143 0.02714
   vertex -0.00952842 -0.0238197 0.0248363
  endloop
 endfacet
 facet normal -0.637678 -0.734939 -0.230718
  outer loop
   vertex -0.0214338 -0.0157468 0.0320258
   vertex -0.00952842 -0.0238197 0.0248363
   vertex -0.0121296 -0.0238197 0.0320258
  endloop
 endfacet
 facet normal -0.712457 -0.676115 -0.187811
  outer loop
   vertex -0.00952842 -0.0238197 0.0248363
   vertex -0.0214338 -0.0119143 0.02714
   vertex -0.0195834 -0.0119143 0.0201204
  endloop
 endfacet
 facet normal -0.731082 -0.669512 -0.131428
  outer loop
   vertex -0.00952842 -0.0238197 0.0248363
   vertex -0.0195834 -0.0119143 0.0201204
   vertex -0.00952842 -0.022894 0.0201204
  endloop
 endfacet
 facet normal -0.355597 -0.917135 -0.180038
  outer loop
   vertex -0.00714078 -0.0238197 0.0201204
   vertex -0.00952842 -0.0238197 0.0248363
   vertex -0.00952842 -0.022894 0.0201204
  endloop
 endfacet
 facet normal -0.966531 -0.0300352 -0.254787
  outer loop
   vertex -0.0195834 -0.0119143 0.0201204
   vertex -0.0214338 -0.0119143 0.02714
   vertex -0.0214338 -8.91089e-06 0.0257366
  endloop
 endfacet
 facet normal -0.971984 -0.0419774 -0.231268
  outer loop
   vertex -0.0214338 -8.91089e-06 0.0257366
   vertex -0.0200975 -8.91089e-06 0.0201204
   vertex -0.0195834 -0.0119143 0.0201204
  endloop
 endfacet
 facet normal -0.339113 -0.816148 -0.467873
  outer loop
   vertex -0.0214338 -0.0225718 0.0439312
   vertex -0.0214338 -0.0157468 0.0320258
   vertex -0.0184306 -0.0238197 0.0439312
  endloop
 endfacet
 facet normal -0.619172 -0.713611 -0.327697
  outer loop
   vertex -0.0184306 -0.0238197 0.0439312
   vertex -0.0214338 -0.0157468 0.0320258
   vertex -0.0121296 -0.0238197 0.0320258
  endloop
 endfacet
 facet normal 0.0927589 -0.960246 -0.263292
  outer loop
   vertex 0.00237697 -0.0255105 0.0201204
   vertex 0.00237697 -0.0238197 0.0139539
   vertex 0.0142824 -0.0238197 0.0181482
  endloop
 endfacet
 facet normal 0.0919387 -0.959204 -0.26735
  outer loop
   vertex 0.0142824 -0.0238197 0.0181482
   vertex 0.0142824 -0.0243694 0.0201204
   vertex 0.00237697 -0.0255105 0.0201204
  endloop
 endfacet
 facet normal 0.35076 -0.902082 -0.251429
  outer loop
   vertex 0.0142824 -0.0243694 0.0201204
   vertex 0.0142824 -0.0238197 0.0181482
   vertex 0.0156961 -0.0238197 0.0201204
  endloop
 endfacet
 facet normal -0.0207002 -0.532085 -0.846438
  outer loop
   vertex 0.00282267 -0.0213432 0.00986376
   vertex 0.00448233 -0.0163364 0.00667582
   vertex 0.014225 -0.020667 0.00915983
  endloop
 endfacet
 facet normal 0.0122176 -0.476696 -0.878983
  outer loop
   vertex 0.014225 -0.020667 0.00915983
   vertex 0.00448233 -0.0163364 0.00667582
   vertex 0.0138297 -0.0152894 0.00623793
  endloop
 endfacet
 facet normal 0.119039 -0.46726 -0.876069
  outer loop
   vertex 0.014225 -0.020667 0.00915983
   vertex 0.0138297 -0.0152894 0.00623793
   vertex 0.0258846 -0.0116368 0.00592776
  endloop
 endfacet
 facet normal 0.440603 -0.747055 -0.497772
  outer loop
   vertex 0.014225 -0.020667 0.00915983
   vertex 0.0258846 -0.0116368 0.00592776
   vertex 0.0261878 -0.012982 0.00821502
  endloop
 endfacet
 facet normal 0.0587941 -0.275516 -0.959497
  outer loop
   vertex 0.0258846 -0.0116368 0.00592776
   vertex 0.0138297 -0.0152894 0.00623793
   vertex 0.0222828 -0.0095446 0.0051063
  endloop
 endfacet
 facet normal 0.110504 -0.192596 -0.975036
  outer loop
   vertex 0.0236455 -0.0079647 0.00494866
   vertex 0.0258846 -0.0116368 0.00592776
   vertex 0.0222828 -0.0095446 0.0051063
  endloop
 endfacet
 facet normal 0.116052 -0.937029 -0.329408
  outer loop
   vertex 0.014225 -0.020667 0.00915983
   vertex 0.0142824 -0.0238197 0.0181482
   vertex 0.00237697 -0.0238197 0.0139539
  endloop
 endfacet
 facet normal 0.0188984 -0.856175 -0.516341
  outer loop
   vertex 0.00237697 -0.0238197 0.0139539
   vertex 0.00282267 -0.0213432 0.00986376
   vertex 0.014225 -0.020667 0.00915983
  endloop
 endfacet
 facet normal 0.48102 -0.806059 -0.344801
  outer loop
   vertex 0.0156961 -0.0238197 0.0201204
   vertex 0.0142824 -0.0238197 0.0181482
   vertex 0.0261878 -0.0175587 0.0201204
  endloop
 endfacet
 facet normal 0.482605 -0.825506 -0.292629
  outer loop
   vertex 0.0261878 -0.0175587 0.0201204
   vertex 0.0142824 -0.0238197 0.0181482
   vertex 0.014225 -0.020667 0.00915983
  endloop
 endfacet
 facet normal 0.496048 -0.810471 -0.311566
  outer loop
   vertex 0.0261878 -0.0175587 0.0201204
   vertex 0.014225 -0.020667 0.00915983
   vertex 0.0261878 -0.012982 0.00821502
  endloop
 endfacet
 facet normal 0.71595 -0.556173 -0.422004
  outer loop
   vertex 0.0261878 -0.012982 0.00821502
   vertex 0.0258846 -0.0116368 0.00592776
   vertex 0.0270172 -0.0119143 0.00821502
  endloop
 endfacet
 facet normal 0.828643 -0.332106 -0.450619
  outer loop
   vertex 0.0270172 -0.0119143 0.00821502
   vertex 0.0258846 -0.0116368 0.00592776
   vertex 0.0317887 -8.91089e-06 0.00821502
  endloop
 endfacet
 facet normal 0.548787 -0.115795 -0.827904
  outer loop
   vertex 0.0317887 -8.91089e-06 0.00821502
   vertex 0.0258846 -0.0116368 0.00592776
   vertex 0.0262911 0.000161585 0.00454703
  endloop
 endfacet
 facet normal 0.22455 -0.120894 -0.966934
  outer loop
   vertex 0.0262911 0.000161585 0.00454703
   vertex 0.0258846 -0.0116368 0.00592776
   vertex 0.0236455 -0.0079647 0.00494866
  endloop
 endfacet
 facet normal 0.732841 -0.635089 -0.244144
  outer loop
   vertex 0.0261878 -0.0175587 0.0201204
   vertex 0.0261878 -0.012982 0.00821502
   vertex 0.0310793 -0.0119143 0.0201204
  endloop
 endfacet
 facet normal 0.762518 -0.592349 -0.26017
  outer loop
   vertex 0.0310793 -0.0119143 0.0201204
   vertex 0.0261878 -0.012982 0.00821502
   vertex 0.0270172 -0.0119143 0.00821502
  endloop
 endfacet
 facet normal 0.884906 -0.354655 -0.301929
  outer loop
   vertex 0.0310793 -0.0119143 0.0201204
   vertex 0.0270172 -0.0119143 0.00821502
   vertex 0.0317887 -8.91089e-06 0.00821502
  endloop
 endfacet
 facet normal 0.890805 -0.34674 -0.293662
  outer loop
   vertex 0.0317887 -8.91089e-06 0.00821502
   vertex 0.0357134 -8.91089e-06 0.0201204
   vertex 0.0310793 -0.0119143 0.0201204
  endloop
 endfacet
 facet normal 0.0744583 -0.975116 -0.208816
  outer loop
   vertex 0.00237697 -0.02806 0.0320258
   vertex 0.00237697 -0.0255105 0.0201204
   vertex 0.0142824 -0.0271509 0.0320258
  endloop
 endfacet
 facet normal 0.0929315 -0.969562 -0.226523
  outer loop
   vertex 0.0142824 -0.0271509 0.0320258
   vertex 0.00237697 -0.0255105 0.0201204
   vertex 0.0142824 -0.0243694 0.0201204
  endloop
 endfacet
 facet normal 0.354104 -0.910682 -0.212767
  outer loop
   vertex 0.0142824 -0.0271509 0.0320258
   vertex 0.0142824 -0.0243694 0.0201204
   vertex 0.0156961 -0.0238197 0.0201204
  endloop
 endfacet
 facet normal 0.391961 -0.896979 -0.204438
  outer loop
   vertex 0.0156961 -0.0238197 0.0201204
   vertex 0.0219057 -0.0238197 0.0320258
   vertex 0.0142824 -0.0271509 0.0320258
  endloop
 endfacet
 facet normal 0.037993 -0.996014 -0.0806967
  outer loop
   vertex 0.00237697 -0.0290246 0.0439312
   vertex 0.00237697 -0.02806 0.0320258
   vertex 0.0142824 -0.0285704 0.0439312
  endloop
 endfacet
 facet normal 0.0756043 -0.990125 -0.118056
  outer loop
   vertex 0.0142824 -0.0285704 0.0439312
   vertex 0.00237697 -0.02806 0.0320258
   vertex 0.0142824 -0.0271509 0.0320258
  endloop
 endfacet
 facet normal 0.398049 -0.910912 -0.108611
  outer loop
   vertex 0.0142824 -0.0285704 0.0439312
   vertex 0.0142824 -0.0271509 0.0320258
   vertex 0.0219057 -0.0238197 0.0320258
  endloop
 endfacet
 facet normal 0.403485 -0.909014 -0.104372
  outer loop
   vertex 0.0219057 -0.0238197 0.0320258
   vertex 0.0249853 -0.0238197 0.0439312
   vertex 0.0142824 -0.0285704 0.0439312
  endloop
 endfacet
 facet normal 0.495067 -0.829598 -0.258216
  outer loop
   vertex 0.0219057 -0.0238197 0.0320258
   vertex 0.0156961 -0.0238197 0.0201204
   vertex 0.0261878 -0.0175587 0.0201204
  endloop
 endfacet
 facet normal 0.533644 -0.812328 -0.235258
  outer loop
   vertex 0.0261878 -0.0175587 0.0201204
   vertex 0.0261878 -0.0210066 0.0320258
   vertex 0.0219057 -0.0238197 0.0320258
  endloop
 endfacet
 facet normal 0.543599 -0.827482 -0.140617
  outer loop
   vertex 0.0249853 -0.0238197 0.0439312
   vertex 0.0219057 -0.0238197 0.0320258
   vertex 0.0261878 -0.0210066 0.0320258
  endloop
 endfacet
 facet normal 0.556722 -0.819266 -0.13735
  outer loop
   vertex 0.0261878 -0.0210066 0.0320258
   vertex 0.0261878 -0.0230026 0.0439312
   vertex 0.0249853 -0.0238197 0.0439312
  endloop
 endfacet
 facet normal 0.716972 -0.669587 -0.193919
  outer loop
   vertex 0.0261878 -0.0210066 0.0320258
   vertex 0.0261878 -0.0175587 0.0201204
   vertex 0.0346792 -0.0119143 0.0320258
  endloop
 endfacet
 facet normal 0.73672 -0.63845 -0.222766
  outer loop
   vertex 0.0346792 -0.0119143 0.0320258
   vertex 0.0261878 -0.0175587 0.0201204
   vertex 0.0310793 -0.0119143 0.0201204
  endloop
 endfacet
 facet normal 0.849981 -0.459866 -0.257013
  outer loop
   vertex 0.0346792 -0.0119143 0.0320258
   vertex 0.0310793 -0.0119143 0.0201204
   vertex 0.0380932 -0.00560417 0.0320258
  endloop
 endfacet
 facet normal 0.88503 -0.274918 -0.375689
  outer loop
   vertex 0.0380932 -0.00560417 0.0320258
   vertex 0.0310793 -0.0119143 0.0201204
   vertex 0.0380932 -8.91089e-06 0.0279314
  endloop
 endfacet
 facet normal 0.896461 -0.348942 -0.273126
  outer loop
   vertex 0.0380932 -8.91089e-06 0.0279314
   vertex 0.0310793 -0.0119143 0.0201204
   vertex 0.0357134 -8.91089e-06 0.0201204
  endloop
 endfacet
 facet normal 0.896417 -0.261736 -0.357675
  outer loop
   vertex 0.0380932 -0.00560417 0.0320258
   vertex 0.0380932 -8.91089e-06 0.0279314
   vertex 0.0397269 -8.91089e-06 0.0320258
  endloop
 endfacet
 facet normal 0.726107 -0.678118 -0.113686
  outer loop
   vertex 0.0261878 -0.0230026 0.0439312
   vertex 0.0261878 -0.0210066 0.0320258
   vertex 0.0346792 -0.0119143 0.0320258
  endloop
 endfacet
 facet normal 0.699761 -0.698197 -0.151179
  outer loop
   vertex 0.0346792 -0.0119143 0.0320258
   vertex 0.0372513 -0.0119143 0.0439312
   vertex 0.0261878 -0.0230026 0.0439312
  endloop
 endfacet
 facet normal 0.796133 -0.580163 -0.172
  outer loop
   vertex 0.0372513 -0.0119143 0.0439312
   vertex 0.0346792 -0.0119143 0.0320258
   vertex 0.0380932 -0.010759 0.0439312
  endloop
 endfacet
 facet normal 0.861432 -0.466061 -0.201797
  outer loop
   vertex 0.0380932 -0.010759 0.0439312
   vertex 0.0346792 -0.0119143 0.0320258
   vertex 0.0380932 -0.00560417 0.0320258
  endloop
 endfacet
 facet normal 0.871447 -0.450108 -0.19489
  outer loop
   vertex 0.0380932 -0.010759 0.0439312
   vertex 0.0380932 -0.00560417 0.0320258
   vertex 0.0436718 3.66638e-05 0.0439427
  endloop
 endfacet
 facet normal 0.915124 -0.267198 -0.301916
  outer loop
   vertex 0.0436718 3.66638e-05 0.0439427
   vertex 0.0380932 -0.00560417 0.0320258
   vertex 0.0397269 -8.91089e-06 0.0320258
  endloop
 endfacet
 facet normal -0.398422 0.0511056 -0.915777
  outer loop
   vertex -0.0134578 0.0118012 0.00852914
   vertex -0.00675786 0.00980057 0.0055026
   vertex -0.0095026 0.000194985 0.00616069
  endloop
 endfacet
 facet normal -0.325014 0.0815116 -0.94219
  outer loop
   vertex -0.0095026 0.000194985 0.00616069
   vertex -0.0165938 1.42222e-06 0.0085901
   vertex -0.0134578 0.0118012 0.00852914
  endloop
 endfacet
 facet normal -0.363539 0.192824 -0.911405
  outer loop
   vertex -0.00952842 0.0177246 0.00821502
   vertex -0.00545427 0.0117575 0.00532748
   vertex -0.0134578 0.0118012 0.00852914
  endloop
 endfacet
 facet normal -0.365772 0.161636 -0.916561
  outer loop
   vertex -0.0134578 0.0118012 0.00852914
   vertex -0.00545427 0.0117575 0.00532748
   vertex -0.00675786 0.00980057 0.0055026
  endloop
 endfacet
 facet normal -0.423961 0.588328 -0.688569
  outer loop
   vertex -0.001095 0.0238019 0.00821502
   vertex 0.00273799 0.0229546 0.00513101
   vertex -0.00952842 0.0177246 0.00821502
  endloop
 endfacet
 facet normal -0.325797 0.222243 -0.918947
  outer loop
   vertex -0.00952842 0.0177246 0.00821502
   vertex 0.00273799 0.0229546 0.00513101
   vertex -0.00545427 0.0117575 0.00532748
  endloop
 endfacet
 facet normal -0.186908 0.119642 -0.975065
  outer loop
   vertex -0.00545427 0.0117575 0.00532748
   vertex 0.00273799 0.0229546 0.00513101
   vertex 0.00401824 0.0189214 0.00439074
  endloop
 endfacet
 facet normal -0.920494 0.24306 -0.305963
  outer loop
   vertex -0.0172854 0.0118965 0.0201204
   vertex -0.0134578 0.0118012 0.00852914
   vertex -0.0165938 1.42222e-06 0.0085901
  endloop
 endfacet
 facet normal -0.933316 0.220454 -0.283411
  outer loop
   vertex -0.0165938 1.42222e-06 0.0085901
   vertex -0.0200975 -8.91089e-06 0.0201204
   vertex -0.0172854 0.0118965 0.0201204
  endloop
 endfacet
 facet normal -0.785491 0.574282 -0.230659
  outer loop
   vertex -0.00952842 0.0225063 0.0201204
   vertex -0.00952842 0.0177246 0.00821502
   vertex -0.0172854 0.0118965 0.0201204
  endloop
 endfacet
 facet normal -0.808628 0.522022 -0.271317
  outer loop
   vertex -0.0172854 0.0118965 0.0201204
   vertex -0.00952842 0.0177246 0.00821502
   vertex -0.0134578 0.0118012 0.00852914
  endloop
 endfacet
 facet normal -0.553775 0.76847 -0.320603
  outer loop
   vertex -0.00798753 0.0238019 0.0201204
   vertex -0.001095 0.0238019 0.00821502
   vertex -0.00952842 0.0177246 0.00821502
  endloop
 endfacet
 facet normal -0.615124 0.731623 -0.293854
  outer loop
   vertex -0.00952842 0.0177246 0.00821502
   vertex -0.00952842 0.0225063 0.0201204
   vertex -0.00798753 0.0238019 0.0201204
  endloop
 endfacet
 facet normal -0.274308 0.784317 -0.556418
  outer loop
   vertex 0.00237697 0.0250162 0.00821502
   vertex 0.00273799 0.0229546 0.00513101
   vertex -0.001095 0.0238019 0.00821502
  endloop
 endfacet
 facet normal -0.316655 0.905398 -0.282816
  outer loop
   vertex 0.00237697 0.028735 0.0201204
   vertex 0.00237697 0.0250162 0.00821502
   vertex -0.001095 0.0238019 0.00821502
  endloop
 endfacet
 facet normal -0.417052 0.876225 -0.241449
  outer loop
   vertex -0.001095 0.0238019 0.00821502
   vertex -0.00798753 0.0238019 0.0201204
   vertex 0.00237697 0.028735 0.0201204
  endloop
 endfacet
 facet normal -0.95054 0.20998 -0.22887
  outer loop
   vertex -0.0214338 0.00684613 0.0320258
   vertex -0.0214338 -8.91089e-06 0.0257366
   vertex -0.0229481 -8.91089e-06 0.0320258
  endloop
 endfacet
 facet normal -0.963309 0.249955 -0.0977706
  outer loop
   vertex -0.0214338 0.011503 0.0439312
   vertex -0.0214338 0.00684613 0.0320258
   vertex -0.0244209 -8.91089e-06 0.0439312
  endloop
 endfacet
 facet normal -0.969412 0.214149 -0.119919
  outer loop
   vertex -0.0244209 -8.91089e-06 0.0439312
   vertex -0.0214338 0.00684613 0.0320258
   vertex -0.0229481 -8.91089e-06 0.0320258
  endloop
 endfacet
 facet normal -0.934804 0.292314 -0.201727
  outer loop
   vertex -0.0198546 0.0118965 0.0320258
   vertex -0.0172854 0.0118965 0.0201204
   vertex -0.0214338 0.00684613 0.0320258
  endloop
 endfacet
 facet normal -0.946658 0.217848 -0.237447
  outer loop
   vertex -0.0214338 0.00684613 0.0320258
   vertex -0.0172854 0.0118965 0.0201204
   vertex -0.0214338 -8.91089e-06 0.0257366
  endloop
 endfacet
 facet normal -0.948131 0.223953 -0.225593
  outer loop
   vertex -0.0214338 -8.91089e-06 0.0257366
   vertex -0.0172854 0.0118965 0.0201204
   vertex -0.0200975 -8.91089e-06 0.0201204
  endloop
 endfacet
 facet normal -0.79862 0.565522 -0.20589
  outer loop
   vertex -0.0114241 0.0238019 0.0320258
   vertex -0.00952842 0.0238019 0.0246728
   vertex -0.0198546 0.0118965 0.0320258
  endloop
 endfacet
 facet normal -0.794194 0.582995 -0.171384
  outer loop
   vertex -0.0198546 0.0118965 0.0320258
   vertex -0.00952842 0.0238019 0.0246728
   vertex -0.0172854 0.0118965 0.0201204
  endloop
 endfacet
 facet normal -0.796108 0.582045 -0.165639
  outer loop
   vertex -0.0172854 0.0118965 0.0201204
   vertex -0.00952842 0.0238019 0.0246728
   vertex -0.00952842 0.0225063 0.0201204
  endloop
 endfacet
 facet normal -0.628791 0.747879 -0.212833
  outer loop
   vertex -0.00952842 0.0225063 0.0201204
   vertex -0.00952842 0.0238019 0.0246728
   vertex -0.00798753 0.0238019 0.0201204
  endloop
 endfacet
 facet normal -0.940014 0.321501 -0.114066
  outer loop
   vertex -0.0212992 0.0118965 0.0439312
   vertex -0.0198546 0.0118965 0.0320258
   vertex -0.0214338 0.011503 0.0439312
  endloop
 endfacet
 facet normal -0.947988 0.296436 -0.115952
  outer loop
   vertex -0.0214338 0.011503 0.0439312
   vertex -0.0198546 0.0118965 0.0320258
   vertex -0.0214338 0.00684613 0.0320258
  endloop
 endfacet
 facet normal -0.810128 0.573671 -0.120808
  outer loop
   vertex -0.0131994 0.0238019 0.0439312
   vertex -0.0114241 0.0238019 0.0320258
   vertex -0.0198546 0.0118965 0.0320258
  endloop
 endfacet
 facet normal -0.822663 0.559696 -0.0998258
  outer loop
   vertex -0.0198546 0.0118965 0.0320258
   vertex -0.0212992 0.0118965 0.0439312
   vertex -0.0131994 0.0238019 0.0439312
  endloop
 endfacet
 facet normal -0.637082 0.753094 -0.164244
  outer loop
   vertex -0.00952842 0.0254055 0.0320258
   vertex -0.00952842 0.0238019 0.0246728
   vertex -0.0114241 0.0238019 0.0320258
  endloop
 endfacet
 facet normal -0.434409 0.882625 -0.179618
  outer loop
   vertex 0.00237697 0.0311578 0.0320258
   vertex 0.00237697 0.028735 0.0201204
   vertex -0.00952842 0.0238019 0.0246728
  endloop
 endfacet
 facet normal -0.426895 0.883533 -0.192692
  outer loop
   vertex 0.00237697 0.0311578 0.0320258
   vertex -0.00952842 0.0238019 0.0246728
   vertex -0.00952842 0.0254055 0.0320258
  endloop
 endfacet
 facet normal -0.425291 0.893535 -0.143952
  outer loop
   vertex -0.00952842 0.0238019 0.0246728
   vertex 0.00237697 0.028735 0.0201204
   vertex -0.00798753 0.0238019 0.0201204
  endloop
 endfacet
 facet normal -0.643064 0.760166 -0.0928289
  outer loop
   vertex -0.00952842 0.0268594 0.0439312
   vertex -0.00952842 0.0254055 0.0320258
   vertex -0.0114241 0.0238019 0.0320258
  endloop
 endfacet
 facet normal -0.637081 0.76492 -0.0950025
  outer loop
   vertex -0.0114241 0.0238019 0.0320258
   vertex -0.0131994 0.0238019 0.0439312
   vertex -0.00952842 0.0268594 0.0439312
  endloop
 endfacet
 facet normal -0.413316 0.906516 -0.0860169
  outer loop
   vertex 0.00237697 0.0322875 0.0439312
   vertex 0.00237697 0.0311578 0.0320258
   vertex -0.00952842 0.0268594 0.0439312
  endloop
 endfacet
 facet normal -0.432442 0.895013 -0.109296
  outer loop
   vertex -0.00952842 0.0268594 0.0439312
   vertex 0.00237697 0.0311578 0.0320258
   vertex -0.00952842 0.0254055 0.0320258
  endloop
 endfacet
 facet normal -0.0223024 0.173635 -0.984557
  outer loop
   vertex 0.00401824 0.0189214 0.00439074
   vertex 0.00273799 0.0229546 0.00513101
   vertex 0.0139243 0.0189028 0.00416306
  endloop
 endfacet
 facet normal 0.00344604 0.241349 -0.970432
  outer loop
   vertex 0.0139243 0.0189028 0.00416306
   vertex 0.00273799 0.0229546 0.00513101
   vertex 0.0142279 0.0232325 0.00524093
  endloop
 endfacet
 facet normal 0.34493 0.400082 -0.849092
  outer loop
   vertex 0.0261878 0.0169294 0.00821502
   vertex 0.0238466 0.0105648 0.00426509
   vertex 0.0139243 0.0189028 0.00416306
  endloop
 endfacet
 facet normal 0.336664 0.20518 -0.918999
  outer loop
   vertex 0.0261878 0.0169294 0.00821502
   vertex 0.0139243 0.0189028 0.00416306
   vertex 0.0142279 0.0232325 0.00524093
  endloop
 endfacet
 facet normal 0.485704 0.64136 -0.593926
  outer loop
   vertex 0.0261878 0.0169294 0.00821502
   vertex 0.0142279 0.0232325 0.00524093
   vertex 0.0171128 0.0238019 0.00821502
  endloop
 endfacet
 facet normal 0.596426 0.732277 -0.328704
  outer loop
   vertex 0.0261878 0.0222734 0.0201204
   vertex 0.0261878 0.0169294 0.00821502
   vertex 0.0243112 0.0238019 0.0201204
  endloop
 endfacet
 facet normal 0.567117 0.748865 -0.342899
  outer loop
   vertex 0.0243112 0.0238019 0.0201204
   vertex 0.0261878 0.0169294 0.00821502
   vertex 0.0171128 0.0238019 0.00821502
  endloop
 endfacet
 facet normal 0.553956 0.111041 -0.825108
  outer loop
   vertex 0.0317887 -8.91089e-06 0.00821502
   vertex 0.0262911 0.000161585 0.00454703
   vertex 0.0294022 0.0118965 0.00821502
  endloop
 endfacet
 facet normal 0.571679 0.102871 -0.814003
  outer loop
   vertex 0.0294022 0.0118965 0.00821502
   vertex 0.0262911 0.000161585 0.00454703
   vertex 0.0241214 0.0100801 0.00427672
  endloop
 endfacet
 facet normal 0.513592 0.271571 -0.813924
  outer loop
   vertex 0.0294022 0.0118965 0.00821502
   vertex 0.0241214 0.0100801 0.00427672
   vertex 0.0238466 0.0105648 0.00426509
  endloop
 endfacet
 facet normal 0.497627 0.31783 -0.807064
  outer loop
   vertex 0.0238466 0.0105648 0.00426509
   vertex 0.0261878 0.0169294 0.00821502
   vertex 0.0294022 0.0118965 0.00821502
  endloop
 endfacet
 facet normal 0.937626 0.159114 -0.309097
  outer loop
   vertex 0.0357134 -8.91089e-06 0.0201204
   vertex 0.0317887 -8.91089e-06 0.00821502
   vertex 0.0336931 0.0118965 0.0201204
  endloop
 endfacet
 facet normal 0.92447 0.185311 -0.33319
  outer loop
   vertex 0.0336931 0.0118965 0.0201204
   vertex 0.0317887 -8.91089e-06 0.00821502
   vertex 0.0294022 0.0118965 0.00821502
  endloop
 endfacet
 facet normal 0.806393 0.515036 -0.290633
  outer loop
   vertex 0.0336931 0.0118965 0.0201204
   vertex 0.0294022 0.0118965 0.00821502
   vertex 0.0261878 0.0169294 0.00821502
  endloop
 endfacet
 facet normal 0.783617 0.566763 -0.254408
  outer loop
   vertex 0.0261878 0.0169294 0.00821502
   vertex 0.0261878 0.0222734 0.0201204
   vertex 0.0336931 0.0118965 0.0201204
  endloop
 endfacet
 facet normal 0.00858178 0.87227 -0.488949
  outer loop
   vertex 0.0142824 0.024899 0.00821502
   vertex 0.0142279 0.0232325 0.00524093
   vertex 0.00237697 0.0250162 0.00821502
  endloop
 endfacet
 facet normal -0.0147592 0.830461 -0.556882
  outer loop
   vertex 0.00237697 0.0250162 0.00821502
   vertex 0.0142279 0.0232325 0.00524093
   vertex 0.00273799 0.0229546 0.00513101
  endloop
 endfacet
 facet normal 0.31947 0.824147 -0.467675
  outer loop
   vertex 0.0171128 0.0238019 0.00821502
   vertex 0.0142279 0.0232325 0.00524093
   vertex 0.0142824 0.024899 0.00821502
  endloop
 endfacet
 facet normal 0.00937009 0.952395 -0.304723
  outer loop
   vertex 0.0142824 0.0287082 0.0201204
   vertex 0.0142824 0.024899 0.00821502
   vertex 0.00237697 0.0250162 0.00821502
  endloop
 endfacet
 facet normal 0.00214807 0.954514 -0.298158
  outer loop
   vertex 0.00237697 0.0250162 0.00821502
   vertex 0.00237697 0.028735 0.0201204
   vertex 0.0142824 0.0287082 0.0201204
  endloop
 endfacet
 facet normal 0.424717 0.868142 -0.256799
  outer loop
   vertex 0.0243112 0.0238019 0.0201204
   vertex 0.0171128 0.0238019 0.00821502
   vertex 0.0142824 0.0287082 0.0201204
  endloop
 endfacet
 facet normal 0.346348 0.893487 -0.285875
  outer loop
   vertex 0.0142824 0.0287082 0.0201204
   vertex 0.0171128 0.0238019 0.00821502
   vertex 0.0142824 0.024899 0.00821502
  endloop
 endfacet
 facet normal 0.613853 0.753674 -0.234862
  outer loop
   vertex 0.0243112 0.0238019 0.0201204
   vertex 0.0261878 0.0238019 0.0250252
   vertex 0.0261878 0.0222734 0.0201204
  endloop
 endfacet
 facet normal 0.937886 0.137707 -0.318443
  outer loop
   vertex 0.0380932 0.00945939 0.0320258
   vertex 0.0380932 -8.91089e-06 0.0279314
   vertex 0.0336931 0.0118965 0.0201204
  endloop
 endfacet
 facet normal 0.89262 0.372711 -0.253607
  outer loop
   vertex 0.0380932 0.00945939 0.0320258
   vertex 0.0336931 0.0118965 0.0201204
   vertex 0.0370756 0.0118965 0.0320258
  endloop
 endfacet
 facet normal 0.944228 0.160234 -0.287679
  outer loop
   vertex 0.0336931 0.0118965 0.0201204
   vertex 0.0380932 -8.91089e-06 0.0279314
   vertex 0.0357134 -8.91089e-06 0.0201204
  endloop
 endfacet
 facet normal 0.917093 0.158239 -0.365925
  outer loop
   vertex 0.0397269 -8.91089e-06 0.0320258
   vertex 0.0380932 -8.91089e-06 0.0279314
   vertex 0.0380932 0.00945939 0.0320258
  endloop
 endfacet
 facet normal 0.781007 0.583772 -0.221896
  outer loop
   vertex 0.0370756 0.0118965 0.0320258
   vertex 0.0336931 0.0118965 0.0201204
   vertex 0.0261878 0.0238019 0.0250252
  endloop
 endfacet
 facet normal 0.781961 0.578197 -0.232861
  outer loop
   vertex 0.0370756 0.0118965 0.0320258
   vertex 0.0261878 0.0238019 0.0250252
   vertex 0.0282725 0.0238019 0.0320258
  endloop
 endfacet
 facet normal 0.797095 0.576511 -0.179654
  outer loop
   vertex 0.0261878 0.0238019 0.0250252
   vertex 0.0336931 0.0118965 0.0201204
   vertex 0.0261878 0.0222734 0.0201204
  endloop
 endfacet
 facet normal 0.905002 0.377881 -0.19539
  outer loop
   vertex 0.0370756 0.0118965 0.0320258
   vertex 0.0380932 0.0118965 0.0367391
   vertex 0.0380932 0.00945939 0.0320258
  endloop
 endfacet
 facet normal 0.919618 0.247088 -0.30537
  outer loop
   vertex 0.0436718 3.66638e-05 0.0439427
   vertex 0.0397269 -8.91089e-06 0.0320258
   vertex 0.0380932 0.0118965 0.0367391
  endloop
 endfacet
 facet normal 0.927403 0.302986 -0.219371
  outer loop
   vertex 0.0436718 3.66638e-05 0.0439427
   vertex 0.0380932 0.0118965 0.0367391
   vertex 0.0397944 0.0118965 0.0439312
  endloop
 endfacet
 facet normal 0.981652 0.169379 -0.0875802
  outer loop
   vertex 0.0380932 0.0118965 0.0367391
   vertex 0.0397269 -8.91089e-06 0.0320258
   vertex 0.0380932 0.00945939 0.0320258
  endloop
 endfacet
 facet normal 0.773861 0.60417 -0.190047
  outer loop
   vertex 0.0380932 0.0141588 0.0439312
   vertex 0.0380932 0.0118965 0.0367391
   vertex 0.0305646 0.0238019 0.0439312
  endloop
 endfacet
 facet normal 0.791169 0.592325 -0.152323
  outer loop
   vertex 0.0305646 0.0238019 0.0439312
   vertex 0.0380932 0.0118965 0.0367391
   vertex 0.0282725 0.0238019 0.0320258
  endloop
 endfacet
 facet normal 0.792217 0.58578 -0.171039
  outer loop
   vertex 0.0282725 0.0238019 0.0320258
   vertex 0.0380932 0.0118965 0.0367391
   vertex 0.0370756 0.0118965 0.0320258
  endloop
 endfacet
 facet normal 0.785327 0.590553 -0.185764
  outer loop
   vertex 0.0397944 0.0118965 0.0439312
   vertex 0.0380932 0.0118965 0.0367391
   vertex 0.0380932 0.0141588 0.0439312
  endloop
 endfacet
 facet normal 0.00219839 0.976874 -0.213803
  outer loop
   vertex 0.0142824 0.0313139 0.0320258
   vertex 0.0142824 0.0287082 0.0201204
   vertex 0.00237697 0.028735 0.0201204
  endloop
 endfacet
 facet normal -0.0128452 0.979834 -0.199401
  outer loop
   vertex 0.00237697 0.028735 0.0201204
   vertex 0.00237697 0.0311578 0.0320258
   vertex 0.0142824 0.0313139 0.0320258
  endloop
 endfacet
 facet normal 0.421298 0.878311 -0.226005
  outer loop
   vertex 0.0261878 0.0256033 0.0320258
   vertex 0.0261878 0.0238019 0.0250252
   vertex 0.0142824 0.0313139 0.0320258
  endloop
 endfacet
 facet normal 0.440497 0.876995 -0.191943
  outer loop
   vertex 0.0142824 0.0313139 0.0320258
   vertex 0.0261878 0.0238019 0.0250252
   vertex 0.0142824 0.0287082 0.0201204
  endloop
 endfacet
 facet normal 0.433371 0.885831 -0.165809
  outer loop
   vertex 0.0142824 0.0287082 0.0201204
   vertex 0.0261878 0.0238019 0.0250252
   vertex 0.0243112 0.0238019 0.0201204
  endloop
 endfacet
 facet normal -0.0304037 0.993284 -0.111632
  outer loop
   vertex 0.0142824 0.0326519 0.0439312
   vertex 0.0142824 0.0313139 0.0320258
   vertex 0.00237697 0.0322875 0.0439312
  endloop
 endfacet
 facet normal -0.0130499 0.995444 -0.0944551
  outer loop
   vertex 0.00237697 0.0322875 0.0439312
   vertex 0.0142824 0.0313139 0.0320258
   vertex 0.00237697 0.0311578 0.0320258
  endloop
 endfacet
 facet normal 0.427992 0.892268 -0.14381
  outer loop
   vertex 0.0261878 0.0275221 0.0439312
   vertex 0.0261878 0.0256033 0.0320258
   vertex 0.0142824 0.0313139 0.0320258
  endloop
 endfacet
 facet normal 0.39362 0.913522 -0.102668
  outer loop
   vertex 0.0142824 0.0313139 0.0320258
   vertex 0.0142824 0.0326519 0.0439312
   vertex 0.0261878 0.0275221 0.0439312
  endloop
 endfacet
 facet normal 0.641765 0.742708 -0.191112
  outer loop
   vertex 0.0282725 0.0238019 0.0320258
   vertex 0.0261878 0.0238019 0.0250252
   vertex 0.0261878 0.0256033 0.0320258
  endloop
 endfacet
 facet normal 0.64266 0.756095 -0.123731
  outer loop
   vertex 0.0305646 0.0238019 0.0439312
   vertex 0.0282725 0.0238019 0.0320258
   vertex 0.0261878 0.0275221 0.0439312
  endloop
 endfacet
 facet normal 0.649007 0.751089 -0.121055
  outer loop
   vertex 0.0261878 0.0275221 0.0439312
   vertex 0.0282725 0.0238019 0.0320258
   vertex 0.0261878 0.0256033 0.0320258
  endloop
 endfacet
 facet normal -0.224512 -0.734356 -0.640559
  outer loop
   vertex -0.0246817 -0.0238197 0.0558366
   vertex -0.0214338 -0.0238197 0.0546982
   vertex -0.0214338 -0.0248127 0.0558366
  endloop
 endfacet
 facet normal -0.259648 -0.849282 0.459677
  outer loop
   vertex -0.0214338 -0.0248127 0.0558366
   vertex -0.0214338 -0.0238197 0.0576712
   vertex -0.0246817 -0.0238197 0.0558366
  endloop
 endfacet
 facet normal -0.113282 -0.748743 -0.653109
  outer loop
   vertex -0.0214338 -0.0248127 0.0558366
   vertex -0.0214338 -0.0238197 0.0546982
   vertex -0.00952842 -0.0266139 0.0558366
  endloop
 endfacet
 facet normal -0.222426 -0.972974 -0.0620409
  outer loop
   vertex -0.00952842 -0.0266139 0.0558366
   vertex -0.0214338 -0.0238197 0.0546982
   vertex -0.0184306 -0.0238197 0.0439312
  endloop
 endfacet
 facet normal -0.24099 -0.969374 -0.0473148
  outer loop
   vertex -0.00952842 -0.0266139 0.0558366
   vertex -0.0184306 -0.0238197 0.0439312
   vertex -0.00952842 -0.0260328 0.0439312
  endloop
 endfacet
 facet normal -0.243444 -0.968762 -0.047285
  outer loop
   vertex -0.00952842 -0.0266139 0.0558366
   vertex -0.00952842 -0.0260328 0.0439312
   vertex 0.00237697 -0.0290246 0.0439312
  endloop
 endfacet
 facet normal -0.217999 -0.975735 -0.0204285
  outer loop
   vertex 0.00237697 -0.0290246 0.0439312
   vertex 0.00237697 -0.0292738 0.0558366
   vertex -0.00952842 -0.0266139 0.0558366
  endloop
 endfacet
 facet normal -0.190784 -0.956834 0.219251
  outer loop
   vertex -0.00986034 -0.0238197 0.067742
   vertex -0.0214338 -0.0238197 0.0576712
   vertex -0.00952842 -0.0266139 0.0558366
  endloop
 endfacet
 facet normal -0.455378 -0.869487 0.191374
  outer loop
   vertex -0.00986034 -0.0238197 0.067742
   vertex -0.00952842 -0.0266139 0.0558366
   vertex -0.00952842 -0.0239935 0.067742
  endloop
 endfacet
 facet normal -0.131894 -0.871761 0.471844
  outer loop
   vertex -0.00952842 -0.0266139 0.0558366
   vertex -0.0214338 -0.0238197 0.0576712
   vertex -0.0214338 -0.0248127 0.0558366
  endloop
 endfacet
 facet normal -0.352821 -0.913818 0.201131
  outer loop
   vertex -0.00952842 -0.0239935 0.067742
   vertex -0.00952842 -0.0266139 0.0558366
   vertex 0.00237697 -0.0285902 0.067742
  endloop
 endfacet
 facet normal -0.217703 -0.97441 0.0559546
  outer loop
   vertex 0.00237697 -0.0285902 0.067742
   vertex -0.00952842 -0.0266139 0.0558366
   vertex 0.00237697 -0.0292738 0.0558366
  endloop
 endfacet
 facet normal -0.915107 -0.400496 -0.0467092
  outer loop
   vertex -0.0267058 -0.0119143 0.0558366
   vertex -0.0260981 -0.0119143 0.0439312
   vertex -0.0214338 -0.0225718 0.0439312
  endloop
 endfacet
 facet normal -0.915012 -0.400745 -0.0464447
  outer loop
   vertex -0.0267058 -0.0119143 0.0558366
   vertex -0.0214338 -0.0225718 0.0439312
   vertex -0.0214338 -0.0238197 0.0546982
  endloop
 endfacet
 facet normal -0.330244 -0.0561448 -0.942224
  outer loop
   vertex -0.0267058 -0.0119143 0.0558366
   vertex -0.0214338 -0.0238197 0.0546982
   vertex -0.0246817 -0.0238197 0.0558366
  endloop
 endfacet
 facet normal -0.990219 0.139501 -0.00250899
  outer loop
   vertex -0.024451 -8.91089e-06 0.0558366
   vertex -0.0244209 -8.91089e-06 0.0439312
   vertex -0.0260981 -0.0119143 0.0439312
  endloop
 endfacet
 facet normal -0.981301 0.185847 -0.0500879
  outer loop
   vertex -0.0260981 -0.0119143 0.0439312
   vertex -0.0267058 -0.0119143 0.0558366
   vertex -0.024451 -8.91089e-06 0.0558366
  endloop
 endfacet
 facet normal -0.490104 -0.0833227 0.867672
  outer loop
   vertex -0.0246817 -0.0238197 0.0558366
   vertex -0.0214338 -0.0238197 0.0576712
   vertex -0.0267058 -0.0119143 0.0558366
  endloop
 endfacet
 facet normal -0.854956 -0.315101 0.412022
  outer loop
   vertex -0.0267058 -0.0119143 0.0558366
   vertex -0.0214338 -0.0238197 0.0576712
   vertex -0.0214338 -0.0119143 0.066776
  endloop
 endfacet
 facet normal -0.9817 -0.123841 0.144666
  outer loop
   vertex -0.0226966 -8.91089e-06 0.067742
   vertex -0.024451 -8.91089e-06 0.0558366
   vertex -0.0214338 -0.0100193 0.067742
  endloop
 endfacet
 facet normal -0.910534 0.172444 0.375754
  outer loop
   vertex -0.0214338 -0.0100193 0.067742
   vertex -0.024451 -8.91089e-06 0.0558366
   vertex -0.0267058 -0.0119143 0.0558366
  endloop
 endfacet
 facet normal -0.879567 -0.216067 0.423882
  outer loop
   vertex -0.0214338 -0.0100193 0.067742
   vertex -0.0267058 -0.0119143 0.0558366
   vertex -0.0214338 -0.0119143 0.066776
  endloop
 endfacet
 facet normal -0.381521 -0.918214 -0.106417
  outer loop
   vertex -0.0184306 -0.0238197 0.0439312
   vertex -0.0214338 -0.0238197 0.0546982
   vertex -0.0214338 -0.0225718 0.0439312
  endloop
 endfacet
 facet normal -0.668698 -0.616306 0.415945
  outer loop
   vertex -0.020833 -0.0119143 0.067742
   vertex -0.0214338 -0.0119143 0.066776
   vertex -0.00986034 -0.0238197 0.067742
  endloop
 endfacet
 facet normal -0.568594 -0.499725 0.653434
  outer loop
   vertex -0.00986034 -0.0238197 0.067742
   vertex -0.0214338 -0.0119143 0.066776
   vertex -0.0214338 -0.0238197 0.0576712
  endloop
 endfacet
 facet normal -0.819936 -0.259973 0.510019
  outer loop
   vertex -0.0214338 -0.0100193 0.067742
   vertex -0.0214338 -0.0119143 0.066776
   vertex -0.020833 -0.0119143 0.067742
  endloop
 endfacet
 facet normal -0.441954 -0.843855 0.30428
  outer loop
   vertex -0.00952842 -0.0239935 0.067742
   vertex -0.00952842 -0.0238197 0.0682241
   vertex -0.00986034 -0.0238197 0.067742
  endloop
 endfacet
 facet normal -0.352941 -0.904869 0.238002
  outer loop
   vertex -0.00182524 -0.0238197 0.0796474
   vertex -0.00952842 -0.0238197 0.0682241
   vertex 0.00237697 -0.0285902 0.067742
  endloop
 endfacet
 facet normal -0.35022 -0.905596 0.239254
  outer loop
   vertex -0.00182524 -0.0238197 0.0796474
   vertex 0.00237697 -0.0285902 0.067742
   vertex 0.00237697 -0.0254448 0.0796474
  endloop
 endfacet
 facet normal -0.341385 -0.884198 0.318827
  outer loop
   vertex 0.00237697 -0.0285902 0.067742
   vertex -0.00952842 -0.0238197 0.0682241
   vertex -0.00952842 -0.0239935 0.067742
  endloop
 endfacet
 facet normal -0.148328 -0.383545 0.911533
  outer loop
   vertex 0.00237697 -0.0254448 0.0796474
   vertex 0.00317648 -0.0217803 0.0813194
   vertex -0.00182524 -0.0238197 0.0796474
  endloop
 endfacet
 facet normal -0.949446 -0.119772 0.290183
  outer loop
   vertex -0.0214338 -0.0100193 0.067742
   vertex -0.0214338 -8.91089e-06 0.0718737
   vertex -0.0226966 -8.91089e-06 0.067742
  endloop
 endfacet
 facet normal -0.721733 -0.553988 0.414969
  outer loop
   vertex -0.0139878 -0.0119143 0.0796474
   vertex -0.020833 -0.0119143 0.067742
   vertex -0.00952842 -0.017724 0.0796474
  endloop
 endfacet
 facet normal -0.688451 -0.639879 0.341453
  outer loop
   vertex -0.00952842 -0.017724 0.0796474
   vertex -0.020833 -0.0119143 0.067742
   vertex -0.00952842 -0.0238197 0.0682241
  endloop
 endfacet
 facet normal -0.656043 -0.604644 0.451678
  outer loop
   vertex -0.00952842 -0.0238197 0.0682241
   vertex -0.020833 -0.0119143 0.067742
   vertex -0.00986034 -0.0238197 0.067742
  endloop
 endfacet
 facet normal -0.57244 -0.723396 0.386019
  outer loop
   vertex -0.00952842 -0.017724 0.0796474
   vertex -0.00952842 -0.0238197 0.0682241
   vertex -0.00182524 -0.0238197 0.0796474
  endloop
 endfacet
 facet normal -0.876742 -0.306118 0.370966
  outer loop
   vertex -0.0181446 -8.91089e-06 0.0796474
   vertex -0.0214338 -8.91089e-06 0.0718737
   vertex -0.0139878 -0.0119143 0.0796474
  endloop
 endfacet
 facet normal -0.844221 -0.204496 0.495451
  outer loop
   vertex -0.0139878 -0.0119143 0.0796474
   vertex -0.0214338 -8.91089e-06 0.0718737
   vertex -0.0214338 -0.0100193 0.067742
  endloop
 endfacet
 facet normal -0.835917 -0.26504 0.480621
  outer loop
   vertex -0.0139878 -0.0119143 0.0796474
   vertex -0.0214338 -0.0100193 0.067742
   vertex -0.020833 -0.0119143 0.067742
  endloop
 endfacet
 facet normal -0.169862 -0.112808 0.97899
  outer loop
   vertex -0.0053726 -0.00916631 0.0814588
   vertex -0.0139878 -0.0119143 0.0796474
   vertex -0.00492298 -0.00978209 0.0814659
  endloop
 endfacet
 facet normal -0.166161 -0.127542 0.977816
  outer loop
   vertex -0.00492298 -0.00978209 0.0814659
   vertex -0.0139878 -0.0119143 0.0796474
   vertex -0.00952842 -0.017724 0.0796474
  endloop
 endfacet
 facet normal -0.129197 -0.14954 0.980278
  outer loop
   vertex -0.00492298 -0.00978209 0.0814659
   vertex -0.00952842 -0.017724 0.0796474
   vertex 0.00442693 -0.0172087 0.0815653
  endloop
 endfacet
 facet normal -0.135545 -0.0161986 0.990639
  outer loop
   vertex 0.00442693 -0.0172087 0.0815653
   vertex -0.00952842 -0.017724 0.0796474
   vertex 0.00317648 -0.0217803 0.0813194
  endloop
 endfacet
 facet normal -0.207869 -0.262684 0.942225
  outer loop
   vertex 0.00317648 -0.0217803 0.0813194
   vertex -0.00952842 -0.017724 0.0796474
   vertex -0.00182524 -0.0238197 0.0796474
  endloop
 endfacet
 facet normal -0.19401 -0.0677393 0.978658
  outer loop
   vertex -0.00883087 0.000201192 0.0815083
   vertex -0.0181446 -8.91089e-06 0.0796474
   vertex -0.0139878 -0.0119143 0.0796474
  endloop
 endfacet
 facet normal -0.182952 -0.072718 0.980429
  outer loop
   vertex -0.0139878 -0.0119143 0.0796474
   vertex -0.0053726 -0.00916631 0.0814588
   vertex -0.00883087 0.000201192 0.0815083
  endloop
 endfacet
 facet normal 0.00485599 -0.999769 -0.0209317
  outer loop
   vertex 0.00237697 -0.0292738 0.0558366
   vertex 0.00237697 -0.0290246 0.0439312
   vertex 0.0142824 -0.029216 0.0558366
  endloop
 endfacet
 facet normal 0.0380615 -0.99781 -0.0541056
  outer loop
   vertex 0.0142824 -0.029216 0.0558366
   vertex 0.00237697 -0.0290246 0.0439312
   vertex 0.0142824 -0.0285704 0.0439312
  endloop
 endfacet
 facet normal 0.398827 -0.915681 -0.0496523
  outer loop
   vertex 0.0142824 -0.029216 0.0558366
   vertex 0.0142824 -0.0285704 0.0439312
   vertex 0.0261878 -0.0238197 0.0519477
  endloop
 endfacet
 facet normal 0.397678 -0.915961 -0.053558
  outer loop
   vertex 0.0142824 -0.029216 0.0558366
   vertex 0.0261878 -0.0238197 0.0519477
   vertex 0.0261878 -0.0240471 0.0558366
  endloop
 endfacet
 facet normal 0.404952 -0.912318 -0.0607417
  outer loop
   vertex 0.0261878 -0.0238197 0.0519477
   vertex 0.0142824 -0.0285704 0.0439312
   vertex 0.0249853 -0.0238197 0.0439312
  endloop
 endfacet
 facet normal -0.0258316 -0.998022 0.0573105
  outer loop
   vertex 0.00237697 -0.0285902 0.067742
   vertex 0.00237697 -0.0292738 0.0558366
   vertex 0.0142824 -0.0288983 0.067742
  endloop
 endfacet
 facet normal 0.00485533 -0.999632 0.0266743
  outer loop
   vertex 0.0142824 -0.0288983 0.067742
   vertex 0.00237697 -0.0292738 0.0558366
   vertex 0.0142824 -0.029216 0.0558366
  endloop
 endfacet
 facet normal 0.39813 -0.917003 0.0244694
  outer loop
   vertex 0.0142824 -0.0288983 0.067742
   vertex 0.0142824 -0.029216 0.0558366
   vertex 0.0261878 -0.0240471 0.0558366
  endloop
 endfacet
 facet normal 0.384209 -0.923211 0.00801887
  outer loop
   vertex 0.0261878 -0.0240471 0.0558366
   vertex 0.0261878 -0.0239437 0.067742
   vertex 0.0142824 -0.0288983 0.067742
  endloop
 endfacet
 facet normal 0.581742 -0.811987 -0.0474784
  outer loop
   vertex 0.0261878 -0.0240471 0.0558366
   vertex 0.0261878 -0.0238197 0.0519477
   vertex 0.0265051 -0.0238197 0.0558366
  endloop
 endfacet
 facet normal 0.582384 -0.812883 0.00706058
  outer loop
   vertex 0.0261878 -0.0239437 0.067742
   vertex 0.0261878 -0.0240471 0.0558366
   vertex 0.0265051 -0.0238197 0.0558366
  endloop
 endfacet
 facet normal 0.574635 -0.818382 0.00679673
  outer loop
   vertex 0.0265051 -0.0238197 0.0558366
   vertex 0.0263643 -0.0238197 0.067742
   vertex 0.0261878 -0.0239437 0.067742
  endloop
 endfacet
 facet normal 0.560062 -0.824181 -0.0840077
  outer loop
   vertex 0.0261878 -0.0230026 0.0439312
   vertex 0.0261878 -0.0238197 0.0519477
   vertex 0.0249853 -0.0238197 0.0439312
  endloop
 endfacet
 facet normal 0.683906 -0.727432 -0.0558165
  outer loop
   vertex 0.0265051 -0.0238197 0.0558366
   vertex 0.0261878 -0.0238197 0.0519477
   vertex 0.0380932 -0.0129251 0.0558366
  endloop
 endfacet
 facet normal 0.689578 -0.71689 -0.102715
  outer loop
   vertex 0.0380932 -0.0129251 0.0558366
   vertex 0.0261878 -0.0238197 0.0519477
   vertex 0.0380932 -0.0119143 0.0487821
  endloop
 endfacet
 facet normal 0.695473 -0.714848 -0.0728636
  outer loop
   vertex 0.0380932 -0.0119143 0.0487821
   vertex 0.0261878 -0.0238197 0.0519477
   vertex 0.0261878 -0.0230026 0.0439312
  endloop
 endfacet
 facet normal 0.702614 -0.701045 -0.121941
  outer loop
   vertex 0.0380932 -0.0119143 0.0487821
   vertex 0.0261878 -0.0230026 0.0439312
   vertex 0.0372513 -0.0119143 0.0439312
  endloop
 endfacet
 facet normal 0.670264 -0.734621 -0.105255
  outer loop
   vertex 0.0380932 -0.0129251 0.0558366
   vertex 0.0380932 -0.0119143 0.0487821
   vertex 0.039201 -0.0119143 0.0558366
  endloop
 endfacet
 facet normal 0.800342 -0.583231 -0.138902
  outer loop
   vertex 0.0380932 -0.010759 0.0439312
   vertex 0.0380932 -0.0119143 0.0487821
   vertex 0.0372513 -0.0119143 0.0439312
  endloop
 endfacet
 facet normal 0.856577 -0.498179 -0.134513
  outer loop
   vertex 0.039201 -0.0119143 0.0558366
   vertex 0.0380932 -0.0119143 0.0487821
   vertex 0.0444374 -0.00244899 0.0541265
  endloop
 endfacet
 facet normal 0.85988 -0.391071 -0.328131
  outer loop
   vertex 0.0444374 -0.00244899 0.0541265
   vertex 0.0380932 -0.0119143 0.0487821
   vertex 0.0443629 0.000138433 0.0508476
  endloop
 endfacet
 facet normal 0.889841 -0.448759 -0.0824524
  outer loop
   vertex 0.0443629 0.000138433 0.0508476
   vertex 0.0380932 -0.0119143 0.0487821
   vertex 0.0436718 3.66638e-05 0.0439427
  endloop
 endfacet
 facet normal 0.883184 -0.456265 -0.108664
  outer loop
   vertex 0.0436718 3.66638e-05 0.0439427
   vertex 0.0380932 -0.0119143 0.0487821
   vertex 0.0380932 -0.010759 0.0439312
  endloop
 endfacet
 facet normal 0.681892 -0.731409 0.00806536
  outer loop
   vertex 0.0263643 -0.0238197 0.067742
   vertex 0.0265051 -0.0238197 0.0558366
   vertex 0.0380932 -0.0128849 0.067742
  endloop
 endfacet
 facet normal 0.684972 -0.728566 0.00245619
  outer loop
   vertex 0.0380932 -0.0128849 0.067742
   vertex 0.0265051 -0.0238197 0.0558366
   vertex 0.0380932 -0.0129251 0.0558366
  endloop
 endfacet
 facet normal 0.668539 -0.743673 0.00250712
  outer loop
   vertex 0.0380932 -0.0128849 0.067742
   vertex 0.0380932 -0.0129251 0.0558366
   vertex 0.0391729 -0.0119143 0.067742
  endloop
 endfacet
 facet normal 0.674007 -0.738724 0.00159104
  outer loop
   vertex 0.0391729 -0.0119143 0.067742
   vertex 0.0380932 -0.0129251 0.0558366
   vertex 0.039201 -0.0119143 0.0558366
  endloop
 endfacet
 facet normal 0.838399 -0.545053 0.00197911
  outer loop
   vertex 0.0391729 -0.0119143 0.067742
   vertex 0.039201 -0.0119143 0.0558366
   vertex 0.0449576 -0.00302763 0.0646083
  endloop
 endfacet
 facet normal 0.867432 -0.492572 -0.0702424
  outer loop
   vertex 0.0449576 -0.00302763 0.0646083
   vertex 0.039201 -0.0119143 0.0558366
   vertex 0.0444374 -0.00244899 0.0541265
  endloop
 endfacet
 facet normal -0.0741897 -0.964163 0.254727
  outer loop
   vertex 0.00237697 -0.0254448 0.0796474
   vertex 0.00237697 -0.0285902 0.067742
   vertex 0.0142824 -0.0263609 0.0796474
  endloop
 endfacet
 facet normal -0.0253061 -0.97772 0.208382
  outer loop
   vertex 0.0142824 -0.0263609 0.0796474
   vertex 0.00237697 -0.0285902 0.067742
   vertex 0.0142824 -0.0288983 0.067742
  endloop
 endfacet
 facet normal 0.299373 -0.933177 0.198888
  outer loop
   vertex 0.0142824 -0.0263609 0.0796474
   vertex 0.0142824 -0.0288983 0.067742
   vertex 0.0222036 -0.0238197 0.0796474
  endloop
 endfacet
 facet normal 0.378557 -0.915154 0.138516
  outer loop
   vertex 0.0222036 -0.0238197 0.0796474
   vertex 0.0142824 -0.0288983 0.067742
   vertex 0.0261878 -0.0238197 0.0687587
  endloop
 endfacet
 facet normal 0.38181 -0.917445 0.111873
  outer loop
   vertex 0.0261878 -0.0238197 0.0687587
   vertex 0.0142824 -0.0288983 0.067742
   vertex 0.0261878 -0.0239437 0.067742
  endloop
 endfacet
 facet normal 0.0480925 -0.237537 0.970187
  outer loop
   vertex 0.0142824 -0.0263609 0.0796474
   vertex 0.0138558 -0.018972 0.0814776
   vertex 0.00317648 -0.0217803 0.0813194
  endloop
 endfacet
 facet normal -0.0314872 -0.409204 0.911899
  outer loop
   vertex 0.00317648 -0.0217803 0.0813194
   vertex 0.00237697 -0.0254448 0.0796474
   vertex 0.0142824 -0.0263609 0.0796474
  endloop
 endfacet
 facet normal 0.0755928 -0.23563 0.968898
  outer loop
   vertex 0.0222036 -0.0238197 0.0796474
   vertex 0.0138558 -0.018972 0.0814776
   vertex 0.0142824 -0.0263609 0.0796474
  endloop
 endfacet
 facet normal 0.571808 -0.814355 0.0993022
  outer loop
   vertex 0.0263643 -0.0238197 0.067742
   vertex 0.0261878 -0.0238197 0.0687587
   vertex 0.0261878 -0.0239437 0.067742
  endloop
 endfacet
 facet normal 0.51177 -0.838466 0.187259
  outer loop
   vertex 0.0222036 -0.0238197 0.0796474
   vertex 0.0261878 -0.0238197 0.0687587
   vertex 0.0261878 -0.0213879 0.0796474
  endloop
 endfacet
 facet normal -0.000722442 -0.0535023 0.998567
  outer loop
   vertex 0.00442693 -0.0172087 0.0815653
   vertex 0.00317648 -0.0217803 0.0813194
   vertex 0.0138558 -0.018972 0.0814776
  endloop
 endfacet
 facet normal -0.00072191 -0.0534995 0.998568
  outer loop
   vertex 0.0138558 -0.018972 0.0814776
   vertex 0.0138195 -0.0184248 0.0815069
   vertex 0.00442693 -0.0172087 0.0815653
  endloop
 endfacet
 facet normal -0.00072404 -0.0534996 0.998568
  outer loop
   vertex 0.0138195 -0.0184248 0.0815069
   vertex 0.0138558 -0.018972 0.0814776
   vertex 0.0232682 -0.0142786 0.0817359
  endloop
 endfacet
 facet normal 0.0840503 -0.222016 0.971414
  outer loop
   vertex 0.0232682 -0.0142786 0.0817359
   vertex 0.0138558 -0.018972 0.0814776
   vertex 0.0222036 -0.0238197 0.0796474
  endloop
 endfacet
 facet normal 0.138232 -0.226474 0.964158
  outer loop
   vertex 0.0232682 -0.0142786 0.0817359
   vertex 0.0222036 -0.0238197 0.0796474
   vertex 0.0261878 -0.0213879 0.0796474
  endloop
 endfacet
 facet normal 0.671467 -0.723218 0.16152
  outer loop
   vertex 0.0261878 -0.0213879 0.0796474
   vertex 0.0261878 -0.0238197 0.0687587
   vertex 0.0380932 -0.0119143 0.0725732
  endloop
 endfacet
 facet normal 0.679264 -0.707218 0.196069
  outer loop
   vertex 0.0261878 -0.0213879 0.0796474
   vertex 0.0380932 -0.0119143 0.0725732
   vertex 0.0360512 -0.0119143 0.0796474
  endloop
 endfacet
 facet normal 0.675978 -0.722485 0.145151
  outer loop
   vertex 0.0380932 -0.0119143 0.0725732
   vertex 0.0261878 -0.0238197 0.0687587
   vertex 0.0380932 -0.0128849 0.067742
  endloop
 endfacet
 facet normal 0.677182 -0.726357 0.117602
  outer loop
   vertex 0.0380932 -0.0128849 0.067742
   vertex 0.0261878 -0.0238197 0.0687587
   vertex 0.0263643 -0.0238197 0.067742
  endloop
 endfacet
 facet normal 0.661202 -0.735511 0.147768
  outer loop
   vertex 0.0391729 -0.0119143 0.067742
   vertex 0.0380932 -0.0119143 0.0725732
   vertex 0.0380932 -0.0128849 0.067742
  endloop
 endfacet
 facet normal 0.790397 -0.568526 0.228148
  outer loop
   vertex 0.0360512 -0.0119143 0.0796474
   vertex 0.0380932 -0.0119143 0.0725732
   vertex 0.0380932 -0.00907547 0.0796474
  endloop
 endfacet
 facet normal 0.893416 -0.416913 0.167306
  outer loop
   vertex 0.0380932 -0.00907547 0.0796474
   vertex 0.0380932 -0.0119143 0.0725732
   vertex 0.0425703 2.54401e-05 0.0784179
  endloop
 endfacet
 facet normal 0.855101 -0.448211 0.260594
  outer loop
   vertex 0.0425703 2.54401e-05 0.0784179
   vertex 0.0380932 -0.0119143 0.0725732
   vertex 0.0454856 0.00010908 0.0689957
  endloop
 endfacet
 facet normal 0.858396 -0.460546 0.22595
  outer loop
   vertex 0.0454856 0.00010908 0.0689957
   vertex 0.0380932 -0.0119143 0.0725732
   vertex 0.0449576 -0.00302763 0.0646083
  endloop
 endfacet
 facet normal 0.852095 -0.487514 0.19043
  outer loop
   vertex 0.0449576 -0.00302763 0.0646083
   vertex 0.0380932 -0.0119143 0.0725732
   vertex 0.0391729 -0.0119143 0.067742
  endloop
 endfacet
 facet normal 0.19423 -0.202223 0.959886
  outer loop
   vertex 0.0232682 -0.0142786 0.0817359
   vertex 0.0261878 -0.0213879 0.0796474
   vertex 0.0360512 -0.0119143 0.0796474
  endloop
 endfacet
 facet normal 0.194121 -0.201477 0.960065
  outer loop
   vertex 0.0360512 -0.0119143 0.0796474
   vertex 0.028538 -0.00923954 0.0817278
   vertex 0.0232682 -0.0142786 0.0817359
  endloop
 endfacet
 facet normal 0.212749 -0.153029 0.965049
  outer loop
   vertex 0.028538 -0.00923954 0.0817278
   vertex 0.0360512 -0.0119143 0.0796474
   vertex 0.0380932 -0.00907547 0.0796474
  endloop
 endfacet
 facet normal 0.213187 -0.118878 0.969752
  outer loop
   vertex 0.0380932 -0.00907547 0.0796474
   vertex 0.0326567 -0.00252601 0.0816454
   vertex 0.028538 -0.00923954 0.0817278
  endloop
 endfacet
 facet normal 0.315781 -0.0272172 0.948442
  outer loop
   vertex 0.0326567 -0.00252601 0.0816454
   vertex 0.0380932 -0.00907547 0.0796474
   vertex 0.0425703 2.54401e-05 0.0784179
  endloop
 endfacet
 facet normal 0.334436 -0.116457 0.935195
  outer loop
   vertex 0.0425703 2.54401e-05 0.0784179
   vertex 0.0333756 0.000196611 0.0817273
   vertex 0.0326567 -0.00252601 0.0816454
  endloop
 endfacet
 facet normal -0.975059 0.219539 -0.0325991
  outer loop
   vertex -0.0217705 0.0118965 0.0558366
   vertex -0.0214338 0.0118965 0.0457669
   vertex -0.024451 -8.91089e-06 0.0558366
  endloop
 endfacet
 facet normal -0.969845 0.243712 -0.00245736
  outer loop
   vertex -0.024451 -8.91089e-06 0.0558366
   vertex -0.0214338 0.0118965 0.0457669
   vertex -0.0244209 -8.91089e-06 0.0439312
  endloop
 endfacet
 facet normal -0.966546 0.250795 -0.0537634
  outer loop
   vertex -0.0244209 -8.91089e-06 0.0439312
   vertex -0.0214338 0.0118965 0.0457669
   vertex -0.0214338 0.011503 0.0439312
  endloop
 endfacet
 facet normal -0.898854 0.437216 -0.0300514
  outer loop
   vertex -0.0214338 0.0125886 0.0558366
   vertex -0.0214338 0.0118965 0.0457669
   vertex -0.0217705 0.0118965 0.0558366
  endloop
 endfacet
 facet normal -0.9889 0.134619 0.0628878
  outer loop
   vertex -0.0214338 0.00926751 0.067742
   vertex -0.0214338 0.0118965 0.0621144
   vertex -0.0226966 -8.91089e-06 0.067742
  endloop
 endfacet
 facet normal -0.974696 0.171281 0.143634
  outer loop
   vertex -0.0226966 -8.91089e-06 0.067742
   vertex -0.0214338 0.0118965 0.0621144
   vertex -0.024451 -8.91089e-06 0.0558366
  endloop
 endfacet
 facet normal -0.974245 0.219356 0.0522463
  outer loop
   vertex -0.024451 -8.91089e-06 0.0558366
   vertex -0.0214338 0.0118965 0.0621144
   vertex -0.0217705 0.0118965 0.0558366
  endloop
 endfacet
 facet normal -0.898217 0.436906 0.0481691
  outer loop
   vertex -0.0217705 0.0118965 0.0558366
   vertex -0.0214338 0.0118965 0.0621144
   vertex -0.0214338 0.0125886 0.0558366
  endloop
 endfacet
 facet normal -0.943921 0.322837 -0.0692073
  outer loop
   vertex -0.0214338 0.011503 0.0439312
   vertex -0.0214338 0.0118965 0.0457669
   vertex -0.0212992 0.0118965 0.0439312
  endloop
 endfacet
 facet normal -0.825256 0.56146 -0.0609477
  outer loop
   vertex -0.0140787 0.0238019 0.0558366
   vertex -0.0131994 0.0238019 0.0439312
   vertex -0.0212992 0.0118965 0.0439312
  endloop
 endfacet
 facet normal -0.825482 0.561173 -0.0605235
  outer loop
   vertex -0.0140787 0.0238019 0.0558366
   vertex -0.0212992 0.0118965 0.0439312
   vertex -0.0214338 0.0118965 0.0457669
  endloop
 endfacet
 facet normal -0.835576 0.548081 -0.0376715
  outer loop
   vertex -0.0140787 0.0238019 0.0558366
   vertex -0.0214338 0.0118965 0.0457669
   vertex -0.0214338 0.0125886 0.0558366
  endloop
 endfacet
 facet normal -0.952685 0.275393 0.128651
  outer loop
   vertex -0.0206739 0.0118965 0.067742
   vertex -0.0214338 0.0118965 0.0621144
   vertex -0.0214338 0.00926751 0.067742
  endloop
 endfacet
 facet normal -0.835611 0.546347 0.0570967
  outer loop
   vertex -0.0132652 0.0238019 0.067742
   vertex -0.0140787 0.0238019 0.0558366
   vertex -0.0214338 0.0118965 0.0621144
  endloop
 endfacet
 facet normal -0.843503 0.524908 0.113907
  outer loop
   vertex -0.0132652 0.0238019 0.067742
   vertex -0.0214338 0.0118965 0.0621144
   vertex -0.0206739 0.0118965 0.067742
  endloop
 endfacet
 facet normal -0.834645 0.54747 0.0603589
  outer loop
   vertex -0.0214338 0.0118965 0.0621144
   vertex -0.0140787 0.0238019 0.0558366
   vertex -0.0214338 0.0125886 0.0558366
  endloop
 endfacet
 facet normal -0.639214 0.767482 -0.0487545
  outer loop
   vertex -0.00952842 0.0276157 0.0558366
   vertex -0.00952842 0.0268594 0.0439312
   vertex -0.0131994 0.0238019 0.0439312
  endloop
 endfacet
 facet normal -0.641636 0.765544 -0.0473869
  outer loop
   vertex -0.0131994 0.0238019 0.0439312
   vertex -0.0140787 0.0238019 0.0558366
   vertex -0.00952842 0.0276157 0.0558366
  endloop
 endfacet
 facet normal -0.400428 0.915401 -0.0412124
  outer loop
   vertex 0.00237697 0.0328235 0.0558366
   vertex 0.00237697 0.0322875 0.0439312
   vertex -0.00952842 0.0276157 0.0558366
  endloop
 endfacet
 facet normal -0.414162 0.908372 -0.0577046
  outer loop
   vertex -0.00952842 0.0276157 0.0558366
   vertex 0.00237697 0.0322875 0.0439312
   vertex -0.00952842 0.0268594 0.0439312
  endloop
 endfacet
 facet normal -0.653921 0.755666 0.0368225
  outer loop
   vertex -0.00952842 0.0270355 0.067742
   vertex -0.00952842 0.0276157 0.0558366
   vertex -0.0132652 0.0238019 0.067742
  endloop
 endfacet
 facet normal -0.64174 0.765667 0.0438497
  outer loop
   vertex -0.0132652 0.0238019 0.067742
   vertex -0.00952842 0.0276157 0.0558366
   vertex -0.0140787 0.0238019 0.0558366
  endloop
 endfacet
 facet normal -0.400594 0.915779 0.0295478
  outer loop
   vertex 0.00237697 0.0324394 0.067742
   vertex 0.00237697 0.0328235 0.0558366
   vertex -0.00952842 0.0276157 0.0558366
  endloop
 endfacet
 facet normal -0.412908 0.909693 0.044328
  outer loop
   vertex -0.00952842 0.0276157 0.0558366
   vertex -0.00952842 0.0270355 0.067742
   vertex 0.00237697 0.0324394 0.067742
  endloop
 endfacet
 facet normal -0.948328 0.129096 0.289841
  outer loop
   vertex -0.0226966 -8.91089e-06 0.067742
   vertex -0.0214338 -8.91089e-06 0.0718737
   vertex -0.0214338 0.00926751 0.067742
  endloop
 endfacet
 facet normal -0.918327 0.265461 0.29361
  outer loop
   vertex -0.0168674 0.0118965 0.0796474
   vertex -0.0206739 0.0118965 0.067742
   vertex -0.0214338 0.00926751 0.067742
  endloop
 endfacet
 facet normal -0.934074 0.145285 0.326187
  outer loop
   vertex -0.0168674 0.0118965 0.0796474
   vertex -0.0214338 0.00926751 0.067742
   vertex -0.0214338 -8.91089e-06 0.0718737
  endloop
 endfacet
 facet normal -0.916491 0.0983208 0.387785
  outer loop
   vertex -0.0168674 0.0118965 0.0796474
   vertex -0.0214338 -8.91089e-06 0.0718737
   vertex -0.0181446 -8.91089e-06 0.0796474
  endloop
 endfacet
 facet normal -0.807648 0.518601 0.280639
  outer loop
   vertex -0.00952842 0.0233259 0.0796474
   vertex -0.00952842 0.0238019 0.0787679
   vertex -0.0168674 0.0118965 0.0796474
  endloop
 endfacet
 facet normal -0.809417 0.519225 0.274318
  outer loop
   vertex -0.0168674 0.0118965 0.0796474
   vertex -0.00952842 0.0238019 0.0787679
   vertex -0.0132652 0.0238019 0.067742
  endloop
 endfacet
 facet normal -0.819377 0.509894 0.261973
  outer loop
   vertex -0.0168674 0.0118965 0.0796474
   vertex -0.0132652 0.0238019 0.067742
   vertex -0.0206739 0.0118965 0.067742
  endloop
 endfacet
 facet normal -0.653462 0.665733 0.360259
  outer loop
   vertex -0.00904356 0.0238019 0.0796474
   vertex -0.00952842 0.0238019 0.0787679
   vertex -0.00952842 0.0233259 0.0796474
  endloop
 endfacet
 facet normal -0.227776 -0.0015857 0.973712
  outer loop
   vertex -0.00783819 0.0096392 0.0817559
   vertex -0.0168674 0.0118965 0.0796474
   vertex -0.00883087 0.000201192 0.0815083
  endloop
 endfacet
 facet normal -0.196343 0.0210636 0.980309
  outer loop
   vertex -0.00883087 0.000201192 0.0815083
   vertex -0.0168674 0.0118965 0.0796474
   vertex -0.0181446 -8.91089e-06 0.0796474
  endloop
 endfacet
 facet normal -0.216528 0.139035 0.966326
  outer loop
   vertex -0.00512175 0.0145239 0.0819012
   vertex -0.00952842 0.0233259 0.0796474
   vertex -0.0168674 0.0118965 0.0796474
  endloop
 endfacet
 facet normal -0.206206 0.0856659 0.974752
  outer loop
   vertex -0.0168674 0.0118965 0.0796474
   vertex -0.00783819 0.0096392 0.0817559
   vertex -0.00512175 0.0145239 0.0819012
  endloop
 endfacet
 facet normal -0.170089 0.164145 0.971662
  outer loop
   vertex -0.000236769 0.019185 0.0819689
   vertex -0.00904356 0.0238019 0.0796474
   vertex -0.00512175 0.0145239 0.0819012
  endloop
 endfacet
 facet normal -0.16385 0.166927 0.972259
  outer loop
   vertex -0.00512175 0.0145239 0.0819012
   vertex -0.00904356 0.0238019 0.0796474
   vertex -0.00952842 0.0233259 0.0796474
  endloop
 endfacet
 facet normal -0.638844 0.738243 0.216509
  outer loop
   vertex -0.0132652 0.0238019 0.067742
   vertex -0.00952842 0.0238019 0.0787679
   vertex -0.00952842 0.0270355 0.067742
  endloop
 endfacet
 facet normal -0.404585 0.891357 0.204434
  outer loop
   vertex 0.00237697 0.0297088 0.0796474
   vertex 0.00237697 0.0324394 0.067742
   vertex -0.00952842 0.0270355 0.067742
  endloop
 endfacet
 facet normal -0.444987 0.859343 0.252025
  outer loop
   vertex 0.00237697 0.0297088 0.0796474
   vertex -0.00952842 0.0270355 0.067742
   vertex -0.00952842 0.0238019 0.0787679
  endloop
 endfacet
 facet normal -0.445347 0.861036 0.245524
  outer loop
   vertex 0.00237697 0.0297088 0.0796474
   vertex -0.00952842 0.0238019 0.0787679
   vertex -0.00904356 0.0238019 0.0796474
  endloop
 endfacet
 facet normal -0.165953 0.251561 0.953507
  outer loop
   vertex 0.00430059 0.0213753 0.0821808
   vertex 0.00237697 0.0297088 0.0796474
   vertex -0.000236769 0.019185 0.0819689
  endloop
 endfacet
 facet normal -0.125905 0.243425 0.961713
  outer loop
   vertex -0.000236769 0.019185 0.0819689
   vertex 0.00237697 0.0297088 0.0796474
   vertex -0.00904356 0.0238019 0.0796474
  endloop
 endfacet
 facet normal 0.995009 -0.00780646 -0.0994781
  outer loop
   vertex 0.0447351 0.00463125 0.054218
   vertex 0.0443629 0.000138433 0.0508476
   vertex 0.0436718 3.66638e-05 0.0439427
  endloop
 endfacet
 facet normal 0.891397 0.372165 -0.25866
  outer loop
   vertex 0.0447351 0.00463125 0.054218
   vertex 0.0436718 3.66638e-05 0.0439427
   vertex 0.0421715 0.0118965 0.0558366
  endloop
 endfacet
 facet normal 0.933876 0.305135 -0.186463
  outer loop
   vertex 0.0421715 0.0118965 0.0558366
   vertex 0.0436718 3.66638e-05 0.0439427
   vertex 0.0397944 0.0118965 0.0439312
  endloop
 endfacet
 facet normal 0.784019 0.6121 -0.103188
  outer loop
   vertex 0.0380932 0.0161658 0.0558366
   vertex 0.0380932 0.0141588 0.0439312
   vertex 0.0305646 0.0238019 0.0439312
  endloop
 endfacet
 facet normal 0.77216 0.629807 -0.0843323
  outer loop
   vertex 0.0305646 0.0238019 0.0439312
   vertex 0.0318649 0.0238019 0.0558366
   vertex 0.0380932 0.0161658 0.0558366
  endloop
 endfacet
 facet normal 0.789252 0.593505 -0.157587
  outer loop
   vertex 0.0421715 0.0118965 0.0558366
   vertex 0.0397944 0.0118965 0.0439312
   vertex 0.0380932 0.0141588 0.0439312
  endloop
 endfacet
 facet normal 0.718245 0.686109 -0.115665
  outer loop
   vertex 0.0380932 0.0141588 0.0439312
   vertex 0.0380932 0.0161658 0.0558366
   vertex 0.0421715 0.0118965 0.0558366
  endloop
 endfacet
 facet normal 0.938008 0.342643 -0.0523191
  outer loop
   vertex 0.0451266 0.00516218 0.0647133
   vertex 0.0447351 0.00463125 0.054218
   vertex 0.0421715 0.0118965 0.0558366
  endloop
 endfacet
 facet normal 0.905574 0.423717 0.0199849
  outer loop
   vertex 0.0421715 0.0118965 0.0558366
   vertex 0.0419088 0.0118965 0.067742
   vertex 0.0451266 0.00516218 0.0647133
  endloop
 endfacet
 facet normal 0.774736 0.631908 0.0218348
  outer loop
   vertex 0.0380932 0.0157545 0.067742
   vertex 0.0380932 0.0161658 0.0558366
   vertex 0.0318649 0.0238019 0.0558366
  endloop
 endfacet
 facet normal 0.769068 0.638497 0.0292536
  outer loop
   vertex 0.0318649 0.0238019 0.0558366
   vertex 0.031412 0.0238019 0.067742
   vertex 0.0380932 0.0157545 0.067742
  endloop
 endfacet
 facet normal 0.710914 0.703104 0.015689
  outer loop
   vertex 0.0419088 0.0118965 0.067742
   vertex 0.0421715 0.0118965 0.0558366
   vertex 0.0380932 0.0157545 0.067742
  endloop
 endfacet
 facet normal 0.722892 0.690549 0.0238611
  outer loop
   vertex 0.0380932 0.0157545 0.067742
   vertex 0.0421715 0.0118965 0.0558366
   vertex 0.0380932 0.0161658 0.0558366
  endloop
 endfacet
 facet normal -0.0402844 0.997692 -0.0546631
  outer loop
   vertex 0.0142824 0.0333042 0.0558366
   vertex 0.0142824 0.0326519 0.0439312
   vertex 0.00237697 0.0328235 0.0558366
  endloop
 endfacet
 facet normal -0.030564 0.998521 -0.0449546
  outer loop
   vertex 0.00237697 0.0328235 0.0558366
   vertex 0.0142824 0.0326519 0.0439312
   vertex 0.00237697 0.0322875 0.0439312
  endloop
 endfacet
 facet normal 0.394402 0.915337 -0.0812768
  outer loop
   vertex 0.0261878 0.0285792 0.0558366
   vertex 0.0261878 0.0275221 0.0439312
   vertex 0.0142824 0.0326519 0.0439312
  endloop
 endfacet
 facet normal 0.36841 0.928271 -0.0508595
  outer loop
   vertex 0.0142824 0.0326519 0.0439312
   vertex 0.0142824 0.0333042 0.0558366
   vertex 0.0261878 0.0285792 0.0558366
  endloop
 endfacet
 facet normal -0.0403349 0.998942 0.022101
  outer loop
   vertex 0.0142824 0.0330408 0.067742
   vertex 0.0142824 0.0333042 0.0558366
   vertex 0.00237697 0.0328235 0.0558366
  endloop
 endfacet
 facet normal -0.0504278 0.998208 0.0322074
  outer loop
   vertex 0.00237697 0.0328235 0.0558366
   vertex 0.00237697 0.0324394 0.067742
   vertex 0.0142824 0.0330408 0.067742
  endloop
 endfacet
 facet normal 0.373454 0.927286 0.0259509
  outer loop
   vertex 0.0261878 0.028246 0.067742
   vertex 0.0261878 0.0285792 0.0558366
   vertex 0.0142824 0.0330408 0.067742
  endloop
 endfacet
 facet normal 0.368809 0.929278 0.0205598
  outer loop
   vertex 0.0142824 0.0330408 0.067742
   vertex 0.0261878 0.0285792 0.0558366
   vertex 0.0142824 0.0333042 0.0558366
  endloop
 endfacet
 facet normal 0.642282 0.763251 -0.0701476
  outer loop
   vertex 0.0318649 0.0238019 0.0558366
   vertex 0.0305646 0.0238019 0.0439312
   vertex 0.0261878 0.0285792 0.0558366
  endloop
 endfacet
 facet normal 0.646159 0.760212 -0.0675026
  outer loop
   vertex 0.0261878 0.0285792 0.0558366
   vertex 0.0305646 0.0238019 0.0439312
   vertex 0.0261878 0.0275221 0.0439312
  endloop
 endfacet
 facet normal 0.643675 0.764907 0.0244839
  outer loop
   vertex 0.031412 0.0238019 0.067742
   vertex 0.0318649 0.0238019 0.0558366
   vertex 0.0261878 0.0285792 0.0558366
  endloop
 endfacet
 facet normal 0.6478 0.761512 0.0213116
  outer loop
   vertex 0.0261878 0.0285792 0.0558366
   vertex 0.0261878 0.028246 0.067742
   vertex 0.031412 0.0238019 0.067742
  endloop
 endfacet
 facet normal 0.0699508 0.127263 0.989399
  outer loop
   vertex 0.0237738 0.0174438 0.0834359
   vertex 0.0261878 0.0238019 0.0824474
   vertex 0.0205667 0.0198517 0.0833529
  endloop
 endfacet
 facet normal 0.783645 0.538736 0.309294
  outer loop
   vertex 0.0380932 0.0112153 0.0796474
   vertex 0.0380932 0.0118965 0.0784609
   vertex 0.0376249 0.0118965 0.0796474
  endloop
 endfacet
 facet normal 0.908962 0.305224 0.283947
  outer loop
   vertex 0.0425703 2.54401e-05 0.0784179
   vertex 0.0454856 0.00010908 0.0689957
   vertex 0.0451266 0.00516218 0.0647133
  endloop
 endfacet
 facet normal 0.908514 0.30627 0.284256
  outer loop
   vertex 0.0425703 2.54401e-05 0.0784179
   vertex 0.0451266 0.00516218 0.0647133
   vertex 0.0419088 0.0118965 0.067742
  endloop
 endfacet
 facet normal 0.888061 0.333788 0.316122
  outer loop
   vertex 0.0425703 2.54401e-05 0.0784179
   vertex 0.0419088 0.0118965 0.067742
   vertex 0.0380932 0.0118965 0.0784609
  endloop
 endfacet
 facet normal 0.917337 0.345257 0.198216
  outer loop
   vertex 0.0425703 2.54401e-05 0.0784179
   vertex 0.0380932 0.0118965 0.0784609
   vertex 0.0380932 0.0112153 0.0796474
  endloop
 endfacet
 facet normal 0.729363 0.620614 0.287869
  outer loop
   vertex 0.0376249 0.0118965 0.0796474
   vertex 0.0380932 0.0118965 0.0784609
   vertex 0.0274946 0.0238019 0.0796474
  endloop
 endfacet
 facet normal 0.736515 0.631517 0.242347
  outer loop
   vertex 0.0274946 0.0238019 0.0796474
   vertex 0.0380932 0.0118965 0.0784609
   vertex 0.031412 0.0238019 0.067742
  endloop
 endfacet
 facet normal 0.749836 0.622529 0.224062
  outer loop
   vertex 0.031412 0.0238019 0.067742
   vertex 0.0380932 0.0118965 0.0784609
   vertex 0.0380932 0.0157545 0.067742
  endloop
 endfacet
 facet normal 0.689268 0.681696 0.245358
  outer loop
   vertex 0.0380932 0.0157545 0.067742
   vertex 0.0380932 0.0118965 0.0784609
   vertex 0.0419088 0.0118965 0.067742
  endloop
 endfacet
 facet normal 0.347665 0.0659533 0.935296
  outer loop
   vertex 0.0328821 0.00452571 0.0820561
   vertex 0.0380932 0.0112153 0.0796474
   vertex 0.0300547 0.00986381 0.0827307
  endloop
 endfacet
 facet normal 0.317317 0.218147 0.922888
  outer loop
   vertex 0.0300547 0.00986381 0.0827307
   vertex 0.0380932 0.0112153 0.0796474
   vertex 0.0376249 0.0118965 0.0796474
  endloop
 endfacet
 facet normal 0.337934 -0.0329164 0.940594
  outer loop
   vertex 0.0333756 0.000196611 0.0817273
   vertex 0.0425703 2.54401e-05 0.0784179
   vertex 0.0328821 0.00452571 0.0820561
  endloop
 endfacet
 facet normal 0.369854 0.046023 0.927949
  outer loop
   vertex 0.0328821 0.00452571 0.0820561
   vertex 0.0425703 2.54401e-05 0.0784179
   vertex 0.0380932 0.0112153 0.0796474
  endloop
 endfacet
 facet normal 0.347945 0.115445 0.93038
  outer loop
   vertex 0.0300547 0.00986381 0.0827307
   vertex 0.0376249 0.0118965 0.0796474
   vertex 0.0261878 0.0238019 0.0824474
  endloop
 endfacet
 facet normal 0.200871 0.075583 0.976698
  outer loop
   vertex 0.0300547 0.00986381 0.0827307
   vertex 0.0261878 0.0238019 0.0824474
   vertex 0.0237738 0.0174438 0.0834359
  endloop
 endfacet
 facet normal 0.717614 0.610616 0.33493
  outer loop
   vertex 0.0261878 0.0238019 0.0824474
   vertex 0.0376249 0.0118965 0.0796474
   vertex 0.0274946 0.0238019 0.0796474
  endloop
 endfacet
 facet normal -0.0493313 0.976504 0.209779
  outer loop
   vertex 0.0142824 0.0304832 0.0796474
   vertex 0.0142824 0.0330408 0.067742
   vertex 0.00237697 0.0324394 0.067742
  endloop
 endfacet
 facet normal -0.063271 0.97274 0.2231
  outer loop
   vertex 0.00237697 0.0324394 0.067742
   vertex 0.00237697 0.0297088 0.0796474
   vertex 0.0142824 0.0304832 0.0796474
  endloop
 endfacet
 facet normal 0.409657 0.878862 0.244508
  outer loop
   vertex 0.0261878 0.0249338 0.0796474
   vertex 0.0261878 0.028246 0.067742
   vertex 0.0142824 0.0304832 0.0796474
  endloop
 endfacet
 facet normal 0.366376 0.909712 0.19543
  outer loop
   vertex 0.0142824 0.0304832 0.0796474
   vertex 0.0261878 0.028246 0.067742
   vertex 0.0142824 0.0330408 0.067742
  endloop
 endfacet
 facet normal -0.0243112 0.373764 0.927205
  outer loop
   vertex 0.0138826 0.022449 0.0828756
   vertex 0.0142824 0.0304832 0.0796474
   vertex 0.00237697 0.0297088 0.0796474
  endloop
 endfacet
 facet normal -0.0995404 0.26831 0.958176
  outer loop
   vertex 0.00237697 0.0297088 0.0796474
   vertex 0.00430059 0.0213753 0.0821808
   vertex 0.0138826 0.022449 0.0828756
  endloop
 endfacet
 facet normal -0.0564333 0.29869 0.95268
  outer loop
   vertex 0.0205667 0.0198517 0.0833529
   vertex 0.0261878 0.0238019 0.0824474
   vertex 0.0142824 0.0304832 0.0796474
  endloop
 endfacet
 facet normal 0.076999 0.368425 0.926463
  outer loop
   vertex 0.0205667 0.0198517 0.0833529
   vertex 0.0142824 0.0304832 0.0796474
   vertex 0.0138826 0.022449 0.0828756
  endloop
 endfacet
 facet normal 0.396688 0.851039 0.344052
  outer loop
   vertex 0.0142824 0.0304832 0.0796474
   vertex 0.0261878 0.0238019 0.0824474
   vertex 0.0261878 0.0249338 0.0796474
  endloop
 endfacet
 facet normal 0.633705 0.744942 0.208518
  outer loop
   vertex 0.0274946 0.0238019 0.0796474
   vertex 0.031412 0.0238019 0.067742
   vertex 0.0261878 0.028246 0.067742
  endloop
 endfacet
 facet normal 0.64071 0.73969 0.205789
  outer loop
   vertex 0.0261878 0.028246 0.067742
   vertex 0.0261878 0.0249338 0.0796474
   vertex 0.0274946 0.0238019 0.0796474
  endloop
 endfacet
 facet normal 0.626142 0.722872 0.292238
  outer loop
   vertex 0.0261878 0.0249338 0.0796474
   vertex 0.0261878 0.0238019 0.0824474
   vertex 0.0274946 0.0238019 0.0796474
  endloop
 endfacet
endsolid
