solid ascii
 facet normal -0.0296265 -0.0413923 -0.998704
  outer loop
   vertex -0.0265655 -0.0254829 0.00419464
   vertex -0.0187764 -0.0201987 0.00374457
   vertex -0.0201107 -0.0288179 0.00414139
  endloop
 endfacet
 facet normal -0.0296265 -0.0413923 -0.998704
  outer loop
   vertex -0.0201107 -0.0288179 0.00414139
   vertex -0.0187764 -0.0201987 0.00374457
   vertex -0.0147437 -0.0221582 0.00370616
  endloop
 endfacet
 facet normal -0.43499 -0.814556 -0.383773
  outer loop
   vertex -0.0302142 -0.0279771 0.0136243
   vertex -0.0265655 -0.0254829 0.00419464
   vertex -0.02261 -0.0320379 0.0136243
  endloop
 endfacet
 facet normal -0.425311 -0.816948 -0.389495
  outer loop
   vertex -0.02261 -0.0320379 0.0136243
   vertex -0.0265655 -0.0254829 0.00419464
   vertex -0.0201107 -0.0288179 0.00414139
  endloop
 endfacet
 facet normal -0.0296267 -0.0413921 -0.998704
  outer loop
   vertex -0.0201107 -0.0288179 0.00414139
   vertex -0.0147437 -0.0221582 0.00370616
   vertex -0.00426873 -0.0241788 0.00347916
  endloop
 endfacet
 facet normal -0.0296267 -0.0413923 -0.998704
  outer loop
   vertex -0.00426873 -0.0241788 0.00347916
   vertex -0.00718057 -0.0303783 0.00382249
   vertex -0.0201107 -0.0288179 0.00414139
  endloop
 endfacet
 facet normal -0.0296264 -0.0413924 -0.998704
  outer loop
   vertex -0.00718057 -0.0303783 0.00382249
   vertex -0.00426873 -0.0241788 0.00347916
   vertex 0.00629274 -0.0235017 0.0031378
  endloop
 endfacet
 facet normal -0.0278973 -0.0447708 -0.998608
  outer loop
   vertex 0.00629274 -0.0235017 0.0031378
   vertex 0.00590292 -0.0288924 0.00339037
   vertex -0.00718057 -0.0303783 0.00382249
  endloop
 endfacet
 facet normal -0.120785 -0.929842 -0.347569
  outer loop
   vertex -0.02261 -0.0320379 0.0136243
   vertex -0.0201107 -0.0288179 0.00414139
   vertex -0.00718057 -0.0303783 0.00382249
  endloop
 endfacet
 facet normal -0.0422594 -0.972012 -0.231098
  outer loop
   vertex -0.00718057 -0.0303783 0.00382249
   vertex -0.00842762 -0.0326545 0.0136243
   vertex -0.02261 -0.0320379 0.0136243
  endloop
 endfacet
 facet normal 0.103336 -0.971682 -0.212498
  outer loop
   vertex -0.00842762 -0.0326545 0.0136243
   vertex -0.00718057 -0.0303783 0.00382249
   vertex 0.00590292 -0.0288924 0.00339037
  endloop
 endfacet
 facet normal 0.159897 -0.977784 -0.135539
  outer loop
   vertex 0.00590292 -0.0288924 0.00339037
   vertex 0.00575473 -0.0303352 0.0136243
   vertex -0.00842762 -0.0326545 0.0136243
  endloop
 endfacet
 facet normal -0.0340796 -0.0478424 -0.998273
  outer loop
   vertex -0.0378127 -0.0125211 0.00402916
   vertex -0.033415 -0.00967993 0.00374287
   vertex -0.0252529 -0.0153152 0.00373429
  endloop
 endfacet
 facet normal -0.0315445 -0.0363867 -0.99884
  outer loop
   vertex -0.0252529 -0.0153152 0.00373429
   vertex -0.0331682 -0.0183378 0.00409438
   vertex -0.0378127 -0.0125211 0.00402916
  endloop
 endfacet
 facet normal -0.0296268 -0.0413924 -0.998704
  outer loop
   vertex -0.0331682 -0.0183378 0.00409438
   vertex -0.0252529 -0.0153152 0.00373429
   vertex -0.0265655 -0.0254829 0.00419464
  endloop
 endfacet
 facet normal -0.0296264 -0.0413925 -0.998704
  outer loop
   vertex -0.0265655 -0.0254829 0.00419464
   vertex -0.0252529 -0.0153152 0.00373429
   vertex -0.0187764 -0.0201987 0.00374457
  endloop
 endfacet
 facet normal -0.351548 0.123393 -0.928002
  outer loop
   vertex -0.0428455 -0.00177823 0.00736412
   vertex -0.0357385 -0.00850419 0.00377751
   vertex -0.0378127 -0.0125211 0.00402916
  endloop
 endfacet
 facet normal -0.0368938 -0.0434964 -0.998372
  outer loop
   vertex -0.0378127 -0.0125211 0.00402916
   vertex -0.0357385 -0.00850419 0.00377751
   vertex -0.033415 -0.00967993 0.00374287
  endloop
 endfacet
 facet normal -0.914992 -0.393643 -0.0885189
  outer loop
   vertex -0.0381931 -0.0137947 0.0136243
   vertex -0.0378127 -0.0125211 0.00402916
   vertex -0.0367923 -0.0170506 0.0136243
  endloop
 endfacet
 facet normal -0.763276 -0.611798 -0.207636
  outer loop
   vertex -0.0367923 -0.0170506 0.0136243
   vertex -0.0378127 -0.0125211 0.00402916
   vertex -0.0331682 -0.0183378 0.00409438
  endloop
 endfacet
 facet normal -0.82993 -0.499646 -0.248132
  outer loop
   vertex -0.0367923 -0.0170506 0.0136243
   vertex -0.0331682 -0.0183378 0.00409438
   vertex -0.0302142 -0.0279771 0.0136243
  endloop
 endfacet
 facet normal -0.663421 -0.618961 -0.420428
  outer loop
   vertex -0.0302142 -0.0279771 0.0136243
   vertex -0.0331682 -0.0183378 0.00409438
   vertex -0.0265655 -0.0254829 0.00419464
  endloop
 endfacet
 facet normal -0.993463 -0.112435 0.0197336
  outer loop
   vertex -0.0429663 0.000387646 0.0136243
   vertex -0.0431027 0.000621569 0.0080864
   vertex -0.0428455 -0.00177823 0.00736412
  endloop
 endfacet
 facet normal -0.879071 -0.455476 0.140625
  outer loop
   vertex -0.0429663 0.000387646 0.0136243
   vertex -0.0428455 -0.00177823 0.00736412
   vertex -0.0378127 -0.0125211 0.00402916
  endloop
 endfacet
 facet normal -0.944751 -0.317964 -0.0796532
  outer loop
   vertex -0.0429663 0.000387646 0.0136243
   vertex -0.0378127 -0.0125211 0.00402916
   vertex -0.0381931 -0.0137947 0.0136243
  endloop
 endfacet
 facet normal -0.470879 -0.881761 0.0277509
  outer loop
   vertex -0.0293784 -0.0279771 0.0278066
   vertex -0.0302142 -0.0279771 0.0136243
   vertex -0.02261 -0.0320379 0.0136243
  endloop
 endfacet
 facet normal -0.465613 -0.884444 0.0310321
  outer loop
   vertex -0.02261 -0.0320379 0.0136243
   vertex -0.02261 -0.0315403 0.0278066
   vertex -0.0293784 -0.0279771 0.0278066
  endloop
 endfacet
 facet normal -0.465623 -0.884463 0.0303508
  outer loop
   vertex -0.028454 -0.0279771 0.041989
   vertex -0.0293784 -0.0279771 0.0278066
   vertex -0.02261 -0.0315403 0.0278066
  endloop
 endfacet
 facet normal -0.459769 -0.887406 0.0335023
  outer loop
   vertex -0.02261 -0.0315403 0.0278066
   vertex -0.02261 -0.0310049 0.041989
   vertex -0.028454 -0.0279771 0.041989
  endloop
 endfacet
 facet normal -0.0434085 -0.998443 0.0350319
  outer loop
   vertex -0.02261 -0.0315403 0.0278066
   vertex -0.02261 -0.0320379 0.0136243
   vertex -0.00842762 -0.0326545 0.0136243
  endloop
 endfacet
 facet normal -0.0485455 -0.998374 0.0298895
  outer loop
   vertex -0.00842762 -0.0326545 0.0136243
   vertex -0.00842762 -0.0322299 0.0278066
   vertex -0.02261 -0.0315403 0.0278066
  endloop
 endfacet
 facet normal 0.161316 -0.986461 0.0295328
  outer loop
   vertex -0.00842762 -0.0322299 0.0278066
   vertex -0.00842762 -0.0326545 0.0136243
   vertex 0.00575473 -0.0303352 0.0136243
  endloop
 endfacet
 facet normal 0.151197 -0.988318 0.0191653
  outer loop
   vertex 0.00575473 -0.0303352 0.0136243
   vertex 0.00575473 -0.0300602 0.0278066
   vertex -0.00842762 -0.0322299 0.0278066
  endloop
 endfacet
 facet normal -0.0675545 -0.997005 0.03764
  outer loop
   vertex -0.02261 -0.0310049 0.041989
   vertex -0.02261 -0.0315403 0.0278066
   vertex -0.00842762 -0.0319658 0.041989
  endloop
 endfacet
 facet normal -0.0485588 -0.998647 0.018595
  outer loop
   vertex -0.00842762 -0.0319658 0.041989
   vertex -0.02261 -0.0315403 0.0278066
   vertex -0.00842762 -0.0322299 0.0278066
  endloop
 endfacet
 facet normal 0.151199 -0.988332 0.0184029
  outer loop
   vertex -0.00842762 -0.0319658 0.041989
   vertex -0.00842762 -0.0322299 0.0278066
   vertex 0.00575473 -0.0300602 0.0278066
  endloop
 endfacet
 facet normal 0.14415 -0.989493 0.0111979
  outer loop
   vertex 0.00575473 -0.0300602 0.0278066
   vertex 0.00575473 -0.0298997 0.041989
   vertex -0.00842762 -0.0319658 0.041989
  endloop
 endfacet
 facet normal -0.935084 -0.347741 0.0685148
  outer loop
   vertex -0.0371539 -0.0137947 0.0278066
   vertex -0.0381931 -0.0137947 0.0136243
   vertex -0.0367923 -0.014767 0.0278066
  endloop
 endfacet
 facet normal -0.916744 -0.394396 0.0635048
  outer loop
   vertex -0.0367923 -0.014767 0.0278066
   vertex -0.0381931 -0.0137947 0.0136243
   vertex -0.0367923 -0.0170506 0.0136243
  endloop
 endfacet
 facet normal -0.869352 -0.487909 0.078562
  outer loop
   vertex -0.0367923 -0.014767 0.0278066
   vertex -0.0367923 -0.0170506 0.0136243
   vertex -0.0293784 -0.0279771 0.0278066
  endloop
 endfacet
 facet normal -0.855633 -0.51512 0.0504261
  outer loop
   vertex -0.0293784 -0.0279771 0.0278066
   vertex -0.0367923 -0.0170506 0.0136243
   vertex -0.0302142 -0.0279771 0.0136243
  endloop
 endfacet
 facet normal -0.943377 -0.317501 0.0960823
  outer loop
   vertex -0.0415218 0.000387646 0.0278066
   vertex -0.0429663 0.000387646 0.0136243
   vertex -0.0381931 -0.0137947 0.0136243
  endloop
 endfacet
 facet normal -0.953367 -0.293618 0.0698544
  outer loop
   vertex -0.0381931 -0.0137947 0.0136243
   vertex -0.0371539 -0.0137947 0.0278066
   vertex -0.0415218 0.000387646 0.0278066
  endloop
 endfacet
 facet normal -0.933075 -0.359242 0.0177662
  outer loop
   vertex -0.0368839 -0.0137947 0.041989
   vertex -0.0371539 -0.0137947 0.0278066
   vertex -0.0367923 -0.0140325 0.041989
  endloop
 endfacet
 facet normal -0.937134 -0.348503 0.0180497
  outer loop
   vertex -0.0367923 -0.0140325 0.041989
   vertex -0.0371539 -0.0137947 0.0278066
   vertex -0.0367923 -0.014767 0.0278066
  endloop
 endfacet
 facet normal -0.85796 -0.51303 0.0265709
  outer loop
   vertex -0.0367923 -0.0140325 0.041989
   vertex -0.0367923 -0.014767 0.0278066
   vertex -0.028454 -0.0279771 0.041989
  endloop
 endfacet
 facet normal -0.870642 -0.488633 0.0567513
  outer loop
   vertex -0.028454 -0.0279771 0.041989
   vertex -0.0367923 -0.014767 0.0278066
   vertex -0.0293784 -0.0279771 0.0278066
  endloop
 endfacet
 facet normal -0.955666 -0.294326 0.0086408
  outer loop
   vertex -0.0413936 0.000387646 0.041989
   vertex -0.0415218 0.000387646 0.0278066
   vertex -0.0371539 -0.0137947 0.0278066
  endloop
 endfacet
 facet normal -0.952825 -0.302978 0.0181422
  outer loop
   vertex -0.0371539 -0.0137947 0.0278066
   vertex -0.0368839 -0.0137947 0.041989
   vertex -0.0413936 0.000387646 0.041989
  endloop
 endfacet
 facet normal -0.0292067 -0.0446746 -0.998575
  outer loop
   vertex 0.00590292 -0.0288924 0.00339037
   vertex 0.00629274 -0.0235017 0.0031378
   vertex 0.0169949 -0.0221471 0.00276417
  endloop
 endfacet
 facet normal -0.0232558 -0.0544299 -0.998247
  outer loop
   vertex 0.0169949 -0.0221471 0.00276417
   vertex 0.0191905 -0.0274718 0.00300335
   vertex 0.00590292 -0.0288924 0.00339037
  endloop
 endfacet
 facet normal -0.0281947 -0.0564556 -0.998007
  outer loop
   vertex 0.0191905 -0.0274718 0.00300335
   vertex 0.0169949 -0.0221471 0.00276417
   vertex 0.0253355 -0.0262359 0.00275983
  endloop
 endfacet
 facet normal -0.0266687 -0.0533424 -0.99822
  outer loop
   vertex 0.0253355 -0.0262359 0.00275983
   vertex 0.0169949 -0.0221471 0.00276417
   vertex 0.0228417 -0.0207093 0.00253113
  endloop
 endfacet
 facet normal 0.10134 -0.985311 -0.137448
  outer loop
   vertex 0.00575473 -0.0303352 0.0136243
   vertex 0.00590292 -0.0288924 0.00339037
   vertex 0.0191905 -0.0274718 0.00300335
  endloop
 endfacet
 facet normal 0.110264 -0.985845 -0.126302
  outer loop
   vertex 0.0191905 -0.0274718 0.00300335
   vertex 0.0199371 -0.028749 0.0136243
   vertex 0.00575473 -0.0303352 0.0136243
  endloop
 endfacet
 facet normal 0.186756 -0.973737 -0.130223
  outer loop
   vertex 0.0199371 -0.028749 0.0136243
   vertex 0.0191905 -0.0274718 0.00300335
   vertex 0.0239618 -0.0279771 0.0136243
  endloop
 endfacet
 facet normal 0.190433 -0.972808 -0.13183
  outer loop
   vertex 0.0239618 -0.0279771 0.0136243
   vertex 0.0191905 -0.0274718 0.00300335
   vertex 0.0253355 -0.0262359 0.00275983
  endloop
 endfacet
 facet normal -0.0314872 -0.055506 -0.997962
  outer loop
   vertex 0.0253355 -0.0262359 0.00275983
   vertex 0.0228417 -0.0207093 0.00253113
   vertex 0.0327593 -0.0243294 0.00241957
  endloop
 endfacet
 facet normal -0.0280523 -0.0460778 -0.998544
  outer loop
   vertex 0.0327593 -0.0243294 0.00241957
   vertex 0.0228417 -0.0207093 0.00253113
   vertex 0.0278739 -0.0190258 0.00231208
  endloop
 endfacet
 facet normal 0.228471 -0.965385 -0.125831
  outer loop
   vertex 0.0239618 -0.0279771 0.0136243
   vertex 0.0253355 -0.0262359 0.00275983
   vertex 0.0341194 -0.0255731 0.0136243
  endloop
 endfacet
 facet normal 0.240572 -0.961074 -0.135877
  outer loop
   vertex 0.0341194 -0.0255731 0.0136243
   vertex 0.0253355 -0.0262359 0.00275983
   vertex 0.0327593 -0.0243294 0.00241957
  endloop
 endfacet
 facet normal -0.0241749 -0.0425114 -0.998803
  outer loop
   vertex 0.0327593 -0.0243294 0.00241957
   vertex 0.0278739 -0.0190258 0.00231208
   vertex 0.0466933 -0.0159801 0.00172694
  endloop
 endfacet
 facet normal -0.0280533 -0.0186683 -0.999432
  outer loop
   vertex 0.0466933 -0.0159801 0.00172694
   vertex 0.0278739 -0.0190258 0.00231208
   vertex 0.0389304 -0.0116046 0.00186311
  endloop
 endfacet
 facet normal -0.0194962 -0.00347469 -0.999804
  outer loop
   vertex 0.0466933 -0.0159801 0.00172694
   vertex 0.0389304 -0.0116046 0.00186311
   vertex 0.0406648 -0.0101071 0.00182408
  endloop
 endfacet
 facet normal -0.0194962 -0.00347465 -0.999804
  outer loop
   vertex 0.0406648 -0.0101071 0.00182408
   vertex 0.0498159 -0.0131799 0.00165632
   vertex 0.0466933 -0.0159801 0.00172694
  endloop
 endfacet
 facet normal -0.0138578 0.0133175 -0.999815
  outer loop
   vertex 0.0498159 -0.0131799 0.00165632
   vertex 0.0406648 -0.0101071 0.00182408
   vertex 0.0512935 0.000460084 0.00181752
  endloop
 endfacet
 facet normal 0.0130634 -0.0137604 -0.99982
  outer loop
   vertex 0.0512935 0.000460084 0.00181752
   vertex 0.0406648 -0.0101071 0.00182408
   vertex 0.0441072 0.000790076 0.00171909
  endloop
 endfacet
 facet normal 0.501018 -0.851386 -0.155317
  outer loop
   vertex 0.0341194 -0.0255731 0.0136243
   vertex 0.0327593 -0.0243294 0.00241957
   vertex 0.0483018 -0.0172272 0.0136243
  endloop
 endfacet
 facet normal 0.501868 -0.850574 -0.15701
  outer loop
   vertex 0.0483018 -0.0172272 0.0136243
   vertex 0.0327593 -0.0243294 0.00241957
   vertex 0.0466933 -0.0159801 0.00172694
  endloop
 endfacet
 facet normal 0.679009 -0.714943 -0.166742
  outer loop
   vertex 0.0483018 -0.0172272 0.0136243
   vertex 0.0466933 -0.0159801 0.00172694
   vertex 0.0519159 -0.0137947 0.0136243
  endloop
 endfacet
 facet normal 0.65781 -0.737416 -0.153308
  outer loop
   vertex 0.0519159 -0.0137947 0.0136243
   vertex 0.0466933 -0.0159801 0.00172694
   vertex 0.0498159 -0.0131799 0.00165632
  endloop
 endfacet
 facet normal 0.984648 -0.0174793 -0.173674
  outer loop
   vertex 0.0519159 -0.0137947 0.0136243
   vertex 0.0498159 -0.0131799 0.00165632
   vertex 0.0521677 0.000387646 0.0136243
  endloop
 endfacet
 facet normal 0.991546 -0.106536 -0.0740699
  outer loop
   vertex 0.0521677 0.000387646 0.0136243
   vertex 0.0498159 -0.0131799 0.00165632
   vertex 0.0512935 0.000460084 0.00181752
  endloop
 endfacet
 facet normal 0.111134 -0.993619 0.0192681
  outer loop
   vertex 0.00575473 -0.0300602 0.0278066
   vertex 0.00575473 -0.0303352 0.0136243
   vertex 0.0199371 -0.028749 0.0136243
  endloop
 endfacet
 facet normal 0.111075 -0.993626 0.0192083
  outer loop
   vertex 0.0199371 -0.028749 0.0136243
   vertex 0.0199371 -0.0284748 0.0278066
   vertex 0.00575473 -0.0300602 0.0278066
  endloop
 endfacet
 facet normal 0.181955 -0.983123 0.0190053
  outer loop
   vertex 0.0199371 -0.0284748 0.0278066
   vertex 0.0199371 -0.028749 0.0136243
   vertex 0.0226265 -0.0279771 0.0278066
  endloop
 endfacet
 facet normal 0.18833 -0.981946 0.0177321
  outer loop
   vertex 0.0226265 -0.0279771 0.0278066
   vertex 0.0199371 -0.028749 0.0136243
   vertex 0.0239618 -0.0279771 0.0136243
  endloop
 endfacet
 facet normal 0.111088 -0.993747 0.011246
  outer loop
   vertex 0.00575473 -0.0298997 0.041989
   vertex 0.00575473 -0.0300602 0.0278066
   vertex 0.0199371 -0.0284748 0.0278066
  endloop
 endfacet
 facet normal 0.111958 -0.993639 0.0121268
  outer loop
   vertex 0.0199371 -0.0284748 0.0278066
   vertex 0.0199371 -0.0283017 0.041989
   vertex 0.00575473 -0.0298997 0.041989
  endloop
 endfacet
 facet normal 0.172467 -0.984942 0.0120207
  outer loop
   vertex 0.0199371 -0.0283017 0.041989
   vertex 0.0199371 -0.0284748 0.0278066
   vertex 0.0217912 -0.0279771 0.041989
  endloop
 endfacet
 facet normal 0.181977 -0.983244 0.0107178
  outer loop
   vertex 0.0217912 -0.0279771 0.041989
   vertex 0.0199371 -0.0284748 0.0278066
   vertex 0.0226265 -0.0279771 0.0278066
  endloop
 endfacet
 facet normal 0.223853 -0.974395 0.0210768
  outer loop
   vertex 0.0226265 -0.0279771 0.0278066
   vertex 0.0239618 -0.0279771 0.0136243
   vertex 0.0341194 -0.0253367 0.0278066
  endloop
 endfacet
 facet normal 0.230271 -0.972991 0.0162189
  outer loop
   vertex 0.0341194 -0.0253367 0.0278066
   vertex 0.0239618 -0.0279771 0.0136243
   vertex 0.0341194 -0.0255731 0.0136243
  endloop
 endfacet
 facet normal 0.21005 -0.977612 0.0123712
  outer loop
   vertex 0.0217912 -0.0279771 0.041989
   vertex 0.0226265 -0.0279771 0.0278066
   vertex 0.0341194 -0.0253282 0.041989
  endloop
 endfacet
 facet normal 0.223903 -0.974611 0.00058458
  outer loop
   vertex 0.0341194 -0.0253282 0.041989
   vertex 0.0226265 -0.0279771 0.0278066
   vertex 0.0341194 -0.0253367 0.0278066
  endloop
 endfacet
 facet normal 0.50712 -0.861756 0.0143647
  outer loop
   vertex 0.0341194 -0.0253367 0.0278066
   vertex 0.0341194 -0.0255731 0.0136243
   vertex 0.0483018 -0.0172272 0.0136243
  endloop
 endfacet
 facet normal 0.488298 -0.872612 -0.0106647
  outer loop
   vertex 0.0483018 -0.0172272 0.0136243
   vertex 0.0483018 -0.0174005 0.0278066
   vertex 0.0341194 -0.0253367 0.0278066
  endloop
 endfacet
 facet normal 0.688623 -0.725065 -0.00886142
  outer loop
   vertex 0.0483018 -0.0174005 0.0278066
   vertex 0.0483018 -0.0172272 0.0136243
   vertex 0.0519159 -0.0137947 0.0136243
  endloop
 endfacet
 facet normal 0.666189 -0.74552 -0.0197789
  outer loop
   vertex 0.0519159 -0.0137947 0.0136243
   vertex 0.052337 -0.0137947 0.0278066
   vertex 0.0483018 -0.0174005 0.0278066
  endloop
 endfacet
 facet normal 0.999402 -0.0177412 -0.0296719
  outer loop
   vertex 0.052337 -0.0137947 0.0278066
   vertex 0.0519159 -0.0137947 0.0136243
   vertex 0.0521677 0.000387646 0.0136243
  endloop
 endfacet
 facet normal 0.997137 -0.0471873 -0.059091
  outer loop
   vertex 0.0521677 0.000387646 0.0136243
   vertex 0.0530081 0.000387646 0.0278066
   vertex 0.052337 -0.0137947 0.0278066
  endloop
 endfacet
 facet normal 0.449399 -0.893331 0.000535828
  outer loop
   vertex 0.0341194 -0.0253282 0.041989
   vertex 0.0341194 -0.0253367 0.0278066
   vertex 0.0483018 -0.0181936 0.041989
  endloop
 endfacet
 facet normal 0.487746 -0.871624 -0.0487437
  outer loop
   vertex 0.0483018 -0.0181936 0.041989
   vertex 0.0341194 -0.0253367 0.0278066
   vertex 0.0483018 -0.0174005 0.0278066
  endloop
 endfacet
 facet normal 0.665741 -0.745019 -0.0416636
  outer loop
   vertex 0.0483018 -0.0181936 0.041989
   vertex 0.0483018 -0.0174005 0.0278066
   vertex 0.052337 -0.0137947 0.0278066
  endloop
 endfacet
 facet normal 0.601878 -0.795025 -0.0753444
  outer loop
   vertex 0.052337 -0.0137947 0.0278066
   vertex 0.0541124 -0.0137947 0.041989
   vertex 0.0483018 -0.0181936 0.041989
  endloop
 endfacet
 facet normal 0.991164 -0.0469046 -0.124076
  outer loop
   vertex 0.0541124 -0.0137947 0.041989
   vertex 0.052337 -0.0137947 0.0278066
   vertex 0.0530081 0.000387646 0.0278066
  endloop
 endfacet
 facet normal 0.980142 -0.0967705 -0.173084
  outer loop
   vertex 0.0530081 0.000387646 0.0278066
   vertex 0.0555126 0.000387646 0.041989
   vertex 0.0541124 -0.0137947 0.041989
  endloop
 endfacet
 facet normal -0.053999 0.066978 -0.996292
  outer loop
   vertex -0.0395253 0.0136137 0.00385565
   vertex -0.0316863 0.0114387 0.00328455
   vertex -0.0360423 0.00976708 0.00340827
  endloop
 endfacet
 facet normal -0.36665 -0.227059 -0.902226
  outer loop
   vertex -0.0360423 0.00976708 0.00340827
   vertex -0.0431976 0.00696591 0.00702101
   vertex -0.0395253 0.0136137 0.00385565
  endloop
 endfacet
 facet normal -0.0485829 -0.0440922 -0.997845
  outer loop
   vertex -0.0336879 0.0168796 0.00342713
   vertex -0.0256133 0.0140903 0.00315725
   vertex -0.0395253 0.0136137 0.00385565
  endloop
 endfacet
 facet normal -0.0524796 0.0723762 -0.995996
  outer loop
   vertex -0.0395253 0.0136137 0.00385565
   vertex -0.0256133 0.0140903 0.00315725
   vertex -0.0316863 0.0114387 0.00328455
  endloop
 endfacet
 facet normal -0.0246137 0.01305 -0.999612
  outer loop
   vertex -0.0206345 0.0234195 0.00315645
   vertex -0.0150576 0.0196576 0.00297001
   vertex -0.0256133 0.0140903 0.00315725
  endloop
 endfacet
 facet normal -0.0282319 0.0149809 -0.999489
  outer loop
   vertex -0.0256133 0.0140903 0.00315725
   vertex -0.0336879 0.0168796 0.00342713
   vertex -0.0206345 0.0234195 0.00315645
  endloop
 endfacet
 facet normal -0.894266 0.386819 -0.225076
  outer loop
   vertex -0.0415703 0.01457 0.0136243
   vertex -0.0395253 0.0136137 0.00385565
   vertex -0.0431976 0.00696591 0.00702101
  endloop
 endfacet
 facet normal -0.986576 0.0971051 0.131295
  outer loop
   vertex -0.0415703 0.01457 0.0136243
   vertex -0.0431976 0.00696591 0.00702101
   vertex -0.0429663 0.000387646 0.0136243
  endloop
 endfacet
 facet normal -0.999649 -0.0108811 0.0241758
  outer loop
   vertex -0.0429663 0.000387646 0.0136243
   vertex -0.0431976 0.00696591 0.00702101
   vertex -0.0431027 0.000621569 0.0080864
  endloop
 endfacet
 facet normal -0.569636 0.778328 -0.264045
  outer loop
   vertex -0.0367923 0.0180669 0.0136243
   vertex -0.0336879 0.0168796 0.00342713
   vertex -0.0415703 0.01457 0.0136243
  endloop
 endfacet
 facet normal -0.490093 0.851602 -0.185963
  outer loop
   vertex -0.0415703 0.01457 0.0136243
   vertex -0.0336879 0.0168796 0.00342713
   vertex -0.0395253 0.0136137 0.00385565
  endloop
 endfacet
 facet normal -0.440097 0.866284 -0.23636
  outer loop
   vertex -0.02261 0.0252719 0.0136243
   vertex -0.0206345 0.0234195 0.00315645
   vertex -0.0367923 0.0180669 0.0136243
  endloop
 endfacet
 facet normal -0.439309 0.867133 -0.234709
  outer loop
   vertex -0.0367923 0.0180669 0.0136243
   vertex -0.0206345 0.0234195 0.00315645
   vertex -0.0336879 0.0168796 0.00342713
  endloop
 endfacet
 facet normal -0.025229 0.0176091 -0.999527
  outer loop
   vertex -0.00744918 0.0265582 0.00287893
   vertex -0.0063572 0.0253792 0.0028306
   vertex -0.0206345 0.0234195 0.00315645
  endloop
 endfacet
 facet normal -0.0245475 0.0126289 -0.999619
  outer loop
   vertex -0.0206345 0.0234195 0.00315645
   vertex -0.0063572 0.0253792 0.0028306
   vertex -0.00686141 0.022228 0.00280317
  endloop
 endfacet
 facet normal -0.0244958 0.0132249 -0.999612
  outer loop
   vertex -0.0206345 0.0234195 0.00315645
   vertex -0.00686141 0.022228 0.00280317
   vertex -0.0150576 0.0196576 0.00297001
  endloop
 endfacet
 facet normal -0.0254532 0.0174013 -0.999525
  outer loop
   vertex -0.00187264 0.0272188 0.00274843
   vertex -0.0063572 0.0253792 0.0028306
   vertex -0.00744918 0.0265582 0.00287893
  endloop
 endfacet
 facet normal -0.177484 0.974999 -0.133701
  outer loop
   vertex -0.00842762 0.0278536 0.0136243
   vertex -0.00744918 0.0265582 0.00287893
   vertex -0.02261 0.0252719 0.0136243
  endloop
 endfacet
 facet normal -0.230548 0.949778 -0.211589
  outer loop
   vertex -0.02261 0.0252719 0.0136243
   vertex -0.00744918 0.0265582 0.00287893
   vertex -0.0206345 0.0234195 0.00315645
  endloop
 endfacet
 facet normal -0.0827458 0.990734 -0.107703
  outer loop
   vertex 0.00233312 0.0287524 0.0136243
   vertex -0.00187264 0.0272188 0.00274843
   vertex -0.00842762 0.0278536 0.0136243
  endloop
 endfacet
 facet normal -0.119627 0.984329 -0.129558
  outer loop
   vertex -0.00842762 0.0278536 0.0136243
   vertex -0.00187264 0.0272188 0.00274843
   vertex -0.00744918 0.0265582 0.00287893
  endloop
 endfacet
 facet normal -0.024269 0.0125844 -0.999626
  outer loop
   vertex -0.00686141 0.022228 0.00280317
   vertex -0.0063572 0.0253792 0.0028306
   vertex -0.00443483 0.0228053 0.00275153
  endloop
 endfacet
 facet normal -0.0241976 0.0138288 -0.999612
  outer loop
   vertex 0.00587226 0.0281324 0.00257358
   vertex 0.00627384 0.0242183 0.00250972
   vertex -0.00187264 0.0272188 0.00274843
  endloop
 endfacet
 facet normal -0.0240991 0.0140963 -0.99961
  outer loop
   vertex -0.00187264 0.0272188 0.00274843
   vertex 0.00627384 0.0242183 0.00250972
   vertex -0.0063572 0.0253792 0.0028306
  endloop
 endfacet
 facet normal -0.0242362 0.0126089 -0.999627
  outer loop
   vertex -0.0063572 0.0253792 0.0028306
   vertex 0.00627384 0.0242183 0.00250972
   vertex -0.00443483 0.0228053 0.00275153
  endloop
 endfacet
 facet normal -0.0989185 0.991259 -0.0872928
  outer loop
   vertex 0.00575473 0.0290938 0.0136243
   vertex 0.00587226 0.0281324 0.00257358
   vertex 0.00233312 0.0287524 0.0136243
  endloop
 endfacet
 facet normal -0.118717 0.988518 -0.0934798
  outer loop
   vertex 0.00233312 0.0287524 0.0136243
   vertex 0.00587226 0.0281324 0.00257358
   vertex -0.00187264 0.0272188 0.00274843
  endloop
 endfacet
 facet normal -0.997115 0.0519374 0.0553504
  outer loop
   vertex -0.0407831 0.01457 0.0278066
   vertex -0.0415703 0.01457 0.0136243
   vertex -0.0415218 0.000387646 0.0278066
  endloop
 endfacet
 facet normal -0.990118 0.0974538 0.100843
  outer loop
   vertex -0.0415218 0.000387646 0.0278066
   vertex -0.0415703 0.01457 0.0136243
   vertex -0.0429663 0.000387646 0.0136243
  endloop
 endfacet
 facet normal -0.698607 0.715219 -0.0202307
  outer loop
   vertex -0.0367923 0.018468 0.0278066
   vertex -0.0367923 0.0180669 0.0136243
   vertex -0.0407831 0.01457 0.0278066
  endloop
 endfacet
 facet normal -0.590279 0.806534 0.0327667
  outer loop
   vertex -0.0407831 0.01457 0.0278066
   vertex -0.0367923 0.0180669 0.0136243
   vertex -0.0415703 0.01457 0.0136243
  endloop
 endfacet
 facet normal -0.529014 0.83914 -0.126443
  outer loop
   vertex -0.02261 0.0274089 0.0278066
   vertex -0.02261 0.0252719 0.0136243
   vertex -0.0367923 0.018468 0.0278066
  endloop
 endfacet
 facet normal -0.452787 0.891262 -0.0252102
  outer loop
   vertex -0.0367923 0.018468 0.0278066
   vertex -0.02261 0.0252719 0.0136243
   vertex -0.0367923 0.0180669 0.0136243
  endloop
 endfacet
 facet normal -0.998535 0.0520113 0.0149304
  outer loop
   vertex -0.040571 0.01457 0.041989
   vertex -0.0407831 0.01457 0.0278066
   vertex -0.0415218 0.000387646 0.0278066
  endloop
 endfacet
 facet normal -0.998282 0.0578986 0.00902612
  outer loop
   vertex -0.0415218 0.000387646 0.0278066
   vertex -0.0413936 0.000387646 0.041989
   vertex -0.040571 0.01457 0.041989
  endloop
 endfacet
 facet normal -0.764683 0.64385 -0.0267752
  outer loop
   vertex -0.0367923 0.0190578 0.041989
   vertex -0.0367923 0.018468 0.0278066
   vertex -0.040571 0.01457 0.041989
  endloop
 endfacet
 facet normal -0.698712 0.715326 0.0104473
  outer loop
   vertex -0.040571 0.01457 0.041989
   vertex -0.0367923 0.018468 0.0278066
   vertex -0.0407831 0.01457 0.0278066
  endloop
 endfacet
 facet normal -0.618094 0.761784 -0.194023
  outer loop
   vertex -0.0248441 0.0287524 0.041989
   vertex -0.02261 0.0287524 0.0348719
   vertex -0.0367923 0.0190578 0.041989
  endloop
 endfacet
 facet normal -0.575559 0.817054 -0.0339781
  outer loop
   vertex -0.0367923 0.0190578 0.041989
   vertex -0.02261 0.0287524 0.0348719
   vertex -0.0367923 0.018468 0.0278066
  endloop
 endfacet
 facet normal -0.526527 0.835194 -0.158807
  outer loop
   vertex -0.0367923 0.018468 0.0278066
   vertex -0.02261 0.0287524 0.0348719
   vertex -0.02261 0.0274089 0.0278066
  endloop
 endfacet
 facet normal -0.181866 0.966061 -0.18344
  outer loop
   vertex -0.0184273 0.0287524 0.0278066
   vertex -0.00842762 0.0287524 0.0178928
   vertex -0.02261 0.0252719 0.0136243
  endloop
 endfacet
 facet normal -0.302699 0.942447 -0.142009
  outer loop
   vertex -0.0184273 0.0287524 0.0278066
   vertex -0.02261 0.0252719 0.0136243
   vertex -0.02261 0.0274089 0.0278066
  endloop
 endfacet
 facet normal -0.175369 0.96338 -0.202841
  outer loop
   vertex -0.02261 0.0252719 0.0136243
   vertex -0.00842762 0.0287524 0.0178928
   vertex -0.00842762 0.0278536 0.0136243
  endloop
 endfacet
 facet normal -0.0814562 0.975293 -0.205349
  outer loop
   vertex -0.00842762 0.0278536 0.0136243
   vertex -0.00842762 0.0287524 0.0178928
   vertex 0.00233312 0.0287524 0.0136243
  endloop
 endfacet
 facet normal -0.300907 0.936868 -0.17814
  outer loop
   vertex -0.02261 0.0274089 0.0278066
   vertex -0.02261 0.0287524 0.0348719
   vertex -0.0184273 0.0287524 0.0278066
  endloop
 endfacet
 facet normal -0.530814 0.830947 -0.166626
  outer loop
   vertex -0.02261 0.0301795 0.041989
   vertex -0.02261 0.0287524 0.0348719
   vertex -0.0248441 0.0287524 0.041989
  endloop
 endfacet
 facet normal -0.26529 0.926293 -0.267587
  outer loop
   vertex -0.00842762 0.0316163 0.0278066
   vertex -0.00842762 0.0287524 0.0178928
   vertex -0.0184273 0.0287524 0.0278066
  endloop
 endfacet
 facet normal -0.0951481 0.953476 -0.28606
  outer loop
   vertex 0.00575473 0.0333488 0.0278066
   vertex 0.00575473 0.0290938 0.0136243
   vertex 0.00233312 0.0287524 0.0136243
  endloop
 endfacet
 facet normal -0.111806 0.952919 -0.281861
  outer loop
   vertex 0.00575473 0.0333488 0.0278066
   vertex 0.00233312 0.0287524 0.0136243
   vertex -0.00842762 0.0287524 0.0178928
  endloop
 endfacet
 facet normal -0.11656 0.954168 -0.27564
  outer loop
   vertex 0.00575473 0.0333488 0.0278066
   vertex -0.00842762 0.0287524 0.0178928
   vertex -0.00842762 0.0316163 0.0278066
  endloop
 endfacet
 facet normal -0.333168 0.891321 -0.307483
  outer loop
   vertex -0.00842762 0.0365088 0.041989
   vertex -0.00842762 0.0316163 0.0278066
   vertex -0.02261 0.0287524 0.0348719
  endloop
 endfacet
 facet normal -0.400872 0.898252 -0.180122
  outer loop
   vertex -0.00842762 0.0365088 0.041989
   vertex -0.02261 0.0287524 0.0348719
   vertex -0.02261 0.0301795 0.041989
  endloop
 endfacet
 facet normal -0.271745 0.948828 -0.160875
  outer loop
   vertex -0.02261 0.0287524 0.0348719
   vertex -0.00842762 0.0316163 0.0278066
   vertex -0.0184273 0.0287524 0.0278066
  endloop
 endfacet
 facet normal -0.09315 0.947986 -0.304377
  outer loop
   vertex 0.00575473 0.0379024 0.041989
   vertex 0.00575473 0.0333488 0.0278066
   vertex -0.00842762 0.0365088 0.041989
  endloop
 endfacet
 facet normal -0.114718 0.939089 -0.323962
  outer loop
   vertex -0.00842762 0.0365088 0.041989
   vertex 0.00575473 0.0333488 0.0278066
   vertex -0.00842762 0.0316163 0.0278066
  endloop
 endfacet
 facet normal -0.0241886 0.012244 -0.999632
  outer loop
   vertex 0.0278354 0.0225388 0.00196743
   vertex 0.0282496 0.0227921 0.00196051
   vertex 0.028002 0.0224534 0.00196235
  endloop
 endfacet
 facet normal -0.0194961 -0.00347465 -0.999804
  outer loop
   vertex 0.0467605 0.0111004 0.00163152
   vertex 0.0389729 0.00983815 0.00178776
   vertex 0.0453899 0.0140921 0.00164785
  endloop
 endfacet
 facet normal -0.0194968 -0.00347373 -0.999804
  outer loop
   vertex 0.0453899 0.0140921 0.00164785
   vertex 0.0389729 0.00983815 0.00178776
   vertex 0.0378327 0.0116959 0.00180354
  endloop
 endfacet
 facet normal 0.0144188 0.0157702 -0.999772
  outer loop
   vertex 0.0512935 0.000460084 0.00181752
   vertex 0.0441072 0.000790076 0.00171909
   vertex 0.0389729 0.00983815 0.00178776
  endloop
 endfacet
 facet normal -0.0161101 -0.0243369 -0.999574
  outer loop
   vertex 0.0389729 0.00983815 0.00178776
   vertex 0.0467605 0.0111004 0.00163152
   vertex 0.0512935 0.000460084 0.00181752
  endloop
 endfacet
 facet normal -0.0204712 -0.00039962 -0.99979
  outer loop
   vertex 0.0453899 0.0140921 0.00164785
   vertex 0.0378327 0.0116959 0.00180354
   vertex 0.035983 0.0276424 0.00183504
  endloop
 endfacet
 facet normal -0.016277 8.70325e-05 -0.999868
  outer loop
   vertex 0.035983 0.0276424 0.00183504
   vertex 0.0378327 0.0116959 0.00180354
   vertex 0.0282496 0.0227921 0.00196051
  endloop
 endfacet
 facet normal -0.012282 0.00353797 -0.999918
  outer loop
   vertex 0.0282496 0.0227921 0.00196051
   vertex 0.0378327 0.0116959 0.00180354
   vertex 0.028002 0.0224534 0.00196235
  endloop
 endfacet
 facet normal 0.93696 0.329184 -0.117236
  outer loop
   vertex 0.0483018 0.0109845 0.0136243
   vertex 0.0467605 0.0111004 0.00163152
   vertex 0.0470421 0.01457 0.0136243
  endloop
 endfacet
 facet normal 0.899812 0.412998 -0.140612
  outer loop
   vertex 0.0470421 0.01457 0.0136243
   vertex 0.0467605 0.0111004 0.00163152
   vertex 0.0453899 0.0140921 0.00164785
  endloop
 endfacet
 facet normal 0.937307 0.341943 -0.0673024
  outer loop
   vertex 0.0521677 0.000387646 0.0136243
   vertex 0.0512935 0.000460084 0.00181752
   vertex 0.0483018 0.0109845 0.0136243
  endloop
 endfacet
 facet normal 0.914731 0.387704 -0.113814
  outer loop
   vertex 0.0483018 0.0109845 0.0136243
   vertex 0.0512935 0.000460084 0.00181752
   vertex 0.0467605 0.0111004 0.00163152
  endloop
 endfacet
 facet normal 0.889977 0.433954 -0.140091
  outer loop
   vertex 0.0470421 0.01457 0.0136243
   vertex 0.0453899 0.0140921 0.00164785
   vertex 0.0401268 0.0287524 0.0136243
  endloop
 endfacet
 facet normal 0.77517 0.542611 -0.323551
  outer loop
   vertex 0.0401268 0.0287524 0.0136243
   vertex 0.0453899 0.0140921 0.00164785
   vertex 0.035983 0.0276424 0.00183504
  endloop
 endfacet
 facet normal -0.0244149 0.0143862 -0.999598
  outer loop
   vertex 0.0193399 0.0311758 0.00229071
   vertex 0.0170793 0.025367 0.00226233
   vertex 0.00627384 0.0242183 0.00250972
  endloop
 endfacet
 facet normal -0.0241225 0.0138365 -0.999613
  outer loop
   vertex 0.00627384 0.0242183 0.00250972
   vertex 0.00587226 0.0281324 0.00257358
   vertex 0.0193399 0.0311758 0.00229071
  endloop
 endfacet
 facet normal -0.0244204 0.0134182 -0.999612
  outer loop
   vertex 0.0329808 0.0294872 0.0019348
   vertex 0.0282496 0.0227921 0.00196051
   vertex 0.0193399 0.0311758 0.00229071
  endloop
 endfacet
 facet normal -0.0237523 0.0141284 -0.999618
  outer loop
   vertex 0.0193399 0.0311758 0.00229071
   vertex 0.0282496 0.0227921 0.00196051
   vertex 0.0170793 0.025367 0.00226233
  endloop
 endfacet
 facet normal -0.0241875 0.0122421 -0.999632
  outer loop
   vertex 0.0170793 0.025367 0.00226233
   vertex 0.0282496 0.0227921 0.00196051
   vertex 0.0278354 0.0225388 0.00196743
  endloop
 endfacet
 facet normal -0.311177 0.928544 -0.202424
  outer loop
   vertex 0.0199371 0.0338466 0.0136243
   vertex 0.0193399 0.0311758 0.00229071
   vertex 0.00575473 0.0290938 0.0136243
  endloop
 endfacet
 facet normal -0.221323 0.971325 -0.0868603
  outer loop
   vertex 0.00575473 0.0290938 0.0136243
   vertex 0.0193399 0.0311758 0.00229071
   vertex 0.00587226 0.0281324 0.00257358
  endloop
 endfacet
 facet normal 0.109696 0.948665 -0.296649
  outer loop
   vertex 0.0341194 0.0330108 0.0136243
   vertex 0.0329808 0.0294872 0.0019348
   vertex 0.0193399 0.0311758 0.00229071
  endloop
 endfacet
 facet normal 0.0572286 0.971065 -0.231856
  outer loop
   vertex 0.0193399 0.0311758 0.00229071
   vertex 0.0199371 0.0338466 0.0136243
   vertex 0.0341194 0.0330108 0.0136243
  endloop
 endfacet
 facet normal -0.0248039 0.0136892 -0.999599
  outer loop
   vertex 0.035983 0.0276424 0.00183504
   vertex 0.0282496 0.0227921 0.00196051
   vertex 0.0329808 0.0294872 0.0019348
  endloop
 endfacet
 facet normal 0.556883 0.785584 -0.269701
  outer loop
   vertex 0.0401268 0.0287524 0.0136243
   vertex 0.035983 0.0276424 0.00183504
   vertex 0.0341194 0.0330108 0.0136243
  endloop
 endfacet
 facet normal 0.493142 0.818491 -0.294761
  outer loop
   vertex 0.0341194 0.0330108 0.0136243
   vertex 0.035983 0.0276424 0.00183504
   vertex 0.0329808 0.0294872 0.0019348
  endloop
 endfacet
 facet normal 0.941649 0.333687 -0.0441536
  outer loop
   vertex 0.0483018 0.0128611 0.0278066
   vertex 0.0483018 0.0109845 0.0136243
   vertex 0.0476962 0.01457 0.0278066
  endloop
 endfacet
 facet normal 0.942574 0.331156 -0.0434742
  outer loop
   vertex 0.0476962 0.01457 0.0278066
   vertex 0.0483018 0.0109845 0.0136243
   vertex 0.0470421 0.01457 0.0136243
  endloop
 endfacet
 facet normal 0.937985 0.34219 -0.0555856
  outer loop
   vertex 0.0530081 0.000387646 0.0278066
   vertex 0.0521677 0.000387646 0.0136243
   vertex 0.0483018 0.0109845 0.0136243
  endloop
 endfacet
 facet normal 0.934598 0.352631 -0.0466603
  outer loop
   vertex 0.0483018 0.0109845 0.0136243
   vertex 0.0483018 0.0128611 0.0278066
   vertex 0.0530081 0.000387646 0.0278066
  endloop
 endfacet
 facet normal 0.907804 0.417298 -0.0418706
  outer loop
   vertex 0.0476962 0.01457 0.0278066
   vertex 0.0470421 0.01457 0.0136243
   vertex 0.0411769 0.0287524 0.0278066
  endloop
 endfacet
 facet normal 0.896856 0.437309 -0.0664085
  outer loop
   vertex 0.0411769 0.0287524 0.0278066
   vertex 0.0470421 0.01457 0.0136243
   vertex 0.0401268 0.0287524 0.0136243
  endloop
 endfacet
 facet normal 0.939477 0.332917 -0.0809289
  outer loop
   vertex 0.0476962 0.01457 0.0278066
   vertex 0.0483018 0.01457 0.0348364
   vertex 0.0483018 0.0128611 0.0278066
  endloop
 endfacet
 facet normal 0.910197 0.381714 -0.160732
  outer loop
   vertex 0.0555126 0.000387646 0.041989
   vertex 0.0530081 0.000387646 0.0278066
   vertex 0.0483018 0.01457 0.0348364
  endloop
 endfacet
 facet normal 0.907972 0.401985 -0.118296
  outer loop
   vertex 0.0555126 0.000387646 0.041989
   vertex 0.0483018 0.01457 0.0348364
   vertex 0.0492337 0.01457 0.041989
  endloop
 endfacet
 facet normal 0.932191 0.351723 -0.0855005
  outer loop
   vertex 0.0483018 0.01457 0.0348364
   vertex 0.0530081 0.000387646 0.0278066
   vertex 0.0483018 0.0128611 0.0278066
  endloop
 endfacet
 facet normal 0.88767 0.440699 -0.133514
  outer loop
   vertex 0.0483018 0.016737 0.041989
   vertex 0.0483018 0.01457 0.0348364
   vertex 0.0423365 0.0287524 0.041989
  endloop
 endfacet
 facet normal 0.905361 0.418139 -0.074028
  outer loop
   vertex 0.0423365 0.0287524 0.041989
   vertex 0.0483018 0.01457 0.0348364
   vertex 0.0411769 0.0287524 0.0278066
  endloop
 endfacet
 facet normal 0.905831 0.416391 -0.0780306
  outer loop
   vertex 0.0411769 0.0287524 0.0278066
   vertex 0.0483018 0.01457 0.0348364
   vertex 0.0476962 0.01457 0.0278066
  endloop
 endfacet
 facet normal 0.912145 0.392261 -0.118839
  outer loop
   vertex 0.0492337 0.01457 0.041989
   vertex 0.0483018 0.01457 0.0348364
   vertex 0.0483018 0.016737 0.041989
  endloop
 endfacet
 facet normal -0.225561 0.955116 -0.192031
  outer loop
   vertex 0.0199371 0.0366981 0.0278066
   vertex 0.0199371 0.0338466 0.0136243
   vertex 0.00575473 0.0333488 0.0278066
  endloop
 endfacet
 facet normal -0.305629 0.91199 -0.273614
  outer loop
   vertex 0.00575473 0.0333488 0.0278066
   vertex 0.0199371 0.0338466 0.0136243
   vertex 0.00575473 0.0290938 0.0136243
  endloop
 endfacet
 facet normal 0.0585283 0.993117 -0.101451
  outer loop
   vertex 0.0341194 0.0344596 0.0278066
   vertex 0.0341194 0.0330108 0.0136243
   vertex 0.0199371 0.0338466 0.0136243
  endloop
 endfacet
 facet normal 0.152919 0.968851 -0.194793
  outer loop
   vertex 0.0199371 0.0338466 0.0136243
   vertex 0.0199371 0.0366981 0.0278066
   vertex 0.0341194 0.0344596 0.0278066
  endloop
 endfacet
 facet normal -0.0412496 0.991245 -0.125423
  outer loop
   vertex 0.0199371 0.0384926 0.041989
   vertex 0.0199371 0.0366981 0.0278066
   vertex 0.00575473 0.0379024 0.041989
  endloop
 endfacet
 facet normal -0.219377 0.928932 -0.298259
  outer loop
   vertex 0.00575473 0.0379024 0.041989
   vertex 0.0199371 0.0366981 0.0278066
   vertex 0.00575473 0.0333488 0.0278066
  endloop
 endfacet
 facet normal 0.155559 0.985576 -0.0666435
  outer loop
   vertex 0.0341194 0.0354186 0.041989
   vertex 0.0341194 0.0344596 0.0278066
   vertex 0.0199371 0.0366981 0.0278066
  endloop
 endfacet
 facet normal 0.210228 0.969919 -0.122724
  outer loop
   vertex 0.0199371 0.0366981 0.0278066
   vertex 0.0199371 0.0384926 0.041989
   vertex 0.0341194 0.0354186 0.041989
  endloop
 endfacet
 facet normal 0.577784 0.815068 -0.0427825
  outer loop
   vertex 0.0411769 0.0287524 0.0278066
   vertex 0.0401268 0.0287524 0.0136243
   vertex 0.0341194 0.0330108 0.0136243
  endloop
 endfacet
 facet normal 0.626828 0.775124 -0.0791818
  outer loop
   vertex 0.0341194 0.0330108 0.0136243
   vertex 0.0341194 0.0344596 0.0278066
   vertex 0.0411769 0.0287524 0.0278066
  endloop
 endfacet
 facet normal 0.627973 0.77654 -0.051347
  outer loop
   vertex 0.0423365 0.0287524 0.041989
   vertex 0.0411769 0.0287524 0.0278066
   vertex 0.0341194 0.0344596 0.0278066
  endloop
 endfacet
 facet normal 0.629147 0.775516 -0.0524394
  outer loop
   vertex 0.0341194 0.0344596 0.0278066
   vertex 0.0341194 0.0354186 0.041989
   vertex 0.0423365 0.0287524 0.041989
  endloop
 endfacet
 facet normal -0.470104 -0.882572 -0.00829266
  outer loop
   vertex -0.0287041 -0.0279771 0.0561714
   vertex -0.028454 -0.0279771 0.041989
   vertex -0.02261 -0.0312231 0.0561714
  endloop
 endfacet
 facet normal -0.459985 -0.887822 -0.0136641
  outer loop
   vertex -0.02261 -0.0312231 0.0561714
   vertex -0.028454 -0.0279771 0.041989
   vertex -0.02261 -0.0310049 0.041989
  endloop
 endfacet
 facet normal -0.459523 -0.862707 0.211127
  outer loop
   vertex -0.02261 -0.0312231 0.0561714
   vertex -0.02261 -0.0279771 0.0694355
   vertex -0.0287041 -0.0279771 0.0561714
  endloop
 endfacet
 facet normal -0.0675944 -0.997595 -0.0153535
  outer loop
   vertex -0.02261 -0.0312231 0.0561714
   vertex -0.02261 -0.0310049 0.041989
   vertex -0.00842762 -0.0319658 0.041989
  endloop
 endfacet
 facet normal -0.0600588 -0.998164 -0.00778805
  outer loop
   vertex -0.00842762 -0.0319658 0.041989
   vertex -0.00842762 -0.0320765 0.0561714
   vertex -0.02261 -0.0312231 0.0561714
  endloop
 endfacet
 facet normal 0.144155 -0.989525 -0.00772064
  outer loop
   vertex -0.00842762 -0.0320765 0.0561714
   vertex -0.00842762 -0.0319658 0.041989
   vertex 0.00575473 -0.0298997 0.041989
  endloop
 endfacet
 facet normal 0.161106 -0.98689 0.0096347
  outer loop
   vertex 0.00575473 -0.0298997 0.041989
   vertex 0.00575473 -0.0297613 0.0561714
   vertex -0.00842762 -0.0320765 0.0561714
  endloop
 endfacet
 facet normal -0.0861099 -0.967728 0.236828
  outer loop
   vertex -0.0200845 -0.0279771 0.0703537
   vertex -0.02261 -0.0279771 0.0694355
   vertex -0.02261 -0.0312231 0.0561714
  endloop
 endfacet
 facet normal -0.0584132 -0.970816 0.232603
  outer loop
   vertex -0.0200845 -0.0279771 0.0703537
   vertex -0.02261 -0.0312231 0.0561714
   vertex -0.00842762 -0.0320765 0.0561714
  endloop
 endfacet
 facet normal -0.0458035 -0.969078 0.242465
  outer loop
   vertex -0.0200845 -0.0279771 0.0703537
   vertex -0.00842762 -0.0320765 0.0561714
   vertex -0.00842762 -0.028528 0.0703537
  endloop
 endfacet
 facet normal 0.125656 -0.962407 0.240796
  outer loop
   vertex -0.00842762 -0.028528 0.0703537
   vertex -0.00842762 -0.0320765 0.0561714
   vertex -0.00420776 -0.0279771 0.0703537
  endloop
 endfacet
 facet normal 0.132318 -0.962035 0.238706
  outer loop
   vertex -0.00420776 -0.0279771 0.0703537
   vertex -0.00842762 -0.0320765 0.0561714
   vertex 0.00575473 -0.0279771 0.0648313
  endloop
 endfacet
 facet normal 0.157882 -0.967145 0.199259
  outer loop
   vertex 0.00575473 -0.0279771 0.0648313
   vertex -0.00842762 -0.0320765 0.0561714
   vertex 0.00575473 -0.0297613 0.0561714
  endloop
 endfacet
 facet normal -0.933221 -0.359298 -0.00201766
  outer loop
   vertex -0.0369145 -0.0137947 0.0561714
   vertex -0.0368839 -0.0137947 0.041989
   vertex -0.0367923 -0.0140325 0.041989
  endloop
 endfacet
 facet normal -0.935676 -0.352854 -0.00214685
  outer loop
   vertex -0.0367923 -0.0140325 0.041989
   vertex -0.0367923 -0.0141188 0.0561714
   vertex -0.0369145 -0.0137947 0.0561714
  endloop
 endfacet
 facet normal -0.863661 -0.504063 -0.00306684
  outer loop
   vertex -0.0367923 -0.0141188 0.0561714
   vertex -0.0367923 -0.0140325 0.041989
   vertex -0.0287041 -0.0279771 0.0561714
  endloop
 endfacet
 facet normal -0.858164 -0.513152 -0.0151381
  outer loop
   vertex -0.0287041 -0.0279771 0.0561714
   vertex -0.0367923 -0.0140325 0.041989
   vertex -0.028454 -0.0279771 0.041989
  endloop
 endfacet
 facet normal -0.952837 -0.302982 0.0174346
  outer loop
   vertex -0.0411358 0.000393233 0.0561734
   vertex -0.0413936 0.000387646 0.041989
   vertex -0.0368839 -0.0137947 0.041989
  endloop
 endfacet
 facet normal -0.958475 -0.28517 -0.00207226
  outer loop
   vertex -0.0368839 -0.0137947 0.041989
   vertex -0.0369145 -0.0137947 0.0561714
   vertex -0.0411358 0.000393233 0.0561734
  endloop
 endfacet
 facet normal -0.927022 -0.34959 0.135708
  outer loop
   vertex -0.0367923 -0.0141188 0.0561714
   vertex -0.0367923 -0.0137947 0.0570061
   vertex -0.0369145 -0.0137947 0.0561714
  endloop
 endfacet
 facet normal -0.834757 -0.490758 0.249675
  outer loop
   vertex -0.0328001 -0.0137947 0.0703537
   vertex -0.0367923 -0.0137947 0.0570061
   vertex -0.0287041 -0.0279771 0.0561714
  endloop
 endfacet
 facet normal -0.75144 -0.562266 0.345247
  outer loop
   vertex -0.0328001 -0.0137947 0.0703537
   vertex -0.0287041 -0.0279771 0.0561714
   vertex -0.02261 -0.0279771 0.0694355
  endloop
 endfacet
 facet normal -0.760409 -0.566876 0.316907
  outer loop
   vertex -0.0328001 -0.0137947 0.0703537
   vertex -0.02261 -0.0279771 0.0694355
   vertex -0.02261 -0.0274637 0.0703537
  endloop
 endfacet
 facet normal -0.847591 -0.494684 0.192032
  outer loop
   vertex -0.0287041 -0.0279771 0.0561714
   vertex -0.0367923 -0.0137947 0.0570061
   vertex -0.0367923 -0.0141188 0.0561714
  endloop
 endfacet
 facet normal -0.949173 -0.282423 0.13895
  outer loop
   vertex -0.0369145 -0.0137947 0.0561714
   vertex -0.0367923 -0.0137947 0.0570061
   vertex -0.0411358 0.000393233 0.0561734
  endloop
 endfacet
 facet normal -0.905479 -0.257399 0.337421
  outer loop
   vertex -0.0411358 0.000393233 0.0561734
   vertex -0.0367923 -0.0137947 0.0570061
   vertex -0.0367923 0.000387646 0.067825
  endloop
 endfacet
 facet normal -0.873728 -0.164321 0.457819
  outer loop
   vertex -0.0354673 0.000387646 0.0703537
   vertex -0.0367923 0.000387646 0.067825
   vertex -0.0328001 -0.0137947 0.0703537
  endloop
 endfacet
 facet normal -0.935962 -0.213554 0.279946
  outer loop
   vertex -0.0328001 -0.0137947 0.0703537
   vertex -0.0367923 0.000387646 0.067825
   vertex -0.0367923 -0.0137947 0.0570061
  endloop
 endfacet
 facet normal -0.174695 -0.85944 0.480463
  outer loop
   vertex -0.02261 -0.0274637 0.0703537
   vertex -0.02261 -0.0279771 0.0694355
   vertex -0.0200845 -0.0279771 0.0703537
  endloop
 endfacet
 facet normal 0.208531 -0.902769 0.376195
  outer loop
   vertex -0.00420776 -0.0279771 0.0703537
   vertex 0.00575473 -0.0279771 0.0648313
   vertex 0.00575473 -0.0256758 0.0703537
  endloop
 endfacet
 facet normal -0.0387856 -0.820599 0.570187
  outer loop
   vertex -0.00842762 -0.028528 0.0703537
   vertex -0.00842762 -0.0279771 0.0711466
   vertex -0.0200845 -0.0279771 0.0703537
  endloop
 endfacet
 facet normal 0.106611 -0.816537 0.567364
  outer loop
   vertex -0.00420776 -0.0279771 0.0703537
   vertex -0.00842762 -0.0279771 0.0711466
   vertex -0.00842762 -0.028528 0.0703537
  endloop
 endfacet
 facet normal -0.547542 -0.408186 0.730467
  outer loop
   vertex -0.02261 -0.0274637 0.0703537
   vertex -0.02261 -0.0137947 0.077992
   vertex -0.0328001 -0.0137947 0.0703537
  endloop
 endfacet
 facet normal -0.599204 -0.0439899 0.799387
  outer loop
   vertex -0.0328001 -0.0137947 0.0703537
   vertex -0.02261 -0.0137947 0.077992
   vertex -0.02261 0.000387646 0.0787724
  endloop
 endfacet
 facet normal -0.544912 -0.102481 0.832207
  outer loop
   vertex -0.02261 0.000387646 0.0787724
   vertex -0.0354673 0.000387646 0.0703537
   vertex -0.0328001 -0.0137947 0.0703537
  endloop
 endfacet
 facet normal -0.0583724 -0.510102 0.858131
  outer loop
   vertex -0.0200845 -0.0279771 0.0703537
   vertex -0.00842762 -0.0279771 0.0711466
   vertex -0.00842762 -0.0137947 0.0795771
  endloop
 endfacet
 facet normal -0.0971197 -0.485287 0.868945
  outer loop
   vertex -0.0200845 -0.0279771 0.0703537
   vertex -0.00842762 -0.0137947 0.0795771
   vertex -0.02261 -0.0137947 0.077992
  endloop
 endfacet
 facet normal -0.0986706 -0.485427 0.868692
  outer loop
   vertex -0.0200845 -0.0279771 0.0703537
   vertex -0.02261 -0.0137947 0.077992
   vertex -0.02261 -0.0274637 0.0703537
  endloop
 endfacet
 facet normal 0.127945 -0.553895 0.822697
  outer loop
   vertex 0.00575473 -0.0256758 0.0703537
   vertex 0.00575473 -0.0137947 0.0783529
   vertex -0.00420776 -0.0279771 0.0703537
  endloop
 endfacet
 facet normal 0.0730158 -0.528377 0.845864
  outer loop
   vertex -0.00420776 -0.0279771 0.0703537
   vertex 0.00575473 -0.0137947 0.0783529
   vertex -0.00842762 -0.0137947 0.0795771
  endloop
 endfacet
 facet normal 0.159456 -0.504435 0.848598
  outer loop
   vertex -0.00420776 -0.0279771 0.0703537
   vertex -0.00842762 -0.0137947 0.0795771
   vertex -0.00842762 -0.0279771 0.0711466
  endloop
 endfacet
 facet normal -0.11091 -0.0546074 0.992329
  outer loop
   vertex -0.02261 0.000387646 0.0787724
   vertex -0.02261 -0.0137947 0.077992
   vertex -0.00842762 -0.0137947 0.0795771
  endloop
 endfacet
 facet normal -0.0921963 -0.0357364 0.995099
  outer loop
   vertex -0.00842762 -0.0137947 0.0795771
   vertex -0.00842762 0.000387646 0.0800864
   vertex -0.02261 0.000387646 0.0787724
  endloop
 endfacet
 facet normal 0.0477543 -0.0358483 0.998216
  outer loop
   vertex -0.00842762 0.000387646 0.0800864
   vertex -0.00842762 -0.0137947 0.0795771
   vertex 0.00575473 0.000387646 0.0794079
  endloop
 endfacet
 facet normal 0.0857659 -0.0739152 0.99357
  outer loop
   vertex 0.00575473 0.000387646 0.0794079
   vertex -0.00842762 -0.0137947 0.0795771
   vertex 0.00575473 -0.0137947 0.0783529
  endloop
 endfacet
 facet normal 0.111961 -0.993665 0.00970084
  outer loop
   vertex 0.00575473 -0.0297613 0.0561714
   vertex 0.00575473 -0.0298997 0.041989
   vertex 0.0199371 -0.0283017 0.041989
  endloop
 endfacet
 facet normal 0.122186 -0.992304 0.0200658
  outer loop
   vertex 0.0199371 -0.0283017 0.041989
   vertex 0.0199371 -0.0280149 0.0561714
   vertex 0.00575473 -0.0297613 0.0561714
  endloop
 endfacet
 facet normal 0.159332 -0.987023 0.019959
  outer loop
   vertex 0.0199371 -0.0280149 0.0561714
   vertex 0.0199371 -0.0283017 0.041989
   vertex 0.0201717 -0.0279771 0.0561714
  endloop
 endfacet
 facet normal 0.172446 -0.984822 0.0196917
  outer loop
   vertex 0.0201717 -0.0279771 0.0561714
   vertex 0.0199371 -0.0283017 0.041989
   vertex 0.0217912 -0.0279771 0.041989
  endloop
 endfacet
 facet normal 0.121123 -0.983667 0.133152
  outer loop
   vertex 0.0199371 -0.0280149 0.0561714
   vertex 0.0199371 -0.0279771 0.0564511
   vertex 0.00575473 -0.0297613 0.0561714
  endloop
 endfacet
 facet normal 0.118397 -0.97254 0.200371
  outer loop
   vertex 0.00575473 -0.0297613 0.0561714
   vertex 0.0199371 -0.0279771 0.0564511
   vertex 0.00575473 -0.0279771 0.0648313
  endloop
 endfacet
 facet normal 0.157959 -0.978522 0.132455
  outer loop
   vertex 0.0201717 -0.0279771 0.0561714
   vertex 0.0199371 -0.0279771 0.0564511
   vertex 0.0199371 -0.0280149 0.0561714
  endloop
 endfacet
 facet normal 0.18469 -0.982571 0.0210899
  outer loop
   vertex 0.0201717 -0.0279771 0.0561714
   vertex 0.0217912 -0.0279771 0.041989
   vertex 0.0341194 -0.0253554 0.0561714
  endloop
 endfacet
 facet normal 0.210066 -0.977685 -0.0018715
  outer loop
   vertex 0.0341194 -0.0253554 0.0561714
   vertex 0.0217912 -0.0279771 0.041989
   vertex 0.0341194 -0.0253282 0.041989
  endloop
 endfacet
 facet normal 0.121804 -0.916189 0.381788
  outer loop
   vertex 0.00575473 -0.0256758 0.0703537
   vertex 0.00575473 -0.0279771 0.0648313
   vertex 0.0199371 -0.0237903 0.0703537
  endloop
 endfacet
 facet normal 0.167966 -0.943919 0.28426
  outer loop
   vertex 0.0199371 -0.0237903 0.0703537
   vertex 0.00575473 -0.0279771 0.0648313
   vertex 0.0199371 -0.0279771 0.0564511
  endloop
 endfacet
 facet normal 0.179718 -0.941933 0.283662
  outer loop
   vertex 0.0199371 -0.0237903 0.0703537
   vertex 0.0199371 -0.0279771 0.0564511
   vertex 0.0341194 -0.0253554 0.0561714
  endloop
 endfacet
 facet normal 0.209743 -0.926642 0.311999
  outer loop
   vertex 0.0199371 -0.0237903 0.0703537
   vertex 0.0341194 -0.0253554 0.0561714
   vertex 0.0341194 -0.0205802 0.0703537
  endloop
 endfacet
 facet normal 0.182554 -0.971206 0.153079
  outer loop
   vertex 0.0341194 -0.0253554 0.0561714
   vertex 0.0199371 -0.0279771 0.0564511
   vertex 0.0201717 -0.0279771 0.0561714
  endloop
 endfacet
 facet normal 0.408306 -0.912844 -0.00174738
  outer loop
   vertex 0.0341194 -0.0253554 0.0561714
   vertex 0.0341194 -0.0253282 0.041989
   vertex 0.0483018 -0.0190117 0.0561714
  endloop
 endfacet
 facet normal 0.448804 -0.892147 -0.0514627
  outer loop
   vertex 0.0483018 -0.0190117 0.0561714
   vertex 0.0341194 -0.0253282 0.041989
   vertex 0.0483018 -0.0181936 0.041989
  endloop
 endfacet
 facet normal 0.602957 -0.79645 -0.0459425
  outer loop
   vertex 0.0483018 -0.0190117 0.0561714
   vertex 0.0483018 -0.0181936 0.041989
   vertex 0.0541124 -0.0137947 0.041989
  endloop
 endfacet
 facet normal 0.567841 -0.820234 -0.0690788
  outer loop
   vertex 0.0541124 -0.0137947 0.041989
   vertex 0.0559332 -0.0137288 0.0561741
   vertex 0.0483018 -0.0190117 0.0561714
  endloop
 endfacet
 facet normal 0.987197 -0.097467 -0.126266
  outer loop
   vertex 0.0559332 -0.0137288 0.0561741
   vertex 0.0541124 -0.0137947 0.041989
   vertex 0.0555126 0.000387646 0.041989
  endloop
 endfacet
 facet normal 0.998759 0.0468276 0.0169875
  outer loop
   vertex 0.0555126 0.000387646 0.041989
   vertex 0.0552658 0.000492053 0.0562104
   vertex 0.0559332 -0.0137288 0.0561741
  endloop
 endfacet
 facet normal 0.390288 -0.872561 0.29379
  outer loop
   vertex 0.0341194 -0.0205802 0.0703537
   vertex 0.0341194 -0.0253554 0.0561714
   vertex 0.0483018 -0.0190117 0.0561714
  endloop
 endfacet
 facet normal 0.460853 -0.805873 0.37173
  outer loop
   vertex 0.0341194 -0.0205802 0.0703537
   vertex 0.0483018 -0.0190117 0.0561714
   vertex 0.0483018 -0.0137947 0.0674813
  endloop
 endfacet
 facet normal 0.457879 -0.766045 0.451135
  outer loop
   vertex 0.0341194 -0.0205802 0.0703537
   vertex 0.0483018 -0.0137947 0.0674813
   vertex 0.0454717 -0.0137947 0.0703537
  endloop
 endfacet
 facet normal 0.532104 -0.768827 0.354641
  outer loop
   vertex 0.0559332 -0.0137288 0.0561741
   vertex 0.0483018 -0.0137947 0.0674813
   vertex 0.0483018 -0.0190117 0.0561714
  endloop
 endfacet
 facet normal 0.687526 -0.261606 0.6774
  outer loop
   vertex 0.0454717 -0.0137947 0.0703537
   vertex 0.0483018 -0.0137947 0.0674813
   vertex 0.0483018 -0.00635704 0.0703537
  endloop
 endfacet
 facet normal 0.810816 -0.21086 0.545999
  outer loop
   vertex 0.0483018 -0.00635704 0.0703537
   vertex 0.0483018 -0.0137947 0.0674813
   vertex 0.0559332 -0.0137288 0.0561741
  endloop
 endfacet
 facet normal 0.888487 0.0405285 0.457109
  outer loop
   vertex 0.0483018 -0.00635704 0.0703537
   vertex 0.0559332 -0.0137288 0.0561741
   vertex 0.0552658 0.000492053 0.0562104
  endloop
 endfacet
 facet normal 0.907246 -0.0640715 0.415691
  outer loop
   vertex 0.0483018 -0.00635704 0.0703537
   vertex 0.0552658 0.000492053 0.0562104
   vertex 0.0487781 0.000387646 0.0703537
  endloop
 endfacet
 facet normal 0.035085 -0.593619 0.803981
  outer loop
   vertex 0.0199371 -0.0237903 0.0703537
   vertex 0.0199371 -0.0137947 0.077734
   vertex 0.00575473 -0.0137947 0.0783529
  endloop
 endfacet
 facet normal 0.0740448 -0.556952 0.827237
  outer loop
   vertex 0.00575473 -0.0137947 0.0783529
   vertex 0.00575473 -0.0256758 0.0703537
   vertex 0.0199371 -0.0237903 0.0703537
  endloop
 endfacet
 facet normal 0.119797 -0.605421 0.786838
  outer loop
   vertex 0.0341194 -0.0205802 0.0703537
   vertex 0.0341194 -0.0137947 0.0755747
   vertex 0.0199371 -0.0137947 0.077734
  endloop
 endfacet
 facet normal 0.133248 -0.588688 0.797302
  outer loop
   vertex 0.0199371 -0.0137947 0.077734
   vertex 0.0199371 -0.0237903 0.0703537
   vertex 0.0341194 -0.0205802 0.0703537
  endloop
 endfacet
 facet normal -0.00410625 -0.074188 0.997236
  outer loop
   vertex 0.00575473 0.000387646 0.0794079
   vertex 0.00575473 -0.0137947 0.0783529
   vertex 0.0199371 0.000387646 0.0794663
  endloop
 endfacet
 facet normal 0.0432765 -0.121136 0.991692
  outer loop
   vertex 0.0199371 0.000387646 0.0794663
   vertex 0.00575473 -0.0137947 0.0783529
   vertex 0.0199371 -0.0137947 0.077734
  endloop
 endfacet
 facet normal 0.108096 -0.120539 0.986806
  outer loop
   vertex 0.0199371 0.000387646 0.0794663
   vertex 0.0199371 -0.0137947 0.077734
   vertex 0.0341194 0.000387646 0.0779128
  endloop
 endfacet
 facet normal 0.148557 -0.16086 0.975733
  outer loop
   vertex 0.0341194 0.000387646 0.0779128
   vertex 0.0199371 -0.0137947 0.077734
   vertex 0.0341194 -0.0137947 0.0755747
  endloop
 endfacet
 facet normal 0.342456 -0.572939 0.744624
  outer loop
   vertex 0.0454717 -0.0137947 0.0703537
   vertex 0.0341194 -0.0137947 0.0755747
   vertex 0.0341194 -0.0205802 0.0703537
  endloop
 endfacet
 facet normal 0.451847 -0.0482327 0.890791
  outer loop
   vertex 0.0483018 -0.00635704 0.0703537
   vertex 0.0483018 0.000387646 0.0707189
   vertex 0.0341194 0.000387646 0.0779128
  endloop
 endfacet
 facet normal 0.409253 -0.148419 0.900269
  outer loop
   vertex 0.0483018 -0.00635704 0.0703537
   vertex 0.0341194 0.000387646 0.0779128
   vertex 0.0341194 -0.0137947 0.0755747
  endloop
 endfacet
 facet normal 0.412652 -0.157015 0.897254
  outer loop
   vertex 0.0483018 -0.00635704 0.0703537
   vertex 0.0341194 -0.0137947 0.0755747
   vertex 0.0454717 -0.0137947 0.0703537
  endloop
 endfacet
 facet normal 0.607888 -0.0429303 0.792861
  outer loop
   vertex 0.0487781 0.000387646 0.0703537
   vertex 0.0483018 0.000387646 0.0707189
   vertex 0.0483018 -0.00635704 0.0703537
  endloop
 endfacet
 facet normal -0.998059 0.0578857 -0.0229582
  outer loop
   vertex -0.0408972 0.01457 0.0561714
   vertex -0.040571 0.01457 0.041989
   vertex -0.0413936 0.000387646 0.041989
  endloop
 endfacet
 facet normal -0.999694 0.0168245 0.0181601
  outer loop
   vertex -0.0413936 0.000387646 0.041989
   vertex -0.0411358 0.000393233 0.0561734
   vertex -0.0408972 0.01457 0.0561714
  endloop
 endfacet
 facet normal -0.80201 0.595715 -0.0436254
  outer loop
   vertex -0.0367923 0.0200964 0.0561714
   vertex -0.0367923 0.0190578 0.041989
   vertex -0.0408972 0.01457 0.0561714
  endloop
 endfacet
 facet normal -0.764839 0.643981 -0.0175935
  outer loop
   vertex -0.0408972 0.01457 0.0561714
   vertex -0.0367923 0.0190578 0.041989
   vertex -0.040571 0.01457 0.041989
  endloop
 endfacet
 facet normal -0.626809 0.772526 -0.101557
  outer loop
   vertex -0.0271419 0.0287524 0.0561714
   vertex -0.0248441 0.0287524 0.041989
   vertex -0.0367923 0.0190578 0.041989
  endloop
 endfacet
 facet normal -0.666719 0.743318 -0.0544348
  outer loop
   vertex -0.0367923 0.0190578 0.041989
   vertex -0.0367923 0.0200964 0.0561714
   vertex -0.0271419 0.0287524 0.0561714
  endloop
 endfacet
 facet normal -0.936674 0.026679 0.349186
  outer loop
   vertex -0.0411358 0.000393233 0.0561734
   vertex -0.0367923 0.000387646 0.067825
   vertex -0.0367923 0.01457 0.0667414
  endloop
 endfacet
 facet normal -0.932058 0.0157371 0.361967
  outer loop
   vertex -0.0367923 0.01457 0.0667414
   vertex -0.0408972 0.01457 0.0561714
   vertex -0.0411358 0.000393233 0.0561734
  endloop
 endfacet
 facet normal -0.86558 0.0381495 0.499316
  outer loop
   vertex -0.0347086 0.01457 0.0703537
   vertex -0.0367923 0.01457 0.0667414
   vertex -0.0367923 0.000387646 0.067825
  endloop
 endfacet
 facet normal -0.884775 0.0473366 0.463608
  outer loop
   vertex -0.0367923 0.000387646 0.067825
   vertex -0.0354673 0.000387646 0.0703537
   vertex -0.0347086 0.01457 0.0703537
  endloop
 endfacet
 facet normal -0.766394 0.56926 0.297631
  outer loop
   vertex -0.0408972 0.01457 0.0561714
   vertex -0.0367923 0.01457 0.0667414
   vertex -0.0367923 0.0200964 0.0561714
  endloop
 endfacet
 facet normal -0.633234 0.667522 0.3917
  outer loop
   vertex -0.02261 0.0259042 0.0703537
   vertex -0.02261 0.0287524 0.0654999
   vertex -0.0367923 0.01457 0.0667414
  endloop
 endfacet
 facet normal -0.636002 0.678896 0.366882
  outer loop
   vertex -0.02261 0.0259042 0.0703537
   vertex -0.0367923 0.01457 0.0667414
   vertex -0.0347086 0.01457 0.0703537
  endloop
 endfacet
 facet normal -0.645707 0.676678 0.353793
  outer loop
   vertex -0.0367923 0.01457 0.0667414
   vertex -0.02261 0.0287524 0.0654999
   vertex -0.0367923 0.0200964 0.0561714
  endloop
 endfacet
 facet normal -0.635129 0.708099 0.308556
  outer loop
   vertex -0.0367923 0.0200964 0.0561714
   vertex -0.02261 0.0287524 0.0654999
   vertex -0.0271419 0.0287524 0.0561714
  endloop
 endfacet
 facet normal -0.27197 0.829965 0.487021
  outer loop
   vertex -0.0139183 0.0287524 0.0703537
   vertex -0.02261 0.0287524 0.0654999
   vertex -0.02261 0.0259042 0.0703537
  endloop
 endfacet
 facet normal -0.536424 0.83973 -0.0842794
  outer loop
   vertex -0.02261 0.0316029 0.0561714
   vertex -0.02261 0.0301795 0.041989
   vertex -0.0248441 0.0287524 0.041989
  endloop
 endfacet
 facet normal -0.530457 0.843344 -0.0859457
  outer loop
   vertex -0.0248441 0.0287524 0.041989
   vertex -0.0271419 0.0287524 0.0561714
   vertex -0.02261 0.0316029 0.0561714
  endloop
 endfacet
 facet normal -0.515463 0.819505 0.25042
  outer loop
   vertex -0.0271419 0.0287524 0.0561714
   vertex -0.02261 0.0287524 0.0654999
   vertex -0.02261 0.0316029 0.0561714
  endloop
 endfacet
 facet normal -0.362859 0.930949 -0.0408292
  outer loop
   vertex -0.00842762 0.0371308 0.0561714
   vertex -0.00842762 0.0365088 0.041989
   vertex -0.02261 0.0316029 0.0561714
  endloop
 endfacet
 facet normal -0.405837 0.909377 -0.0912695
  outer loop
   vertex -0.02261 0.0316029 0.0561714
   vertex -0.00842762 0.0365088 0.041989
   vertex -0.02261 0.0301795 0.041989
  endloop
 endfacet
 facet normal -0.0572954 0.998353 -0.00298165
  outer loop
   vertex 0.00575473 0.0379448 0.0561714
   vertex 0.00575473 0.0379024 0.041989
   vertex -0.00842762 0.0371308 0.0561714
  endloop
 endfacet
 facet normal -0.097697 0.99426 -0.0436059
  outer loop
   vertex -0.00842762 0.0371308 0.0561714
   vertex 0.00575473 0.0379024 0.041989
   vertex -0.00842762 0.0365088 0.041989
  endloop
 endfacet
 facet normal -0.184257 0.875824 0.446074
  outer loop
   vertex -0.00842762 0.0299075 0.0703537
   vertex -0.00842762 0.0371308 0.0561714
   vertex -0.0139183 0.0287524 0.0703537
  endloop
 endfacet
 facet normal -0.237044 0.873859 0.424477
  outer loop
   vertex -0.0139183 0.0287524 0.0703537
   vertex -0.00842762 0.0371308 0.0561714
   vertex -0.02261 0.0287524 0.0654999
  endloop
 endfacet
 facet normal -0.349281 0.896114 0.27383
  outer loop
   vertex -0.02261 0.0287524 0.0654999
   vertex -0.00842762 0.0371308 0.0561714
   vertex -0.02261 0.0316029 0.0561714
  endloop
 endfacet
 facet normal -0.0515358 0.897994 0.436979
  outer loop
   vertex 0.00575473 0.0310434 0.0703537
   vertex 0.00575473 0.0379448 0.0561714
   vertex -0.00842762 0.0371308 0.0561714
  endloop
 endfacet
 facet normal -0.0711878 0.88882 0.452693
  outer loop
   vertex -0.00842762 0.0371308 0.0561714
   vertex -0.00842762 0.0299075 0.0703537
   vertex 0.00575473 0.0310434 0.0703537
  endloop
 endfacet
 facet normal -0.545886 0.0834403 0.833695
  outer loop
   vertex -0.0354673 0.000387646 0.0703537
   vertex -0.02261 0.000387646 0.0787724
   vertex -0.02261 0.01457 0.077353
  endloop
 endfacet
 facet normal -0.50058 0.0267817 0.865276
  outer loop
   vertex -0.02261 0.01457 0.077353
   vertex -0.0347086 0.01457 0.0703537
   vertex -0.0354673 0.000387646 0.0703537
  endloop
 endfacet
 facet normal -0.441627 0.471411 0.763372
  outer loop
   vertex -0.0347086 0.01457 0.0703537
   vertex -0.02261 0.01457 0.077353
   vertex -0.02261 0.0259042 0.0703537
  endloop
 endfacet
 facet normal -0.0918004 0.0991669 0.990827
  outer loop
   vertex -0.02261 0.01457 0.077353
   vertex -0.02261 0.000387646 0.0787724
   vertex -0.00842762 0.000387646 0.0800864
  endloop
 endfacet
 facet normal -0.0951206 0.0958493 0.990841
  outer loop
   vertex -0.00842762 0.000387646 0.0800864
   vertex -0.00842762 0.01457 0.0787145
   vertex -0.02261 0.01457 0.077353
  endloop
 endfacet
 facet normal 0.0475635 0.0961769 0.994227
  outer loop
   vertex -0.00842762 0.01457 0.0787145
   vertex -0.00842762 0.000387646 0.0800864
   vertex 0.00575473 0.000387646 0.0794079
  endloop
 endfacet
 facet normal 0.0115493 0.0603525 0.99811
  outer loop
   vertex 0.00575473 0.000387646 0.0794079
   vertex 0.00575473 0.01457 0.0785504
   vertex -0.00842762 0.01457 0.0787145
  endloop
 endfacet
 facet normal -0.16968 0.517807 0.838502
  outer loop
   vertex -0.02261 0.0259042 0.0703537
   vertex -0.02261 0.01457 0.077353
   vertex -0.0139183 0.0287524 0.0703537
  endloop
 endfacet
 facet normal -0.0837378 0.481802 0.87227
  outer loop
   vertex -0.0139183 0.0287524 0.0703537
   vertex -0.02261 0.01457 0.077353
   vertex -0.00842762 0.01457 0.0787145
  endloop
 endfacet
 facet normal -0.181346 0.446376 0.876277
  outer loop
   vertex -0.0139183 0.0287524 0.0703537
   vertex -0.00842762 0.01457 0.0787145
   vertex -0.00842762 0.0287524 0.07149
  endloop
 endfacet
 facet normal -0.0640373 0.452971 0.889223
  outer loop
   vertex -0.00842762 0.0287524 0.07149
   vertex -0.00842762 0.01457 0.0787145
   vertex 0.00575473 0.0287524 0.0725113
  endloop
 endfacet
 facet normal 0.0106456 0.391753 0.920009
  outer loop
   vertex 0.00575473 0.0287524 0.0725113
   vertex -0.00842762 0.01457 0.0787145
   vertex 0.00575473 0.01457 0.0785504
  endloop
 endfacet
 facet normal -0.145954 0.693759 0.705263
  outer loop
   vertex -0.0139183 0.0287524 0.0703537
   vertex -0.00842762 0.0287524 0.07149
   vertex -0.00842762 0.0299075 0.0703537
  endloop
 endfacet
 facet normal -0.0512717 0.700346 0.71196
  outer loop
   vertex -0.00842762 0.0299075 0.0703537
   vertex -0.00842762 0.0287524 0.07149
   vertex 0.00575473 0.0287524 0.0725113
  endloop
 endfacet
 facet normal -0.0548284 0.684563 0.726889
  outer loop
   vertex 0.00575473 0.0287524 0.0725113
   vertex 0.00575473 0.0310434 0.0703537
   vertex -0.00842762 0.0299075 0.0703537
  endloop
 endfacet
 facet normal 0.960211 0.278892 0.0146149
  outer loop
   vertex 0.0552658 0.000492053 0.0562104
   vertex 0.0555126 0.000387646 0.041989
   vertex 0.0511775 0.01457 0.0561714
  endloop
 endfacet
 facet normal 0.907295 0.401685 -0.124353
  outer loop
   vertex 0.0511775 0.01457 0.0561714
   vertex 0.0555126 0.000387646 0.041989
   vertex 0.0492337 0.01457 0.041989
  endloop
 endfacet
 facet normal 0.889067 0.441392 -0.121382
  outer loop
   vertex 0.0483018 0.0206371 0.0561714
   vertex 0.0483018 0.016737 0.041989
   vertex 0.0423365 0.0287524 0.041989
  endloop
 endfacet
 facet normal 0.880333 0.462437 -0.105667
  outer loop
   vertex 0.0423365 0.0287524 0.041989
   vertex 0.0440389 0.0287524 0.0561714
   vertex 0.0483018 0.0206371 0.0561714
  endloop
 endfacet
 facet normal 0.911458 0.391966 -0.124924
  outer loop
   vertex 0.0511775 0.01457 0.0561714
   vertex 0.0492337 0.01457 0.041989
   vertex 0.0483018 0.016737 0.041989
  endloop
 endfacet
 facet normal 0.897429 0.425369 -0.116976
  outer loop
   vertex 0.0483018 0.016737 0.041989
   vertex 0.0483018 0.0206371 0.0561714
   vertex 0.0511775 0.01457 0.0561714
  endloop
 endfacet
 facet normal 0.856643 0.215441 0.468773
  outer loop
   vertex 0.0483018 0.00440888 0.0703537
   vertex 0.0483018 0.01457 0.0656838
   vertex 0.0457463 0.01457 0.0703537
  endloop
 endfacet
 facet normal 0.903416 0.107011 0.415197
  outer loop
   vertex 0.0487781 0.000387646 0.0703537
   vertex 0.0552658 0.000492053 0.0562104
   vertex 0.0483018 0.00440888 0.0703537
  endloop
 endfacet
 facet normal 0.892838 0.260304 0.367536
  outer loop
   vertex 0.0483018 0.00440888 0.0703537
   vertex 0.0552658 0.000492053 0.0562104
   vertex 0.0511775 0.01457 0.0561714
  endloop
 endfacet
 facet normal 0.948861 0.131832 0.28685
  outer loop
   vertex 0.0483018 0.00440888 0.0703537
   vertex 0.0511775 0.01457 0.0561714
   vertex 0.0483018 0.01457 0.0656838
  endloop
 endfacet
 facet normal 0.789126 0.436813 0.431826
  outer loop
   vertex 0.0457463 0.01457 0.0703537
   vertex 0.0483018 0.01457 0.0656838
   vertex 0.0378958 0.0287524 0.0703537
  endloop
 endfacet
 facet normal 0.811836 0.49228 0.313978
  outer loop
   vertex 0.0378958 0.0287524 0.0703537
   vertex 0.0483018 0.01457 0.0656838
   vertex 0.0483018 0.0206371 0.0561714
  endloop
 endfacet
 facet normal 0.826601 0.434211 0.358039
  outer loop
   vertex 0.0378958 0.0287524 0.0703537
   vertex 0.0483018 0.0206371 0.0561714
   vertex 0.0440389 0.0287524 0.0561714
  endloop
 endfacet
 facet normal 0.871692 0.41317 0.263521
  outer loop
   vertex 0.0483018 0.0206371 0.0561714
   vertex 0.0483018 0.01457 0.0656838
   vertex 0.0511775 0.01457 0.0561714
  endloop
 endfacet
 facet normal -0.0415699 0.998944 0.0195835
  outer loop
   vertex 0.0199371 0.0382145 0.0561714
   vertex 0.0199371 0.0384926 0.041989
   vertex 0.00575473 0.0379024 0.041989
  endloop
 endfacet
 facet normal -0.0190196 0.999815 -0.00298601
  outer loop
   vertex 0.00575473 0.0379024 0.041989
   vertex 0.00575473 0.0379448 0.0561714
   vertex 0.0199371 0.0382145 0.0561714
  endloop
 endfacet
 facet normal 0.211525 0.975906 -0.053517
  outer loop
   vertex 0.0341194 0.0361963 0.0561714
   vertex 0.0341194 0.0354186 0.041989
   vertex 0.0199371 0.0384926 0.041989
  endloop
 endfacet
 facet normal 0.140859 0.989839 0.019405
  outer loop
   vertex 0.0199371 0.0384926 0.041989
   vertex 0.0199371 0.0382145 0.0561714
   vertex 0.0341194 0.0361963 0.0561714
  endloop
 endfacet
 facet normal -0.0177361 0.932345 0.361135
  outer loop
   vertex 0.0199371 0.0327212 0.0703537
   vertex 0.0199371 0.0382145 0.0561714
   vertex 0.00575473 0.0379448 0.0561714
  endloop
 endfacet
 facet normal -0.105777 0.894144 0.435106
  outer loop
   vertex 0.00575473 0.0379448 0.0561714
   vertex 0.00575473 0.0310434 0.0703537
   vertex 0.0199371 0.0327212 0.0703537
  endloop
 endfacet
 facet normal 0.0993882 0.938925 0.329458
  outer loop
   vertex 0.0341194 0.0312199 0.0703537
   vertex 0.0341194 0.0361963 0.0561714
   vertex 0.0199371 0.0327212 0.0703537
  endloop
 endfacet
 facet normal 0.131545 0.924388 0.358053
  outer loop
   vertex 0.0199371 0.0327212 0.0703537
   vertex 0.0341194 0.0361963 0.0561714
   vertex 0.0199371 0.0382145 0.0561714
  endloop
 endfacet
 facet normal 0.598675 0.797762 -0.0718593
  outer loop
   vertex 0.0440389 0.0287524 0.0561714
   vertex 0.0423365 0.0287524 0.041989
   vertex 0.0341194 0.0361963 0.0561714
  endloop
 endfacet
 facet normal 0.629443 0.775881 -0.042548
  outer loop
   vertex 0.0341194 0.0361963 0.0561714
   vertex 0.0423365 0.0287524 0.041989
   vertex 0.0341194 0.0354186 0.041989
  endloop
 endfacet
 facet normal 0.580915 0.774096 0.251621
  outer loop
   vertex 0.0378958 0.0287524 0.0703537
   vertex 0.0440389 0.0287524 0.0561714
   vertex 0.0341194 0.0361963 0.0561714
  endloop
 endfacet
 facet normal 0.524823 0.8032 0.281834
  outer loop
   vertex 0.0341194 0.0361963 0.0561714
   vertex 0.0341194 0.0312199 0.0703537
   vertex 0.0378958 0.0287524 0.0703537
  endloop
 endfacet
 facet normal -0.0345457 0.0603205 0.997581
  outer loop
   vertex 0.00575473 0.01457 0.0785504
   vertex 0.00575473 0.000387646 0.0794079
   vertex 0.0199371 0.01457 0.0790415
  endloop
 endfacet
 facet normal -0.00411575 0.0299413 0.999543
  outer loop
   vertex 0.0199371 0.01457 0.0790415
   vertex 0.00575473 0.000387646 0.0794079
   vertex 0.0199371 0.000387646 0.0794663
  endloop
 endfacet
 facet normal 0.108842 0.0297637 0.993613
  outer loop
   vertex 0.0199371 0.01457 0.0790415
   vertex 0.0199371 0.000387646 0.0794663
   vertex 0.0341194 0.000387646 0.0779128
  endloop
 endfacet
 facet normal 0.112695 0.0336608 0.993059
  outer loop
   vertex 0.0341194 0.000387646 0.0779128
   vertex 0.0341194 0.01457 0.0774321
   vertex 0.0199371 0.01457 0.0790415
  endloop
 endfacet
 facet normal -0.102626 0.389707 0.915203
  outer loop
   vertex 0.00575473 0.0287524 0.0725113
   vertex 0.00575473 0.01457 0.0785504
   vertex 0.0199371 0.0287524 0.0741017
  endloop
 endfacet
 facet normal -0.032685 0.328752 0.943851
  outer loop
   vertex 0.0199371 0.0287524 0.0741017
   vertex 0.00575473 0.01457 0.0785504
   vertex 0.0199371 0.01457 0.0790415
  endloop
 endfacet
 facet normal 0.106557 0.327055 0.938979
  outer loop
   vertex 0.0199371 0.0287524 0.0741017
   vertex 0.0199371 0.01457 0.0790415
   vertex 0.0341194 0.01457 0.0774321
  endloop
 endfacet
 facet normal 0.096836 0.318286 0.943036
  outer loop
   vertex 0.0341194 0.01457 0.0774321
   vertex 0.0341194 0.0287524 0.0726454
   vertex 0.0199371 0.0287524 0.0741017
  endloop
 endfacet
 facet normal 0.515616 0.129674 0.84695
  outer loop
   vertex 0.0457463 0.01457 0.0703537
   vertex 0.0341194 0.01457 0.0774321
   vertex 0.0483018 0.00440888 0.0703537
  endloop
 endfacet
 facet normal 0.463501 0.030018 0.885588
  outer loop
   vertex 0.0483018 0.00440888 0.0703537
   vertex 0.0341194 0.01457 0.0774321
   vertex 0.0341194 0.000387646 0.0779128
  endloop
 endfacet
 facet normal 0.450897 0.0807291 0.888918
  outer loop
   vertex 0.0483018 0.00440888 0.0703537
   vertex 0.0341194 0.000387646 0.0779128
   vertex 0.0483018 0.000387646 0.0707189
  endloop
 endfacet
 facet normal 0.606875 0.0718855 0.79154
  outer loop
   vertex 0.0483018 0.00440888 0.0703537
   vertex 0.0483018 0.000387646 0.0707189
   vertex 0.0487781 0.000387646 0.0703537
  endloop
 endfacet
 facet normal 0.498451 0.277231 0.821395
  outer loop
   vertex 0.0378958 0.0287524 0.0703537
   vertex 0.0341194 0.0287524 0.0726454
   vertex 0.0341194 0.01457 0.0774321
  endloop
 endfacet
 facet normal 0.499717 0.276614 0.820834
  outer loop
   vertex 0.0341194 0.01457 0.0774321
   vertex 0.0457463 0.01457 0.0703537
   vertex 0.0378958 0.0287524 0.0703537
  endloop
 endfacet
 facet normal -0.081362 0.683321 0.72557
  outer loop
   vertex 0.00575473 0.0310434 0.0703537
   vertex 0.00575473 0.0287524 0.0725113
   vertex 0.0199371 0.0287524 0.0741017
  endloop
 endfacet
 facet normal -0.0809568 0.684337 0.724658
  outer loop
   vertex 0.0199371 0.0287524 0.0741017
   vertex 0.0199371 0.0327212 0.0703537
   vertex 0.00575473 0.0310434 0.0703537
  endloop
 endfacet
 facet normal 0.0724866 0.684785 0.725132
  outer loop
   vertex 0.0199371 0.0327212 0.0703537
   vertex 0.0199371 0.0287524 0.0741017
   vertex 0.0341194 0.0312199 0.0703537
  endloop
 endfacet
 facet normal 0.0750297 0.678589 0.730676
  outer loop
   vertex 0.0341194 0.0312199 0.0703537
   vertex 0.0199371 0.0287524 0.0741017
   vertex 0.0341194 0.0287524 0.0726454
  endloop
 endfacet
 facet normal 0.406298 0.621807 0.669535
  outer loop
   vertex 0.0341194 0.0312199 0.0703537
   vertex 0.0341194 0.0287524 0.0726454
   vertex 0.0378958 0.0287524 0.0703537
  endloop
 endfacet
endsolid
